<svg width="205" height="97" viewBox="0 0 205 97" fill="none" xmlns="http://www.w3.org/2000/svg">
<circle cx="48.5" cy="48.5" r="44.5" stroke="#3478F6" stroke-width="8"/>
<rect x="24" y="24" width="181" height="49" rx="24.5" fill="#3478F6"/>
<path d="M47.5843 51.84L46 36.6857V36H52V36.6857L50.4157 51.84H47.5843ZM46.2697 60V54.5143H51.7303V60H46.2697Z" fill="white"/>
<path d="M74.3967 53.0003V43.2003H78.7927C79.9221 43.2003 80.7761 43.4896 81.3547 44.0683C81.7934 44.507 82.0127 45.0576 82.0127 45.7203C82.0127 46.691 81.5461 47.419 80.6127 47.9043C81.9101 48.343 82.5587 49.1456 82.5587 50.3123C82.5587 51.171 82.2321 51.8336 81.5787 52.3003C80.9254 52.767 80.0434 53.0003 78.9327 53.0003H74.3967ZM76.0907 47.3303H78.4427C79.0121 47.3303 79.4601 47.2183 79.7867 46.9943C80.1227 46.761 80.2907 46.4203 80.2907 45.9723C80.2907 45.5803 80.1414 45.277 79.8427 45.0623C79.5441 44.8383 79.1194 44.7263 78.5687 44.7263H76.0907V47.3303ZM76.0907 51.4743H78.9467C79.5441 51.4743 80.0061 51.3576 80.3327 51.1243C80.6687 50.891 80.8367 50.5503 80.8367 50.1023C80.8367 49.225 80.1647 48.7863 78.8207 48.7863H76.0907V51.4743Z" fill="white"/>
<path d="M90.5062 53.0003H88.8262V52.0903C88.2289 52.7996 87.4309 53.1543 86.4322 53.1543C85.6949 53.1543 85.0696 52.9536 84.5562 52.5523C84.0522 52.1416 83.8002 51.5723 83.8002 50.8443C83.8002 50.051 84.0756 49.449 84.6262 49.0383C85.1769 48.6276 85.9002 48.4223 86.7962 48.4223C87.5149 48.4223 88.1962 48.525 88.8402 48.7303V48.5903C88.8402 48.077 88.6816 47.685 88.3642 47.4143C88.0562 47.1436 87.6082 47.0083 87.0202 47.0083C86.3482 47.0083 85.6436 47.1623 84.9062 47.4703L84.4442 46.1123C85.3589 45.7016 86.2969 45.4963 87.2582 45.4963C88.3316 45.4963 89.1389 45.767 89.6802 46.3083C90.2309 46.8496 90.5062 47.6196 90.5062 48.6183V53.0003ZM88.8682 50.3263V49.9063C88.3642 49.7103 87.7996 49.6123 87.1742 49.6123C86.6422 49.6123 86.2269 49.715 85.9282 49.9203C85.6296 50.1256 85.4802 50.415 85.4802 50.7883C85.4802 51.1243 85.6156 51.3903 85.8862 51.5863C86.1569 51.7823 86.4976 51.8803 86.9082 51.8803C87.4776 51.8803 87.9442 51.7356 88.3082 51.4463C88.6816 51.157 88.8682 50.7836 88.8682 50.3263Z" fill="white"/>
<path d="M92.521 53.0003V45.6083H94.201V49.1503L97.421 45.6083H99.409L96.539 48.7163L99.647 53.0003H97.645L95.405 49.9483L94.201 51.2223V53.0003H92.521Z" fill="white"/>
<path d="M107.022 53.0003H105.342V52.0903C104.745 52.7996 103.947 53.1543 102.948 53.1543C102.211 53.1543 101.585 52.9536 101.072 52.5523C100.568 52.1416 100.316 51.5723 100.316 50.8443C100.316 50.051 100.591 49.449 101.142 49.0383C101.693 48.6276 102.416 48.4223 103.312 48.4223C104.031 48.4223 104.712 48.525 105.356 48.7303V48.5903C105.356 48.077 105.197 47.685 104.88 47.4143C104.572 47.1436 104.124 47.0083 103.536 47.0083C102.864 47.0083 102.159 47.1623 101.422 47.4703L100.96 46.1123C101.875 45.7016 102.813 45.4963 103.774 45.4963C104.847 45.4963 105.655 45.767 106.196 46.3083C106.747 46.8496 107.022 47.6196 107.022 48.6183V53.0003ZM105.384 50.3263V49.9063C104.88 49.7103 104.315 49.6123 103.69 49.6123C103.158 49.6123 102.743 49.715 102.444 49.9203C102.145 50.1256 101.996 50.415 101.996 50.7883C101.996 51.1243 102.131 51.3903 102.402 51.5863C102.673 51.7823 103.013 51.8803 103.424 51.8803C103.993 51.8803 104.46 51.7356 104.824 51.4463C105.197 51.157 105.384 50.7836 105.384 50.3263Z" fill="white"/>
<path d="M109.037 53.0003V45.6083H110.731V48.6043H113.993V45.6083H115.687V53.0003H113.993V50.0183H110.731V53.0003H109.037Z" fill="white"/>
<path d="M121.23 53.1683C120.138 53.1683 119.228 52.7996 118.5 52.0623C117.772 51.3156 117.408 50.4103 117.408 49.3463V49.3183C117.408 48.2543 117.772 47.3443 118.5 46.5883C119.237 45.8323 120.152 45.4543 121.244 45.4543C122.439 45.4543 123.423 45.879 124.198 46.7283L123.148 47.8623C122.56 47.2463 121.921 46.9383 121.23 46.9383C120.623 46.9383 120.115 47.167 119.704 47.6243C119.303 48.0816 119.102 48.637 119.102 49.2903V49.3183C119.102 49.9903 119.307 50.555 119.718 51.0123C120.138 51.4696 120.67 51.6983 121.314 51.6983C121.995 51.6983 122.635 51.3903 123.232 50.7743L124.254 51.7823C123.853 52.2303 123.414 52.5756 122.938 52.8183C122.471 53.0516 121.902 53.1683 121.23 53.1683Z" fill="white"/>
<path d="M125.744 53.0003V45.6083H127.396V50.5643C128.945 48.3616 130.112 46.7096 130.896 45.6083H132.492V53.0003H130.854V48.0723L127.34 53.0003H125.744Z" fill="white"/>
<path d="M139.461 44.2363C139.078 44.5816 138.593 44.7543 138.005 44.7543C137.417 44.7543 136.927 44.5816 136.535 44.2363C136.143 43.8816 135.9 43.4056 135.807 42.8083L136.843 42.6123C137.039 43.247 137.426 43.5643 138.005 43.5643C138.583 43.5643 138.971 43.247 139.167 42.6123L140.189 42.8083C140.095 43.4056 139.853 43.8816 139.461 44.2363ZM134.617 53.0003V45.6083H136.269V50.5643C137.818 48.3616 138.985 46.7096 139.769 45.6083H141.365V53.0003H139.727V48.0723L136.213 53.0003H134.617Z" fill="white"/>
<path d="M147.687 53.0003V45.6083H149.381V48.6043H152.643V45.6083H154.337V53.0003H152.643V50.0183H149.381V53.0003H147.687Z" fill="white"/>
<path d="M159.852 53.1683C158.77 53.1683 157.864 52.809 157.136 52.0903C156.418 51.3716 156.058 50.443 156.058 49.3043C156.058 48.231 156.399 47.321 157.08 46.5743C157.762 45.8276 158.625 45.4543 159.67 45.4543C160.79 45.4543 161.658 45.837 162.274 46.6023C162.9 47.3583 163.212 48.301 163.212 49.4303C163.212 49.6356 163.203 49.7943 163.184 49.9063H157.752C157.846 50.4943 158.084 50.9563 158.466 51.2923C158.849 51.619 159.32 51.7823 159.88 51.7823C160.608 51.7823 161.276 51.4883 161.882 50.9003L162.876 51.7823C162.111 52.7063 161.103 53.1683 159.852 53.1683ZM157.738 48.7863H161.532C161.476 48.217 161.285 47.7503 160.958 47.3863C160.632 47.0223 160.198 46.8403 159.656 46.8403C159.143 46.8403 158.714 47.0223 158.368 47.3863C158.023 47.741 157.813 48.2076 157.738 48.7863Z" fill="white"/>
<path d="M166.496 53.0003V47.0643H164.116V45.6083H170.584V47.0643H168.204V53.0003H166.496Z" fill="white"/>
</svg>
