<svg width="231" height="229" viewBox="0 0 231 229" fill="none" xmlns="http://www.w3.org/2000/svg">
<path d="M205.128 207.695C205.123 208.766 204.25 209.631 203.179 209.626C202.107 209.621 201.243 208.749 201.248 207.676C201.253 206.606 202.126 205.741 203.197 205.745C204.269 205.751 205.132 206.623 205.128 207.695Z" fill="#3478F6"/>
<path d="M199.31 205.2C201.44 202.963 204.902 202.896 207.088 205.098C208.079 206.096 209.629 204.561 208.639 203.562C205.64 200.54 200.718 200.558 197.774 203.65C196.806 204.667 198.339 206.219 199.31 205.2Z" fill="#3478F6"/>
<path d="M195.32 201.177C197.298 199.038 200.069 197.7 202.999 197.633C206.009 197.564 208.914 198.804 211.006 200.953C211.987 201.961 213.536 200.425 212.556 199.417C210.081 196.874 206.573 195.37 203.009 195.451C199.525 195.53 196.148 197.072 193.784 199.627C192.832 200.656 194.364 202.211 195.32 201.177" fill="#3478F6"/>
<path d="M137.137 135.326H96.0223C90.1534 135.326 85.3959 130.569 85.3959 124.7V83.5851C85.3959 77.7163 90.1534 72.9588 96.0223 72.9588H137.137C143.006 72.9588 147.763 77.7163 147.763 83.5851V124.7C147.763 130.569 143.006 135.326 137.137 135.326" fill="white"/>
<path d="M137.137 135.326C137.133 135.276 137.955 135.339 139.454 135.009C140.918 134.66 143.157 133.814 145.071 131.597C146.021 130.508 146.852 129.08 147.28 127.37C147.77 125.67 147.591 123.722 147.614 121.643C147.602 117.484 147.589 112.754 147.575 107.527C147.565 102.295 147.553 96.5662 147.542 90.418C147.54 88.8799 147.538 87.3162 147.535 85.728C147.519 84.1326 147.619 82.523 147.185 80.9767C146.415 77.8688 144.017 75.0874 140.845 73.8983C140.062 73.578 139.224 73.4039 138.379 73.2883C137.537 73.1942 136.663 73.2034 135.772 73.2085C134.001 73.2106 132.21 73.2116 130.401 73.2126C126.78 73.2157 123.085 73.2177 119.323 73.2198C111.798 73.2208 104.007 73.2229 96.0271 73.2249C94.0828 73.2464 92.1497 73.7744 90.5277 74.8131C89.7162 75.3227 88.9651 75.9347 88.3378 76.6531C87.689 77.3541 87.1527 78.1523 86.7393 79.0027C86.2982 79.8439 86.0322 80.7597 85.8429 81.6776C85.6648 82.6068 85.6556 83.534 85.6587 84.5C85.6576 86.4137 85.6576 88.312 85.6566 90.1939C85.6515 97.7195 85.6464 104.98 85.6413 111.896C85.6372 115.354 85.6331 118.726 85.63 122.002C85.6587 123.643 85.5205 125.266 85.8326 126.785C86.1468 128.309 86.8048 129.731 87.7064 130.934C89.5023 133.365 92.2981 134.847 95.0887 135.073C97.905 135.174 100.672 135.11 103.279 135.138C113.724 135.174 122.183 135.202 128.053 135.223C130.962 135.244 133.228 135.261 134.788 135.272C135.543 135.284 136.125 135.292 136.54 135.299C136.934 135.308 137.137 135.326 137.137 135.326C137.137 135.326 136.934 135.345 136.54 135.353C136.125 135.36 135.543 135.368 134.788 135.38C133.228 135.392 130.962 135.408 128.053 135.43C122.183 135.45 113.724 135.479 103.279 135.514C100.656 135.499 97.9408 135.575 95.0519 135.483C92.1497 135.259 89.2322 133.727 87.3523 131.2C86.4088 129.948 85.718 128.467 85.3865 126.875C85.0549 125.265 85.1961 123.629 85.1613 122.002C85.1572 118.726 85.1542 115.354 85.1501 111.896C85.1449 104.98 85.1398 97.7195 85.1347 90.1939C85.1337 88.312 85.1327 86.4137 85.1316 84.5C85.1276 83.5555 85.1357 82.5506 85.323 81.5815C85.5205 80.6154 85.8019 79.6525 86.2645 78.7683C86.6994 77.8729 87.2622 77.0337 87.9428 76.298C88.6038 75.5417 89.3918 74.8991 90.2453 74.3618C91.9501 73.2699 93.9845 72.7132 96.0271 72.6917C104.007 72.6938 111.798 72.6958 119.323 72.6978C123.085 72.6999 126.78 72.7019 130.401 72.704C132.21 72.706 134.001 72.7071 135.772 72.7081C136.651 72.704 137.541 72.6948 138.438 72.7951C139.324 72.9179 140.202 73.1031 141.021 73.4398C144.342 74.6923 146.841 77.6068 147.638 80.859C148.088 82.4912 147.979 84.1582 147.991 85.728C147.988 87.3162 147.986 88.8799 147.984 90.418C147.972 96.5662 147.962 102.295 147.951 107.527C147.937 112.754 147.924 117.484 147.912 121.643C147.875 123.704 148.042 125.681 147.526 127.434C147.072 129.182 146.209 130.633 145.227 131.733C143.25 133.971 140.963 134.795 139.477 135.114C138.718 135.261 138.13 135.327 137.734 135.323C137.338 135.334 137.137 135.326 137.137 135.326" fill="#17282F"/>
<path d="M220.005 174.631H178.891C173.022 174.631 168.264 169.873 168.264 164.005V122.89C168.264 117.021 173.022 112.263 178.891 112.263H220.005C225.874 112.263 230.632 117.021 230.632 122.89V164.005C230.632 169.873 225.874 174.631 220.005 174.631" fill="white"/>
<path d="M220.005 174.634C220.001 174.583 220.823 174.647 222.323 174.317C223.786 173.968 226.025 173.121 227.94 170.904C228.889 169.816 229.721 168.387 230.149 166.678C230.638 164.978 230.46 163.029 230.483 160.95C230.471 156.793 230.458 152.062 230.443 146.835C230.434 141.602 230.422 135.875 230.411 129.726C230.408 128.188 230.406 126.625 230.404 125.035C230.388 123.44 230.488 121.831 230.054 120.284C229.283 117.176 226.886 114.395 223.713 113.207C222.931 112.886 222.092 112.711 221.248 112.596C220.405 112.502 219.531 112.511 218.641 112.517C216.87 112.518 215.079 112.519 213.269 112.521C209.65 112.523 205.953 112.525 202.191 112.527C194.667 112.529 186.876 112.531 178.896 112.533C176.951 112.555 175.019 113.082 173.397 114.12C172.585 114.631 171.834 115.242 171.206 115.961C170.558 116.662 170.022 117.46 169.608 118.311C169.167 119.151 168.901 120.068 168.712 120.986C168.533 121.914 168.525 122.841 168.528 123.808C168.527 125.722 168.526 127.62 168.526 129.501C168.52 137.028 168.514 144.287 168.509 151.204C168.506 154.662 168.502 158.034 168.498 161.311C168.527 162.951 168.389 164.574 168.702 166.093C169.016 167.616 169.673 169.039 170.574 170.242C172.37 172.673 175.166 174.156 177.957 174.381C180.773 174.481 183.541 174.419 186.148 174.445C196.593 174.481 205.052 174.51 210.922 174.53C213.83 174.552 216.096 174.568 217.656 174.58C218.412 174.592 218.994 174.601 219.408 174.607C219.803 174.616 220.005 174.634 220.005 174.634C220.005 174.634 219.803 174.652 219.408 174.661C218.994 174.667 218.412 174.676 217.656 174.688C216.096 174.699 213.83 174.716 210.922 174.738C205.052 174.757 196.593 174.786 186.148 174.823C183.525 174.806 180.81 174.882 177.921 174.791C175.019 174.567 172.1 173.035 170.221 170.507C169.278 169.256 168.587 167.774 168.256 166.184C167.923 164.572 168.064 162.937 168.029 161.311C168.026 158.034 168.022 154.662 168.019 151.204C168.014 144.287 168.009 137.028 168.003 129.501C168.003 127.62 168.002 125.722 168.001 123.808C167.997 122.863 168.004 121.858 168.192 120.889C168.39 119.924 168.671 118.961 169.133 118.077C169.567 117.181 170.131 116.342 170.812 115.605C171.472 114.85 172.261 114.206 173.114 113.67C174.818 112.578 176.854 112.022 178.896 112C186.876 112.002 194.667 112.003 202.191 112.005C205.953 112.007 209.65 112.009 213.269 112.011C215.079 112.013 216.87 112.014 218.641 112.016C219.519 112.012 220.41 112.002 221.306 112.103C222.192 112.225 223.07 112.411 223.889 112.748C227.21 114.001 229.709 116.915 230.507 120.166C230.958 121.799 230.847 123.466 230.859 125.035C230.857 126.625 230.855 128.188 230.852 129.726C230.841 135.875 230.83 141.602 230.82 146.835C230.805 152.062 230.792 156.793 230.78 160.95C230.743 163.011 230.911 164.989 230.395 166.742C229.941 168.489 229.077 169.942 228.096 171.041C226.119 173.279 223.832 174.102 222.346 174.422C221.587 174.568 220.999 174.635 220.602 174.63C220.207 174.642 220.005 174.634 220.005 174.634" fill="#17282F"/>
<path d="M134.005 228.634H92.8908C87.0219 228.634 82.2644 223.876 82.2644 218.007V176.893C82.2644 171.024 87.0219 166.266 92.8908 166.266H134.005C139.874 166.266 144.632 171.024 144.632 176.893V218.007C144.632 223.876 139.874 228.634 134.005 228.634Z" fill="white"/>
<path d="M134.006 228.633C134.002 228.583 134.824 228.646 136.323 228.317C137.787 227.968 140.026 227.121 141.94 224.904C142.89 223.815 143.721 222.387 144.149 220.677C144.639 218.978 144.46 217.028 144.483 214.95C144.471 210.792 144.458 206.061 144.444 200.834C144.434 195.603 144.422 189.874 144.411 183.725C144.409 182.188 144.407 180.624 144.404 179.035C144.389 177.44 144.488 175.831 144.054 174.284C143.284 171.176 140.886 168.395 137.714 167.206C136.931 166.886 136.092 166.711 135.248 166.595C134.406 166.502 133.532 166.51 132.641 166.517C130.87 166.518 129.079 166.52 127.27 166.521C123.65 166.523 119.954 166.525 116.191 166.527C108.667 166.529 100.876 166.531 92.8962 166.533C90.9518 166.554 89.0187 167.081 87.3968 168.12C86.5852 168.631 85.8341 169.242 85.2068 169.961C84.558 170.661 84.0218 171.459 83.6084 172.311C83.1673 173.152 82.9012 174.068 82.7119 174.986C82.5338 175.914 82.5246 176.841 82.5277 177.808C82.5267 179.722 82.5267 181.62 82.5257 183.501C82.5205 191.028 82.5154 198.287 82.5103 205.204C82.5062 208.662 82.5021 212.034 82.499 215.31C82.5277 216.951 82.3895 218.574 82.7017 220.092C83.0158 221.616 83.6738 223.038 84.5744 224.242C86.3714 226.672 89.1661 228.154 91.9578 228.38C94.774 228.481 97.5411 228.418 100.148 228.445C110.593 228.481 119.052 228.509 124.922 228.53C127.83 228.551 130.097 228.568 131.657 228.58C132.412 228.591 132.994 228.6 133.409 228.607C133.803 228.615 134.006 228.633 134.006 228.633C134.006 228.633 133.803 228.652 133.409 228.661C132.994 228.667 132.412 228.676 131.657 228.687C130.097 228.699 127.83 228.716 124.922 228.738C119.052 228.757 110.593 228.787 100.148 228.821C97.5247 228.806 94.8098 228.883 91.9209 228.791C89.0187 228.566 86.1012 227.035 84.2213 224.507C83.2778 223.255 82.5871 221.774 82.2555 220.183C81.9239 218.573 82.0641 216.936 82.0304 215.31C82.0263 212.034 82.0232 208.662 82.0191 205.204C82.014 198.287 82.0089 191.028 82.0038 183.501C82.0027 181.62 82.0017 179.722 82.0007 177.808C81.9966 176.862 82.0048 175.858 82.192 174.888C82.3895 173.923 82.671 172.96 83.1335 172.075C83.5684 171.181 84.1313 170.342 84.8118 169.605C85.4729 168.85 86.2608 168.206 87.1143 167.67C88.8192 166.578 90.8536 166.021 92.8962 166C100.876 166.002 108.667 166.003 116.191 166.005C119.954 166.007 123.65 166.009 127.27 166.012C129.079 166.013 130.87 166.014 132.641 166.016C133.52 166.012 134.41 166.003 135.307 166.103C136.192 166.225 137.071 166.411 137.89 166.748C141.21 168 143.71 170.915 144.507 174.166C144.958 175.799 144.848 177.465 144.86 179.035C144.857 180.624 144.855 182.188 144.853 183.725C144.841 189.874 144.831 195.603 144.82 200.834C144.806 206.061 144.793 210.792 144.78 214.95C144.744 217.012 144.911 218.988 144.395 220.741C143.941 222.489 143.078 223.941 142.096 225.04C140.119 227.278 137.832 228.102 136.346 228.421C135.587 228.568 134.999 228.634 134.603 228.631C134.207 228.641 134.006 228.633 134.006 228.633" fill="#17282F"/>
<path d="M52.0054 187.915H10.8908C5.02191 187.915 0.264404 183.158 0.264404 177.289V136.174C0.264404 130.305 5.02191 125.548 10.8908 125.548H52.0054C57.8743 125.548 62.6318 130.305 62.6318 136.174V177.289C62.6318 183.158 57.8743 187.915 52.0054 187.915Z" fill="white"/>
<path d="M52.0057 187.917C52.0016 187.867 52.8244 187.93 54.3226 187.601C55.787 187.251 58.026 186.403 59.9397 184.188C60.8904 183.099 61.7213 181.671 62.1491 179.961C62.6392 178.261 62.4602 176.311 62.4827 174.234C62.4714 170.076 62.4581 165.345 62.4438 160.118C62.4336 154.886 62.4223 149.157 62.411 143.009C62.409 141.471 62.4069 139.907 62.4039 138.319C62.3885 136.723 62.4878 135.114 62.0539 133.568C61.2843 130.46 58.8856 127.678 55.7143 126.489C54.9315 126.169 54.0923 125.995 53.2481 125.879C52.4059 125.785 51.5319 125.794 50.6406 125.799C48.8702 125.801 47.0794 125.802 45.2701 125.803C41.6495 125.807 37.9543 125.809 34.1915 125.811C26.6668 125.813 18.8762 125.814 10.8962 125.816C8.95183 125.838 7.01875 126.365 5.39676 127.404C4.58525 127.914 3.83411 128.526 3.20681 129.244C2.55801 129.945 2.02178 130.743 1.60835 131.595C1.16729 132.435 0.901226 133.351 0.711908 134.268C0.533847 135.198 0.524645 136.125 0.527715 137.091C0.526691 139.004 0.526689 140.903 0.525666 142.785C0.520549 150.31 0.51543 157.57 0.510313 164.488C0.50622 167.945 0.502128 171.316 0.499058 174.593C0.527712 176.234 0.389559 177.857 0.701677 179.376C1.01584 180.9 1.67385 182.321 2.57439 183.526C4.37137 185.956 7.16611 187.438 9.95778 187.664C12.774 187.764 15.5411 187.701 18.1476 187.729C28.5928 187.765 37.0517 187.793 42.9216 187.814C45.8299 187.835 48.0966 187.852 49.6572 187.863C50.4124 187.875 50.9937 187.883 51.4091 187.889C51.8031 187.899 52.0057 187.917 52.0057 187.917C52.0057 187.917 51.8031 187.935 51.4091 187.945C50.9937 187.951 50.4124 187.959 49.6572 187.97C48.0966 187.982 45.8299 187.999 42.9216 188.02C37.0517 188.041 28.5928 188.069 18.1476 188.105C15.5247 188.09 12.8098 188.166 9.92093 188.074C7.01874 187.849 4.10121 186.318 2.22133 183.791C1.27781 182.538 0.587065 181.058 0.255503 179.466C-0.0760586 177.856 0.0641438 176.22 0.0303737 174.593C0.0262803 171.316 0.0232118 167.945 0.0191184 164.488C0.0140017 157.57 0.00888255 150.31 0.00376585 142.785C0.00274251 140.903 0.00171618 139.004 0.000692839 137.091C-0.00340052 136.146 0.00478569 135.141 0.192057 134.172C0.389561 133.206 0.670974 132.243 1.13352 131.359C1.56844 130.464 2.13128 129.625 2.8118 128.889C3.47288 128.133 4.26085 127.49 5.11431 126.953C6.81919 125.861 8.85359 125.304 10.8962 125.283C18.8762 125.285 26.6668 125.287 34.1915 125.288C37.9543 125.291 41.6495 125.293 45.2701 125.295C47.0794 125.296 48.8702 125.298 50.6406 125.299C51.5196 125.295 52.41 125.286 53.3074 125.386C54.1916 125.509 55.0706 125.694 55.8903 126.031C59.21 127.283 61.7101 130.198 62.5072 133.45C62.9575 135.082 62.848 136.749 62.8603 138.319C62.8572 139.907 62.8552 141.471 62.8531 143.009C62.8409 149.157 62.8306 154.886 62.8204 160.118C62.8061 165.345 62.7928 170.076 62.7805 174.234C62.7436 176.295 62.9115 178.272 62.3947 180.025C61.9413 181.773 61.0776 183.224 60.0962 184.324C58.1191 186.562 55.832 187.386 54.3461 187.705C53.5868 187.852 52.9994 187.918 52.6034 187.914C52.2073 187.925 52.0057 187.917 52.0057 187.917" fill="#17282F"/>
<path d="M18.0749 175.179H10.2054V169.154H18.0749V175.179Z" fill="#70A2FF"/>
<path d="M28.0346 175.179H20.1651V155.259H28.0346V175.179Z" fill="#70A2FF"/>
<path d="M38.9784 175.179H31.1089V163.835H38.9784V175.179Z" fill="#70A2FF"/>
<path d="M49.4295 175.179H41.5601V149.481H49.4295V175.179Z" fill="#70A2FF"/>
<path d="M13.6109 156.138C12.0155 156.138 10.7169 157.436 10.7169 159.032C10.7169 160.628 12.0155 161.926 13.6109 161.926C15.2062 161.926 16.5049 160.628 16.5049 159.032C16.5049 157.436 15.2062 156.138 13.6109 156.138ZM13.6109 162.949C11.4506 162.949 9.69351 161.192 9.69351 159.032C9.69351 156.873 11.4506 155.115 13.6109 155.115C15.7701 155.115 17.5282 156.873 17.5282 159.032C17.5282 161.192 15.7701 162.949 13.6109 162.949Z" fill="#70A2FF"/>
<path d="M24.8675 141.232C23.2721 141.232 21.9735 142.529 21.9735 144.126C21.9735 145.721 23.2721 147.02 24.8675 147.02C26.4629 147.02 27.7615 145.721 27.7615 144.126C27.7615 142.529 26.4629 141.232 24.8675 141.232ZM24.8675 148.043C22.7083 148.043 20.9502 146.285 20.9502 144.126C20.9502 141.965 22.7083 140.208 24.8675 140.208C27.0268 140.208 28.7849 141.965 28.7849 144.126C28.7849 146.285 27.0268 148.043 24.8675 148.043Z" fill="#70A2FF"/>
<path d="M35.0496 150.673C33.4542 150.673 32.1556 151.972 32.1556 153.567C32.1556 155.162 33.4542 156.46 35.0496 156.46C36.645 156.46 37.9436 155.162 37.9436 153.567C37.9436 151.972 36.645 150.673 35.0496 150.673ZM35.0496 157.483C32.8893 157.483 31.1322 155.726 31.1322 153.567C31.1322 151.407 32.8893 149.65 35.0496 149.65C37.2098 149.65 38.9669 151.407 38.9669 153.567C38.9669 155.726 37.2098 157.483 35.0496 157.483Z" fill="#70A2FF"/>
<path d="M45.9298 136.987C44.3344 136.987 43.0358 138.286 43.0358 139.881C43.0358 141.478 44.3344 142.775 45.9298 142.775C47.5251 142.775 48.8227 141.478 48.8227 139.881C48.8227 138.286 47.5251 136.987 45.9298 136.987ZM45.9298 143.799C43.7695 143.799 42.0124 142.042 42.0124 139.881C42.0124 137.722 43.7695 135.964 45.9298 135.964C48.089 135.964 49.8461 137.722 49.8461 139.881C49.8461 142.042 48.089 143.799 45.9298 143.799Z" fill="#70A2FF"/>
<path d="M37.7146 151.655L36.8764 151.067L43.1966 142.072L44.0337 142.66L37.7146 151.655Z" fill="#70A2FF"/>
<path d="M31.9292 152.251L27.1164 147.219L27.8563 146.512L32.668 151.544L31.9292 152.251Z" fill="#70A2FF"/>
<path d="M15.8983 156.507L15.0898 155.879L22.1867 146.743L22.9951 147.37L15.8983 156.507" fill="#70A2FF"/>
<path d="M55.5217 108.702H36.3372C30.4683 108.702 25.7108 103.945 25.7108 98.0758V78.8913C25.7108 73.0234 30.4683 68.2649 36.3372 68.2649H55.5217C61.3906 68.2649 66.1481 73.0234 66.1481 78.8913V98.0758C66.1481 103.945 61.3906 108.702 55.5217 108.702Z" fill="white"/>
<path d="M55.5217 108.704C55.5196 108.669 56.0262 108.679 56.9666 108.54C57.8999 108.407 59.2998 108.081 60.843 107.144C62.3657 106.228 64.0798 104.674 65.095 102.323C65.6026 101.159 65.931 99.816 65.9638 98.3762C65.9873 96.9251 65.9587 95.3717 65.9597 93.7517C65.9495 90.5026 65.9392 86.9476 65.927 83.1336C65.9249 82.1798 65.9229 81.2087 65.9198 80.2232C65.9106 79.2316 65.9505 78.24 65.7735 77.2637C65.6282 76.2813 65.3263 75.305 64.8709 74.3912C64.4319 73.4702 63.8486 72.5993 63.124 71.841C61.7088 70.2907 59.7521 69.1886 57.6082 68.7311C56.5286 68.5183 55.4244 68.5183 54.2691 68.5244C53.1229 68.5254 51.9656 68.5264 50.7979 68.5275C46.1274 68.5295 41.2932 68.5315 36.3412 68.5326C33.921 68.5448 31.5602 69.4076 29.7407 70.9037C27.9304 72.4121 26.6799 74.5058 26.201 76.7336C25.9656 77.8521 25.9635 78.9778 25.9687 80.1352C25.9676 81.2803 25.9666 82.4162 25.9656 83.5399C25.9625 85.7861 25.9595 87.9852 25.9564 90.1322C25.9523 92.2771 25.9492 94.3698 25.9451 96.4032C25.9441 97.4235 25.9165 98.4253 26.029 99.376C26.1303 100.338 26.4159 101.252 26.7484 102.124C28.2159 105.593 31.4118 107.855 34.5514 108.352C36.1161 108.616 37.6808 108.496 39.14 108.535C40.6004 108.542 41.9788 108.548 43.2702 108.554C45.8398 108.573 48.0584 108.587 49.8841 108.6C51.6749 108.622 53.0769 108.638 54.0644 108.651C54.5198 108.662 54.879 108.67 55.1512 108.677C55.3958 108.685 55.5217 108.695 55.5217 108.704C55.5217 108.713 55.3958 108.722 55.1512 108.731C54.879 108.738 54.5198 108.747 54.0644 108.757C53.0769 108.769 51.6749 108.787 49.8841 108.807C48.0584 108.82 45.8398 108.836 43.2702 108.853C41.9788 108.859 40.6004 108.866 39.14 108.874C37.6808 108.847 36.1325 108.985 34.4869 108.723C31.2307 108.232 27.8895 105.907 26.3412 102.296C25.9881 101.389 25.6872 100.436 25.5767 99.4323C25.4539 98.4243 25.4805 97.4153 25.4764 96.4032C25.4734 94.3698 25.4693 92.2771 25.4652 90.1322C25.4621 87.9852 25.459 85.7861 25.457 83.5399C25.4549 82.4162 25.4539 81.2803 25.4529 80.1352C25.4447 79.0024 25.4437 77.7989 25.6903 76.6251C26.1897 74.2827 27.5016 72.0815 29.402 70.4953C31.3125 68.9204 33.7982 68.0107 36.3412 68.0005C41.2932 68.0025 46.1274 68.0035 50.7979 68.0055C51.9656 68.0066 53.1229 68.0076 54.2691 68.0086C55.4019 68.0035 56.5798 68.0056 57.7106 68.2328C59.9599 68.7168 62.0065 69.8793 63.4832 71.5064C64.2395 72.3025 64.8473 73.2174 65.3027 74.1835C65.7765 75.1413 66.0876 76.1626 66.236 77.19C66.4171 78.2195 66.3701 79.2469 66.3762 80.2232C66.3742 81.2087 66.3711 82.1798 66.369 83.1336C66.3578 86.9476 66.3465 90.5026 66.3363 93.7517C66.324 95.3758 66.3394 96.9149 66.3025 98.3864C66.2555 99.8713 65.9024 101.253 65.3672 102.444C64.2957 104.851 62.5172 106.417 60.9474 107.323C59.3581 108.249 57.9285 108.546 56.9809 108.646C56.0272 108.752 55.5217 108.704 55.5217 108.704" fill="#17282F"/>
<path d="M47.685 88.2765C49.4083 87.553 50.6342 85.7755 50.6434 83.6817C50.6547 80.9382 48.5794 78.7042 46.0067 78.693C43.435 78.6807 41.3403 80.8952 41.329 83.6388C41.3198 85.752 42.5539 87.551 44.2967 88.2765C37.1292 89.3562 37.4536 97.1458 37.4536 97.1458L54.4032 97.2246C54.4032 97.2246 54.79 89.349 47.685 88.2765" fill="#3478F6"/>
<path d="M37.4791 97.1191L54.3785 97.1979C54.3856 96.9636 54.4184 95.1072 53.6836 93.1588C53.2262 91.942 52.5631 90.9279 51.7137 90.144C50.6525 89.1647 49.2966 88.5446 47.6807 88.301L47.5907 88.2867L47.6746 88.2519C49.4531 87.5059 50.6085 85.7109 50.6187 83.6806C50.629 80.9555 48.5598 78.7287 46.0055 78.7174H45.985C44.756 78.7174 43.5996 79.225 42.7257 80.1491C41.8467 81.0783 41.3595 82.3176 41.3534 83.6366C41.3462 85.6905 42.5047 87.5008 44.3068 88.2519L44.3907 88.2867L44.3006 88.301C42.6705 88.5456 41.2982 89.1626 40.2216 90.1348C39.36 90.9126 38.6835 91.9175 38.2118 93.123C37.4565 95.052 37.4729 96.8878 37.4791 97.1191V97.1191ZM54.4276 97.248H54.403L37.4299 97.1703L37.4289 97.1457C37.4279 97.1263 37.3563 95.1696 38.1637 93.1056C38.6375 91.8929 39.319 90.8808 40.1858 90.098C41.2511 89.1361 42.6029 88.519 44.2044 88.2632C42.431 87.4854 41.2941 85.6792 41.3033 83.6366C41.3084 82.3043 41.8006 81.0527 42.6889 80.1143C43.572 79.18 44.7417 78.6663 45.985 78.6663H46.0055C48.5884 78.6775 50.6801 80.9278 50.6689 83.6806C50.6597 85.7007 49.5268 87.4895 47.7759 88.2632C49.3641 88.518 50.6996 89.1381 51.7495 90.1072C52.604 90.8962 53.2712 91.9175 53.7327 93.1424C54.5166 95.2259 54.4296 97.204 54.4286 97.2245L54.4276 97.248" fill="#17282F"/>
<path d="M168.67 46.3027H143.888C138.02 46.3027 133.261 41.5452 133.261 35.6764V10.8942C133.261 5.02537 138.02 0.26786 143.888 0.26786H168.67C174.538 0.26786 179.296 5.02537 179.296 10.8942V35.6764C179.296 41.5452 174.538 46.3027 168.67 46.3027Z" fill="white"/>
<path d="M168.67 46.2997C168.667 46.2547 169.255 46.2936 170.339 46.1022C171.408 45.9098 173.023 45.4831 174.724 44.2715C176.404 43.0834 178.157 41.0162 178.844 38.1355C179.217 36.708 179.123 35.1156 179.127 33.421C179.121 31.7304 179.115 29.9437 179.108 28.0679C179.097 24.3133 179.087 20.2036 179.075 15.794C179.073 14.6908 179.071 13.5682 179.069 12.4292C179.05 11.2831 179.121 10.1339 178.883 9.00925C178.457 6.75893 177.271 4.55671 175.401 2.99816C173.557 1.42222 171.099 0.502242 168.553 0.519639C165.956 0.521686 163.304 0.523738 160.605 0.525785C155.206 0.527832 149.617 0.529859 143.891 0.531906C141.091 0.514509 138.361 1.70057 136.473 3.66128C134.562 5.60665 133.515 8.28062 133.522 10.9178C133.517 16.3169 133.512 21.5257 133.507 26.4879C133.504 28.9685 133.499 31.3876 133.495 33.7382C133.503 34.9171 133.446 36.0766 133.61 37.1725C133.757 38.2778 134.088 39.342 134.579 40.3029C135.529 42.2493 137.076 43.7854 138.819 44.7749C140.581 45.7563 142.519 46.1636 144.379 46.1114C151.862 46.1472 157.928 46.1759 162.153 46.1964C164.229 46.2179 165.852 46.2342 166.985 46.2465C167.517 46.2578 167.934 46.266 168.242 46.2731C168.524 46.2813 168.67 46.2905 168.67 46.2997C168.67 46.3089 168.524 46.3181 168.242 46.3273C167.934 46.3335 167.517 46.3427 166.985 46.3539C165.852 46.3652 164.229 46.3826 162.153 46.4041C157.928 46.4235 151.863 46.4532 144.379 46.488C142.49 46.5555 140.448 46.1452 138.618 45.1341C136.801 44.1149 135.184 42.5246 134.184 40.5004C133.667 39.4996 133.317 38.3914 133.159 37.2381C132.984 36.0755 133.038 34.9069 133.027 33.7382C133.024 31.3876 133.02 28.9685 133.015 26.4879C133.011 21.5257 133.006 16.3169 133 10.9178C132.988 8.15168 134.087 5.33548 136.094 3.29187C138.076 1.22984 140.948 -0.0196694 143.891 -0.00124933C149.617 0.00079735 155.206 0.00182569 160.605 0.00387236C163.304 0.00591904 165.956 0.00797171 168.553 0.0100184C171.211 -0.00328501 173.798 0.968892 175.72 2.62465C177.672 4.26199 178.908 6.57063 179.344 8.92431C179.588 10.1114 179.51 11.3015 179.524 12.4292C179.522 13.5682 179.519 14.6908 179.517 15.794C179.506 20.2036 179.494 24.3133 179.484 28.0679C179.478 29.9437 179.472 31.7304 179.466 33.421C179.448 35.0972 179.532 36.7315 179.133 38.2061C178.397 41.1615 176.575 43.2563 174.843 44.4413C173.09 45.6499 171.441 46.048 170.355 46.2076C169.807 46.3018 169.383 46.3018 169.098 46.3058C168.815 46.311 168.67 46.3089 168.67 46.2997" fill="#17282F"/>
<path d="M158.277 23.047C160.24 22.2243 161.634 20.2011 161.646 17.8168C161.659 14.6935 159.295 12.1505 156.366 12.1372C153.439 12.1239 151.054 14.6444 151.041 17.7676C151.032 20.1745 152.437 22.2212 154.42 23.047C146.26 24.2771 146.63 33.1454 146.63 33.1454L165.926 33.2344C165.926 33.2344 166.365 24.2689 158.277 23.047" fill="#70A2FF"/>
<path d="M114.241 91.4026C110.301 91.4026 106.633 93.92 105.36 97.865C103.781 102.759 106.478 108.023 111.369 109.602C116.265 111.182 121.529 108.484 123.107 103.592C124.686 98.698 121.99 93.4329 117.098 91.8539C116.149 91.5489 115.187 91.4026 114.241 91.4026V91.4026ZM114.225 112.1C113.071 112.1 111.898 111.924 110.742 111.55C104.775 109.625 101.487 103.204 103.412 97.2356C105.338 91.2696 111.758 87.9805 117.725 89.9065C120.617 90.8397 122.97 92.8414 124.355 95.5451C125.739 98.2487 125.989 101.329 125.055 104.22C123.503 109.031 119.029 112.1 114.225 112.1Z" fill="#17282F"/>
<path d="M129.276 118.931C129.001 118.931 128.725 118.819 128.523 118.599L120.071 109.395C119.688 108.98 119.717 108.332 120.133 107.95C120.548 107.569 121.197 107.594 121.579 108.012L130.03 117.215C130.413 117.631 130.384 118.278 129.969 118.66C129.772 118.841 129.525 118.931 129.276 118.931Z" fill="#17282F"/>
<path d="M114.248 179.482C104.354 179.482 96.3048 187.531 96.3048 197.426C96.3048 207.32 104.354 215.369 114.248 215.369C124.142 215.369 132.191 207.32 132.191 197.426C132.191 187.531 124.142 179.482 114.248 179.482ZM114.248 216.393C103.79 216.393 95.2815 207.884 95.2815 197.426C95.2815 186.967 103.79 178.458 114.248 178.458C124.706 178.458 133.215 186.967 133.215 197.426C133.215 207.884 124.706 216.393 114.248 216.393Z" fill="#70A2FF"/>
<path d="M113.677 216.329C113.577 216.273 111.174 214.917 108.814 211.853C106.645 209.035 104.112 204.177 104.375 197.039C104.638 189.91 107.347 185.261 109.572 182.615C111.996 179.735 114.341 178.561 114.44 178.513L114.893 179.431C114.803 179.475 105.879 184.044 105.398 197.078C104.92 210.106 114.084 215.383 114.175 215.435L113.677 216.329" fill="#70A2FF"/>
<path d="M114.517 216.317L113.979 215.447C114.068 215.391 122.944 209.732 122.462 196.688C121.984 183.665 113.441 179.476 113.355 179.434L113.79 178.509C114.165 178.685 122.982 182.974 123.486 196.65C123.989 210.311 114.611 216.259 114.517 216.317" fill="#70A2FF"/>
<path d="M114.499 191.412C106.816 191.412 101.866 188.804 99.0657 186.616L99.695 185.809C102.369 187.898 107.108 190.389 114.499 190.389C121.651 190.389 126.183 187.911 128.726 185.833L129.374 186.625C126.702 188.809 121.952 191.412 114.499 191.412Z" fill="#70A2FF"/>
<path d="M128.774 208.479C126.1 206.452 121.359 204.036 113.963 204.036C106.809 204.036 102.275 206.44 99.7297 208.456L99.0942 207.655C101.766 205.536 106.514 203.013 113.963 203.013C121.643 203.013 126.592 205.541 129.392 207.664L128.774 208.479" fill="#70A2FF"/>
<path d="M132.728 197.994H96.2522V196.971H132.728V197.994Z" fill="#70A2FF"/>
<path d="M223.027 145.911C224.598 151.395 221.027 156.761 215.407 156.761H185.852C181.067 156.761 177.321 152.137 178.689 147.477C178.762 147.228 178.846 146.987 178.942 146.755C180.278 143.5 184.016 141.47 187.421 142.15C188.236 136.158 193.395 131.066 199.311 130.415C205.227 129.764 211.34 133.616 213.395 139.292C213.395 139.292 221.012 138.879 223.027 145.911Z" fill="#70A2FF"/>
<path d="M198.033 162V150.653H193.589C193.068 150.653 192.763 150.066 193.065 149.64L200.382 139.315C200.637 138.954 201.172 138.953 201.429 139.314L208.736 149.556C209.04 149.981 208.736 150.571 208.214 150.571H203.888V162H198.033" fill="white"/>
</svg>
