<svg width="80" height="202" viewBox="0 0 80 202" fill="none" xmlns="http://www.w3.org/2000/svg">
<path d="M68.7774 190.812L64.2491 186.264L72.7139 177.727L79.4098 184.31L78.9188 184.874C76.7141 187.359 67.5317 197.355 65.4928 198.458C63.2182 199.685 68.7774 190.812 68.7774 190.812Z" fill="#3478F6"/>
<path d="M76.2735 187.34C75.681 186.512 75.4117 185.458 75.5334 184.446C75.6558 183.434 76.1189 182.499 76.8918 181.835L79.2797 184.199L76.2735 187.34" fill="#17282F"/>
<path d="M66.1872 195.274C66.1872 195.274 64.4001 198.543 65.1332 198.641C65.8662 198.739 75.5256 188.986 79.4097 184.311L79.2055 184.136L68.0359 195.608C68.0359 195.608 66.7006 194.797 66.1872 195.274" fill="#17282F"/>
<path d="M79.3327 183.996C79.3369 183.999 79.2914 184.055 79.204 184.158C79.0858 184.293 78.9571 184.44 78.8109 184.606C78.4115 185.046 77.9205 185.586 77.34 186.224C76.0886 187.583 74.3351 189.435 72.3542 191.439C70.372 193.444 68.5373 195.218 67.1937 196.484C66.5621 197.071 66.027 197.569 65.5919 197.974C65.4269 198.121 65.2814 198.252 65.1492 198.371C65.0464 198.46 64.9911 198.506 64.9876 198.502C64.9841 198.498 65.0331 198.446 65.1289 198.349C65.2562 198.224 65.3954 198.087 65.5528 197.932C65.9787 197.519 66.5033 197.01 67.1223 196.41C68.4478 195.125 70.2685 193.34 72.25 191.337C74.2302 189.335 75.9949 187.494 77.2651 186.154C77.8582 185.528 78.3604 184.998 78.7689 184.567C78.9221 184.409 79.0585 184.268 79.1816 184.138C79.2774 184.042 79.3292 183.992 79.3327 183.996" fill="#3478F6"/>
<path d="M68.1703 195.738C68.1437 195.773 67.7492 195.431 67.1421 195.294C66.5385 195.146 66.0321 195.278 66.0244 195.234C66.0041 195.202 66.5273 194.996 67.1757 195.152C67.8255 195.3 68.2025 195.718 68.1703 195.738" fill="#3478F6"/>
<path d="M69.388 191.95C69.3796 191.989 69.1138 191.964 68.7941 191.895C68.4745 191.825 68.2212 191.736 68.2303 191.698C68.2387 191.658 68.5052 191.682 68.8249 191.752C69.1445 191.822 69.3963 191.91 69.388 191.95Z" fill="#3478F6"/>
<path d="M69.7069 190.896C69.7097 190.937 69.4866 190.982 69.2082 190.998C68.9305 191.014 68.7032 190.995 68.7011 190.955C68.6983 190.914 68.9214 190.869 69.1998 190.853C69.4775 190.837 69.7048 190.856 69.7069 190.896Z" fill="#3478F6"/>
<path d="M69.3341 189.661C69.3627 189.689 69.1907 189.914 68.9494 190.163C68.7087 190.412 68.4891 190.591 68.4604 190.564C68.431 190.535 68.6031 190.31 68.8451 190.061C69.0864 189.812 69.3054 189.633 69.3341 189.661Z" fill="#3478F6"/>
<path d="M68.9145 188.948C68.9495 188.963 68.832 189.278 68.5669 189.588C68.3025 189.9 68.0108 190.066 67.9891 190.034C67.9647 190 68.2053 189.79 68.455 189.493C68.7089 189.199 68.8768 188.929 68.9145 188.948" fill="#3478F6"/>
<path d="M68.3564 191.502C68.3683 191.513 68.1857 191.75 67.8094 192.048C67.6212 192.197 67.3828 192.357 67.1016 192.505C66.9575 192.574 66.8176 192.658 66.6322 192.703C66.542 192.721 66.4315 192.731 66.3273 192.669C66.2223 192.611 66.1741 192.476 66.1902 192.369C66.4385 191.576 67.254 191.342 67.7178 191.416C67.9619 191.446 68.1458 191.53 68.2612 191.6C68.3766 191.671 68.4284 191.726 68.4228 191.732C68.4116 191.759 68.1703 191.555 67.7073 191.519C67.48 191.501 67.2023 191.541 66.9386 191.686C66.6889 191.822 66.4007 192.083 66.335 192.384C66.3133 192.535 66.4497 192.603 66.6036 192.563C66.7511 192.53 66.9022 192.449 67.0407 192.385C67.3177 192.248 67.5555 192.101 67.7478 191.965C68.1312 191.694 68.3389 191.486 68.3564 191.502" fill="#3478F6"/>
<path d="M68.243 191.672C68.2409 191.686 68.0198 191.628 67.7988 191.358C67.6911 191.225 67.5911 191.037 67.5463 190.811C67.5197 190.594 67.4756 190.302 67.7191 190.077C67.861 189.966 68.0674 190.047 68.1394 190.158C68.2262 190.264 68.266 190.389 68.2926 190.495C68.3493 190.712 68.3681 190.914 68.3674 191.084C68.3653 191.421 68.2954 191.621 68.2786 191.617C68.2562 191.614 68.2891 191.41 68.2653 191.087C68.2527 190.925 68.2234 190.735 68.1632 190.531C68.1219 190.341 67.9646 190.083 67.8037 190.195C67.654 190.32 67.6519 190.595 67.6785 190.788C67.7114 190.992 67.7918 191.167 67.8813 191.296C68.0632 191.56 68.2562 191.649 68.243 191.672" fill="#3478F6"/>
<path d="M76.8231 181.856C76.8406 181.877 76.5574 182.077 76.2209 182.508C75.8845 182.933 75.5145 183.62 75.4242 184.447C75.3354 185.275 75.5508 186.025 75.7887 186.512C76.0258 187.006 76.2594 187.262 76.237 187.278C76.2307 187.284 76.1664 187.227 76.0649 187.108C75.9635 186.99 75.8292 186.805 75.6963 186.559C75.4284 186.071 75.1871 185.295 75.2795 184.432C75.3739 183.569 75.7747 182.862 76.1412 182.443C76.3237 182.231 76.4937 182.08 76.6182 181.986C76.7427 181.891 76.8176 181.849 76.8231 181.856" fill="#3478F6"/>
<path d="M72.3915 179.221C72.4195 179.192 73.2378 179.937 74.2199 180.885C75.2012 181.832 75.9741 182.624 75.9461 182.653C75.9181 182.682 75.0998 181.937 74.1184 180.99C73.1371 180.042 72.3635 179.25 72.3915 179.221" fill="#3478F6"/>
<path d="M74.3759 187.591C74.4067 187.614 73.9464 188.261 73.2644 188.961C72.5853 189.662 71.9509 190.14 71.9278 190.11C71.9005 190.078 72.4867 189.554 73.1609 188.859C73.8359 188.166 74.343 187.564 74.3759 187.591" fill="#3478F6"/>
<path d="M76.0313 185.914C76.0732 185.914 76.1047 186.076 76.176 186.26C76.2453 186.445 76.3299 186.587 76.2992 186.615C76.2719 186.643 76.1208 186.525 76.0397 186.312C75.9585 186.1 75.9928 185.911 76.0313 185.914Z" fill="#3478F6"/>
<path d="M75.8712 184.505C75.9111 184.504 75.9454 184.648 75.9475 184.825C75.9503 185.002 75.9188 185.146 75.8789 185.146C75.8391 185.146 75.8041 185.004 75.802 184.826C75.7999 184.649 75.8307 184.506 75.8712 184.505Z" fill="#3478F6"/>
<path d="M76.4064 183.247C76.4302 183.282 76.3168 183.394 76.2364 183.564C76.1525 183.731 76.1336 183.89 76.0916 183.892C76.0539 183.9 76.0028 183.708 76.1056 183.5C76.2064 183.291 76.3889 183.212 76.4064 183.247Z" fill="#3478F6"/>
<path d="M76.8733 182.436C76.9104 182.452 76.9055 182.545 76.8635 182.643C76.8202 182.741 76.7558 182.808 76.7195 182.792C76.6824 182.775 76.6873 182.683 76.7293 182.584C76.7726 182.487 76.837 182.42 76.8733 182.436Z" fill="#3478F6"/>
<path d="M34.1291 198.33L34.2844 191.914L46.3052 192.127L46.1779 201.517L45.4316 201.551C42.1113 201.676 28.5405 201.955 26.3351 201.243C23.8751 200.448 34.1291 198.33 34.1291 198.33Z" fill="#3478F6"/>
<path d="M41.8212 201.346C42.01 200.344 42.585 199.421 43.4005 198.81C44.2161 198.199 45.2121 197.886 46.2256 197.986L46.1683 201.346H41.8212" fill="#17282F"/>
<path d="M29.1161 199.543C29.1161 199.543 25.5181 200.512 25.9546 201.11C26.3903 201.708 40.115 201.943 46.1779 201.517L46.1632 201.249L30.152 201.11C30.152 201.11 29.8148 199.585 29.1161 199.543Z" fill="#17282F"/>
<path d="M46.3521 201.244C46.3521 201.249 46.2808 201.255 46.1451 201.263C45.9667 201.27 45.7716 201.279 45.5506 201.289C44.9567 201.304 44.2265 201.323 43.3641 201.346C41.5182 201.379 38.9666 201.394 36.1492 201.348C33.3304 201.301 30.7802 201.203 28.9357 201.109C28.0754 201.058 27.3459 201.015 26.7528 200.98C26.5331 200.963 26.3373 200.948 26.1603 200.935C26.0239 200.923 25.9533 200.914 25.954 200.909C25.954 200.904 26.0253 200.903 26.1617 200.906C26.3394 200.911 26.5352 200.916 26.7556 200.923C27.3494 200.946 28.0796 200.973 28.9407 201.005C30.7851 201.074 33.3339 201.155 36.1513 201.202C38.9673 201.249 41.5175 201.251 43.3634 201.242C44.2258 201.238 44.956 201.234 45.5499 201.232C45.7709 201.232 45.9661 201.232 46.1444 201.233C46.2801 201.235 46.3521 201.239 46.3521 201.244" fill="#3478F6"/>
<path d="M30.1522 201.297C30.1075 201.302 30.0823 200.779 29.7619 200.247C29.4514 199.709 29.0058 199.434 29.0317 199.397C29.0408 199.362 29.5521 199.597 29.8879 200.173C30.2292 200.744 30.1879 201.306 30.1522 201.297" fill="#3478F6"/>
<path d="M33.7299 199.558C33.6956 199.579 33.5299 199.369 33.3592 199.091C33.1879 198.812 33.0773 198.568 33.1123 198.547C33.1466 198.526 33.3124 198.735 33.483 199.015C33.6537 199.294 33.7642 199.537 33.7299 199.558Z" fill="#3478F6"/>
<path d="M34.7121 199.06C34.6848 199.09 34.4966 198.96 34.2931 198.771C34.0889 198.581 33.9462 198.404 33.9734 198.374C34.0014 198.345 34.1889 198.474 34.3924 198.664C34.5967 198.853 34.7393 199.031 34.7121 199.06Z" fill="#3478F6"/>
<path d="M35.3462 197.936C35.3462 197.976 35.065 198.007 34.7181 198.005C34.3711 198.003 34.09 197.968 34.09 197.929C34.0907 197.888 34.3725 197.857 34.7188 197.859C35.0657 197.861 35.3469 197.896 35.3462 197.936" fill="#3478F6"/>
<path d="M35.5723 197.14C35.5848 197.176 35.2764 197.308 34.8686 197.331C34.4608 197.356 34.139 197.26 34.1467 197.222C34.1544 197.181 34.472 197.209 34.8602 197.185C35.2477 197.164 35.5597 197.099 35.5723 197.14" fill="#3478F6"/>
<path d="M33.3402 198.503C33.3402 198.52 33.0436 198.55 32.568 198.485C32.3302 198.452 32.0497 198.391 31.7482 198.289C31.5986 198.233 31.4419 198.19 31.281 198.087C31.2055 198.035 31.1215 197.962 31.0936 197.844C31.0635 197.728 31.1278 197.599 31.216 197.537C31.9609 197.168 32.6932 197.595 32.9611 197.982C33.1087 198.179 33.1744 198.371 33.2045 198.502C33.2332 198.634 33.229 198.709 33.2206 198.711C33.1933 198.721 33.1737 198.405 32.88 198.046C32.7352 197.869 32.5148 197.697 32.2274 197.606C31.9567 197.52 31.5685 197.492 31.3055 197.653C31.1817 197.741 31.2272 197.886 31.3622 197.969C31.4881 198.054 31.651 198.107 31.793 198.163C32.0833 198.268 32.3547 198.339 32.5848 198.383C33.0458 198.473 33.3402 198.479 33.3402 198.503" fill="#3478F6"/>
<path d="M33.1394 198.538C33.1275 198.546 33.0177 198.346 33.0597 198C33.0807 197.829 33.1471 197.629 33.28 197.439C33.4192 197.27 33.5983 197.036 33.9298 197.056C34.1089 197.082 34.1921 197.288 34.162 197.417C34.1459 197.552 34.083 197.668 34.0249 197.76C33.9067 197.951 33.7739 198.105 33.6514 198.221C33.4052 198.454 33.2129 198.541 33.2045 198.526C33.1912 198.507 33.3605 198.39 33.578 198.149C33.6857 198.029 33.8032 197.876 33.9095 197.691C34.018 197.53 34.0956 197.238 33.9025 197.2C33.7095 197.178 33.5087 197.366 33.3884 197.519C33.2639 197.684 33.1933 197.863 33.1604 198.017C33.0968 198.331 33.1646 198.532 33.1394 198.538" fill="#3478F6"/>
<path d="M46.1634 197.95C46.1599 197.978 45.8193 197.912 45.2751 197.966C44.7358 198.018 43.9839 198.225 43.3243 198.732C42.6641 199.24 42.271 199.915 42.0835 200.422C41.8912 200.935 41.8681 201.28 41.8408 201.276C41.8317 201.276 41.8289 201.19 41.8443 201.034C41.8597 200.879 41.9003 200.654 41.987 200.388C42.1535 199.858 42.5473 199.147 43.2355 198.616C43.9231 198.088 44.7114 197.889 45.2667 197.864C45.5465 197.85 45.7745 197.867 45.9277 197.892C46.0823 197.917 46.1648 197.942 46.1634 197.95Z" fill="#3478F6"/>
<path d="M45.003 192.927C45.0435 192.927 45.0715 194.034 45.0652 195.398C45.0589 196.763 45.0212 197.869 44.9813 197.868C44.9407 197.868 44.9134 196.762 44.9197 195.398C44.9253 194.033 44.9631 192.927 45.003 192.927Z" fill="#3478F6"/>
<path d="M40.3284 200.147C40.3326 200.184 39.5471 200.299 38.5707 200.291C37.5936 200.285 36.8102 200.157 36.8151 200.12C36.82 200.077 37.604 200.139 38.5721 200.145C39.5387 200.154 40.3249 200.104 40.3284 200.147" fill="#3478F6"/>
<path d="M42.685 200.184C42.7137 200.214 42.6172 200.35 42.5346 200.529C42.4486 200.706 42.4045 200.866 42.3633 200.862C42.3241 200.862 42.3045 200.672 42.4024 200.466C42.4997 200.26 42.6591 200.155 42.685 200.184" fill="#3478F6"/>
<path d="M43.5908 199.094C43.6195 199.123 43.5398 199.247 43.4139 199.37C43.2866 199.495 43.1614 199.572 43.1334 199.543C43.1047 199.514 43.1845 199.391 43.3111 199.267C43.4384 199.143 43.5629 199.066 43.5908 199.094" fill="#3478F6"/>
<path d="M44.8708 198.612C44.8617 198.653 44.7016 198.648 44.5239 198.708C44.3456 198.762 44.2175 198.859 44.1868 198.831C44.1546 198.809 44.2588 198.639 44.4798 198.569C44.7002 198.497 44.8834 198.575 44.8708 198.612" fill="#3478F6"/>
<path d="M45.7786 198.388C45.7926 198.426 45.7227 198.486 45.6227 198.523C45.5219 198.561 45.4289 198.56 45.4156 198.521C45.4009 198.484 45.4716 198.424 45.5716 198.386C45.6723 198.349 45.7654 198.35 45.7786 198.388Z" fill="#3478F6"/>
<path d="M40.5754 60.8001C36.1164 73.9596 28.0881 97.7879 28.0881 97.7879C27.5216 98.1306 25.4057 99.2505 24.7573 99.3834C23.9697 99.5456 22.915 99.717 22.3092 99.6324C21.558 99.5267 21.0691 100.388 21.5622 100.867C22.0546 101.346 24.1159 101.686 26.4528 100.984C28.791 100.281 27.0522 103.829 26.2863 104.999C25.5197 106.17 23.3479 110.012 23.5214 110.533C23.776 111.294 24.7132 110.977 25.4512 109.79C26.1975 108.588 28.4092 105.155 28.7309 105.334C29.3674 105.689 25.5344 111.805 25.5344 111.805C25.5344 111.805 24.6538 112.878 25.3295 113.401C26.5479 114.345 30.2984 107.77 30.6418 107.134C30.8803 106.692 31.1986 107.039 30.9167 107.501C30.6264 107.975 27.3607 113.349 28.349 113.963C29.3723 114.598 31.6546 109.212 32.5975 108.215C33.6655 107.084 30.4501 112.701 31.3825 113.377C31.7294 113.628 32.0232 113.769 33.6362 110.516C34.6616 108.449 36.2067 103.913 37.2328 100.766C40.6566 93.894 50.472 72.6747 53.7154 58.2317L40.5754 60.8001" fill="#D2E0F9"/>
<path d="M42.9391 28.6812C42.9391 28.6812 52.4789 25.9197 54.3591 40.518C55.5369 49.6648 58.22 71.7507 59.2468 83.1091C59.3441 84.1765 58.6719 83.7568 58.7509 84.6423C58.8426 85.6677 59.7554 86.5029 59.7561 87.2373C59.7602 89.5791 57.0785 89.5357 57.0785 89.5357L32.143 90.7255C32.143 90.7255 29.832 90.7744 29.8236 88.7558C29.8167 87.2212 30.8238 86.5414 30.8973 85.5845C31.9576 71.9298 31.9388 37.9216 33.4769 33.2493C34.9429 28.7917 35.8851 28.7001 42.9391 28.6812" fill="#3478F6"/>
<path d="M44.8259 29.3881C44.8427 29.3748 45.0602 29.6168 45.4113 30.0078C45.761 30.4002 46.2493 30.9374 46.7711 31.5487C47.2935 32.1593 47.737 32.7391 48.0385 33.1714C48.3399 33.6044 48.505 33.8856 48.4896 33.896C48.4714 33.9086 48.2763 33.6477 47.9559 33.2323C47.6342 32.8175 47.1809 32.2516 46.6599 31.6431C46.1402 31.0339 45.6631 30.4848 45.333 30.0749C45.0007 29.6657 44.8112 29.4 44.8259 29.3881" fill="#17282F"/>
<path d="M45.9249 29.1381C45.9284 29.1472 45.7871 29.2137 45.529 29.3256C45.1869 29.4662 44.8218 29.6166 44.4259 29.7802C43.4901 30.1537 42.1884 30.6469 40.735 31.1505C39.2822 31.6541 37.9546 32.0731 36.988 32.3577C36.5753 32.4752 36.1962 32.5829 35.8402 32.6837C35.5681 32.7564 35.4163 32.7914 35.4135 32.7816C35.41 32.7725 35.5569 32.7186 35.8241 32.6298C36.1752 32.5151 36.5501 32.3927 36.9572 32.2598C37.9147 31.9492 39.2367 31.5156 40.6874 31.0134C42.1381 30.5098 43.4439 30.0327 44.3889 29.6837C44.7911 29.5361 45.1611 29.3997 45.508 29.2724C45.7731 29.1773 45.9214 29.1284 45.9249 29.1381" fill="#17282F"/>
<path d="M35.512 30.1092C35.5519 30.1092 35.5841 30.7045 35.5841 31.4389C35.5841 32.1733 35.5519 32.7686 35.512 32.7686C35.4715 32.7686 35.4386 32.1733 35.4386 31.4389C35.4386 30.7045 35.4715 30.1092 35.512 30.1092Z" fill="#17282F"/>
<path d="M52.5786 33.896C52.5786 33.9359 48.342 33.9688 43.1171 33.9688C37.8901 33.9688 33.6542 33.9359 33.6542 33.896C33.6542 33.8561 37.8901 33.8233 43.1171 33.8233C48.342 33.8233 52.5786 33.8561 52.5786 33.896Z" fill="#D5E3FF"/>
<path d="M53.8029 37.0124C53.8022 37.0173 53.7294 37.0187 53.5888 37.0166C53.407 37.011 53.2062 37.0054 52.9775 36.9998C52.3704 36.9775 51.6199 36.9509 50.7309 36.9187C48.7514 36.8565 46.1718 36.7753 43.3195 36.6858C40.4643 36.634 37.8826 36.5865 35.9025 36.5508C35.0141 36.5382 34.2629 36.5277 33.6551 36.52C33.4271 36.5151 33.2263 36.5102 33.0438 36.506C32.9039 36.5011 32.8312 36.4962 32.8312 36.4913C32.8312 36.4864 32.9039 36.4816 33.0438 36.4767C33.2263 36.4725 33.4271 36.4683 33.6551 36.4634C34.2629 36.4592 35.0149 36.4536 35.9032 36.4473C37.8022 36.4452 40.4251 36.4683 43.323 36.5403C46.2187 36.6124 48.8396 36.7194 50.7358 36.8152C51.6234 36.8663 52.3739 36.9089 52.9803 36.9432C53.2076 36.9593 53.4091 36.974 53.5902 36.9873C53.7301 36.9985 53.8029 37.0069 53.8029 37.0124" fill="#D5E3FF"/>
<path d="M54.0945 39.7583C54.0945 39.7989 49.3081 39.8311 43.4047 39.8311C37.4992 39.8311 32.7142 39.7989 32.7142 39.7583C32.7142 39.7184 37.4992 39.6856 43.4047 39.6856C49.3081 39.6856 54.0945 39.7184 54.0945 39.7583Z" fill="#D5E3FF"/>
<path d="M54.6421 42.7388C54.6421 42.7786 49.6809 42.8115 43.562 42.8115C37.4404 42.8115 32.4806 42.7786 32.4806 42.7388C32.4806 42.6989 37.4404 42.666 43.562 42.666C49.6809 42.666 54.6421 42.6989 54.6421 42.7388Z" fill="#D5E3FF"/>
<path d="M55.1464 46.0103C55.1464 46.0508 50.0718 46.083 43.8138 46.083C37.5537 46.083 32.4806 46.0508 32.4806 46.0103C32.4806 45.9697 37.5537 45.9375 43.8138 45.9375C50.0718 45.9375 55.1464 45.9697 55.1464 46.0103Z" fill="#D5E3FF"/>
<path d="M55.4562 49.2817C55.4562 49.3216 50.3125 49.3545 43.9691 49.3545C37.623 49.3545 32.4806 49.3216 32.4806 49.2817C32.4806 49.2419 37.623 49.209 43.9691 49.209C50.3125 49.209 55.4562 49.2419 55.4562 49.2817Z" fill="#D5E3FF"/>
<path d="M55.8556 52.7866C55.8556 52.8272 50.6216 52.8594 44.1685 52.8594C37.7118 52.8594 32.4806 52.8272 32.4806 52.7866C32.4806 52.7461 37.7118 52.7139 44.1685 52.7139C50.6216 52.7139 55.8556 52.7461 55.8556 52.7866Z" fill="#D5E3FF"/>
<path d="M56.2487 55.8247C56.2487 55.8646 50.928 55.8975 44.365 55.8975C37.7999 55.8975 32.4806 55.8646 32.4806 55.8247C32.4806 55.7848 37.7999 55.752 44.365 55.752C50.928 55.752 56.2487 55.7848 56.2487 55.8247Z" fill="#D5E3FF"/>
<path d="M56.753 59.1597C56.753 59.1995 51.3183 59.2324 44.6168 59.2324C37.9133 59.2324 32.4806 59.1995 32.4806 59.1597C32.4806 59.1191 37.9133 59.0869 44.6168 59.0869C51.3183 59.0869 56.753 59.1191 56.753 59.1597Z" fill="#D5E3FF"/>
<path d="M57.0356 62.4946C57.0356 62.5352 51.5386 62.5674 44.7581 62.5674C37.9762 62.5674 32.4806 62.5352 32.4806 62.4946C32.4806 62.4541 37.9762 62.4212 44.7581 62.4212C51.5386 62.4212 57.0356 62.4541 57.0356 62.4946Z" fill="#D5E3FF"/>
<path d="M57.4203 65.8289C57.4203 65.8695 51.8366 65.9023 44.9511 65.9023C38.0622 65.9023 32.4806 65.8695 32.4806 65.8289C32.4806 65.789 38.0622 65.7569 44.9511 65.7569C51.8366 65.7569 57.4203 65.789 57.4203 65.8289Z" fill="#D5E3FF"/>
<path d="M57.7973 69.1636C57.7973 69.2042 52.1296 69.2363 45.1393 69.2363C38.1469 69.2363 32.4806 69.2042 32.4806 69.1636C32.4806 69.1237 38.1469 69.0908 45.1393 69.0908C52.1296 69.0908 57.7973 69.1237 57.7973 69.1636Z" fill="#D5E3FF"/>
<path d="M58.166 72.4995C58.166 72.5394 52.2843 72.5723 45.0296 72.5723C37.7727 72.5723 31.8917 72.5394 31.8917 72.4995C31.8917 72.459 37.7727 72.4261 45.0296 72.4261C52.2843 72.4261 58.166 72.459 58.166 72.4995Z" fill="#D5E3FF"/>
<path d="M58.5247 75.8338C58.5247 75.8744 52.4534 75.9072 44.9658 75.9072C37.476 75.9072 31.4069 75.8744 31.4069 75.8338C31.4069 75.7939 37.476 75.761 44.9658 75.761C52.4534 75.761 58.5247 75.7939 58.5247 75.8338Z" fill="#D5E3FF"/>
<path d="M58.8683 79.1685C58.8683 79.2083 52.697 79.2412 45.0855 79.2412C37.4713 79.2412 31.3014 79.2083 31.3014 79.1685C31.3014 79.1286 37.4713 79.0957 45.0855 79.0957C52.697 79.0957 58.8683 79.1286 58.8683 79.1685Z" fill="#D5E3FF"/>
<path d="M59.1914 82.5034C59.1914 82.544 52.9474 82.5762 45.2471 82.5762C37.544 82.5762 31.3014 82.544 31.3014 82.5034C31.3014 82.4636 37.544 82.4307 45.2471 82.4307C52.9474 82.4307 59.1914 82.4636 59.1914 82.5034Z" fill="#D5E3FF"/>
<path d="M59.0058 85.8381C59.0051 85.878 52.7114 85.8542 44.951 85.7843C37.187 85.7143 30.8962 85.6248 30.8969 85.5849C30.8969 85.5443 37.1884 85.5681 44.9524 85.6388C52.7128 85.708 59.0058 85.7975 59.0058 85.8381Z" fill="#D5E3FF"/>
<path d="M59.0067 88.9142C59.0067 88.9547 52.4843 89.0513 44.4399 89.1289C36.3927 89.2072 29.8717 89.238 29.871 89.1988C29.8703 89.1583 36.3913 89.0618 44.4385 88.9834C52.4829 88.9051 59.0067 88.8743 59.0067 88.9142Z" fill="#D5E3FF"/>
<path d="M40.9931 73.3379C40.7294 73.3379 40.465 73.3211 40.2013 73.2868L41.6065 72.6559C45.1234 68.5746 47.1196 64.9878 49.2138 60.0238C50.8421 56.1649 52.7817 49.2823 53.6042 42.9501C53.7343 43.9371 53.777 45.5752 53.777 47.2049C53.777 49.2361 53.7099 51.2547 53.6623 51.9878C53.2818 57.8653 51.3086 63.6323 48.01 68.511C47.1014 69.8553 46.0767 71.1507 44.7631 72.102C44.6037 72.2181 44.4386 72.3265 44.2693 72.4265C44.1847 72.4776 44.0987 72.5258 44.0112 72.5727C43.0831 73.0693 42.0437 73.3379 40.9931 73.3379" fill="#326EDC"/>
<path d="M55.9306 76.3149C55.9306 76.3149 55.0619 77.3011 53.4419 78.6686C52.6362 79.3561 51.6254 80.1136 50.4594 80.8914C49.2837 81.6531 47.9484 82.4267 46.4886 83.1255C45.0233 83.813 43.5796 84.3579 42.2451 84.7853C40.9056 85.1958 39.6788 85.4994 38.6352 85.6883C36.5515 86.0765 35.2387 86.124 35.2387 86.124C35.238 86.1191 35.3191 86.1051 35.4737 86.0828C35.6709 86.0576 35.8926 86.0282 36.1486 85.9953C36.7355 85.9289 37.5811 85.7932 38.6156 85.5875C39.6529 85.3854 40.8727 85.0734 42.2045 84.6573C43.5314 84.2243 44.9673 83.678 46.4264 82.9933C47.8792 82.298 49.2109 81.5321 50.3853 80.7788C51.5506 80.0108 52.5648 79.2645 53.3769 78.5895C54.1917 77.9187 54.8317 77.3494 55.2542 76.9367C55.4423 76.7604 55.6053 76.6073 55.7501 76.4702C55.8648 76.3645 55.9264 76.3107 55.9306 76.3149" fill="#17282F"/>
<path d="M49.0842 60.5409C49.0821 60.5458 49.0346 60.5339 48.9437 60.5059C48.8185 60.4661 48.6891 60.4241 48.5506 60.3793C48.1295 60.2332 47.6539 60.0674 47.116 59.8799C45.8059 59.3931 44.1986 58.7951 42.4213 58.1348C40.5859 57.4591 38.9002 56.9185 37.6699 56.5624C37.1215 56.4086 36.6382 56.2715 36.2094 56.1511C36.0702 56.1106 35.9387 56.0735 35.8121 56.0364C35.7219 56.0092 35.675 55.9924 35.6764 55.9875C35.6778 55.9826 35.7268 55.9903 35.8191 56.0085C35.9478 56.0364 36.0807 56.0651 36.2227 56.0959C36.5738 56.1728 37.0774 56.2987 37.6978 56.4631C38.9373 56.7946 40.6328 57.3213 42.4709 57.9977C44.3077 58.6748 45.9535 59.3274 47.1517 59.7834C47.6832 59.987 48.1533 60.1667 48.5701 60.3262C48.7044 60.3793 48.8318 60.4297 48.9535 60.4787C49.0402 60.515 49.0856 60.536 49.0842 60.5409" fill="#17282F"/>
<path d="M49.0843 60.54C49.0843 60.54 49.1466 60.3512 49.2781 59.9966C49.4187 59.6098 49.6082 59.0922 49.8447 58.4424C50.3231 57.0882 51.0232 55.1284 51.6968 52.6509C52.3606 50.172 52.8362 47.1441 53.3252 43.7853C53.5735 42.1199 53.6916 40.2944 53.102 38.5457C52.7998 37.6826 52.3242 36.8628 51.6926 36.1571C51.3841 35.7976 51.0386 35.4667 50.6791 35.1464C50.3245 34.8176 49.9349 34.5407 49.4921 34.3469C48.6129 33.9489 47.612 33.8909 46.6901 34.0601C45.7584 34.2175 44.8869 34.6029 44.1294 35.1114C42.5564 36.1235 41.8303 37.868 41.2876 39.4459C40.2167 42.6613 39.2514 45.5606 38.4359 48.0093C37.6294 50.4197 36.9726 52.3823 36.5047 53.7798C36.2815 54.4352 36.1046 54.957 35.9724 55.3466C35.8493 55.704 35.778 55.8894 35.778 55.8894C35.778 55.8894 35.8304 55.6977 35.9444 55.3368C36.0703 54.9451 36.2389 54.4205 36.4501 53.7623C36.9083 52.3613 37.5504 50.3938 38.3386 47.9771C39.1451 45.5256 40.1006 42.6221 41.1602 39.4019C41.4379 38.5989 41.7492 37.7763 42.1989 36.9985C42.6375 36.2144 43.2754 35.5178 44.049 34.9932C44.8226 34.4735 45.7109 34.079 46.6649 33.9168C47.6099 33.744 48.6395 33.8013 49.5516 34.214C50.0069 34.412 50.4217 34.7078 50.7763 35.0373C51.1379 35.3604 51.4884 35.6962 51.8024 36.062C52.4431 36.7796 52.93 37.6182 53.2363 38.4989C53.8364 40.2839 53.7098 42.1346 53.458 43.8042C52.9614 47.1644 52.4753 50.1923 51.7961 52.6775C51.1086 55.1571 50.3937 57.1134 49.8978 58.462C49.397 59.8091 49.0843 60.54 49.0843 60.54" fill="#17282F"/>
<path d="M54.994 100.571L55.5494 141.238C55.5878 144.046 55.8732 146.842 56.4237 149.595C57.1749 153.347 58.5025 158.24 60.6743 161.273C63.9729 165.879 75.5859 178.899 75.5859 178.899L65.8138 190.32C65.8138 190.32 45.0883 173.814 43.7503 158.571C43.0704 150.829 43.7503 104.528 43.7503 104.528L54.994 100.571Z" fill="#17282F"/>
<path d="M32.1428 90.7253L31.8917 195.936H48.089L50.9469 104.398C50.9469 104.398 55.6368 101.311 56.4614 97.3624C57.5764 92.0263 57.0783 89.5355 57.0783 89.5355L32.1428 90.7253Z" fill="#17282F"/>
<path d="M48.7604 195.936H31.1593V193.397H48.7604V195.936Z" fill="#3478F6"/>
<path d="M77.1029 178.305L64.9912 191.076L63.1495 189.329L75.2612 176.559L77.1029 178.305Z" fill="#3478F6"/>
<path d="M74.5737 177.476C74.5779 177.479 74.5436 177.521 74.4758 177.597C74.3799 177.701 74.2792 177.81 74.1715 177.927C73.8484 178.275 73.4763 178.675 73.0503 179.134C72.1039 180.152 70.8253 181.588 69.3495 183.116C67.8911 184.582 66.5726 185.908 65.5144 186.972C65.0688 187.41 64.6786 187.793 64.34 188.127C64.2239 188.236 64.1176 188.339 64.0155 188.436C63.9399 188.505 63.8986 188.54 63.8951 188.536C63.8916 188.532 63.9259 188.491 63.9945 188.415C64.0903 188.312 64.191 188.203 64.2994 188.086C64.6289 187.744 65.008 187.35 65.4417 186.898C66.4908 185.827 67.7981 184.492 69.2446 183.015C70.6638 181.512 71.9466 180.153 72.9747 179.063C73.4567 178.56 73.8533 178.161 74.131 177.887C74.2464 177.777 74.3527 177.675 74.4541 177.577C74.5296 177.507 74.5702 177.472 74.5737 177.476" fill="#17282F"/>
<path d="M44.4867 90.1765C44.4867 90.1765 44.4714 90.2667 44.435 90.4423C44.3951 90.6171 44.3238 90.8752 44.186 91.1977C44.0489 91.5201 43.8264 91.8985 43.4991 92.2923C43.1746 92.6903 42.7402 93.0932 42.2611 93.5513C41.7946 94.0172 41.2469 94.5257 40.7846 95.1776C40.311 95.8469 40.3509 96.7744 40.3012 97.7026C40.2383 99.5897 40.1669 101.734 40.0872 104.102C40.0074 106.475 39.92 109.072 39.8277 111.859C39.7487 114.648 39.6661 117.628 39.578 120.763C39.4157 127.033 39.1751 133.927 39.0296 141.165C38.7869 155.638 38.568 168.738 38.4085 178.243C38.2301 187.508 38.1322 192.62 38.1133 193.6C38.1133 193.6 38.1035 193.233 38.1112 192.535C38.1196 191.815 38.1315 190.79 38.1469 189.479C38.1847 186.805 38.2385 182.971 38.3057 178.242C38.4539 168.736 38.6582 155.635 38.8841 141.162C39.0289 133.923 39.2744 127.03 39.4444 120.759C39.5367 117.624 39.6248 114.645 39.7067 111.855C39.806 109.068 39.899 106.472 39.9843 104.098C40.0711 101.731 40.1508 99.5862 40.2201 97.6991C40.2739 96.7758 40.2348 95.8316 40.7265 95.1398C41.2014 94.4767 41.7498 93.9759 42.2219 93.5108C42.7045 93.054 43.1396 92.6567 43.4662 92.265C43.7943 91.8768 44.0188 91.504 44.1594 91.1858C44.3007 90.8675 44.3762 90.6115 44.4203 90.4388C44.4616 90.2646 44.4867 90.1765 44.4867 90.1765" fill="#3478F6"/>
<path d="M34.807 91.4409C34.7734 91.4626 34.6706 91.3401 34.5769 91.1674C34.4832 90.9939 34.4377 90.8407 34.4741 90.8253C34.5118 90.8093 34.6146 90.9317 34.7049 91.0974C34.7944 91.2646 34.8406 91.4178 34.807 91.4409Z" fill="#3478F6"/>
<path d="M35.7316 92.483C35.7064 92.5138 35.5714 92.4284 35.4301 92.2913C35.2888 92.1542 35.2 92.022 35.2301 91.9955C35.2609 91.9696 35.3959 92.0549 35.5316 92.1871C35.6673 92.3193 35.7568 92.4515 35.7316 92.483Z" fill="#3478F6"/>
<path d="M36.9172 93.2236C36.9018 93.26 36.7473 93.2159 36.5738 93.1229C36.3996 93.0306 36.2765 92.9284 36.2989 92.8949C36.3206 92.8606 36.4745 92.9054 36.6423 92.9942C36.8102 93.0837 36.9333 93.1865 36.9172 93.2236Z" fill="#3478F6"/>
<path d="M38.261 93.5984C38.2561 93.6382 38.0966 93.6389 37.9043 93.6012C37.7112 93.562 37.5643 93.4984 37.5762 93.4599C37.5867 93.4221 37.7469 93.4207 37.933 93.4578C38.1183 93.4949 38.2652 93.5585 38.261 93.5984Z" fill="#3478F6"/>
<path d="M39.6551 93.5478C39.6628 93.587 39.5117 93.6401 39.3166 93.666C39.1214 93.6968 38.9605 93.6716 38.9598 93.6303C38.9591 93.5912 39.1116 93.5513 39.2998 93.5212C39.4866 93.4967 39.6467 93.5086 39.6551 93.5478" fill="#3478F6"/>
<path d="M40.9637 93.0705C40.9833 93.1055 40.8539 93.1992 40.6755 93.2803C40.4965 93.3615 40.3398 93.3957 40.3265 93.3573C40.3132 93.3195 40.4419 93.2251 40.6154 93.1474C40.7881 93.0698 40.9434 93.0348 40.9637 93.0705Z" fill="#3478F6"/>
<path d="M42.0863 92.2372C42.115 92.2658 42.0171 92.3931 41.8681 92.5211C41.7184 92.6484 41.5778 92.7261 41.554 92.6939C41.5309 92.661 41.6289 92.5337 41.773 92.4099C41.9177 92.2868 42.0576 92.2092 42.0863 92.2372Z" fill="#3478F6"/>
<path d="M42.929 91.1266C42.9647 91.1455 42.9067 91.2945 42.8004 91.4596C42.6926 91.6246 42.58 91.738 42.5485 91.7135C42.5164 91.689 42.5744 91.5393 42.678 91.3805C42.7808 91.2211 42.8934 91.1077 42.929 91.1266Z" fill="#3478F6"/>
<path d="M43.2927 90.2508C43.3312 90.262 43.3452 90.3256 43.3235 90.3928C43.3011 90.4592 43.2529 90.5026 43.2151 90.4886C43.178 90.4753 43.1633 90.4116 43.1843 90.3473C43.206 90.2829 43.2536 90.2403 43.2927 90.2508" fill="#3478F6"/>
<path d="M38.9918 96.2891C38.952 96.2877 38.9247 96.1303 38.9303 95.9372C38.9373 95.7442 38.9758 95.5889 39.0156 95.5903C39.0555 95.5917 39.0828 95.7491 39.0765 95.9421C39.0702 96.1352 39.0317 96.2905 38.9918 96.2891Z" fill="#3478F6"/>
<path d="M38.9451 97.6865C38.9046 97.6851 38.8773 97.5277 38.8843 97.3347C38.8906 97.1416 38.9277 96.9864 38.9682 96.9878C39.0088 96.9892 39.0361 97.1465 39.0298 97.3396C39.0228 97.5326 38.985 97.6879 38.9451 97.6865Z" fill="#3478F6"/>
<path d="M38.8988 99.084C38.8589 99.0826 38.8316 98.9252 38.8379 98.7321C38.8442 98.5391 38.882 98.3831 38.9226 98.3845C38.9617 98.3859 38.9897 98.544 38.9841 98.737C38.9771 98.9301 38.9394 99.0854 38.8988 99.084Z" fill="#3478F6"/>
<path d="M38.8548 100.483C38.8142 100.482 38.787 100.325 38.7933 100.132C38.7996 99.9385 38.8373 99.7825 38.8772 99.7839C38.9171 99.7853 38.945 99.9434 38.9388 100.136C38.9325 100.33 38.8954 100.485 38.8548 100.483Z" fill="#3478F6"/>
<path d="M38.8107 101.881C38.7708 101.879 38.7435 101.722 38.7491 101.529C38.7547 101.336 38.7925 101.18 38.8331 101.181C38.8729 101.183 38.9002 101.34 38.8953 101.533C38.889 101.727 38.8513 101.882 38.8107 101.881Z" fill="#3478F6"/>
<path d="M38.7688 103.279C38.7282 103.278 38.7003 103.121 38.7066 102.927C38.7122 102.734 38.7499 102.578 38.7898 102.58C38.8304 102.581 38.8576 102.739 38.852 102.932C38.8457 103.125 38.8094 103.281 38.7688 103.279Z" fill="#3478F6"/>
<path d="M38.7266 104.679C38.6868 104.677 38.6588 104.521 38.6644 104.327C38.67 104.134 38.7071 103.978 38.7476 103.979C38.7875 103.981 38.8155 104.138 38.8099 104.331C38.8043 104.525 38.7672 104.68 38.7266 104.679Z" fill="#3478F6"/>
<path d="M38.6861 106.079C38.6456 106.078 38.6176 105.921 38.6231 105.727C38.6294 105.534 38.6658 105.378 38.7064 105.38C38.747 105.38 38.775 105.538 38.7694 105.731C38.7638 105.925 38.726 106.08 38.6861 106.079Z" fill="#3478F6"/>
<path d="M38.6463 107.479C38.6057 107.478 38.5778 107.32 38.5834 107.127C38.5889 106.934 38.626 106.778 38.6659 106.779C38.7065 106.78 38.7344 106.938 38.7288 107.131C38.7232 107.325 38.6869 107.48 38.6463 107.479Z" fill="#3478F6"/>
<path d="M38.6073 108.879C38.5674 108.878 38.5394 108.72 38.545 108.527C38.5492 108.333 38.5863 108.177 38.6269 108.179C38.6667 108.18 38.6954 108.338 38.6905 108.531C38.6849 108.724 38.6478 108.88 38.6073 108.879Z" fill="#3478F6"/>
<path d="M38.5694 110.278C38.5288 110.277 38.5009 110.12 38.5064 109.926C38.5113 109.733 38.5477 109.577 38.5883 109.578C38.6288 109.579 38.6568 109.737 38.6519 109.93C38.6463 110.124 38.6093 110.279 38.5694 110.278Z" fill="#3478F6"/>
<path d="M38.5323 111.679C38.4917 111.677 38.463 111.521 38.4686 111.327C38.4735 111.133 38.5106 110.977 38.5504 110.979C38.591 110.979 38.619 111.137 38.6141 111.33C38.6085 111.524 38.5728 111.68 38.5323 111.679Z" fill="#3478F6"/>
<path d="M38.4951 113.08C38.4552 113.079 38.4272 112.921 38.4314 112.728C38.4363 112.534 38.4734 112.379 38.514 112.379C38.5539 112.381 38.5825 112.539 38.5769 112.732C38.5727 112.925 38.5357 113.081 38.4951 113.08Z" fill="#3478F6"/>
<path d="M38.4603 114.481C38.4197 114.48 38.391 114.323 38.3959 114.129C38.4015 113.936 38.4372 113.78 38.4778 113.781C38.5184 113.782 38.547 113.939 38.5421 114.132C38.5365 114.326 38.5002 114.482 38.4603 114.481Z" fill="#3478F6"/>
<path d="M38.4252 115.882C38.3846 115.88 38.3559 115.722 38.3608 115.529C38.3657 115.336 38.4021 115.18 38.4419 115.181C38.4825 115.182 38.5112 115.34 38.5063 115.534C38.5014 115.727 38.465 115.883 38.4252 115.882Z" fill="#3478F6"/>
<path d="M38.3909 117.283C38.3504 117.282 38.3217 117.124 38.3266 116.931C38.3308 116.738 38.3679 116.582 38.4077 116.582C38.4483 116.584 38.477 116.742 38.4721 116.935C38.4672 117.128 38.4308 117.285 38.3909 117.283Z" fill="#3478F6"/>
<path d="M38.3575 118.685C38.3169 118.684 38.2875 118.526 38.2924 118.332C38.2973 118.139 38.3337 117.983 38.3736 117.984C38.4141 117.984 38.4428 118.142 38.4379 118.336C38.4337 118.529 38.398 118.685 38.3575 118.685Z" fill="#3478F6"/>
<path d="M38.3239 120.087C38.2847 120.086 38.2554 119.928 38.2596 119.734C38.2638 119.541 38.3001 119.385 38.3407 119.386C38.3805 119.387 38.4099 119.544 38.405 119.738C38.4008 119.932 38.3645 120.088 38.3239 120.087Z" fill="#3478F6"/>
<path d="M38.2917 121.488C38.2518 121.488 38.2231 121.33 38.2273 121.136C38.2315 120.942 38.2679 120.787 38.3084 120.787C38.3483 120.788 38.377 120.946 38.3728 121.14C38.3686 121.333 38.3322 121.489 38.2917 121.488Z" fill="#3478F6"/>
<path d="M38.2603 122.891C38.2204 122.889 38.1911 122.732 38.196 122.538C38.1995 122.344 38.2358 122.188 38.2764 122.189C38.3163 122.19 38.345 122.347 38.3415 122.542C38.3373 122.735 38.3009 122.891 38.2603 122.891Z" fill="#3478F6"/>
<path d="M38.2287 124.292C38.1888 124.291 38.1602 124.134 38.1643 123.941C38.1685 123.746 38.2042 123.591 38.2448 123.592C38.2853 123.592 38.314 123.75 38.3098 123.943C38.3056 124.137 38.2693 124.293 38.2287 124.292Z" fill="#3478F6"/>
<path d="M38.198 125.694C38.1581 125.694 38.1294 125.536 38.1336 125.342C38.1378 125.149 38.1735 124.992 38.2141 124.993C38.2539 124.994 38.2833 125.152 38.2791 125.345C38.2749 125.54 38.2385 125.696 38.198 125.694Z" fill="#3478F6"/>
<path d="M38.1686 127.097C38.128 127.096 38.0994 126.939 38.1036 126.745C38.1078 126.551 38.1427 126.394 38.1833 126.396C38.2238 126.397 38.2532 126.555 38.249 126.748C38.2449 126.942 38.2085 127.098 38.1686 127.097Z" fill="#3478F6"/>
<path d="M38.1393 128.5C38.0987 128.499 38.0693 128.341 38.0735 128.147C38.0777 127.954 38.1134 127.798 38.1539 127.798C38.1938 127.799 38.2232 127.957 38.219 128.151C38.2148 128.344 38.1791 128.501 38.1393 128.5Z" fill="#3478F6"/>
<path d="M38.11 129.901C38.0694 129.901 38.04 129.743 38.0442 129.549C38.0484 129.356 38.0841 129.199 38.1247 129.2C38.1645 129.201 38.1939 129.359 38.1904 129.552C38.1862 129.745 38.1498 129.902 38.11 129.901Z" fill="#3478F6"/>
<path d="M38.0812 131.306C38.0406 131.304 38.0112 131.147 38.0154 130.953C38.0196 130.759 38.0546 130.603 38.0952 130.604C38.1357 130.605 38.1651 130.762 38.1609 130.956C38.1574 131.15 38.121 131.306 38.0812 131.306Z" fill="#3478F6"/>
<path d="M38.0524 132.707C38.0125 132.706 37.9831 132.548 37.9873 132.355C37.9908 132.161 38.0265 132.005 38.0664 132.005C38.1069 132.007 38.1363 132.164 38.1328 132.358C38.1286 132.552 38.093 132.708 38.0524 132.707Z" fill="#3478F6"/>
<path d="M38.0244 134.111C37.9846 134.111 37.9552 133.953 37.9587 133.76C37.9629 133.565 37.9978 133.409 38.0384 133.41C38.079 133.411 38.1084 133.568 38.1049 133.762C38.1007 133.956 38.065 134.112 38.0244 134.111" fill="#3478F6"/>
<path d="M37.9972 135.513C37.9573 135.512 37.9272 135.355 37.9314 135.162C37.9356 134.967 37.9706 134.811 38.0111 134.812C38.0517 134.812 38.0811 134.97 38.0769 135.164C38.0734 135.357 38.037 135.514 37.9972 135.513" fill="#3478F6"/>
<path d="M37.9698 136.917C37.93 136.916 37.8999 136.759 37.9041 136.565C37.9069 136.371 37.9432 136.215 37.9831 136.215C38.023 136.216 38.0531 136.374 38.0496 136.568C38.0461 136.762 38.0097 136.918 37.9698 136.917Z" fill="#3478F6"/>
<path d="M37.9426 138.319C37.9027 138.318 37.8734 138.161 37.8769 137.967C37.8804 137.774 37.916 137.617 37.9566 137.618C37.9965 137.618 38.0259 137.776 38.0231 137.97C38.0189 138.164 37.9832 138.32 37.9426 138.319" fill="#3478F6"/>
<path d="M37.9161 139.723C37.8762 139.721 37.8469 139.564 37.8497 139.37C37.8532 139.176 37.8895 139.02 37.9294 139.02C37.9693 139.022 37.9993 139.179 37.9951 139.373C37.9923 139.567 37.9567 139.723 37.9161 139.723Z" fill="#3478F6"/>
<path d="M37.8894 141.126C37.8488 141.125 37.8194 140.967 37.8229 140.774C37.8271 140.58 37.8628 140.424 37.9033 140.425C37.9425 140.425 37.9726 140.582 37.9684 140.776C37.9649 140.97 37.9299 141.127 37.8894 141.126Z" fill="#3478F6"/>
<path d="M37.8636 142.529C37.823 142.529 37.7929 142.37 37.7971 142.177C37.8006 141.983 37.8363 141.827 37.8769 141.828C37.9167 141.828 37.9461 141.986 37.9426 142.18C37.9391 142.373 37.9041 142.53 37.8636 142.529Z" fill="#3478F6"/>
<path d="M37.8371 143.933C37.7973 143.931 37.7672 143.774 37.7707 143.58C37.7749 143.386 37.8105 143.23 37.8504 143.23C37.8903 143.231 37.9204 143.388 37.9169 143.583C37.9127 143.777 37.8777 143.933 37.8371 143.933Z" fill="#3478F6"/>
<path d="M37.8112 145.336C37.7713 145.335 37.7413 145.178 37.7448 144.984C37.749 144.791 37.7839 144.635 37.8238 144.635C37.8644 144.635 37.8945 144.793 37.891 144.986C37.8868 145.181 37.8511 145.337 37.8112 145.336Z" fill="#3478F6"/>
<path d="M37.786 146.738C37.7455 146.737 37.7154 146.58 37.7189 146.386C37.7231 146.193 37.7588 146.036 37.7979 146.037C37.8385 146.038 37.8686 146.195 37.8651 146.389C37.8609 146.583 37.8252 146.739 37.786 146.738Z" fill="#3478F6"/>
<path d="M37.7601 148.143C37.7195 148.142 37.6894 147.984 37.6936 147.79C37.6971 147.596 37.7321 147.44 37.7727 147.441C37.8133 147.442 37.8426 147.599 37.8391 147.793C37.8356 147.987 37.8 148.143 37.7601 148.143" fill="#3478F6"/>
<path d="M37.7334 149.546C37.6935 149.545 37.6641 149.387 37.6676 149.194C37.6711 149 37.7061 148.844 37.7467 148.844C37.7872 148.845 37.8166 149.003 37.8131 149.197C37.8096 149.39 37.774 149.547 37.7334 149.546" fill="#3478F6"/>
<path d="M37.7082 150.949C37.6683 150.948 37.6383 150.791 37.6418 150.597C37.6453 150.403 37.6809 150.246 37.7208 150.247C37.7607 150.248 37.7907 150.405 37.7879 150.599C37.7837 150.792 37.7488 150.95 37.7082 150.949Z" fill="#3478F6"/>
<path d="M37.6825 152.353C37.6426 152.352 37.6132 152.194 37.616 152C37.6195 151.806 37.6552 151.65 37.6958 151.651C37.7356 151.652 37.765 151.809 37.7615 152.003C37.7587 152.196 37.7231 152.353 37.6825 152.353Z" fill="#3478F6"/>
<path d="M37.6567 153.756C37.6168 153.755 37.5867 153.597 37.5902 153.404C37.5937 153.209 37.6294 153.053 37.67 153.054C37.7099 153.055 37.7399 153.212 37.7365 153.406C37.7323 153.6 37.6973 153.756 37.6567 153.756Z" fill="#3478F6"/>
<path d="M37.6312 155.158C37.5906 155.158 37.5605 155 37.5647 154.807C37.5682 154.613 37.6039 154.456 37.6438 154.457C37.6843 154.457 37.7137 154.616 37.7102 154.809C37.7067 155.003 37.6718 155.159 37.6312 155.158Z" fill="#3478F6"/>
<path d="M37.6054 156.562C37.5649 156.561 37.5355 156.403 37.539 156.21C37.5425 156.016 37.5782 155.859 37.618 155.86C37.6586 155.861 37.688 156.019 37.6845 156.212C37.681 156.406 37.6453 156.563 37.6054 156.562Z" fill="#3478F6"/>
<path d="M37.5798 157.964C37.5392 157.963 37.5098 157.806 37.5133 157.612C37.5168 157.418 37.5525 157.262 37.5924 157.262C37.6329 157.263 37.6623 157.421 37.6588 157.615C37.6553 157.808 37.6196 157.965 37.5798 157.964" fill="#3478F6"/>
<path d="M37.5536 159.367C37.5131 159.366 37.4837 159.208 37.4872 159.015C37.4907 158.822 37.5264 158.665 37.5663 158.666C37.6068 158.667 37.6362 158.824 37.6327 159.018C37.6292 159.211 37.5935 159.368 37.5536 159.367Z" fill="#3478F6"/>
<path d="M37.5277 160.771C37.4872 160.77 37.4571 160.612 37.4606 160.419C37.4648 160.225 37.4997 160.068 37.5403 160.069C37.5809 160.07 37.6103 160.227 37.6068 160.421C37.6026 160.615 37.5669 160.771 37.5277 160.771Z" fill="#3478F6"/>
<path d="M37.5007 162.174C37.4609 162.173 37.4315 162.015 37.435 161.821C37.4385 161.628 37.4734 161.472 37.514 161.472C37.5546 161.473 37.584 161.63 37.5805 161.824C37.577 162.018 37.5413 162.175 37.5007 162.174Z" fill="#3478F6"/>
<path d="M37.4741 163.576C37.4342 163.575 37.4049 163.417 37.4084 163.224C37.4112 163.03 37.4475 162.874 37.4874 162.875C37.528 162.876 37.5573 163.033 37.5538 163.227C37.5503 163.42 37.5147 163.577 37.4741 163.576" fill="#3478F6"/>
<path d="M37.4476 164.978C37.4078 164.976 37.3777 164.819 37.3819 164.626C37.3847 164.432 37.4204 164.276 37.4609 164.276C37.5008 164.277 37.5302 164.435 37.5274 164.628C37.5239 164.822 37.4875 164.978 37.4476 164.978Z" fill="#3478F6"/>
<path d="M37.4203 166.381C37.3804 166.38 37.351 166.223 37.3538 166.029C37.358 165.835 37.3937 165.678 37.4343 165.679C37.4741 165.68 37.5035 165.838 37.4993 166.032C37.4965 166.225 37.4609 166.381 37.4203 166.381Z" fill="#3478F6"/>
<path d="M37.3928 167.783C37.3529 167.783 37.3228 167.625 37.3263 167.431C37.3305 167.238 37.3662 167.081 37.4068 167.082C37.4467 167.083 37.476 167.241 37.4718 167.434C37.469 167.628 37.4327 167.784 37.3928 167.783Z" fill="#3478F6"/>
<path d="M37.3647 169.186C37.3241 169.184 37.2948 169.028 37.2983 168.833C37.3025 168.64 37.3381 168.483 37.3787 168.484C37.4186 168.485 37.448 168.643 37.4445 168.837C37.4403 169.03 37.4053 169.186 37.3647 169.186" fill="#3478F6"/>
<path d="M37.3369 170.587C37.2963 170.586 37.2669 170.428 37.2704 170.235C37.2746 170.042 37.3103 169.886 37.3509 169.886C37.3907 169.887 37.4201 170.045 37.4166 170.238C37.4124 170.432 37.3768 170.588 37.3369 170.587" fill="#3478F6"/>
<path d="M37.3082 171.989C37.2676 171.988 37.2383 171.831 37.2425 171.637C37.2467 171.444 37.2823 171.288 37.3229 171.288C37.3628 171.29 37.3922 171.446 37.388 171.641C37.3838 171.834 37.3488 171.991 37.3082 171.989Z" fill="#3478F6"/>
<path d="M37.2788 173.392C37.2389 173.39 37.2096 173.233 37.2131 173.039C37.2172 172.845 37.2536 172.689 37.2942 172.691C37.334 172.692 37.3634 172.848 37.3592 173.043C37.355 173.236 37.3194 173.392 37.2788 173.392" fill="#3478F6"/>
<path d="M37.2497 174.793C37.2091 174.792 37.1804 174.634 37.1846 174.44C37.1888 174.246 37.2245 174.091 37.265 174.092C37.3049 174.093 37.3343 174.249 37.3301 174.444C37.3259 174.637 37.2902 174.794 37.2497 174.793" fill="#3478F6"/>
<path d="M37.2201 176.194C37.1795 176.194 37.1501 176.036 37.1543 175.843C37.1585 175.649 37.1949 175.493 37.2355 175.494C37.2746 175.495 37.304 175.652 37.2998 175.845C37.2956 176.039 37.26 176.195 37.2201 176.194Z" fill="#3478F6"/>
<path d="M37.1895 177.595C37.1489 177.594 37.1195 177.436 37.1244 177.243C37.1286 177.049 37.165 176.894 37.2049 176.895C37.2447 176.895 37.2741 177.053 37.2699 177.246C37.2657 177.44 37.23 177.595 37.1895 177.595Z" fill="#3478F6"/>
<path d="M37.1586 178.995C37.1187 178.995 37.0893 178.837 37.0935 178.644C37.0977 178.45 37.1341 178.295 37.1747 178.295C37.2138 178.296 37.2432 178.454 37.239 178.647C37.2355 178.84 37.1991 178.997 37.1586 178.995" fill="#3478F6"/>
<path d="M37.1271 180.396C37.0872 180.396 37.0578 180.238 37.062 180.045C37.0662 179.852 37.1026 179.695 37.1432 179.696C37.1831 179.697 37.2117 179.855 37.2075 180.048C37.204 180.242 37.1677 180.397 37.1271 180.396Z" fill="#3478F6"/>
<path d="M37.0951 181.797C37.0552 181.796 37.0258 181.639 37.0307 181.446C37.0342 181.252 37.0706 181.096 37.1111 181.097C37.151 181.098 37.1804 181.256 37.1762 181.448C37.172 181.642 37.1356 181.798 37.0951 181.797Z" fill="#3478F6"/>
<path d="M37.0619 183.197C37.0221 183.196 36.9934 183.039 36.9976 182.845C37.0025 182.652 37.0382 182.496 37.0787 182.497C37.1193 182.498 37.148 182.655 37.1431 182.849C37.1389 183.043 37.1025 183.198 37.0619 183.197Z" fill="#3478F6"/>
<path d="M37.0291 184.598C36.9886 184.597 36.9599 184.44 36.9648 184.246C36.969 184.053 37.0054 183.897 37.0459 183.898C37.0858 183.899 37.1152 184.056 37.1103 184.249C37.1054 184.443 37.069 184.599 37.0291 184.598" fill="#3478F6"/>
<path d="M36.9949 185.998C36.9544 185.997 36.9257 185.84 36.9306 185.646C36.9355 185.453 36.9718 185.297 37.0117 185.298C37.0523 185.299 37.081 185.457 37.0761 185.65C37.0712 185.843 37.0348 185.999 36.9949 185.998Z" fill="#3478F6"/>
<path d="M36.9598 187.397C36.9192 187.396 36.8905 187.239 36.8954 187.046C36.9003 186.853 36.9374 186.697 36.9773 186.697C37.0178 186.699 37.0465 186.856 37.0416 187.049C37.0367 187.242 37.0004 187.398 36.9598 187.397Z" fill="#3478F6"/>
<path d="M36.9243 188.796C36.8844 188.795 36.8564 188.638 36.8606 188.444C36.8655 188.251 36.9019 188.095 36.9425 188.096C36.9823 188.097 37.011 188.255 37.0061 188.448C37.0019 188.641 36.9648 188.797 36.9243 188.796Z" fill="#3478F6"/>
<path d="M36.8879 190.194C36.848 190.193 36.82 190.036 36.8249 189.842C36.8291 189.65 36.8662 189.494 36.9067 189.495C36.9466 189.496 36.9753 189.654 36.9704 189.847C36.9655 190.04 36.9284 190.196 36.8879 190.194Z" fill="#3478F6"/>
<path d="M36.8516 191.594C36.811 191.593 36.7823 191.436 36.7879 191.242C36.7928 191.049 36.8292 190.893 36.8698 190.894C36.9103 190.896 36.939 191.053 36.9334 191.246C36.9285 191.439 36.8915 191.595 36.8516 191.594Z" fill="#3478F6"/>
<path d="M36.815 192.927C36.7745 192.925 36.7458 192.783 36.7507 192.608C36.7556 192.433 36.7926 192.292 36.8318 192.293C36.8724 192.294 36.9011 192.437 36.8962 192.612C36.8913 192.787 36.8556 192.928 36.815 192.927Z" fill="#3478F6"/>
<path d="M35.6751 32.3768C35.6031 30.9716 35.2177 24.7814 35.2177 24.7814C35.2177 24.7814 30.837 24.5128 30.3817 20.2007C29.925 15.8892 29.7494 5.90664 29.7494 5.90664C34.5525 3.28929 40.3901 3.45367 45.0394 6.33541L46.1292 7.01108L46.2453 12.0807L45.9984 16.6398L45.8102 29.0488L35.7031 32.3936L35.6751 32.3768" fill="#D2E0F9"/>
<path d="M30.416 12.832C30.4293 13.1377 30.6881 13.3741 30.9938 13.3608C31.2994 13.3475 31.5358 13.0887 31.5232 12.783C31.5092 12.4774 31.2504 12.2403 30.9448 12.2536C30.6391 12.2675 30.402 12.5263 30.416 12.832" fill="#17282F"/>
<path d="M30.3759 12.6381C30.4501 12.706 30.8439 12.3402 31.4377 12.2821C32.0315 12.2157 32.4918 12.4913 32.5505 12.408C32.5799 12.3716 32.5002 12.2429 32.298 12.117C32.1001 11.9925 31.7699 11.8848 31.3999 11.924C31.0299 11.9625 30.7298 12.1366 30.562 12.3003C30.3906 12.4654 30.3396 12.6081 30.3759 12.6381" fill="#17282F"/>
<path d="M37.2068 12.1059C36.962 12.2898 36.913 12.6368 37.0963 12.8816C37.2802 13.1257 37.6272 13.1753 37.872 12.9914C38.1161 12.8074 38.1665 12.4605 37.9825 12.2164C37.7985 11.9709 37.4509 11.9219 37.2068 12.1059" fill="#17282F"/>
<path d="M36.9803 12.3469C37.0552 12.4155 37.4483 12.0497 38.0428 11.9916C38.6359 11.9245 39.0976 12.2001 39.1556 12.1175C39.185 12.0805 39.1046 11.9525 38.9024 11.8266C38.7045 11.7014 38.3744 11.5936 38.0043 11.6328C37.635 11.672 37.3343 11.8461 37.1671 12.0098C36.9957 12.1749 36.9447 12.3169 36.9803 12.3469" fill="#17282F"/>
<path d="M35.0533 17.4744C35.0533 17.5178 34.6791 17.5597 34.0748 17.5919C33.9503 17.5989 33.6607 17.6304 33.5236 17.3625C33.4215 17.1191 33.5089 16.9008 33.5502 16.7155C33.6656 16.279 33.7719 15.8761 33.8831 15.4565C34.3721 13.675 34.8365 12.2495 34.9204 12.2732C35.0044 12.2956 34.6763 13.7589 34.1874 15.5404C34.0685 15.958 33.9545 16.3581 33.8307 16.7924C33.7698 16.9848 33.7237 17.1582 33.7629 17.2554C33.7859 17.345 33.9167 17.3667 34.0734 17.3681C34.6784 17.3932 35.0533 17.4303 35.0533 17.4744" fill="#17282F"/>
<path d="M37.0458 17.9503C37.6313 17.5237 35.4252 19.0156 34.2089 19.0695C34.2089 19.0695 35.0069 20.1144 36.2093 19.543C37.4571 18.9499 37.0458 17.9503 37.0458 17.9503Z" fill="white"/>
<path d="M35.2177 24.8637C35.2177 24.8637 38.1309 24.7672 40.8601 22.6758C40.8601 22.6758 39.7026 25.9073 35.3583 25.9199L35.2177 24.8637Z" fill="white"/>
<path d="M43.8579 3.37073C42.608 2.41528 41.3378 1.44864 39.8766 0.865999C38.4148 0.284054 36.7116 0.125278 35.2889 0.796054C34.6349 1.10521 34.0614 1.57594 33.3871 1.83893C31.97 2.3901 30.2255 1.98021 28.9868 2.86222C27.8523 3.67009 27.6152 5.39006 28.2713 6.6183C28.9274 7.84584 30.2913 8.58376 31.672 8.76072C33.0534 8.93698 34.453 8.62013 35.768 8.16129C36.5395 7.892 37.3838 7.57165 38.1469 7.86542C38.875 8.1466 39.3786 8.94749 40.1564 9.01603C40.8342 9.07619 41.6336 8.57467 42.1274 9.0419C42.3303 9.23355 42.3898 9.52733 42.4387 9.80082C42.7066 11.2872 43.5837 14.2941 43.8516 15.7804C44.8273 16.2057 45.2862 14.8942 46.3507 14.8698C46.5235 11.5809 47.9378 8.2774 47.111 5.08999C46.9068 4.30311 46.534 3.51063 45.8556 3.06438C45.1764 2.61673 44.1384 2.6531 43.6614 3.31129" fill="#17282F"/>
<path d="M44.5231 11.4227C44.6035 11.3702 47.416 10.335 47.9203 13.8197C48.4239 17.3051 44.7371 16.6609 44.7168 16.5616C44.6965 16.4629 44.5231 11.4227 44.5231 11.4227" fill="#D2E0F9"/>
<path d="M45.6071 15.1843C45.6211 15.171 45.6743 15.2185 45.7841 15.25C45.8911 15.2815 46.0667 15.2885 46.2395 15.194C46.5878 15.0059 46.813 14.3764 46.7389 13.7462C46.7025 13.4272 46.592 13.1349 46.4444 12.9012C46.3003 12.6613 46.1101 12.5074 45.9205 12.5012C45.7296 12.4851 45.6141 12.6152 45.5855 12.7194C45.5533 12.8236 45.5855 12.89 45.568 12.8984C45.5589 12.9089 45.4841 12.8509 45.4911 12.7026C45.496 12.632 45.5246 12.5431 45.5973 12.4648C45.6708 12.3843 45.789 12.3326 45.9205 12.3277C46.1912 12.3074 46.4696 12.52 46.6326 12.776C46.8109 13.032 46.9417 13.3594 46.983 13.7175C47.062 14.4226 46.7976 15.1318 46.315 15.35C46.0793 15.4493 45.8632 15.4053 45.7464 15.3381C45.626 15.2675 45.5967 15.192 45.6071 15.1843" fill="white"/>
<path d="M43.111 1.04038C43.2089 1.0173 43.4195 1.56916 43.5824 2.27281C43.7447 2.97716 43.7965 3.56611 43.6992 3.58919C43.6006 3.61157 43.3894 3.05899 43.2271 2.35534C43.0648 1.65099 43.0124 1.06277 43.111 1.04038Z" fill="#17282F"/>
<path d="M44.6442 1.20905C44.7372 1.24892 44.5806 1.81408 44.2959 2.47087C44.0119 3.12766 43.7062 3.62846 43.6139 3.5886C43.5216 3.54803 43.6769 2.98287 43.9622 2.32608C44.2469 1.66929 44.5519 1.16919 44.6442 1.20905Z" fill="#17282F"/>
<path d="M36.1981 56.1584C35.763 57.5426 35.3958 58.4351 34.9615 58.9093C32.9764 61.079 15.8006 42.4127 15.8006 42.4127C15.7146 41.7657 15.5342 39.4134 15.6698 38.7741C15.8335 37.9992 16.0937 36.9779 16.4099 36.4638C16.8009 35.8266 16.214 35.046 15.5859 35.3027C14.9578 35.5594 13.8373 37.2885 13.5512 39.6778C13.2658 42.0672 10.7394 39.0994 9.98119 37.9467C9.22228 36.7933 6.59933 33.3184 6.06005 33.2708C5.26897 33.2009 5.18715 34.1724 5.97193 35.3062C6.76581 36.4541 9.00266 39.8044 8.71309 40.0248C8.14163 40.4598 4.11346 34.5893 4.11346 34.5893C4.11346 34.5893 3.48885 33.3709 2.74953 33.7759C1.41427 34.5054 5.88937 40.4822 6.33003 41.0425C6.63639 41.4328 6.19713 41.5831 5.89007 41.1474C5.57462 40.699 1.99553 35.6322 1.04987 36.2841C0.0713374 36.9591 4.04841 41.1404 4.57999 42.3847C5.18292 43.7955 1.36393 38.6797 0.383992 39.2554C0.0195764 39.4701 -0.223145 39.6806 2.08645 42.4183C3.5539 44.1585 7.05257 47.3396 9.49786 49.5052C14.3716 55.305 31.2432 74.6001 39.1323 73.5167C40.8614 73.2789 42.4715 72.4451 43.4675 70.807C45.7372 67.0719 47.4649 64.0601 48.8295 60.4502L36.1981 56.1584" fill="#D2E0F9"/>
</svg>
