<svg width="460" height="464" viewBox="0 0 460 464" fill="none" xmlns="http://www.w3.org/2000/svg">
<g clip-path="url(#clip0_688_2626)">
<rect width="460" height="464" rx="32" fill="#F5F8FF"/>
<path d="M229.355 440.379H-33V278H229.355V440.379" fill="#FAFAF9"/>
<path d="M166.016 395.406C147.824 388.507 126.898 407.583 109.066 399.804C98.6873 395.277 93.9819 383.54 88.8977 373.425C83.812 363.308 75.0532 352.637 63.7924 353.811C52.4343 354.996 43.2495 368.146 32.2787 364.976C25.364 362.98 21.9118 355.311 20.1778 348.325C18.4442 341.338 17.2427 333.619 11.9705 328.719C6.69649 323.82 -4.2887 325.13 -5.11639 332.28V418.362H200.049C200.049 418.362 172.312 397.794 166.016 395.406" fill="#92B8FF"/>
<path d="M205.528 418.364C205.528 418.549 155.8 418.697 94.4697 418.697C33.1184 418.697 -16.6007 418.549 -16.6007 418.364C-16.6007 418.18 33.1184 418.031 94.4697 418.031C155.8 418.031 205.528 418.18 205.528 418.364Z" fill="#DADBD8"/>
<path d="M205.528 380.763C205.528 380.948 155.8 381.098 94.4697 381.098C33.1184 381.098 -16.6007 380.948 -16.6007 380.763C-16.6007 380.58 33.1184 380.43 94.4697 380.43C155.8 380.43 205.528 380.58 205.528 380.763Z" fill="#DADBD8"/>
<path d="M205.528 343.164C205.528 343.348 155.8 343.498 94.4697 343.498C33.1184 343.498 -16.6007 343.348 -16.6007 343.164C-16.6007 342.979 33.1184 342.83 94.4697 342.83C155.8 342.83 205.528 342.979 205.528 343.164Z" fill="#DADBD8"/>
<path d="M205.528 307.432C205.528 307.616 155.8 307.767 94.4697 307.767C33.1184 307.767 -16.6007 307.616 -16.6007 307.432C-16.6007 307.248 33.1184 307.099 94.4697 307.099C155.8 307.099 205.528 307.248 205.528 307.432Z" fill="#DADBD8"/>
<path d="M269.97 108.016C269.97 108.217 266.242 108.38 261.643 108.38C257.044 108.38 253.319 108.217 253.319 108.016C253.319 107.817 257.044 107.654 261.643 107.654C266.242 107.654 269.97 107.817 269.97 108.016Z" fill="#17282F"/>
<path d="M294.95 108.016C294.95 108.217 293.082 108.38 290.774 108.38C288.467 108.38 286.596 108.217 286.596 108.016C286.596 107.817 288.467 107.654 290.774 107.654C293.082 107.654 294.95 107.817 294.95 108.016Z" fill="#17282F"/>
<path d="M500.245 164.656H244.362V46.3639H500.245V164.656Z" fill="#FAFAF9"/>
<path d="M500.245 164.656C500.245 164.656 500.227 163.93 500.217 162.543C500.21 161.144 500.201 159.088 500.189 156.395C500.174 150.993 500.15 143.049 500.123 132.824C500.089 112.391 500.04 82.8494 499.98 46.3636L500.245 46.6283C433.86 46.6533 343.632 46.6882 244.382 46.7258H244.362L244.726 46.3636C244.719 87.9676 244.713 127.983 244.706 164.655L244.362 164.312C318.827 164.377 382.752 164.434 428.076 164.475C450.755 164.517 468.778 164.549 481.145 164.571C487.324 164.589 492.087 164.603 495.321 164.613C496.928 164.622 498.151 164.629 498.987 164.635C499.813 164.641 500.245 164.656 500.245 164.656C500.245 164.656 499.841 164.67 499.029 164.677C498.203 164.681 496.992 164.688 495.404 164.698C492.186 164.707 487.446 164.721 481.298 164.741C468.95 164.762 450.954 164.795 428.307 164.836C382.926 164.876 318.921 164.933 244.362 164.999L244.02 165V164.655C244.013 127.983 244.007 87.9676 244 46.3636V46H244.362H244.382C343.632 46.039 433.86 46.0738 500.245 46.0989L500.51 46.1003L500.508 46.3636C500.448 82.9177 500.401 112.513 500.366 132.985C500.338 143.185 500.316 151.108 500.301 156.497C500.288 159.169 500.278 161.209 500.272 162.596C500.263 163.968 500.245 164.656 500.245 164.656" fill="#17282F"/>
<path d="M262.365 128.074V131.809H261.979V128.415H261.1V128.074H262.365" fill="#17282F"/>
<path d="M265.848 129.941C265.848 128.942 265.4 128.393 264.748 128.393C264.098 128.393 263.649 128.942 263.649 129.941C263.649 130.939 264.098 131.487 264.748 131.487C265.4 131.487 265.848 130.939 265.848 129.941ZM263.259 129.941C263.259 128.751 263.885 128.041 264.748 128.041C265.612 128.041 266.242 128.751 266.242 129.941C266.242 131.131 265.612 131.84 264.748 131.84C263.885 131.84 263.259 131.131 263.259 129.941Z" fill="#17282F"/>
<path d="M263.881 108.246V108.587H261.26V108.315L262.812 106.794C263.234 106.379 263.314 106.128 263.314 105.872C263.314 105.439 263.01 105.173 262.44 105.173C262.002 105.173 261.666 105.306 261.421 105.589L261.149 105.354C261.436 105.012 261.901 104.82 262.471 104.82C263.229 104.82 263.709 105.205 263.709 105.829C263.709 106.187 263.598 106.506 263.095 106.997L261.826 108.246H263.881" fill="#17282F"/>
<path d="M266.932 106.72C266.932 105.723 266.484 105.173 265.832 105.173C265.182 105.173 264.733 105.723 264.733 106.72C264.733 107.718 265.182 108.267 265.832 108.267C266.484 108.267 266.932 107.718 266.932 106.72ZM264.345 106.72C264.345 105.531 264.969 104.82 265.832 104.82C266.696 104.82 267.326 105.531 267.326 106.72C267.326 107.91 266.696 108.619 265.832 108.619C264.969 108.619 264.345 107.91 264.345 106.72Z" fill="#17282F"/>
<path d="M263.8 84.2928C263.8 84.9169 263.346 85.3975 262.444 85.3975C261.907 85.3975 261.388 85.2108 261.1 84.9169L261.287 84.6131C261.526 84.8639 261.959 85.045 262.444 85.045C263.064 85.045 263.406 84.7581 263.406 84.2928C263.406 83.8456 263.089 83.5516 262.396 83.5516H262.129V83.2688L263.165 81.9719H261.255V81.6306H263.656V81.9022L262.599 83.2312C263.4 83.2744 263.8 83.6951 263.8 84.2928" fill="#17282F"/>
<path d="M266.932 83.4987C266.932 82.5013 266.484 81.951 265.832 81.951C265.182 81.951 264.733 82.5013 264.733 83.4987C264.733 84.4961 265.182 85.045 265.832 85.045C266.484 85.045 266.932 84.4961 266.932 83.4987ZM264.345 83.4987C264.345 82.309 264.969 81.5986 265.832 81.5986C266.696 81.5986 267.326 82.309 267.326 83.4987C267.326 84.6884 266.696 85.3975 265.832 85.3975C264.969 85.3975 264.345 84.6884 264.345 83.4987Z" fill="#17282F"/>
<path d="M281.439 142.193C281.439 141.194 280.992 140.645 280.34 140.645C279.689 140.645 279.241 141.194 279.241 142.193C279.241 143.189 279.689 143.739 280.34 143.739C280.992 143.739 281.439 143.189 281.439 142.193ZM278.852 142.193C278.852 141.003 279.476 140.293 280.34 140.293C281.204 140.293 281.833 141.003 281.833 142.193C281.833 143.383 281.204 144.092 280.34 144.092C279.476 144.092 278.852 143.383 278.852 142.193Z" fill="#17282F"/>
<path d="M306.496 140.326V144.061H306.11V140.667H305.23V140.326H306.496Z" fill="#17282F"/>
<path d="M335.633 143.719V144.061H333.013V143.789L334.565 142.268C334.987 141.853 335.066 141.6 335.066 141.345C335.066 140.912 334.763 140.646 334.191 140.646C333.754 140.646 333.418 140.78 333.173 141.063L332.901 140.827C333.188 140.486 333.654 140.294 334.223 140.294C334.981 140.294 335.46 140.678 335.46 141.302C335.46 141.659 335.349 141.979 334.848 142.471L333.578 143.719H335.633" fill="#17282F"/>
<path d="M363.174 142.987C363.174 143.611 362.72 144.092 361.819 144.092C361.279 144.092 360.763 143.905 360.474 143.611L360.661 143.308C360.901 143.558 361.334 143.739 361.819 143.739C362.439 143.739 362.78 143.451 362.78 142.987C362.78 142.54 362.464 142.246 361.77 142.246H361.504V141.963L362.539 140.666H360.629V140.325H363.031V140.597L361.973 141.926C362.774 141.969 363.174 142.389 363.174 142.987" fill="#17282F"/>
<path d="M391.5 143.078H390.753V144.061H390.37V143.078H388.262V142.801L390.242 140.326H390.668L388.758 142.737H390.38V141.873H390.753V142.737H391.5V143.078" fill="#17282F"/>
<path d="M418.482 142.961C418.482 143.596 418.039 144.092 417.128 144.092C416.589 144.092 416.076 143.905 415.788 143.611L415.975 143.308C416.214 143.558 416.642 143.739 417.123 143.739C417.756 143.739 418.094 143.43 418.094 142.977C418.094 142.497 417.794 142.199 416.844 142.199H416.049L416.242 140.325H418.286V140.666H416.578L416.45 141.856H416.93C418.056 141.856 418.482 142.299 418.482 142.961Z" fill="#17282F"/>
<path d="M445.996 142.955C445.996 142.465 445.634 142.15 445.058 142.15C444.488 142.15 444.098 142.502 444.098 142.966C444.098 143.377 444.439 143.767 445.085 143.767C445.625 143.767 445.996 143.451 445.996 142.955ZM446.377 142.945C446.377 143.643 445.827 144.092 445.102 144.092C444.109 144.092 443.57 143.404 443.57 142.225C443.57 140.955 444.263 140.293 445.278 140.293C445.613 140.293 445.927 140.351 446.162 140.495L446.008 140.806C445.815 140.677 445.56 140.629 445.282 140.629C444.477 140.629 443.958 141.147 443.958 142.161L443.975 142.465C444.162 142.054 444.599 141.824 445.116 141.824C445.859 141.824 446.377 142.261 446.377 142.945" fill="#17282F"/>
<path d="M474.026 130.122C474.026 130.322 430.798 130.485 377.485 130.485C324.155 130.485 280.936 130.322 280.936 130.122C280.936 129.923 324.155 129.76 377.485 129.76C430.798 129.76 474.026 129.923 474.026 130.122Z" fill="#17282F"/>
<path d="M474.026 106.779C474.026 106.98 430.798 107.142 377.485 107.142C324.155 107.142 280.936 106.98 280.936 106.779C280.936 106.579 324.155 106.417 377.485 106.417C430.798 106.417 474.026 106.579 474.026 106.779Z" fill="#17282F"/>
<path d="M474.026 83.4372C474.026 83.6378 430.798 83.8008 377.485 83.8008C324.155 83.8008 280.936 83.6378 280.936 83.4372C280.936 83.2366 324.155 83.075 377.485 83.075C430.798 83.075 474.026 83.2366 474.026 83.4372Z" fill="#17282F"/>
<path d="M280.936 129.78C280.936 130.465 280.38 131.02 279.696 131.02C279.011 131.02 278.456 130.465 278.456 129.78C278.456 129.094 279.011 128.54 279.696 128.54C280.38 128.54 280.936 129.094 280.936 129.78Z" fill="#3478F6"/>
<path d="M308.698 129.78C308.698 130.465 308.142 131.02 307.457 131.02C306.773 131.02 306.217 130.465 306.217 129.78C306.217 129.094 306.773 128.54 307.457 128.54C308.142 128.54 308.698 129.094 308.698 129.78Z" fill="#3478F6"/>
<path d="M336.458 129.78C336.458 130.465 335.904 131.02 335.22 131.02C334.533 131.02 333.978 130.465 333.978 129.78C333.978 129.094 334.533 128.54 335.22 128.54C335.904 128.54 336.458 129.094 336.458 129.78Z" fill="#3478F6"/>
<path d="M364.221 129.78C364.221 130.465 363.666 131.02 362.979 131.02C362.295 131.02 361.741 130.465 361.741 129.78C361.741 129.094 362.295 128.54 362.979 128.54C363.666 128.54 364.221 129.094 364.221 129.78Z" fill="#3478F6"/>
<path d="M391.983 129.78C391.983 130.465 391.427 131.02 390.742 131.02C390.058 131.02 389.502 130.465 389.502 129.78C389.502 129.094 390.058 128.54 390.742 128.54C391.427 128.54 391.983 129.094 391.983 129.78Z" fill="#3478F6"/>
<path d="M447.505 129.78C447.505 130.465 446.95 131.02 446.265 131.02C445.58 131.02 445.025 130.465 445.025 129.78C445.025 129.094 445.58 128.54 446.265 128.54C446.95 128.54 447.505 129.094 447.505 129.78Z" fill="#3478F6"/>
<path d="M419.743 129.78C419.743 130.465 419.188 131.02 418.504 131.02C417.819 131.02 417.263 130.465 417.263 129.78C417.263 129.094 417.819 128.54 418.504 128.54C419.188 128.54 419.743 129.094 419.743 129.78Z" fill="#3478F6"/>
<path d="M293.586 130.123C293.586 130.572 293.221 130.937 292.773 130.937C292.323 130.937 291.958 130.572 291.958 130.123C291.958 129.672 292.323 129.308 292.773 129.308C293.221 129.308 293.586 129.672 293.586 130.123Z" fill="#DADBD8"/>
<path d="M321.453 130.123C321.453 130.572 321.088 130.937 320.638 130.937C320.19 130.937 319.825 130.572 319.825 130.123C319.825 129.672 320.19 129.308 320.638 129.308C321.088 129.308 321.453 129.672 321.453 130.123Z" fill="#DADBD8"/>
<path d="M349.319 130.123C349.319 130.572 348.954 130.937 348.505 130.937C348.055 130.937 347.69 130.572 347.69 130.123C347.69 129.672 348.055 129.308 348.505 129.308C348.954 129.308 349.319 129.672 349.319 130.123Z" fill="#DADBD8"/>
<path d="M377.186 130.123C377.186 130.572 376.821 130.937 376.371 130.937C375.921 130.937 375.557 130.572 375.557 130.123C375.557 129.672 375.921 129.308 376.371 129.308C376.821 129.308 377.186 129.672 377.186 130.123Z" fill="#DADBD8"/>
<path d="M405.052 130.123C405.052 130.572 404.687 130.937 404.238 130.937C403.787 130.937 403.423 130.572 403.423 130.123C403.423 129.672 403.787 129.308 404.238 129.308C404.687 129.308 405.052 129.672 405.052 130.123Z" fill="#DADBD8"/>
<path d="M432.917 130.123C432.917 130.572 432.553 130.937 432.103 130.937C431.653 130.937 431.29 130.572 431.29 130.123C431.29 129.672 431.653 129.308 432.103 129.308C432.553 129.308 432.917 129.672 432.917 130.123Z" fill="#DADBD8"/>
<path d="M460.782 130.123C460.782 130.572 460.419 130.937 459.969 130.937C459.519 130.937 459.154 130.572 459.154 130.123C459.154 129.672 459.519 129.308 459.969 129.308C460.419 129.308 460.782 129.672 460.782 130.123Z" fill="#DADBD8"/>
<path d="M310.5 119.802C310.5 121.482 309.137 122.845 307.457 122.845C305.778 122.845 304.416 121.482 304.416 119.802C304.416 118.122 305.778 116.761 307.457 116.761C309.137 116.761 310.5 118.122 310.5 119.802Z" fill="#3478F6"/>
<path d="M334.72 105.51C334.72 107.19 333.359 108.551 331.679 108.551C330 108.551 328.637 107.19 328.637 105.51C328.637 103.831 330 102.469 331.679 102.469C333.359 102.469 334.72 103.831 334.72 105.51Z" fill="#3478F6"/>
<path d="M364.781 106.779C364.781 108.458 363.421 109.82 361.741 109.82C360.061 109.82 358.699 108.458 358.699 106.779C358.699 105.099 360.061 103.738 361.741 103.738C363.421 103.738 364.781 105.099 364.781 106.779Z" fill="#3478F6"/>
<path d="M394.131 80.7968C394.131 82.4755 392.77 83.8379 391.09 83.8379C389.41 83.8379 388.048 82.4755 388.048 80.7968C388.048 79.1168 389.41 77.7557 391.09 77.7557C392.77 77.7557 394.131 79.1168 394.131 80.7968Z" fill="#3478F6"/>
<path d="M421.544 97.3212C421.544 98.9999 420.183 100.362 418.505 100.362C416.824 100.362 415.462 98.9999 415.462 97.3212C415.462 95.6412 416.824 94.2802 418.505 94.2802C420.183 94.2802 421.544 95.6412 421.544 97.3212Z" fill="#3478F6"/>
<path d="M449.306 101.723C449.306 103.401 447.945 104.764 446.265 104.764C444.585 104.764 443.224 103.401 443.224 101.723C443.224 100.043 444.585 98.6815 446.265 98.6815C447.945 98.6815 449.306 100.043 449.306 101.723Z" fill="#3478F6"/>
<path d="M475.268 119.802C475.268 119.802 475.024 119.83 474.553 119.8C474.084 119.768 473.381 119.71 472.479 119.523C470.701 119.157 467.961 118.391 465.259 116.093C463.914 114.957 462.686 113.38 461.71 111.478C460.73 109.61 459.55 107.629 457.995 105.726C456.429 103.88 454.408 101.991 451.721 101.348C450.395 101.027 448.954 101.083 447.568 101.497C446.182 101.927 444.884 102.691 443.715 103.677C441.351 105.654 439.609 108.462 437.314 111.012C436.164 112.278 434.828 113.512 433.146 114.255C431.468 114.979 429.522 115.203 427.664 114.705C425.764 114.196 424.319 112.605 423.493 110.874C422.632 109.127 422.154 107.228 421.693 105.331C421.225 103.439 420.845 101.479 420.037 99.7054C419.634 98.8305 419.073 98.01 418.262 97.5754C417.432 97.1254 416.443 97.0251 415.455 97.0307C413.455 97.1338 411.44 97.7119 409.351 98.1075C408.304 98.2942 407.237 98.4809 406.133 98.4753C405.04 98.4781 403.89 98.3485 402.858 97.8373C401.783 97.4068 400.964 96.5459 400.259 95.6627C399.631 94.7307 399.089 93.7417 398.67 92.708C397.79 90.6532 397.203 88.4995 396.406 86.4281C395.991 85.4069 395.554 84.383 394.936 83.4887C394.317 82.6027 393.513 81.8602 392.527 81.4827C392.274 81.4088 392.026 81.3155 391.769 81.2542L390.968 81.179C390.438 81.1483 389.949 81.25 389.484 81.4827C388.555 81.9549 387.85 82.8618 387.261 83.8035C386.11 85.7441 385.348 87.9548 384.682 90.1865C384.019 92.4252 383.463 94.7168 382.925 97.0293C382.038 100.857 381.247 104.676 380.262 108.413C379.765 110.28 379.231 112.132 378.553 113.93C377.857 115.712 377.066 117.509 375.669 118.939C374.958 119.625 373.989 120.161 372.929 120.154C371.915 120.154 370.951 119.793 370.122 119.303C368.454 118.299 367.226 116.821 366.179 115.312C364.076 112.271 362.725 108.884 361.416 105.645C360.086 102.439 358.584 99.2652 356.099 97.0906C353.667 94.9299 350.167 94.1262 347.175 94.9132C345.664 95.2922 344.237 95.9678 342.928 96.7827C341.603 97.5726 340.377 98.4962 339.221 99.463C336.908 101.399 334.841 103.518 333.03 105.69L333.019 105.704L333.013 105.71C330.05 108.668 326.948 111.176 323.844 113.328C320.735 115.469 317.593 117.227 314.451 118.417C311.316 119.578 308.164 120.263 305.258 119.948C302.371 119.667 299.832 118.88 297.6 118.095C293.138 116.477 289.863 114.731 287.654 113.547C286.553 112.944 285.724 112.46 285.174 112.125C284.621 111.789 284.353 111.591 284.353 111.591C284.353 111.591 284.652 111.74 285.217 112.049C285.812 112.368 286.651 112.817 287.734 113.396C289.963 114.53 293.257 116.224 297.707 117.787C299.934 118.544 302.462 119.3 305.29 119.552C308.112 119.838 311.208 119.147 314.286 117.984C317.375 116.793 320.474 115.036 323.546 112.898C326.608 110.752 329.691 108.235 332.597 105.31L332.58 105.329C334.417 103.109 336.485 100.974 338.828 98.9949C340.001 98.01 341.245 97.0655 342.603 96.2478C343.945 95.4092 345.419 94.7001 347.019 94.2919C350.234 93.4449 353.916 94.2919 356.535 96.5877C359.171 98.8918 360.702 102.159 362.049 105.382C363.371 108.636 364.704 111.953 366.758 114.912C367.772 116.376 368.966 117.785 370.481 118.692C371.233 119.135 372.075 119.445 372.937 119.441C373.772 119.441 374.541 119.027 375.172 118.424C376.414 117.156 377.208 115.415 377.88 113.674C378.543 111.914 379.071 110.081 379.563 108.228C380.539 104.518 381.329 100.703 382.219 96.8663C382.757 94.5482 383.317 92.2441 383.987 89.979C384.664 87.7208 385.43 85.478 386.645 83.4274C387.276 82.4299 388.027 81.4242 389.161 80.8391C389.722 80.5521 390.388 80.4226 390.998 80.4616L391.904 80.5479C392.2 80.6176 392.492 80.7234 392.783 80.8126C393.935 81.2528 394.856 82.1207 395.526 83.0833C396.194 84.057 396.642 85.1214 397.068 86.1717C397.879 88.2878 398.462 90.4387 399.315 92.4336C400.158 94.402 401.243 96.3969 403.149 97.209C405.006 98.1062 407.202 97.7899 409.225 97.4389C411.277 97.0572 413.305 96.4707 415.433 96.362C416.493 96.3578 417.6 96.4623 418.58 96.9959C419.576 97.5392 420.204 98.499 420.629 99.4268C421.483 101.324 421.848 103.293 422.313 105.183C422.764 107.072 423.234 108.936 424.047 110.598C424.839 112.251 426.129 113.661 427.832 114.128C429.515 114.588 431.36 114.391 432.91 113.722C434.482 113.038 435.769 111.871 436.9 110.634C439.165 108.15 440.929 105.322 443.385 103.284C444.598 102.269 445.973 101.47 447.427 101.029C448.889 100.601 450.427 100.55 451.828 100.899C454.671 101.604 456.726 103.579 458.309 105.468C459.874 107.416 461.049 109.428 462.018 111.321C462.964 113.207 464.14 114.746 465.444 115.88C468.063 118.165 470.756 118.972 472.508 119.381C473.4 119.589 474.095 119.671 474.56 119.727C475.027 119.781 475.268 119.788 475.268 119.802" fill="#3478F6"/>
<path d="M310.791 67.4411C310.791 67.6431 300.014 67.8047 286.721 67.8047C273.426 67.8047 262.651 67.6431 262.651 67.4411C262.651 67.2419 273.426 67.0789 286.721 67.0789C300.014 67.0789 310.791 67.2419 310.791 67.4411Z" fill="#17282F"/>
</g>
<defs>
<clipPath id="clip0_688_2626">
<rect width="460" height="464" rx="32" fill="white"/>
</clipPath>
</defs>
</svg>
