<svg width="263" height="418" viewBox="0 0 263 418" fill="none" xmlns="http://www.w3.org/2000/svg">
<rect x="33" y="72" width="197" height="56" rx="8" fill="#3478F6"/>
<path fill-rule="evenodd" clip-rule="evenodd" d="M69.5 100C69.5 95.3056 73.3056 91.5 78 91.5C82.6944 91.5 86.5 95.3056 86.5 100C86.5 104.694 82.6944 108.5 78 108.5C73.3056 108.5 69.5 104.694 69.5 100ZM78.75 95C78.75 94.5858 78.4142 94.25 78 94.25C77.5858 94.25 77.25 94.5858 77.25 95V100C77.25 100.259 77.3832 100.499 77.6025 100.636L80.6025 102.511C80.9538 102.731 81.4165 102.624 81.636 102.272C81.8555 101.921 81.7488 101.459 81.3975 101.239L78.75 99.5843V95Z" fill="white"/>
<path d="M105.305 95.154C104.633 95.154 103.993 94.9907 103.387 94.664L104.045 93.376C104.409 93.5813 104.81 93.684 105.249 93.684C105.837 93.684 106.35 93.3293 106.789 92.62L102.701 85.2H104.633L107.685 90.898L110.373 85.2H112.235L108.413 92.858C107.657 94.3887 106.621 95.154 105.305 95.154ZM113.668 95V87.608H120.262V95H118.568V89.064H115.362V95H113.668ZM122.391 97.24V87.608H124.085V88.84C124.738 87.916 125.574 87.454 126.591 87.454C127.524 87.454 128.332 87.804 129.013 88.504C129.694 89.1947 130.035 90.1327 130.035 91.318C130.035 92.4847 129.694 93.418 129.013 94.118C128.332 94.8087 127.524 95.154 126.591 95.154C125.574 95.154 124.738 94.72 124.085 93.852V97.24H122.391ZM126.199 93.684C126.796 93.684 127.296 93.4647 127.697 93.026C128.108 92.5873 128.313 92.0087 128.313 91.29C128.313 90.59 128.108 90.0207 127.697 89.582C127.286 89.1433 126.787 88.924 126.199 88.924C125.611 88.924 125.102 89.148 124.673 89.596C124.253 90.044 124.043 90.618 124.043 91.318C124.043 92.0087 124.253 92.578 124.673 93.026C125.102 93.4647 125.611 93.684 126.199 93.684ZM137.972 95H136.292V94.09C135.695 94.7993 134.897 95.154 133.898 95.154C133.161 95.154 132.535 94.9533 132.022 94.552C131.518 94.1413 131.266 93.572 131.266 92.844C131.266 92.0507 131.541 91.4487 132.092 91.038C132.643 90.6273 133.366 90.422 134.262 90.422C134.981 90.422 135.662 90.5247 136.306 90.73V90.59C136.306 90.0767 136.147 89.6847 135.83 89.414C135.522 89.1433 135.074 89.008 134.486 89.008C133.814 89.008 133.109 89.162 132.372 89.47L131.91 88.112C132.825 87.7013 133.763 87.496 134.724 87.496C135.797 87.496 136.605 87.7667 137.146 88.308C137.697 88.8493 137.972 89.6193 137.972 90.618V95ZM136.334 92.326V91.906C135.83 91.71 135.265 91.612 134.64 91.612C134.108 91.612 133.693 91.7147 133.394 91.92C133.095 92.1253 132.946 92.4147 132.946 92.788C132.946 93.124 133.081 93.39 133.352 93.586C133.623 93.782 133.963 93.88 134.374 93.88C134.943 93.88 135.41 93.7353 135.774 93.446C136.147 93.1567 136.334 92.7833 136.334 92.326ZM139.987 95V87.608H143.781C144.518 87.608 145.106 87.776 145.545 88.112C145.993 88.4387 146.217 88.8867 146.217 89.456C146.217 90.2307 145.82 90.7953 145.027 91.15C146.044 91.4393 146.553 92.0553 146.553 92.998C146.553 93.6233 146.306 94.1133 145.811 94.468C145.326 94.8227 144.663 95 143.823 95H139.987ZM141.653 93.656H143.571C143.972 93.656 144.28 93.572 144.495 93.404C144.719 93.2267 144.831 92.9933 144.831 92.704C144.831 92.424 144.714 92.2047 144.481 92.046C144.257 91.8873 143.926 91.808 143.487 91.808H141.653V93.656ZM141.653 90.66H143.389C143.734 90.66 144.005 90.576 144.201 90.408C144.397 90.24 144.495 90.0207 144.495 89.75C144.495 89.498 144.406 89.2973 144.229 89.148C144.052 88.9893 143.781 88.91 143.417 88.91H141.653V90.66ZM148.189 95.084C147.918 95.084 147.587 95.0513 147.195 94.986L147.321 93.6C147.47 93.6373 147.633 93.656 147.811 93.656C148.007 93.656 148.165 93.628 148.287 93.572C148.417 93.516 148.548 93.376 148.679 93.152C148.819 92.9187 148.926 92.592 149.001 92.172C149.075 91.752 149.136 91.164 149.183 90.408C149.229 89.6427 149.253 88.7093 149.253 87.608H154.839V95H153.145V89.064H150.835C150.835 90.1187 150.793 91.0147 150.709 91.752C150.625 92.4893 150.513 93.0727 150.373 93.502C150.242 93.9313 150.055 94.2673 149.813 94.51C149.579 94.7433 149.341 94.8973 149.099 94.972C148.856 95.0467 148.553 95.084 148.189 95.084ZM160.355 95.168C159.273 95.168 158.367 94.8087 157.639 94.09C156.921 93.3713 156.561 92.4427 156.561 91.304C156.561 90.2307 156.902 89.3207 157.583 88.574C158.265 87.8273 159.128 87.454 160.173 87.454C161.293 87.454 162.161 87.8367 162.777 88.602C163.403 89.358 163.715 90.3007 163.715 91.43C163.715 91.6353 163.706 91.794 163.687 91.906H158.255C158.349 92.494 158.587 92.956 158.969 93.292C159.352 93.6187 159.823 93.782 160.383 93.782C161.111 93.782 161.779 93.488 162.385 92.9L163.379 93.782C162.614 94.706 161.606 95.168 160.355 95.168ZM158.241 90.786H162.035C161.979 90.2167 161.788 89.75 161.461 89.386C161.135 89.022 160.701 88.84 160.159 88.84C159.646 88.84 159.217 89.022 158.871 89.386C158.526 89.7407 158.316 90.2073 158.241 90.786ZM165.417 95V87.608H167.111V90.604H170.373V87.608H172.067V95H170.373V92.018H167.111V95H165.417ZM174.194 95V87.608H175.846V92.564C177.395 90.3613 178.562 88.7093 179.346 87.608H180.942V95H179.304V90.072L175.79 95H174.194ZM186.455 95.168C185.372 95.168 184.467 94.8087 183.739 94.09C183.02 93.3713 182.661 92.4427 182.661 91.304C182.661 90.2307 183.002 89.3207 183.683 88.574C184.364 87.8273 185.228 87.454 186.273 87.454C187.393 87.454 188.261 87.8367 188.877 88.602C189.502 89.358 189.815 90.3007 189.815 91.43C189.815 91.6353 189.806 91.794 189.787 91.906H184.355C184.448 92.494 184.686 92.956 185.069 93.292C185.452 93.6187 185.923 93.782 186.483 93.782C187.211 93.782 187.878 93.488 188.485 92.9L189.479 93.782C188.714 94.706 187.706 95.168 186.455 95.168ZM184.341 90.786H188.135C188.079 90.2167 187.888 89.75 187.561 89.386C187.234 89.022 186.8 88.84 186.259 88.84C185.746 88.84 185.316 89.022 184.971 89.386C184.626 89.7407 184.416 90.2073 184.341 90.786ZM101.466 113V105.608H103.146L105.456 109.038L107.78 105.608H109.46V113H107.752V108.072L105.428 111.39L103.118 108.1V113H101.466ZM117.786 113H116.106V112.09C115.508 112.799 114.71 113.154 113.712 113.154C112.974 113.154 112.349 112.953 111.836 112.552C111.332 112.141 111.08 111.572 111.08 110.844C111.08 110.051 111.355 109.449 111.906 109.038C112.456 108.627 113.18 108.422 114.076 108.422C114.794 108.422 115.476 108.525 116.12 108.73V108.59C116.12 108.077 115.961 107.685 115.644 107.414C115.336 107.143 114.888 107.008 114.3 107.008C113.628 107.008 112.923 107.162 112.186 107.47L111.724 106.112C112.638 105.701 113.576 105.496 114.538 105.496C115.611 105.496 116.418 105.767 116.96 106.308C117.51 106.849 117.786 107.619 117.786 108.618V113ZM116.148 110.326V109.906C115.644 109.71 115.079 109.612 114.454 109.612C113.922 109.612 113.506 109.715 113.208 109.92C112.909 110.125 112.76 110.415 112.76 110.788C112.76 111.124 112.895 111.39 113.166 111.586C113.436 111.782 113.777 111.88 114.188 111.88C114.757 111.88 115.224 111.735 115.588 111.446C115.961 111.157 116.148 110.783 116.148 110.326ZM121.382 113V107.064H119.002V105.608H125.47V107.064H123.09V113H121.382ZM130.202 113.168C129.119 113.168 128.214 112.809 127.486 112.09C126.767 111.371 126.408 110.443 126.408 109.304C126.408 108.231 126.749 107.321 127.43 106.574C128.111 105.827 128.975 105.454 130.02 105.454C131.14 105.454 132.008 105.837 132.624 106.602C133.249 107.358 133.562 108.301 133.562 109.43C133.562 109.635 133.553 109.794 133.534 109.906H128.102C128.195 110.494 128.433 110.956 128.816 111.292C129.199 111.619 129.67 111.782 130.23 111.782C130.958 111.782 131.625 111.488 132.232 110.9L133.226 111.782C132.461 112.706 131.453 113.168 130.202 113.168ZM128.088 108.786H131.882C131.826 108.217 131.635 107.75 131.308 107.386C130.981 107.022 130.547 106.84 130.006 106.84C129.493 106.84 129.063 107.022 128.718 107.386C128.373 107.741 128.163 108.207 128.088 108.786ZM135.263 115.24V105.608H136.957V106.84C137.611 105.916 138.446 105.454 139.463 105.454C140.397 105.454 141.204 105.804 141.885 106.504C142.567 107.195 142.907 108.133 142.907 109.318C142.907 110.485 142.567 111.418 141.885 112.118C141.204 112.809 140.397 113.154 139.463 113.154C138.446 113.154 137.611 112.72 136.957 111.852V115.24H135.263ZM139.071 111.684C139.669 111.684 140.168 111.465 140.569 111.026C140.98 110.587 141.185 110.009 141.185 109.29C141.185 108.59 140.98 108.021 140.569 107.582C140.159 107.143 139.659 106.924 139.071 106.924C138.483 106.924 137.975 107.148 137.545 107.596C137.125 108.044 136.915 108.618 136.915 109.318C136.915 110.009 137.125 110.578 137.545 111.026C137.975 111.465 138.483 111.684 139.071 111.684ZM144.642 113V105.608H146.294V110.564C147.843 108.361 149.01 106.709 149.794 105.608H151.39V113H149.752V108.072L146.238 113H144.642ZM159.717 113H158.037V112.09C157.44 112.799 156.642 113.154 155.643 113.154C154.906 113.154 154.281 112.953 153.767 112.552C153.263 112.141 153.011 111.572 153.011 110.844C153.011 110.051 153.287 109.449 153.837 109.038C154.388 108.627 155.111 108.422 156.007 108.422C156.726 108.422 157.407 108.525 158.051 108.73V108.59C158.051 108.077 157.893 107.685 157.575 107.414C157.267 107.143 156.819 107.008 156.231 107.008C155.559 107.008 154.855 107.162 154.117 107.47L153.655 106.112C154.57 105.701 155.508 105.496 156.469 105.496C157.543 105.496 158.35 105.767 158.891 106.308C159.442 106.849 159.717 107.619 159.717 108.618V113ZM158.079 110.326V109.906C157.575 109.71 157.011 109.612 156.385 109.612C155.853 109.612 155.438 109.715 155.139 109.92C154.841 110.125 154.691 110.415 154.691 110.788C154.691 111.124 154.827 111.39 155.097 111.586C155.368 111.782 155.709 111.88 156.119 111.88C156.689 111.88 157.155 111.735 157.519 111.446C157.893 111.157 158.079 110.783 158.079 110.326ZM161.676 113.084C161.405 113.084 161.074 113.051 160.682 112.986L160.808 111.6C160.957 111.637 161.121 111.656 161.298 111.656C161.494 111.656 161.653 111.628 161.774 111.572C161.905 111.516 162.035 111.376 162.166 111.152C162.306 110.919 162.413 110.592 162.488 110.172C162.563 109.752 162.623 109.164 162.67 108.408C162.717 107.643 162.74 106.709 162.74 105.608H168.326V113H166.632V107.064H164.322C164.322 108.119 164.28 109.015 164.196 109.752C164.112 110.489 164 111.073 163.86 111.502C163.729 111.931 163.543 112.267 163.3 112.51C163.067 112.743 162.829 112.897 162.586 112.972C162.343 113.047 162.04 113.084 161.676 113.084ZM176.657 113H174.977V112.09C174.379 112.799 173.581 113.154 172.583 113.154C171.845 113.154 171.22 112.953 170.707 112.552C170.203 112.141 169.951 111.572 169.951 110.844C169.951 110.051 170.226 109.449 170.777 109.038C171.327 108.627 172.051 108.422 172.947 108.422C173.665 108.422 174.347 108.525 174.991 108.73V108.59C174.991 108.077 174.832 107.685 174.515 107.414C174.207 107.143 173.759 107.008 173.171 107.008C172.499 107.008 171.794 107.162 171.057 107.47L170.595 106.112C171.509 105.701 172.447 105.496 173.409 105.496C174.482 105.496 175.289 105.767 175.831 106.308C176.381 106.849 176.657 107.619 176.657 108.618V113ZM175.019 110.326V109.906C174.515 109.71 173.95 109.612 173.325 109.612C172.793 109.612 172.377 109.715 172.079 109.92C171.78 110.125 171.631 110.415 171.631 110.788C171.631 111.124 171.766 111.39 172.037 111.586C172.307 111.782 172.648 111.88 173.059 111.88C173.628 111.88 174.095 111.735 174.459 111.446C174.832 111.157 175.019 110.783 175.019 110.326ZM178.671 113V105.608H180.351L182.661 109.038L184.985 105.608H186.665V113H184.957V108.072L182.633 111.39L180.323 108.1V113H178.671ZM188.789 113V105.608H190.441V110.564C191.99 108.361 193.157 106.709 193.941 105.608H195.537V113H193.899V108.072L190.385 113H188.789Z" fill="white"/>
<rect x="33" y="234" width="197" height="40" rx="8" fill="#3478F6"/>
<path fill-rule="evenodd" clip-rule="evenodd" d="M81.417 254C81.417 250.088 84.5883 246.917 88.5003 246.917C92.4123 246.917 95.5837 250.088 95.5837 254C95.5837 257.912 92.4123 261.083 88.5003 261.083C84.5883 261.083 81.417 257.912 81.417 254ZM89.1253 249.833C89.1253 249.488 88.8455 249.208 88.5003 249.208C88.1551 249.208 87.8753 249.488 87.8753 249.833V254C87.8753 254.215 87.9863 254.416 88.1691 254.53L90.6691 256.092C90.9618 256.275 91.3474 256.186 91.5303 255.894C91.7133 255.601 91.6243 255.215 91.3316 255.032L89.1253 253.654V249.833Z" fill="white"/>
<path d="M109.916 258.112C109.515 258.112 109.118 258.061 108.726 257.958L108.894 256.544C109.062 256.6 109.249 256.628 109.454 256.628C109.678 256.628 109.87 256.595 110.028 256.53C110.196 256.455 110.369 256.287 110.546 256.026C110.733 255.765 110.878 255.41 110.98 254.962C111.092 254.505 111.186 253.87 111.26 253.058C111.335 252.246 111.372 251.271 111.372 250.132V248.2H118.092V258H116.37V249.754H112.982V250.636C112.982 252.157 112.917 253.422 112.786 254.43C112.656 255.429 112.45 256.194 112.17 256.726C111.89 257.249 111.573 257.613 111.218 257.818C110.873 258.014 110.439 258.112 109.916 258.112ZM123.939 258.168C122.819 258.168 121.886 257.795 121.139 257.048C120.393 256.301 120.019 255.391 120.019 254.318C120.019 253.245 120.397 252.335 121.153 251.588C121.909 250.832 122.847 250.454 123.967 250.454C125.087 250.454 126.021 250.827 126.767 251.574C127.523 252.321 127.901 253.235 127.901 254.318C127.901 255.382 127.523 256.292 126.767 257.048C126.011 257.795 125.069 258.168 123.939 258.168ZM123.967 256.698C124.639 256.698 125.181 256.469 125.591 256.012C126.002 255.555 126.207 254.99 126.207 254.318C126.207 253.655 125.993 253.095 125.563 252.638C125.134 252.171 124.593 251.938 123.939 251.938C123.277 251.938 122.74 252.167 122.329 252.624C121.919 253.081 121.713 253.646 121.713 254.318C121.713 254.971 121.928 255.531 122.357 255.998C122.787 256.465 123.323 256.698 123.967 256.698ZM129.627 258V250.608H134.863V252.064H131.321V258H129.627ZM136.203 258V250.608H137.855V255.564C139.404 253.361 140.571 251.709 141.355 250.608H142.951V258H141.313V253.072L137.799 258H136.203ZM148.492 258.168C147.4 258.168 146.49 257.799 145.762 257.062C145.034 256.315 144.67 255.41 144.67 254.346V254.318C144.67 253.254 145.034 252.344 145.762 251.588C146.499 250.832 147.414 250.454 148.506 250.454C149.7 250.454 150.685 250.879 151.46 251.728L150.41 252.862C149.822 252.246 149.182 251.938 148.492 251.938C147.885 251.938 147.376 252.167 146.966 252.624C146.564 253.081 146.364 253.637 146.364 254.29V254.318C146.364 254.99 146.569 255.555 146.98 256.012C147.4 256.469 147.932 256.698 148.576 256.698C149.257 256.698 149.896 256.39 150.494 255.774L151.516 256.782C151.114 257.23 150.676 257.575 150.2 257.818C149.733 258.051 149.164 258.168 148.492 258.168ZM154.587 258V252.064H152.207V250.608H158.675V252.064H156.295V258H154.587ZM160.019 258V250.608H161.671V255.564C163.22 253.361 164.387 251.709 165.171 250.608H166.767V258H165.129V253.072L161.615 258H160.019ZM168.892 258V250.608H170.572V254.15L173.792 250.608H175.78L172.91 253.716L176.018 258H174.016L171.776 254.948L170.572 256.222V258H168.892ZM183.393 258H181.713V257.09C181.116 257.799 180.318 258.154 179.319 258.154C178.582 258.154 177.956 257.953 177.443 257.552C176.939 257.141 176.687 256.572 176.687 255.844C176.687 255.051 176.962 254.449 177.513 254.038C178.064 253.627 178.787 253.422 179.683 253.422C180.402 253.422 181.083 253.525 181.727 253.73V253.59C181.727 253.077 181.568 252.685 181.251 252.414C180.943 252.143 180.495 252.008 179.907 252.008C179.235 252.008 178.53 252.162 177.793 252.47L177.331 251.112C178.246 250.701 179.184 250.496 180.145 250.496C181.218 250.496 182.026 250.767 182.567 251.308C183.118 251.849 183.393 252.619 183.393 253.618V258ZM181.755 255.326V254.906C181.251 254.71 180.686 254.612 180.061 254.612C179.529 254.612 179.114 254.715 178.815 254.92C178.516 255.125 178.367 255.415 178.367 255.788C178.367 256.124 178.502 256.39 178.773 256.586C179.044 256.782 179.384 256.88 179.795 256.88C180.364 256.88 180.831 256.735 181.195 256.446C181.568 256.157 181.755 255.783 181.755 255.326Z" fill="white"/>
<path d="M130.5 302C130.5 302.552 130.948 303 131.5 303C132.052 303 132.5 302.552 132.5 302H130.5ZM132.207 277.293C131.817 276.902 131.183 276.902 130.793 277.293L124.429 283.657C124.038 284.047 124.038 284.681 124.429 285.071C124.819 285.462 125.453 285.462 125.843 285.071L131.5 279.414L137.157 285.071C137.547 285.462 138.181 285.462 138.571 285.071C138.962 284.681 138.962 284.047 138.571 283.657L132.207 277.293ZM132.5 302V278H130.5V302H132.5Z" fill="#3478F6"/>
<rect x="33" y="306" width="197" height="40" rx="8" fill="#3478F6"/>
<path fill-rule="evenodd" clip-rule="evenodd" d="M92.917 326C92.917 322.088 96.0883 318.917 100 318.917C103.912 318.917 107.084 322.088 107.084 326C107.084 329.912 103.912 333.083 100 333.083C96.0883 333.083 92.917 329.912 92.917 326ZM100.625 321.833C100.625 321.488 100.346 321.208 100 321.208C99.6551 321.208 99.3753 321.488 99.3753 321.833V326C99.3753 326.215 99.4863 326.416 99.6691 326.53L102.169 328.092C102.462 328.275 102.847 328.186 103.03 327.894C103.213 327.601 103.124 327.215 102.832 327.032L100.625 325.654V321.833Z" fill="white"/>
<path d="M125.013 320.032C126.021 320.032 126.847 320.279 127.491 320.774C128.135 321.269 128.457 321.899 128.457 322.664C128.457 323.719 127.902 324.479 126.791 324.946C127.379 325.123 127.846 325.408 128.191 325.8C128.536 326.192 128.709 326.691 128.709 327.298C128.709 328.129 128.378 328.815 127.715 329.356C127.052 329.897 126.184 330.168 125.111 330.168C124.187 330.168 123.389 330.037 122.717 329.776C122.054 329.505 121.438 329.099 120.869 328.558L121.807 327.368C122.722 328.236 123.809 328.67 125.069 328.67C125.61 328.67 126.063 328.539 126.427 328.278C126.8 328.007 126.987 327.648 126.987 327.2C126.987 326.715 126.782 326.355 126.371 326.122C125.96 325.889 125.419 325.772 124.747 325.772H123.641V324.344H124.733C125.368 324.344 125.862 324.223 126.217 323.98C126.572 323.728 126.749 323.373 126.749 322.916C126.749 322.505 126.576 322.174 126.231 321.922C125.895 321.67 125.452 321.544 124.901 321.544C123.828 321.544 122.913 321.908 122.157 322.636L121.233 321.516C122.269 320.527 123.529 320.032 125.013 320.032ZM136.738 330H135.058V329.09C134.46 329.799 133.662 330.154 132.664 330.154C131.926 330.154 131.301 329.953 130.788 329.552C130.284 329.141 130.032 328.572 130.032 327.844C130.032 327.051 130.307 326.449 130.858 326.038C131.408 325.627 132.132 325.422 133.028 325.422C133.746 325.422 134.428 325.525 135.072 325.73V325.59C135.072 325.077 134.913 324.685 134.596 324.414C134.288 324.143 133.84 324.008 133.252 324.008C132.58 324.008 131.875 324.162 131.138 324.47L130.676 323.112C131.59 322.701 132.528 322.496 133.49 322.496C134.563 322.496 135.37 322.767 135.912 323.308C136.462 323.849 136.738 324.619 136.738 325.618V330ZM135.1 327.326V326.906C134.596 326.71 134.031 326.612 133.406 326.612C132.874 326.612 132.458 326.715 132.16 326.92C131.861 327.125 131.712 327.415 131.712 327.788C131.712 328.124 131.847 328.39 132.118 328.586C132.388 328.782 132.729 328.88 133.14 328.88C133.709 328.88 134.176 328.735 134.54 328.446C134.913 328.157 135.1 327.783 135.1 327.326ZM138.752 330V322.608H140.432V326.15L143.652 322.608H145.64L142.77 325.716L145.878 330H143.876L141.636 326.948L140.432 328.222V330H138.752ZM153.253 330H151.573V329.09C150.976 329.799 150.178 330.154 149.179 330.154C148.442 330.154 147.817 329.953 147.303 329.552C146.799 329.141 146.547 328.572 146.547 327.844C146.547 327.051 146.823 326.449 147.373 326.038C147.924 325.627 148.647 325.422 149.543 325.422C150.262 325.422 150.943 325.525 151.587 325.73V325.59C151.587 325.077 151.429 324.685 151.111 324.414C150.803 324.143 150.355 324.008 149.767 324.008C149.095 324.008 148.391 324.162 147.653 324.47L147.191 323.112C148.106 322.701 149.044 322.496 150.005 322.496C151.079 322.496 151.886 322.767 152.427 323.308C152.978 323.849 153.253 324.619 153.253 325.618V330ZM151.615 327.326V326.906C151.111 326.71 150.547 326.612 149.921 326.612C149.389 326.612 148.974 326.715 148.675 326.92C148.377 327.125 148.227 327.415 148.227 327.788C148.227 328.124 148.363 328.39 148.633 328.586C148.904 328.782 149.245 328.88 149.655 328.88C150.225 328.88 150.691 328.735 151.055 328.446C151.429 328.157 151.615 327.783 151.615 327.326ZM157.788 330.168C156.519 330.168 155.441 329.79 154.554 329.034L155.352 327.914C156.043 328.502 156.817 328.796 157.676 328.796C158.068 328.796 158.399 328.703 158.67 328.516C158.941 328.32 159.076 328.073 159.076 327.774C159.076 327.494 158.945 327.27 158.684 327.102C158.423 326.934 158.054 326.85 157.578 326.85H156.668V325.632H157.578C157.97 325.632 158.283 325.543 158.516 325.366C158.759 325.179 158.88 324.946 158.88 324.666C158.88 324.414 158.763 324.213 158.53 324.064C158.306 323.905 158.017 323.826 157.662 323.826C156.841 323.826 156.141 324.078 155.562 324.582L154.806 323.518C155.618 322.809 156.621 322.454 157.816 322.454C158.628 322.454 159.291 322.641 159.804 323.014C160.317 323.387 160.574 323.863 160.574 324.442C160.574 325.226 160.187 325.786 159.412 326.122C160.308 326.439 160.756 327.037 160.756 327.914C160.756 328.549 160.481 329.085 159.93 329.524C159.379 329.953 158.665 330.168 157.788 330.168ZM162.514 330V322.608H164.208V325.198H165.762C166.64 325.198 167.349 325.394 167.89 325.786C168.432 326.178 168.702 326.761 168.702 327.536C168.702 328.301 168.45 328.903 167.946 329.342C167.442 329.781 166.756 330 165.888 330H162.514ZM164.208 328.628H165.664C166.094 328.628 166.425 328.535 166.658 328.348C166.892 328.161 167.008 327.891 167.008 327.536C167.008 327.209 166.887 326.957 166.644 326.78C166.411 326.603 166.075 326.514 165.636 326.514H164.208V328.628ZM169.822 330V322.608H171.516V330H169.822Z" fill="white"/>
<rect x="33" y="378" width="197" height="40" rx="8" fill="#3478F6"/>
<path fill-rule="evenodd" clip-rule="evenodd" d="M87.417 398C87.417 394.088 90.5883 390.917 94.5003 390.917C98.4123 390.917 101.584 394.088 101.584 398C101.584 401.912 98.4123 405.083 94.5003 405.083C90.5883 405.083 87.417 401.912 87.417 398ZM95.1253 393.833C95.1253 393.488 94.8455 393.208 94.5003 393.208C94.1551 393.208 93.8753 393.488 93.8753 393.833V398C93.8753 398.215 93.9863 398.416 94.1691 398.53L96.6691 400.092C96.9618 400.275 97.3474 400.186 97.5303 399.894C97.7133 399.601 97.6243 399.215 97.3316 399.032L95.1253 397.654V393.833Z" fill="white"/>
<path d="M116.205 402V392.2H117.927V397.128L122.589 392.2H124.703L120.629 396.414L124.885 402H122.799L119.453 397.59L117.927 399.158V402H116.205ZM126.098 402.084C125.827 402.084 125.496 402.051 125.104 401.986L125.23 400.6C125.379 400.637 125.543 400.656 125.72 400.656C125.916 400.656 126.075 400.628 126.196 400.572C126.327 400.516 126.457 400.376 126.588 400.152C126.728 399.919 126.835 399.592 126.91 399.172C126.985 398.752 127.045 398.164 127.092 397.408C127.139 396.643 127.162 395.709 127.162 394.608H132.748V402H131.054V396.064H128.744C128.744 397.119 128.702 398.015 128.618 398.752C128.534 399.489 128.422 400.073 128.282 400.502C128.151 400.931 127.965 401.267 127.722 401.51C127.489 401.743 127.251 401.897 127.008 401.972C126.765 402.047 126.462 402.084 126.098 402.084ZM134.877 402V394.608H136.529V399.564C138.078 397.361 139.245 395.709 140.029 394.608H141.625V402H139.987V397.072L136.473 402H134.877ZM147.138 402.168C146.055 402.168 145.15 401.809 144.422 401.09C143.703 400.371 143.344 399.443 143.344 398.304C143.344 397.231 143.684 396.321 144.366 395.574C145.047 394.827 145.91 394.454 146.956 394.454C148.076 394.454 148.944 394.837 149.56 395.602C150.185 396.358 150.498 397.301 150.498 398.43C150.498 398.635 150.488 398.794 150.47 398.906H145.038C145.131 399.494 145.369 399.956 145.752 400.292C146.134 400.619 146.606 400.782 147.166 400.782C147.894 400.782 148.561 400.488 149.168 399.9L150.162 400.782C149.396 401.706 148.388 402.168 147.138 402.168ZM145.024 397.786H148.818C148.762 397.217 148.57 396.75 148.244 396.386C147.917 396.022 147.483 395.84 146.942 395.84C146.428 395.84 145.999 396.022 145.654 396.386C145.308 396.741 145.098 397.207 145.024 397.786ZM152.199 402V394.608H153.893V397.604H157.155V394.608H158.849V402H157.155V399.018H153.893V402H152.199ZM162.558 402V396.064H160.178V394.608H166.646V396.064H164.266V402H162.558ZM167.99 402V394.608H169.684V397.198H171.238C172.115 397.198 172.824 397.394 173.366 397.786C173.907 398.178 174.178 398.761 174.178 399.536C174.178 400.301 173.926 400.903 173.422 401.342C172.918 401.781 172.232 402 171.364 402H167.99ZM169.684 400.628H171.14C171.569 400.628 171.9 400.535 172.134 400.348C172.367 400.161 172.484 399.891 172.484 399.536C172.484 399.209 172.362 398.957 172.12 398.78C171.886 398.603 171.55 398.514 171.112 398.514H169.684V400.628ZM175.298 402V394.608H176.992V402H175.298Z" fill="white"/>
<rect x="33" y="162" width="197" height="40" rx="8" fill="#3478F6"/>
<path fill-rule="evenodd" clip-rule="evenodd" d="M96.917 182C96.917 178.088 100.088 174.917 104 174.917C107.912 174.917 111.084 178.088 111.084 182C111.084 185.912 107.912 189.083 104 189.083C100.088 189.083 96.917 185.912 96.917 182ZM104.625 177.833C104.625 177.488 104.346 177.208 104 177.208C103.655 177.208 103.375 177.488 103.375 177.833V182C103.375 182.215 103.486 182.416 103.669 182.53L106.169 184.092C106.462 184.275 106.847 184.186 107.03 183.894C107.213 183.601 107.124 183.215 106.832 183.032L104.625 181.654V177.833Z" fill="white"/>
<path d="M130.045 186.168C128.627 186.168 127.441 185.683 126.489 184.712C125.537 183.732 125.061 182.528 125.061 181.1C125.061 179.681 125.537 178.482 126.489 177.502C127.441 176.522 128.65 176.032 130.115 176.032C130.965 176.032 131.683 176.163 132.271 176.424C132.869 176.685 133.429 177.063 133.951 177.558L132.845 178.832C131.968 178.02 131.053 177.614 130.101 177.614C129.168 177.614 128.393 177.95 127.777 178.622C127.171 179.294 126.867 180.12 126.867 181.1C126.867 182.071 127.175 182.897 127.791 183.578C128.407 184.25 129.177 184.586 130.101 184.586C130.661 184.586 131.156 184.483 131.585 184.278C132.015 184.063 132.458 183.741 132.915 183.312L134.021 184.432C133.471 185.011 132.887 185.445 132.271 185.734C131.655 186.023 130.913 186.168 130.045 186.168ZM135.635 186V178.608H137.315V182.15L140.535 178.608H142.523L139.653 181.716L142.761 186H140.759L138.519 182.948L137.315 184.222V186H135.635ZM143.878 186.084C143.607 186.084 143.276 186.051 142.884 185.986L143.01 184.6C143.159 184.637 143.323 184.656 143.5 184.656C143.696 184.656 143.855 184.628 143.976 184.572C144.107 184.516 144.237 184.376 144.368 184.152C144.508 183.919 144.615 183.592 144.69 183.172C144.765 182.752 144.825 182.164 144.872 181.408C144.919 180.643 144.942 179.709 144.942 178.608H150.528V186H148.834V180.064H146.524C146.524 181.119 146.482 182.015 146.398 182.752C146.314 183.489 146.202 184.073 146.062 184.502C145.931 184.931 145.745 185.267 145.502 185.51C145.269 185.743 145.031 185.897 144.788 185.972C144.545 186.047 144.242 186.084 143.878 186.084ZM158.859 186H157.179V185.09C156.581 185.799 155.783 186.154 154.785 186.154C154.047 186.154 153.422 185.953 152.909 185.552C152.405 185.141 152.153 184.572 152.153 183.844C152.153 183.051 152.428 182.449 152.979 182.038C153.529 181.627 154.253 181.422 155.149 181.422C155.867 181.422 156.549 181.525 157.193 181.73V181.59C157.193 181.077 157.034 180.685 156.717 180.414C156.409 180.143 155.961 180.008 155.373 180.008C154.701 180.008 153.996 180.162 153.259 180.47L152.797 179.112C153.711 178.701 154.649 178.496 155.611 178.496C156.684 178.496 157.491 178.767 158.033 179.308C158.583 179.849 158.859 180.619 158.859 181.618V186ZM157.221 183.326V182.906C156.717 182.71 156.152 182.612 155.527 182.612C154.995 182.612 154.579 182.715 154.281 182.92C153.982 183.125 153.833 183.415 153.833 183.788C153.833 184.124 153.968 184.39 154.239 184.586C154.509 184.782 154.85 184.88 155.261 184.88C155.83 184.88 156.297 184.735 156.661 184.446C157.034 184.157 157.221 183.783 157.221 183.326ZM160.02 187.778V184.544H160.818C161.368 183.443 161.644 181.767 161.644 179.518V178.608H167.37V184.544H168.42L168.196 187.778H166.782V186H161.602L161.434 187.778H160.02ZM162.554 184.544H165.676V180.064H163.24V181.044C163.24 182.416 163.011 183.583 162.554 184.544Z" fill="white"/>
<path d="M29.7071 326.707C30.0976 326.317 30.0976 325.683 29.7071 325.293L23.3431 318.929C22.9526 318.538 22.3195 318.538 21.9289 318.929C21.5384 319.319 21.5384 319.953 21.9289 320.343L27.5858 326L21.9289 331.657C21.5384 332.047 21.5384 332.681 21.9289 333.071C22.3195 333.462 22.9526 333.462 23.3431 333.071L29.7071 326.707ZM119.5 217H25V219H119.5V217ZM0 242V302H2V242H0ZM25 327H29V325H25V327ZM0 302C0 315.807 11.1929 327 25 327V325C12.2975 325 2 314.703 2 302H0ZM25 217C11.1929 217 0 228.193 0 242H2C2 229.297 12.2975 219 25 219V217ZM130.5 206C130.5 212.075 125.575 217 119.5 217V219C126.68 219 132.5 213.18 132.5 206H130.5Z" fill="#3478F6"/>
<path d="M132.5 44C132.5 43.4477 132.052 43 131.5 43C130.948 43 130.5 43.4477 130.5 44H132.5ZM130.793 68.7071C131.183 69.0976 131.817 69.0976 132.207 68.7071L138.571 62.3431C138.962 61.9526 138.962 61.3195 138.571 60.9289C138.181 60.5384 137.547 60.5384 137.157 60.9289L131.5 66.5858L125.843 60.9289C125.453 60.5384 124.819 60.5384 124.429 60.9289C124.038 61.3195 124.038 61.9526 124.429 62.3431L130.793 68.7071ZM130.5 44V68H132.5V44H130.5Z" fill="#3478F6"/>
<rect x="33" width="197" height="40" rx="8" fill="#3478F6"/>
<path fill-rule="evenodd" clip-rule="evenodd" d="M94.5417 15.9417V16.25H93.2907C92.9181 16.25 92.6018 16.5233 92.5477 16.892L92.3655 18.1357C92.0097 20.5644 92.0097 23.032 92.3655 25.4607C92.525 26.5489 93.4025 27.3902 94.4965 27.5037L95.0206 27.558C97.334 27.7979 99.666 27.7979 101.979 27.558L102.504 27.5037C103.598 27.3902 104.475 26.5489 104.634 25.4607C104.99 23.032 104.99 20.5644 104.634 18.1357L104.452 16.892C104.398 16.5233 104.082 16.25 103.709 16.25H102.458V15.9417C102.458 14.1353 101.235 12.558 99.4858 12.1081C98.8391 11.9418 98.1609 11.9418 97.5142 12.1081C95.7647 12.558 94.5417 14.1353 94.5417 15.9417ZM99.1745 13.3187C98.732 13.205 98.268 13.205 97.8255 13.3187C96.6285 13.6265 95.7917 14.7057 95.7917 15.9417V16.25H101.208V15.9417C101.208 14.7057 100.372 13.6265 99.1745 13.3187ZM95.7917 17.5C95.7917 17.1548 95.5119 16.875 95.1667 16.875C94.8215 16.875 94.5417 17.1548 94.5417 17.5V19.1666C94.5417 19.5118 94.8215 19.7916 95.1667 19.7916C95.5119 19.7916 95.7917 19.5118 95.7917 19.1666V17.5ZM102.458 17.5C102.458 17.1548 102.179 16.875 101.833 16.875C101.488 16.875 101.208 17.1548 101.208 17.5V19.1666C101.208 19.5118 101.488 19.7916 101.833 19.7916C102.179 19.7916 102.458 19.5118 102.458 19.1666V17.5Z" fill="white"/>
<path d="M122.537 24V15.796H119.429V14.2H127.381V15.796H124.273V24H122.537ZM132.525 24.168C131.405 24.168 130.472 23.7947 129.725 23.048C128.979 22.3013 128.605 21.3913 128.605 20.318C128.605 19.2447 128.983 18.3347 129.739 17.588C130.495 16.832 131.433 16.454 132.553 16.454C133.673 16.454 134.607 16.8273 135.353 17.574C136.109 18.3207 136.487 19.2353 136.487 20.318C136.487 21.382 136.109 22.292 135.353 23.048C134.597 23.7947 133.655 24.168 132.525 24.168ZM132.553 22.698C133.225 22.698 133.767 22.4693 134.177 22.012C134.588 21.5547 134.793 20.99 134.793 20.318C134.793 19.6553 134.579 19.0953 134.149 18.638C133.72 18.1713 133.179 17.938 132.525 17.938C131.863 17.938 131.326 18.1667 130.915 18.624C130.505 19.0813 130.299 19.646 130.299 20.318C130.299 20.9713 130.514 21.5313 130.943 21.998C131.373 22.4647 131.909 22.698 132.553 22.698ZM138.212 24V16.608H142.006C142.744 16.608 143.332 16.776 143.77 17.112C144.218 17.4387 144.442 17.8867 144.442 18.456C144.442 19.2307 144.046 19.7953 143.252 20.15C144.27 20.4393 144.778 21.0553 144.778 21.998C144.778 22.6233 144.531 23.1133 144.036 23.468C143.551 23.8227 142.888 24 142.048 24H138.212ZM139.878 22.656H141.796C142.198 22.656 142.506 22.572 142.72 22.404C142.944 22.2267 143.056 21.9933 143.056 21.704C143.056 21.424 142.94 21.2047 142.706 21.046C142.482 20.8873 142.151 20.808 141.712 20.808H139.878V22.656ZM139.878 19.66H141.614C141.96 19.66 142.23 19.576 142.426 19.408C142.622 19.24 142.72 19.0207 142.72 18.75C142.72 18.498 142.632 18.2973 142.454 18.148C142.277 17.9893 142.006 17.91 141.642 17.91H139.878V19.66ZM152.672 24H150.992V23.09C150.395 23.7993 149.597 24.154 148.598 24.154C147.861 24.154 147.236 23.9533 146.722 23.552C146.218 23.1413 145.966 22.572 145.966 21.844C145.966 21.0507 146.242 20.4487 146.792 20.038C147.343 19.6273 148.066 19.422 148.962 19.422C149.681 19.422 150.362 19.5247 151.006 19.73V19.59C151.006 19.0767 150.848 18.6847 150.53 18.414C150.222 18.1433 149.774 18.008 149.186 18.008C148.514 18.008 147.81 18.162 147.072 18.47L146.61 17.112C147.525 16.7013 148.463 16.496 149.424 16.496C150.498 16.496 151.305 16.7667 151.846 17.308C152.397 17.8493 152.672 18.6193 152.672 19.618V24ZM151.034 21.326V20.906C150.53 20.71 149.966 20.612 149.34 20.612C148.808 20.612 148.393 20.7147 148.094 20.92C147.796 21.1253 147.646 21.4147 147.646 21.788C147.646 22.124 147.782 22.39 148.052 22.586C148.323 22.782 148.664 22.88 149.074 22.88C149.644 22.88 150.11 22.7353 150.474 22.446C150.848 22.1567 151.034 21.7833 151.034 21.326ZM154.687 26.24V16.608H156.381V17.84C157.034 16.916 157.87 16.454 158.887 16.454C159.82 16.454 160.628 16.804 161.309 17.504C161.99 18.1947 162.331 19.1327 162.331 20.318C162.331 21.4847 161.99 22.418 161.309 23.118C160.628 23.8087 159.82 24.154 158.887 24.154C157.87 24.154 157.034 23.72 156.381 22.852V26.24H154.687ZM158.495 22.684C159.092 22.684 159.592 22.4647 159.993 22.026C160.404 21.5873 160.609 21.0087 160.609 20.29C160.609 19.59 160.404 19.0207 159.993 18.582C159.582 18.1433 159.083 17.924 158.495 17.924C157.907 17.924 157.398 18.148 156.969 18.596C156.549 19.044 156.339 19.618 156.339 20.318C156.339 21.0087 156.549 21.578 156.969 22.026C157.398 22.4647 157.907 22.684 158.495 22.684ZM164.066 24V16.608H165.76V19.198H167.314C168.191 19.198 168.901 19.394 169.442 19.786C169.983 20.178 170.254 20.7613 170.254 21.536C170.254 22.3013 170.002 22.9033 169.498 23.342C168.994 23.7807 168.308 24 167.44 24H164.066ZM165.76 22.628H167.216C167.645 22.628 167.977 22.5347 168.21 22.348C168.443 22.1613 168.56 21.8907 168.56 21.536C168.56 21.2093 168.439 20.9573 168.196 20.78C167.963 20.6027 167.627 20.514 167.188 20.514H165.76V22.628ZM171.374 24V16.608H173.068V24H171.374Z" fill="white"/>
<path d="M234 181C233.448 181 233 181.448 233 182C233 182.552 233.448 183 234 183V181ZM233.293 253.293C232.902 253.683 232.902 254.317 233.293 254.707L239.657 261.071C240.047 261.462 240.681 261.462 241.071 261.071C241.462 260.681 241.462 260.047 241.071 259.657L235.414 254L241.071 248.343C241.462 247.953 241.462 247.319 241.071 246.929C240.681 246.538 240.047 246.538 239.657 246.929L233.293 253.293ZM234 183H238V181H234V183ZM261 206V230H263V206H261ZM238 253H234V255H238V253ZM261 230C261 242.703 250.703 253 238 253V255C251.807 255 263 243.807 263 230H261ZM238 183C250.703 183 261 193.297 261 206H263C263 192.193 251.807 181 238 181V183Z" fill="#3478F6"/>
<path d="M234 325C233.448 325 233 325.448 233 326C233 326.552 233.448 327 234 327V325ZM233.293 397.293C232.902 397.683 232.902 398.317 233.293 398.707L239.657 405.071C240.047 405.462 240.681 405.462 241.071 405.071C241.462 404.681 241.462 404.047 241.071 403.657L235.414 398L241.071 392.343C241.462 391.953 241.462 391.319 241.071 390.929C240.681 390.538 240.047 390.538 239.657 390.929L233.293 397.293ZM234 327H238V325H234V327ZM261 350V374H263V350H261ZM238 397H234V399H238V397ZM261 374C261 386.703 250.703 397 238 397V399C251.807 399 263 387.807 263 374H261ZM238 327C250.703 327 261 337.297 261 350H263C263 336.193 251.807 325 238 325V327Z" fill="#3478F6"/>
<path d="M29 21C29.5523 21 30 20.5523 30 20C30 19.4477 29.5523 19 29 19V21ZM29.7071 182.707C30.0976 182.317 30.0976 181.683 29.7071 181.293L23.3431 174.929C22.9526 174.538 22.3195 174.538 21.9289 174.929C21.5384 175.319 21.5384 175.953 21.9289 176.343L27.5858 182L21.9289 187.657C21.5384 188.047 21.5384 188.681 21.9289 189.071C22.3195 189.462 22.9526 189.462 23.3431 189.071L29.7071 182.707ZM29 19H26V21H29V19ZM1 44V158H3V44H1ZM26 183H29V181H26V183ZM1 158C1 171.807 12.1929 183 26 183V181C13.2975 181 3 170.703 3 158H1ZM26 19C12.1929 19 1 30.1929 1 44H3C3 31.2975 13.2975 21 26 21V19Z" fill="#3478F6"/>
</svg>
