<svg width="808" height="290" viewBox="0 0 808 290" fill="none" xmlns="http://www.w3.org/2000/svg">
<rect x="221" width="229" height="40" rx="8" fill="#3478F6"/>
<path fill-rule="evenodd" clip-rule="evenodd" d="M296.75 15.1301V15.5H295.249C294.802 15.5 294.422 15.828 294.357 16.2705L294.139 17.7629C293.712 20.6773 293.712 23.6384 294.139 26.5529C294.33 27.8588 295.383 28.8683 296.696 29.0045L297.325 29.0697C300.101 29.3576 302.899 29.3576 305.675 29.0697L306.304 29.0045C307.617 28.8683 308.67 27.8588 308.861 26.5529C309.288 23.6384 309.288 20.6773 308.861 17.7629L308.643 16.2705C308.578 15.828 308.198 15.5 307.751 15.5H306.25V15.1301C306.25 12.9624 304.782 11.0696 302.683 10.5298C301.907 10.3302 301.093 10.3302 300.317 10.5298C298.218 11.0696 296.75 12.9624 296.75 15.1301ZM302.309 11.9825C301.778 11.846 301.222 11.846 300.691 11.9825C299.254 12.3519 298.25 13.6469 298.25 15.1301V15.5H304.75V15.1301C304.75 13.6469 303.746 12.3519 302.309 11.9825ZM298.25 17C298.25 16.5858 297.914 16.25 297.5 16.25C297.086 16.25 296.75 16.5858 296.75 17V19C296.75 19.4142 297.086 19.75 297.5 19.75C297.914 19.75 298.25 19.4142 298.25 19V17ZM306.25 17C306.25 16.5858 305.914 16.25 305.5 16.25C305.086 16.25 304.75 16.5858 304.75 17V19C304.75 19.4142 305.086 19.75 305.5 19.75C305.914 19.75 306.25 19.4142 306.25 19V17Z" fill="white"/>
<path d="M329.537 24V15.796H326.429V14.2H334.381V15.796H331.273V24H329.537ZM339.525 24.168C338.405 24.168 337.472 23.7947 336.725 23.048C335.979 22.3013 335.605 21.3913 335.605 20.318C335.605 19.2447 335.983 18.3347 336.739 17.588C337.495 16.832 338.433 16.454 339.553 16.454C340.673 16.454 341.607 16.8273 342.353 17.574C343.109 18.3207 343.487 19.2353 343.487 20.318C343.487 21.382 343.109 22.292 342.353 23.048C341.597 23.7947 340.655 24.168 339.525 24.168ZM339.553 22.698C340.225 22.698 340.767 22.4693 341.177 22.012C341.588 21.5547 341.793 20.99 341.793 20.318C341.793 19.6553 341.579 19.0953 341.149 18.638C340.72 18.1713 340.179 17.938 339.525 17.938C338.863 17.938 338.326 18.1667 337.915 18.624C337.505 19.0813 337.299 19.646 337.299 20.318C337.299 20.9713 337.514 21.5313 337.943 21.998C338.373 22.4647 338.909 22.698 339.553 22.698ZM345.212 24V16.608H349.006C349.744 16.608 350.332 16.776 350.77 17.112C351.218 17.4387 351.442 17.8867 351.442 18.456C351.442 19.2307 351.046 19.7953 350.252 20.15C351.27 20.4393 351.778 21.0553 351.778 21.998C351.778 22.6233 351.531 23.1133 351.036 23.468C350.551 23.8227 349.888 24 349.048 24H345.212ZM346.878 22.656H348.796C349.198 22.656 349.506 22.572 349.72 22.404C349.944 22.2267 350.056 21.9933 350.056 21.704C350.056 21.424 349.94 21.2047 349.706 21.046C349.482 20.8873 349.151 20.808 348.712 20.808H346.878V22.656ZM346.878 19.66H348.614C348.96 19.66 349.23 19.576 349.426 19.408C349.622 19.24 349.72 19.0207 349.72 18.75C349.72 18.498 349.632 18.2973 349.454 18.148C349.277 17.9893 349.006 17.91 348.642 17.91H346.878V19.66ZM359.672 24H357.992V23.09C357.395 23.7993 356.597 24.154 355.598 24.154C354.861 24.154 354.236 23.9533 353.722 23.552C353.218 23.1413 352.966 22.572 352.966 21.844C352.966 21.0507 353.242 20.4487 353.792 20.038C354.343 19.6273 355.066 19.422 355.962 19.422C356.681 19.422 357.362 19.5247 358.006 19.73V19.59C358.006 19.0767 357.848 18.6847 357.53 18.414C357.222 18.1433 356.774 18.008 356.186 18.008C355.514 18.008 354.81 18.162 354.072 18.47L353.61 17.112C354.525 16.7013 355.463 16.496 356.424 16.496C357.498 16.496 358.305 16.7667 358.846 17.308C359.397 17.8493 359.672 18.6193 359.672 19.618V24ZM358.034 21.326V20.906C357.53 20.71 356.966 20.612 356.34 20.612C355.808 20.612 355.393 20.7147 355.094 20.92C354.796 21.1253 354.646 21.4147 354.646 21.788C354.646 22.124 354.782 22.39 355.052 22.586C355.323 22.782 355.664 22.88 356.074 22.88C356.644 22.88 357.11 22.7353 357.474 22.446C357.848 22.1567 358.034 21.7833 358.034 21.326ZM361.687 26.24V16.608H363.381V17.84C364.034 16.916 364.87 16.454 365.887 16.454C366.82 16.454 367.628 16.804 368.309 17.504C368.99 18.1947 369.331 19.1327 369.331 20.318C369.331 21.4847 368.99 22.418 368.309 23.118C367.628 23.8087 366.82 24.154 365.887 24.154C364.87 24.154 364.034 23.72 363.381 22.852V26.24H361.687ZM365.495 22.684C366.092 22.684 366.592 22.4647 366.993 22.026C367.404 21.5873 367.609 21.0087 367.609 20.29C367.609 19.59 367.404 19.0207 366.993 18.582C366.582 18.1433 366.083 17.924 365.495 17.924C364.907 17.924 364.398 18.148 363.969 18.596C363.549 19.044 363.339 19.618 363.339 20.318C363.339 21.0087 363.549 21.578 363.969 22.026C364.398 22.4647 364.907 22.684 365.495 22.684ZM371.066 24V16.608H372.76V19.198H374.314C375.191 19.198 375.901 19.394 376.442 19.786C376.983 20.178 377.254 20.7613 377.254 21.536C377.254 22.3013 377.002 22.9033 376.498 23.342C375.994 23.7807 375.308 24 374.44 24H371.066ZM372.76 22.628H374.216C374.645 22.628 374.977 22.5347 375.21 22.348C375.443 22.1613 375.56 21.8907 375.56 21.536C375.56 21.2093 375.439 20.9573 375.196 20.78C374.963 20.6027 374.627 20.514 374.188 20.514H372.76V22.628ZM378.374 24V16.608H380.068V24H378.374Z" fill="white"/>
<rect x="549" y="55" width="259" height="40" rx="8" fill="#3478F6"/>
<path fill-rule="evenodd" clip-rule="evenodd" d="M569.5 75C569.5 70.3056 573.306 66.5 578 66.5C582.694 66.5 586.5 70.3056 586.5 75C586.5 79.6944 582.694 83.5 578 83.5C573.306 83.5 569.5 79.6944 569.5 75ZM578.75 70C578.75 69.5858 578.414 69.25 578 69.25C577.586 69.25 577.25 69.5858 577.25 70V75C577.25 75.2586 577.383 75.4989 577.603 75.636L580.603 77.511C580.954 77.7305 581.416 77.6238 581.636 77.2725C581.856 76.9212 581.749 76.4585 581.397 76.239L578.75 74.5843V70Z" fill="white"/>
<path d="M605.207 79.154C604.535 79.154 603.896 78.9907 603.289 78.664L603.947 77.376C604.311 77.5813 604.712 77.684 605.151 77.684C605.739 77.684 606.252 77.3293 606.691 76.62L602.603 69.2H604.535L607.587 74.898L610.275 69.2H612.137L608.315 76.858C607.559 78.3887 606.523 79.154 605.207 79.154ZM613.571 79V71.608H620.165V79H618.471V73.064H615.265V79H613.571ZM622.293 81.24V71.608H623.987V72.84C624.641 71.916 625.476 71.454 626.493 71.454C627.427 71.454 628.234 71.804 628.915 72.504C629.597 73.1947 629.937 74.1327 629.937 75.318C629.937 76.4847 629.597 77.418 628.915 78.118C628.234 78.8087 627.427 79.154 626.493 79.154C625.476 79.154 624.641 78.72 623.987 77.852V81.24H622.293ZM626.101 77.684C626.699 77.684 627.198 77.4647 627.599 77.026C628.01 76.5873 628.215 76.0087 628.215 75.29C628.215 74.59 628.01 74.0207 627.599 73.582C627.189 73.1433 626.689 72.924 626.101 72.924C625.513 72.924 625.005 73.148 624.575 73.596C624.155 74.044 623.945 74.618 623.945 75.318C623.945 76.0087 624.155 76.578 624.575 77.026C625.005 77.4647 625.513 77.684 626.101 77.684ZM637.874 79H636.194V78.09C635.597 78.7993 634.799 79.154 633.8 79.154C633.063 79.154 632.438 78.9533 631.924 78.552C631.42 78.1413 631.168 77.572 631.168 76.844C631.168 76.0507 631.444 75.4487 631.994 75.038C632.545 74.6273 633.268 74.422 634.164 74.422C634.883 74.422 635.564 74.5247 636.208 74.73V74.59C636.208 74.0767 636.05 73.6847 635.732 73.414C635.424 73.1433 634.976 73.008 634.388 73.008C633.716 73.008 633.012 73.162 632.274 73.47L631.812 72.112C632.727 71.7013 633.665 71.496 634.626 71.496C635.7 71.496 636.507 71.7667 637.048 72.308C637.599 72.8493 637.874 73.6193 637.874 74.618V79ZM636.236 76.326V75.906C635.732 75.71 635.168 75.612 634.542 75.612C634.01 75.612 633.595 75.7147 633.296 75.92C632.998 76.1253 632.848 76.4147 632.848 76.788C632.848 77.124 632.984 77.39 633.254 77.586C633.525 77.782 633.866 77.88 634.276 77.88C634.846 77.88 635.312 77.7353 635.676 77.446C636.05 77.1567 636.236 76.7833 636.236 76.326ZM639.889 79V71.608H643.683C644.421 71.608 645.009 71.776 645.447 72.112C645.895 72.4387 646.119 72.8867 646.119 73.456C646.119 74.2307 645.723 74.7953 644.929 75.15C645.947 75.4393 646.455 76.0553 646.455 76.998C646.455 77.6233 646.208 78.1133 645.713 78.468C645.228 78.8227 644.565 79 643.725 79H639.889ZM641.555 77.656H643.473C643.875 77.656 644.183 77.572 644.397 77.404C644.621 77.2267 644.733 76.9933 644.733 76.704C644.733 76.424 644.617 76.2047 644.383 76.046C644.159 75.8873 643.828 75.808 643.389 75.808H641.555V77.656ZM641.555 74.66H643.291C643.637 74.66 643.907 74.576 644.103 74.408C644.299 74.24 644.397 74.0207 644.397 73.75C644.397 73.498 644.309 73.2973 644.131 73.148C643.954 72.9893 643.683 72.91 643.319 72.91H641.555V74.66ZM648.091 79.084C647.82 79.084 647.489 79.0513 647.097 78.986L647.223 77.6C647.372 77.6373 647.536 77.656 647.713 77.656C647.909 77.656 648.068 77.628 648.189 77.572C648.32 77.516 648.45 77.376 648.581 77.152C648.721 76.9187 648.828 76.592 648.903 76.172C648.978 75.752 649.038 75.164 649.085 74.408C649.132 73.6427 649.155 72.7093 649.155 71.608H654.741V79H653.047V73.064H650.737C650.737 74.1187 650.695 75.0147 650.611 75.752C650.527 76.4893 650.415 77.0727 650.275 77.502C650.144 77.9313 649.958 78.2673 649.715 78.51C649.482 78.7433 649.244 78.8973 649.001 78.972C648.758 79.0467 648.455 79.084 648.091 79.084ZM660.258 79.168C659.175 79.168 658.27 78.8087 657.542 78.09C656.823 77.3713 656.464 76.4427 656.464 75.304C656.464 74.2307 656.804 73.3207 657.486 72.574C658.167 71.8273 659.03 71.454 660.076 71.454C661.196 71.454 662.064 71.8367 662.68 72.602C663.305 73.358 663.618 74.3007 663.618 75.43C663.618 75.6353 663.608 75.794 663.59 75.906H658.158C658.251 76.494 658.489 76.956 658.872 77.292C659.254 77.6187 659.726 77.782 660.286 77.782C661.014 77.782 661.681 77.488 662.288 76.9L663.282 77.782C662.516 78.706 661.508 79.168 660.258 79.168ZM658.144 74.786H661.938C661.882 74.2167 661.69 73.75 661.364 73.386C661.037 73.022 660.603 72.84 660.062 72.84C659.548 72.84 659.119 73.022 658.774 73.386C658.428 73.7407 658.218 74.2073 658.144 74.786ZM665.319 79V71.608H667.013V74.604H670.275V71.608H671.969V79H670.275V76.018H667.013V79H665.319ZM674.096 79V71.608H675.748V76.564C677.298 74.3613 678.464 72.7093 679.248 71.608H680.844V79H679.206V74.072L675.692 79H674.096ZM686.357 79.168C685.275 79.168 684.369 78.8087 683.641 78.09C682.923 77.3713 682.563 76.4427 682.563 75.304C682.563 74.2307 682.904 73.3207 683.585 72.574C684.267 71.8273 685.13 71.454 686.175 71.454C687.295 71.454 688.163 71.8367 688.779 72.602C689.405 73.358 689.717 74.3007 689.717 75.43C689.717 75.6353 689.708 75.794 689.689 75.906H684.257C684.351 76.494 684.589 76.956 684.971 77.292C685.354 77.6187 685.825 77.782 686.385 77.782C687.113 77.782 687.781 77.488 688.387 76.9L689.381 77.782C688.616 78.706 687.608 79.168 686.357 79.168ZM684.243 74.786H688.037C687.981 74.2167 687.79 73.75 687.463 73.386C687.137 73.022 686.703 72.84 686.161 72.84C685.648 72.84 685.219 73.022 684.873 73.386C684.528 73.7407 684.318 74.2073 684.243 74.786ZM695.616 79V71.608H697.296L699.606 75.038L701.93 71.608H703.61V79H701.902V74.072L699.578 77.39L697.268 74.1V79H695.616ZM711.935 79H710.255V78.09C709.658 78.7993 708.86 79.154 707.861 79.154C707.124 79.154 706.498 78.9533 705.985 78.552C705.481 78.1413 705.229 77.572 705.229 76.844C705.229 76.0507 705.504 75.4487 706.055 75.038C706.606 74.6273 707.329 74.422 708.225 74.422C708.944 74.422 709.625 74.5247 710.269 74.73V74.59C710.269 74.0767 710.11 73.6847 709.793 73.414C709.485 73.1433 709.037 73.008 708.449 73.008C707.777 73.008 707.072 73.162 706.335 73.47L705.873 72.112C706.788 71.7013 707.726 71.496 708.687 71.496C709.76 71.496 710.568 71.7667 711.109 72.308C711.66 72.8493 711.935 73.6193 711.935 74.618V79ZM710.297 76.326V75.906C709.793 75.71 709.228 75.612 708.603 75.612C708.071 75.612 707.656 75.7147 707.357 75.92C707.058 76.1253 706.909 76.4147 706.909 76.788C706.909 77.124 707.044 77.39 707.315 77.586C707.586 77.782 707.926 77.88 708.337 77.88C708.906 77.88 709.373 77.7353 709.737 77.446C710.11 77.1567 710.297 76.7833 710.297 76.326ZM715.532 79V73.064H713.152V71.608H719.62V73.064H717.24V79H715.532ZM724.351 79.168C723.269 79.168 722.363 78.8087 721.635 78.09C720.917 77.3713 720.557 76.4427 720.557 75.304C720.557 74.2307 720.898 73.3207 721.579 72.574C722.261 71.8273 723.124 71.454 724.169 71.454C725.289 71.454 726.157 71.8367 726.773 72.602C727.399 73.358 727.711 74.3007 727.711 75.43C727.711 75.6353 727.702 75.794 727.683 75.906H722.251C722.345 76.494 722.583 76.956 722.965 77.292C723.348 77.6187 723.819 77.782 724.379 77.782C725.107 77.782 725.775 77.488 726.381 76.9L727.375 77.782C726.61 78.706 725.602 79.168 724.351 79.168ZM722.237 74.786H726.031C725.975 74.2167 725.784 73.75 725.457 73.386C725.131 73.022 724.697 72.84 724.155 72.84C723.642 72.84 723.213 73.022 722.867 73.386C722.522 73.7407 722.312 74.2073 722.237 74.786ZM729.413 81.24V71.608H731.107V72.84C731.76 71.916 732.595 71.454 733.613 71.454C734.546 71.454 735.353 71.804 736.035 72.504C736.716 73.1947 737.057 74.1327 737.057 75.318C737.057 76.4847 736.716 77.418 736.035 78.118C735.353 78.8087 734.546 79.154 733.613 79.154C732.595 79.154 731.76 78.72 731.107 77.852V81.24H729.413ZM733.221 77.684C733.818 77.684 734.317 77.4647 734.719 77.026C735.129 76.5873 735.335 76.0087 735.335 75.29C735.335 74.59 735.129 74.0207 734.719 73.582C734.308 73.1433 733.809 72.924 733.221 72.924C732.633 72.924 732.124 73.148 731.695 73.596C731.275 74.044 731.065 74.618 731.065 75.318C731.065 76.0087 731.275 76.578 731.695 77.026C732.124 77.4647 732.633 77.684 733.221 77.684ZM738.792 79V71.608H740.444V76.564C741.993 74.3613 743.16 72.7093 743.944 71.608H745.54V79H743.902V74.072L740.388 79H738.792ZM753.867 79H752.187V78.09C751.589 78.7993 750.791 79.154 749.793 79.154C749.055 79.154 748.43 78.9533 747.917 78.552C747.413 78.1413 747.161 77.572 747.161 76.844C747.161 76.0507 747.436 75.4487 747.987 75.038C748.537 74.6273 749.261 74.422 750.157 74.422C750.875 74.422 751.557 74.5247 752.201 74.73V74.59C752.201 74.0767 752.042 73.6847 751.725 73.414C751.417 73.1433 750.969 73.008 750.381 73.008C749.709 73.008 749.004 73.162 748.267 73.47L747.805 72.112C748.719 71.7013 749.657 71.496 750.619 71.496C751.692 71.496 752.499 71.7667 753.041 72.308C753.591 72.8493 753.867 73.6193 753.867 74.618V79ZM752.229 76.326V75.906C751.725 75.71 751.16 75.612 750.535 75.612C750.003 75.612 749.587 75.7147 749.289 75.92C748.99 76.1253 748.841 76.4147 748.841 76.788C748.841 77.124 748.976 77.39 749.247 77.586C749.517 77.782 749.858 77.88 750.269 77.88C750.838 77.88 751.305 77.7353 751.669 77.446C752.042 77.1567 752.229 76.7833 752.229 76.326ZM755.825 79.084C755.555 79.084 755.223 79.0513 754.831 78.986L754.957 77.6C755.107 77.6373 755.27 77.656 755.447 77.656C755.643 77.656 755.802 77.628 755.923 77.572C756.054 77.516 756.185 77.376 756.315 77.152C756.455 76.9187 756.563 76.592 756.637 76.172C756.712 75.752 756.773 75.164 756.819 74.408C756.866 73.6427 756.889 72.7093 756.889 71.608H762.475V79H760.781V73.064H758.471C758.471 74.1187 758.429 75.0147 758.345 75.752C758.261 76.4893 758.149 77.0727 758.009 77.502C757.879 77.9313 757.692 78.2673 757.449 78.51C757.216 78.7433 756.978 78.8973 756.735 78.972C756.493 79.0467 756.189 79.084 755.825 79.084ZM770.806 79H769.126V78.09C768.529 78.7993 767.731 79.154 766.732 79.154C765.995 79.154 765.369 78.9533 764.856 78.552C764.352 78.1413 764.1 77.572 764.1 76.844C764.1 76.0507 764.375 75.4487 764.926 75.038C765.477 74.6273 766.2 74.422 767.096 74.422C767.815 74.422 768.496 74.5247 769.14 74.73V74.59C769.14 74.0767 768.981 73.6847 768.664 73.414C768.356 73.1433 767.908 73.008 767.32 73.008C766.648 73.008 765.943 73.162 765.206 73.47L764.744 72.112C765.659 71.7013 766.597 71.496 767.558 71.496C768.631 71.496 769.439 71.7667 769.98 72.308C770.531 72.8493 770.806 73.6193 770.806 74.618V79ZM769.168 76.326V75.906C768.664 75.71 768.099 75.612 767.474 75.612C766.942 75.612 766.527 75.7147 766.228 75.92C765.929 76.1253 765.78 76.4147 765.78 76.788C765.78 77.124 765.915 77.39 766.186 77.586C766.457 77.782 766.797 77.88 767.208 77.88C767.777 77.88 768.244 77.7353 768.608 77.446C768.981 77.1567 769.168 76.7833 769.168 76.326ZM772.821 79V71.608H774.501L776.811 75.038L779.135 71.608H780.815V79H779.107V74.072L776.783 77.39L774.473 74.1V79H772.821ZM782.938 79V71.608H784.59V76.564C786.139 74.3613 787.306 72.7093 788.09 71.608H789.686V79H788.048V74.072L784.534 79H782.938Z" fill="white"/>
<rect x="269" y="135" width="259" height="40" rx="8" fill="#3478F6"/>
<path fill-rule="evenodd" clip-rule="evenodd" d="M361.5 155C361.5 150.306 365.306 146.5 370 146.5C374.694 146.5 378.5 150.306 378.5 155C378.5 159.694 374.694 163.5 370 163.5C365.306 163.5 361.5 159.694 361.5 155ZM370.75 150C370.75 149.586 370.414 149.25 370 149.25C369.586 149.25 369.25 149.586 369.25 150V155C369.25 155.259 369.383 155.499 369.603 155.636L372.603 157.511C372.954 157.731 373.416 157.624 373.636 157.272C373.856 156.921 373.749 156.459 373.397 156.239L370.75 154.584V150Z" fill="white"/>
<path d="M400.045 159.168C398.627 159.168 397.441 158.683 396.489 157.712C395.537 156.732 395.061 155.528 395.061 154.1C395.061 152.681 395.537 151.482 396.489 150.502C397.441 149.522 398.65 149.032 400.115 149.032C400.965 149.032 401.683 149.163 402.271 149.424C402.869 149.685 403.429 150.063 403.951 150.558L402.845 151.832C401.968 151.02 401.053 150.614 400.101 150.614C399.168 150.614 398.393 150.95 397.777 151.622C397.171 152.294 396.867 153.12 396.867 154.1C396.867 155.071 397.175 155.897 397.791 156.578C398.407 157.25 399.177 157.586 400.101 157.586C400.661 157.586 401.156 157.483 401.585 157.278C402.015 157.063 402.458 156.741 402.915 156.312L404.021 157.432C403.471 158.011 402.887 158.445 402.271 158.734C401.655 159.023 400.913 159.168 400.045 159.168ZM405.635 159V151.608H407.315V155.15L410.535 151.608H412.523L409.653 154.716L412.761 159H410.759L408.519 155.948L407.315 157.222V159H405.635ZM413.878 159.084C413.607 159.084 413.276 159.051 412.884 158.986L413.01 157.6C413.159 157.637 413.323 157.656 413.5 157.656C413.696 157.656 413.855 157.628 413.976 157.572C414.107 157.516 414.237 157.376 414.368 157.152C414.508 156.919 414.615 156.592 414.69 156.172C414.765 155.752 414.825 155.164 414.872 154.408C414.919 153.643 414.942 152.709 414.942 151.608H420.528V159H418.834V153.064H416.524C416.524 154.119 416.482 155.015 416.398 155.752C416.314 156.489 416.202 157.073 416.062 157.502C415.931 157.931 415.745 158.267 415.502 158.51C415.269 158.743 415.031 158.897 414.788 158.972C414.545 159.047 414.242 159.084 413.878 159.084ZM428.859 159H427.179V158.09C426.581 158.799 425.783 159.154 424.785 159.154C424.047 159.154 423.422 158.953 422.909 158.552C422.405 158.141 422.153 157.572 422.153 156.844C422.153 156.051 422.428 155.449 422.979 155.038C423.529 154.627 424.253 154.422 425.149 154.422C425.867 154.422 426.549 154.525 427.193 154.73V154.59C427.193 154.077 427.034 153.685 426.717 153.414C426.409 153.143 425.961 153.008 425.373 153.008C424.701 153.008 423.996 153.162 423.259 153.47L422.797 152.112C423.711 151.701 424.649 151.496 425.611 151.496C426.684 151.496 427.491 151.767 428.033 152.308C428.583 152.849 428.859 153.619 428.859 154.618V159ZM427.221 156.326V155.906C426.717 155.71 426.152 155.612 425.527 155.612C424.995 155.612 424.579 155.715 424.281 155.92C423.982 156.125 423.833 156.415 423.833 156.788C423.833 157.124 423.968 157.39 424.239 157.586C424.509 157.782 424.85 157.88 425.261 157.88C425.83 157.88 426.297 157.735 426.661 157.446C427.034 157.157 427.221 156.783 427.221 156.326ZM430.02 160.778V157.544H430.818C431.368 156.443 431.644 154.767 431.644 152.518V151.608H437.37V157.544H438.42L438.196 160.778H436.782V159H431.602L431.434 160.778H430.02ZM432.554 157.544H435.676V153.064H433.24V154.044C433.24 155.416 433.011 156.583 432.554 157.544Z" fill="white"/>
<rect y="250" width="259" height="40" rx="8" fill="#3478F6"/>
<path fill-rule="evenodd" clip-rule="evenodd" d="M88.5 270C88.5 265.306 92.3056 261.5 97 261.5C101.694 261.5 105.5 265.306 105.5 270C105.5 274.694 101.694 278.5 97 278.5C92.3056 278.5 88.5 274.694 88.5 270ZM97.75 265C97.75 264.586 97.4142 264.25 97 264.25C96.5858 264.25 96.25 264.586 96.25 265V270C96.25 270.259 96.3832 270.499 96.6025 270.636L99.6025 272.511C99.9538 272.731 100.416 272.624 100.636 272.272C100.856 271.921 100.749 271.459 100.397 271.239L97.75 269.584V265Z" fill="white"/>
<path d="M126.013 264.032C127.021 264.032 127.847 264.279 128.491 264.774C129.135 265.269 129.457 265.899 129.457 266.664C129.457 267.719 128.902 268.479 127.791 268.946C128.379 269.123 128.846 269.408 129.191 269.8C129.536 270.192 129.709 270.691 129.709 271.298C129.709 272.129 129.378 272.815 128.715 273.356C128.052 273.897 127.184 274.168 126.111 274.168C125.187 274.168 124.389 274.037 123.717 273.776C123.054 273.505 122.438 273.099 121.869 272.558L122.807 271.368C123.722 272.236 124.809 272.67 126.069 272.67C126.61 272.67 127.063 272.539 127.427 272.278C127.8 272.007 127.987 271.648 127.987 271.2C127.987 270.715 127.782 270.355 127.371 270.122C126.96 269.889 126.419 269.772 125.747 269.772H124.641V268.344H125.733C126.368 268.344 126.862 268.223 127.217 267.98C127.572 267.728 127.749 267.373 127.749 266.916C127.749 266.505 127.576 266.174 127.231 265.922C126.895 265.67 126.452 265.544 125.901 265.544C124.828 265.544 123.913 265.908 123.157 266.636L122.233 265.516C123.269 264.527 124.529 264.032 126.013 264.032ZM137.738 274H136.058V273.09C135.46 273.799 134.662 274.154 133.664 274.154C132.926 274.154 132.301 273.953 131.788 273.552C131.284 273.141 131.032 272.572 131.032 271.844C131.032 271.051 131.307 270.449 131.858 270.038C132.408 269.627 133.132 269.422 134.028 269.422C134.746 269.422 135.428 269.525 136.072 269.73V269.59C136.072 269.077 135.913 268.685 135.596 268.414C135.288 268.143 134.84 268.008 134.252 268.008C133.58 268.008 132.875 268.162 132.138 268.47L131.676 267.112C132.59 266.701 133.528 266.496 134.49 266.496C135.563 266.496 136.37 266.767 136.912 267.308C137.462 267.849 137.738 268.619 137.738 269.618V274ZM136.1 271.326V270.906C135.596 270.71 135.031 270.612 134.406 270.612C133.874 270.612 133.458 270.715 133.16 270.92C132.861 271.125 132.712 271.415 132.712 271.788C132.712 272.124 132.847 272.39 133.118 272.586C133.388 272.782 133.729 272.88 134.14 272.88C134.709 272.88 135.176 272.735 135.54 272.446C135.913 272.157 136.1 271.783 136.1 271.326ZM139.752 274V266.608H141.432V270.15L144.652 266.608H146.64L143.77 269.716L146.878 274H144.876L142.636 270.948L141.432 272.222V274H139.752ZM154.253 274H152.573V273.09C151.976 273.799 151.178 274.154 150.179 274.154C149.442 274.154 148.817 273.953 148.303 273.552C147.799 273.141 147.547 272.572 147.547 271.844C147.547 271.051 147.823 270.449 148.373 270.038C148.924 269.627 149.647 269.422 150.543 269.422C151.262 269.422 151.943 269.525 152.587 269.73V269.59C152.587 269.077 152.429 268.685 152.111 268.414C151.803 268.143 151.355 268.008 150.767 268.008C150.095 268.008 149.391 268.162 148.653 268.47L148.191 267.112C149.106 266.701 150.044 266.496 151.005 266.496C152.079 266.496 152.886 266.767 153.427 267.308C153.978 267.849 154.253 268.619 154.253 269.618V274ZM152.615 271.326V270.906C152.111 270.71 151.547 270.612 150.921 270.612C150.389 270.612 149.974 270.715 149.675 270.92C149.377 271.125 149.227 271.415 149.227 271.788C149.227 272.124 149.363 272.39 149.633 272.586C149.904 272.782 150.245 272.88 150.655 272.88C151.225 272.88 151.691 272.735 152.055 272.446C152.429 272.157 152.615 271.783 152.615 271.326ZM158.788 274.168C157.519 274.168 156.441 273.79 155.554 273.034L156.352 271.914C157.043 272.502 157.817 272.796 158.676 272.796C159.068 272.796 159.399 272.703 159.67 272.516C159.941 272.32 160.076 272.073 160.076 271.774C160.076 271.494 159.945 271.27 159.684 271.102C159.423 270.934 159.054 270.85 158.578 270.85H157.668V269.632H158.578C158.97 269.632 159.283 269.543 159.516 269.366C159.759 269.179 159.88 268.946 159.88 268.666C159.88 268.414 159.763 268.213 159.53 268.064C159.306 267.905 159.017 267.826 158.662 267.826C157.841 267.826 157.141 268.078 156.562 268.582L155.806 267.518C156.618 266.809 157.621 266.454 158.816 266.454C159.628 266.454 160.291 266.641 160.804 267.014C161.317 267.387 161.574 267.863 161.574 268.442C161.574 269.226 161.187 269.786 160.412 270.122C161.308 270.439 161.756 271.037 161.756 271.914C161.756 272.549 161.481 273.085 160.93 273.524C160.379 273.953 159.665 274.168 158.788 274.168ZM163.514 274V266.608H165.208V269.198H166.762C167.64 269.198 168.349 269.394 168.89 269.786C169.432 270.178 169.702 270.761 169.702 271.536C169.702 272.301 169.45 272.903 168.946 273.342C168.442 273.781 167.756 274 166.888 274H163.514ZM165.208 272.628H166.664C167.094 272.628 167.425 272.535 167.658 272.348C167.892 272.161 168.008 271.891 168.008 271.536C168.008 271.209 167.887 270.957 167.644 270.78C167.411 270.603 167.075 270.514 166.636 270.514H165.208V272.628ZM170.822 274V266.608H172.516V274H170.822Z" fill="white"/>
<rect x="539" y="250" width="259" height="40" rx="8" fill="#3478F6"/>
<path fill-rule="evenodd" clip-rule="evenodd" d="M616 270C616 265.306 619.806 261.5 624.5 261.5C629.194 261.5 633 265.306 633 270C633 274.694 629.194 278.5 624.5 278.5C619.806 278.5 616 274.694 616 270ZM625.25 265C625.25 264.586 624.914 264.25 624.5 264.25C624.086 264.25 623.75 264.586 623.75 265V270C623.75 270.259 623.883 270.499 624.103 270.636L627.103 272.511C627.454 272.731 627.916 272.624 628.136 272.272C628.356 271.921 628.249 271.459 627.897 271.239L625.25 269.584V265Z" fill="white"/>
<path d="M649.916 274.112C649.515 274.112 649.118 274.061 648.726 273.958L648.894 272.544C649.062 272.6 649.249 272.628 649.454 272.628C649.678 272.628 649.87 272.595 650.028 272.53C650.196 272.455 650.369 272.287 650.546 272.026C650.733 271.765 650.878 271.41 650.98 270.962C651.092 270.505 651.186 269.87 651.26 269.058C651.335 268.246 651.372 267.271 651.372 266.132V264.2H658.092V274H656.37V265.754H652.982V266.636C652.982 268.157 652.917 269.422 652.786 270.43C652.656 271.429 652.45 272.194 652.17 272.726C651.89 273.249 651.573 273.613 651.218 273.818C650.873 274.014 650.439 274.112 649.916 274.112ZM663.939 274.168C662.819 274.168 661.886 273.795 661.139 273.048C660.393 272.301 660.019 271.391 660.019 270.318C660.019 269.245 660.397 268.335 661.153 267.588C661.909 266.832 662.847 266.454 663.967 266.454C665.087 266.454 666.021 266.827 666.767 267.574C667.523 268.321 667.901 269.235 667.901 270.318C667.901 271.382 667.523 272.292 666.767 273.048C666.011 273.795 665.069 274.168 663.939 274.168ZM663.967 272.698C664.639 272.698 665.181 272.469 665.591 272.012C666.002 271.555 666.207 270.99 666.207 270.318C666.207 269.655 665.993 269.095 665.563 268.638C665.134 268.171 664.593 267.938 663.939 267.938C663.277 267.938 662.74 268.167 662.329 268.624C661.919 269.081 661.713 269.646 661.713 270.318C661.713 270.971 661.928 271.531 662.357 271.998C662.787 272.465 663.323 272.698 663.967 272.698ZM669.627 274V266.608H674.863V268.064H671.321V274H669.627ZM676.203 274V266.608H677.855V271.564C679.404 269.361 680.571 267.709 681.355 266.608H682.951V274H681.313V269.072L677.799 274H676.203ZM688.492 274.168C687.4 274.168 686.49 273.799 685.762 273.062C685.034 272.315 684.67 271.41 684.67 270.346V270.318C684.67 269.254 685.034 268.344 685.762 267.588C686.499 266.832 687.414 266.454 688.506 266.454C689.7 266.454 690.685 266.879 691.46 267.728L690.41 268.862C689.822 268.246 689.182 267.938 688.492 267.938C687.885 267.938 687.376 268.167 686.966 268.624C686.564 269.081 686.364 269.637 686.364 270.29V270.318C686.364 270.99 686.569 271.555 686.98 272.012C687.4 272.469 687.932 272.698 688.576 272.698C689.257 272.698 689.896 272.39 690.494 271.774L691.516 272.782C691.114 273.23 690.676 273.575 690.2 273.818C689.733 274.051 689.164 274.168 688.492 274.168ZM694.587 274V268.064H692.207V266.608H698.675V268.064H696.295V274H694.587ZM700.019 274V266.608H701.671V271.564C703.22 269.361 704.387 267.709 705.171 266.608H706.767V274H705.129V269.072L701.615 274H700.019ZM708.892 274V266.608H710.572V270.15L713.792 266.608H715.78L712.91 269.716L716.018 274H714.016L711.776 270.948L710.572 272.222V274H708.892ZM723.393 274H721.713V273.09C721.116 273.799 720.318 274.154 719.319 274.154C718.582 274.154 717.956 273.953 717.443 273.552C716.939 273.141 716.687 272.572 716.687 271.844C716.687 271.051 716.962 270.449 717.513 270.038C718.064 269.627 718.787 269.422 719.683 269.422C720.402 269.422 721.083 269.525 721.727 269.73V269.59C721.727 269.077 721.568 268.685 721.251 268.414C720.943 268.143 720.495 268.008 719.907 268.008C719.235 268.008 718.53 268.162 717.793 268.47L717.331 267.112C718.246 266.701 719.184 266.496 720.145 266.496C721.218 266.496 722.026 266.767 722.567 267.308C723.118 267.849 723.393 268.619 723.393 269.618V274ZM721.755 271.326V270.906C721.251 270.71 720.686 270.612 720.061 270.612C719.529 270.612 719.114 270.715 718.815 270.92C718.516 271.125 718.367 271.415 718.367 271.788C718.367 272.124 718.502 272.39 718.773 272.586C719.044 272.782 719.384 272.88 719.795 272.88C720.364 272.88 720.831 272.735 721.195 272.446C721.568 272.157 721.755 271.783 721.755 271.326Z" fill="white"/>
<rect y="75" width="259" height="40" rx="8" fill="#3478F6"/>
<path fill-rule="evenodd" clip-rule="evenodd" d="M83 95C83 90.3056 86.8056 86.5 91.5 86.5C96.1944 86.5 100 90.3056 100 95C100 99.6944 96.1944 103.5 91.5 103.5C86.8056 103.5 83 99.6944 83 95ZM92.25 90C92.25 89.5858 91.9142 89.25 91.5 89.25C91.0858 89.25 90.75 89.5858 90.75 90V95C90.75 95.2586 90.8832 95.4989 91.1025 95.636L94.1025 97.511C94.4538 97.7305 94.9165 97.6238 95.136 97.2725C95.3555 96.9212 95.2488 96.4585 94.8975 96.239L92.25 94.5843V90Z" fill="white"/>
<path d="M117.205 99V89.2H118.927V94.128L123.589 89.2H125.703L121.629 93.414L125.885 99H123.799L120.453 94.59L118.927 96.158V99H117.205ZM127.098 99.084C126.827 99.084 126.496 99.0513 126.104 98.986L126.23 97.6C126.379 97.6373 126.543 97.656 126.72 97.656C126.916 97.656 127.075 97.628 127.196 97.572C127.327 97.516 127.457 97.376 127.588 97.152C127.728 96.9187 127.835 96.592 127.91 96.172C127.985 95.752 128.045 95.164 128.092 94.408C128.139 93.6427 128.162 92.7093 128.162 91.608H133.748V99H132.054V93.064H129.744C129.744 94.1187 129.702 95.0147 129.618 95.752C129.534 96.4893 129.422 97.0727 129.282 97.502C129.151 97.9313 128.965 98.2673 128.722 98.51C128.489 98.7433 128.251 98.8973 128.008 98.972C127.765 99.0467 127.462 99.084 127.098 99.084ZM135.877 99V91.608H137.529V96.564C139.078 94.3613 140.245 92.7093 141.029 91.608H142.625V99H140.987V94.072L137.473 99H135.877ZM148.138 99.168C147.055 99.168 146.15 98.8087 145.422 98.09C144.703 97.3713 144.344 96.4427 144.344 95.304C144.344 94.2307 144.684 93.3207 145.366 92.574C146.047 91.8273 146.91 91.454 147.956 91.454C149.076 91.454 149.944 91.8367 150.56 92.602C151.185 93.358 151.498 94.3007 151.498 95.43C151.498 95.6353 151.488 95.794 151.47 95.906H146.038C146.131 96.494 146.369 96.956 146.752 97.292C147.134 97.6187 147.606 97.782 148.166 97.782C148.894 97.782 149.561 97.488 150.168 96.9L151.162 97.782C150.396 98.706 149.388 99.168 148.138 99.168ZM146.024 94.786H149.818C149.762 94.2167 149.57 93.75 149.244 93.386C148.917 93.022 148.483 92.84 147.942 92.84C147.428 92.84 146.999 93.022 146.654 93.386C146.308 93.7407 146.098 94.2073 146.024 94.786ZM153.199 99V91.608H154.893V94.604H158.155V91.608H159.849V99H158.155V96.018H154.893V99H153.199ZM163.558 99V93.064H161.178V91.608H167.646V93.064H165.266V99H163.558ZM168.99 99V91.608H170.684V94.198H172.238C173.115 94.198 173.824 94.394 174.366 94.786C174.907 95.178 175.178 95.7613 175.178 96.536C175.178 97.3013 174.926 97.9033 174.422 98.342C173.918 98.7807 173.232 99 172.364 99H168.99ZM170.684 97.628H172.14C172.569 97.628 172.9 97.5347 173.134 97.348C173.367 97.1613 173.484 96.8907 173.484 96.536C173.484 96.2093 173.362 95.9573 173.12 95.78C172.886 95.6027 172.55 95.514 172.112 95.514H170.684V97.628ZM176.298 99V91.608H177.992V99H176.298Z" fill="white"/>
<path d="M454 19C453.448 19 453 19.4477 453 20C453 20.5523 453.448 21 454 21V19ZM545.707 75.7071C546.098 75.3166 546.098 74.6834 545.707 74.2929L539.343 67.9289C538.953 67.5384 538.319 67.5384 537.929 67.9289C537.538 68.3195 537.538 68.9526 537.929 69.3431L543.586 75L537.929 80.6569C537.538 81.0474 537.538 81.6805 537.929 82.0711C538.319 82.4616 538.953 82.4616 539.343 82.0711L545.707 75.7071ZM454 21H475.5V19H454V21ZM498.5 44V51H500.5V44H498.5ZM523.5 76H545V74H523.5V76ZM498.5 51C498.5 64.8071 509.693 76 523.5 76V74C510.797 74 500.5 63.7025 500.5 51H498.5ZM475.5 21C488.203 21 498.5 31.2975 498.5 44H500.5C500.5 30.1929 489.307 19 475.5 19V21Z" fill="#3478F6"/>
<path d="M336.5 40C336.5 39.4477 336.052 39 335.5 39C334.948 39 334.5 39.4477 334.5 40H336.5ZM397.793 131.707C398.183 132.098 398.817 132.098 399.207 131.707L405.571 125.343C405.962 124.953 405.962 124.319 405.571 123.929C405.181 123.538 404.547 123.538 404.157 123.929L398.5 129.586L392.843 123.929C392.453 123.538 391.819 123.538 391.429 123.929C391.038 124.319 391.038 124.953 391.429 125.343L397.793 131.707ZM334.5 40V63.5H336.5V40H334.5ZM359.5 88.5H374.5V86.5H359.5V88.5ZM397.5 111.5V131H399.5V111.5H397.5ZM374.5 88.5C387.203 88.5 397.5 98.7975 397.5 111.5H399.5C399.5 97.6929 388.307 86.5 374.5 86.5V88.5ZM334.5 63.5C334.5 77.3071 345.693 88.5 359.5 88.5V86.5C346.797 86.5 336.5 76.2025 336.5 63.5H334.5Z" fill="#3478F6"/>
<path d="M128.5 246C128.5 246.552 128.948 247 129.5 247C130.052 247 130.5 246.552 130.5 246H128.5ZM130.207 118.293C129.817 117.902 129.183 117.902 128.793 118.293L122.429 124.657C122.038 125.047 122.038 125.681 122.429 126.071C122.819 126.462 123.453 126.462 123.843 126.071L129.5 120.414L135.157 126.071C135.547 126.462 136.181 126.462 136.571 126.071C136.962 125.681 136.962 125.047 136.571 124.657L130.207 118.293ZM130.5 246V119H128.5V246H130.5Z" fill="#3478F6"/>
<path d="M265 156C265.552 156 266 155.552 266 155C266 154.448 265.552 154 265 154V156ZM128.5 246C128.5 246.552 128.948 247 129.5 247C130.052 247 130.5 246.552 130.5 246H128.5ZM265 154H231.5V156H265V154ZM184.5 201H153.5V203H184.5V201ZM128.5 226V246H130.5V226H128.5ZM153.5 201C139.693 201 128.5 212.193 128.5 226H130.5C130.5 213.297 140.797 203 153.5 203V201ZM207 178.5C207 190.926 196.926 201 184.5 201V203C198.031 203 209 192.031 209 178.5H207ZM231.5 154C217.969 154 207 164.969 207 178.5H209C209 166.074 219.074 156 231.5 156V154Z" fill="#3478F6"/>
<path d="M263 269C262.448 269 262 269.448 262 270C262 270.552 262.448 271 263 271V269ZM535.707 270.707C536.098 270.317 536.098 269.683 535.707 269.293L529.343 262.929C528.953 262.538 528.319 262.538 527.929 262.929C527.538 263.319 527.538 263.953 527.929 264.343L533.586 270L527.929 275.657C527.538 276.047 527.538 276.681 527.929 277.071C528.319 277.462 528.953 277.462 529.343 277.071L535.707 270.707ZM263 271H535V269H263V271Z" fill="#3478F6"/>
<path d="M532 154C531.448 154 531 154.448 531 155C531 155.552 531.448 156 532 156V154ZM667.793 246.707C668.183 247.098 668.817 247.098 669.207 246.707L675.571 240.343C675.962 239.953 675.962 239.319 675.571 238.929C675.181 238.538 674.547 238.538 674.157 238.929L668.5 244.586L662.843 238.929C662.453 238.538 661.819 238.538 661.429 238.929C661.038 239.319 661.038 239.953 661.429 240.343L667.793 246.707ZM532 156H644.5V154H532V156ZM667.5 179V246H669.5V179H667.5ZM644.5 156C657.203 156 667.5 166.297 667.5 179H669.5C669.5 165.193 658.307 154 644.5 154V156Z" fill="#3478F6"/>
</svg>
