<svg width="146" height="191" viewBox="0 0 146 191" fill="none" xmlns="http://www.w3.org/2000/svg">
<path d="M104.596 103.705C104.482 103.732 104.895 105.919 105.521 108.589C106.146 111.26 106.746 113.403 106.861 113.376C106.975 113.35 106.562 111.163 105.936 108.492C105.311 105.822 104.711 103.678 104.596 103.705Z" fill="#DADBD8"/>
<path d="M36.0003 171.417C35.9471 171.522 44.4629 175.944 55.0179 181.293C65.5763 186.644 74.1762 190.896 74.2292 190.791C74.283 190.686 65.7692 186.264 55.2103 180.913C44.6552 175.564 36.0535 171.311 36.0003 171.417Z" fill="#DADBD8"/>
<path d="M96.7158 52.9658C96.4997 53.2515 84.0879 72.9445 84.0879 72.9445L70.1312 58.3387L62.9933 68.6474C62.9933 68.6474 77.9184 89.7141 80.1075 90.4763C82.2966 91.2368 89.3617 90.0383 89.3617 90.0383L99.2168 77.0297L96.7158 52.9658Z" fill="#70A2FF"/>
<path d="M83.9806 77.4931C84.0952 77.4997 84.245 76.4813 84.2475 75.2197C84.2499 73.968 84.2082 72.9503 84.0878 72.9446C83.9732 72.9381 83.8226 73.9557 83.8209 75.2172C83.8185 76.469 83.8594 77.4866 83.9806 77.4931Z" fill="#17282F"/>
<path d="M128.275 38.2805L130.419 43.5708C130.419 43.5708 141.428 52.8643 142.429 54.2945C143.431 55.7239 134.566 102.049 134.566 102.049C134.566 102.049 135.138 170.108 134.566 170.108C133.993 170.108 126.416 172.539 110.831 171.394C95.2456 170.251 92.386 168.678 92.386 168.678L97.2481 108.484L104.685 68.0202L117.447 51.5773L128.275 38.2805Z" fill="#70A2FF"/>
<path d="M103.189 61.2475C103.189 61.2475 104.817 53.394 104.685 53.1509C104.553 52.9069 108.354 43.6306 108.354 43.6306L109.628 39.3997L126.98 36.464L127.823 39.0862L104.685 68.3224L102.315 80.8701L99.8645 77.4489L103.189 61.2475Z" fill="white"/>
<path d="M87.7078 120.344L91.4753 75.0575L94.5616 57.3874C94.9759 53.8647 97.3369 50.3125 97.3369 50.3125L106.37 45.0951C106.37 45.0951 108.816 42.0873 108.95 41.6477L104.684 52.5425L103.189 61.2474L102.259 81.2188L97.332 108.023L92.5223 166.988L82.0581 164.945L87.7078 120.344Z" fill="#70A2FF"/>
<path d="M101.889 67.5864L99.8641 52.7293L106.37 45.0952L108.95 41.6478L104.95 53.1509L101.889 67.5864Z" fill="#5A81CB"/>
<path d="M130.418 43.5708L116.845 60.3887L104.684 68.0203L128.274 38.2806L130.418 43.5708Z" fill="#5A81CB"/>
<path d="M142.429 54.2945C142.429 54.2945 145.276 58.7808 145.729 63.3669C145.907 65.1655 141.438 98.8316 140.933 100.346C140.429 101.861 134.497 105.647 132.729 106.404C130.962 107.161 109.381 114.356 100.546 114.229L98.6529 97.57L121.37 93.7837C121.37 93.7837 124.022 91.2597 125.409 90.7538L127.303 72.2012L130.079 57.3088C130.079 57.3088 137.994 52.4156 142.429 54.2945Z" fill="#70A2FF"/>
<path d="M91.3732 74.4591C91.4878 74.4853 92.7101 69.5594 94.1026 63.4587C95.496 57.3564 96.5324 52.3887 96.417 52.3625C96.3024 52.3363 95.0801 57.2606 93.6868 63.3637C92.2942 69.4653 91.2578 74.4329 91.3732 74.4591Z" fill="#17282F"/>
<path d="M128.423 70.5556C128.423 70.5556 128.392 70.6727 128.35 70.9036C128.308 71.1524 128.251 71.4938 128.176 71.9326C128.029 72.8594 127.817 74.1954 127.543 75.9154C127.007 79.4054 126.234 84.4468 125.268 90.7333L125.36 90.6195C124.581 90.9339 123.921 91.4415 123.245 91.9605C122.575 92.4885 121.917 93.0591 121.263 93.6691L121.345 93.6281C114.829 94.703 107.108 95.9752 98.6208 97.3743L98.4358 97.4046L98.4571 97.5921C99.0449 102.8 99.6785 108.417 100.337 114.253L100.358 114.442L100.543 114.439C104.654 114.385 108.831 113.477 113.042 112.49C118.283 111.235 123.327 109.743 128.162 108.195C129.369 107.801 130.564 107.409 131.741 106.99C132.944 106.619 134.053 105.977 135.088 105.345C136.134 104.705 137.145 104.036 138.114 103.328C139.071 102.602 140.032 101.903 140.8 100.95C140.999 100.729 141.147 100.378 141.187 100.1C141.255 99.8025 141.303 99.5176 141.349 99.2343C141.441 98.6654 141.531 98.0989 141.622 97.5381C141.789 96.414 141.954 95.3047 142.116 94.2118C142.42 92.0243 142.716 89.9007 143.001 87.8475C143.557 83.7386 144.054 79.9089 144.487 76.4099C144.92 72.9109 145.297 69.7435 145.581 66.956C145.644 66.2576 145.724 65.5872 145.765 64.9347C145.805 64.2969 145.894 63.6371 145.778 63.0411C145.582 61.8524 145.312 60.7824 145.008 59.8409C144.404 57.9564 143.737 56.5671 143.248 55.651C143.005 55.1917 142.799 54.852 142.659 54.626C142.517 54.4001 142.429 54.2945 142.429 54.2945C142.429 54.2945 142.492 54.4156 142.621 54.6481C142.749 54.8814 142.942 55.2261 143.172 55.6903C143.634 56.6162 144.274 58.0104 144.85 59.89C145.139 60.8291 145.395 61.8933 145.577 63.073C145.685 63.66 145.59 64.2634 145.545 64.9175C145.498 65.5642 145.413 66.2355 145.345 66.9314C145.038 69.7132 144.64 72.8766 144.189 76.3723C143.718 79.8671 143.203 83.6928 142.651 87.7992C142.359 89.8508 142.057 91.9728 141.745 94.1586C141.58 95.2491 141.413 96.3559 141.242 97.4775C141.151 98.0375 141.059 98.5999 140.966 99.1664C140.919 99.4513 140.871 99.7345 140.808 100.001C140.755 100.292 140.673 100.497 140.485 100.715C139.787 101.581 138.819 102.297 137.878 103.003C136.919 103.702 135.913 104.364 134.876 104.997C133.831 105.63 132.789 106.236 131.602 106.602C130.433 107.016 129.238 107.405 128.034 107.797C123.206 109.337 118.167 110.824 112.943 112.076C108.749 113.06 104.573 113.962 100.55 114.019L100.755 114.205C100.087 108.37 99.4444 102.755 98.8492 97.5471L98.6855 97.764C107.168 96.3354 114.884 95.0354 121.397 93.9384L121.444 93.9302L121.479 93.8966C122.121 93.2933 122.774 92.7202 123.432 92.1963C124.09 91.6821 124.755 91.1754 125.458 90.8897L125.539 90.8553L125.551 90.7751C126.462 84.4811 127.193 79.4333 127.699 75.9384C127.94 74.2143 128.126 72.8741 128.257 71.9449C128.314 71.5028 128.358 71.1598 128.391 70.9093C128.419 70.6768 128.423 70.5556 128.423 70.5556Z" fill="#17282F"/>
<path d="M129.761 65.5551C129.819 65.5797 130.197 64.7929 130.809 63.5305C131.43 62.278 132.288 60.5277 133.646 58.9018C135.002 57.2808 136.672 56.2379 137.978 55.8056C139.288 55.3537 140.178 55.4094 140.174 55.3275C140.175 55.3021 139.958 55.2636 139.557 55.262C139.159 55.2596 138.578 55.3226 137.887 55.5174C136.503 55.8924 134.726 56.9444 133.319 58.6276C131.917 60.3099 131.089 62.1151 130.535 63.4053C129.989 64.7078 129.711 65.533 129.761 65.5551Z" fill="#17282F"/>
<path d="M133.395 93.8524C133.486 93.8009 132.171 92.1987 129.85 91.3236C127.537 90.4222 125.488 90.7341 125.522 90.8332C125.519 90.9674 127.49 90.8578 129.697 91.7214C131.914 92.554 133.307 93.954 133.395 93.8524Z" fill="#17282F"/>
<path d="M130.818 96.4869C130.922 96.4747 130.391 94.5762 128.729 92.8971C127.082 91.2 125.195 90.631 125.182 90.7342C125.123 90.8553 126.857 91.5733 128.424 93.1951C130.012 94.7948 130.697 96.5434 130.818 96.4869Z" fill="#17282F"/>
<path d="M104.685 68.0202C104.697 68.0406 105.028 67.8605 105.625 67.5093C106.272 67.1213 107.128 66.6071 108.178 65.9768C110.398 64.6063 113.434 62.7324 116.953 60.5605L116.98 60.5433L117.002 60.5154C118.271 58.9502 119.649 57.2481 121.082 55.479C124.836 50.8265 128.202 46.6161 130.533 43.6624L130.587 43.5936L130.555 43.5158C129.879 41.9235 129.328 40.6243 128.92 39.6607C128.736 39.2473 128.584 38.9076 128.46 38.6284C128.351 38.3951 128.288 38.2747 128.274 38.2805C128.261 38.2862 128.298 38.4155 128.384 38.6595C128.488 38.946 128.616 39.2964 128.772 39.7205C129.149 40.6963 129.659 42.0136 130.284 43.6255L130.305 43.479C127.91 46.3812 124.505 50.5588 120.75 55.2113C119.323 56.9854 117.95 58.6915 116.687 60.2617L116.737 60.2174C113.25 62.4409 110.244 64.3599 108.045 65.7631C107.02 66.4344 106.185 66.9813 105.553 67.3955C104.978 67.7819 104.673 68.0005 104.685 68.0202Z" fill="#17282F"/>
<path d="M102.703 71.1794C102.73 71.1753 102.699 70.7881 102.619 70.0857C102.521 69.3104 102.394 68.31 102.241 67.1041C101.905 64.5777 101.409 61.0656 100.828 57.1147L100.804 57.2457C101.062 56.7668 101.335 56.26 101.612 55.7459C103.69 51.8802 105.55 48.3697 106.878 45.8179C107.507 44.5916 108.03 43.5715 108.431 42.7864C108.79 42.066 108.976 41.6616 108.95 41.6476C108.923 41.6337 108.688 42.012 108.286 42.7078C107.852 43.4765 107.29 44.4745 106.613 45.6755C105.217 48.1904 103.315 51.6788 101.237 55.5445C100.961 56.0586 100.688 56.5654 100.43 57.0451L100.397 57.1073L100.408 57.1761C101.001 61.1262 101.548 64.6309 101.959 67.1458C102.164 68.3444 102.334 69.3382 102.466 70.1086C102.593 70.8036 102.675 71.1835 102.703 71.1794Z" fill="#17282F"/>
<path d="M97.6595 106.495C97.6448 106.494 97.6063 106.706 97.5465 107.109C97.4868 107.555 97.4057 108.143 97.3058 108.878C97.1045 110.416 96.8367 112.643 96.524 115.398C95.8969 120.907 95.1167 128.528 94.4037 136.959C93.6922 145.392 93.183 153.036 92.876 158.572C92.7221 161.341 92.6124 163.582 92.5535 165.131C92.5289 165.873 92.5093 166.467 92.4937 166.915C92.4847 167.324 92.4872 167.538 92.5027 167.539C92.5166 167.54 92.5437 167.327 92.5797 166.92C92.6141 166.472 92.6607 165.88 92.7189 165.14C92.8302 163.547 92.9865 161.323 93.1765 158.592C93.5612 153.062 94.1171 145.424 94.8286 136.995C95.5416 128.568 96.2735 120.945 96.8236 115.43C97.093 112.706 97.3132 110.485 97.4704 108.897C97.5375 108.157 97.5916 107.567 97.6317 107.119C97.6636 106.712 97.6742 106.497 97.6595 106.495Z" fill="#17282F"/>
<path d="M108.163 125.705C108.144 125.728 108.342 125.917 108.716 126.237C109.091 126.558 109.642 127.01 110.336 127.554C111.723 128.638 113.678 130.105 116.017 131.458C117.19 132.129 118.351 132.692 119.434 133.14C120.526 133.568 121.531 133.902 122.397 134.093C123.259 134.296 123.969 134.414 124.463 134.448C124.955 134.491 125.228 134.501 125.231 134.471C125.241 134.394 124.156 134.276 122.473 133.802C121.63 133.575 120.652 133.218 119.586 132.778C118.527 132.317 117.389 131.751 116.229 131.088C113.918 129.751 111.947 128.332 110.517 127.313C109.088 126.287 108.2 125.656 108.163 125.705Z" fill="#17282F"/>
<path d="M106.912 128.891C106.889 128.91 107.046 129.144 107.353 129.554C107.653 129.969 108.134 130.533 108.769 131.193C110.032 132.515 112.003 134.153 114.478 135.476C116.958 136.792 119.418 137.512 121.221 137.822C122.122 137.98 122.86 138.065 123.371 138.083C123.881 138.107 124.164 138.106 124.165 138.078C124.172 138.001 123.047 137.913 121.28 137.527C119.515 137.144 117.115 136.392 114.679 135.099C112.247 133.8 110.283 132.231 108.981 130.978C107.673 129.728 106.973 128.844 106.912 128.891Z" fill="#17282F"/>
<path d="M124.409 138.368C124.527 138.38 124.724 137.376 124.851 136.126C124.978 134.876 124.985 133.853 124.869 133.84C124.751 133.83 124.554 134.832 124.427 136.083C124.301 137.333 124.292 138.356 124.409 138.368Z" fill="#17282F"/>
<path d="M126.371 29.8679C126.953 29.9113 127.493 29.466 127.783 28.9125C128.074 28.3599 128.166 27.7124 128.253 27.0812C128.636 24.292 129.021 21.5036 129.405 18.7152C129.73 16.3509 130.057 13.9711 129.984 11.5822C129.911 9.19331 128.956 7.08279 127.882 5.01484C126.62 2.58749 121.513 -1.6933 113.033 0.707846" fill="#17282F"/>
<path d="M126.807 19.836C126.92 19.7901 131.336 18.5875 131.11 23.0673C130.884 27.547 126.433 26.396 126.432 26.2666C126.431 26.1381 126.807 19.836 126.807 19.836Z" fill="#D2E0F9"/>
<path d="M127.885 24.6391C127.907 24.626 127.961 24.6972 128.09 24.7651C128.216 24.8298 128.435 24.8814 128.672 24.8061C129.154 24.6563 129.591 23.9252 129.654 23.1188C129.686 22.7111 129.62 22.319 129.492 21.9899C129.371 21.6559 129.171 21.416 128.935 21.3611C128.701 21.2948 128.525 21.4291 128.463 21.5519C128.397 21.6747 128.421 21.7647 128.396 21.7721C128.384 21.7819 128.305 21.6919 128.35 21.5085C128.372 21.4209 128.431 21.3177 128.54 21.2367C128.652 21.1548 128.812 21.118 128.977 21.145C129.321 21.1859 129.617 21.5191 129.758 21.8802C129.918 22.2436 130.001 22.6849 129.965 23.1426C129.891 24.0439 129.386 24.8658 128.729 25.0198C128.41 25.0861 128.152 24.978 128.021 24.8658C127.888 24.7479 127.87 24.6456 127.885 24.6391Z" fill="white"/>
<path d="M103.775 28.1684C103.796 25.001 104.365 18.4844 104.951 12.5908C105.579 6.25349 110.968 1.46101 117.336 1.57808L117.968 1.58955C124.783 2.11432 128.144 8.19455 127.432 14.9919L126.475 36.6711L110.22 45.5896L110.274 35.8671C110.274 35.8671 103.735 34.7259 103.775 28.1684Z" fill="#D2E0F9"/>
<path d="M110.267 35.8623C110.267 35.8623 114.405 36.2765 118.86 33.5913C118.86 33.5913 116.797 38.3461 110.265 37.6347L110.267 35.8623Z" fill="white"/>
<path d="M107.119 16.8845C107.093 17.3782 107.489 17.808 108.005 17.8456C108.52 17.8825 108.959 17.5132 108.986 17.0196C109.013 16.5251 108.616 16.0945 108.101 16.0568C107.587 16.02 107.146 16.39 107.119 16.8845Z" fill="#17282F"/>
<path d="M106.209 15.4757C106.323 15.6002 107.041 15.0885 108.049 15.1098C109.056 15.1164 109.786 15.6485 109.898 15.5265C109.952 15.4733 109.838 15.2506 109.52 15.0099C109.208 14.7709 108.671 14.5335 108.043 14.5253C107.416 14.5171 106.883 14.7381 106.576 14.969C106.261 15.2007 106.153 15.4201 106.209 15.4757Z" fill="#17282F"/>
<path d="M116.913 17.0885C116.887 17.583 117.283 18.0128 117.798 18.0496C118.313 18.0873 118.753 17.7181 118.779 17.2236C118.806 16.7299 118.409 16.2993 117.895 16.2616C117.379 16.224 116.939 16.5948 116.913 17.0885Z" fill="#17282F"/>
<path d="M116.254 15.3776C116.354 15.5135 117.126 15.0828 118.125 15.213C119.123 15.3284 119.792 15.9367 119.916 15.8278C119.976 15.7804 119.888 15.547 119.597 15.2736C119.313 15.0018 118.805 14.7079 118.182 14.631C117.559 14.5548 117.005 14.7177 116.674 14.9134C116.337 15.1107 116.205 15.3162 116.254 15.3776Z" fill="#17282F"/>
<path d="M112.406 23.5977C112.412 23.5404 111.787 23.42 110.775 23.2718C110.519 23.2407 110.277 23.1851 110.236 23.0082C110.179 22.8216 110.291 22.5465 110.422 22.2493C110.675 21.6312 110.94 20.9829 111.219 20.3042C112.327 17.5338 113.134 15.2546 113.022 15.2113C112.909 15.167 111.921 17.3775 110.813 20.147C110.546 20.8298 110.291 21.4814 110.047 22.1044C109.945 22.3951 109.771 22.7233 109.896 23.1114C109.961 23.3054 110.147 23.4487 110.312 23.4953C110.476 23.5494 110.62 23.5543 110.748 23.5641C111.768 23.6386 112.401 23.655 112.406 23.5977Z" fill="#17282F"/>
<path d="M115.359 24.3493C115.194 24.3362 115.173 25.43 114.223 26.1889C113.274 26.9502 112.111 26.8061 112.098 26.9592C112.083 27.0272 112.355 27.1762 112.846 27.1991C113.329 27.2245 114.036 27.082 114.617 26.6178C115.198 26.152 115.456 25.5216 115.501 25.0738C115.551 24.617 115.434 24.3444 115.359 24.3493Z" fill="#17282F"/>
<path d="M116.196 11.0279C116.29 11.3037 117.3 11.1924 118.478 11.3569C119.661 11.4969 120.609 11.8613 120.77 11.6181C120.842 11.5019 120.681 11.2407 120.3 10.9681C119.923 10.6971 119.318 10.4343 118.609 10.3418C117.901 10.2509 117.25 10.3524 116.816 10.5195C116.379 10.6856 116.156 10.8969 116.196 11.0279Z" fill="#17282F"/>
<path d="M106.725 12.9126C106.898 13.1451 107.596 12.92 108.432 12.9241C109.266 12.8995 109.97 13.1067 110.137 12.8701C110.21 12.7555 110.103 12.5238 109.799 12.3011C109.497 12.08 108.992 11.8942 108.418 11.9008C107.845 11.9089 107.344 12.1071 107.049 12.3363C106.75 12.5655 106.648 12.7996 106.725 12.9126Z" fill="#17282F"/>
<path d="M112.539 0.879698C114.858 -0.0331154 117.206 0.448273 119.671 0.810123C121.626 1.09584 123.328 1.72375 124.916 2.8969C127.408 4.73726 128.643 7.6689 128.776 10.7635C128.908 13.8588 128.588 16.6014 127.807 19.5993L127.564 19.5437C127.714 20.2993 127.861 21.1008 127.599 21.8253C127.335 22.549 126.494 23.1221 125.789 22.8126C124.964 22.4508 124.937 21.3128 125.012 20.4155C125.267 17.357 125.221 14.3787 125.048 11.3136C124.919 9.04837 123.627 6.27553 121.86 5.20144C118.643 3.06063 114.457 4.80848 113.033 5.05654C110.855 3.18916 108.815 4.64966 107.482 6.27062C107.969 3.8269 110.221 1.79169 112.539 0.879698Z" fill="#17282F"/>
<path d="M113.033 5.05658C111.598 5.0705 110.452 4.09057 108.85 4.35172C107.884 4.50972 106.912 6.08565 106.069 8.05127C105.109 7.47083 104.558 6.27968 104.736 5.17203C104.915 4.06355 105.811 3.10653 106.905 2.8552C106.505 3.06969 106.081 3.2899 105.628 3.2727C105.174 3.25551 104.701 2.90104 104.727 2.44914C104.747 2.12085 105.006 1.86296 105.263 1.6583C106.699 0.511343 108.6 -0.0355167 110.425 0.173243C112.252 0.382822 113.98 1.34557 115.119 2.78724" fill="#17282F"/>
<path d="M105.638 2.34441C105.679 2.40253 106.103 2.09717 106.876 1.85484C107.638 1.60924 108.796 1.47662 109.951 1.87531C111.105 2.27728 111.933 3.0984 112.379 3.76316C112.838 4.43283 112.98 4.93466 113.049 4.91419C113.094 4.90764 113.055 4.36159 112.636 3.6035C112.229 2.85606 111.365 1.91623 110.091 1.47169C108.816 1.03289 107.556 1.23594 106.774 1.57159C105.976 1.90642 105.607 2.31084 105.638 2.34441Z" fill="#33535F"/>
<path d="M105.942 7.28577C106.018 7.26612 105.74 6.6857 105.932 5.76224C106.029 5.30952 106.249 4.78476 106.649 4.3304C107.044 3.87522 107.637 3.51337 108.316 3.32999C109.705 2.94931 111.019 3.44132 111.809 3.93661C112.617 4.44009 113.018 4.90346 113.07 4.85515C113.107 4.82814 112.786 4.28536 111.976 3.68528C111.571 3.39383 111.036 3.09585 110.384 2.92229C109.736 2.74382 108.966 2.71762 108.206 2.9182C107.449 3.12123 106.785 3.54119 106.35 4.07578C105.913 4.6071 105.702 5.20636 105.634 5.71148C105.507 6.74955 105.916 7.31852 105.942 7.28577Z" fill="#33535F"/>
<path d="M129.265 18.0758C129.292 18.0808 129.361 17.8695 129.436 17.4774C129.513 17.0853 129.581 16.5081 129.585 15.7901C129.602 14.3632 129.279 12.337 128.225 10.3902C127.173 8.4426 125.656 7.06233 124.452 6.29524C123.85 5.90555 123.329 5.64604 122.959 5.4954C122.59 5.34313 122.375 5.28582 122.365 5.31038C122.334 5.37751 123.146 5.72054 124.281 6.5433C125.412 7.3546 126.839 8.71931 127.851 10.5924C128.864 12.4663 129.223 14.4066 129.283 15.7967C129.35 17.1966 129.192 18.0644 129.265 18.0758Z" fill="#33535F"/>
<path d="M128.265 18.8994C128.36 18.9403 128.799 16.6366 127.898 13.9775C127.025 11.3079 125.292 9.72785 125.24 9.81708C125.131 9.89977 126.658 11.5477 127.493 14.1118C128.362 16.6636 128.128 18.8985 128.265 18.8994Z" fill="#33535F"/>
<path d="M54.1646 56.3797C54.3561 55.8779 55.3009 55.7682 55.3009 55.7682L55.1118 55.4833C54.8416 55.0764 54.8031 54.5566 55.0176 54.1177L55.1257 53.9147C55.4351 53.3875 56.2194 53.1272 56.2194 53.1272C56.2194 53.1272 55.5252 52.1816 55.6955 51.7142C55.9206 51.0952 56.9595 50.3077 57.8363 50.4567C58.79 50.6196 60.8555 51.2541 62.2989 51.7878C62.8678 51.999 63.4884 51.6536 63.6104 51.06C63.8429 49.927 64.2931 48.1873 65.0438 46.929C65.8609 45.5586 66.8236 45.5087 67.404 45.6356C67.6848 45.6961 67.8429 45.9933 67.7332 46.2585C67.4221 47.0134 66.8179 48.523 66.6902 49.1419C66.5379 49.8811 67.07 55.2082 67.07 55.2082L69.7749 58.8521L63.6357 67.7183L60.9382 63.7076L55.1453 61.1558C55.1453 61.1558 54.05 59.7772 54.167 59.304C54.2841 58.8316 54.736 58.5402 54.736 58.5402L54.0196 57.5299C54.0196 57.5299 53.9722 56.8824 54.1646 56.3797Z" fill="#D2E0F9"/>
<path d="M55.702 53.2392C55.6995 53.2433 55.7405 53.2703 55.8215 53.3186C55.9157 53.3734 56.0344 53.4406 56.1776 53.5232C56.5067 53.7058 56.9537 53.9531 57.4989 54.2543C58.0638 54.5613 58.7302 54.9223 59.4662 55.3227C59.8412 55.5167 60.2153 55.7484 60.65 55.9277C61.0741 56.1021 61.6258 56.179 62.0777 55.8941C62.298 55.7517 62.447 55.52 62.5125 55.2801C62.5796 55.0386 62.5755 54.7889 62.5256 54.5556C62.4249 54.0799 62.104 53.714 61.7789 53.443C61.4474 53.1704 61.0962 52.9698 60.7761 52.7766C60.4552 52.5851 60.1564 52.4066 59.8805 52.242C59.3442 51.9269 58.9038 51.6673 58.5796 51.4766C58.4347 51.3955 58.3168 51.3284 58.2218 51.2744C58.1391 51.2302 58.0949 51.2081 58.0925 51.2122C58.0908 51.2162 58.1293 51.2457 58.2079 51.2981C58.2988 51.3579 58.4126 51.4316 58.5518 51.5224C58.871 51.7222 59.3033 51.9932 59.8313 52.3247C60.1039 52.4934 60.4003 52.6767 60.718 52.8724C61.0356 53.0705 61.3811 53.2727 61.6995 53.5388C62.0114 53.8049 62.3062 54.1487 62.3946 54.5842C62.492 55.005 62.3929 55.5265 62.0032 55.7803C61.8117 55.9031 61.58 55.9539 61.3549 55.9481C61.1273 55.9449 60.907 55.8859 60.6983 55.8049C60.2832 55.6354 59.9001 55.4029 59.5251 55.2122C58.7834 54.8217 58.1138 54.4696 57.544 54.1692C56.9906 53.8835 56.5362 53.6493 56.2022 53.4766C56.054 53.4029 55.932 53.3431 55.8346 53.2948C55.7494 53.2539 55.7036 53.2351 55.702 53.2392Z" fill="white"/>
<path d="M54.9194 55.9007C54.9153 55.9089 55.0135 55.9678 55.1944 56.066C55.3762 56.1643 55.6414 56.301 55.9738 56.4623C56.6353 56.7865 57.5645 57.2089 58.6107 57.6248C58.8727 57.7271 59.1265 57.8352 59.3901 57.9039C59.6521 57.9735 59.928 57.9965 60.1785 57.9293C60.6836 57.7885 60.9914 57.3563 61.0455 56.9772C61.1011 56.5908 60.962 56.2887 60.8424 56.1209C60.781 56.0349 60.7196 55.9793 60.6795 55.9424L60.6083 55.8974C60.5993 55.9064 60.691 55.9776 60.7974 56.1496C60.8997 56.3182 61.0143 56.6096 60.9513 56.9608C60.8907 57.303 60.5985 57.6895 60.1466 57.8082C59.9239 57.8647 59.6726 57.8434 59.4237 57.7754C59.1748 57.7083 58.9226 57.601 58.6607 57.4987C57.6169 57.0837 56.686 56.676 56.0131 56.3755C55.6979 56.2339 55.431 56.1143 55.2182 56.0186C55.0291 55.9351 54.9226 55.8917 54.9194 55.9007Z" fill="white"/>
<path d="M54.6134 58.4263C54.6118 58.4353 54.7108 58.473 54.8909 58.5352C55.0997 58.6023 55.3576 58.685 55.6597 58.7824C56.3113 58.9863 57.2127 59.2581 58.2114 59.5511C58.4611 59.6224 58.7035 59.7026 58.9532 59.7452C59.2004 59.7877 59.4599 59.7804 59.6842 59.6903C59.9069 59.6052 60.0919 59.4292 60.1607 59.2204C60.2327 59.0149 60.2114 58.8078 60.1549 58.6391C60.033 58.2953 59.7849 58.1168 59.6269 58.0145C59.4616 57.9138 59.3584 57.8819 59.3559 57.8884C59.351 57.8983 59.446 57.9466 59.5966 58.0579C59.7423 58.1701 59.9667 58.3551 60.0641 58.6686C60.1091 58.8225 60.1206 59.0084 60.0551 59.1827C59.992 59.3563 59.8365 59.5004 59.6384 59.5741C59.4403 59.6502 59.2094 59.6559 58.9753 59.6134C58.7403 59.5733 58.5004 59.4922 58.2491 59.421C57.2503 59.1279 56.3449 58.8708 55.6867 58.6907C55.3789 58.6089 55.1185 58.5401 54.9057 58.4836C54.7198 58.4386 54.6167 58.4173 54.6134 58.4263Z" fill="white"/>
<path d="M54.5837 60.7316C54.5829 60.7504 54.917 60.7823 55.4565 60.8192C55.9951 60.856 56.7409 60.8977 57.5645 60.9346C57.77 60.9436 57.9706 60.9526 58.1654 60.9608C58.3594 60.969 58.5535 60.9772 58.7401 60.9403C58.9251 60.9051 59.0971 60.8175 59.2108 60.6841C59.3287 60.5523 59.3639 60.373 59.3353 60.2289C59.2665 59.9366 59.0594 59.7885 58.926 59.7189C58.7851 59.6493 58.6959 59.6509 58.6959 59.6575C58.6926 59.6689 58.7761 59.6853 58.9006 59.7647C59.0176 59.8417 59.1953 59.9972 59.2403 60.2453C59.2575 60.3664 59.2256 60.504 59.1265 60.6096C59.0291 60.7168 58.8809 60.7897 58.7164 60.8183C58.5494 60.8478 58.366 60.838 58.172 60.8282C57.9771 60.8192 57.7766 60.8093 57.5711 60.7995C56.7467 60.7619 56.0009 60.7356 55.4605 60.7234C54.9194 60.7111 54.5846 60.7127 54.5837 60.7316Z" fill="white"/>
<path d="M60.1326 58.77C60.1498 58.8093 60.7663 58.472 61.607 58.3861C62.4478 58.2903 63.1216 58.4884 63.1306 58.4458C63.1469 58.418 62.4658 58.1527 61.5931 58.251C60.718 58.341 60.1089 58.7463 60.1326 58.77Z" fill="white"/>
<path d="M98.7642 98.5492L97.4937 98.2168C97.4937 98.2168 97.045 96.0817 96.4834 95.6323C95.9218 95.1836 90.2967 92.6204 89.0622 91.9466C87.826 91.2729 82.9943 89.0715 82.3876 90.2413C81.7008 91.5659 83.668 92.654 84.7339 93.1591C85.8015 93.665 88.8461 94.8464 88.228 95.5766C87.6099 96.3069 80.8084 95.9753 80.8084 95.9753L79.9554 94.8316C79.9554 94.8316 78.4564 96.2504 78.625 97.4857C78.7937 98.7219 79.2988 99.5078 79.2988 99.5078H79.8039C79.8039 99.5078 79.2988 100.237 79.7482 100.968C80.1969 101.699 81.0957 102.653 81.0957 102.653C81.0957 102.653 81.8923 104.332 84.2967 104.99C84.5775 105.067 95.8154 106.043 95.8154 106.043L99.5747 106.421L98.7642 98.5492Z" fill="#D2E0F9"/>
<path d="M0 106H134L140 102.183V180H0V106Z" fill="white"/>
<g clip-path="url(#clip0_699_13967)">
<rect x="6" y="28" width="128" height="128" rx="32" fill="#3478F6"/>
<path d="M104.596 103.705C104.482 103.732 104.895 105.919 105.521 108.589C106.146 111.26 106.746 113.403 106.861 113.376C106.975 113.35 106.562 111.163 105.936 108.492C105.311 105.822 104.711 103.678 104.596 103.705Z" fill="#DADBD8"/>
<path d="M96.7158 52.9658C96.4997 53.2515 84.0879 72.9445 84.0879 72.9445L70.1312 58.3387L62.9933 68.6474C62.9933 68.6474 77.9184 89.7141 80.1075 90.4763C82.2966 91.2368 89.3617 90.0383 89.3617 90.0383L99.2168 77.0297L96.7158 52.9658Z" fill="#70A2FF"/>
<path d="M83.9806 77.4931C84.0952 77.4997 84.245 76.4813 84.2475 75.2197C84.2499 73.968 84.2082 72.9503 84.0878 72.9446C83.9732 72.9381 83.8226 73.9557 83.8209 75.2172C83.8185 76.469 83.8594 77.4866 83.9806 77.4931Z" fill="#17282F"/>
<path d="M128.275 38.2805L130.419 43.5708C130.419 43.5708 141.428 52.8643 142.429 54.2945C143.431 55.7239 134.566 102.049 134.566 102.049C134.566 102.049 135.138 170.108 134.566 170.108C133.993 170.108 126.416 172.539 110.831 171.394C95.2456 170.251 92.386 168.678 92.386 168.678L97.2481 108.484L104.685 68.0202L117.447 51.5773L128.275 38.2805Z" fill="#70A2FF"/>
<path d="M103.189 61.2475C103.189 61.2475 104.817 53.394 104.685 53.1509C104.553 52.9069 108.354 43.6306 108.354 43.6306L109.628 39.3997L126.98 36.464L127.823 39.0862L104.685 68.3224L102.315 80.8701L99.8645 77.4489L103.189 61.2475Z" fill="white"/>
<path d="M87.7078 120.344L91.4753 75.0575L94.5616 57.3874C94.9759 53.8647 97.3369 50.3125 97.3369 50.3125L106.37 45.0951C106.37 45.0951 108.816 42.0873 108.95 41.6477L104.684 52.5425L103.189 61.2474L102.259 81.2188L97.332 108.023L92.5223 166.988L82.0581 164.945L87.7078 120.344Z" fill="#70A2FF"/>
<path d="M101.889 67.5864L99.8641 52.7293L106.37 45.0952L108.95 41.6478L104.95 53.1509L101.889 67.5864Z" fill="#5A81CB"/>
<path d="M130.418 43.5708L116.845 60.3887L104.684 68.0203L128.274 38.2806L130.418 43.5708Z" fill="#5A81CB"/>
<path d="M142.429 54.2945C142.429 54.2945 145.276 58.7808 145.729 63.3669C145.907 65.1655 141.438 98.8316 140.933 100.346C140.429 101.861 134.497 105.647 132.729 106.404C130.962 107.161 109.381 114.356 100.546 114.229L98.6529 97.57L121.37 93.7837C121.37 93.7837 124.022 91.2597 125.409 90.7538L127.303 72.2012L130.079 57.3088C130.079 57.3088 137.994 52.4156 142.429 54.2945Z" fill="#70A2FF"/>
<path d="M91.3732 74.4591C91.4878 74.4853 92.7101 69.5594 94.1026 63.4587C95.496 57.3564 96.5324 52.3887 96.417 52.3625C96.3024 52.3363 95.0801 57.2606 93.6868 63.3637C92.2942 69.4653 91.2578 74.4329 91.3732 74.4591Z" fill="#17282F"/>
<path d="M128.423 70.5556C128.423 70.5556 128.392 70.6727 128.35 70.9036C128.308 71.1524 128.251 71.4938 128.176 71.9326C128.029 72.8594 127.817 74.1954 127.543 75.9154C127.007 79.4054 126.234 84.4468 125.268 90.7333L125.36 90.6195C124.581 90.9339 123.921 91.4415 123.245 91.9605C122.575 92.4885 121.917 93.0591 121.263 93.6691L121.345 93.6281C114.829 94.703 107.108 95.9752 98.6208 97.3743L98.4358 97.4046L98.4571 97.5921C99.0449 102.8 99.6785 108.417 100.337 114.253L100.358 114.442L100.543 114.439C104.654 114.385 108.831 113.477 113.042 112.49C118.283 111.235 123.327 109.743 128.162 108.195C129.369 107.801 130.564 107.409 131.741 106.99C132.944 106.619 134.053 105.977 135.088 105.345C136.134 104.705 137.145 104.036 138.114 103.328C139.071 102.602 140.032 101.903 140.8 100.95C140.999 100.729 141.147 100.378 141.187 100.1C141.255 99.8025 141.303 99.5176 141.349 99.2343C141.441 98.6654 141.531 98.0989 141.622 97.5381C141.789 96.414 141.954 95.3047 142.116 94.2118C142.42 92.0243 142.716 89.9007 143.001 87.8475C143.557 83.7386 144.054 79.9089 144.487 76.4099C144.92 72.9109 145.297 69.7435 145.581 66.956C145.644 66.2576 145.724 65.5872 145.765 64.9347C145.805 64.2969 145.894 63.6371 145.778 63.0411C145.582 61.8524 145.312 60.7824 145.008 59.8409C144.404 57.9564 143.737 56.5671 143.248 55.651C143.005 55.1917 142.799 54.852 142.659 54.626C142.517 54.4001 142.429 54.2945 142.429 54.2945C142.429 54.2945 142.492 54.4156 142.621 54.6481C142.749 54.8814 142.942 55.2261 143.172 55.6903C143.634 56.6162 144.274 58.0104 144.85 59.89C145.139 60.8291 145.395 61.8933 145.577 63.073C145.685 63.66 145.59 64.2634 145.545 64.9175C145.498 65.5642 145.413 66.2355 145.345 66.9314C145.038 69.7132 144.64 72.8766 144.189 76.3723C143.718 79.8671 143.203 83.6928 142.651 87.7992C142.359 89.8508 142.057 91.9728 141.745 94.1586C141.58 95.2491 141.413 96.3559 141.242 97.4775C141.151 98.0375 141.059 98.5999 140.966 99.1664C140.919 99.4513 140.871 99.7345 140.808 100.001C140.755 100.292 140.673 100.497 140.485 100.715C139.787 101.581 138.819 102.297 137.878 103.003C136.919 103.702 135.913 104.364 134.876 104.997C133.831 105.63 132.789 106.236 131.602 106.602C130.433 107.016 129.238 107.405 128.034 107.797C123.206 109.337 118.167 110.824 112.943 112.076C108.749 113.06 104.573 113.962 100.55 114.019L100.755 114.205C100.087 108.37 99.4444 102.755 98.8492 97.5471L98.6855 97.764C107.168 96.3354 114.884 95.0354 121.397 93.9384L121.444 93.9302L121.479 93.8966C122.121 93.2933 122.774 92.7202 123.432 92.1963C124.09 91.6821 124.755 91.1754 125.458 90.8897L125.539 90.8553L125.551 90.7751C126.462 84.4811 127.193 79.4333 127.699 75.9384C127.94 74.2143 128.126 72.8741 128.257 71.9449C128.314 71.5028 128.358 71.1598 128.391 70.9093C128.419 70.6768 128.423 70.5556 128.423 70.5556Z" fill="#17282F"/>
<path d="M129.761 65.5551C129.819 65.5797 130.197 64.7929 130.809 63.5305C131.43 62.278 132.288 60.5277 133.646 58.9018C135.002 57.2808 136.672 56.2379 137.978 55.8056C139.288 55.3537 140.178 55.4094 140.174 55.3275C140.175 55.3021 139.958 55.2636 139.557 55.262C139.159 55.2596 138.578 55.3226 137.887 55.5174C136.503 55.8924 134.726 56.9444 133.319 58.6276C131.917 60.3099 131.089 62.1151 130.535 63.4053C129.989 64.7078 129.711 65.533 129.761 65.5551Z" fill="#17282F"/>
<path d="M133.395 93.8524C133.486 93.8009 132.171 92.1987 129.85 91.3236C127.537 90.4222 125.488 90.7341 125.522 90.8332C125.519 90.9674 127.49 90.8578 129.697 91.7214C131.914 92.554 133.307 93.954 133.395 93.8524Z" fill="#17282F"/>
<path d="M130.818 96.4869C130.922 96.4747 130.391 94.5762 128.729 92.8971C127.082 91.2 125.195 90.631 125.182 90.7342C125.123 90.8553 126.857 91.5733 128.424 93.1951C130.012 94.7948 130.697 96.5434 130.818 96.4869Z" fill="#17282F"/>
<path d="M104.685 68.0202C104.697 68.0406 105.028 67.8605 105.625 67.5093C106.272 67.1213 107.128 66.6071 108.178 65.9768C110.398 64.6063 113.434 62.7324 116.953 60.5605L116.98 60.5433L117.002 60.5154C118.271 58.9502 119.649 57.2481 121.082 55.479C124.836 50.8265 128.202 46.6161 130.533 43.6624L130.587 43.5936L130.555 43.5158C129.879 41.9235 129.328 40.6243 128.92 39.6607C128.736 39.2473 128.584 38.9076 128.46 38.6284C128.351 38.3951 128.288 38.2747 128.274 38.2805C128.261 38.2862 128.298 38.4155 128.384 38.6595C128.488 38.946 128.616 39.2964 128.772 39.7205C129.149 40.6963 129.659 42.0136 130.284 43.6255L130.305 43.479C127.91 46.3812 124.505 50.5588 120.75 55.2113C119.323 56.9854 117.95 58.6915 116.687 60.2617L116.737 60.2174C113.25 62.4409 110.244 64.3599 108.045 65.7631C107.02 66.4344 106.185 66.9813 105.553 67.3955C104.978 67.7819 104.673 68.0005 104.685 68.0202Z" fill="#17282F"/>
<path d="M102.703 71.1794C102.73 71.1753 102.699 70.7881 102.619 70.0857C102.521 69.3104 102.394 68.31 102.241 67.1041C101.905 64.5777 101.409 61.0656 100.828 57.1147L100.804 57.2457C101.062 56.7668 101.335 56.26 101.612 55.7459C103.69 51.8802 105.55 48.3697 106.878 45.8179C107.507 44.5916 108.03 43.5715 108.431 42.7864C108.79 42.066 108.976 41.6616 108.95 41.6476C108.923 41.6337 108.688 42.012 108.286 42.7078C107.852 43.4765 107.29 44.4745 106.613 45.6755C105.217 48.1904 103.315 51.6788 101.237 55.5445C100.961 56.0586 100.688 56.5654 100.43 57.0451L100.397 57.1073L100.408 57.1761C101.001 61.1262 101.548 64.6309 101.959 67.1458C102.164 68.3444 102.334 69.3382 102.466 70.1086C102.593 70.8036 102.675 71.1835 102.703 71.1794Z" fill="#17282F"/>
<path d="M97.6595 106.495C97.6448 106.494 97.6063 106.706 97.5465 107.109C97.4868 107.555 97.4057 108.143 97.3058 108.878C97.1045 110.416 96.8367 112.643 96.524 115.398C95.8969 120.907 95.1167 128.528 94.4037 136.959C93.6922 145.392 93.183 153.036 92.876 158.572C92.7221 161.341 92.6124 163.582 92.5535 165.131C92.5289 165.873 92.5093 166.467 92.4937 166.915C92.4847 167.324 92.4872 167.538 92.5027 167.539C92.5166 167.54 92.5437 167.327 92.5797 166.92C92.6141 166.472 92.6607 165.88 92.7189 165.14C92.8302 163.547 92.9865 161.323 93.1765 158.592C93.5612 153.062 94.1171 145.424 94.8286 136.995C95.5416 128.568 96.2735 120.945 96.8236 115.43C97.093 112.706 97.3132 110.485 97.4704 108.897C97.5375 108.157 97.5916 107.567 97.6317 107.119C97.6636 106.712 97.6742 106.497 97.6595 106.495Z" fill="#17282F"/>
<path d="M108.163 125.705C108.144 125.728 108.342 125.917 108.716 126.237C109.091 126.558 109.642 127.01 110.336 127.554C111.723 128.638 113.678 130.105 116.017 131.458C117.19 132.129 118.351 132.692 119.434 133.14C120.526 133.568 121.531 133.902 122.397 134.093C123.259 134.296 123.969 134.414 124.463 134.448C124.955 134.491 125.228 134.501 125.231 134.471C125.241 134.394 124.156 134.276 122.473 133.802C121.63 133.575 120.652 133.218 119.586 132.778C118.527 132.317 117.389 131.751 116.229 131.088C113.918 129.751 111.947 128.332 110.517 127.313C109.088 126.287 108.2 125.656 108.163 125.705Z" fill="#17282F"/>
<path d="M106.912 128.891C106.889 128.91 107.046 129.144 107.353 129.554C107.653 129.969 108.134 130.533 108.769 131.193C110.032 132.515 112.003 134.153 114.478 135.476C116.958 136.792 119.418 137.512 121.221 137.822C122.122 137.98 122.86 138.065 123.371 138.083C123.881 138.107 124.164 138.106 124.165 138.078C124.172 138.001 123.047 137.913 121.28 137.527C119.515 137.144 117.115 136.392 114.679 135.099C112.247 133.8 110.283 132.231 108.981 130.978C107.673 129.728 106.973 128.844 106.912 128.891Z" fill="#17282F"/>
<path d="M124.409 138.368C124.527 138.38 124.724 137.376 124.851 136.126C124.978 134.876 124.985 133.853 124.869 133.84C124.751 133.83 124.554 134.832 124.427 136.083C124.301 137.333 124.292 138.356 124.409 138.368Z" fill="#17282F"/>
<path d="M126.371 29.8679C126.953 29.9113 127.493 29.466 127.783 28.9125C128.074 28.3599 128.166 27.7124 128.253 27.0812C128.636 24.292 129.021 21.5036 129.405 18.7152C129.73 16.3509 130.057 13.9711 129.984 11.5822C129.911 9.19331 128.956 7.08279 127.882 5.01484C126.62 2.58749 121.513 -1.6933 113.033 0.707846" fill="#17282F"/>
<path d="M103.775 28.1684C103.796 25.001 104.365 18.4844 104.951 12.5908C105.579 6.25349 110.968 1.46101 117.336 1.57808L117.968 1.58955C124.783 2.11432 128.144 8.19455 127.432 14.9919L126.475 36.6711L110.22 45.5896L110.274 35.8671C110.274 35.8671 103.735 34.7259 103.775 28.1684Z" fill="#D2E0F9"/>
<path d="M110.267 35.8623C110.267 35.8623 114.405 36.2765 118.86 33.5913C118.86 33.5913 116.797 38.3461 110.265 37.6347L110.267 35.8623Z" fill="white"/>
<path d="M54.1646 56.3797C54.3561 55.8779 55.3009 55.7682 55.3009 55.7682L55.1118 55.4833C54.8416 55.0764 54.8031 54.5566 55.0176 54.1177L55.1257 53.9147C55.4351 53.3875 56.2194 53.1272 56.2194 53.1272C56.2194 53.1272 55.5252 52.1816 55.6955 51.7142C55.9206 51.0952 56.9595 50.3077 57.8363 50.4567C58.79 50.6196 60.8555 51.2541 62.2989 51.7878C62.8678 51.999 63.4884 51.6536 63.6104 51.06C63.8429 49.927 64.2931 48.1873 65.0438 46.929C65.8609 45.5586 66.8236 45.5087 67.404 45.6356C67.6848 45.6961 67.8429 45.9933 67.7332 46.2585C67.4221 47.0134 66.8179 48.523 66.6902 49.1419C66.5379 49.8811 67.07 55.2082 67.07 55.2082L69.7749 58.8521L63.6357 67.7183L60.9382 63.7076L55.1453 61.1558C55.1453 61.1558 54.05 59.7772 54.167 59.304C54.2841 58.8316 54.736 58.5402 54.736 58.5402L54.0196 57.5299C54.0196 57.5299 53.9722 56.8824 54.1646 56.3797Z" fill="#D2E0F9"/>
<path d="M55.702 53.2392C55.6995 53.2433 55.7405 53.2703 55.8215 53.3186C55.9157 53.3734 56.0344 53.4406 56.1776 53.5232C56.5067 53.7058 56.9537 53.9531 57.4989 54.2543C58.0638 54.5613 58.7302 54.9223 59.4662 55.3227C59.8412 55.5167 60.2153 55.7484 60.65 55.9277C61.0741 56.1021 61.6258 56.179 62.0777 55.8941C62.298 55.7517 62.447 55.52 62.5125 55.2801C62.5796 55.0386 62.5755 54.7889 62.5256 54.5556C62.4249 54.0799 62.104 53.714 61.7789 53.443C61.4474 53.1704 61.0962 52.9698 60.7761 52.7766C60.4552 52.5851 60.1564 52.4066 59.8805 52.242C59.3442 51.9269 58.9038 51.6673 58.5796 51.4766C58.4347 51.3955 58.3168 51.3284 58.2218 51.2744C58.1391 51.2302 58.0949 51.2081 58.0925 51.2122C58.0908 51.2162 58.1293 51.2457 58.2079 51.2981C58.2988 51.3579 58.4126 51.4316 58.5518 51.5224C58.871 51.7222 59.3033 51.9932 59.8313 52.3247C60.1039 52.4934 60.4003 52.6767 60.718 52.8724C61.0356 53.0705 61.3811 53.2727 61.6995 53.5388C62.0114 53.8049 62.3062 54.1487 62.3946 54.5842C62.492 55.005 62.3929 55.5265 62.0032 55.7803C61.8117 55.9031 61.58 55.9539 61.3549 55.9481C61.1273 55.9449 60.907 55.8859 60.6983 55.8049C60.2832 55.6354 59.9001 55.4029 59.5251 55.2122C58.7834 54.8217 58.1138 54.4696 57.544 54.1692C56.9906 53.8835 56.5362 53.6493 56.2022 53.4766C56.054 53.4029 55.932 53.3431 55.8346 53.2948C55.7494 53.2539 55.7036 53.2351 55.702 53.2392Z" fill="white"/>
<path d="M54.9194 55.9007C54.9153 55.9089 55.0135 55.9678 55.1944 56.066C55.3762 56.1643 55.6414 56.301 55.9738 56.4623C56.6353 56.7865 57.5645 57.2089 58.6107 57.6248C58.8727 57.7271 59.1265 57.8352 59.3901 57.9039C59.6521 57.9735 59.928 57.9965 60.1785 57.9293C60.6836 57.7885 60.9914 57.3563 61.0455 56.9772C61.1011 56.5908 60.962 56.2887 60.8424 56.1209C60.781 56.0349 60.7196 55.9793 60.6795 55.9424L60.6083 55.8974C60.5993 55.9064 60.691 55.9776 60.7974 56.1496C60.8997 56.3182 61.0143 56.6096 60.9513 56.9608C60.8907 57.303 60.5985 57.6895 60.1466 57.8082C59.9239 57.8647 59.6726 57.8434 59.4237 57.7754C59.1748 57.7083 58.9226 57.601 58.6607 57.4987C57.6169 57.0837 56.686 56.676 56.0131 56.3755C55.6979 56.2339 55.431 56.1143 55.2182 56.0186C55.0291 55.9351 54.9226 55.8917 54.9194 55.9007Z" fill="white"/>
<path d="M54.6134 58.4263C54.6118 58.4353 54.7108 58.473 54.8909 58.5352C55.0997 58.6023 55.3576 58.685 55.6597 58.7824C56.3113 58.9863 57.2127 59.2581 58.2114 59.5511C58.4611 59.6224 58.7035 59.7026 58.9532 59.7452C59.2004 59.7877 59.4599 59.7804 59.6842 59.6903C59.9069 59.6052 60.0919 59.4292 60.1607 59.2204C60.2327 59.0149 60.2114 58.8078 60.1549 58.6391C60.033 58.2953 59.7849 58.1168 59.6269 58.0145C59.4616 57.9138 59.3584 57.8819 59.3559 57.8884C59.351 57.8983 59.446 57.9466 59.5966 58.0579C59.7423 58.1701 59.9667 58.3551 60.0641 58.6686C60.1091 58.8225 60.1206 59.0084 60.0551 59.1827C59.992 59.3563 59.8365 59.5004 59.6384 59.5741C59.4403 59.6502 59.2094 59.6559 58.9753 59.6134C58.7403 59.5733 58.5004 59.4922 58.2491 59.421C57.2503 59.1279 56.3449 58.8708 55.6867 58.6907C55.3789 58.6089 55.1185 58.5401 54.9057 58.4836C54.7198 58.4386 54.6167 58.4173 54.6134 58.4263Z" fill="white"/>
<path d="M54.5837 60.7316C54.5829 60.7504 54.917 60.7823 55.4565 60.8192C55.9951 60.856 56.7409 60.8977 57.5645 60.9346C57.77 60.9436 57.9706 60.9526 58.1654 60.9608C58.3594 60.969 58.5535 60.9772 58.7401 60.9403C58.9251 60.9051 59.0971 60.8175 59.2108 60.6841C59.3287 60.5523 59.3639 60.373 59.3353 60.2289C59.2665 59.9366 59.0594 59.7885 58.926 59.7189C58.7851 59.6493 58.6959 59.6509 58.6959 59.6575C58.6926 59.6689 58.7761 59.6853 58.9006 59.7647C59.0176 59.8417 59.1953 59.9972 59.2403 60.2453C59.2575 60.3664 59.2256 60.504 59.1265 60.6096C59.0291 60.7168 58.8809 60.7897 58.7164 60.8183C58.5494 60.8478 58.366 60.838 58.172 60.8282C57.9771 60.8192 57.7766 60.8093 57.5711 60.7995C56.7467 60.7619 56.0009 60.7356 55.4605 60.7234C54.9194 60.7111 54.5846 60.7127 54.5837 60.7316Z" fill="white"/>
<path d="M60.1326 58.77C60.1498 58.8093 60.7663 58.472 61.607 58.3861C62.4478 58.2903 63.1216 58.4884 63.1306 58.4458C63.1469 58.418 62.4658 58.1527 61.5931 58.251C60.718 58.341 60.1089 58.7463 60.1326 58.77Z" fill="white"/>
<path d="M98.7642 98.5492L97.4937 98.2168C97.4937 98.2168 97.045 96.0817 96.4834 95.6323C95.9218 95.1836 90.2967 92.6204 89.0622 91.9466C87.826 91.2729 82.9943 89.0715 82.3876 90.2413C81.7008 91.5659 83.668 92.654 84.7339 93.1591C85.8015 93.665 88.8461 94.8464 88.228 95.5766C87.6099 96.3069 80.8084 95.9753 80.8084 95.9753L79.9554 94.8316C79.9554 94.8316 78.4564 96.2504 78.625 97.4857C78.7937 98.7219 79.2988 99.5078 79.2988 99.5078H79.8039C79.8039 99.5078 79.2988 100.237 79.7482 100.968C80.1969 101.699 81.0957 102.653 81.0957 102.653C81.0957 102.653 81.8923 104.332 84.2967 104.99C84.5775 105.067 95.8154 106.043 95.8154 106.043L99.5747 106.421L98.7642 98.5492Z" fill="#D2E0F9"/>
<rect x="20" y="85" width="56" height="56" rx="28" fill="white"/>
<path fill-rule="evenodd" clip-rule="evenodd" d="M56.0403 107.626C56.4308 108.017 56.4308 108.65 56.0403 109.04L46.7069 118.374C46.3164 118.764 45.6833 118.764 45.2927 118.374L39.9594 113.04C39.5689 112.65 39.5689 112.017 39.9594 111.626C40.3499 111.236 40.9831 111.236 41.3736 111.626L45.9998 116.252L54.6261 107.626C55.0166 107.236 55.6498 107.236 56.0403 107.626Z" fill="#17282F"/>
</g>
<defs>
<clipPath id="clip0_699_13967">
<rect x="6" y="28" width="128" height="128" rx="32" fill="white"/>
</clipPath>
</defs>
</svg>
