<svg width="64" height="64" viewBox="0 0 64 64" fill="none" xmlns="http://www.w3.org/2000/svg">
<path d="M29.3334 10C23.8106 10 19.3334 14.4772 19.3334 20C19.3334 25.5228 23.8106 30 29.3334 30C34.8563 30 39.3334 25.5228 39.3334 20C39.3334 14.4772 34.8563 10 29.3334 10Z" fill="#3478F6"/>
<path d="M18.6667 35.3333C13.1439 35.3333 8.66675 39.8105 8.66675 45.3333V48.5021C8.66675 50.5107 10.1224 52.2233 12.1048 52.547C23.515 54.4099 35.1518 54.4099 46.562 52.547C48.5444 52.2233 50.0001 50.5107 50.0001 48.5021V45.3333C50.0001 39.8105 45.5229 35.3333 40.0001 35.3333H39.0911C38.5991 35.3333 38.1102 35.4111 37.6426 35.5638L35.3345 36.3175C31.4351 37.5908 27.2317 37.5908 23.3323 36.3175L21.0243 35.5638C20.5566 35.4111 20.0677 35.3333 19.5757 35.3333H18.6667Z" fill="#3478F6"/>
<path d="M52.0001 16.6667C53.1047 16.6667 54.0001 17.5621 54.0001 18.6667V23.3333H58.6667C59.7713 23.3333 60.6667 24.2288 60.6667 25.3333C60.6667 26.4379 59.7713 27.3333 58.6667 27.3333H54.0001V32C54.0001 33.1046 53.1047 34 52.0001 34C50.8955 34 50.0001 33.1046 50.0001 32V27.3333H45.3334C44.2288 27.3333 43.3334 26.4379 43.3334 25.3333C43.3334 24.2288 44.2288 23.3333 45.3334 23.3333H50.0001V18.6667C50.0001 17.5621 50.8955 16.6667 52.0001 16.6667Z" fill="#3478F6"/>
</svg>
