<svg width="510" height="176" viewBox="0 0 510 176" fill="none" xmlns="http://www.w3.org/2000/svg">
<g clip-path="url(#clip0_677_1275)">
<rect width="510" height="176" fill="#F5F8FF"/>
<rect x="65" y="47.7871" width="108.793" height="36.8549" rx="18.4274" fill="white"/>
<path fill-rule="evenodd" clip-rule="evenodd" d="M90.1162 56.2925L93.4384 59.5999L90.1162 62.9075L86.7939 66.2149L83.4717 62.9075L76.8272 69.5224L73.505 66.2149L83.4717 56.2925L86.7939 59.5999L90.1162 56.2925ZM86.7939 66.2149L90.1163 69.5225L93.4385 66.2149L96.7608 62.9075L100.083 66.2149L96.7608 69.5225L90.1163 76.1374L86.7941 72.83L83.4718 76.1374L80.1496 72.83L86.7939 66.2149Z" fill="#3478F6"/>
<path fill-rule="evenodd" clip-rule="evenodd" d="M107.17 59.4819V72.9481H113.47C115.009 72.9481 116.22 72.6339 117.103 72.0055C117.985 71.377 118.427 70.4601 118.427 69.2545C118.427 68.3824 118.219 67.6899 117.803 67.1769C117.386 66.6511 116.768 66.2278 115.949 65.9072C117.109 65.2403 117.689 64.2721 117.689 63.0024C117.689 62.0662 117.386 61.2903 116.781 60.6747C115.999 59.8795 114.845 59.4819 113.319 59.4819H107.17ZM112.695 64.9261H110.008V62.079H112.884C113.502 62.079 113.975 62.2008 114.303 62.4445C114.631 62.6754 114.795 63.0152 114.795 63.4641C114.795 64.4388 114.095 64.9261 112.695 64.9261ZM113.47 70.351H110.008V67.3885H113.376C114.814 67.3885 115.532 67.8758 115.532 68.8505C115.532 69.8509 114.845 70.351 113.47 70.351ZM120.824 59.4819V72.9481H123.737V68.9083H125.951C127.502 68.9083 128.782 68.4979 129.791 67.677C130.8 66.8435 131.304 65.6764 131.304 64.1759C131.304 62.7651 130.85 61.6301 129.942 60.7709C129.034 59.9116 127.798 59.4819 126.234 59.4819H120.824ZM126.045 66.2728H123.737V62.1559H125.988C126.732 62.1559 127.313 62.3355 127.729 62.6946C128.145 63.0409 128.353 63.541 128.353 64.1951C128.353 64.8107 128.145 65.3109 127.729 65.6957C127.325 66.0803 126.764 66.2728 126.045 66.2728ZM133.461 72.9481V59.4819H136.601L140.082 65.1762L143.563 59.4819H146.703V72.9481H143.809V64.1566L140.082 69.9086H140.006L136.317 64.2143V72.9481H133.461ZM152.288 67.7156L148.731 72.9481H151.739L153.782 69.7355L155.825 72.9481H158.909L151.947 62.6369H148.863L152.288 67.7156ZM158.744 62.6315H156.299V65.1172H158.744V62.6315Z" fill="black"/>
<path d="M176.296 174.732L180.294 201H203.516L208.906 175.111L176.296 174.732" fill="#B3C2E8"/>
<path d="M199.006 122.898C199.011 122.9 199.001 122.944 198.978 123.028C198.949 123.127 198.913 123.248 198.87 123.399C198.762 123.744 198.615 124.218 198.428 124.817C198.229 125.43 197.992 126.182 197.746 127.064C197.496 127.945 197.185 128.94 196.909 130.059C196.614 131.173 196.295 132.394 196.004 133.717C195.681 135.033 195.41 136.455 195.108 137.947C194.552 140.942 194.044 144.253 193.685 147.75C193.345 151.25 193.189 154.597 193.143 157.643C193.144 159.165 193.129 160.613 193.185 161.967C193.208 163.322 193.28 164.582 193.349 165.732C193.399 166.883 193.507 167.92 193.578 168.833C193.645 169.747 193.728 170.531 193.802 171.171C193.867 171.795 193.918 172.288 193.955 172.648C193.968 172.804 193.979 172.93 193.988 173.033C193.994 173.12 193.995 173.165 193.99 173.165C193.985 173.166 193.975 173.123 193.96 173.037C193.944 172.935 193.925 172.809 193.9 172.655C193.851 172.297 193.783 171.805 193.697 171.183C193.607 170.544 193.507 169.761 193.426 168.847C193.34 167.935 193.219 166.897 193.156 165.745C193.075 164.593 192.992 163.332 192.959 161.974C192.893 160.618 192.9 159.167 192.891 157.641C192.924 154.588 193.074 151.231 193.414 147.723C193.773 144.217 194.29 140.898 194.861 137.9C195.171 136.405 195.451 134.982 195.784 133.665C196.085 132.342 196.415 131.121 196.723 130.008C197.012 128.891 197.336 127.898 197.6 127.02C197.86 126.141 198.113 125.393 198.327 124.784C198.535 124.191 198.698 123.722 198.818 123.381C198.872 123.234 198.916 123.115 198.952 123.019C198.983 122.938 199.002 122.896 199.006 122.898Z" fill="#B3C2E8"/>
<path d="M194.815 139.164C195.441 137.287 196.742 135.644 198.425 134.604C199.001 134.248 199.726 133.958 200.335 134.253C201.145 134.644 201.211 135.784 200.969 136.651C200.563 138.109 199.61 139.408 198.341 140.233C197.072 141.059 195.895 141.448 194.397 141.228" fill="#B3C2E8"/>
<path d="M193.404 150.148C194.004 147.881 195.812 144.658 197.691 143.255C197.988 143.033 198.305 142.822 198.666 142.735C199.026 142.648 199.44 142.704 199.708 142.961C200.092 143.328 200.054 143.946 199.941 144.466C199.223 147.773 196.468 150.547 193.165 151.286" fill="#B3C2E8"/>
<path d="M193.015 159.815C193.939 157.661 195.449 155.762 197.34 154.376C197.783 154.051 198.308 153.74 198.849 153.839C199.67 153.987 200.042 154.989 199.969 155.82C199.82 157.53 198.514 158.901 197.166 159.964C195.714 161.108 193.165 162.02 193.165 162.02" fill="#B3C2E8"/>
<path d="M193.234 166.765C194.183 165.149 195.364 163.63 196.913 162.576C197.25 162.347 197.614 162.136 198.017 162.081C198.42 162.026 198.872 162.157 199.1 162.493C199.469 163.035 199.118 163.767 198.722 164.29C197.356 166.097 195.633 167.464 193.472 168.142" fill="#B3C2E8"/>
<path d="M193.052 163.942C191.467 161.999 189.703 160.202 187.79 158.582C187.491 158.329 187.114 158.064 186.742 158.185C186.453 158.279 186.279 158.59 186.259 158.892C186.239 159.195 186.343 159.491 186.459 159.771C187.609 162.55 190.319 164.727 193.234 165.47" fill="#B3C2E8"/>
<path d="M193.22 154.898C191.842 153.219 190.464 151.539 189.086 149.859C188.692 149.38 188.286 148.889 187.745 148.587C187.203 148.284 186.488 148.209 185.981 148.565C185.476 148.922 185.304 149.62 185.416 150.23C185.527 150.838 185.869 151.377 186.222 151.885C187.062 153.095 188.021 154.25 189.234 155.085C190.448 155.92 191.551 156.463 193.008 156.248" fill="#B3C2E8"/>
<path d="M193.794 144.715C192.992 142.316 191.54 140.136 189.635 138.471C189.316 138.192 188.967 137.919 188.551 137.839C187.722 137.679 186.923 138.37 186.654 139.17C186.353 140.07 186.559 141.084 187.032 141.906C187.505 142.729 188.221 143.384 188.975 143.961C190.365 145.024 191.923 145.865 193.573 146.443" fill="#B3C2E8"/>
<path d="M195.446 135.635C195.045 132.714 193.525 130.283 191.763 127.919C191.392 127.421 190.873 126.892 190.259 126.986C189.867 127.045 189.551 127.362 189.396 127.727C189.241 128.091 189.222 128.498 189.232 128.894C189.325 132.424 191.76 135.777 195.088 136.956" fill="#B3C2E8"/>
<path d="M196.603 131C196.458 129.498 196.313 127.985 196.452 126.483C196.59 124.98 197.031 123.471 197.951 122.276C198.347 121.762 198.843 121.301 199.452 121.079C200.061 120.856 200.796 120.907 201.294 121.323C201.754 121.708 201.947 122.344 201.924 122.944C201.9 123.544 201.689 124.12 201.458 124.675C200.357 127.324 198.52 130.258 196.603 131" fill="#B3C2E8"/>
<path d="M178.595 134.481C178.605 134.482 178.612 134.609 178.618 134.852C178.621 135.122 178.625 135.474 178.63 135.912C178.629 136.372 178.631 136.936 178.656 137.589C178.677 138.242 178.682 138.986 178.736 139.807C178.808 141.45 178.967 143.403 179.216 145.562C179.484 147.72 179.852 150.082 180.36 152.539C180.881 154.993 181.494 157.305 182.116 159.389C182.756 161.466 183.394 163.318 183.989 164.852C184.269 165.626 184.564 166.309 184.807 166.916C185.047 167.524 185.27 168.04 185.457 168.461C185.628 168.865 185.766 169.189 185.872 169.437C185.964 169.661 186.008 169.781 186 169.785C185.991 169.789 185.93 169.677 185.822 169.46C185.704 169.217 185.551 168.9 185.36 168.505C185.159 168.09 184.921 167.579 184.666 166.975C184.41 166.373 184.102 165.693 183.809 164.922C183.19 163.394 182.531 161.543 181.876 159.462C181.239 157.376 180.617 155.058 180.093 152.595C179.583 150.13 179.221 147.757 178.967 145.591C178.73 143.423 178.591 141.464 178.543 139.815C178.501 138.992 178.51 138.245 178.503 137.591C178.493 136.936 178.506 136.372 178.524 135.911C178.54 135.473 178.553 135.12 178.563 134.85C178.575 134.608 178.586 134.481 178.595 134.481" fill="#3478F6"/>
<path d="M179.243 146.457C179.265 145.045 179.797 143.646 180.719 142.576C181.034 142.209 181.466 141.856 181.944 141.925C182.58 142.018 182.87 142.78 182.892 143.422C182.929 144.502 182.56 145.592 181.874 146.426C181.187 147.261 180.469 147.78 179.402 147.953" fill="#3478F6"/>
<path d="M180.646 154.239C180.567 152.566 181.104 149.983 182.081 148.623C182.235 148.408 182.406 148.196 182.633 148.06C182.86 147.923 183.153 147.872 183.391 147.989C183.731 148.156 183.839 148.585 183.874 148.963C184.097 151.369 182.818 153.851 180.729 155.065" fill="#3478F6"/>
<path d="M182.463 160.905C182.628 159.239 183.248 157.621 184.236 156.271C184.468 155.954 184.759 155.63 185.148 155.58C185.739 155.505 186.208 156.107 186.337 156.688C186.604 157.884 186.009 159.099 185.32 160.113C184.578 161.204 183.039 162.374 183.039 162.374" fill="#3478F6"/>
<path d="M184.107 165.591C184.406 164.286 184.883 162.998 185.71 161.946C185.89 161.718 186.093 161.497 186.356 161.372C186.618 161.248 186.954 161.239 187.182 161.419C187.55 161.709 187.468 162.283 187.311 162.724C186.77 164.248 185.892 165.55 184.566 166.477" fill="#3478F6"/>
<path d="M183.376 163.707C181.878 162.726 180.291 161.882 178.639 161.191C178.382 161.083 178.068 160.984 177.84 161.147C177.664 161.272 177.613 161.522 177.664 161.731C177.715 161.942 177.85 162.121 177.989 162.287C179.371 163.932 181.684 164.831 183.828 164.709" fill="#3478F6"/>
<path d="M181.543 157.512C180.243 156.665 178.944 155.818 177.644 154.971C177.273 154.729 176.891 154.483 176.457 154.393C176.024 154.304 175.52 154.407 175.252 154.759C174.984 155.11 175.018 155.623 175.225 156.013C175.432 156.404 175.781 156.697 176.131 156.967C176.963 157.61 177.864 158.19 178.87 158.497C179.876 158.805 180.744 158.937 181.69 158.477" fill="#3478F6"/>
<path d="M179.743 150.456C178.68 148.994 177.222 147.824 175.566 147.1C175.29 146.979 174.993 146.868 174.692 146.902C174.094 146.972 173.698 147.615 173.688 148.217C173.676 148.895 174.035 149.541 174.534 149.999C175.033 150.457 175.662 150.749 176.299 150.979C177.474 151.404 178.716 151.641 179.964 151.68" fill="#3478F6"/>
<path d="M178.913 143.919C178.012 142.017 176.453 140.689 174.744 139.458C174.384 139.2 173.918 138.951 173.52 139.147C173.266 139.272 173.119 139.556 173.091 139.837C173.064 140.119 173.139 140.4 173.231 140.667C174.054 143.05 176.434 144.809 178.954 144.896" fill="#3478F6"/>
<path d="M178.703 140.514C178.281 139.523 177.857 138.524 177.628 137.471C177.398 136.419 177.374 135.296 177.743 134.284C177.902 133.849 178.14 133.429 178.507 133.146C178.874 132.864 179.385 132.74 179.813 132.916C180.21 133.079 180.478 133.471 180.591 133.885C180.705 134.298 180.684 134.736 180.647 135.163C180.468 137.204 179.848 139.597 178.703 140.514" fill="#3478F6"/>
<path d="M207.956 134.228C207.966 134.227 207.977 134.354 207.988 134.597C207.998 134.866 208.012 135.219 208.028 135.657C208.045 136.118 208.058 136.682 208.048 137.337C208.041 137.991 208.05 138.738 208.008 139.561C207.961 141.21 207.821 143.17 207.585 145.337C207.33 147.503 206.969 149.876 206.459 152.341C205.935 154.804 205.313 157.123 204.675 159.208C204.021 161.288 203.361 163.14 202.742 164.668C202.449 165.439 202.142 166.119 201.885 166.721C201.631 167.325 201.393 167.836 201.192 168.251C201.001 168.646 200.847 168.963 200.729 169.206C200.621 169.423 200.56 169.535 200.552 169.531C200.543 169.527 200.588 169.407 200.68 169.183C200.785 168.935 200.923 168.611 201.095 168.207C201.281 167.787 201.504 167.27 201.745 166.662C201.987 166.055 202.283 165.372 202.563 164.598C203.157 163.065 203.796 161.212 204.435 159.134C205.058 157.052 205.67 154.74 206.192 152.285C206.7 149.828 207.068 147.466 207.335 145.309C207.584 143.149 207.744 141.196 207.816 139.553C207.87 138.732 207.875 137.988 207.895 137.335C207.92 136.681 207.923 136.118 207.922 135.658C207.927 135.22 207.93 134.868 207.934 134.598C207.939 134.356 207.947 134.228 207.956 134.228" fill="#B3C2E8"/>
<path d="M207.309 146.203C207.286 144.791 206.754 143.392 205.832 142.321C205.517 141.956 205.085 141.602 204.607 141.671C203.971 141.764 203.682 142.526 203.659 143.168C203.623 144.248 203.992 145.338 204.678 146.173C205.364 147.007 206.082 147.526 207.149 147.699" fill="#B3C2E8"/>
<path d="M205.905 153.985C205.985 152.313 205.447 149.728 204.471 148.369C204.316 148.154 204.145 147.942 203.918 147.806C203.692 147.669 203.398 147.617 203.161 147.735C202.82 147.902 202.713 148.331 202.678 148.709C202.455 151.115 203.734 153.597 205.823 154.812" fill="#B3C2E8"/>
<path d="M204.089 160.651C203.924 158.986 203.304 157.367 202.315 156.017C202.083 155.7 201.793 155.376 201.403 155.326C200.813 155.251 200.343 155.853 200.214 156.434C199.948 157.631 200.542 158.845 201.231 159.859C201.973 160.95 203.512 162.12 203.512 162.12" fill="#B3C2E8"/>
<path d="M202.444 165.334C202.146 164.03 201.669 162.741 200.841 161.69C200.661 161.462 200.458 161.24 200.196 161.115C199.933 160.991 199.598 160.983 199.369 161.162C199.002 161.452 199.083 162.026 199.24 162.468C199.781 163.992 200.66 165.293 201.985 166.22" fill="#B3C2E8"/>
<path d="M203.176 163.452C204.673 162.47 206.261 161.626 207.912 160.935C208.17 160.827 208.484 160.728 208.711 160.891C208.887 161.016 208.939 161.266 208.888 161.476C208.836 161.686 208.701 161.865 208.562 162.031C207.181 163.676 204.868 164.575 202.723 164.453" fill="#B3C2E8"/>
<path d="M205.008 157.259C206.308 156.411 207.608 155.564 208.908 154.717C209.278 154.476 209.661 154.229 210.094 154.14C210.528 154.05 211.031 154.153 211.299 154.505C211.567 154.856 211.533 155.369 211.327 155.759C211.12 156.15 210.771 156.443 210.421 156.713C209.588 157.356 208.687 157.936 207.681 158.243C206.675 158.551 205.808 158.683 204.862 158.223" fill="#B3C2E8"/>
<path d="M206.809 150.202C207.872 148.742 209.329 147.57 210.985 146.846C211.262 146.725 211.559 146.614 211.859 146.649C212.457 146.718 212.853 147.361 212.863 147.964C212.875 148.641 212.516 149.287 212.017 149.746C211.518 150.203 210.89 150.496 210.252 150.726C209.078 151.15 207.836 151.388 206.587 151.426" fill="#B3C2E8"/>
<path d="M207.639 143.663C208.54 141.761 210.099 140.433 211.807 139.203C212.167 138.944 212.634 138.695 213.032 138.891C213.286 139.016 213.433 139.299 213.46 139.581C213.487 139.863 213.412 140.144 213.32 140.411C212.498 142.795 210.118 144.553 207.598 144.64" fill="#B3C2E8"/>
<path d="M207.849 140.26C208.271 139.269 208.695 138.27 208.924 137.217C209.153 136.165 209.178 135.042 208.808 134.03C208.65 133.595 208.411 133.175 208.044 132.893C207.678 132.61 207.166 132.486 206.738 132.662C206.341 132.825 206.073 133.217 205.96 133.631C205.847 134.044 205.867 134.482 205.904 134.909C206.084 136.95 206.703 139.343 207.849 140.26" fill="#B3C2E8"/>
<path d="M173.631 169.53V174.445C173.631 175.514 174.497 176.38 175.566 176.38H209.195C210.264 176.38 211.131 175.514 211.131 174.445V169.53H173.631Z" fill="#B3C2E8"/>
<path d="M349.737 178.167L345.345 178.532C345.345 178.532 345.651 182.22 341.825 182.604C339.837 182.804 338.697 181.586 338.195 180.622C337.611 179.503 337.649 178.168 338.212 177.039C338.855 175.749 340.384 174.374 343.388 174.649L342.575 164.87L338.232 165.231L338.714 171.031C338.714 171.031 332.755 173.112 333.312 179.824C333.846 186.246 339.954 187.24 342.953 186.991C344.838 186.835 350.463 185.909 349.737 178.167Z" fill="#F3F2F1"/>
<path d="M337.668 159.079L342.076 158.713L342.418 162.829L338.011 163.195L337.668 159.079" fill="#F3F2F1"/>
<path d="M348.246 178.286L343.855 178.651C343.855 178.651 344.161 182.339 340.334 182.723C338.347 182.923 337.206 181.705 336.704 180.74C336.121 179.621 336.159 178.287 336.722 177.158C337.365 175.868 338.904 174.616 341.907 174.891L341.085 164.989L336.742 165.35L337.224 171.15C337.224 171.15 331.264 173.231 331.821 179.943C332.355 186.365 338.238 187.378 340.703 187.173C342.589 187.017 348.973 186.028 348.246 178.286" fill="#3478F6"/>
<path d="M336.178 159.198L340.585 158.831L340.927 162.948L336.52 163.314L336.178 159.198" fill="#3478F6"/>
<path d="M251.307 28.881C250.092 30.4624 247.701 30.2522 246.782 28.4822C246.318 27.5906 246.416 26.475 247.028 25.6774C248.244 24.096 250.634 24.3067 251.554 26.0762C252.018 26.9683 251.919 28.0839 251.307 28.881Z" fill="white"/>
<path d="M250.882 29.3251C250.887 29.3303 250.934 29.2958 251.021 29.224C251.109 29.154 251.229 29.0354 251.36 28.8653C251.62 28.5317 251.927 27.9369 251.901 27.1506C251.886 26.7637 251.791 26.3342 251.565 25.9325C251.339 25.5347 251.003 25.1506 250.551 24.893C250.106 24.6294 249.555 24.4829 248.99 24.5217C248.424 24.55 247.853 24.7759 247.39 25.1576C246.933 25.547 246.61 26.07 246.484 26.6219C246.346 27.171 246.395 27.7398 246.577 28.2242C246.751 28.7151 247.071 29.1125 247.423 29.4045C247.779 29.6974 248.185 29.8656 248.564 29.9483C249.333 30.1108 249.973 29.9129 250.346 29.7144C250.537 29.6152 250.674 29.5183 250.759 29.4441C250.845 29.3709 250.887 29.3303 250.882 29.3251C250.87 29.3076 250.692 29.4687 250.313 29.6454C249.939 29.8179 249.321 29.9837 248.595 29.8122C248.237 29.7253 247.857 29.559 247.527 29.2783C247.2 28.9976 246.905 28.6215 246.748 28.1618C246.582 27.7087 246.541 27.178 246.671 26.6677C246.792 26.1546 247.092 25.6708 247.517 25.3088C247.948 24.9545 248.476 24.7433 249.002 24.7144C249.527 24.6752 250.042 24.8085 250.459 25.0504C250.885 25.2862 251.204 25.6424 251.422 26.0124C251.641 26.3871 251.739 26.7901 251.762 27.1573C251.804 27.9024 251.533 28.4826 251.297 28.82C251.057 29.1635 250.867 29.309 250.882 29.3251" fill="#3478F6"/>
<path d="M203.782 74.6996H206.266C206.266 74.6996 206.266 72.6144 208.433 72.5771C209.558 72.5577 210.142 73.2948 210.379 73.8599C210.654 74.5153 210.571 75.2628 210.202 75.8709C209.781 76.5655 208.858 77.1967 207.184 76.9019V82.5015H209.64V79.2214C209.64 79.2214 213.084 78.3312 213.084 74.5356C213.084 70.904 209.827 70.0606 208.433 70.0606C207.367 70.0606 203.735 70.3181 203.782 74.6996Z" fill="#3478F6"/>
<path d="M209.669 85.9824H207.177V83.6549H209.669V85.9824Z" fill="#3478F6"/>
<path d="M315.207 92.8664L312.42 91.0965C312.42 91.0965 310.934 93.4368 308.475 91.9342C307.198 91.1536 307.069 89.9105 307.205 89.1072C307.363 88.175 307.99 87.3959 308.837 86.9758C309.805 86.4967 311.291 86.4461 312.959 87.9699L316.95 81.6852L314.194 79.9346L311.856 83.6163C311.856 83.6163 307.356 82.161 304.651 86.4206C302.062 90.4969 305.117 93.7647 306.681 94.7583C307.878 95.5181 312.138 97.8173 315.207 92.8664" fill="#3478F6"/>
<path d="M316.642 76.0084L319.44 77.785L317.781 80.3975L314.983 78.6209L316.642 76.0084Z" fill="#3478F6"/>
<path d="M329.695 116.523L326.063 114.899L347.697 87.6542L351.23 88.6318C351.757 88.7779 352.228 89.0788 352.582 89.4956L356.096 93.6351C356.602 94.2314 356.529 95.1244 355.932 95.6305L331.647 116.245C331.104 116.705 330.345 116.814 329.695 116.523" fill="#33535F"/>
<path d="M354.251 114.603L350.322 117.939C349.883 118.311 349.277 118.419 348.737 118.221L345.796 117.142C345.426 117.006 345.119 116.739 344.934 116.39L328.841 86.0545L332.469 87.1072C332.936 87.2428 333.354 87.5131 333.669 87.8845L354.436 112.35C355.007 113.023 354.924 114.032 354.251 114.603" fill="#33535F"/>
<path d="M330.449 116.684C330.194 116.684 329.937 116.631 329.695 116.523L326.063 114.899L336.902 101.249L340.755 108.513L331.647 116.245C331.306 116.534 330.88 116.684 330.449 116.684Z" fill="#2A68DB"/>
<path d="M346.814 103.371L340.823 96.3124L347.697 87.6553L351.23 88.6329C351.757 88.7789 352.228 89.0799 352.582 89.4966L356.096 93.6362C356.322 93.9027 356.432 94.2287 356.432 94.5533C356.432 94.954 356.262 95.3518 355.932 95.6316L346.814 103.371" fill="#2A68DB"/>
<path d="M349.287 118.318C349.102 118.318 348.916 118.286 348.737 118.221L345.796 117.142C345.426 117.006 345.119 116.738 344.934 116.39L340.755 108.514L336.902 101.25L328.841 86.0543L332.469 87.107C332.936 87.2426 333.354 87.5129 333.669 87.8843L354.436 112.35C354.691 112.651 354.816 113.019 354.815 113.385C354.815 113.838 354.623 114.287 354.251 114.603L350.322 117.938C350.028 118.187 349.66 118.318 349.287 118.318" fill="#2A68DB"/>
<path d="M325.668 114.564L322.095 110.356C321.708 109.9 321.764 109.217 322.22 108.83L346.824 87.9468C347.279 87.5598 347.962 87.6156 348.349 88.0715L351.921 92.2796C352.308 92.7356 352.252 93.4183 351.796 93.8053L327.193 114.689C326.737 115.075 326.054 115.02 325.668 114.564" fill="#3478F6"/>
<path d="M350.255 112.658L346.046 116.23C345.59 116.617 344.908 116.561 344.521 116.105L323.637 91.5019C323.25 91.0464 323.307 90.3632 323.762 89.9762L328.091 86.3016C328.48 85.9718 329.063 86.0195 329.393 86.4084L350.379 111.132C350.766 111.588 350.71 112.271 350.255 112.658" fill="#3478F6"/>
<path d="M330.682 102.863C330.726 102.915 329.124 104.358 327.104 106.087C325.083 107.817 323.41 109.177 323.366 109.125C323.322 109.074 324.923 107.63 326.944 105.901C328.964 104.172 330.638 102.811 330.682 102.863Z" fill="white"/>
<path d="M346.958 88.9312C347.002 88.9832 345.202 90.5788 342.938 92.4953C340.673 94.4127 338.802 95.9242 338.758 95.8722C338.714 95.8203 340.514 94.2246 342.779 92.3077C345.043 90.3912 346.914 88.8792 346.958 88.9312" fill="white"/>
<path d="M331.47 98.9836C331.416 99.0257 330.021 97.3308 328.354 95.1984C326.686 93.066 325.378 91.3036 325.431 91.2616C325.485 91.22 326.88 92.9144 328.548 95.0472C330.215 97.1791 331.524 98.9416 331.47 98.9836" fill="white"/>
<path d="M343.924 113.151C343.874 113.197 342.432 111.713 340.702 109.838C338.973 107.961 337.612 106.403 337.661 106.357C337.712 106.311 339.154 107.795 340.883 109.671C342.613 111.547 343.974 113.105 343.924 113.151Z" fill="white"/>
<path d="M158.17 111.387L157.42 108.588L177.674 112.628L195.568 87.4631L197.752 91.5271C198.09 92.1559 198.087 92.9129 197.745 93.5394L182.216 121.979C181.052 124.11 178.361 124.862 176.262 123.643L160.584 114.539C159.395 113.848 158.527 112.715 158.17 111.387" fill="#3478F6"/>
<path d="M178.424 124.227C177.689 124.227 176.944 124.039 176.262 123.643L160.584 114.539C159.395 113.849 158.527 112.715 158.17 111.387L157.42 108.589L177.674 112.628L195.568 87.4634L197.752 91.5273C197.919 91.8392 198.003 92.1827 198.003 92.5262C198.004 92.8754 197.917 93.2241 197.745 93.5397L182.216 121.979C181.431 123.417 179.949 124.227 178.424 124.227Z" fill="#2A68DB"/>
<path d="M157.475 107.256L160.394 102.088C160.812 101.348 161.734 101.062 162.498 101.435L174.218 107.175C174.995 107.556 175.934 107.252 176.341 106.488L187.951 84.676C188.386 83.8585 189.42 83.5779 190.208 84.0627L194.932 86.9666C195.66 87.4141 195.91 88.3534 195.501 89.1033L180.327 116.892C179.305 118.762 176.969 119.464 175.086 118.465L158.12 109.463C157.323 109.039 157.031 108.042 157.475 107.256Z" fill="#3478F6"/>
<path d="M173.416 108.5C173.408 108.515 173.186 108.426 172.789 108.252C172.353 108.054 171.793 107.799 171.121 107.494C169.717 106.844 167.785 105.931 165.658 104.909C165.126 104.652 164.608 104.402 164.106 104.16C163.856 104.039 163.61 103.92 163.368 103.803C163.131 103.682 162.906 103.606 162.663 103.586C162.184 103.54 161.722 103.717 161.4 103.997C161.072 104.271 160.918 104.679 160.715 105.01C160.349 105.651 160.043 106.185 159.805 106.601C159.586 106.974 159.457 107.176 159.442 107.168C159.427 107.16 159.527 106.942 159.721 106.555C159.941 106.129 160.224 105.583 160.562 104.928C160.653 104.755 160.747 104.576 160.845 104.39C160.947 104.197 161.086 104.005 161.265 103.845C161.619 103.523 162.136 103.316 162.681 103.36C162.95 103.377 163.23 103.47 163.47 103.591C163.712 103.706 163.959 103.823 164.21 103.943C164.713 104.184 165.232 104.432 165.764 104.687C167.892 105.709 169.812 106.647 171.197 107.337C171.854 107.671 172.403 107.949 172.831 108.166C173.215 108.366 173.423 108.484 173.416 108.5" fill="white"/>
<path d="M177.712 107.56C177.651 107.529 180.114 102.662 183.212 96.6901C186.31 90.7168 188.87 85.9015 188.93 85.9327C188.991 85.9639 186.529 90.8302 183.43 96.8035C180.332 102.775 177.772 107.591 177.712 107.56Z" fill="white"/>
<path d="M226.641 40.5945C226.641 49.3574 219.537 56.4619 210.773 56.4619C202.01 56.4619 194.906 49.3574 194.906 40.5945C194.906 31.831 202.01 24.7266 210.773 24.7266C219.537 24.7266 226.641 31.831 226.641 40.5945Z" fill="white"/>
<path d="M226.641 40.5957C226.641 40.5957 226.643 40.5083 226.637 40.3382C226.631 40.162 226.621 39.9106 226.609 39.5831C226.602 39.4163 226.594 39.2307 226.585 39.0261C226.567 38.8219 226.526 38.6008 226.494 38.3598C226.458 38.1189 226.421 37.8599 226.379 37.5831C226.349 37.3038 226.249 37.0203 226.18 36.7122C225.911 35.4776 225.345 34.0166 224.444 32.4654C223.535 30.9204 222.216 29.3039 220.414 27.9294C220.188 27.7593 219.959 27.5873 219.727 27.4135C219.486 27.2538 219.232 27.1073 218.98 26.9514C218.723 26.8039 218.479 26.6253 218.204 26.4992C217.931 26.3674 217.656 26.2341 217.377 26.0994C217.238 26.0328 217.098 25.9657 216.957 25.8986C216.811 25.8448 216.664 25.7904 216.516 25.7361C216.22 25.6274 215.921 25.5178 215.619 25.4068C215.315 25.3052 214.996 25.239 214.68 25.1526C214.362 25.0793 214.048 24.9669 213.716 24.9314C213.057 24.836 212.391 24.699 211.7 24.6933C211.356 24.6805 211.01 24.646 210.661 24.6508C210.312 24.6682 209.96 24.6853 209.605 24.7027C209.429 24.715 209.25 24.7136 209.072 24.7368C208.896 24.7632 208.718 24.7902 208.54 24.8171C208.185 24.8752 207.824 24.9163 207.467 24.9895C206.762 25.1795 206.032 25.3217 205.338 25.6099C204.622 25.8382 203.948 26.1902 203.256 26.5219C202.919 26.7038 202.595 26.9159 202.261 27.1134C202.098 27.2179 201.923 27.3072 201.768 27.4248L201.297 27.7759C200.648 28.2205 200.08 28.7766 199.485 29.3129C199.216 29.6087 198.945 29.9064 198.674 30.2055L198.469 30.4299L198.286 30.6723L197.92 31.1609L197.553 31.6518L197.231 32.1767L196.909 32.705L196.748 32.9701L196.612 33.2493C196.432 33.623 196.251 33.9982 196.069 34.3748C195.925 34.7674 195.78 35.1615 195.635 35.557C195.114 37.1592 194.833 38.8616 194.81 40.5929C194.833 42.3251 195.113 44.0279 195.634 45.6311C195.779 46.0266 195.924 46.4207 196.068 46.8133C196.249 47.1904 196.43 47.5655 196.61 47.9393L196.747 48.2185L196.908 48.4836L197.229 49.0123L197.551 49.5373L197.919 50.0287L198.285 50.5172L198.468 50.7601L198.672 50.9845C198.944 51.2836 199.215 51.5813 199.485 51.8771C200.079 52.4138 200.648 52.9695 201.297 53.4146L201.767 53.7657C201.923 53.8833 202.097 53.9726 202.261 54.077C202.594 54.2745 202.918 54.4867 203.255 54.6691C203.948 55.0003 204.622 55.3528 205.338 55.581C206.032 55.8692 206.762 56.0114 207.467 56.2014C207.824 56.2746 208.185 56.3157 208.541 56.3739C208.719 56.4008 208.896 56.4277 209.073 56.4542C209.25 56.4773 209.429 56.4759 209.606 56.4877C209.96 56.5052 210.312 56.5227 210.661 56.5402C211.011 56.5444 211.357 56.5104 211.701 56.4976C212.392 56.492 213.058 56.3549 213.717 56.2595C214.049 56.2241 214.363 56.1111 214.681 56.0384C214.997 55.9514 215.316 55.8858 215.62 55.7837C215.922 55.6731 216.221 55.563 216.517 55.4544C216.664 55.4 216.812 55.3457 216.958 55.2918C217.099 55.2247 217.239 55.1576 217.379 55.091C217.657 54.9564 217.932 54.8231 218.205 54.6913C218.48 54.5651 218.724 54.3865 218.981 54.2391C219.232 54.0827 219.487 53.9367 219.728 53.777C219.96 53.6031 220.189 53.4311 220.415 53.261C222.217 51.8861 223.535 50.2696 224.444 48.725C225.346 47.1734 225.911 45.7124 226.181 44.4782C226.249 44.1702 226.35 43.8867 226.38 43.6074C226.421 43.3305 226.458 43.0716 226.494 42.8306C226.526 42.5896 226.567 42.3685 226.585 42.1644C226.594 41.9603 226.602 41.7746 226.609 41.6078C226.621 41.2804 226.631 41.029 226.637 40.8527C226.643 40.6827 226.641 40.5957 226.641 40.5957C226.641 40.5957 226.629 40.6826 226.618 40.8523C226.607 41.028 226.591 41.2789 226.57 41.6054C226.56 41.7713 226.55 41.9565 226.538 42.1601C226.517 42.3633 226.473 42.583 226.438 42.8226C226.4 43.0622 226.359 43.3197 226.315 43.5951C226.283 43.8725 226.18 44.1541 226.108 44.4603C225.83 45.6859 225.256 47.1346 224.352 48.6702C223.441 50.1997 222.126 51.7972 220.333 53.1538C220.108 53.3215 219.881 53.4911 219.651 53.6627C219.411 53.82 219.158 53.9641 218.908 54.1181C218.653 54.2632 218.411 54.4394 218.138 54.5637C217.867 54.6936 217.594 54.8245 217.317 54.9573C217.179 55.0225 217.04 55.0887 216.901 55.1548C216.755 55.2077 216.609 55.2611 216.463 55.3145C216.169 55.4213 215.873 55.5295 215.574 55.6382C215.272 55.7383 214.956 55.8026 214.644 55.8877C214.328 55.959 214.017 56.07 213.688 56.104C213.035 56.1962 212.376 56.3313 211.692 56.3351C211.351 56.3469 211.008 56.38 210.663 56.3748C210.317 56.3568 209.969 56.3389 209.618 56.3209C209.443 56.3086 209.266 56.3096 209.091 56.2864C208.916 56.2595 208.74 56.2326 208.564 56.2056C208.213 56.1475 207.856 56.1064 207.502 56.0332C206.806 55.8437 206.084 55.7024 205.398 55.4156C204.69 55.1893 204.024 54.8396 203.34 54.5113C203.007 54.3303 202.687 54.12 202.357 53.9244C202.196 53.8209 202.023 53.7331 201.87 53.6159L201.405 53.2681C200.763 52.8277 200.203 52.2773 199.615 51.7467C199.349 51.4537 199.082 51.1594 198.813 50.8636L198.612 50.6415L198.43 50.4015L198.069 49.9181L197.706 49.4324L197.389 48.9131L197.071 48.3905L196.912 48.1288L196.778 47.8523C196.6 47.4828 196.421 47.1119 196.242 46.7396C196.1 46.3517 195.957 45.9623 195.814 45.5711C195.3 43.9873 195.024 42.3047 195.001 40.5929C195.024 38.882 195.301 37.2003 195.815 35.617C195.958 35.2262 196.101 34.8364 196.243 34.449C196.423 34.0762 196.601 33.7057 196.779 33.3362L196.914 33.0603L197.073 32.7985L197.39 32.276L197.707 31.7567L198.07 31.2714L198.431 30.7881L198.613 30.5485L198.814 30.3264C199.083 30.0306 199.35 29.7363 199.616 29.4433C200.204 28.9132 200.764 28.3622 201.406 27.9223L201.87 27.5746C202.024 27.4579 202.197 27.3695 202.358 27.2661C202.687 27.0704 203.007 26.8602 203.34 26.6797C204.025 26.3513 204.69 26.0016 205.398 25.7753C206.084 25.4885 206.806 25.3472 207.502 25.1578C207.855 25.0845 208.213 25.0434 208.564 24.9853C208.74 24.9584 208.915 24.9314 209.09 24.9045C209.266 24.8814 209.442 24.8823 209.618 24.87C209.968 24.8521 210.316 24.8341 210.662 24.8161C211.008 24.8109 211.351 24.844 211.691 24.8558C212.375 24.8596 213.034 24.9943 213.687 25.0869C214.016 25.1204 214.327 25.2319 214.643 25.3033C214.955 25.3883 215.271 25.4526 215.573 25.5523C215.872 25.6614 216.168 25.7692 216.461 25.876C216.608 25.9298 216.754 25.9827 216.9 26.0357C217.039 26.1018 217.178 26.1675 217.317 26.2332C217.593 26.3659 217.866 26.4968 218.137 26.6268C218.41 26.7506 218.652 26.9268 218.907 27.0718C219.157 27.2264 219.41 27.37 219.65 27.5278C219.88 27.6989 220.108 27.8685 220.333 28.0362C222.125 29.3928 223.44 30.9908 224.352 32.5198C225.256 34.0559 225.83 35.5045 226.108 36.7302C226.18 37.0364 226.283 37.318 226.315 37.5953C226.359 37.8708 226.4 38.1283 226.438 38.3679C226.473 38.6074 226.517 38.8276 226.538 39.0308C226.55 39.2344 226.56 39.4192 226.57 39.5855C226.591 39.912 226.607 40.1629 226.618 40.3387C226.629 40.5083 226.641 40.5957 226.641 40.5957" fill="#17282F"/>
<path d="M232.675 50.5676C232.675 51.9927 231.52 53.1475 230.095 53.1475C228.67 53.1475 227.515 51.9927 227.515 50.5676C227.515 49.1426 228.67 47.9878 230.095 47.9878C231.52 47.9878 232.675 49.1426 232.675 50.5676Z" fill="white"/>
<path d="M232.675 50.5684C232.681 50.5684 232.685 50.5117 232.685 50.4026C232.689 50.2939 232.675 50.1323 232.63 49.9296C232.545 49.5294 232.295 48.9331 231.697 48.4639C231.401 48.2348 231.023 48.0382 230.586 47.9565C230.151 47.8771 229.658 47.887 229.186 48.0628C228.715 48.2282 228.263 48.5457 227.942 48.9879C227.612 49.4245 227.424 49.9882 227.419 50.568C227.424 51.1482 227.611 51.7119 227.942 52.1485C228.263 52.5907 228.715 52.9087 229.186 53.0741C229.658 53.2499 230.151 53.2598 230.586 53.1804C231.024 53.0982 231.401 52.9016 231.697 52.6725C232.295 52.2033 232.545 51.607 232.63 51.2073C232.675 51.0046 232.689 50.8425 232.685 50.7338C232.685 50.6251 232.681 50.5684 232.675 50.5684C232.654 50.567 232.663 50.7981 232.558 51.1893C232.454 51.5725 232.193 52.1338 231.615 52.5657C231.329 52.7764 230.969 52.9546 230.556 53.025C230.146 53.0925 229.685 53.0779 229.246 52.9092C228.807 52.7504 228.389 52.4509 228.092 52.0379C227.787 51.6302 227.615 51.1071 227.61 50.568C227.615 50.0289 227.787 49.5063 228.092 49.0985C228.389 48.6855 228.807 48.3864 229.246 48.2277C229.684 48.059 230.146 48.0439 230.556 48.1119C230.969 48.1823 231.328 48.3605 231.615 48.5712C232.193 49.0026 232.454 49.5639 232.558 49.9476C232.663 50.3383 232.654 50.5699 232.675 50.5684" fill="#17282F"/>
<path d="M205.556 41.8474V44.0029H203.856V41.8214L201.563 37.9923H203.358L204.783 40.3793L206.208 37.9923H207.857L205.556 41.8474" fill="#17282F"/>
<path d="M213.084 42.6889V44.0029H208.258V37.9923H212.972V39.3058H209.941V40.3189H212.612V41.5899H209.941V42.6889H213.084" fill="#17282F"/>
<path d="M213.606 43.4625L214.164 42.2085C214.696 42.5605 215.452 42.801 216.147 42.801C216.852 42.801 217.126 42.6035 217.126 42.312C217.126 41.3589 213.709 42.054 213.709 39.8214C213.709 38.7484 214.585 37.8724 216.371 37.8724C217.152 37.8724 217.959 38.0524 218.552 38.3964L218.028 39.6584C217.453 39.3494 216.886 39.1944 216.362 39.1944C215.65 39.1944 215.392 39.4354 215.392 39.7354C215.392 40.6544 218.801 39.9674 218.801 42.183C218.801 43.2305 217.925 44.1235 216.139 44.1235C215.152 44.1235 214.173 43.8575 213.606 43.4625" fill="#17282F"/>
<path d="M295.386 50.5774C295.386 59.9867 303.014 67.6147 312.423 67.6147C321.833 67.6147 329.461 59.9867 329.461 50.5774C329.461 41.1676 321.833 33.5396 312.423 33.5396C303.014 33.5396 295.386 41.1676 295.386 50.5774Z" fill="white"/>
<path d="M295.386 50.5768C295.386 50.5768 295.383 50.4833 295.389 50.3004C295.396 50.1114 295.406 49.8416 295.42 49.4896C295.427 49.3105 295.436 49.1111 295.445 48.8914C295.465 48.6727 295.508 48.435 295.543 48.1765C295.581 47.9176 295.622 47.6398 295.666 47.3421C295.698 47.0425 295.806 46.7378 295.88 46.407C296.169 45.0817 296.776 43.513 297.745 41.8469C298.721 40.1885 300.136 38.4525 302.071 36.9764C302.314 36.7941 302.56 36.6093 302.809 36.4227C303.068 36.2512 303.341 36.0943 303.611 35.9265C303.887 35.7683 304.149 35.5764 304.444 35.4408C304.737 35.2995 305.033 35.1564 305.332 35.0118C305.481 34.9404 305.632 34.8681 305.783 34.7963C305.94 34.7382 306.099 34.6801 306.257 34.622C306.575 34.5048 306.896 34.3871 307.22 34.2681C307.547 34.1589 307.889 34.088 308.228 33.995C308.57 33.9165 308.906 33.7956 309.263 33.7578C309.971 33.6552 310.686 33.5078 311.427 33.5017C311.796 33.488 312.169 33.4516 312.543 33.4563C312.919 33.4747 313.297 33.4936 313.677 33.5125C313.867 33.5253 314.059 33.5239 314.249 33.5485C314.439 33.5773 314.63 33.6061 314.82 33.6349C315.202 33.6973 315.59 33.7412 315.973 33.8201C316.73 34.0238 317.514 34.1764 318.259 34.4864C319.028 34.7311 319.751 35.1091 320.495 35.4649C320.857 35.6605 321.204 35.8883 321.563 36.1009C321.738 36.2129 321.925 36.3083 322.093 36.435L322.598 36.812C323.295 37.2892 323.905 37.8865 324.543 38.462C324.832 38.78 325.123 39.0994 325.415 39.4202L325.635 39.6616L325.832 39.922L326.224 40.4465L326.619 40.9738L326.964 41.537L327.309 42.1045L327.482 42.3894L327.629 42.6889C327.822 43.0901 328.016 43.4931 328.212 43.8976C328.366 44.3191 328.521 44.7419 328.677 45.1667C329.237 46.8871 329.539 48.7147 329.563 50.574C329.539 52.4342 329.238 54.2623 328.679 55.9836C328.523 56.4084 328.367 56.8318 328.213 57.2532C328.018 57.6577 327.824 58.0607 327.63 58.4624L327.483 58.7619L327.31 59.0468L326.966 59.6143L326.62 60.178L326.226 60.7053L325.832 61.2302L325.635 61.4906L325.416 61.7316C325.124 62.0529 324.833 62.3723 324.544 62.6903C323.906 63.2662 323.295 63.8635 322.598 64.3412L322.093 64.7182C321.926 64.8449 321.739 64.9403 321.563 65.0523C321.205 65.2644 320.858 65.4927 320.495 65.6883C319.752 66.0441 319.028 66.4221 318.259 66.6673C317.513 66.9768 316.73 67.1294 315.973 67.3335C315.589 67.412 315.202 67.4564 314.82 67.5187C314.629 67.5476 314.439 67.5764 314.249 67.6052C314.059 67.6298 313.866 67.6284 313.677 67.6411C313.296 67.66 312.918 67.6784 312.543 67.6973C312.168 67.7021 311.796 67.6652 311.427 67.6515C310.685 67.6454 309.97 67.4979 309.262 67.3959C308.905 67.3581 308.569 67.2367 308.227 67.1582C307.888 67.0651 307.545 66.9943 307.218 66.8851C306.895 66.766 306.574 66.6479 306.256 66.5312C306.097 66.4726 305.939 66.4145 305.782 66.3569C305.631 66.2846 305.48 66.2128 305.33 66.1409C305.032 65.9968 304.736 65.8536 304.443 65.7119C304.148 65.5763 303.886 65.3845 303.61 65.2266C303.34 65.0584 303.067 64.9016 302.808 64.73C302.559 64.5434 302.313 64.3587 302.07 64.1763C300.135 62.6997 298.72 60.9642 297.744 59.3058C296.776 57.6397 296.169 56.071 295.879 54.7457C295.806 54.4149 295.698 54.1106 295.665 53.8106C295.622 53.5134 295.581 53.2351 295.543 52.9766C295.508 52.7182 295.465 52.4805 295.445 52.2618C295.436 52.042 295.427 51.8426 295.42 51.6636C295.406 51.312 295.396 51.0422 295.389 50.8528C295.383 50.6704 295.386 50.5768 295.386 50.5768C295.386 50.5768 295.397 50.6704 295.41 50.8523C295.422 51.0413 295.439 51.3106 295.461 51.6612C295.472 51.8393 295.483 52.0378 295.496 52.2566C295.519 52.4749 295.565 52.7111 295.603 52.9681C295.644 53.2252 295.688 53.5021 295.735 53.7974C295.77 54.0955 295.88 54.3979 295.957 54.7263C296.256 56.0427 296.872 57.5982 297.842 59.2472C298.821 60.8891 300.233 62.6048 302.157 64.061C302.399 64.241 302.644 64.4234 302.891 64.6077C303.149 64.7768 303.42 64.9313 303.688 65.0967C303.962 65.2526 304.222 65.4416 304.516 65.5749C304.806 65.7143 305.1 65.8551 305.396 65.9973C305.545 66.0677 305.694 66.1386 305.844 66.2099C306 66.2666 306.157 66.3238 306.314 66.381C306.629 66.4958 306.947 66.612 307.268 66.7287C307.593 66.836 307.932 66.905 308.267 66.9961C308.606 67.0732 308.94 67.1927 309.294 67.2286C309.994 67.3283 310.703 67.4729 311.437 67.4767C311.802 67.4894 312.171 67.5253 312.542 67.5197C312.913 67.5003 313.287 67.4809 313.663 67.4616C313.851 67.4488 314.041 67.4497 314.23 67.4252C314.417 67.3959 314.606 67.3671 314.795 67.3382C315.172 67.2754 315.556 67.2315 315.935 67.153C316.683 66.9494 317.458 66.7977 318.195 66.4901C318.955 66.2468 319.67 65.8711 320.404 65.5186C320.762 65.3244 321.105 65.0986 321.46 64.8883C321.633 64.7773 321.818 64.6828 321.983 64.5576L322.482 64.1838C323.171 63.7113 323.773 63.1198 324.404 62.5504C324.69 62.2357 324.976 61.9196 325.265 61.6016L325.481 61.3635L325.676 61.1055L326.064 60.5867L326.453 60.0651L326.794 59.508L327.135 58.9467L327.306 58.6655L327.451 58.3688C327.642 57.9724 327.834 57.5741 328.026 57.1743C328.178 56.7576 328.332 56.3389 328.486 55.9194C329.037 54.2188 329.334 52.412 329.358 50.574C329.334 48.7369 329.036 46.931 328.484 45.231C328.331 44.8114 328.177 44.3932 328.024 43.9765C327.832 43.5768 327.64 43.1789 327.449 42.782L327.305 42.4858L327.134 42.2046L326.793 41.6438L326.452 41.0862L326.063 40.5651L325.675 40.0463L325.48 39.7887L325.264 39.5506C324.975 39.2326 324.689 38.9165 324.403 38.6018C323.772 38.0329 323.17 37.4418 322.481 36.9689L321.983 36.5956C321.818 36.4704 321.632 36.3754 321.459 36.2648C321.105 36.0546 320.762 35.8287 320.404 35.6345C319.669 35.282 318.955 34.9069 318.195 34.6635C317.458 34.3559 316.683 34.2043 315.935 34.0006C315.556 33.9222 315.172 33.8778 314.795 33.8154C314.606 33.7866 314.418 33.7573 314.23 33.7285C314.042 33.7039 313.852 33.7049 313.664 33.6916C313.287 33.6723 312.913 33.6534 312.543 33.634C312.171 33.6283 311.803 33.6637 311.438 33.6765C310.704 33.6803 309.995 33.8253 309.294 33.9246C308.941 33.9605 308.608 34.08 308.268 34.157C307.933 34.2482 307.594 34.3172 307.269 34.4245C306.949 34.5412 306.63 34.6569 306.315 34.7722C306.158 34.8294 306.001 34.8866 305.845 34.9433C305.695 35.0141 305.546 35.085 305.397 35.1554C305.101 35.2976 304.807 35.4384 304.517 35.5778C304.223 35.7111 303.963 35.9006 303.689 36.0565C303.421 36.2214 303.15 36.3764 302.892 36.545C302.645 36.7293 302.4 36.9117 302.158 37.0917C300.234 38.548 298.822 40.2636 297.843 41.9055C296.872 43.5546 296.256 45.11 295.957 46.4264C295.881 46.7553 295.77 47.0577 295.735 47.3558C295.688 47.6511 295.644 47.9275 295.603 48.185C295.565 48.4421 295.519 48.6783 295.496 48.8966C295.483 49.1154 295.472 49.3138 295.461 49.4924C295.439 49.843 295.422 50.1119 295.41 50.3009C295.397 50.4833 295.386 50.5768 295.386 50.5768" fill="#17282F"/>
<path d="M288.906 61.2849C288.906 62.8149 290.146 64.0552 291.676 64.0552C293.206 64.0552 294.447 62.8149 294.447 61.2849C294.447 59.755 293.206 58.5147 291.676 58.5147C290.146 58.5147 288.906 59.755 288.906 61.2849Z" fill="white"/>
<path d="M288.906 61.2838C288.899 61.2838 288.895 61.2229 288.895 61.1057C288.892 60.989 288.906 60.8151 288.954 60.5977C289.046 60.1682 289.314 59.528 289.957 59.0243C290.275 58.7782 290.679 58.5669 291.15 58.4791C291.616 58.394 292.146 58.4044 292.652 58.5934C293.159 58.7706 293.643 59.1117 293.988 59.5866C294.343 60.0553 294.544 60.6606 294.549 61.2833C294.544 61.9061 294.343 62.5114 293.988 62.9801C293.643 63.4554 293.159 63.7966 292.652 63.9742C292.146 64.1627 291.616 64.1731 291.15 64.0881C290.679 64.0002 290.275 63.789 289.957 63.5433C289.314 63.0391 289.046 62.3989 288.954 61.9699C288.906 61.7521 288.892 61.5782 288.895 61.4615C288.895 61.3443 288.899 61.2838 288.906 61.2838C288.929 61.2824 288.918 61.5304 289.031 61.95C289.143 62.362 289.424 62.9645 290.044 63.428C290.352 63.6543 290.737 63.8457 291.181 63.9213C291.621 63.9941 292.117 63.978 292.588 63.797C293.059 63.6265 293.508 63.3052 293.827 62.8615C294.155 62.4239 294.339 61.8622 294.345 61.2833C294.339 60.7045 294.155 60.1432 293.827 59.7057C293.508 59.262 293.059 58.9407 292.588 58.7706C292.117 58.5892 291.621 58.5731 291.181 58.6459C290.738 58.7214 290.352 58.9128 290.044 59.1391C289.424 59.6027 289.143 60.2051 289.031 60.6171C288.918 61.0367 288.929 61.2852 288.906 61.2838" fill="#17282F"/>
<path d="M311.634 46.7352V53.937H309.957L306.778 50.0999V53.937H304.782V46.7352H306.459L309.638 50.5728V46.7352H311.634Z" fill="#17282F"/>
<path d="M318.653 50.3375C318.653 49.0925 317.799 48.2798 316.709 48.2798C315.618 48.2798 314.764 49.0925 314.764 50.3375C314.764 51.5825 315.618 52.3952 316.709 52.3952C317.799 52.3952 318.653 51.5825 318.653 50.3375ZM312.706 50.3375C312.706 48.1768 314.404 46.5925 316.709 46.5925C319.013 46.5925 320.711 48.1768 320.711 50.3375C320.711 52.4982 319.013 54.0825 316.709 54.0825C314.404 54.0825 312.706 52.4982 312.706 50.3375Z" fill="#17282F"/>
<path d="M277.072 26.6761C268.7 23.653 264.899 14.0188 268.952 6.09407C272.294 -0.441061 280.114 -3.52648 287.018 -1.03358C295.39 1.98946 299.191 11.6242 295.138 19.5489C291.796 26.084 283.976 29.169 277.072 26.6761" fill="white"/>
<path d="M276.183 26.3225C276.183 26.3225 276.256 26.3565 276.403 26.4147C276.556 26.4742 276.773 26.5588 277.056 26.6693C277.201 26.7251 277.362 26.787 277.539 26.855C277.719 26.915 277.922 26.9623 278.139 27.0232C278.357 27.0823 278.592 27.1456 278.842 27.2132C279.091 27.2907 279.37 27.31 279.657 27.3653C280.807 27.5921 282.259 27.6507 283.912 27.4565C285.563 27.2538 287.425 26.7293 289.261 25.704C289.489 25.5741 289.72 25.4427 289.954 25.3099C290.179 25.1635 290.397 25.0009 290.623 24.8445C290.843 24.6806 291.085 24.5393 291.294 24.3512C291.507 24.1684 291.722 23.9836 291.939 23.7965C292.102 23.6416 292.37 23.3874 292.534 23.2319L292.567 23.1969C292.769 22.9853 292.973 22.7712 293.179 22.5558C293.377 22.3342 293.551 22.0875 293.742 21.8508C293.922 21.607 294.133 21.3816 294.286 21.1118C294.611 20.5869 294.974 20.0704 295.234 19.485C295.371 19.1972 295.529 18.9147 295.654 18.6161C295.81 18.2017 295.967 17.7835 296.126 17.3606C296.143 17.3191 296.156 17.2761 296.168 17.2331C296.21 17.0729 296.253 16.9118 296.296 16.7502C296.377 16.4265 296.476 16.1043 296.546 15.773C296.644 15.1035 296.793 14.4297 296.804 13.7323C296.874 13.0387 296.824 12.3356 296.798 11.624C296.767 11.2697 296.706 10.9158 296.661 10.559C296.633 10.3814 296.622 10.1999 296.579 10.0241L296.454 9.49401C296.343 8.91992 296.152 8.36332 295.959 7.80246C295.85 7.52652 295.741 7.25106 295.632 6.97465L295.241 6.10713L295.102 5.86144L294.821 5.36957L294.539 4.87582L294.212 4.40803L293.881 3.93931L293.715 3.70449L293.528 3.48476C293.117 3.05006 292.446 2.34086 292.035 1.90616L291.925 1.80125C290.755 0.76601 289.409 -0.101957 287.945 -0.76062C286.462 -1.38148 284.91 -1.77273 283.353 -1.92156C283.308 -1.92393 283.262 -1.92675 283.216 -1.92911C282.613 -1.93336 281.631 -1.93952 281.029 -1.9433L280.74 -1.93005L280.456 -1.89132L279.887 -1.81288L279.321 -1.73303L278.768 -1.60214L278.216 -1.47126L277.942 -1.40465L277.04 -1.09753C276.764 -0.988382 276.488 -0.880161 276.212 -0.771487C275.671 -0.53004 275.134 -0.289548 274.639 0.0213557L274.166 0.291635C274.008 0.380937 273.868 0.496225 273.719 0.596867C273.427 0.807602 273.127 1.00462 272.847 1.22434C272.31 1.69116 271.761 2.13483 271.302 2.65978C270.8 3.14409 270.409 3.71251 269.987 4.24171C269.793 4.51906 269.625 4.81108 269.444 5.09174C269.355 5.23349 269.267 5.37429 269.179 5.5151L269.114 5.63133C268.914 6.03674 268.715 6.4379 268.519 6.8348C268.387 7.13058 268.287 7.43817 268.171 7.73537C267.921 8.32505 267.792 8.9426 267.629 9.53842C267.537 9.8342 267.517 10.1432 267.461 10.4409C267.418 10.7414 267.356 11.0372 267.331 11.3339C267.313 11.6335 267.296 11.9307 267.279 12.2246C267.277 12.4608 267.273 12.8454 267.271 13.0817V13.0859C267.282 13.3723 267.294 13.6562 267.305 13.9364C267.311 14.218 267.373 14.4912 267.403 14.7638C267.443 15.0359 267.474 15.3062 267.521 15.5708C267.583 15.8321 267.645 16.0906 267.706 16.3462C268.21 18.3874 269.099 20.1059 270.077 21.4501C271.064 22.7901 272.098 23.8112 273.049 24.4963C273.286 24.6688 273.49 24.8587 273.716 24.9877C273.937 25.1247 274.143 25.2528 274.335 25.3718C274.528 25.4886 274.701 25.6048 274.868 25.6955C275.039 25.7787 275.194 25.8538 275.333 25.9214C275.607 26.0527 275.818 26.1538 275.965 26.2247C276.108 26.2923 276.183 26.3225 276.183 26.3225C276.183 26.3225 276.113 26.2809 275.973 26.2082C275.827 26.1335 275.62 26.0277 275.349 25.8897C275.212 25.8198 275.058 25.7423 274.89 25.6568C274.725 25.5637 274.553 25.4456 274.363 25.327C274.173 25.206 273.969 25.0761 273.751 24.9372C273.527 24.8072 273.325 24.6154 273.091 24.442C272.151 23.7517 271.13 22.7287 270.157 21.392C269.193 20.0515 268.319 18.342 267.827 16.3159C267.768 16.0627 267.708 15.8061 267.647 15.5467C267.601 15.2845 267.572 15.0161 267.533 14.7468C267.504 14.476 267.443 14.2053 267.439 13.9265C267.428 13.6487 267.418 13.368 267.407 13.0845C267.409 12.8591 267.414 12.4906 267.417 12.2652L267.419 12.2236C267.436 11.9345 267.454 11.6425 267.472 11.3481C267.498 11.0542 267.56 10.7617 267.603 10.4645C267.659 10.1692 267.679 9.86398 267.772 9.5715C267.935 8.98182 268.064 8.37041 268.313 7.78735C268.429 7.49345 268.527 7.18916 268.66 6.89716C268.855 6.50357 269.053 6.10572 269.252 5.7041L269.315 5.59211C269.402 5.4532 269.49 5.3138 269.579 5.17394C269.758 4.89659 269.925 4.60789 270.117 4.33431C270.536 3.81173 270.923 3.24946 271.42 2.77177C271.875 2.25296 272.418 1.81592 272.95 1.35476C273.227 1.13788 273.524 0.943666 273.813 0.735295C273.961 0.63607 274.099 0.521743 274.255 0.43433L274.723 0.16735C275.335 -0.215846 276.01 -0.489403 276.679 -0.79322C277.027 -0.911344 277.376 -1.02994 277.727 -1.14949L277.99 -1.23928L278.261 -1.30448L278.806 -1.43298L279.353 -1.56246L279.913 -1.6409L280.474 -1.71791L280.756 -1.75619L281.041 -1.76895C281.639 -1.7647 282.615 -1.7576 283.214 -1.75335L283.338 -1.74627C284.876 -1.59838 286.409 -1.21234 287.874 -0.598568C289.322 0.052535 290.651 0.910135 291.808 1.93262L291.91 2.02996C292.318 2.46088 292.984 3.16394 293.392 3.59486L293.577 3.81175L293.741 4.04373L294.069 4.50679L294.393 4.96889L294.672 5.45698L294.95 5.9427L295.087 6.18511L295.201 6.43882C295.354 6.77666 295.506 7.11308 295.656 7.44761C295.891 8.14313 296.152 8.82401 296.289 9.53228L296.414 10.0558C296.456 10.2302 296.468 10.4092 296.496 10.5845C296.54 10.9375 296.602 11.2871 296.632 11.6373C296.658 12.3408 296.71 13.0363 296.641 13.7224C296.632 14.4122 296.486 15.0785 296.39 15.7409C296.321 16.0688 296.224 16.3878 296.144 16.7081C296.102 16.8678 296.06 17.0275 296.018 17.1863L295.979 17.3091C295.822 17.7287 295.667 18.1445 295.513 18.5561C295.389 18.8518 295.234 19.1316 295.099 19.4165C294.843 19.9972 294.485 20.5084 294.165 21.0301C294.014 21.2975 293.805 21.521 293.627 21.7629C293.44 21.9977 293.268 22.2425 293.072 22.4627C292.869 22.6767 292.668 22.8889 292.468 23.0991C292.369 23.204 292.269 23.3089 292.171 23.4129L292.141 23.4412C291.826 23.7134 291.516 23.9822 291.211 24.2473C291.004 24.4339 290.765 24.5743 290.547 24.7382C290.324 24.8937 290.108 25.0557 289.885 25.2017C289.654 25.3345 289.425 25.4654 289.2 25.5949C287.383 26.6188 285.538 27.148 283.9 27.3587C282.259 27.5605 280.815 27.5132 279.668 27.2973C279.382 27.2448 279.104 27.2283 278.856 27.1536C278.605 27.0894 278.371 27.0289 278.153 26.9727C277.936 26.9146 277.733 26.8697 277.552 26.813C277.374 26.7478 277.213 26.6887 277.068 26.6358C276.783 26.5328 276.564 26.4534 276.41 26.3976C276.261 26.3452 276.183 26.3225 276.183 26.3225" fill="#17282F"/>
<path d="M270.308 32.7201C268.552 32.3794 267.762 30.3784 268.813 28.9307C269.342 28.2016 270.276 27.8331 271.161 28.0046C272.916 28.3453 273.706 30.3463 272.656 31.7935C272.126 32.5231 271.192 32.8916 270.308 32.7201" fill="white"/>
<path d="M269.781 32.5587C269.779 32.5644 269.825 32.5885 269.918 32.6291C270.01 32.6717 270.152 32.7203 270.341 32.7567C270.713 32.8323 271.313 32.8394 271.933 32.5039C272.237 32.3366 272.544 32.0881 272.776 31.746C273.004 31.4054 273.177 30.982 273.202 30.5161C273.235 30.0535 273.132 29.5522 272.874 29.1152C272.625 28.6734 272.215 28.3058 271.723 28.087C271.228 27.8767 270.679 27.8281 270.185 27.9476C269.69 28.0577 269.253 28.3242 268.938 28.6644C268.614 29.0013 268.423 29.4166 268.33 29.8163C268.238 30.2189 268.266 30.6125 268.352 30.9494C268.53 31.6312 268.945 32.0645 269.254 32.2847C269.41 32.3981 269.543 32.469 269.636 32.5068C269.729 32.5464 269.779 32.5644 269.781 32.5587C269.79 32.5412 269.59 32.4642 269.296 32.2299C269.008 31.9998 268.627 31.5703 268.473 30.9192C268.4 30.5979 268.38 30.226 268.474 29.8489C268.567 29.4747 268.751 29.0873 269.056 28.7764C269.353 28.4617 269.762 28.2165 270.224 28.1163C270.683 28.0072 271.192 28.0544 271.652 28.2491C272.109 28.4527 272.491 28.792 272.725 29.2026C272.967 29.6075 273.067 30.0743 273.039 30.5057C273.021 30.9414 272.863 31.3397 272.654 31.6638C272.442 31.9894 272.157 32.2289 271.872 32.3948C271.291 32.7269 270.717 32.7421 270.353 32.6891C269.981 32.6339 269.788 32.5403 269.781 32.5587" fill="#17282F"/>
<path d="M277.878 10.3523H280.104C280.104 10.3523 280.105 8.48263 282.047 8.44908C283.056 8.4316 283.58 9.09262 283.792 9.59914C284.039 10.1869 283.964 10.8569 283.634 11.4022C283.256 12.025 282.428 12.591 280.928 12.3269V17.3472H283.129V14.4059C283.129 14.4059 286.217 13.6078 286.217 10.2049C286.217 6.94937 283.298 6.19289 282.047 6.19289C281.092 6.19289 277.836 6.42396 277.878 10.3523" fill="#17282F"/>
<path d="M283.156 20.4678H280.921V18.3808H283.156V20.4678Z" fill="#17282F"/>
<path d="M200.769 143.02C200.769 143.02 196.734 139.232 195.182 138.226C193.63 137.219 190.15 135.836 188.85 135.71C187.55 135.584 181.47 137.345 181.47 137.345C181.47 137.345 172.496 136.549 170.986 137.597C169.477 138.645 169.603 139.736 170.232 140.532C170.861 141.329 173.293 141.077 175.976 141.119C178.66 141.161 179.373 141.413 179.373 141.413L175.473 145.564L185.579 148.374L191.743 148.143L193.966 150.938L200.769 143.02" fill="#D2E0F9"/>
<path d="M170.003 133.64L170.247 142.582L170.679 143.694L175.09 149.071L185.852 148.362L177.278 145.021L174.23 142.704L173.051 138.884C173.051 138.884 173.417 132.99 170.003 133.64Z" fill="#D2E0F9"/>
<path d="M170.759 143.898H168.139C168.139 143.898 164.719 138.273 161.589 140.183L162.308 141.295C162.308 141.295 160.898 140.656 160.004 141.843L168.63 149.41H169.027L178.219 148.818L170.759 143.898" fill="#D2E0F9"/>
<path d="M172.32 145.608C172.317 145.635 172.043 145.622 171.578 145.639C171.121 145.666 170.442 145.696 169.762 146.005L169.674 146.044L169.617 145.964C169.351 145.589 169.023 145.184 168.685 144.763C167.987 143.902 167.356 143.122 166.825 142.467C166.352 141.876 166.061 141.51 166.086 141.487C166.111 141.463 166.45 141.791 166.957 142.354C167.465 142.916 168.15 143.708 168.877 144.609C169.217 145.034 169.538 145.437 169.808 145.838L169.664 145.798C170.418 145.478 171.11 145.489 171.579 145.5C172.052 145.522 172.324 145.584 172.32 145.608Z" fill="white"/>
<path d="M190.965 140.408C190.988 140.488 189.514 140.788 187.933 141.692C186.347 142.589 185.336 143.703 185.279 143.643C185.257 143.623 185.482 143.322 185.916 142.898C186.348 142.474 187.003 141.939 187.811 141.478C188.619 141.019 189.414 140.73 189.999 140.575C190.586 140.419 190.959 140.379 190.965 140.408" fill="white"/>
<path d="M182.368 138.095C182.417 138.146 181.822 138.787 181.133 139.611C180.442 140.434 179.915 141.132 179.856 141.093C179.801 141.057 180.243 140.288 180.945 139.454C181.643 138.617 182.323 138.047 182.368 138.095" fill="white"/>
<path d="M173.381 146.858C173.375 146.863 173.304 146.792 173.175 146.653C173.031 146.492 172.847 146.287 172.62 146.034C172.376 145.755 172.086 145.425 171.753 145.045C171.584 144.85 171.405 144.643 171.215 144.424C171.028 144.205 170.812 143.977 170.631 143.698C170.27 143.146 170.022 142.43 170.019 141.649C170.004 140.887 169.988 140.074 169.972 139.22C169.943 137.504 169.912 135.622 169.88 133.642L169.878 133.533L169.98 133.519C170.07 133.507 170.167 133.493 170.265 133.48C170.899 133.409 171.578 133.632 172.004 134.097C172.434 134.553 172.674 135.118 172.837 135.668C173.15 136.782 173.2 137.876 173.16 138.89L173.155 138.851C173.592 140.301 173.981 141.592 174.309 142.679L174.28 142.638C175.204 143.36 175.953 143.945 176.496 144.369C176.736 144.563 176.93 144.72 177.084 144.844C177.216 144.954 177.283 145.014 177.278 145.021C177.274 145.027 177.197 144.979 177.056 144.881C176.895 144.766 176.692 144.621 176.441 144.441C175.887 144.032 175.123 143.467 174.18 142.77L174.159 142.754L174.151 142.728C173.809 141.645 173.403 140.359 172.947 138.915L172.942 138.898L172.942 138.876C172.973 137.891 172.914 136.804 172.607 135.735C172.449 135.207 172.216 134.675 171.829 134.267C171.444 133.854 170.868 133.665 170.287 133.725C170.198 133.737 170.108 133.75 170.026 133.76L170.126 133.638C170.151 135.618 170.175 137.501 170.197 139.216C170.268 140.915 170.002 142.533 170.777 143.604C170.942 143.871 171.148 144.097 171.333 144.324C171.518 144.547 171.693 144.758 171.857 144.957C172.178 145.347 172.457 145.686 172.693 145.973C172.905 146.238 173.077 146.453 173.212 146.621C173.329 146.771 173.387 146.852 173.381 146.858" fill="white"/>
<path d="M169.027 149.412C169.031 149.424 168.843 149.433 168.569 149.281C168.295 149.134 167.946 148.854 167.557 148.473C166.778 147.708 165.83 146.54 164.854 145.204C163.879 143.866 163.052 142.617 162.472 141.702C162.182 141.244 161.954 140.87 161.802 140.607C161.65 140.345 161.575 140.195 161.589 140.185C161.603 140.176 161.706 140.309 161.883 140.555C162.088 140.849 162.332 141.199 162.617 141.606C163.233 142.495 164.081 143.726 165.053 145.059C166.025 146.39 166.945 147.567 167.681 148.351C168.049 148.743 168.372 149.035 168.618 149.199C168.863 149.368 169.029 149.389 169.027 149.412" fill="white"/>
<path d="M184.729 143.64L179.98 143.32L178.561 139.429L178.299 136.812C178.172 135.534 177.102 134.525 175.817 134.544L175.771 134.545L176.038 140.958L177.013 144.941L180.871 147.217H185.589L184.729 143.64" fill="#D2E0F9"/>
<path d="M184.729 143.64L179.98 143.32L178.561 139.429L178.299 136.812C178.172 135.534 177.102 134.525 175.817 134.544L175.771 134.545L176.038 140.958L177.013 144.941L180.871 147.217" fill="#D2E0F9"/>
<path d="M180.872 147.216C180.867 147.224 180.772 147.177 180.593 147.08C180.393 146.97 180.135 146.827 179.816 146.649C179.119 146.249 178.155 145.696 176.969 145.015L176.938 144.997L176.929 144.961C176.642 143.819 176.303 142.47 175.93 140.983L175.928 140.973L175.927 140.962C175.843 139.033 175.748 136.853 175.648 134.549L175.643 134.426L175.768 134.421C175.811 134.419 175.859 134.421 175.907 134.423C177.101 134.431 178.117 135.363 178.352 136.428C178.42 136.697 178.432 136.96 178.459 137.211C178.483 137.465 178.508 137.716 178.532 137.965C178.58 138.461 178.627 138.946 178.673 139.417L178.666 139.39C179.186 140.838 179.656 142.15 180.064 143.289L179.986 143.23C181.429 143.344 182.608 143.437 183.458 143.504C183.847 143.54 184.16 143.569 184.401 143.591C184.617 143.615 184.73 143.631 184.729 143.639C184.729 143.648 184.614 143.649 184.398 143.643C184.155 143.633 183.841 143.619 183.451 143.603C182.6 143.555 181.419 143.489 179.974 143.408L179.917 143.405L179.896 143.35C179.476 142.216 178.991 140.91 178.456 139.467L178.451 139.454L178.449 139.439C178.401 138.969 178.351 138.484 178.3 137.988C178.274 137.74 178.248 137.489 178.222 137.234C178.194 136.978 178.181 136.722 178.119 136.485C177.901 135.516 176.975 134.675 175.902 134.669C175.858 134.667 175.815 134.665 175.774 134.667L175.894 134.539C175.985 136.843 176.072 139.024 176.148 140.952L176.145 140.93C176.501 142.422 176.824 143.774 177.098 144.919L177.057 144.865C178.227 145.574 179.178 146.151 179.865 146.567C180.174 146.761 180.424 146.916 180.618 147.038C180.789 147.148 180.876 147.209 180.872 147.216" fill="white"/>
<path d="M286.445 67.9779C282.375 52.4658 278.618 34.414 255.937 36.0365C255.937 36.0365 241.96 38.726 235.323 49.0411C231.418 55.1089 228.036 81.2655 227.363 101.924V101.924L227.362 101.934C227.335 102.776 227.685 108.639 227.662 109.462L287.698 114.459H298.513C298.513 114.459 297.835 103.5 294.575 92.8696C291.404 82.5294 287.887 73.4693 286.445 67.9779" fill="#17282F"/>
<path d="M252.92 41.9477L254.339 40.5954L269.672 46.7748C271.891 46.8976 273.646 48.6974 273.714 50.9186L273.579 100.879C273.599 104.267 272.92 107.201 270.874 109.902L268.721 112.745C263.81 119.227 253.71 118.694 249.823 111.551C249.551 111.052 249.362 110.614 249.28 110.259C249.198 109.814 249.077 109.521 249.052 109.142C248.595 105.122 248.569 101.637 248.569 101.637C248.296 97.2239 248.206 95.4133 248.206 95.4544C248.206 95.4544 238.814 94.3748 236.275 82.3194C235.013 76.3239 235.251 68.076 235.605 59.958C236.096 48.7234 243.889 41.9369 252.92 41.9477Z" fill="#D2E0F9"/>
<path d="M256.867 67.9733C256.879 68.7978 257.587 69.4674 258.448 69.4702C259.308 69.4735 259.997 68.8097 259.985 67.9851C259.972 67.1606 259.264 66.4901 258.405 66.4868C257.543 66.4835 256.855 67.1493 256.867 67.9733Z" fill="#17282F"/>
<path d="M240.856 68.3908C240.869 69.2153 241.577 69.8848 242.438 69.8877C243.298 69.891 243.986 69.2271 243.974 68.4022C243.962 67.5781 243.253 66.9076 242.394 66.9043C241.533 66.901 240.844 67.5668 240.856 68.3908Z" fill="#17282F"/>
<path d="M237.209 63.1695C237.412 63.3628 238.55 62.4301 240.227 62.3502C241.901 62.2467 243.175 63.0481 243.347 62.8331C243.432 62.7376 243.216 62.3809 242.661 62.0176C242.114 61.6556 241.195 61.323 240.151 61.3792C239.106 61.4378 238.247 61.8664 237.762 62.285C237.266 62.7069 237.109 63.083 237.209 63.1695" fill="#17282F"/>
<path d="M253.844 62.5968C254.066 62.7683 255.103 61.7236 256.762 61.4727C258.416 61.1973 259.766 61.863 259.915 61.6324C259.989 61.5285 259.74 61.1954 259.148 60.8916C258.567 60.5873 257.619 60.3505 256.586 60.514C255.553 60.6794 254.742 61.1944 254.302 61.6608C253.854 62.1309 253.736 62.5217 253.844 62.5968" fill="#17282F"/>
<path d="M248.369 75.5493C248.372 75.4538 247.321 75.3263 245.621 75.1944C245.19 75.1717 244.78 75.107 244.694 74.8183C244.577 74.514 244.733 74.0434 244.916 73.535C245.267 72.4785 245.634 71.371 246.019 70.2105C247.545 65.4799 248.627 61.5978 248.436 61.5383C248.245 61.4787 246.852 65.2649 245.327 69.9955C244.961 71.1616 244.61 72.2734 244.278 73.3366C244.14 73.8317 243.889 74.3978 244.14 75.0286C244.272 75.3428 244.598 75.5592 244.876 75.6197C245.154 75.6896 245.396 75.682 245.608 75.6839C247.313 75.6906 248.368 75.6452 248.369 75.5493Z" fill="#17282F"/>
<path d="M248.206 95.4551C248.206 95.4551 256.407 95.5723 264.263 90.2978C264.263 90.2978 260.593 98.9152 248.373 98.3879L248.206 95.4551" fill="white"/>
<path d="M253.611 78.9601C253.139 78.3893 252.386 78.0751 251.654 78.0335C250.599 77.973 249.857 78.1063 249.294 78.9336C249.03 79.3905 249.052 80.095 249.176 80.2883C249.299 80.482 249.207 80.4863 249.395 80.6223C250.076 81.1147 250.861 81.4308 251.673 81.6184C252.485 81.8055 253.423 81.6113 253.844 80.9521C254.217 80.3672 254.083 79.5299 253.611 78.9601" fill="white"/>
<path d="M253.441 54.894C253.656 55.323 255.101 54.8822 256.874 54.851C258.645 54.7792 260.133 55.1345 260.302 54.6946C260.375 54.4853 260.066 54.0983 259.432 53.7482C258.804 53.398 257.845 53.1207 256.782 53.1505C255.719 53.1821 254.793 53.5143 254.205 53.8998C253.612 54.2859 253.345 54.6894 253.441 54.894Z" fill="#17282F"/>
<path d="M237.451 60.133C237.764 60.4992 238.9 60.0461 240.288 59.9577C241.673 59.8207 242.867 60.0848 243.118 59.6728C243.227 59.4734 243.022 59.1016 242.49 58.7666C241.965 58.4325 241.104 58.1816 240.15 58.2582C239.197 58.3361 238.388 58.7226 237.924 59.137C237.453 59.5533 237.311 59.954 237.451 60.133" fill="#17282F"/>
<path d="M273.408 72.2404C273.408 72.2404 266.953 73.8011 257.793 54.0752C254.675 47.3605 248.619 40.5958 248.619 40.5958L254.301 39.776C254.301 39.776 271.239 44.5477 271.524 44.7613C271.809 44.9749 275.798 53.5214 275.798 53.5214L273.408 72.2404" fill="#17282F"/>
<path d="M271.291 71.4503C271.248 70.5455 272.187 68.3592 273.074 68.1749C275.442 67.6835 279.753 67.6595 280.097 73.7183C280.567 82.0012 272.154 80.7642 272.126 80.5275C272.104 80.3427 271.44 74.5754 271.291 71.4503Z" fill="#D2E0F9"/>
<path d="M274.478 77.2468C274.513 77.218 274.628 77.3394 274.878 77.4372C275.122 77.5327 275.536 77.5846 275.958 77.3985C276.815 77.0276 277.473 75.5964 277.429 74.1014C277.407 73.3463 277.209 72.6376 276.908 72.0578C276.62 71.4667 276.204 71.0656 275.759 71.0126C275.316 70.9356 275.019 71.2172 274.93 71.4559C274.832 71.694 274.895 71.8565 274.851 71.8726C274.83 71.8953 274.666 71.7446 274.713 71.3987C274.738 71.2324 274.824 71.0311 275.01 70.861C275.199 70.688 275.486 70.5893 275.796 70.6049C276.437 70.6129 277.045 71.1681 277.375 71.8036C277.742 72.4401 277.983 73.2362 278.007 74.0839C278.048 75.7561 277.283 77.3659 276.105 77.7802C275.531 77.965 275.035 77.8171 274.773 77.6357C274.504 77.4462 274.451 77.2633 274.478 77.2468" fill="white"/>
<path d="M254.679 79.2955C254.654 79.5081 253.239 79.477 251.558 79.802C249.875 80.1101 248.568 80.6539 248.467 80.465C248.364 80.301 249.606 79.4122 251.422 79.0768C253.235 78.729 254.715 79.1051 254.679 79.2955Z" fill="#17282F"/>
<path d="M319.41 143.487C319.41 143.487 326.347 137.545 328.357 137.386C330.368 137.227 335.656 138.21 335.656 138.21C335.656 138.21 338.995 138.239 340.655 138.032C343.155 137.719 344.865 137.98 345.867 138.285C346.368 138.438 346.994 139.683 345.521 140.532C344.897 140.891 338.831 141.301 338.831 141.301L354.008 145.636L352.037 147.262C351.775 147.478 351.449 147.602 351.109 147.614L329.257 148.389L328.256 150.832L319.41 143.487" fill="#D2E0F9"/>
<path d="M335.975 143.491H343.064C343.064 143.491 345.55 140.19 346.449 138.814C347.235 137.612 348.183 137.259 349.01 137.543C349.225 137.616 349.4 137.777 349.513 137.974C349.68 138.266 349.685 138.625 349.526 138.921L346.41 144.739L348.043 144.187C348.043 144.187 351.316 140.983 351.95 140.243C352.585 139.502 354.912 136.381 356.976 138.656L354.119 141.83L356.976 139.819C356.976 139.819 359.25 137.862 360.467 140.19L351.973 147.353" fill="#D2E0F9"/>
<path d="M328.597 140.554C328.594 140.547 328.691 140.514 328.88 140.457C329.069 140.405 329.345 140.297 329.723 140.263C330.465 140.137 331.599 140.157 332.907 140.594C333.556 140.814 334.249 141.123 334.951 141.535C335.3 141.742 335.657 141.966 336.013 142.216C336.19 142.342 336.369 142.469 336.551 142.599C336.722 142.721 336.934 142.884 337.075 142.957C338.868 143.097 340.921 143.218 343.072 143.369L342.971 143.411C343.633 142.623 344.289 141.766 344.922 140.869C345.169 140.52 345.405 140.168 345.635 139.817C345.864 139.468 346.08 139.106 346.332 138.771C346.582 138.435 346.851 138.116 347.167 137.844C347.322 137.705 347.496 137.586 347.683 137.488C347.877 137.397 348.064 137.308 348.333 137.343L348.292 137.34C348.666 137.303 349.093 137.343 349.409 137.609C349.726 137.884 349.812 138.297 349.781 138.669L349.779 138.689L349.768 138.709C348.417 141.131 347.243 143.238 346.331 144.873L346.338 144.856C346.132 145.554 345.571 145.962 345.088 146.178C344.587 146.396 344.121 146.44 343.753 146.461C343.382 146.477 343.097 146.463 342.906 146.453C342.714 146.442 342.615 146.432 342.615 146.424C342.616 146.417 342.715 146.413 342.907 146.409C343.098 146.405 343.382 146.405 343.747 146.376C344.109 146.343 344.565 146.285 345.037 146.066C345.496 145.85 346.012 145.448 346.187 144.815L346.189 144.806L346.194 144.797C347.089 143.153 348.243 141.035 349.568 138.6L349.556 138.64C349.579 138.337 349.498 137.982 349.257 137.786C349.019 137.585 348.662 137.54 348.315 137.576L348.305 137.577L348.273 137.573C348.149 137.556 347.947 137.617 347.791 137.7C347.628 137.788 347.469 137.896 347.324 138.027C347.03 138.281 346.77 138.59 346.528 138.916C346.061 139.575 345.627 140.316 345.123 141.011C344.485 141.914 343.828 142.772 343.155 143.569L343.116 143.615L343.055 143.611C340.89 143.452 338.877 143.328 337.025 143.165C336.756 143.035 336.621 142.899 336.428 142.766C336.248 142.636 336.071 142.507 335.897 142.381C335.547 142.131 335.198 141.905 334.855 141.697C334.167 141.284 333.49 140.971 332.855 140.744C331.578 140.296 330.47 140.251 329.734 140.348C329.36 140.368 329.084 140.462 328.892 140.499C328.7 140.542 328.599 140.561 328.597 140.554" fill="white"/>
<path d="M356.976 138.655C356.988 138.667 356.889 138.805 356.699 139.045C356.508 139.285 356.227 139.628 355.876 140.047C355.173 140.886 354.189 142.033 353.091 143.29C351.974 144.527 351.045 145.736 350.229 146.483C349.827 146.86 349.472 147.136 349.206 147.297C348.94 147.457 348.776 147.511 348.77 147.498C348.761 147.48 348.91 147.399 349.153 147.218C349.395 147.036 349.727 146.747 350.107 146.359C350.88 145.592 351.778 144.377 352.9 143.134C354 141.875 355.007 140.743 355.744 139.933C356.113 139.528 356.414 139.203 356.627 138.982C356.839 138.761 356.963 138.644 356.976 138.655" fill="white"/>
<path d="M353.088 138.988C353.112 139.012 352.781 139.397 352.227 140C351.672 140.603 350.894 141.426 350.024 142.322C349.31 143.058 348.646 143.73 348.114 144.256L348.095 144.274L348.074 144.28C347.022 144.612 346.333 144.79 346.319 144.734C346.318 144.721 346.479 144.658 346.774 144.546C347.133 144.415 347.545 144.265 348.012 144.094L347.972 144.119C348.482 143.571 349.134 142.887 349.847 142.151C350.718 141.254 351.515 140.451 352.101 139.879C352.688 139.306 353.063 138.964 353.088 138.988" fill="white"/>
<path d="M295.894 108.227C295.894 108.227 306.081 110.852 307.08 124.698C307.65 132.587 303.451 157.928 303.451 157.928L318.495 142.476L331.903 151.805C331.903 151.805 313.663 174.108 309.453 177.46C305.244 180.813 298.54 186.206 296.358 185.769C294.175 185.331 294.175 175.274 294.175 175.274V119.737L295.894 108.227" fill="#3478F6"/>
<path d="M222.658 109.923C222.658 109.923 213.594 112.902 213.964 130.606C214.334 148.309 214.044 154.27 214.044 154.27L200.461 139.896L189.177 152.34C189.177 152.34 201.8 171.095 210.634 180.21C218.958 188.799 226.357 181.34 228.762 175.302C230.71 170.41 232.277 151.814 232.277 151.814L222.658 109.923" fill="#3478F6"/>
<path d="M294.175 167.014L294.028 166.01C293.857 164.748 293.845 160.862 293.914 159.59C293.989 158.204 294.071 156.448 294.175 154.47V167.014Z" fill="#A7A9A8"/>
<path d="M296.592 183.436L294.175 167.013V154.469C294.518 147.953 295.094 139.032 296.403 133.009C296.64 131.919 296.81 130.737 296.927 129.5C297.511 132.978 297.233 136.654 296.685 140.121C295.868 145.301 296.734 151.088 296.698 156.323C296.635 165.431 299.327 174.71 296.592 183.436" fill="#2A68DB"/>
<path d="M220.77 121.195C220.77 121.195 226.829 161.945 228.002 165.513C229.175 169.081 229.175 179.598 229.175 179.598C229.175 179.598 222.815 191.435 222.425 199.666L299.003 199.823L294.028 166.01C293.857 164.747 293.845 160.862 293.914 159.59C294.235 153.636 294.696 140.86 296.403 133.01C298.387 123.881 295.715 108.259 295.715 108.259L272.841 102.625C267.427 110.404 253.92 110.509 248.591 102.625L222.776 109.922L220.77 121.195" fill="#3478F6"/>
<path d="M295.529 164.392C295.516 164.381 295.597 164.253 295.757 164.029C295.916 163.804 296.157 163.487 296.461 163.101C297.075 162.335 297.947 161.279 299.089 160.287C300.231 159.293 301.435 158.612 302.332 158.205C302.782 158.004 303.152 157.853 303.414 157.767C303.674 157.677 303.821 157.635 303.827 157.65C303.881 157.747 301.508 158.508 299.25 160.473C298.127 161.448 297.241 162.476 296.595 163.211C295.954 163.954 295.557 164.414 295.529 164.392Z" fill="#17282F"/>
<path d="M224.619 163.53C224.572 163.543 224.394 162.701 223.816 161.458C223.246 160.219 222.205 158.59 220.61 157.238C219.016 155.885 217.239 155.124 215.924 154.764C214.603 154.396 213.743 154.358 213.748 154.31C213.749 154.296 213.964 154.292 214.35 154.323C214.736 154.353 215.294 154.431 215.968 154.596C217.313 154.917 219.141 155.668 220.77 157.051C222.399 158.432 223.438 160.112 223.975 161.387C224.247 162.025 224.415 162.562 224.508 162.939C224.602 163.315 224.633 163.527 224.619 163.53" fill="#17282F"/>
<path d="M225.108 141.448C225.098 141.463 224.975 141.394 224.761 141.26C224.545 141.127 224.245 140.917 223.881 140.647C223.156 140.106 222.202 139.287 221.252 138.283C220.301 137.278 219.525 136.296 218.984 135.573C218.444 134.848 218.136 134.382 218.162 134.362C218.19 134.341 218.547 134.77 219.121 135.466C219.695 136.159 220.488 137.117 221.43 138.113C222.372 139.109 223.297 139.938 223.99 140.51C224.682 141.083 225.13 141.417 225.108 141.448" fill="#17282F"/>
<path d="M278.565 163.504C278.568 163.506 278.547 163.538 278.503 163.597C278.448 163.668 278.382 163.753 278.301 163.858C278.116 164.081 277.864 164.429 277.494 164.835C276.778 165.672 275.668 166.822 274.178 168.112C272.692 169.406 270.8 170.804 268.59 172.182C266.382 173.563 263.853 174.912 261.146 176.211C258.436 177.505 255.817 178.652 253.447 179.718C251.076 180.781 248.953 181.765 247.198 182.647C245.442 183.526 244.046 184.287 243.095 184.835C242.614 185.102 242.252 185.328 241.999 185.469C241.884 185.534 241.79 185.587 241.712 185.63C241.647 185.665 241.612 185.682 241.61 185.678C241.608 185.675 241.638 185.651 241.699 185.609C241.773 185.56 241.863 185.5 241.973 185.427C242.218 185.272 242.573 185.033 243.046 184.753C243.984 184.178 245.371 183.393 247.12 182.492C248.868 181.588 250.986 180.586 253.354 179.511C255.72 178.434 258.335 177.281 261.04 175.989C263.741 174.693 266.265 173.354 268.471 171.99C270.678 170.627 272.571 169.25 274.065 167.98C275.562 166.712 276.687 165.586 277.423 164.772C277.803 164.376 278.066 164.039 278.263 163.827C278.351 163.728 278.424 163.648 278.483 163.582C278.534 163.527 278.562 163.501 278.565 163.504Z" fill="#17282F"/>
<path d="M222.602 199.026C222.6 199.026 222.599 198.993 222.601 198.926C222.604 198.849 222.608 198.753 222.614 198.63C222.631 198.356 222.655 197.971 222.686 197.479C222.822 196.481 223.033 195.014 223.55 193.219C224.54 189.622 226.483 184.669 229.446 179.164L229.431 179.226C229.127 174.792 228.667 169.841 228.137 164.633C227.127 154.798 226.067 145.911 225.294 139.48C224.905 136.274 224.589 133.676 224.369 131.865C224.264 130.976 224.181 130.28 224.123 129.793C224.098 129.566 224.079 129.387 224.064 129.254C224.052 129.132 224.048 129.07 224.052 129.069C224.057 129.068 224.069 129.13 224.089 129.251C224.11 129.383 224.137 129.561 224.172 129.787C224.241 130.273 224.339 130.966 224.464 131.852C224.703 133.661 225.045 136.257 225.467 139.459C226.284 145.885 227.372 154.77 228.382 164.608C228.913 169.817 229.365 174.772 229.655 179.211L229.657 179.244L229.641 179.274C226.672 184.749 224.703 189.683 223.681 193.256C223.146 195.039 222.916 196.495 222.757 197.487C222.711 197.977 222.676 198.359 222.651 198.632C222.638 198.754 222.627 198.85 222.619 198.927C222.611 198.993 222.606 199.027 222.602 199.026" fill="#17282F"/>
<path d="M297.346 122.148C297.351 122.148 297.354 122.216 297.356 122.35C297.356 122.495 297.357 122.691 297.358 122.943C297.352 123.464 297.367 124.233 297.318 125.222C297.263 127.203 297.059 130.062 296.708 133.585C296.361 137.108 295.85 141.292 295.333 145.941C294.818 150.589 294.302 155.709 294.139 161.102C293.965 166.497 294.493 171.627 295.185 176.249C295.865 180.876 296.668 185.014 297.289 188.497C297.923 191.979 298.388 194.807 298.651 196.77C298.794 197.749 298.874 198.514 298.93 199.032C298.956 199.282 298.976 199.477 298.991 199.622C299.003 199.755 299.008 199.823 299.003 199.823C298.999 199.824 298.987 199.757 298.966 199.624C298.945 199.481 298.917 199.287 298.881 199.038C298.809 198.522 298.713 197.76 298.556 196.783C298.264 194.827 297.774 192.006 297.118 188.529C296.475 185.05 295.654 180.914 294.961 176.282C294.255 171.658 293.718 166.507 293.893 161.095C294.057 155.69 294.58 150.564 295.108 145.915C295.637 141.266 296.166 137.085 296.535 133.567C296.908 130.049 297.138 127.195 297.222 125.219C297.285 124.231 297.286 123.463 297.308 122.942C297.318 122.691 297.325 122.495 297.33 122.35C297.337 122.216 297.342 122.148 297.346 122.148Z" fill="#17282F"/>
<path d="M228.581 169.122C225.598 160.266 223.948 150.652 223.812 141.161C225.51 152.048 227.4 163.682 228.002 165.514C228.149 165.961 228.277 166.516 228.39 167.146C228.455 167.81 228.519 168.468 228.581 169.122" fill="#2A68DB"/>
<path d="M228.389 167.146C228.277 166.516 228.149 165.961 228.002 165.514C227.4 163.682 225.51 152.048 223.812 141.161C223.81 140.971 223.808 140.78 223.806 140.59C223.832 140.609 223.857 140.628 223.881 140.646C224.245 140.917 224.545 141.126 224.761 141.26C224.957 141.383 225.076 141.45 225.103 141.45C225.105 141.45 225.107 141.45 225.108 141.448C225.13 141.417 224.682 141.083 223.99 140.51C223.93 140.461 223.868 140.409 223.805 140.356C223.788 137.206 223.94 134.07 224.265 130.985C224.297 131.253 224.332 131.546 224.369 131.864C224.473 132.722 224.599 133.756 224.744 134.949L227.982 163.127C228.034 163.626 228.086 164.128 228.137 164.632C228.223 165.477 228.307 166.315 228.389 167.146" fill="#2A68DB"/>
<path d="M225.103 141.45C225.076 141.45 224.957 141.383 224.761 141.26C224.545 141.127 224.245 140.917 223.881 140.646C223.857 140.628 223.832 140.609 223.806 140.59C223.806 140.512 223.805 140.434 223.805 140.356C223.868 140.409 223.93 140.461 223.99 140.51C224.682 141.083 225.13 141.417 225.108 141.448C225.107 141.45 225.105 141.45 225.103 141.45" fill="#0F191D"/>
<path d="M228.716 169.516C228.671 169.384 228.626 169.252 228.581 169.121C228.519 168.467 228.455 167.809 228.39 167.145C228.307 166.314 228.223 165.476 228.137 164.631C228.086 164.127 228.034 163.625 227.982 163.127L228.716 169.516V169.516ZM224.744 134.948C224.599 133.755 224.473 132.721 224.37 131.863C224.332 131.545 224.297 131.252 224.265 130.984C224.268 130.948 224.272 130.913 224.276 130.877L224.744 134.948" fill="#0F191D"/>
<path d="M254.382 188.509C253.883 188.509 253.382 188.488 252.883 188.446C260.02 185.909 265.842 181.354 271.645 176.024L276.878 171.276C274.972 176.329 272.013 179.958 267.853 183.402C264.079 186.526 259.261 188.509 254.382 188.509Z" fill="#2A68DB"/>
<path d="M265.036 181.895C264.99 181.844 268.6 178.533 273.098 174.5C277.596 170.466 281.28 167.237 281.325 167.288C281.37 167.338 277.761 170.649 273.262 174.683C268.765 178.716 265.081 181.945 265.036 181.895Z" fill="#17282F"/>
<path d="M277.87 81.8958C277.87 83.5306 276.544 84.856 274.909 84.856C273.275 84.856 271.949 83.5306 271.949 81.8958C271.949 80.2609 273.275 78.9355 274.909 78.9355C276.544 78.9355 277.87 80.2609 277.87 81.8958Z" fill="#33535F"/>
<path d="M295.498 120.807C294.625 113.57 293.752 106.333 292.879 99.0948L274.145 93.4404C273.783 106.368 271.521 120.886 268.268 133.403C275.172 135.642 282.548 136.41 289.765 135.641C290.084 132.145 290.403 128.648 290.722 125.152C291.19 127.787 291.658 130.422 292.127 133.058C294.093 131.956 295.252 129.761 295.644 127.542C296.037 125.322 295.768 123.045 295.498 120.807Z" fill="#17282F"/>
<path d="M280.836 135.701C280.836 135.701 280.851 135.607 280.891 135.428C280.934 135.239 280.996 134.975 281.075 134.631C281.242 133.923 281.485 132.895 281.797 131.574C282.409 128.916 283.317 125.071 284.201 120.276C285.089 115.484 285.956 109.727 286.239 103.288C286.523 96.8599 286.13 89.7185 284.35 82.4945C282.597 75.2714 279.53 68.7391 275.664 63.5946C275.175 62.9562 274.71 62.3108 274.186 61.7268C273.671 61.1357 273.191 60.5285 272.656 59.9847C272.394 59.7073 272.135 59.4319 271.877 59.1583C271.611 58.8937 271.346 58.631 271.083 58.3706C270.565 57.8429 270.023 57.3548 269.504 56.862C267.4 54.9157 265.346 53.2053 263.509 51.5993C261.67 49.9961 260.03 48.5143 258.672 47.1271C258.326 46.7864 258.014 46.4367 257.702 46.1112C257.388 45.7871 257.099 45.4648 256.831 45.1468C256.559 44.8321 256.3 44.5307 256.052 44.2434C255.819 43.9448 255.597 43.6608 255.386 43.3915C254.953 42.8628 254.625 42.3515 254.321 41.922C254.013 41.4958 253.785 41.1141 253.603 40.8036C253.422 40.5008 253.284 40.2673 253.185 40.101C253.092 39.9418 253.05 39.8572 253.05 39.8572C253.05 39.8572 253.107 39.9337 253.207 40.0883C253.31 40.2513 253.456 40.48 253.645 40.7776C253.833 41.0829 254.068 41.4599 254.382 41.8805C254.69 42.3043 255.024 42.8099 255.462 43.3329C255.674 43.5989 255.899 43.8801 256.135 44.1754C256.384 44.4593 256.645 44.7575 256.919 45.0689C257.188 45.3836 257.48 45.703 257.795 46.0238C258.109 46.346 258.422 46.6928 258.769 47.0302C260.133 48.4042 261.778 49.8742 263.623 51.4674C265.466 53.0645 267.528 54.7674 269.642 56.7122C270.165 57.2045 270.709 57.6921 271.231 58.2204C271.495 58.4812 271.762 58.7439 272.03 59.009C272.289 59.283 272.55 59.559 272.813 59.8373C273.353 60.3821 273.837 60.9916 274.356 61.5846C274.883 62.1705 275.352 62.8178 275.845 63.4585C279.741 68.622 282.829 75.184 284.589 82.4355C286.376 89.6874 286.763 96.8552 286.466 103.298C286.169 109.752 285.283 115.515 284.372 120.308C283.465 125.104 282.531 128.944 281.89 131.596C281.565 132.921 281.305 133.948 281.123 134.643C281.033 134.984 280.964 135.247 280.915 135.434C280.867 135.611 280.836 135.701 280.836 135.701" fill="#33535F"/>
<rect x="374.014" y="43.8877" width="58.1173" height="58.1173" rx="29.0587" fill="white"/>
<path d="M406.658 71.4244L395.029 69.3706V84.5464C395.029 85.2395 395.591 85.8013 396.283 85.8013H416.348C417.041 85.8013 417.602 85.2395 417.602 84.5464V78.9552L406.658 71.4244Z" fill="#185C37"/>
<path d="M406.658 58.4165H396.283C395.591 58.4165 395.029 58.9783 395.029 59.6714V65.2626L406.658 72.1088L412.814 74.1626L417.602 72.1088V65.2626L406.658 58.4165Z" fill="#21A366"/>
<path d="M395.029 65.2622H406.658V72.1083H395.029V65.2622Z" fill="#107C41"/>
<path opacity="0.1" d="M403.352 63.8931H395.029V81.0084H403.352C404.043 81.0061 404.603 80.4456 404.606 79.7535V65.148C404.603 64.4558 404.043 63.8953 403.352 63.8931Z" fill="black"/>
<path opacity="0.2" d="M402.668 64.5781H395.029V81.6934H402.668C403.359 81.6912 403.919 81.1307 403.922 80.4386V65.833C403.919 65.1409 403.359 64.5804 402.668 64.5781Z" fill="black"/>
<path opacity="0.2" d="M402.668 64.5781H395.029V80.3242H402.668C403.359 80.322 403.919 79.7614 403.922 79.0693V65.833C403.919 65.1409 403.359 64.5804 402.668 64.5781Z" fill="black"/>
<path opacity="0.2" d="M401.984 64.5781H395.029V80.3242H401.984C402.675 80.322 403.235 79.7614 403.238 79.0693V65.833C403.235 65.1409 402.675 64.5804 401.984 64.5781Z" fill="black"/>
<path d="M389.443 64.5781H401.984C402.676 64.5781 403.238 65.14 403.238 65.833V78.3847C403.238 79.0778 402.676 79.6396 401.984 79.6396H389.443C388.75 79.6396 388.189 79.0778 388.189 78.3847V65.833C388.189 65.14 388.75 64.5781 389.443 64.5781Z" fill="url(#paint0_linear_677_1275)"/>
<path d="M392.072 76.1864L394.71 72.0958L392.293 68.0278H394.237L395.556 70.6294C395.678 70.8765 395.761 71.06 395.806 71.1812H395.823C395.91 70.984 396.001 70.7925 396.097 70.6068L397.507 68.0292H399.291L396.813 72.0732L399.354 76.1864H397.455L395.932 73.3308C395.86 73.2094 395.8 73.0817 395.75 72.9495H395.728C395.683 73.0791 395.624 73.2031 395.551 73.3192L393.983 76.1864H392.072Z" fill="white"/>
<path d="M416.348 58.4165H406.658V65.2626H417.602V59.6714C417.602 58.9783 417.041 58.4165 416.348 58.4165Z" fill="#33C481"/>
<path d="M406.658 72.1094H417.602V78.9555H406.658V72.1094Z" fill="#107C41"/>
<rect x="406.616" y="112.991" width="37.918" height="37.918" rx="18.959" fill="white"/>
<path d="M420.68 136.931V129.265L419.01 129.728L418.665 128.406L421.157 127.614H422.297V136.931H420.68Z" fill="#3478F6"/>
<path d="M420.68 136.931V129.265L419.01 129.728L418.665 128.406L421.157 127.614H422.297V136.931H420.68Z" fill="#3478F6"/>
<path d="M429.076 137.089C427.733 137.089 426.611 136.631 425.709 135.715C424.808 134.79 424.357 133.653 424.357 132.305C424.357 130.966 424.808 129.834 425.709 128.909C426.611 127.984 427.755 127.521 429.142 127.521C429.946 127.521 430.627 127.644 431.183 127.891C431.749 128.138 432.279 128.495 432.774 128.961L431.727 130.164C430.896 129.398 430.03 129.014 429.129 129.014C428.245 129.014 427.512 129.332 426.929 129.966C426.354 130.6 426.067 131.38 426.067 132.305C426.067 133.221 426.359 134.001 426.942 134.644C427.525 135.279 428.254 135.596 429.129 135.596C429.659 135.596 430.127 135.499 430.534 135.305C430.94 135.102 431.36 134.798 431.793 134.393L432.84 135.45C432.319 135.997 431.766 136.406 431.183 136.679C430.6 136.953 429.898 137.089 429.076 137.089Z" fill="#3478F6"/>
<path d="M429.076 137.089C427.733 137.089 426.611 136.631 425.709 135.715C424.808 134.79 424.357 133.653 424.357 132.305C424.357 130.966 424.808 129.834 425.709 128.909C426.611 127.984 427.755 127.521 429.142 127.521C429.946 127.521 430.627 127.644 431.183 127.891C431.749 128.138 432.279 128.495 432.774 128.961L431.727 130.164C430.896 129.398 430.03 129.014 429.129 129.014C428.245 129.014 427.512 129.332 426.929 129.966C426.354 130.6 426.067 131.38 426.067 132.305C426.067 133.221 426.359 134.001 426.942 134.644C427.525 135.279 428.254 135.596 429.129 135.596C429.659 135.596 430.127 135.499 430.534 135.305C430.94 135.102 431.36 134.798 431.793 134.393L432.84 135.45C432.319 135.997 431.766 136.406 431.183 136.679C430.6 136.953 429.898 137.089 429.076 137.089Z" fill="#3478F6"/>
</g>
<defs>
<linearGradient id="paint0_linear_677_1275" x1="390.803" y1="63.5976" x2="400.636" y2="80.6128" gradientUnits="userSpaceOnUse">
<stop stop-color="#18884F"/>
<stop offset="0.5" stop-color="#117E43"/>
<stop offset="1" stop-color="#0B6631"/>
</linearGradient>
<clipPath id="clip0_677_1275">
<rect width="510" height="176" fill="white"/>
</clipPath>
</defs>
</svg>
