<svg width="510" height="176" viewBox="0 0 510 176" fill="none" xmlns="http://www.w3.org/2000/svg">
<g clip-path="url(#clip0_677_1443)">
<rect width="510" height="176" fill="#F5F8FF"/>
<path d="M219.18 211.184C216.456 206.605 211.749 198.386 207.671 191.35C203.595 184.317 199.899 177.953 197.198 173.361C195.847 171.071 194.753 169.215 193.993 167.926C193.617 167.289 193.325 166.792 193.123 166.448C193.027 166.282 192.952 166.153 192.899 166.061C192.85 165.973 192.828 165.927 192.828 165.927C192.828 165.927 192.858 165.969 192.912 166.053C192.969 166.144 193.047 166.27 193.148 166.432C193.356 166.772 193.657 167.265 194.043 167.897C194.818 169.168 195.927 171.017 197.289 173.307C200.014 177.886 203.725 184.242 207.801 191.275C211.878 198.311 216.57 206.538 219.271 211.13" fill="#ECF2FC"/>
<path d="M203.769 183.684C203.73 183.672 204.366 181.478 205.189 178.785C206.014 176.091 206.714 173.918 206.754 173.93C206.793 173.942 206.157 176.135 205.333 178.829C204.509 181.522 203.809 183.696 203.769 183.684" fill="#ECF2FC"/>
<path fill-rule="evenodd" clip-rule="evenodd" d="M334.332 35.9117C333.09 32.5059 329.322 30.7525 325.917 31.9944C322.511 33.2367 320.757 37.0041 322 40.41C323.242 43.8153 327.009 45.5691 330.415 44.3268C333.821 43.0845 335.574 39.3171 334.332 35.9117ZM343.086 36.5481C343.208 37.894 343.146 39.2332 342.914 40.5329L345.839 42.7958L343.257 48.3425L339.643 47.5616C338.798 48.5758 337.813 49.486 336.704 50.2592L337.173 53.9264L331.424 56.0225L329.422 52.916C328.076 53.0379 326.736 52.9748 325.437 52.7434L323.174 55.6681L317.627 53.0861L318.408 49.4715C317.394 48.626 316.484 47.6416 315.711 46.5333L312.044 47.0014L309.947 41.2536L313.054 39.2511C312.932 37.9051 312.995 36.5654 313.227 35.2652L310.301 33.0029L312.884 27.4561L316.499 28.2376C317.344 27.2233 318.328 26.3131 319.437 25.5399L318.968 21.8727L324.717 19.7762L326.719 22.8831C328.065 22.7612 329.404 22.8238 330.705 23.0557L332.967 20.131L338.514 22.7125L337.733 26.3281C338.747 27.1726 339.657 28.1575 340.43 29.2653L344.097 28.7972L346.194 34.545L343.086 36.5481" fill="#ECF2FC"/>
<path fill-rule="evenodd" clip-rule="evenodd" d="M367.197 55.2735C366.213 52.5753 363.228 51.1864 360.531 52.1699C357.832 53.1543 356.443 56.1388 357.427 58.837C358.411 61.5347 361.396 62.924 364.094 61.9401C366.792 60.9562 368.181 57.9712 367.197 55.2735ZM374.133 55.7777C374.23 56.8441 374.18 57.9046 373.996 58.9348L376.314 60.7272L374.268 65.1218L371.404 64.5028C370.735 65.3064 369.955 66.0276 369.077 66.6403L369.448 69.5453L364.894 71.2061L363.308 68.7446C362.241 68.8415 361.179 68.7918 360.15 68.6077L358.357 70.925L353.963 68.8796L354.582 66.016C353.779 65.3459 353.058 64.5664 352.445 63.6881L349.54 64.0588L347.879 59.5056L350.341 57.9186C350.244 56.8523 350.293 55.7912 350.477 54.7615L348.16 52.9691L350.206 48.5745L353.069 49.1935C353.739 48.3904 354.519 47.6692 355.397 47.0565L355.026 44.1515L359.579 42.4903L361.166 44.9517C362.232 44.8553 363.293 44.905 364.324 45.0886L366.116 42.7713L370.51 44.8168L369.892 47.6808C370.695 48.3504 371.416 49.1299 372.028 50.0082L374.934 49.637L376.595 54.1907L374.133 55.7777" fill="#3478F6"/>
<path fill-rule="evenodd" clip-rule="evenodd" d="M336.882 74.0533C336.046 71.7591 333.508 70.578 331.214 71.4144C328.919 72.2513 327.738 74.7894 328.575 77.0836C329.412 79.3774 331.95 80.5589 334.243 79.7225C336.538 78.8852 337.719 76.3475 336.882 74.0533ZM342.78 74.4823C342.862 75.3891 342.82 76.2911 342.664 77.1666L344.635 78.6909L342.895 82.4274L340.46 81.9015C339.891 82.5846 339.227 83.1978 338.481 83.7184L338.796 86.1891L334.924 87.6011L333.575 85.5084C332.668 85.5903 331.766 85.5479 330.89 85.3917L329.366 87.362L325.629 85.6231L326.156 83.1877C325.473 82.6183 324.86 81.9555 324.339 81.2087L321.869 81.524L320.456 77.652L322.549 76.3031C322.467 75.3964 322.509 74.4939 322.665 73.6185L320.695 72.0942L322.434 68.3576L324.87 68.8835C325.439 68.2004 326.102 67.5872 326.848 67.0666L326.533 64.5959L330.406 63.1839L331.754 65.2766C332.661 65.1947 333.563 65.2371 334.439 65.3933L335.963 63.4226L339.7 65.1619L339.174 67.5973C339.857 68.1667 340.469 68.83 340.991 69.5763L343.461 69.261L344.873 73.133L342.78 74.4823Z" fill="#3478F6"/>
<path d="M180.72 133.364H196.174V131.248H180.72V133.364Z" fill="#3478F6"/>
<path d="M180.72 129.786H196.174V127.67H180.72V129.786Z" fill="#3478F6"/>
<path d="M189.487 137.194H196.174V135.079H189.487V137.194" fill="#3478F6"/>
<path fill-rule="evenodd" clip-rule="evenodd" d="M218.526 97.4195C218.079 99.4828 219.389 101.519 221.453 101.966C223.516 102.413 225.551 101.103 225.998 99.0388C226.446 96.9751 225.135 94.9402 223.072 94.4929C221.008 94.046 218.973 95.3558 218.526 97.4195ZM214.412 94.3839C214.77 93.683 215.218 93.0428 215.736 92.4744L214.999 90.4507L217.996 88.5214L219.533 90.0303C220.264 89.7936 221.032 89.6514 221.819 89.6152L222.729 87.6633L226.211 88.4182L226.232 90.5712C226.932 90.9298 227.573 91.3772 228.141 91.8959L230.165 91.1588L232.094 94.1549L230.585 95.6928C230.822 96.4246 230.964 97.192 231 97.9783L232.952 98.8884L232.197 102.371L230.044 102.391C229.686 103.092 229.238 103.732 228.72 104.301L229.457 106.324L226.46 108.254L224.923 106.745C224.191 106.982 223.423 107.124 222.637 107.16L221.727 109.111L218.244 108.356L218.224 106.203C217.523 105.845 216.883 105.398 216.315 104.879L214.291 105.616L212.362 102.62L213.871 101.082C213.634 100.351 213.492 99.5831 213.456 98.7968L211.504 97.8867L212.259 94.4037L214.412 94.3839" fill="#3478F6"/>
<path fill-rule="evenodd" clip-rule="evenodd" d="M210.769 79.9925C210.553 80.9942 211.188 81.982 212.19 82.1989C213.191 82.4159 214.18 81.78 214.397 80.7783C214.614 79.777 213.978 78.7887 212.976 78.5718C211.975 78.3549 210.986 78.9907 210.769 79.9925V79.9925ZM208.773 78.5188C208.947 78.1789 209.164 77.868 209.415 77.5922L209.058 76.6098L210.512 75.6736L211.258 76.4058C211.614 76.2911 211.986 76.2222 212.368 76.2043L212.81 75.2571L214.5 75.6234L214.509 76.6686C214.85 76.8426 215.161 77.0595 215.436 77.3112L216.419 76.9535L217.355 78.4079L216.623 79.1542C216.738 79.5095 216.806 79.8821 216.824 80.2639L217.772 80.7055L217.405 82.3961L216.36 82.4058C216.186 82.7461 215.969 83.0566 215.717 83.3323L216.075 84.3148L214.621 85.2515L213.875 84.5187C213.519 84.6334 213.147 84.7024 212.765 84.7202L212.323 85.6675L210.633 85.3011L210.623 84.256C210.283 84.0819 209.972 83.865 209.696 83.6134L208.714 83.9711L207.778 82.5166L208.51 81.7704C208.395 81.4151 208.326 81.0425 208.308 80.6611L207.361 80.2195L207.728 78.5289L208.773 78.5188" fill="#3478F6"/>
<path d="M198.621 91.7957C198.612 91.7938 198.618 91.7412 198.636 91.6419C198.653 91.5426 198.694 91.3985 198.773 91.2225C198.924 90.8749 199.265 90.3798 199.901 90.0674C200.517 89.7512 201.462 89.6871 202.269 90.1909C203.075 90.6647 203.633 91.7499 203.389 92.8283C203.165 93.9115 202.207 94.6684 201.277 94.7667C200.334 94.8911 199.5 94.4418 199.07 93.898C198.621 93.3509 198.516 92.7589 198.521 92.38C198.523 92.1871 198.545 92.0387 198.571 91.9413C198.596 91.8434 198.612 91.7938 198.621 91.7957C198.645 91.7995 198.597 92.0068 198.619 92.3766C198.642 92.7401 198.772 93.2896 199.205 93.7828C199.622 94.2736 200.394 94.6626 201.247 94.5372C202.088 94.435 202.942 93.7486 203.144 92.7753C203.363 91.8063 202.869 90.8277 202.146 90.3866C201.421 89.9199 200.558 89.9542 199.976 90.2285C199.377 90.4975 199.031 90.9448 198.86 91.2659C198.686 91.5932 198.645 91.802 198.621 91.7957Z" fill="#ABC6F9"/>
<path d="M196.063 89.9086C196.067 89.9144 195.955 89.9217 195.73 89.9303C195.485 89.9381 195.151 89.9482 194.725 89.9612L194.764 89.9294C194.648 90.4929 194.498 91.2213 194.318 92.0997L194.282 92.0288C194.652 92.1975 195.062 92.3851 195.5 92.5851L195.54 92.6035L195.542 92.6483C195.566 93.0952 195.648 93.5695 195.805 94.0477L195.821 94.0945L195.786 94.1307C195.494 94.4305 195.18 94.7545 194.853 95.0914L194.864 94.9806C195.244 95.5658 195.648 96.1867 196.071 96.838L195.954 96.799C196.343 96.6553 196.771 96.4977 197.211 96.3362L197.269 96.3145L197.316 96.3569C197.643 96.6529 198.04 96.9363 198.482 97.1605L198.541 97.1899L198.541 97.256C198.546 97.6705 198.552 98.128 198.558 98.5942L198.469 98.4857C199.15 98.6318 199.884 98.789 200.636 98.9505L200.505 99.0151C200.681 98.6371 200.873 98.2216 201.068 97.8007L201.099 97.7356L201.171 97.7322C201.613 97.7115 202.094 97.6296 202.56 97.4777L202.63 97.4551L202.683 97.5066C202.983 97.7997 203.309 98.1198 203.64 98.4433L203.487 98.4279C204.076 98.0475 204.708 97.6402 205.349 97.227L205.299 97.3746C205.154 96.9773 204.998 96.5483 204.84 96.1168L204.814 96.045L204.866 95.9891C205.168 95.6579 205.449 95.2621 205.669 94.8306L205.67 94.8297C205.89 94.6928 205.731 94.7916 205.78 94.7612H205.781H205.781H205.784H205.79H205.8L205.821 94.7607L205.863 94.7603L205.948 94.7598L206.116 94.7578L206.452 94.7549C206.675 94.753 206.897 94.7511 207.119 94.7487L206.997 94.8475C207.156 94.1162 207.313 93.3941 207.468 92.6825L207.537 92.8214C207.128 92.6309 206.724 92.442 206.324 92.2549L206.256 92.2231L206.252 92.1489C206.232 91.6716 206.145 91.2035 206.002 90.7595L205.98 90.6891L206.031 90.6371C206.349 90.3141 206.662 89.9964 206.97 89.6826L206.955 89.831C206.547 89.1942 206.148 88.5723 205.76 87.9659L205.896 88.0122C205.469 88.1664 205.049 88.3183 204.637 88.4672L204.572 88.4904L204.522 88.4446C204.166 88.1177 203.773 87.8468 203.362 87.6347L203.303 87.6048L203.303 87.5392C203.3 87.0803 203.297 86.6354 203.294 86.201L203.377 86.3018C202.616 86.134 201.897 85.9754 201.213 85.8245L201.32 85.771C201.12 86.1967 200.931 86.5963 200.75 86.982L200.726 87.0316L200.672 87.034C200.165 87.0552 199.699 87.1454 199.272 87.2804L199.224 87.2958L199.189 87.2611C198.844 86.9183 198.533 86.6088 198.239 86.3167L198.331 86.3263C197.608 86.7838 196.99 87.1743 196.459 87.5103L196.481 87.4438C196.657 87.9452 196.802 88.3588 196.924 88.7078L196.932 88.7309L196.916 88.7488C196.263 89.4685 196.086 89.925 196.063 89.9086C196.061 89.9053 196.072 89.8759 196.095 89.8243C196.12 89.7708 196.16 89.6898 196.219 89.5847C196.338 89.375 196.53 89.0631 196.856 88.6943L196.849 88.7353C196.718 88.3896 196.563 87.9799 196.375 87.4824L196.359 87.4409L196.398 87.4158C196.924 87.0711 197.535 86.6705 198.251 86.2015L198.3 86.1692L198.343 86.2111C198.64 86.4994 198.956 86.8046 199.304 87.143L199.221 87.1232C199.66 86.9791 200.14 86.8807 200.664 86.8537L200.587 86.9058C200.764 86.5187 200.95 86.1171 201.146 85.69L201.179 85.6206L201.254 85.6365C201.939 85.7826 202.659 85.9354 203.421 86.0978L203.502 86.1152L203.503 86.1991C203.509 86.6334 203.514 87.0784 203.52 87.5373L203.461 87.4419C203.89 87.6598 204.301 87.9399 204.674 88.2783L204.56 88.2556C204.972 88.1047 205.39 87.9514 205.817 87.7947L205.903 87.7629L205.954 87.841C206.345 88.446 206.746 89.0665 207.156 89.7014L207.208 89.7819L207.141 89.8503C206.833 90.1646 206.521 90.4838 206.205 90.8072L206.234 90.6848C206.384 91.1485 206.476 91.6383 206.499 92.1378L206.428 92.0317C206.829 92.2178 207.233 92.4063 207.642 92.5962L207.731 92.6382L207.711 92.7351C207.557 93.4471 207.401 94.1692 207.243 94.9005L207.221 94.9984L207.121 94.9994C206.9 95.0018 206.677 95.0037 206.454 95.0056L206.118 95.009L205.95 95.0109L205.866 95.0114L205.823 95.0119H205.802L205.792 95.0124H205.787H205.784H205.783H205.783C205.832 94.982 205.673 95.0804 205.893 94.9439L205.892 94.9449C205.662 95.3971 205.368 95.8117 205.051 96.1583L205.076 96.0305C205.233 96.4629 205.389 96.892 205.534 97.2892L205.568 97.3832L205.484 97.4367C204.843 97.8489 204.21 98.2553 203.62 98.6347L203.537 98.6877L203.467 98.6193C203.138 98.2948 202.811 97.9743 202.513 97.6797L202.635 97.7086C202.148 97.8663 201.644 97.9502 201.182 97.9704L201.285 97.9015C201.088 98.3213 200.894 98.7364 200.717 99.1139L200.677 99.1987L200.586 99.179C199.835 99.0141 199.102 98.8536 198.422 98.7046L198.334 98.6853L198.334 98.5961C198.33 98.1305 198.328 97.673 198.325 97.2579L198.384 97.3533C197.925 97.1176 197.513 96.8202 197.176 96.5102L197.281 96.5309C196.841 96.6895 196.412 96.8438 196.022 96.9845L195.947 97.0115L195.905 96.945C195.487 96.2899 195.089 95.6661 194.713 95.077L194.674 95.0167L194.725 94.9661C195.055 94.6325 195.373 94.3119 195.668 94.015L195.648 94.0984C195.492 93.6038 195.413 93.1145 195.395 92.655L195.438 92.7187C195.003 92.5119 194.595 92.3185 194.229 92.144L194.182 92.1219L194.193 92.0727C194.392 91.1982 194.558 90.4732 194.685 89.9125L194.692 89.8807L194.724 89.8812C195.144 89.886 195.472 89.8898 195.714 89.8927C195.817 89.8956 195.901 89.898 195.972 89.9005C196.031 89.9029 196.061 89.9053 196.063 89.9086" fill="#ABC6F9"/>
<path d="M221.727 109.111L218.244 108.356L218.224 106.203C217.523 105.845 216.883 105.398 216.315 104.879L214.291 105.616L212.362 102.62L213.871 101.082C213.634 100.351 213.492 99.5831 213.456 98.7968L211.504 97.8867L212.259 94.4037L214.412 94.3839C214.77 93.683 215.218 93.0428 215.736 92.4744L214.999 90.4507L217.996 88.5214L219.533 90.0303C220.264 89.7936 221.032 89.6514 221.819 89.6152L222.729 87.6633L226.211 88.4182L226.232 90.5712C226.932 90.9298 227.573 91.3772 228.141 91.8959L230.165 91.1588L232.094 94.1549L230.585 95.6928C230.822 96.4246 230.964 97.192 231 97.9783L232.952 98.8884L232.197 102.371L230.044 102.391C229.686 103.092 229.238 103.732 228.72 104.301L229.457 106.324L226.46 108.254L224.923 106.745C224.191 106.982 223.423 107.124 222.637 107.16L221.727 109.111V109.111ZM218.438 98.2367C218.44 99.9958 219.663 101.578 221.453 101.966C221.726 102.025 221.998 102.053 222.266 102.053C224.027 102.053 225.611 100.83 225.998 99.0388C226.058 98.765 226.086 98.4912 226.086 98.2217C226.085 96.4626 224.861 94.8805 223.072 94.4929C222.799 94.4336 222.527 94.4056 222.259 94.4056C220.498 94.4056 218.914 95.6286 218.526 97.4195C218.467 97.6938 218.438 97.9672 218.438 98.2367" fill="#D3E3FF"/>
<path d="M302.171 90.7528C301.307 81.0457 297.926 71.3396 291.339 64.1572C284.752 56.9748 274.703 52.6636 265.093 54.2814C255.483 55.8997 246.977 64.1162 246.329 73.8402C245.985 79.0013 247.708 84.1277 247.421 89.2921C246.927 98.2183 240.535 105.772 233.368 111.116C227.192 115.72 220.539 117.371 216.11 123.674C208.172 134.971 209.493 147.99 214.185 155.777C215.798 158.454 218.44 160.969 221.608 163.116C230.706 169.284 242.086 170.876 252.737 168.16C269.272 163.943 284.193 153.515 292.793 139.984C302.785 124.262 303.59 106.699 302.171 90.7528" fill="#3478F6"/>
<path d="M242.639 169.436C235.203 169.436 227.865 167.358 221.608 163.116C218.44 160.968 215.798 158.453 214.185 155.777C211.895 151.975 210.407 146.925 210.409 141.437C210.411 135.686 212.048 129.455 216.11 123.674C220.539 117.37 227.192 115.72 233.368 111.116C240.535 105.772 246.927 98.2181 247.421 89.2919C247.444 88.8884 247.454 88.4854 247.453 88.0824C247.452 83.7997 246.284 79.5396 246.283 75.2602C246.283 74.7873 246.297 74.3134 246.329 73.84C246.977 64.116 255.483 55.8995 265.093 54.2812C266.454 54.0522 267.823 53.9418 269.191 53.9418C277.48 53.9418 285.685 57.9917 291.339 64.157C297.926 71.3394 301.307 81.0456 302.171 90.7526C302.502 94.4742 302.712 98.2846 302.713 102.138C302.714 114.797 300.453 127.931 292.793 139.984C284.193 153.515 269.272 163.943 252.737 168.16C249.411 169.008 246.015 169.436 242.639 169.436ZM237.672 116.49C236.947 117.673 236.527 119.059 236.527 120.682C236.527 133.981 240.89 158.839 258.424 158.841C258.516 158.841 258.605 158.84 258.697 158.84C276.462 158.579 279.724 123.456 279.924 121.891C279.924 121.891 280.028 120.623 279.329 118.898C279.372 118.868 279.393 118.85 279.391 118.848C279.391 118.847 279.391 118.847 279.39 118.847C279.384 118.847 279.36 118.858 279.321 118.878C277.927 115.467 273.385 110.29 258.697 109.61C258.697 109.61 258.697 109.61 258.696 109.61C258.693 109.61 258.679 109.609 258.655 109.609C258.651 109.609 258.647 109.609 258.642 109.609H258.642H258.641C258.619 109.608 258.59 109.608 258.555 109.607C258.433 109.605 258.235 109.602 257.971 109.602C257.968 109.602 257.964 109.602 257.96 109.602C257.95 109.602 257.94 109.602 257.929 109.602C254.653 109.605 241.816 110.03 237.761 116.347C237.729 116.396 237.699 116.444 237.672 116.49" fill="#D3E3FF"/>
<path fill-rule="evenodd" clip-rule="evenodd" d="M233.298 159.285C233.298 159.663 232.991 159.97 232.613 159.97C232.234 159.97 231.928 159.663 231.928 159.285C231.928 158.907 232.234 158.6 232.613 158.6C232.991 158.6 233.298 158.907 233.298 159.285Z" fill="#3478F6"/>
<path fill-rule="evenodd" clip-rule="evenodd" d="M243.252 171.306C243.11 171.164 243.11 170.934 243.252 170.792C243.393 170.65 243.623 170.65 243.765 170.792C243.907 170.934 243.907 171.164 243.765 171.306C243.623 171.448 243.393 171.448 243.252 171.306Z" fill="#3478F6"/>
<path d="M267.349 173.159C264.882 174.17 262.059 177.707 261.859 180.488C261.66 183.269 263.129 186.036 265.371 187.693C267.614 189.35 270.533 189.953 273.305 189.652C275.285 189.438 277.294 188.732 278.637 187.261C280.12 185.637 280.59 183.284 280.371 181.096C280.071 178.082 278.493 175.156 275.959 173.498C273.426 171.84 269.947 171.604 267.349 173.159" fill="#3478F6"/>
<path d="M271.933 189.727C269.594 189.726 267.246 189.078 265.371 187.693C263.265 186.136 261.841 183.6 261.842 180.993C261.842 180.825 261.847 180.656 261.859 180.488C262.059 177.707 264.882 174.17 267.349 173.159C268.532 172.451 269.898 172.114 271.274 172.114C272.92 172.114 274.58 172.596 275.959 173.498C278.493 175.156 280.071 178.082 280.371 181.095C280.404 181.428 280.422 181.766 280.422 182.104C280.423 183.984 279.894 185.885 278.637 187.261C277.294 188.732 275.285 189.438 273.305 189.652C272.85 189.701 272.392 189.727 271.933 189.727" fill="#D3E3FF"/>
<path fill-rule="evenodd" clip-rule="evenodd" d="M286.544 119.745C286.544 120.428 285.991 120.98 285.308 120.98C284.626 120.98 284.073 120.428 284.073 119.745C284.073 119.063 284.626 118.51 285.308 118.51C285.991 118.51 286.544 119.063 286.544 119.745Z" fill="#3478F6"/>
<path fill-rule="evenodd" clip-rule="evenodd" d="M267.413 73.3677C267.413 73.7456 267.106 74.0522 266.728 74.0522C266.35 74.0522 266.043 73.7456 266.043 73.3677C266.043 72.9893 266.35 72.6827 266.728 72.6827C267.106 72.6827 267.413 72.9893 267.413 73.3677Z" fill="#3478F6"/>
<path d="M307.99 104.694H292.536V102.578H307.99V104.694Z" fill="#3478F6"/>
<path d="M299.223 108.525H292.536V106.409H299.223V108.525Z" fill="#3478F6"/>
<path d="M388.62 107.138C388.618 107.135 388.651 107.104 388.719 107.046C388.798 106.98 388.899 106.898 389.024 106.795C389.093 106.74 389.169 106.68 389.252 106.614C389.345 106.558 389.445 106.497 389.553 106.432C389.663 106.366 389.781 106.296 389.906 106.221C390.041 106.162 390.184 106.098 390.335 106.032C391.528 105.482 393.56 105.192 395.829 105.937C396.948 106.316 398.136 106.924 399.147 107.899C400.166 108.863 400.979 110.165 401.479 111.655C402.493 114.64 402.232 118.302 400.772 121.605C399.293 124.921 396.98 127.551 394.792 129.746C392.581 131.942 390.453 133.763 388.763 135.394C387.061 137.012 385.778 138.416 384.954 139.437C384.537 139.945 384.228 140.351 384.024 140.629C383.927 140.758 383.849 140.862 383.787 140.944C383.732 141.014 383.703 141.049 383.699 141.046C383.695 141.043 383.718 141.004 383.766 140.929C383.823 140.843 383.894 140.735 383.983 140.6C384.174 140.311 384.471 139.895 384.877 139.376C385.681 138.333 386.949 136.904 388.639 135.266C390.319 133.615 392.436 131.778 394.628 129.583C396.8 127.387 399.084 124.773 400.543 121.503C401.979 118.253 402.24 114.651 401.26 111.729C400.777 110.27 399.988 108.993 399.003 108.05C398.025 107.093 396.866 106.487 395.772 106.105C393.555 105.354 391.557 105.608 390.372 106.122C389.162 106.624 388.648 107.18 388.62 107.138Z" fill="#070707"/>
<path d="M348.742 186.406V171.061C348.742 165.621 352.384 161.933 356.914 161.877L403.716 161.293C406.851 161.254 409.413 163.784 409.413 166.92V186.123L348.742 186.406Z" fill="#3478F6"/>
<path d="M403.679 174.928H384.719V166.065H403.679V174.928Z" fill="#FAFAF9"/>
<path d="M378.773 186.035C378.704 186.035 378.648 180.605 378.648 173.909C378.648 167.211 378.704 161.783 378.773 161.783C378.843 161.783 378.899 167.211 378.899 173.909C378.899 180.605 378.843 186.035 378.773 186.035Z" fill="#ABC6F9"/>
<path d="M378.964 154.432C378.958 154.42 379.117 154.328 379.425 154.209C379.732 154.089 380.198 153.962 380.789 153.907C381.952 153.785 383.71 154.069 385.111 155.28C386.503 156.504 387.024 158.207 387.061 159.376C387.087 159.969 387.024 160.448 386.947 160.768C386.871 161.089 386.802 161.259 386.789 161.255C386.735 161.246 386.979 160.542 386.884 159.387C386.803 158.256 386.272 156.635 384.946 155.469C383.612 154.315 381.934 154.01 380.802 154.084C379.645 154.147 378.98 154.485 378.964 154.432Z" fill="#070707"/>
<path d="M355.739 161.984L378.773 100.002L395.425 107.906L375.886 166.065L355.739 161.984Z" fill="#3478F6"/>
<path d="M360.945 184.78C359.7 184.78 358.434 184.527 357.222 183.992C352.549 181.933 350.431 176.476 352.491 171.804C354.015 168.345 357.403 166.286 360.955 166.286C362.2 166.286 363.465 166.539 364.678 167.073C369.35 169.132 371.468 174.589 369.409 179.261C367.884 182.72 364.497 184.78 360.945 184.78" fill="#6197FC"/>
<path d="M370.79 175.762C368.671 180.568 363.058 182.747 358.251 180.629C353.445 178.51 351.267 172.898 353.385 168.091C355.503 163.285 361.117 161.106 365.923 163.224C370.729 165.343 372.908 170.956 370.79 175.762" fill="#ABC6F9"/>
<path d="M365.396 173.383C364.591 175.211 362.456 176.039 360.629 175.234C358.801 174.429 357.973 172.294 358.778 170.467C359.584 168.639 361.718 167.811 363.546 168.616C365.373 169.422 366.201 171.556 365.396 173.383" fill="#232E32"/>
<path d="M365.589 163.98C365.581 163.977 365.621 163.844 365.705 163.595C365.799 163.325 365.925 162.963 366.084 162.509C366.432 161.545 366.921 160.191 367.521 158.529C368.765 155.157 370.469 150.537 372.351 145.433C373.606 142.073 374.783 138.924 375.784 136.246L375.85 136.386C373.058 135.4 370.723 134.575 369.06 133.988C368.26 133.698 367.623 133.466 367.162 133.299C366.959 133.222 366.795 133.159 366.664 133.109C366.553 133.065 366.496 133.039 366.498 133.034C366.5 133.028 366.56 133.043 366.676 133.077C366.809 133.119 366.977 133.171 367.184 133.236C367.65 133.389 368.293 133.601 369.102 133.868C370.772 134.434 373.117 135.23 375.922 136.181L376.026 136.217L375.988 136.322C374.996 139.004 373.83 142.157 372.586 145.52C370.677 150.614 368.949 155.225 367.687 158.591C367.056 160.242 366.542 161.586 366.176 162.542C365.999 162.99 365.858 163.346 365.753 163.613C365.654 163.856 365.598 163.982 365.589 163.98Z" fill="#ABC6F9"/>
<path d="M386.989 133.811C386.963 133.875 382.888 132.321 377.887 130.339C372.885 128.356 368.851 126.698 368.877 126.633C368.902 126.568 372.977 128.123 377.979 130.105C382.98 132.087 387.014 133.746 386.989 133.811" fill="#ABC6F9"/>
<path d="M366.839 181.077C366.826 181.062 367.07 180.858 367.497 180.478C367.926 180.1 368.524 179.528 369.206 178.768C370.58 177.259 372.192 174.913 373.495 172.079C374.8 169.245 375.641 166.535 376.247 164.581C376.537 163.63 376.777 162.846 376.956 162.26C377.036 162.01 377.102 161.802 377.157 161.631C377.206 161.488 377.235 161.414 377.244 161.416C377.252 161.418 377.239 161.497 377.206 161.645C377.163 161.82 377.112 162.031 377.049 162.286C376.909 162.842 376.696 163.644 376.417 164.631C375.853 166.601 375.038 169.329 373.723 172.185C372.411 175.04 370.757 177.398 369.337 178.888C368.632 179.639 368.01 180.195 367.561 180.552C367.34 180.738 367.155 180.863 367.034 180.954C366.911 181.042 366.844 181.084 366.839 181.077" fill="#ABC6F9"/>
<path d="M354.733 175.903C354.73 175.912 354.673 175.9 354.567 175.871C354.463 175.834 354.308 175.777 354.129 175.661C353.771 175.442 353.313 174.988 353.025 174.28C352.729 173.573 352.669 172.646 352.779 171.666C352.891 170.685 353.077 169.623 353.319 168.514C353.805 166.295 354.479 164.347 355.044 162.974C355.323 162.286 355.579 161.742 355.76 161.368C355.946 160.997 356.057 160.796 356.073 160.803C356.089 160.811 356.008 161.026 355.849 161.408C355.696 161.793 355.466 162.346 355.209 163.039C354.689 164.422 354.046 166.365 353.564 168.568C353.125 170.755 352.645 172.835 353.19 174.215C353.444 174.896 353.858 175.346 354.184 175.581C354.513 175.823 354.742 175.879 354.733 175.903" fill="#ABC6F9"/>
<path d="M327.392 126.121L358.663 113.539L360.446 120.267L330.574 133.264L327.392 126.121" fill="#ECF2FC"/>
<path d="M383.61 115.805L361.562 124.549L356.394 110.701L381.365 100.246L383.61 115.805" fill="#3478F6"/>
<path d="M391.494 105.756L405.276 100.018L403.007 94.3181L389.629 99.7198L391.494 105.756" fill="#ECF2FC"/>
<path d="M391.551 106.068L391.123 105.865C391.195 105.846 391.27 105.827 391.346 105.81C391.417 105.895 391.485 105.981 391.551 106.068V106.068ZM390.968 105.792L384.333 102.642C384.432 102.639 384.531 102.637 384.631 102.637C386.972 102.637 389.307 103.578 391.02 105.435C391.102 105.525 391.183 105.616 391.262 105.709C391.161 105.735 391.063 105.763 390.968 105.792" fill="#D7DDDD"/>
<path d="M391.123 105.864L390.968 105.791C391.063 105.762 391.161 105.734 391.262 105.709C391.29 105.742 391.319 105.776 391.346 105.809C391.27 105.827 391.195 105.845 391.123 105.864Z" fill="black"/>
<path d="M384.635 120.014C382.52 120.014 380.411 119.247 378.76 117.73L383.61 115.806L381.78 103.116C382.607 102.829 383.469 102.671 384.333 102.642L390.968 105.791L391.123 105.865L391.551 106.068C394.235 109.593 393.845 114.648 390.523 117.712C388.853 119.252 386.741 120.014 384.635 120.014" fill="#6197FC"/>
<path d="M378.76 117.729C378.583 117.566 378.412 117.395 378.246 117.215C374.993 113.688 375.215 108.191 378.742 104.938C379.648 104.102 380.685 103.495 381.779 103.115L383.61 115.805L378.76 117.729Z" fill="#6197FC"/>
<path d="M391.203 100.583C394.55 104.211 394.321 109.866 390.693 113.213C387.064 116.56 381.409 116.332 378.062 112.703C374.716 109.074 374.944 103.419 378.573 100.073C382.201 96.7257 387.856 96.9542 391.203 100.583Z" fill="#ABC6F9"/>
<path d="M387.131 104.338C388.403 105.717 388.316 107.867 386.937 109.14C385.557 110.413 383.407 110.326 382.134 108.946C380.862 107.567 380.948 105.416 382.329 104.143C383.708 102.871 385.858 102.958 387.131 104.338" fill="#232E32"/>
<path d="M359.126 108.851C359.136 108.842 359.265 108.962 359.494 109.191C359.748 109.454 360.071 109.788 360.464 110.193C361.312 111.094 362.454 112.31 363.777 113.719L363.647 113.688C364.591 113.313 365.618 112.903 366.69 112.478C369.26 111.462 371.591 110.554 373.284 109.91C374.101 109.604 374.777 109.351 375.293 109.158C375.769 108.986 376.036 108.898 376.042 108.914C376.048 108.931 375.794 109.049 375.328 109.249C374.821 109.461 374.155 109.739 373.35 110.075C371.673 110.762 369.352 111.695 366.782 112.711C365.709 113.133 364.68 113.537 363.734 113.909L363.657 113.939L363.603 113.879C362.306 112.446 361.186 111.21 360.356 110.293C359.983 109.868 359.677 109.519 359.436 109.245C359.226 108.998 359.116 108.86 359.126 108.851Z" fill="#ABC6F9"/>
<path d="M304.385 131.97L326.46 122.601L332.749 135.622L309.866 145.489L304.385 131.97Z" fill="#3478F6"/>
<path d="M309.572 145.082C306.79 145.082 304.146 143.445 302.994 140.722C301.797 137.888 302.569 134.715 304.693 132.729L309.701 145.081C309.658 145.082 309.615 145.082 309.572 145.082ZM311.321 144.863L313.397 143.967C313.068 144.176 312.717 144.36 312.347 144.517C312.009 144.66 311.666 144.775 311.321 144.863" fill="#D7DDDD"/>
<path d="M309.701 145.081L304.693 132.729C305.29 132.171 305.993 131.706 306.79 131.369C307.697 130.986 308.639 130.805 309.565 130.805C312.347 130.805 314.991 132.442 316.142 135.165C317.52 138.425 316.291 142.133 313.397 143.967L311.321 144.863C310.783 145 310.24 145.071 309.701 145.081" fill="#6197FC"/>
<path d="M303.796 132.012C307.681 130.37 312.161 132.188 313.803 136.073C315.445 139.958 313.627 144.438 309.742 146.081C305.857 147.723 301.377 145.904 299.735 142.019C298.093 138.134 299.911 133.654 303.796 132.012Z" fill="#ABC6F9"/>
<path d="M305.639 136.372C307.116 135.748 308.819 136.44 309.444 137.917C310.068 139.394 309.376 141.098 307.899 141.722C306.422 142.347 304.718 141.655 304.094 140.178C303.47 138.7 304.161 136.997 305.639 136.372Z" fill="#232E32"/>
<path d="M318.425 141.799C318.411 141.801 318.371 141.608 318.309 141.253C318.246 140.856 318.164 140.344 318.065 139.722C317.869 138.369 317.604 136.541 317.299 134.434L317.285 134.341L317.372 134.305C318.221 133.959 319.137 133.587 320.084 133.201C322.742 132.124 325.152 131.161 326.901 130.477C327.748 130.151 328.447 129.882 328.978 129.678C329.47 129.494 329.745 129.401 329.752 129.417C329.759 129.433 329.496 129.557 329.014 129.769C328.492 129.991 327.802 130.285 326.968 130.641C325.236 131.368 322.836 132.356 320.179 133.433C319.23 133.816 318.313 134.186 317.463 134.529L317.537 134.401C317.807 136.513 318.041 138.346 318.215 139.701C318.286 140.328 318.345 140.842 318.39 141.242C318.426 141.601 318.439 141.797 318.425 141.799" fill="#ABC6F9"/>
<path d="M287.321 144.557L287.167 143.656L292.627 142.722L292.782 143.622L287.321 144.557" fill="#ABC6F9"/>
<path d="M303.01 138.048L299.801 138.597L299.522 136.965L298.284 137.176L298.65 139.315L296.398 139.701L296.581 140.77L297.304 144.992L299.555 144.607L299.902 146.633L301 146.446L300.778 145.151L304.127 144.578L303.01 138.048" fill="#ABC6F9"/>
<path d="M291.459 141.646L292.037 145.023L297.159 144.147L296.581 140.77L291.459 141.646Z" fill="#232E32"/>
<path d="M258.697 109.609C258.697 109.609 236.527 108.892 236.527 120.682C236.527 134.05 240.933 159.098 258.697 158.839C276.462 158.579 279.724 123.455 279.924 121.89C279.924 121.89 280.851 110.634 258.697 109.609Z" fill="#3478F6"/>
<path d="M279.391 118.848C279.393 118.851 279.363 118.875 279.3 118.919C279.225 118.97 279.132 119.032 279.019 119.108C278.772 119.274 278.397 119.503 277.906 119.783C276.921 120.337 275.448 121.069 273.533 121.73C271.621 122.394 269.271 122.979 266.618 123.336C263.967 123.7 261.023 123.836 257.941 123.815C254.859 123.776 251.917 123.709 249.258 123.376C246.6 123.054 244.244 122.415 242.396 121.577C240.541 120.748 239.204 119.76 238.365 119.004C237.947 118.621 237.643 118.304 237.447 118.079C237.359 117.975 237.287 117.89 237.228 117.821C237.18 117.761 237.157 117.729 237.161 117.727C237.164 117.724 237.193 117.75 237.247 117.803C237.311 117.868 237.389 117.947 237.484 118.044C237.691 118.257 238.005 118.562 238.429 118.93C239.283 119.659 240.621 120.614 242.468 121.414C244.307 122.224 246.644 122.839 249.286 123.147C251.928 123.464 254.866 123.525 257.942 123.564C261.017 123.585 263.949 123.456 266.588 123.106C269.228 122.764 271.568 122.2 273.476 121.561C275.387 120.926 276.864 120.223 277.859 119.697C278.355 119.431 278.738 119.218 278.992 119.065C279.11 118.998 279.207 118.943 279.286 118.898C279.353 118.861 279.389 118.844 279.391 118.848" fill="#ABC6F9"/>
<path d="M265.991 123.298C266 123.298 266.011 123.412 266.023 123.628C266.036 123.846 266.046 124.166 266.044 124.58C266.036 125.404 265.998 126.61 265.676 128.061C265.516 128.785 265.275 129.566 264.92 130.365C264.565 131.163 264.103 131.989 263.459 132.741C262.828 133.5 262.027 134.182 261.093 134.718C260.622 134.98 260.117 135.199 259.585 135.368C259.051 135.527 258.489 135.623 257.916 135.649C256.766 135.688 255.643 135.392 254.7 134.867C253.752 134.347 252.967 133.639 252.347 132.872C251.089 131.328 250.555 129.568 250.296 128.12C250.048 126.656 250.051 125.452 250.076 124.628C250.088 124.215 250.111 123.895 250.13 123.678C250.149 123.462 250.163 123.348 250.172 123.349C250.181 123.349 250.183 123.464 250.18 123.681C250.178 123.923 250.176 124.237 250.173 124.629C250.179 125.45 250.203 126.647 250.471 128.089C250.749 129.516 251.292 131.232 252.526 132.726C253.134 133.47 253.901 134.152 254.818 134.652C255.73 135.155 256.805 135.435 257.907 135.399C258.457 135.374 258.997 135.281 259.513 135.129C260.026 134.966 260.515 134.756 260.972 134.504C261.879 133.986 262.663 133.327 263.283 132.591C263.914 131.864 264.373 131.061 264.73 130.28C265.087 129.499 265.335 128.733 265.503 128.021C265.843 126.593 265.909 125.397 265.947 124.577C265.957 124.187 265.966 123.871 265.972 123.629C265.976 123.412 265.983 123.299 265.991 123.298" fill="#ABC6F9"/>
<path d="M271.266 150.53C271.238 150.54 271.094 150.057 270.716 149.232C270.34 148.41 269.701 147.252 268.666 146.009C267.624 144.78 266.163 143.471 264.256 142.509C262.361 141.534 260.011 140.984 257.551 141.07C255.091 141.171 252.788 141.897 250.972 143.012C249.143 144.116 247.784 145.531 246.839 146.835C245.901 148.154 245.351 149.356 245.039 150.205C244.724 151.055 244.617 151.548 244.588 151.54C244.58 151.539 244.604 151.415 244.659 151.182C244.708 150.946 244.806 150.606 244.947 150.172C245.233 149.307 245.763 148.081 246.694 146.733C247.633 145.399 248.997 143.949 250.852 142.813C252.693 141.668 255.038 140.921 257.541 140.819C260.044 140.732 262.438 141.299 264.361 142.302C266.295 143.294 267.765 144.637 268.802 145.895C269.832 147.17 270.454 148.352 270.805 149.193C270.978 149.616 271.102 149.947 271.168 150.178C271.24 150.407 271.274 150.528 271.266 150.53" fill="#ABC6F9"/>
<path d="M267.819 138.805L268.839 134.221H277.799C277.481 135.579 277.034 137.165 276.527 138.852L267.819 138.805" fill="#FAFAF9"/>
<path d="M247.786 138.805L246.766 134.221H237.806C238.123 135.579 238.392 137.165 238.9 138.852L247.786 138.805" fill="#FAFAF9"/>
<path d="M237.672 116.489C237.699 116.443 237.729 116.396 237.761 116.347C237.731 116.393 237.701 116.442 237.672 116.489ZM258.697 109.61C258.693 109.61 258.679 109.609 258.655 109.609C258.679 109.609 258.693 109.61 258.697 109.61ZM258.642 109.608H258.642H258.642ZM258.641 109.608C258.619 109.608 258.59 109.607 258.555 109.606C258.59 109.607 258.619 109.608 258.641 109.608ZM257.93 109.601C257.94 109.601 257.95 109.601 257.96 109.601C257.95 109.601 257.94 109.601 257.93 109.601Z" fill="black"/>
<path d="M256.157 122.674C241.812 122.673 237.287 117.201 237.628 116.566C237.642 116.541 237.656 116.515 237.672 116.489C237.701 116.442 237.731 116.393 237.761 116.347C238.208 115.671 239.127 114.713 239.127 114.713C244.152 109.953 254.962 109.605 257.929 109.601C257.94 109.601 257.95 109.601 257.96 109.601C257.964 109.601 257.968 109.601 257.971 109.601C258.235 109.601 258.433 109.604 258.555 109.606C258.59 109.607 258.619 109.608 258.641 109.608H258.642H258.642C258.647 109.609 258.651 109.609 258.655 109.609C258.679 109.609 258.693 109.61 258.696 109.61C258.697 109.61 258.697 109.61 258.697 109.61C270.936 110.176 276.612 114.227 278.754 117.726C278.754 117.726 274.407 122.118 258.056 122.643C257.404 122.664 256.773 122.674 256.157 122.674" fill="#6197FC"/>
<path d="M236.143 96.8149C235.356 95.0554 234.976 93.0388 235.511 91.1872C236.045 89.3351 237.637 87.7225 239.558 87.5523" fill="#ABC6F9"/>
<path d="M238.918 87.6656C238.942 87.6979 238.596 87.9611 238.137 88.4856C237.68 89.0062 237.086 89.7795 236.641 90.735C236.216 91.7087 235.9 92.6266 235.708 93.2972C235.514 93.9687 235.426 94.3949 235.388 94.3886C235.357 94.3843 235.383 93.9456 235.536 93.2528C235.687 92.5601 235.979 91.6253 236.412 90.6308C236.876 89.6373 237.507 88.8664 238.008 88.3636C238.511 87.8584 238.903 87.6405 238.918 87.6656" fill="#3478F6"/>
<path d="M280.468 96.8149C281.254 95.0554 281.634 93.0388 281.1 91.1872C280.565 89.3351 278.972 87.7225 277.052 87.5523" fill="#ABC6F9"/>
<path d="M277.692 87.6656C277.707 87.6405 278.099 87.8584 278.603 88.3636C279.103 88.8664 279.734 89.6373 280.197 90.6308C280.632 91.6253 280.923 92.5601 281.074 93.2528C281.227 93.9456 281.253 94.3843 281.221 94.3886C281.184 94.3949 281.096 93.9687 280.902 93.2972C280.71 92.6266 280.394 91.7087 279.969 90.735C279.524 89.7795 278.93 89.0062 278.474 88.4856C278.014 87.9611 277.668 87.6979 277.692 87.6656" fill="#3478F6"/>
<path d="M237.918 105.551C235.74 103.355 234.844 100.194 235.445 97.1598C236.723 90.701 241.423 79.0738 258.697 79.3187C276.82 79.5756 280.22 92.1193 280.806 98.1616C281.048 100.659 280.296 103.152 278.695 105.085C275.999 108.339 270.275 112.539 258.697 112.535C247.228 112.531 241.063 108.722 237.918 105.551Z" fill="#3478F6"/>
<path d="M250.625 80.0839C250.633 80.081 250.668 80.1557 250.726 80.3003C250.793 80.4724 250.875 80.6816 250.974 80.9347C251.191 81.4843 251.494 82.286 251.968 83.2251C252.446 84.1569 253.104 85.2459 254.133 86.172C255.143 87.0884 256.571 87.8559 258.165 87.7947C259.755 87.745 261.177 87.0099 262.224 86.1301C263.278 85.2348 263.993 84.1825 264.511 83.2733C265.03 82.3573 265.365 81.5687 265.597 81.0263C265.827 80.4821 265.95 80.1784 265.968 80.1851C265.976 80.188 265.956 80.2675 265.909 80.4165C265.864 80.5659 265.789 80.7838 265.688 81.0625C265.483 81.6178 265.172 82.421 264.667 83.3591C264.161 84.2909 263.451 85.3737 262.374 86.3065C261.305 87.2205 259.839 87.9923 258.172 88.0453C257.345 88.0743 256.536 87.8916 255.828 87.5748C255.115 87.2625 254.501 86.8194 253.977 86.3431C252.926 85.379 252.272 84.2557 251.809 83.3041C251.349 82.3434 251.071 81.5286 250.883 80.968C250.789 80.6865 250.722 80.4666 250.678 80.3167C250.635 80.1668 250.616 80.0868 250.625 80.0839" fill="#ABC6F9"/>
<path d="M270.149 104.82C261.74 106.876 253.533 106.954 245.541 104.91C242.538 104.142 240.455 101.408 240.455 98.309V98.1923C240.455 94.423 243.511 91.3676 247.28 91.3676H268.513C272.282 91.3676 275.338 94.423 275.338 98.1923C275.338 101.331 273.198 104.075 270.149 104.82Z" fill="white"/>
<path d="M251.619 99.5037C251.484 100.348 250.69 100.922 249.846 100.787C249.002 100.652 248.427 99.858 248.563 99.0139C248.698 98.1698 249.492 97.5952 250.336 97.7306C251.18 97.8661 251.755 98.6601 251.619 99.5037" fill="black"/>
<path d="M269.35 98.6082C269.215 99.4523 268.421 100.026 267.577 99.8915C266.733 99.756 266.159 98.962 266.294 98.1184C266.429 97.2743 267.223 96.6996 268.067 96.8346C268.911 96.9701 269.485 97.7641 269.35 98.6082" fill="black"/>
<path d="M262.543 98.8055C262.57 98.7964 262.66 99.3517 262.314 100.149C262.138 100.538 261.847 100.976 261.404 101.333C260.965 101.693 260.37 101.939 259.73 101.988C259.089 102.034 258.471 101.878 257.995 101.586C257.514 101.298 257.176 100.906 256.957 100.546C256.521 99.8073 256.546 99.2433 256.574 99.2486C256.629 99.2331 256.686 99.7644 257.137 100.419C257.365 100.739 257.693 101.082 258.135 101.329C258.573 101.58 259.131 101.711 259.712 101.67C260.292 101.625 260.83 101.412 261.235 101.099C261.645 100.788 261.931 100.4 262.119 100.049C262.492 99.3334 262.487 98.7983 262.543 98.8055" fill="black"/>
<path d="M114.96 108.115C114.961 108.118 114.917 108.136 114.83 108.168C114.73 108.201 114.603 108.245 114.445 108.299C114.107 108.413 113.612 108.596 112.995 108.876C111.78 109.445 110.012 110.419 108.431 112.259C107.641 113.17 106.934 114.31 106.474 115.65C106.023 116.988 105.901 118.537 106.184 120.1C106.493 121.647 107.174 123.249 108.401 124.469C109.006 125.08 109.736 125.583 110.549 125.937C111.365 126.287 112.257 126.487 113.169 126.548C115.004 126.657 116.793 126.254 118.436 125.703C120.083 125.144 121.604 124.406 123.08 123.768C124.554 123.123 125.989 122.56 127.39 122.224C128.786 121.889 130.153 121.777 131.369 121.967C133.82 122.304 135.558 123.557 136.359 124.654C136.579 124.919 136.71 125.197 136.847 125.422C136.949 125.665 137.049 125.865 137.103 126.037C137.147 126.199 137.184 126.328 137.212 126.431C137.235 126.52 137.245 126.566 137.241 126.566C137.237 126.567 137.218 126.524 137.187 126.437C137.153 126.338 137.109 126.211 137.055 126.054C136.994 125.887 136.888 125.692 136.781 125.456C136.639 125.239 136.503 124.969 136.281 124.714C135.472 123.656 133.754 122.452 131.345 122.143C130.151 121.967 128.818 122.087 127.439 122.426C126.059 122.766 124.64 123.331 123.173 123.979C121.703 124.621 120.182 125.366 118.514 125.936C116.854 126.496 115.038 126.91 113.153 126.799C112.216 126.736 111.295 126.53 110.451 126.166C109.608 125.799 108.85 125.275 108.226 124.642C106.96 123.377 106.266 121.729 105.957 120.142C105.673 118.538 105.806 116.952 106.277 115.583C106.755 114.217 107.486 113.061 108.297 112.144C109.919 110.29 111.72 109.332 112.956 108.787C114.214 108.255 114.96 108.115 114.96 108.115" fill="#070707"/>
<path d="M176.71 183.297V165.197C176.71 160.127 172.634 155.999 167.563 155.936L115.175 155.282C111.666 155.239 108.798 158.071 108.798 161.581V183.076L176.71 183.297Z" fill="#3478F6"/>
<path d="M115.216 170.544H136.439V160.624H115.216V170.544Z" fill="#FAFAF9"/>
<path d="M143.095 182.977C143.025 182.977 142.969 176.9 142.969 169.405C142.969 161.907 143.025 155.831 143.095 155.831C143.164 155.831 143.221 161.907 143.221 169.405C143.221 176.9 143.164 182.977 143.095 182.977" fill="#ABC6F9"/>
<path d="M142.881 147.603C142.865 147.658 142.121 147.276 140.825 147.203C139.556 147.117 137.673 147.458 136.175 148.753C134.687 150.061 134.094 151.88 134.006 153.149C133.902 154.443 134.179 155.232 134.122 155.241C134.109 155.245 134.034 155.054 133.951 154.695C133.866 154.336 133.799 153.8 133.829 153.137C133.857 152.475 134.008 151.687 134.352 150.875C134.693 150.065 135.245 149.24 136.01 148.564C136.785 147.898 137.677 147.464 138.526 147.236C139.376 147.006 140.178 146.964 140.837 147.026C141.498 147.086 142.02 147.227 142.364 147.359C142.709 147.491 142.887 147.591 142.881 147.603" fill="#070707"/>
<path d="M168.879 156.056L143.095 86.6756L124.456 95.5236L146.327 160.625L168.879 156.056Z" fill="#3478F6"/>
<path d="M163.051 181.572C159.075 181.572 155.284 179.267 153.577 175.395C151.272 170.165 153.643 164.058 158.873 161.752C160.23 161.154 161.646 160.871 163.04 160.871C167.016 160.871 170.808 163.176 172.515 167.048C174.82 172.278 172.449 178.385 167.219 180.691C165.862 181.289 164.445 181.572 163.051 181.572Z" fill="#6197FC"/>
<path d="M152.031 171.477C154.403 176.857 160.686 179.296 166.066 176.925C171.446 174.554 173.885 168.271 171.514 162.891C169.143 157.511 162.859 155.072 157.479 157.443C152.099 159.814 149.66 166.098 152.031 171.477Z" fill="#ABC6F9"/>
<path d="M158.068 168.816C158.97 170.862 161.36 171.79 163.405 170.888C165.451 169.986 166.379 167.597 165.477 165.551C164.575 163.506 162.186 162.578 160.14 163.48C158.095 164.382 157.167 166.771 158.068 168.816Z" fill="#232E32"/>
<path d="M157.853 158.29C157.849 158.291 157.831 158.257 157.801 158.187C157.766 158.104 157.724 158.002 157.673 157.878C157.557 157.584 157.4 157.184 157.201 156.679C156.795 155.613 156.22 154.107 155.513 152.254C154.105 148.491 152.171 143.327 150.035 137.622C148.641 133.856 147.335 130.327 146.225 127.326L146.186 127.221L146.291 127.185C149.433 126.117 152.059 125.224 153.923 124.591C154.831 124.29 155.553 124.051 156.068 123.88C156.303 123.806 156.491 123.747 156.637 123.701C156.766 123.662 156.833 123.645 156.835 123.65C156.837 123.656 156.774 123.684 156.648 123.733C156.505 123.787 156.32 123.857 156.091 123.944C155.579 124.129 154.864 124.387 153.965 124.712C152.108 125.366 149.492 126.287 146.362 127.391L146.429 127.25C147.548 130.247 148.865 133.773 150.27 137.534C152.38 143.249 154.289 148.422 155.68 152.192C156.356 154.057 156.905 155.573 157.293 156.645C157.473 157.157 157.615 157.563 157.72 157.86C157.762 157.988 157.797 158.093 157.825 158.178C157.847 158.251 157.856 158.289 157.853 158.29" fill="#ABC6F9"/>
<path d="M133.899 124.519C133.873 124.455 138.391 122.603 143.989 120.385C149.588 118.166 154.147 116.42 154.173 116.485C154.198 116.549 149.681 118.4 144.082 120.619C138.484 122.837 133.924 124.584 133.899 124.519" fill="#ABC6F9"/>
<path d="M156.454 177.428C156.449 177.436 156.374 177.386 156.237 177.288C156.103 177.186 155.895 177.044 155.65 176.837C155.147 176.435 154.452 175.812 153.665 174.971C152.079 173.301 150.229 170.663 148.762 167.468C147.291 164.273 146.376 161.22 145.742 159.016C145.428 157.912 145.189 157.014 145.03 156.392C144.958 156.104 144.9 155.867 144.852 155.675C144.815 155.51 144.799 155.423 144.807 155.42C144.816 155.418 144.848 155.501 144.901 155.661C144.96 155.849 145.034 156.083 145.124 156.366C145.32 157.015 145.588 157.895 145.912 158.966C146.589 161.154 147.528 164.189 148.989 167.362C150.448 170.536 152.255 173.163 153.796 174.851C154.56 175.701 155.232 176.34 155.713 176.762C156.193 177.186 156.467 177.412 156.454 177.428" fill="#ABC6F9"/>
<path d="M170.005 171.637C169.996 171.612 170.252 171.55 170.622 171.28C170.99 171.018 171.456 170.515 171.741 169.75C172.034 168.991 172.082 167.997 171.948 166.921C171.812 165.841 171.597 164.653 171.328 163.422C170.788 160.955 170.067 158.78 169.482 157.232C169.192 156.457 168.934 155.839 168.76 155.409C168.581 154.982 168.489 154.741 168.505 154.734C168.52 154.727 168.642 154.953 168.85 155.369C169.051 155.788 169.336 156.397 169.647 157.168C170.277 158.705 171.03 160.886 171.573 163.368C171.843 164.609 172.052 165.798 172.178 166.895C172.302 167.991 172.236 169.026 171.906 169.815C171.586 170.607 171.076 171.114 170.677 171.361C170.479 171.491 170.306 171.556 170.19 171.597C170.071 171.632 170.008 171.645 170.005 171.637" fill="#ABC6F9"/>
<path d="M154.425 71.6953C154.425 71.6953 154.464 71.6322 154.549 71.5165C154.642 71.3926 154.769 71.2234 154.932 71.0064C155.274 70.5624 155.774 69.9039 156.406 69.0473C157.667 67.3335 159.473 64.8349 161.502 61.6146C163.543 58.4045 165.801 54.4683 168.002 49.945C169.101 47.6826 170.176 45.2718 171.221 42.7404C172.275 40.2134 173.334 37.5788 174.574 34.9452C175.817 32.3155 177.184 29.8058 178.806 27.5811C180.427 25.3606 182.269 23.413 184.277 21.8704C186.287 20.3364 188.457 19.2035 190.626 18.5884C192.791 17.9376 194.938 17.8894 196.831 18.142C198.73 18.4043 200.381 19.0146 201.715 19.7372C203.053 20.4632 204.062 21.3218 204.798 22.096C205.504 22.9001 205.967 23.5938 206.231 24.0889C206.354 24.3314 206.45 24.5204 206.52 24.6587C206.584 24.7874 206.611 24.8559 206.611 24.8559C206.611 24.8559 206.568 24.7951 206.497 24.6703C206.422 24.5353 206.319 24.3502 206.187 24.114C205.91 23.629 205.437 22.9498 204.726 22.163C203.986 21.4057 202.979 20.5673 201.649 19.8606C200.322 19.1573 198.685 18.5658 196.807 18.318C194.933 18.0798 192.817 18.1377 190.684 18.7885C188.544 19.4041 186.404 20.5302 184.417 22.0536C182.434 23.5861 180.611 25.5202 179.005 27.7257C177.399 29.9345 176.039 32.4317 174.801 35.0527C173.565 37.6767 172.506 40.3074 171.448 42.8349C170.4 45.3667 169.317 47.7824 168.21 50.0463C165.994 54.5729 163.716 58.5067 161.651 61.7101C159.601 64.9226 157.771 67.4087 156.484 69.1061C155.84 69.9541 155.327 70.6034 154.972 71.0378C154.801 71.2484 154.667 71.4123 154.569 71.5324C154.477 71.6428 154.425 71.6953 154.425 71.6953" fill="#070707"/>
<path d="M188.016 44.0214L156.975 69.4798L162.982 75.1938L193.654 51.4328L188.016 44.0214" fill="#ECF2FC"/>
<path d="M145.062 96.8335L166.814 78.8106L155.309 65.4865L130.097 85.5838L145.062 96.8335Z" fill="#3478F6"/>
<path d="M130.053 99.3159L116.172 110.426L111.517 104.794L124.817 93.9128L130.053 99.3159Z" fill="#ECF2FC"/>
<path d="M222.172 33.1726L228.143 41.9859L220.746 46.9971L214.776 38.1833L222.172 33.1726Z" fill="#ECF2FC"/>
<path d="M227.456 40.9723L240.774 41.1618L248.163 52.0682L244.562 63.4149L241.358 62.6165L243.022 55.1126L237.542 48.5245L230.794 48.8986L226.192 52.0875L223.287 58.1347L228.49 65.8151L234.701 67.123L234.634 70.1147L224.396 69.2162L216.522 57.5924L220.059 45.983L228.173 40.4864" fill="#ABC6F9"/>
<path d="M125.772 94.8979L125.657 94.7789C126.333 91.3841 128.697 88.4198 132.137 87.1168L136.018 90.0343L125.772 94.8979Z" fill="#D7DDDD"/>
<path d="M135.807 107.144C132.128 107.144 128.66 105.166 126.813 101.911L130.053 99.3166L125.772 94.8993L136.018 90.0357L145.062 96.8339L146.125 95.9531C146.505 100.584 143.71 105.053 139.108 106.601C138.014 106.969 136.901 107.144 135.807 107.144" fill="#6197FC"/>
<path d="M145.062 96.8335L136.018 90.0353L132.137 87.1177C132.26 87.0715 132.384 87.0271 132.51 86.9847C133.604 86.6169 134.716 86.4419 135.81 86.4419C140.132 86.4419 144.163 89.1709 145.617 93.4937C145.891 94.3084 146.058 95.1332 146.125 95.9527L145.062 96.8335Z" fill="#6197FC"/>
<path d="M126.813 101.91C126.49 101.341 126.217 100.734 126.001 100.091C125.404 98.3168 125.315 96.4935 125.657 94.7798L125.772 94.8988L130.053 99.3161L126.813 101.91Z" fill="#767A7C"/>
<path d="M124.817 96.0498C126.691 101.623 132.728 104.621 138.3 102.746C143.873 100.872 146.871 94.835 144.997 89.2627C143.122 83.6899 137.085 80.6924 131.513 82.5662C125.94 84.4405 122.942 90.4775 124.817 96.0498Z" fill="#ABC6F9"/>
<path d="M131.07 93.947C131.783 96.0662 134.078 97.2058 136.197 96.4933C138.316 95.7808 139.456 93.4852 138.743 91.3665C138.03 89.2477 135.735 88.1076 133.616 88.8201C131.497 89.5326 130.357 91.8283 131.07 93.947Z" fill="#232E32"/>
<path d="M152.076 68.0634C152.088 68.059 152.159 68.2311 152.281 68.5541C152.41 68.9128 152.579 69.3789 152.785 69.9492C153.214 71.1877 153.797 72.8745 154.478 74.8423L154.505 74.9175L154.442 74.9691C153.42 75.8219 152.302 76.7542 151.13 77.7314C148.684 79.7614 146.463 81.588 144.846 82.9007C144.058 83.5341 143.409 84.0557 142.924 84.4448C142.712 84.6082 142.537 84.7432 142.393 84.855C142.27 84.9466 142.202 84.9914 142.197 84.9847C142.191 84.9784 142.248 84.9206 142.361 84.816C142.497 84.6945 142.662 84.5474 142.861 84.3696C143.333 83.9651 143.965 83.4228 144.733 82.7642C146.32 81.4168 148.524 79.5686 150.969 77.5385C152.146 76.5657 153.268 75.6382 154.294 74.7902L154.258 74.9165C153.611 72.9371 153.057 71.2402 152.65 69.9945C152.47 69.4151 152.322 68.9422 152.209 68.5782C152.111 68.248 152.063 68.0677 152.076 68.0634" fill="#ABC6F9"/>
<path d="M207.292 23.3389L184.871 41.033L194.872 55.0542L218.274 36.8018L207.292 23.3389Z" fill="#3478F6"/>
<path d="M214.663 39.6182L215.372 39.0647L215.425 39.1428C215.178 39.3159 214.923 39.4745 214.663 39.6182" fill="#D7DDDD"/>
<path d="M215.425 39.1431L215.372 39.065L216.787 37.962C216.497 38.272 216.181 38.5641 215.839 38.8355C215.703 38.9425 215.566 39.0452 215.425 39.1431" fill="#767A7C"/>
<path d="M217.755 36.1655L207.908 24.0943C208.771 23.8109 209.666 23.6711 210.558 23.6711C213.066 23.6711 215.55 24.7765 217.228 26.8957C219.31 29.5264 219.587 33.0075 218.231 35.843L217.755 36.1655" fill="#D7DDDD"/>
<path d="M217.942 36.394L217.755 36.1651L218.231 35.8426C218.142 36.0291 218.045 36.2133 217.942 36.394Z" fill="#767A7C"/>
<path d="M210.569 40.6714C208.061 40.6714 205.576 39.566 203.899 37.4473C200.985 33.7661 201.607 28.4204 205.287 25.5067C206.095 24.8675 206.983 24.398 207.908 24.0942L217.755 36.1654L217.942 36.3944C217.624 36.9517 217.238 37.4786 216.787 37.9621L215.372 39.0651L214.663 39.6185C213.381 40.3262 211.972 40.6714 210.569 40.6714Z" fill="#6197FC"/>
<path d="M207.674 22.7482C203.735 25.8658 203.069 31.5861 206.187 35.5246C209.305 39.4632 215.026 40.1285 218.964 37.0109C222.903 33.8928 223.568 28.1725 220.45 24.234C217.332 20.2954 211.612 19.6306 207.674 22.7482" fill="#ABC6F9"/>
<path d="M211.172 27.1672C209.675 28.3526 209.422 30.5278 210.607 32.0256C211.792 33.5229 213.968 33.776 215.465 32.5906C216.963 31.4047 217.216 29.23 216.03 27.7322C214.845 26.2349 212.669 25.9818 211.172 27.1672Z" fill="#232E32"/>
<path d="M209.521 43.6278C209.513 43.6394 209.317 43.5116 208.964 43.2658C208.584 42.9958 208.079 42.6367 207.459 42.1965C206.156 41.2464 204.373 39.9472 202.316 38.4474L202.464 38.4441C201.619 39.1349 200.708 39.8806 199.764 40.6529C197.119 42.8112 194.715 44.7544 192.967 46.151C192.112 46.8278 191.409 47.3837 190.889 47.7949C190.659 47.9704 190.47 48.1145 190.316 48.2321C190.183 48.33 190.111 48.3777 190.105 48.371C190.1 48.3642 190.162 48.303 190.284 48.1926C190.43 48.0658 190.609 47.9096 190.827 47.7192C191.335 47.2925 192.02 46.7155 192.855 46.0136C194.574 44.5818 196.96 42.6169 199.606 40.4582C200.551 39.6888 201.465 38.9459 202.311 38.2575L202.385 38.1977L202.459 38.2536C204.495 39.7823 206.259 41.1061 207.549 42.0746C208.152 42.5383 208.643 42.9158 209.012 43.2007C209.351 43.4663 209.53 43.6162 209.521 43.6278" fill="#ABC6F9"/>
</g>
<defs>
<clipPath id="clip0_677_1443">
<rect width="510" height="176" fill="white"/>
</clipPath>
</defs>
</svg>
