<svg width="104" height="198" viewBox="0 0 104 198" fill="none" xmlns="http://www.w3.org/2000/svg">
<path d="M50.5387 194.021L50.3841 187.605L38.3633 187.819L38.4906 197.209L39.2369 197.243C42.5572 197.368 56.128 197.646 58.3334 196.934C60.7934 196.14 50.5387 194.021 50.5387 194.021Z" fill="#3478F6"/>
<path d="M42.7956 197.054C42.6067 196.053 42.0318 195.129 41.2162 194.518C40.4013 193.907 39.4053 193.596 38.3911 193.694L38.4485 197.054H42.7956" fill="#17282F"/>
<path d="M55.5522 195.234C55.5522 195.234 59.1502 196.203 58.7138 196.801C58.278 197.398 44.5533 197.633 38.4905 197.208L38.5052 196.939L54.5163 196.801C54.5163 196.801 54.8528 195.276 55.5522 195.234" fill="#17282F"/>
<path d="M38.3164 196.935C38.3164 196.931 38.3878 196.927 38.5242 196.925C38.7025 196.924 38.8977 196.923 39.1187 196.923C39.7125 196.926 40.4428 196.929 41.3052 196.933C43.151 196.942 45.7012 196.94 48.5172 196.893C51.3339 196.847 53.8827 196.765 55.7279 196.697C56.5889 196.664 57.3192 196.637 57.9123 196.615C58.1333 196.608 58.3285 196.602 58.5068 196.597C58.6425 196.595 58.7146 196.596 58.7146 196.6C58.7146 196.605 58.6439 196.614 58.5089 196.626C58.3306 196.64 58.1354 196.655 57.9158 196.671C57.3227 196.706 56.5931 196.749 55.7321 196.8C53.8883 196.895 51.3381 196.993 48.5193 197.039C45.7019 197.085 43.1503 197.071 41.3038 197.036C40.4421 197.014 39.7118 196.996 39.1173 196.979C38.897 196.97 38.7018 196.962 38.5235 196.954C38.3871 196.947 38.3164 196.941 38.3164 196.935" fill="#3478F6"/>
<path d="M54.5162 196.988C54.4799 196.998 54.4393 196.436 54.7806 195.865C55.1157 195.288 55.6277 195.053 55.6368 195.089C55.6626 195.126 55.2171 195.4 54.9065 195.938C54.5862 196.471 54.5603 196.993 54.5162 196.988" fill="#3478F6"/>
<path d="M50.9386 195.249C50.9036 195.228 51.0148 194.984 51.1848 194.705C51.3554 194.425 51.5219 194.216 51.5562 194.237C51.5904 194.258 51.4799 194.501 51.3093 194.781C51.1386 195.06 50.9728 195.269 50.9386 195.249" fill="#3478F6"/>
<path d="M49.956 194.752C49.9287 194.722 50.0721 194.545 50.2756 194.354C50.4799 194.165 50.6673 194.035 50.6946 194.064C50.7219 194.094 50.5792 194.272 50.3756 194.461C50.1714 194.651 49.9839 194.781 49.956 194.752Z" fill="#3478F6"/>
<path d="M49.3215 193.626C49.3215 193.586 49.6027 193.552 49.9489 193.55C50.2959 193.548 50.5777 193.579 50.5777 193.619C50.5777 193.659 50.2973 193.694 49.9503 193.696C49.6034 193.698 49.3215 193.667 49.3215 193.626Z" fill="#3478F6"/>
<path d="M49.0963 192.83C49.1089 192.789 49.4209 192.855 49.8084 192.876C50.1959 192.9 50.5134 192.871 50.5211 192.912C50.5295 192.95 50.2078 193.046 49.8 193.021C49.3922 192.999 49.0837 192.866 49.0963 192.83" fill="#3478F6"/>
<path d="M51.3281 194.193C51.3274 194.17 51.6219 194.164 52.0828 194.074C52.3137 194.029 52.5843 193.959 52.8753 193.854C53.0166 193.798 53.1803 193.744 53.3062 193.66C53.4412 193.577 53.4866 193.432 53.3621 193.343C53.0998 193.182 52.7116 193.211 52.441 193.296C52.1542 193.387 51.9332 193.56 51.7884 193.737C51.4946 194.096 51.475 194.411 51.4477 194.401C51.4393 194.401 51.4351 194.325 51.4638 194.192C51.4939 194.061 51.5596 193.869 51.7072 193.672C51.9744 193.286 52.7067 192.858 53.4517 193.228C53.5398 193.29 53.6041 193.418 53.5741 193.535C53.5461 193.653 53.4629 193.725 53.3873 193.778C53.2264 193.881 53.0698 193.924 52.9194 193.98C52.6186 194.081 52.3381 194.143 52.1003 194.176C51.6247 194.241 51.3274 194.21 51.3281 194.193" fill="#3478F6"/>
<path d="M51.5291 194.228C51.5032 194.223 51.5718 194.021 51.5074 193.708C51.4752 193.553 51.4046 193.374 51.2801 193.21C51.1598 193.057 50.959 192.868 50.766 192.89C50.5729 192.929 50.6506 193.22 50.759 193.382C50.8646 193.567 50.9828 193.72 51.0905 193.84C51.3081 194.081 51.4773 194.198 51.464 194.217C51.4556 194.232 51.2633 194.144 51.0164 193.912C50.8947 193.796 50.7618 193.642 50.6436 193.451C50.5855 193.358 50.5233 193.243 50.5065 193.108C50.4757 192.978 50.5596 192.773 50.7387 192.747C51.0695 192.727 51.2493 192.961 51.3885 193.13C51.5214 193.319 51.5871 193.52 51.6088 193.69C51.6508 194.037 51.5403 194.236 51.5291 194.228" fill="#3478F6"/>
<path d="M38.5052 193.642C38.5031 193.633 38.5863 193.608 38.7402 193.583C38.8948 193.558 39.1214 193.54 39.4012 193.555C39.9572 193.58 40.7455 193.779 41.4331 194.308C42.1206 194.837 42.5151 195.549 42.6823 196.079C42.7683 196.346 42.8089 196.569 42.8243 196.725C42.8397 196.88 42.8369 196.967 42.8278 196.968C42.8012 196.972 42.7767 196.626 42.5844 196.113C42.3976 195.605 42.0038 194.931 41.3442 194.423C40.6847 193.917 39.932 193.708 39.3928 193.657C38.8486 193.603 38.508 193.669 38.5052 193.642" fill="#3478F6"/>
<path d="M39.665 188.618C39.7055 188.618 39.7426 189.724 39.7489 191.089C39.7552 192.453 39.7272 193.56 39.6874 193.56C39.6475 193.56 39.6097 192.454 39.6034 191.089C39.5971 189.725 39.6251 188.618 39.665 188.618Z" fill="#3478F6"/>
<path d="M44.3401 195.839C44.3443 195.796 45.1291 195.845 46.0964 195.837C47.0645 195.83 47.8486 195.769 47.8535 195.811C47.8584 195.848 47.075 195.976 46.0978 195.982C45.1207 195.99 44.3352 195.876 44.3401 195.839" fill="#3478F6"/>
<path d="M41.9842 195.875C42.0094 195.845 42.1689 195.951 42.2654 196.157C42.364 196.363 42.3444 196.552 42.3053 196.554C42.264 196.556 42.2199 196.396 42.1339 196.219C42.0507 196.04 41.9555 195.904 41.9842 195.875" fill="#3478F6"/>
<path d="M41.0772 194.785C41.1051 194.756 41.2303 194.833 41.3569 194.958C41.4835 195.081 41.5633 195.205 41.5353 195.233C41.5066 195.262 41.3814 195.185 41.2555 195.061C41.1282 194.937 41.0492 194.814 41.0772 194.785Z" fill="#3478F6"/>
<path d="M39.7977 194.302C39.7851 194.266 39.9684 194.188 40.1887 194.26C40.4098 194.329 40.5133 194.499 40.4818 194.521C40.451 194.549 40.3237 194.453 40.144 194.398C39.9663 194.339 39.8068 194.344 39.7977 194.302Z" fill="#3478F6"/>
<path d="M38.8892 194.08C38.9032 194.042 38.9962 194.041 39.0963 194.078C39.197 194.116 39.2669 194.176 39.2529 194.213C39.2389 194.251 39.1466 194.252 39.0459 194.215C38.9459 194.178 38.8752 194.118 38.8892 194.08Z" fill="#3478F6"/>
<path d="M92.6421 14.0023C92.6421 14.0023 102.902 3.40559 103.834 3.87772C104.766 4.35055 100.07 8.66057 100.693 9.21874C101.315 9.7783 106.259 13.5379 98.2993 19.4951L92.6421 14.0023" fill="#D2E0F9"/>
<path d="M101.473 10.931C101.482 10.9366 101.423 11.0471 101.308 11.2429C101.147 11.5087 100.984 11.7801 100.812 12.0634C100.572 12.4502 100.321 12.8517 100.06 13.2714C99.9128 13.4945 99.7365 13.7428 99.4567 13.8925C99.1798 14.0331 98.7818 14.0394 98.5377 13.7596C98.2999 13.4525 98.4586 13.0748 98.5985 12.8349C98.7531 12.5796 98.9077 12.3509 99.0525 12.1242C99.3225 11.7109 99.5813 11.315 99.831 10.9338C100.015 10.6596 100.193 10.3966 100.366 10.1378C100.495 9.95175 100.57 9.85173 100.579 9.85733C100.588 9.86222 100.528 9.97343 100.414 10.1686C100.253 10.4351 100.088 10.7058 99.9177 10.989C99.6764 11.3751 99.4267 11.7773 99.1658 12.1963C99.021 12.4278 98.8741 12.6635 98.723 12.9055C98.5852 13.142 98.4761 13.4539 98.651 13.6679C98.8216 13.8743 99.1644 13.8841 99.391 13.7652C99.6323 13.6393 99.8016 13.4147 99.9478 13.1972C100.218 12.7845 100.477 12.3886 100.726 12.0081C100.91 11.7333 101.087 11.4703 101.261 11.2122C101.389 11.0254 101.465 10.9254 101.473 10.931" fill="white"/>
<path d="M101.996 12.0936C102.004 12.095 101.997 12.2034 101.956 12.3951C101.916 12.5874 101.837 12.8623 101.693 13.1841C101.549 13.5051 101.336 13.8723 101.032 14.2284C100.884 14.4053 100.704 14.5921 100.467 14.7124C100.248 14.8418 99.8815 14.8844 99.6654 14.6382C99.4605 14.4025 99.4647 14.0759 99.5612 13.8311C99.657 13.5814 99.8165 13.3869 99.9459 13.2016C100.21 12.8281 100.42 12.4713 100.605 12.1762C100.788 11.8789 100.943 11.6425 101.059 11.4851C101.175 11.3277 101.247 11.2459 101.255 11.2515C101.264 11.2578 101.207 11.3501 101.106 11.5166C100.968 11.7537 100.831 11.9894 100.693 12.2286C100.521 12.5301 100.318 12.8938 100.056 13.2778C99.9256 13.4701 99.7773 13.659 99.6948 13.8814C99.6102 14.0941 99.6199 14.3662 99.7738 14.5396C99.9298 14.7187 100.198 14.6977 100.402 14.5858C100.615 14.4788 100.782 14.313 100.931 14.1409C101.23 13.7996 101.447 13.4485 101.6 13.14C101.904 12.5196 101.969 12.0866 101.996 12.0936" fill="white"/>
<path d="M94.9211 13.9373C94.9204 13.9268 95.0645 13.9086 95.3254 13.8834C95.6731 13.8555 96.0382 13.8254 96.4306 13.7932C96.8964 13.7533 97.456 13.7379 98.0533 13.6106C98.6408 13.4861 99.2927 13.191 99.676 12.6076C99.8502 12.3307 99.9957 11.9536 99.8439 11.7137C99.7732 11.6011 99.6124 11.634 99.4452 11.6424C99.285 11.6522 99.127 11.6627 98.971 11.6725C98.3911 11.706 97.8435 11.7375 97.3294 11.7676C96.9363 11.7858 96.5711 11.8026 96.2221 11.8187C95.9598 11.8277 95.815 11.8277 95.8143 11.818C95.8136 11.8082 95.9577 11.7886 96.2179 11.762C96.5655 11.7312 96.9307 11.699 97.3224 11.6648C97.8358 11.6249 98.3827 11.5829 98.9619 11.5382C99.1179 11.527 99.2759 11.5158 99.4361 11.5039C99.5179 11.4997 99.5942 11.4885 99.69 11.4906C99.7851 11.4913 99.8978 11.5424 99.9579 11.6284C100.077 11.8026 100.067 12.0061 100.021 12.1838C99.9761 12.3607 99.8992 12.5307 99.7984 12.6867C99.3837 13.3176 98.6877 13.6204 98.0813 13.7414C97.4644 13.866 96.9027 13.8687 96.4369 13.896C96.0438 13.9114 95.6779 13.9261 95.3289 13.9401C95.0673 13.9478 94.9218 13.9471 94.9211 13.9373" fill="white"/>
<path d="M102.63 13.1286C102.64 13.1349 102.6 13.2104 102.544 13.3531C102.488 13.4944 102.424 13.7063 102.354 13.9728C102.281 14.2372 102.202 14.5673 102.002 14.8926C101.902 15.0528 101.767 15.2094 101.585 15.3227C101.493 15.378 101.376 15.4242 101.249 15.4046C101.122 15.3857 101.015 15.3018 100.95 15.2017C100.808 14.9961 100.841 14.7359 100.908 14.5471C100.978 14.3505 101.063 14.1833 101.136 14.0148C101.267 13.7266 101.401 13.4342 101.539 13.1321C101.772 12.6306 101.925 12.3249 101.944 12.3333C101.962 12.3417 101.842 12.6613 101.633 13.1733C101.505 13.4804 101.381 13.7763 101.259 14.0686C101.14 14.3946 100.863 14.794 101.071 15.1206C101.171 15.2829 101.357 15.3025 101.512 15.2003C101.669 15.1052 101.795 14.9667 101.89 14.8198C102.08 14.5226 102.17 14.2057 102.255 13.9441C102.409 13.409 102.612 13.1139 102.63 13.1286" fill="white"/>
<path d="M97.8727 16.9402C97.83 16.9276 98.028 16.2289 98.0811 15.3427C98.1406 14.4572 98.0321 13.7388 98.0762 13.7318C98.1112 13.7227 98.2868 14.4453 98.2266 15.3525C98.172 16.259 97.9062 16.9542 97.8727 16.9402" fill="white"/>
<path d="M49.0999 10.4709C49.0741 13.1876 50.5751 15.8686 52.9043 17.2661C53.5317 17.6424 54.215 17.9327 54.7893 18.3859C55.3635 18.8399 55.8315 19.5107 55.8014 20.2416C55.7545 21.3838 54.5969 22.1098 53.5792 22.6309C54.697 23.6787 54.7088 25.6777 53.6044 26.7395C52.4993 27.8006 50.5023 27.709 49.5 26.5493C49.4434 28.6924 47.7304 30.5907 45.6691 31.1783C43.6071 31.7665 41.3241 31.1755 39.579 29.9297C37.8338 28.6854 36.5818 26.8486 35.7019 24.8937" fill="#17282F"/>
<path d="M43.9063 30.4717C43.7203 29.3889 44.1595 24.8432 44.1595 24.8432C44.1595 24.8432 48.3094 24.4039 48.5612 20.289C48.8137 16.1734 48.5612 6.68326 48.5612 6.68326L41.0029 2.98806L32.6885 9.28733L33.9482 29.8632L43.9063 30.4717" fill="#D2E0F9"/>
<path d="M47.7357 13.6012C47.7357 13.8922 47.5 14.1279 47.2091 14.1279C46.9181 14.1279 46.6824 13.8922 46.6824 13.6012C46.6824 13.3103 46.9181 13.0745 47.2091 13.0745C47.5 13.0745 47.7357 13.3103 47.7357 13.6012Z" fill="#17282F"/>
<path d="M48.2457 13.027C48.1779 13.0948 47.7883 12.7647 47.2217 12.7339C46.6552 12.6954 46.2285 12.9766 46.1698 12.9004C46.1404 12.8668 46.211 12.7416 46.3978 12.6136C46.5803 12.4863 46.8895 12.3702 47.2427 12.3919C47.5959 12.4135 47.8883 12.566 48.0548 12.715C48.2241 12.864 48.2786 12.9969 48.2457 13.027" fill="#17282F"/>
<path d="M41.6324 13.6012C41.6324 13.8922 41.396 14.1279 41.1051 14.1279C40.8148 14.1279 40.5784 13.8922 40.5784 13.6012C40.5784 13.3103 40.8148 13.0745 41.1051 13.0745C41.396 13.0745 41.6324 13.3103 41.6324 13.6012Z" fill="#17282F"/>
<path d="M41.9591 13.027C41.8913 13.0948 41.5024 12.7647 40.9358 12.7339C40.3686 12.6954 39.9426 12.9766 39.8839 12.9004C39.8545 12.8668 39.9251 12.7416 40.1112 12.6136C40.2944 12.4863 40.6029 12.3702 40.9561 12.3919C41.3094 12.4135 41.6024 12.566 41.7682 12.715C41.9382 12.864 41.992 12.9969 41.9591 13.027" fill="#17282F"/>
<path d="M44.0049 17.7805C44.0042 17.7504 44.3567 17.7098 44.9282 17.6686C45.0709 17.6609 45.2185 17.6434 45.252 17.5364C45.2947 17.4273 45.2394 17.2594 45.1758 17.0817C45.0471 16.6956 44.9198 16.3137 44.7869 15.913C44.5169 15.082 44.284 14.3259 44.1259 13.7754C43.9678 13.2249 43.8846 12.8794 43.9126 12.8703C43.9413 12.8612 44.077 13.1893 44.2728 13.7279C44.4686 14.2664 44.7247 15.0148 44.9946 15.8458C45.1219 16.2473 45.2443 16.632 45.3667 17.0195C45.4171 17.1929 45.5038 17.3923 45.4185 17.6084C45.3052 17.8406 45.0555 17.821 44.9338 17.8231C44.3609 17.8245 44.0063 17.8106 44.0049 17.7805" fill="#17282F"/>
<path d="M42.132 18.3539C41.5585 17.9727 43.717 19.2975 44.8739 19.2975C44.8739 19.2975 44.1597 20.3235 42.9938 19.8311C41.7837 19.3198 42.132 18.3539 42.132 18.3539Z" fill="white"/>
<path d="M44.1595 24.8434C44.1595 24.8434 41.3883 24.8748 38.7073 23.0024C38.7073 23.0024 39.9432 26.0241 44.07 25.8534L44.1595 24.8434Z" fill="white"/>
<path d="M46.8287 3.66029C42.7481 -0.579796 39.9482 0.300113 38.3478 0.300113C37.2126 0.300113 32.5759 1.2304 29.4333 5.4544L29.4326 5.4502C28.2932 6.63577 26.6697 10.4912 26.4837 11.853C26.2969 13.2141 26.5305 14.5955 26.5215 15.97C26.5117 17.3444 26.1976 18.8237 25.1687 19.7358C24.5175 20.3129 23.6026 20.6451 23.2109 21.4229C22.7535 22.3308 23.2683 23.4982 24.1153 24.0606C24.9631 24.6222 26.0374 24.7068 27.0537 24.6649C26.8159 26.6933 28.3897 28.7658 30.4076 29.0812C31.4456 29.2435 32.5116 28.9253 33.3579 28.3069C34.0427 28.9749 34.7701 29.6079 35.5486 30.1934C35.7186 24.2039 35.5864 18.2075 35.1716 12.23C37.9176 11.7425 42.8425 10.2617 43.6993 5.86217C44.7961 8.36761 46.4608 9.73294 48.6731 11.6299C48.6731 11.6299 50.9093 7.90108 46.8287 3.66029" fill="#17282F"/>
<path d="M35.4731 10.6392C35.4752 10.586 36.1229 10.5874 37.156 10.6448C38.1758 10.6811 39.6419 10.793 41.0604 10.188C41.7626 9.89074 42.3278 9.41302 42.6894 8.86675C43.0545 8.32048 43.242 7.73922 43.342 7.2454C43.5336 6.24728 43.4399 5.5989 43.505 5.5947C43.5378 5.58561 43.7295 6.22911 43.5959 7.28878C43.5239 7.81197 43.3532 8.44217 42.9706 9.05C42.5922 9.65922 41.9634 10.2034 41.2059 10.5223C39.6713 11.1714 38.1513 11.0001 37.1357 10.9014C36.1033 10.7776 35.4717 10.6867 35.4731 10.6392" fill="#17282F"/>
<path d="M24.7567 20.7158C24.7602 20.6787 25.0176 20.764 25.4296 20.6186C25.8234 20.4773 26.3878 20.0443 26.5452 19.2847C26.7215 18.5244 26.471 17.5878 26.0437 16.6205C25.8394 16.1288 25.6037 15.6063 25.4596 15.0188C25.3205 14.4312 25.2743 13.7996 25.3449 13.1666C25.4771 11.8943 25.9814 10.764 26.5718 9.85188C27.1684 8.93769 27.8455 8.22634 28.4302 7.66049C29.0185 7.09673 29.5249 6.67706 29.8767 6.39098C30.2306 6.10631 30.4349 5.96013 30.4516 5.97901C30.4929 6.02378 29.7403 6.69245 28.6121 7.84305C28.0574 8.4243 27.4153 9.13984 26.855 10.0323C26.3011 10.9206 25.8304 12.0069 25.7073 13.2037C25.6408 13.7996 25.6828 14.3885 25.8073 14.9355C25.9353 15.4832 26.1563 15.9945 26.3542 16.4932C26.769 17.4766 27.0264 18.5048 26.7956 19.3449C26.5788 20.1996 25.9178 20.6424 25.4722 20.7543C25.2414 20.8123 25.0526 20.8053 24.933 20.7801C24.8119 20.7557 24.7539 20.7263 24.7567 20.7158" fill="#17282F"/>
<path d="M54.6506 14.834C54.6646 14.8249 54.7842 14.9858 54.7793 15.3292C54.7751 15.6601 54.5974 16.1797 54.0777 16.5337C53.5559 16.8897 52.7341 16.9163 52.0143 16.561C51.2799 16.2049 50.7134 15.4999 50.2734 14.741C49.3683 13.2113 48.9682 11.627 48.8311 10.4876C48.6898 9.3412 48.764 8.62775 48.8045 8.62915C48.864 8.62705 48.8822 9.3356 49.085 10.4477C49.2851 11.5557 49.7124 13.0777 50.5868 14.5556C51.0134 15.2928 51.5317 15.9363 52.164 16.2602C52.7914 16.5889 53.4944 16.5854 53.9406 16.3162C54.3953 16.0448 54.5953 15.6062 54.638 15.3159C54.6848 15.0159 54.6191 14.8431 54.6506 14.834" fill="#17282F"/>
<path d="M48.2822 79.5544C48.2822 79.5544 62.3056 125.071 61.4228 139.77C60.5394 154.471 50.2708 190.97 50.2708 190.97L48.2822 79.5544Z" fill="#17282F"/>
<path d="M28.4801 71.8026C28.1681 71.7173 22.0171 80.7528 21.8129 88.5224C21.7933 89.2617 21.8297 90.0409 21.8989 90.8068C22.1444 93.5269 22.8292 96.1877 23.835 98.7274C29.0347 111.858 34.3968 127.432 34.4849 130.976C34.7577 141.906 36.8896 192.146 36.8896 192.146L52.0034 191.08L51.5061 130.981L47.8235 71.3053L28.4801 71.8026" fill="#17282F"/>
<path d="M36.7356 71.5422C36.8272 71.5184 36.8664 73.2209 36.8664 76.2656C36.8965 79.3152 36.723 83.7295 36.9245 89.1761C36.9846 90.538 37.0301 91.9649 37.1518 93.4477C37.2413 94.9326 37.3826 96.4735 37.5449 98.0669C37.8757 101.254 38.3331 104.649 38.9018 108.207C39.4656 111.766 40.1105 115.496 40.6553 119.382C41.2023 123.267 41.629 127.312 41.8549 131.467C42.1053 135.625 42.0493 139.691 42.1249 143.612C42.1843 147.535 42.2746 151.318 42.3788 154.921C42.5921 162.127 42.8467 168.615 43.0559 174.063C43.2559 179.499 43.4182 183.903 43.5301 186.968C43.5769 188.478 43.6133 189.658 43.6385 190.478C43.6609 191.28 43.6644 191.702 43.6644 191.702C43.6252 190.717 43.3846 184.761 42.953 174.067C42.7306 168.62 42.4655 162.132 42.2452 154.925C42.1361 151.321 42.0437 147.538 41.9822 143.615C41.9046 139.691 41.9591 135.628 41.7094 131.476C41.4835 127.324 41.0589 123.284 40.5133 119.402C39.972 115.519 39.3299 111.789 38.7689 108.229C38.2038 104.668 37.7505 101.27 37.4246 98.0795C37.2644 96.484 37.1266 94.9417 37.0399 93.4554C36.9209 91.9711 36.8783 90.5429 36.8216 89.1803C36.6328 83.7267 36.8223 79.3145 36.8097 76.2656C36.8188 74.7415 36.8174 73.5573 36.8062 72.7551C36.7944 71.9556 36.772 71.524 36.7356 71.5422" fill="#3478F6"/>
<path d="M52.0033 192.271H36.8091V189.982H52.0033V192.271Z" fill="#3478F6"/>
<path d="M37.7632 72.0039C37.7233 72.0053 37.6862 71.8493 37.6806 71.6563C37.675 71.4632 37.703 71.3058 37.7429 71.3044C37.7835 71.3037 37.8205 71.4583 37.8261 71.6521C37.8317 71.8451 37.8038 72.0025 37.7632 72.0039Z" fill="#3478F6"/>
<path d="M37.8044 73.4023C37.7638 73.4037 37.7268 73.2478 37.7212 73.0547C37.7156 72.8617 37.7435 72.7043 37.7841 72.7036C37.824 72.7022 37.8611 72.8568 37.8667 73.0505C37.8729 73.2436 37.845 73.4009 37.8044 73.4023Z" fill="#3478F6"/>
<path d="M37.8457 74.8008C37.8051 74.8022 37.768 74.6462 37.7624 74.4531C37.7568 74.2601 37.7848 74.1027 37.8247 74.102C37.8653 74.1006 37.9023 74.2559 37.9079 74.4489C37.9135 74.642 37.8855 74.7994 37.8457 74.8008Z" fill="#3478F6"/>
<path d="M37.8862 76.1992C37.8463 76.2006 37.8086 76.0446 37.803 75.8523C37.7974 75.6585 37.8253 75.5012 37.8652 75.5005C37.9058 75.4991 37.9429 75.6543 37.9485 75.8474C37.954 76.0404 37.9261 76.1985 37.8862 76.1992Z" fill="#3478F6"/>
<path d="M37.9267 77.5967C37.8868 77.5981 37.849 77.4421 37.8441 77.2497C37.8378 77.056 37.8665 76.8993 37.9064 76.8979C37.947 76.8965 37.984 77.0518 37.9896 77.2455C37.9952 77.4379 37.9672 77.596 37.9267 77.5967Z" fill="#3478F6"/>
<path d="M37.968 78.9961C37.9274 78.9968 37.8903 78.8415 37.8847 78.6485C37.8791 78.4547 37.9071 78.298 37.9477 78.2966C37.9876 78.2952 38.0246 78.4505 38.0302 78.6443C38.0358 78.8366 38.0078 78.9947 37.968 78.9961Z" fill="#3478F6"/>
<path d="M38.1723 85.9873C38.1318 85.9887 38.0947 85.8327 38.0891 85.6404C38.0835 85.4466 38.1115 85.2892 38.152 85.2885C38.1919 85.2871 38.229 85.4431 38.2346 85.6355C38.2402 85.8285 38.2122 85.9866 38.1723 85.9873Z" fill="#3478F6"/>
<path d="M38.1798 87.3887C38.1393 87.3894 38.1057 87.232 38.1043 87.0389C38.1029 86.8452 38.1351 86.6885 38.1749 86.6878C38.2148 86.6878 38.2491 86.8438 38.2498 87.0382C38.2512 87.2313 38.2197 87.3887 38.1798 87.3887Z" fill="#3478F6"/>
<path d="M38.1981 88.791C38.1576 88.7917 38.1233 88.635 38.1198 88.442C38.117 88.2482 38.1471 88.0909 38.187 88.0902C38.2275 88.0902 38.2625 88.2454 38.2653 88.4399C38.2688 88.6329 38.2387 88.7903 38.1981 88.791Z" fill="#3478F6"/>
<path d="M38.2296 90.1914C38.1898 90.1921 38.1527 90.0361 38.1485 89.8424C38.1436 89.6486 38.1723 89.492 38.2121 89.4906C38.2527 89.4899 38.2891 89.6451 38.294 89.8389C38.2989 90.0319 38.2702 90.19 38.2296 90.1914Z" fill="#3478F6"/>
<path d="M38.2756 91.5918C38.2351 91.5932 38.1973 91.4379 38.1903 91.2442C38.1833 91.0504 38.2106 90.893 38.2512 90.8916C38.291 90.8902 38.3288 91.0455 38.3358 91.2393C38.3428 91.4323 38.3155 91.5904 38.2756 91.5918Z" fill="#3478F6"/>
<path d="M38.336 92.9912C38.2954 92.9926 38.2556 92.838 38.2472 92.6443C38.2381 92.4512 38.264 92.2924 38.3038 92.2917C38.3437 92.2896 38.3843 92.4449 38.3927 92.638C38.4011 92.831 38.3759 92.9891 38.336 92.9912Z" fill="#3478F6"/>
<path d="M38.4108 94.3906C38.3709 94.392 38.3289 94.2381 38.3184 94.0444C38.3073 93.8513 38.331 93.6926 38.3709 93.6912C38.4115 93.6891 38.4527 93.8429 38.4639 94.0367C38.4744 94.229 38.4506 94.3878 38.4108 94.3906Z" fill="#3478F6"/>
<path d="M38.501 95.7871C38.4604 95.7899 38.4177 95.636 38.4044 95.4422C38.3919 95.2492 38.4135 95.0904 38.4541 95.089C38.494 95.0862 38.5374 95.2401 38.5499 95.4331C38.5632 95.6255 38.5408 95.7843 38.501 95.7871" fill="#3478F6"/>
<path d="M38.6066 97.1835C38.5668 97.187 38.522 97.0331 38.5066 96.8394C38.4912 96.6471 38.5115 96.489 38.5521 96.4855C38.5919 96.4827 38.6367 96.6359 38.6521 96.8289C38.6668 97.0213 38.6472 97.18 38.6066 97.1835Z" fill="#3478F6"/>
<path d="M38.7282 98.5771C38.6883 98.5813 38.6415 98.4274 38.624 98.2357C38.6065 98.042 38.6254 97.8839 38.6652 97.8804C38.7058 97.8769 38.752 98.0301 38.7688 98.2217C38.7862 98.4141 38.7681 98.5736 38.7282 98.5771Z" fill="#3478F6"/>
<path d="M38.8653 99.9696C38.8247 99.9738 38.7772 99.8214 38.7576 99.629C38.738 99.436 38.7541 99.2772 38.7947 99.2737C38.8345 99.2695 38.8828 99.422 38.9024 99.6143C38.9219 99.8067 38.9052 99.9654 38.8653 99.9696Z" fill="#3478F6"/>
<path d="M39.0178 101.359C38.9779 101.364 38.9275 101.212 38.9066 101.02C38.8842 100.828 38.8996 100.669 38.9394 100.664C38.9793 100.66 39.029 100.812 39.0513 101.004C39.0723 101.196 39.0576 101.355 39.0178 101.359Z" fill="#3478F6"/>
<path d="M39.1851 102.748C39.1452 102.753 39.0942 102.602 39.0704 102.409C39.0466 102.218 39.0599 102.058 39.0998 102.054C39.1397 102.049 39.1914 102.201 39.2152 102.392C39.2383 102.583 39.225 102.743 39.1851 102.748Z" fill="#3478F6"/>
<path d="M39.367 104.134C39.3272 104.139 39.2747 103.988 39.2488 103.797C39.2229 103.606 39.2348 103.447 39.2747 103.441C39.3146 103.436 39.3677 103.587 39.3929 103.778C39.4188 103.969 39.4069 104.128 39.367 104.134Z" fill="#3478F6"/>
<path d="M39.5613 105.513C39.5221 105.52 39.4669 105.369 39.4403 105.178C39.4123 104.989 39.4228 104.829 39.4627 104.823C39.5025 104.818 39.5571 104.968 39.5844 105.158C39.611 105.348 39.6012 105.508 39.5613 105.513Z" fill="#3478F6"/>
<path d="M39.7684 106.893C39.7278 106.9 39.6726 106.75 39.6432 106.559C39.6145 106.369 39.6236 106.209 39.6635 106.202C39.7026 106.196 39.7586 106.346 39.7873 106.537C39.8167 106.728 39.8076 106.888 39.7684 106.893Z" fill="#3478F6"/>
<path d="M39.9852 108.275C39.9447 108.281 39.888 108.132 39.8579 107.942C39.8279 107.751 39.8355 107.592 39.8754 107.585C39.9153 107.579 39.9719 107.728 40.002 107.918C40.0321 108.109 40.0244 108.268 39.9852 108.275Z" fill="#3478F6"/>
<path d="M40.2097 109.653C40.1698 109.66 40.1125 109.511 40.081 109.32C40.0495 109.13 40.0565 108.97 40.0964 108.963C40.1356 108.958 40.1936 109.107 40.2251 109.297C40.2559 109.487 40.2496 109.647 40.2097 109.653Z" fill="#3478F6"/>
<path d="M40.4407 111.031C40.4001 111.037 40.3421 110.888 40.3106 110.698C40.2784 110.508 40.2847 110.348 40.3246 110.342C40.3645 110.335 40.4225 110.484 40.4547 110.674C40.4862 110.864 40.4799 111.024 40.4407 111.031Z" fill="#3478F6"/>
<path d="M40.6734 112.406C40.6335 112.413 40.5755 112.264 40.5433 112.074C40.5111 111.884 40.5167 111.725 40.5566 111.718C40.5965 111.711 40.6545 111.86 40.6867 112.051C40.7189 112.24 40.7133 112.4 40.6734 112.406Z" fill="#3478F6"/>
<path d="M40.9071 113.782C40.8679 113.789 40.8098 113.641 40.777 113.451C40.7448 113.261 40.7511 113.101 40.7902 113.095C40.8301 113.088 40.8889 113.236 40.9211 113.426C40.9532 113.616 40.9476 113.776 40.9071 113.782Z" fill="#3478F6"/>
<path d="M41.1392 115.158C41.0993 115.164 41.0413 115.016 41.0098 114.826C40.9776 114.636 40.9839 114.477 41.0238 114.47C41.0637 114.463 41.1217 114.612 41.1532 114.802C41.1854 114.992 41.1791 115.151 41.1392 115.158Z" fill="#3478F6"/>
<path d="M41.3666 116.534C41.3268 116.54 41.2694 116.391 41.2379 116.201C41.2071 116.011 41.2134 115.852 41.2533 115.845C41.2932 115.839 41.3505 115.988 41.382 116.178C41.4128 116.368 41.4058 116.527 41.3666 116.534Z" fill="#3478F6"/>
<path d="M41.5863 117.91C41.5465 117.916 41.4898 117.767 41.4597 117.577C41.4297 117.386 41.4374 117.227 41.4772 117.221C41.5171 117.215 41.5737 117.364 41.6038 117.554C41.6339 117.744 41.6262 117.904 41.5863 117.91Z" fill="#3478F6"/>
<path d="M41.7963 119.288C41.7571 119.294 41.7012 119.145 41.6725 118.954C41.6438 118.763 41.6529 118.605 41.6928 118.599C41.7326 118.593 41.7879 118.742 41.8166 118.932C41.8453 119.123 41.8369 119.282 41.7963 119.288Z" fill="#3478F6"/>
<path d="M42.1822 122.051C42.1423 122.056 42.0892 121.905 42.064 121.715C42.0388 121.523 42.0507 121.365 42.0906 121.359C42.1304 121.354 42.1836 121.504 42.2088 121.695C42.234 121.886 42.2221 122.046 42.1822 122.051Z" fill="#3478F6"/>
<path d="M42.355 123.436C42.3152 123.441 42.2634 123.29 42.2403 123.098C42.2172 122.907 42.2305 122.748 42.2704 122.743C42.3103 122.738 42.362 122.889 42.3851 123.081C42.4082 123.272 42.3949 123.432 42.355 123.436Z" fill="#3478F6"/>
<path d="M42.5125 124.823C42.4726 124.827 42.4229 124.676 42.4019 124.484C42.3803 124.292 42.3956 124.134 42.4355 124.129C42.4754 124.124 42.5251 124.276 42.5467 124.468C42.5677 124.66 42.553 124.818 42.5125 124.823Z" fill="#3478F6"/>
<path d="M42.655 126.213C42.6144 126.216 42.5669 126.064 42.5473 125.872C42.5284 125.681 42.5452 125.521 42.5851 125.517C42.6256 125.513 42.6732 125.665 42.6928 125.858C42.7117 126.05 42.6949 126.209 42.655 126.213" fill="#3478F6"/>
<path d="M42.781 127.604C42.7412 127.608 42.6943 127.455 42.6775 127.263C42.6607 127.071 42.6796 126.912 42.7195 126.908C42.7594 126.905 42.8062 127.058 42.823 127.25C42.8398 127.442 42.8209 127.601 42.781 127.604" fill="#3478F6"/>
<path d="M42.8909 128.998C42.851 129.001 42.8062 128.848 42.7916 128.655C42.7769 128.462 42.7978 128.304 42.8377 128.301C42.8783 128.298 42.9224 128.452 42.937 128.644C42.9517 128.837 42.9314 128.995 42.8909 128.998Z" fill="#3478F6"/>
<path d="M42.9851 130.393C42.9452 130.396 42.9026 130.241 42.89 130.049C42.8774 129.857 42.8998 129.698 42.9403 129.695C42.9802 129.693 43.0229 129.847 43.0355 130.039C43.0481 130.232 43.0257 130.391 42.9851 130.393" fill="#3478F6"/>
<path d="M43.0636 131.783C43.0237 131.785 42.9824 131.632 42.9726 131.44C42.9622 131.248 42.9866 131.09 43.0265 131.088C43.0664 131.085 43.1076 131.24 43.1181 131.432C43.1279 131.624 43.1041 131.782 43.0636 131.783" fill="#3478F6"/>
<path d="M43.1271 133.177C43.0865 133.179 43.0473 133.023 43.039 132.831C43.0313 132.639 43.0571 132.481 43.097 132.48C43.1376 132.478 43.1767 132.632 43.1851 132.826C43.1935 133.018 43.167 133.175 43.1271 133.177Z" fill="#3478F6"/>
<path d="M43.1754 134.572C43.1355 134.574 43.0978 134.418 43.0915 134.226C43.0852 134.032 43.1131 133.876 43.153 133.874C43.1936 133.873 43.2307 134.027 43.2377 134.221C43.2432 134.414 43.216 134.571 43.1754 134.572Z" fill="#3478F6"/>
<path d="M43.2097 135.97C43.1699 135.97 43.1342 135.815 43.1293 135.622C43.1251 135.428 43.1545 135.272 43.1944 135.271C43.2349 135.27 43.2706 135.425 43.2755 135.619C43.2797 135.812 43.2503 135.969 43.2097 135.97Z" fill="#3478F6"/>
<path d="M43.2307 137.369C43.1901 137.369 43.1558 137.213 43.1537 137.02C43.1509 136.827 43.1817 136.67 43.2223 136.67C43.2622 136.669 43.2964 136.825 43.2992 137.018C43.3013 137.211 43.2705 137.369 43.2307 137.369Z" fill="#3478F6"/>
<path d="M43.2404 138.77C43.2005 138.77 43.167 138.614 43.1656 138.421C43.1642 138.227 43.1956 138.071 43.2362 138.07C43.2761 138.07 43.3097 138.226 43.3111 138.42C43.3125 138.612 43.281 138.77 43.2404 138.77Z" fill="#3478F6"/>
<path d="M43.253 140.169C43.2125 140.17 43.1789 140.013 43.1768 139.82C43.1754 139.626 43.2062 139.47 43.2467 139.469C43.2866 139.469 43.3209 139.625 43.323 139.819C43.3244 140.012 43.2936 140.169 43.253 140.169Z" fill="#3478F6"/>
<path d="M43.2686 141.567C43.2287 141.568 43.1944 141.412 43.1923 141.218C43.1895 141.025 43.2203 140.869 43.2609 140.868C43.3007 140.867 43.3357 141.023 43.3378 141.217C43.3399 141.41 43.3091 141.567 43.2686 141.567Z" fill="#3478F6"/>
<path d="M43.2875 142.967C43.2476 142.968 43.2126 142.811 43.2098 142.618C43.2077 142.425 43.2378 142.268 43.2777 142.267C43.3182 142.267 43.3532 142.423 43.3553 142.616C43.3581 142.809 43.328 142.966 43.2875 142.967Z" fill="#3478F6"/>
<path d="M43.3097 144.365C43.2691 144.365 43.2341 144.21 43.2306 144.016C43.2279 143.823 43.2579 143.667 43.2978 143.666C43.3384 143.665 43.3733 143.82 43.3768 144.014C43.3796 144.207 43.3496 144.365 43.3097 144.365Z" fill="#3478F6"/>
<path d="M43.3342 145.765C43.2943 145.765 43.2587 145.61 43.2552 145.416C43.2517 145.223 43.2817 145.066 43.3216 145.065C43.3622 145.064 43.3971 145.22 43.4006 145.414C43.4041 145.607 43.3748 145.764 43.3342 145.765Z" fill="#3478F6"/>
<path d="M43.3622 147.162C43.3223 147.163 43.286 147.007 43.2818 146.814C43.2783 146.62 43.3077 146.463 43.3482 146.463C43.3881 146.462 43.4245 146.617 43.428 146.811C43.4315 147.003 43.4021 147.161 43.3622 147.162Z" fill="#3478F6"/>
<path d="M43.3924 148.561C43.3525 148.562 43.3161 148.405 43.3119 148.213C43.3077 148.019 43.3371 147.862 43.377 147.862C43.4175 147.861 43.4532 148.016 43.4574 148.209C43.4616 148.403 43.4329 148.56 43.3924 148.561Z" fill="#3478F6"/>
<path d="M43.4258 149.959C43.3852 149.96 43.3488 149.804 43.3439 149.611C43.3397 149.418 43.3684 149.26 43.4083 149.26C43.4488 149.259 43.4852 149.414 43.4894 149.607C43.4943 149.8 43.4656 149.958 43.4258 149.959Z" fill="#3478F6"/>
<path d="M43.4608 151.357C43.4202 151.359 43.3839 151.203 43.379 151.01C43.3741 150.816 43.4021 150.659 43.4426 150.658C43.4832 150.657 43.5196 150.813 43.5245 151.006C43.5294 151.199 43.5007 151.357 43.4608 151.357Z" fill="#3478F6"/>
<path d="M43.4985 152.756C43.458 152.757 43.4209 152.601 43.416 152.408C43.4104 152.215 43.4391 152.058 43.4789 152.057C43.5195 152.056 43.5566 152.212 43.5615 152.405C43.5664 152.597 43.5384 152.755 43.4985 152.756Z" fill="#3478F6"/>
<path d="M43.5378 154.154C43.498 154.155 43.4602 153.999 43.4553 153.807C43.4497 153.613 43.4777 153.456 43.5176 153.455C43.5581 153.454 43.5952 153.609 43.6008 153.803C43.6064 153.995 43.5777 154.153 43.5378 154.154Z" fill="#3478F6"/>
<path d="M43.5798 155.553C43.5392 155.553 43.5014 155.398 43.4958 155.205C43.4902 155.011 43.5182 154.855 43.5588 154.853C43.5987 154.852 43.6357 155.008 43.642 155.201C43.6476 155.393 43.6196 155.551 43.5798 155.553Z" fill="#3478F6"/>
<path d="M43.6229 156.951C43.5823 156.952 43.5446 156.797 43.539 156.604C43.5327 156.41 43.5607 156.253 43.6012 156.252C43.6411 156.25 43.6782 156.406 43.6845 156.599C43.6907 156.792 43.6628 156.95 43.6229 156.951Z" fill="#3478F6"/>
<path d="M43.6678 158.35C43.628 158.351 43.5902 158.195 43.5839 158.002C43.5776 157.809 43.6049 157.651 43.6455 157.65C43.6853 157.648 43.7231 157.805 43.7294 157.997C43.7357 158.19 43.7084 158.348 43.6678 158.35Z" fill="#3478F6"/>
<path d="M43.7147 159.746C43.6748 159.748 43.637 159.592 43.6301 159.399C43.6238 159.206 43.651 159.049 43.6909 159.047C43.7315 159.046 43.7692 159.202 43.7762 159.394C43.7825 159.587 43.7553 159.745 43.7147 159.746" fill="#3478F6"/>
<path d="M43.763 161.145C43.7231 161.147 43.6846 160.992 43.6783 160.799C43.6713 160.606 43.6986 160.448 43.7392 160.447C43.7791 160.445 43.8175 160.601 43.8238 160.794C43.8308 160.986 43.8035 161.144 43.763 161.145" fill="#3478F6"/>
<path d="M43.8127 162.543C43.7729 162.544 43.7344 162.389 43.7274 162.196C43.7204 162.003 43.7477 161.846 43.7883 161.844C43.8281 161.842 43.8659 161.998 43.8736 162.191C43.8799 162.384 43.8533 162.542 43.8127 162.543Z" fill="#3478F6"/>
<path d="M43.8637 163.941C43.8232 163.943 43.7854 163.787 43.7777 163.594C43.7707 163.401 43.798 163.243 43.8379 163.242C43.8784 163.241 43.9169 163.396 43.9232 163.589C43.9309 163.782 43.9036 163.939 43.8637 163.941Z" fill="#3478F6"/>
<path d="M43.9155 165.339C43.8756 165.34 43.8365 165.185 43.8295 164.992C43.8225 164.8 43.8497 164.641 43.8896 164.64C43.9295 164.639 43.968 164.794 43.9756 164.987C43.9819 165.18 43.9554 165.337 43.9155 165.339" fill="#3478F6"/>
<path d="M43.9678 166.737C43.9279 166.739 43.8894 166.583 43.8817 166.39C43.8747 166.198 43.9013 166.04 43.9412 166.039C43.9818 166.036 44.0202 166.192 44.0272 166.385C44.0349 166.579 44.0083 166.736 43.9678 166.737" fill="#3478F6"/>
<path d="M44.0217 168.135C43.9811 168.137 43.9426 167.981 43.9357 167.789C43.928 167.595 43.9545 167.437 43.9951 167.436C44.035 167.434 44.0734 167.59 44.0811 167.783C44.0888 167.976 44.0623 168.133 44.0217 168.135Z" fill="#3478F6"/>
<path d="M44.0763 169.533C44.0357 169.535 43.9973 169.379 43.9896 169.186C43.9819 168.994 44.0092 168.836 44.049 168.835C44.0889 168.832 44.1274 168.988 44.1351 169.181C44.1428 169.374 44.1162 169.531 44.0763 169.533Z" fill="#3478F6"/>
<path d="M44.1308 170.931C44.091 170.933 44.0518 170.777 44.0441 170.584C44.0371 170.391 44.063 170.233 44.1036 170.232C44.1434 170.231 44.1826 170.386 44.1896 170.578C44.198 170.772 44.1707 170.929 44.1308 170.931Z" fill="#3478F6"/>
<path d="M44.1862 172.329C44.1456 172.33 44.1072 172.176 44.0995 171.982C44.0918 171.79 44.1184 171.632 44.1582 171.63C44.1988 171.628 44.238 171.783 44.245 171.976C44.2526 172.17 44.2268 172.327 44.1862 172.329Z" fill="#3478F6"/>
<path d="M44.2421 173.727C44.2015 173.728 44.1624 173.573 44.1554 173.38C44.147 173.187 44.1735 173.029 44.2141 173.028C44.254 173.025 44.2931 173.181 44.3008 173.374C44.3085 173.567 44.282 173.725 44.2421 173.727Z" fill="#3478F6"/>
<path d="M44.2973 175.124C44.2574 175.126 44.2183 174.972 44.2106 174.778C44.2029 174.585 44.2288 174.428 44.2693 174.425C44.3099 174.424 44.3484 174.579 44.3561 174.772C44.3638 174.965 44.3372 175.123 44.2973 175.124Z" fill="#3478F6"/>
<path d="M44.3527 176.522C44.3128 176.524 44.2737 176.369 44.2667 176.176C44.2583 175.983 44.2849 175.825 44.3254 175.824C44.3653 175.822 44.4038 175.977 44.4122 176.17C44.4192 176.364 44.3933 176.52 44.3527 176.522" fill="#3478F6"/>
<path d="M44.4086 177.92C44.368 177.922 44.3296 177.767 44.3219 177.574C44.3142 177.381 44.3408 177.222 44.3806 177.221C44.4205 177.22 44.4597 177.375 44.4674 177.567C44.4751 177.761 44.4485 177.919 44.4086 177.92" fill="#3478F6"/>
<path d="M44.4631 179.317C44.4232 179.319 44.3848 179.164 44.3771 178.97C44.3694 178.778 44.396 178.62 44.4358 178.618C44.4764 178.617 44.5149 178.772 44.5226 178.966C44.5302 179.158 44.5037 179.315 44.4631 179.317Z" fill="#3478F6"/>
<path d="M44.5185 180.715C44.4779 180.716 44.4394 180.562 44.4317 180.369C44.4241 180.175 44.4506 180.018 44.4912 180.016C44.5311 180.015 44.5695 180.17 44.5772 180.363C44.5849 180.556 44.5583 180.714 44.5185 180.715Z" fill="#3478F6"/>
<path d="M44.5722 182.114C44.5324 182.116 44.4932 181.961 44.4862 181.767C44.4785 181.574 44.5051 181.417 44.5449 181.415C44.5855 181.414 44.624 181.569 44.6317 181.762C44.6387 181.955 44.6121 182.113 44.5722 182.114Z" fill="#3478F6"/>
<path d="M44.6255 183.512C44.5856 183.513 44.5471 183.358 44.5394 183.165C44.5325 182.972 44.559 182.814 44.5989 182.813C44.6388 182.811 44.6779 182.966 44.6849 183.159C44.6926 183.352 44.666 183.51 44.6255 183.512Z" fill="#3478F6"/>
<path d="M44.678 184.91C44.6374 184.912 44.5996 184.756 44.5919 184.563C44.5849 184.37 44.6115 184.212 44.6514 184.211C44.692 184.209 44.7304 184.365 44.7381 184.558C44.7451 184.751 44.7185 184.909 44.678 184.91Z" fill="#3478F6"/>
<path d="M44.729 186.308C44.6891 186.31 44.6507 186.154 44.6437 185.961C44.6367 185.768 44.664 185.61 44.7038 185.609C44.7437 185.608 44.7822 185.762 44.7892 185.956C44.7962 186.148 44.7696 186.306 44.729 186.308Z" fill="#3478F6"/>
<path d="M44.7793 187.706C44.7387 187.707 44.701 187.552 44.694 187.359C44.687 187.166 44.7142 187.008 44.7541 187.007C44.7947 187.006 44.8325 187.16 44.8394 187.354C44.8464 187.547 44.8192 187.705 44.7793 187.706Z" fill="#3478F6"/>
<path d="M44.8277 189.108C44.7879 189.11 44.7501 188.955 44.7431 188.761C44.7368 188.567 44.7641 188.408 44.8039 188.408C44.8438 188.406 44.8823 188.561 44.8886 188.756C44.8956 188.95 44.8683 189.108 44.8277 189.108Z" fill="#3478F6"/>
<path d="M44.8751 190.511C44.8352 190.512 44.7974 190.357 44.7905 190.163C44.7842 189.97 44.8114 189.812 44.852 189.811C44.8919 189.809 44.9296 189.965 44.9366 190.158C44.9429 190.352 44.915 190.509 44.8751 190.511" fill="#3478F6"/>
<path d="M48.9006 87.2985C48.9125 87.2901 48.6802 87.4705 48.2564 87.3327C48.0542 87.2635 47.8199 87.1166 47.6422 86.8634C47.466 86.6102 47.3618 86.2696 47.3149 85.8947C47.1932 84.3943 47.0925 82.331 46.9624 80.0472C46.8491 77.8146 46.7469 75.7967 46.6658 74.1984C46.6371 73.5178 46.6133 72.9282 46.5924 72.4253C46.5882 72.2518 46.584 72.0931 46.5798 71.9434C46.5784 71.8329 46.5805 71.7748 46.5854 71.7748C46.5903 71.7741 46.5987 71.8315 46.6092 71.9413C46.6217 72.091 46.6343 72.249 46.649 72.4225C46.6826 72.9247 46.7225 73.5129 46.7686 74.1935C46.861 75.7904 46.9785 77.8076 47.1079 80.0388C47.2254 82.2687 47.3324 84.2852 47.417 85.8821C47.4562 86.2493 47.5499 86.5759 47.7101 86.8172C47.8696 87.0586 48.0878 87.2061 48.2759 87.2796C48.6697 87.4265 48.902 87.2747 48.9006 87.2985" fill="#3478F6"/>
<path d="M23.7397 98.0454C23.7362 98.0279 23.9551 98.0384 24.293 97.8796C24.6245 97.7244 25.0652 97.3571 25.3205 96.7423C25.5828 96.1268 25.6163 95.3161 25.5709 94.4306C25.5366 93.543 25.4443 92.568 25.2841 91.5552C24.9672 89.5729 24.4189 87.8264 23.9377 86.5877L23.995 86.6198C23.3704 86.7234 22.8234 86.8129 22.3471 86.8912C22.1876 86.915 22.0393 86.9367 21.898 86.9584C21.7952 86.971 21.7407 86.9759 21.7393 86.971C21.7386 86.9654 21.791 86.9514 21.8924 86.9283C22.033 86.8989 22.1792 86.8681 22.3373 86.8346C22.8108 86.7429 23.355 86.6373 23.9768 86.517L24.0181 86.5086L24.0349 86.5492C24.542 87.7837 25.1092 89.5373 25.4275 91.5321C25.5898 92.5512 25.6786 93.5325 25.7045 94.4257C25.7429 95.314 25.7003 96.1485 25.4156 96.7815C25.1365 97.4187 24.6665 97.7866 24.3161 97.9314C23.9586 98.0797 23.7397 98.0454 23.7397 98.0454" fill="#3478F6"/>
<path d="M24.521 88.6862C24.5294 88.7261 23.9321 88.8933 23.1872 89.0598C22.4416 89.2276 21.8295 89.3311 21.8211 89.2913C21.8121 89.2528 22.4094 89.0856 23.155 88.9178C23.9006 88.7513 24.5119 88.6478 24.521 88.6862Z" fill="#3478F6"/>
<path d="M15.0252 61.0411C15.2512 60.2878 20.1802 54.8978 24.628 50.1381C26.1724 59.5471 28.2575 70.39 28.4624 71.4553C23.1123 67.8335 14.742 61.9854 15.0252 61.0411V61.0411ZM100.279 19.7846L92.4421 13.365C71.1508 32.5776 43.6993 30.3925 43.6993 30.3925L43.7028 30.4387C42.4767 30.2393 36.0074 29.202 33.8692 29.1622C32.1954 29.1307 28.3303 28.8229 25.5933 31.4074C25.5261 31.471 25.459 31.5361 25.3925 31.6032C22.9179 34.0213 -1.87075 58.4497 0.761292 64.5034C3.53113 70.8734 27.088 84.7148 27.088 84.7148L32.7942 74.3496C32.7942 74.3496 31.0175 73.1844 28.5869 71.5406L47.8233 71.0461L48.6732 56.6444C48.6732 56.6444 51.9564 52.973 51.9564 50.3388C51.9564 48.5069 50.9471 45.4832 49.644 42.3406C79.9723 39.8071 100.279 19.7846 100.279 19.7846" fill="#3478F6"/>
<path d="M17.6342 57.7786C17.6146 57.7702 17.7601 57.5758 17.7007 57.175C17.6447 56.7854 17.4419 56.2251 17.0313 55.6439C16.6599 55.0144 15.7968 54.7052 14.8609 54.7751C13.9243 54.8129 12.908 55.2277 11.7588 55.1403C10.6243 55.0486 9.59961 54.4891 8.98829 53.712C8.37277 52.9237 8.1993 52.0095 8.19091 51.2807C8.18252 50.54 8.39865 49.951 8.63157 49.6125C8.86659 49.2697 9.07642 49.1599 9.07642 49.1599C9.09321 49.1774 8.90715 49.3145 8.70361 49.6573C8.50216 49.9965 8.31821 50.5644 8.34549 51.2779C8.37137 51.9794 8.56022 52.8572 9.14567 53.5861C9.72761 54.31 10.7019 54.836 11.777 54.9227C12.8549 55.0095 13.8705 54.608 14.8504 54.5744C15.3379 54.5534 15.8143 54.608 16.2255 54.7773C16.6473 54.9297 16.9579 55.2508 17.1572 55.5551C17.5671 56.1706 17.7524 56.7532 17.7853 57.1666C17.821 57.594 17.6363 57.7926 17.6342 57.7786" fill="white"/>
<path d="M9.91148 73.4019C9.90448 73.3697 10.2906 73.4306 10.8697 73.1501C11.1481 73.0032 11.4685 72.7486 11.6559 72.3401C11.8413 71.9365 11.8734 71.3993 11.8056 70.8356C11.7378 70.2662 11.5538 69.6584 11.3489 69.0079C11.1404 68.3658 10.8984 67.6664 10.4151 67.0949C9.95695 66.5311 9.14068 66.1471 8.37338 66.3416C7.99637 66.4423 7.67673 66.7256 7.53054 67.1005C7.37736 67.4726 7.38155 67.9147 7.51655 68.3092C7.77325 69.1338 8.66226 69.5507 9.45264 69.5514C10.2675 69.5752 11.0159 69.2205 11.6028 68.7547C12.768 67.7888 13.5263 66.5878 14.0501 65.5729C14.5607 64.537 14.7713 63.613 14.8356 62.9716C14.9021 62.3288 14.8657 61.9679 14.8881 61.9672C14.8881 61.9672 14.9608 62.3253 14.9203 62.9793C14.8818 63.6305 14.6908 64.5776 14.1893 65.64C13.6703 66.6843 12.9289 67.9 11.7273 68.9135C11.1243 69.401 10.3256 69.7878 9.44844 69.7647C9.01688 69.7605 8.56923 69.6584 8.17684 69.4283C7.78165 69.208 7.4529 68.8281 7.30951 68.3805C7.15913 67.9384 7.15354 67.4481 7.3291 67.0187C7.49627 66.5864 7.88097 66.2472 8.31603 66.1353C9.20154 65.9177 10.0731 66.3542 10.5683 66.9655C11.0803 67.5803 11.3181 68.305 11.5216 68.954C11.7196 69.6087 11.8986 70.2292 11.9588 70.8181C12.0182 71.4028 11.9777 71.9575 11.7664 72.3933C11.5531 72.8262 11.2034 73.085 10.9075 73.227C10.6039 73.3648 10.3458 73.4019 10.1745 73.411C10.001 73.4215 9.91148 73.4019 9.91148 73.4019" fill="white"/>
<path d="M19.1038 78.7907C19.1017 78.7655 19.3143 78.7942 19.6459 78.6564C19.9725 78.5221 20.3978 78.1653 20.6328 77.568C20.8944 76.9791 20.8321 76.1796 20.5321 75.3822C20.2474 74.5758 19.7249 73.7623 19.4108 72.7873C19.2563 72.3018 19.1709 71.7933 19.2234 71.303C19.2702 70.812 19.4661 70.3594 19.7305 69.9978C20.2628 69.2648 21.0308 68.8843 21.6743 68.7311C22.3276 68.5744 22.8745 68.5989 23.2403 68.6381C23.6083 68.6801 23.8048 68.7395 23.8027 68.7507C23.8055 68.8102 22.9759 68.5661 21.7134 68.8808C21.0979 69.0466 20.3831 69.4236 19.8942 70.1153C19.6514 70.4574 19.4766 70.8721 19.436 71.3247C19.3906 71.7765 19.4703 72.2543 19.6186 72.7215C19.9186 73.6588 20.4362 74.4778 20.7216 75.3144C21.0224 76.1369 21.0755 77.0057 20.7755 77.6282C20.5062 78.2556 20.0333 78.6186 19.6766 78.7361C19.3143 78.8564 19.1038 78.7907 19.1038 78.7907" fill="white"/>
<path d="M23.4208 51.4319C23.4034 51.4165 23.6356 51.1011 24.0818 50.552C24.5274 50.0022 25.1905 49.2216 26.0207 48.269C26.8489 47.3142 27.847 46.1888 28.9109 44.906C29.4424 44.2639 29.9908 43.5826 30.5427 42.8636C31.1064 42.1488 31.6282 41.3913 32.0577 40.5372C32.8991 38.839 33.451 37.0526 33.4349 35.4165C33.4342 33.7784 32.846 32.3298 31.9836 31.4492C31.1295 30.5497 30.1496 30.1574 29.4725 30.0412C28.787 29.9153 28.3926 29.9986 28.3905 29.958C28.3884 29.9461 28.4842 29.9244 28.6702 29.8951C28.857 29.8727 29.1368 29.8566 29.4949 29.9014C30.2027 29.9783 31.2456 30.3476 32.1689 31.2702C33.1034 32.1753 33.7525 33.7029 33.77 35.4116C33.8035 37.1295 33.2454 38.9593 32.3822 40.703C31.9451 41.5745 31.3911 42.3726 30.8253 43.0818C30.2664 43.8023 29.7096 44.4828 29.1683 45.1221C28.0848 46.3986 27.065 47.508 26.2124 48.4403C25.3919 49.3343 24.7106 50.0764 24.1888 50.645C23.7104 51.1647 23.4411 51.4487 23.4208 51.4319" fill="#17282F"/>
<path d="M15.6141 61.0486C15.6428 61.1444 14.5594 61.555 13.194 61.9655C11.828 62.3754 10.6977 62.6293 10.669 62.5335C10.6403 62.437 11.7231 62.0264 13.0891 61.6165C14.4545 61.2059 15.5855 60.952 15.6141 61.0486Z" fill="#17282F"/>
<path d="M15.2995 60.9586C15.352 61.0517 14.5203 61.5658 13.7229 62.4387C12.9151 63.3039 12.4702 64.1733 12.3716 64.1293C12.2828 64.1006 12.5996 63.1116 13.455 62.1918C14.3035 61.2657 15.2638 60.8719 15.2995 60.9586Z" fill="#17282F"/>
<path d="M50.5379 44.3647C50.4946 44.385 50.1721 43.8401 49.7258 42.9203C49.2796 42.0005 48.7193 40.701 48.201 39.2286C47.6841 37.7556 47.3078 36.3916 47.0805 35.3949C46.8525 34.3975 46.763 33.7708 46.8091 33.7603C46.8616 33.7484 47.0393 34.3541 47.3295 35.3292C47.6191 36.3042 48.0318 37.6457 48.5445 39.1076C49.0593 40.5695 49.5769 41.8732 49.9616 42.8154C50.3449 43.7576 50.5848 44.3409 50.5379 44.3647Z" fill="#17282F"/>
<path d="M43.1455 51.0715C43.177 51.0868 42.9098 51.6905 42.2257 52.4969C41.5487 53.3027 40.4023 54.2645 38.9152 54.9115C37.4247 55.5528 35.9383 55.7298 34.8878 55.6711C33.8316 55.6165 33.2091 55.3983 33.2189 55.3654C33.2315 55.301 33.8659 55.4263 34.8913 55.413C35.9146 55.4053 37.3345 55.194 38.7704 54.5771C40.2029 53.9532 41.329 53.0635 42.0355 52.3235C42.7475 51.5848 43.091 51.0365 43.1455 51.0715" fill="#17282F"/>
<path d="M38.2675 85.6354C38.2675 85.6354 33.4336 86.6838 32.7943 86.1544C32.1557 85.6242 33.719 85.0506 33.719 85.0506C33.719 85.0506 32.332 85.2157 32.2879 84.7149C32.2438 84.2127 32.7943 83.8539 32.7943 83.8539L38.2675 85.6354" fill="#D2E0F9"/>
<path d="M31.7428 76.2588C31.7428 76.2588 38.538 79.3175 38.6213 79.554C38.7052 79.7897 38.9143 84.6327 38.2673 85.635C37.6197 86.6366 28.7163 81.7565 28.7163 81.7565L31.7428 76.2588Z" fill="#D2E0F9"/>
<path d="M36.7664 84.5051C36.765 84.5142 36.6433 84.5065 36.4244 84.4827C36.1229 84.4442 35.8172 84.4044 35.5004 84.3638C34.7226 84.2477 33.6433 84.0742 32.4899 83.7182C31.3302 83.3748 30.3545 82.8509 29.7222 82.3801C29.4578 82.1997 29.2032 82.0255 28.9514 81.8542C28.7709 81.7269 28.6744 81.6534 28.6807 81.645C28.6863 81.6366 28.794 81.6947 28.9829 81.8066C29.2417 81.9647 29.504 82.1248 29.7753 82.292C30.4209 82.7397 31.3855 83.2391 32.5333 83.579C33.6748 83.9308 34.745 84.1204 35.5165 84.2617C35.8312 84.3183 36.1341 84.3729 36.4327 84.426C36.6489 84.4673 36.7685 84.4946 36.7664 84.5051Z" fill="white"/>
<path d="M36.7356 84.6245C36.7461 84.6609 36.0571 84.8861 35.1765 85.0169C34.2952 85.1519 33.5713 85.1393 33.5706 85.1015C33.5692 85.0595 34.2833 85.0064 35.1548 84.8728C36.0256 84.7434 36.7244 84.5832 36.7356 84.6245Z" fill="white"/>
</svg>
