<svg width="424" height="255" viewBox="0 0 424 255" fill="none" xmlns="http://www.w3.org/2000/svg">
<path d="M423.665 254.078C423.665 254.178 328.817 254.26 211.843 254.26C94.8277 254.26 0 254.178 0 254.078C0 253.977 94.8277 253.895 211.843 253.895C328.817 253.895 423.665 253.977 423.665 254.078Z" fill="#17282F"/>
<path d="M104.467 180.936H319.455V13.6473H104.467V180.936Z" fill="white"/>
<path d="M319.455 180.936C319.454 179.684 319.395 114.631 319.305 13.6484L319.455 13.7981C258.277 13.8078 184.23 13.8183 104.485 13.8302H104.467L104.649 13.6484C104.642 73.9469 104.635 130.981 104.63 180.936L104.467 180.772C232.078 180.869 318.018 180.935 319.455 180.936C318.019 180.937 232.078 181.002 104.467 181.1H104.303V180.936C104.297 130.981 104.291 73.9469 104.284 13.6484V13.4658H104.467H104.485C184.23 13.4777 258.277 13.4882 319.455 13.4973H319.606V13.6484C319.515 114.631 319.456 179.685 319.455 180.936" fill="#17282F"/>
<path d="M163.582 166.887C163.481 166.887 163.399 148.702 163.399 126.275C163.399 103.841 163.481 85.6599 163.582 85.6599C163.683 85.6599 163.764 103.841 163.764 126.275C163.764 148.702 163.683 166.887 163.582 166.887Z" fill="#17282F"/>
<path d="M130.868 166.887C130.768 166.887 130.686 143.639 130.686 114.969C130.686 86.2887 130.768 63.0459 130.868 63.0459C130.969 63.0459 131.05 86.2887 131.05 114.969C131.05 143.639 130.969 166.887 130.868 166.887" fill="#17282F"/>
<path d="M164.343 85.6592C164.343 86.0803 164.002 86.4209 163.582 86.4209C163.161 86.4209 162.819 86.0803 162.819 85.6592C162.819 85.2388 163.161 84.8975 163.582 84.8975C164.002 84.8975 164.343 85.2388 164.343 85.6592Z" fill="#17282F"/>
<path d="M294.283 63.0449C294.283 63.466 293.942 63.8066 293.521 63.8066C293.1 63.8066 292.76 63.466 292.76 63.0449C292.76 62.6239 293.1 62.2832 293.521 62.2832C293.942 62.2832 294.283 62.6239 294.283 63.0449Z" fill="#17282F"/>
<path d="M131.63 63.8079C131.63 64.229 131.289 64.5703 130.868 64.5703C130.447 64.5703 130.106 64.229 130.106 63.8079C130.106 63.3868 130.447 63.0462 130.868 63.0462C131.289 63.0462 131.63 63.3868 131.63 63.8079Z" fill="#17282F"/>
<path d="M167.592 34.5117H130.106V32.426H167.592V34.5117Z" fill="#17282F"/>
<path d="M148.63 39.3936H130.106V37.3078H148.63V39.3936Z" fill="#17282F"/>
<path d="M316.303 -4.67408e-06H107.362C105.622 -4.67408e-06 104.21 1.4108 104.21 3.15174V13.6484H319.455V3.15174C319.455 1.4108 318.044 -4.67408e-06 316.303 -4.67408e-06Z" fill="#17282F"/>
<path d="M115.366 7.08654C115.366 7.8979 114.709 8.55469 113.898 8.55469C113.087 8.55469 112.43 7.8979 112.43 7.08654C112.43 6.27657 113.087 5.61908 113.898 5.61908C114.709 5.61908 115.366 6.27657 115.366 7.08654Z" fill="white"/>
<path d="M121.776 7.08654C121.776 7.8979 121.118 8.55469 120.308 8.55469C119.497 8.55469 118.839 7.8979 118.839 7.08654C118.839 6.27657 119.497 5.61908 120.308 5.61908C121.118 5.61908 121.776 6.27657 121.776 7.08654Z" fill="white"/>
<path d="M128.185 7.08654C128.185 7.8979 127.527 8.55469 126.717 8.55469C125.906 8.55469 125.248 7.8979 125.248 7.08654C125.248 6.27657 125.906 5.61908 126.717 5.61908C127.527 5.61908 128.185 6.27657 128.185 7.08654Z" fill="white"/>
<path d="M107.579 136.84H23.8199C22.5721 136.84 21.5603 135.828 21.5603 134.581V114.349C21.5603 113.101 22.5721 112.089 23.8199 112.089H107.579C108.827 112.089 109.839 113.101 109.839 114.349V134.581C109.839 135.828 108.827 136.84 107.579 136.84Z" fill="#82AEFE"/>
<path d="M40.168 128.591C38.3099 130.909 34.9244 131.281 32.6066 129.423C30.2891 127.564 29.9167 124.179 31.7754 121.861C33.6336 119.544 37.0192 119.172 39.337 121.03C41.6544 122.888 42.0268 126.274 40.168 128.591" fill="white"/>
<path d="M38.9954 123.401C39.0656 123.473 37.7623 124.858 36.0847 126.493C35.8401 126.73 35.6036 126.959 35.374 127.18L35.247 127.303L35.1252 127.178C33.8167 125.843 32.8875 124.811 32.9481 124.75C33.009 124.69 34.0399 125.619 35.3757 126.929L35.1268 126.926C35.3538 126.703 35.5883 126.472 35.8304 126.233C37.5079 124.598 38.9252 123.329 38.9954 123.401" fill="#17282F"/>
<path d="M101.223 122.65C101.223 122.751 90.0009 122.833 76.1615 122.833C62.3171 122.833 51.0979 122.751 51.0979 122.65C51.0979 122.55 62.3171 122.469 76.1615 122.469C90.0009 122.469 101.223 122.55 101.223 122.65Z" fill="#17282F"/>
<path d="M80.6638 127.545C80.6638 127.646 74.1757 127.728 66.1752 127.728C58.1711 127.728 51.6853 127.646 51.6853 127.545C51.6853 127.445 58.1711 127.364 66.1752 127.364C74.1757 127.364 80.6638 127.445 80.6638 127.545Z" fill="#17282F"/>
<path d="M132.819 88.5957H49.4482C48.4375 88.5957 47.6184 87.7759 47.6184 86.7659V54.2826C47.6184 53.2719 48.4375 52.4529 49.4482 52.4529H132.819C133.83 52.4529 134.649 53.2719 134.649 54.2826V86.7659C134.649 87.7759 133.83 88.5957 132.819 88.5957Z" fill="#D5E3FF"/>
<path d="M65.6995 63.8777C65.6995 66.1181 63.8833 67.9346 61.6424 67.9346C59.4017 67.9346 57.585 66.1181 57.585 63.8777C57.585 61.6367 59.4017 59.8202 61.6424 59.8202C63.8833 59.8202 65.6995 61.6367 65.6995 63.8777Z" fill="#3478F6"/>
<path d="M98.0263 62.6445H69.7566V61.0749H98.0263V62.6445Z" fill="#3478F6"/>
<path d="M124.75 66.21H69.7566V64.6404H124.75V66.21" fill="white"/>
<path d="M65.6995 76.3504C65.6995 78.5907 63.8833 80.4072 61.6424 80.4072C59.4017 80.4072 57.585 78.5907 57.585 76.3504C57.585 74.1093 59.4017 72.2929 61.6424 72.2929C63.8833 72.2929 65.6995 74.1093 65.6995 76.3504Z" fill="#3478F6"/>
<path d="M84.1925 75.1172H69.7566V73.5476H84.1925V75.1172Z" fill="#3478F6"/>
<path d="M124.75 78.6836H69.7566V77.114H124.75V78.6836" fill="white"/>
<path d="M172.475 195.231H65.7237C64.1949 195.231 62.9556 193.991 62.9556 192.463V150.272C62.9556 148.742 64.1949 147.504 65.7237 147.504H172.475C174.004 147.504 175.242 148.742 175.242 150.272V192.463C175.242 193.991 174.004 195.231 172.475 195.231Z" fill="#D5E3FF"/>
<path d="M83.4979 170.568L83.4349 160.887C80.584 160.904 77.677 162.031 75.4479 164.001C72.8221 166.322 71.1407 169.811 71.5988 174.027C71.6492 174.489 71.7226 174.956 71.8254 175.434L71.8317 175.468H71.8331L83.4979 172.843V170.568" fill="#3478F6"/>
<path d="M95.5202 167.587C93.8898 164.183 90.6786 161.455 86.1056 160.997C85.9832 160.984 85.8601 160.973 85.7363 160.964C85.6572 160.958 85.5803 160.951 85.5013 160.946C85.2704 160.934 85.0361 160.927 84.7983 160.925L84.7661 160.925H84.7647L84.7354 160.924V160.925L84.7983 170.607L84.813 172.882L96.482 175.427L96.496 175.431C96.6743 174.613 96.7597 173.769 96.7555 172.92C96.7457 171.107 96.3246 169.266 95.5202 167.587" fill="#3478F6"/>
<path d="M84.1232 174.052L72.4578 176.677C73.6545 182.017 78.4213 186.009 84.1232 186.009C89.8532 186.009 94.6388 181.979 95.8062 176.598L84.1379 174.052L84.1232 174.052" fill="#3478F6"/>
<path d="M84.1232 186.009C78.4213 186.009 73.6545 182.017 72.4578 176.677L84.1232 174.052L84.1379 174.052L95.8062 176.598C94.6388 181.979 89.8532 186.009 84.1232 186.009Z" fill="#85A7E7"/>
<path d="M163.838 166.467H104.57V163.782H163.838V166.467Z" fill="white"/>
<path d="M163.838 173.546H104.57V170.861H163.838V173.546Z" fill="white"/>
<path d="M136.602 181.372H104.57V178.688H136.602V181.372Z" fill="white"/>
<path d="M305.046 226.39H199.728C196.479 226.39 193.845 223.755 193.845 220.507V119.543C193.845 116.294 196.479 113.66 199.728 113.66H305.046C308.295 113.66 310.929 116.294 310.929 119.543V220.507C310.929 223.755 308.295 226.39 305.046 226.39" fill="#82AEFE"/>
<path d="M221.953 211.602C221.953 214.589 219.439 217.01 216.337 217.01C213.235 217.01 210.721 214.589 210.721 211.602C210.721 208.616 213.235 206.196 216.337 206.196C219.439 206.196 221.953 208.616 221.953 211.602Z" fill="white"/>
<path d="M296.255 210.005H230.285V207.981H296.255V210.005Z" fill="white"/>
<path d="M257.677 215.059H230.285V213.035H257.677V215.059Z" fill="white"/>
<path d="M347.525 90.5742H276.692C274.786 90.5742 273.24 89.0284 273.24 87.1217V29.5511C273.24 27.6437 274.786 26.0979 276.692 26.0979H347.525C349.432 26.0979 350.979 27.6437 350.979 29.5511V87.1217C350.979 89.0284 349.432 90.5742 347.525 90.5742" fill="#82AEFE"/>
<path d="M261.199 43.2139H185.981C184.733 43.2139 183.722 42.2025 183.722 40.9539V23.1172C183.722 21.8693 184.733 20.8579 185.981 20.8579H261.199C262.447 20.8579 263.458 21.8693 263.458 23.1172V40.9539C263.458 42.2025 262.447 43.2139 261.199 43.2139Z" fill="#3478F6"/>
<path d="M200.529 35.7645C198.85 37.858 195.792 38.1944 193.699 36.5157C191.605 34.837 191.27 31.779 192.948 29.6856C194.626 27.5921 197.685 27.2564 199.778 28.935C201.871 30.613 202.208 33.6711 200.529 35.7645" fill="white"/>
<path d="M196.748 27.8827C196.569 27.8827 196.39 27.8931 196.209 27.9127C194.924 28.054 193.77 28.687 192.962 29.6963C192.152 30.705 191.785 31.9689 191.927 33.2537C192.068 34.5393 192.701 35.6928 193.71 36.5013C194.719 37.3106 195.982 37.6792 197.268 37.5365C198.553 37.3952 199.707 36.7622 200.515 35.7529C201.324 34.7443 201.692 33.4811 201.55 32.1955C201.41 30.9106 200.776 29.7565 199.767 28.9479C198.899 28.252 197.844 27.8827 196.748 27.8827V27.8827ZM196.729 37.6016C195.625 37.6016 194.562 37.2294 193.688 36.5286C192.672 35.7137 192.034 34.5526 191.892 33.2573C191.75 31.9626 192.12 30.6903 192.934 29.674C193.749 28.6583 194.911 28.0204 196.206 27.8778C196.387 27.8582 196.568 27.8477 196.748 27.8477C197.852 27.8477 198.915 28.2205 199.789 28.9206C200.805 29.7355 201.443 30.8966 201.585 32.192C201.728 33.4867 201.357 34.759 200.542 35.7753C199.728 36.7909 198.566 37.4295 197.272 37.5715C197.09 37.5918 196.909 37.6016 196.729 37.6016" fill="#17282F"/>
<path d="M199.47 31.0757C199.54 31.147 198.369 32.404 196.853 33.8819C196.633 34.0945 196.419 34.3002 196.211 34.5009L196.083 34.624L195.962 34.4995C194.781 33.2916 193.947 32.3557 194.008 32.2948C194.068 32.234 195.004 33.0677 196.213 34.2491L195.964 34.247C196.17 34.0442 196.38 33.8364 196.599 33.621C198.114 32.1438 199.4 31.003 199.47 31.0757" fill="#3478F6"/>
<path d="M255.676 30.3982C255.676 30.499 245.541 30.5801 233.04 30.5801C220.535 30.5801 210.401 30.499 210.401 30.3982C210.401 30.2975 220.535 30.2164 233.04 30.2164C245.541 30.2164 255.676 30.2975 255.676 30.3982Z" fill="white"/>
<path d="M237.106 34.8191C237.106 34.9199 231.246 35.001 224.02 35.001C216.79 35.001 210.931 34.9199 210.931 34.8191C210.931 34.7184 216.79 34.6373 224.02 34.6373C231.246 34.6373 237.106 34.7184 237.106 34.8191Z" fill="white"/>
<path d="M186.814 67.8182C188.067 67.7335 189.32 67.6489 190.572 67.5642C190.641 67.56 190.712 67.5558 190.777 67.5782C190.977 67.6496 191.008 67.9217 190.961 68.128C190.815 68.768 190.265 69.2541 189.656 69.4996C189.046 69.7445 188.378 69.7871 187.722 69.827C187.122 69.8641 186.522 69.9004 185.921 69.9375" fill="#D2E0F9"/>
<path d="M129.008 136.395C128.969 136.395 128.932 136.24 128.925 136.047C128.92 135.853 128.948 135.696 128.988 135.695C129.028 135.694 129.065 135.849 129.071 136.043C129.077 136.235 129.049 136.393 129.008 136.395Z" fill="#3478F6"/>
<path d="M129.05 137.793C129.009 137.794 128.972 137.638 128.967 137.445C128.961 137.252 128.989 137.095 129.029 137.094C129.07 137.093 129.107 137.247 129.112 137.441C129.118 137.634 129.09 137.792 129.05 137.793Z" fill="#3478F6"/>
<path d="M129.091 139.19C129.051 139.192 129.013 139.036 129.007 138.843C129.002 138.65 129.03 138.492 129.07 138.491C129.11 138.49 129.148 138.646 129.153 138.839C129.159 139.032 129.13 139.189 129.091 139.19Z" fill="#3478F6"/>
<path d="M129.132 140.589C129.091 140.59 129.054 140.434 129.049 140.241C129.043 140.048 129.071 139.891 129.111 139.889C129.151 139.889 129.188 140.044 129.194 140.237C129.2 140.43 129.172 140.587 129.132 140.589Z" fill="#3478F6"/>
<path d="M132.996 176.669C132.956 176.674 132.902 176.524 132.875 176.333C132.848 176.143 132.858 175.983 132.898 175.978C132.937 175.973 132.992 176.123 133.019 176.313C133.046 176.504 133.035 176.662 132.996 176.669Z" fill="#3478F6"/>
<path d="M135.908 247.524C135.868 247.526 135.833 247.456 135.83 247.37C135.827 247.283 135.858 247.211 135.898 247.21C135.938 247.209 135.973 247.278 135.976 247.365C135.979 247.452 135.948 247.523 135.908 247.524Z" fill="#3478F6"/>
<path d="M141.818 109.504C141.818 109.504 141.575 109.53 141.11 109.53C140.647 109.524 139.95 109.52 139.089 109.285C138.251 109.06 137.175 108.496 136.619 107.316C136.346 106.743 136.285 105.982 136.625 105.321C136.943 104.682 137.626 104.074 138.481 104.128C139.334 104.174 140.036 104.919 140.245 105.775C140.469 106.659 140.134 107.616 139.561 108.357C138.409 109.868 136.326 110.734 134.217 110.554C133.164 110.475 132.091 110.138 131.169 109.516C130.254 108.897 129.454 107.989 129.152 106.847C129.008 106.281 129.006 105.657 129.247 105.092C129.495 104.533 129.98 104.098 130.55 103.872C131.11 103.639 131.836 103.667 132.328 104.096C132.834 104.503 133.019 105.195 132.955 105.808C132.898 106.43 132.677 107.022 132.345 107.534C132.006 108.045 131.571 108.467 131.105 108.838C130.154 109.565 129.028 110.007 127.885 110.158C125.609 110.5 123.234 109.66 121.918 107.961C121.597 107.536 121.351 107.049 121.258 106.529C121.164 106.008 121.231 105.469 121.45 105.001C121.664 104.531 122.071 104.151 122.556 103.996C123.044 103.833 123.566 103.933 123.999 104.125C124.86 104.538 125.495 105.393 125.493 106.305C125.512 107.205 125.081 108.01 124.534 108.587C123.421 109.779 121.872 110.145 120.628 110.085C119.356 110.03 118.318 109.585 117.578 109.103C116.829 108.62 116.37 108.084 116.106 107.703C115.838 107.321 115.741 107.094 115.741 107.094C115.755 107.086 115.864 107.307 116.142 107.677C116.414 108.046 116.879 108.566 117.624 109.031C118.359 109.495 119.387 109.921 120.633 109.963C121.853 110.011 123.354 109.639 124.421 108.482C124.946 107.921 125.348 107.151 125.324 106.308C125.325 105.471 124.727 104.67 123.924 104.29C123.519 104.113 123.044 104.027 122.613 104.175C122.184 104.314 121.819 104.651 121.625 105.083C121.425 105.511 121.362 106.013 121.452 106.493C121.539 106.976 121.771 107.435 122.078 107.839C123.344 109.466 125.644 110.281 127.856 109.946C128.964 109.799 130.056 109.367 130.972 108.666C131.42 108.31 131.844 107.897 132.162 107.416C132.476 106.932 132.684 106.367 132.737 105.79C132.795 105.217 132.626 104.616 132.188 104.264C131.765 103.895 131.141 103.865 130.629 104.075C130.112 104.279 129.665 104.68 129.444 105.18C129.228 105.683 129.224 106.266 129.359 106.793C129.64 107.868 130.405 108.746 131.285 109.343C132.173 109.944 133.212 110.274 134.233 110.353C136.281 110.534 138.302 109.697 139.417 108.247C139.972 107.537 140.285 106.63 140.082 105.815C139.889 105.014 139.237 104.324 138.471 104.282C137.702 104.225 137.053 104.781 136.749 105.384C136.425 106.003 136.475 106.711 136.73 107.267C137.253 108.403 138.29 108.971 139.112 109.204C139.956 109.447 140.65 109.466 141.111 109.486C141.325 109.49 141.498 109.494 141.639 109.497C141.757 109.498 141.818 109.501 141.818 109.504" fill="white"/>
<path d="M139.075 122.784C139.075 122.784 138.96 122.872 138.729 123.023C138.499 123.172 138.159 123.396 137.713 123.669C137.266 123.939 136.709 124.269 135.997 124.513C135.288 124.76 134.413 124.848 133.477 124.737C132.559 124.627 131.471 124.403 130.638 123.606C130.24 123.209 129.921 122.675 129.853 122.061C129.77 121.452 130.035 120.775 130.562 120.384C130.819 120.187 131.138 120.047 131.482 120.034C131.824 120.018 132.172 120.145 132.436 120.37C132.964 120.826 133.184 121.582 133.035 122.275C132.883 122.97 132.424 123.559 131.887 124.013C131.342 124.466 130.714 124.829 130.037 125.085C128.68 125.597 127.206 125.67 125.88 125.344C124.572 125.011 123.315 124.348 122.646 123.234C122.329 122.689 122.192 121.992 122.473 121.416C122.746 120.862 123.279 120.463 123.865 120.399C124.158 120.368 124.465 120.452 124.687 120.636C124.913 120.813 125.055 121.072 125.122 121.331C125.259 121.859 125.103 122.399 124.826 122.791C124.253 123.577 123.445 123.974 122.751 124.231C122.04 124.48 121.385 124.536 120.861 124.521C120.333 124.507 119.93 124.417 119.666 124.339C119.401 124.262 119.27 124.198 119.27 124.198C119.276 124.161 119.82 124.423 120.862 124.436C121.378 124.438 122.019 124.369 122.71 124.116C123.382 123.857 124.17 123.449 124.698 122.704C124.953 122.333 125.085 121.846 124.959 121.373C124.852 120.905 124.403 120.507 123.883 120.579C123.376 120.635 122.883 121.004 122.646 121.499C122.405 121.997 122.522 122.628 122.82 123.133C123.444 124.168 124.661 124.819 125.93 125.135C127.215 125.448 128.646 125.376 129.959 124.881C130.614 124.632 131.223 124.282 131.746 123.847C132.262 123.412 132.688 122.86 132.825 122.23C132.963 121.614 132.759 120.923 132.301 120.529C131.842 120.114 131.136 120.174 130.684 120.545C130.209 120.897 129.974 121.485 130.044 122.041C130.101 122.599 130.393 123.102 130.766 123.478C131.539 124.231 132.591 124.468 133.495 124.583C134.413 124.702 135.262 124.627 135.959 124.396C136.658 124.169 137.218 123.854 137.67 123.596C138.092 123.347 138.435 123.144 138.706 122.985C138.944 122.847 139.075 122.784 139.075 122.784" fill="white"/>
<path d="M149.608 85.4744C149.608 85.4744 149.928 85.601 150.385 86.0123C150.827 86.4201 151.406 87.1797 151.537 88.2918C151.611 88.8402 151.539 89.4599 151.32 90.0733C151.088 90.6846 150.673 91.2722 150.104 91.7359C149.533 92.1941 148.817 92.5417 148.022 92.6543C147.627 92.711 147.213 92.7187 146.805 92.6403C146.397 92.5662 145.965 92.4011 145.688 92.0192C145.551 91.8283 145.507 91.5701 145.568 91.3428C145.631 91.112 145.788 90.9322 145.96 90.8021C146.313 90.5378 146.745 90.4566 147.147 90.4538C147.965 90.4587 148.716 90.8371 149.22 91.3764C149.738 91.9185 149.974 92.6249 150.024 93.2712C150.07 93.9245 149.938 94.5351 149.713 95.0394C149.25 96.0564 148.503 96.6251 147.993 96.9406C147.732 97.0986 147.516 97.198 147.368 97.2588C147.219 97.3183 147.138 97.3427 147.136 97.3358C147.126 97.3169 147.445 97.2 147.948 96.8685C148.435 96.5377 149.146 95.9613 149.572 94.9772C149.778 94.4911 149.895 93.9049 149.843 93.2859C149.788 92.6725 149.558 92.0129 149.074 91.5149C148.601 91.0162 147.896 90.6693 147.147 90.6679C146.776 90.6714 146.389 90.7497 146.091 90.9763C145.782 91.184 145.648 91.5946 145.869 91.8975C146.081 92.1962 146.472 92.3626 146.843 92.4263C147.226 92.5004 147.617 92.4948 147.992 92.4424C148.745 92.3396 149.43 92.0122 149.977 91.5792C151.099 90.707 151.505 89.3536 151.384 88.3086C151.278 87.2398 150.74 86.4907 150.325 86.0739C149.898 85.6521 149.594 85.4954 149.608 85.4744" fill="white"/>
<path d="M159.826 82.9878C159.826 82.9878 159.994 83.0983 160.168 83.4123C160.247 83.5711 160.317 83.7949 160.285 84.053C160.258 84.3111 160.15 84.586 160.001 84.8616C159.709 85.41 159.302 86.0514 158.724 86.6445C158.164 87.2481 157.497 87.856 157.003 88.6478C155.986 90.2278 155.764 91.9925 155.854 93.2033C155.944 94.4322 156.262 95.1478 156.216 95.1611C156.204 95.1653 156.122 94.9911 156.004 94.6624C155.895 94.3315 155.763 93.8398 155.7 93.2166C155.568 91.9841 155.77 90.1614 156.819 88.5295C157.333 87.7091 158.019 87.0936 158.578 86.5067C159.156 85.929 159.558 85.3211 159.866 84.7875C160.019 84.5231 160.128 84.2699 160.164 84.0384C160.204 83.8054 160.153 83.6026 160.091 83.448C159.95 83.1417 159.807 83.0018 159.826 82.9878" fill="white"/>
<path d="M167.544 91.2483C167.544 91.2483 167.199 91.4526 166.499 91.4644C165.827 91.477 164.711 91.1924 163.985 90.1278C163.283 89.0737 163.179 87.4195 163.845 85.9087C164.172 85.1568 164.665 84.4091 165.393 83.86C166.106 83.3081 167.119 83.0319 168.065 83.3109C168.532 83.448 168.964 83.7292 169.239 84.1286C169.514 84.5224 169.65 84.998 169.626 85.4639C169.606 85.9276 169.396 86.3885 169.043 86.6739C168.701 86.9761 168.251 87.0999 167.834 87.1167C166.99 87.1418 166.207 86.797 165.675 86.2822C165.13 85.7779 164.81 85.1421 164.629 84.5497C164.277 83.3396 164.516 82.2883 164.804 81.6707C165.102 81.0412 165.401 80.7859 165.401 80.7859C165.425 80.8034 165.149 81.079 164.882 81.7043C164.624 82.3184 164.418 83.3438 164.776 84.5049C164.961 85.0735 165.276 85.6772 165.799 86.1493C166.302 86.6291 167.046 86.9446 167.826 86.9159C168.21 86.897 168.611 86.7816 168.907 86.5158C169.216 86.2626 169.394 85.8674 169.413 85.4526C169.466 84.6119 168.884 83.7467 168.002 83.5208C167.134 83.2648 166.195 83.5131 165.52 84.0314C164.832 84.5462 164.35 85.2652 164.029 85.9891C163.376 87.444 163.464 89.0332 164.115 90.0439C164.784 91.0623 165.847 91.3665 166.5 91.3798C167.18 91.3945 167.537 91.2197 167.544 91.2483" fill="white"/>
<path d="M173.076 77.1127C173.081 77.1008 173.236 77.156 173.502 77.2875C173.769 77.4197 174.143 77.6393 174.555 77.9821C174.966 78.3213 175.401 78.8053 175.757 79.4202C176.113 80.0343 176.388 80.7722 176.548 81.5724C176.874 83.1916 176.522 84.7031 176.081 85.6642C175.861 86.151 175.63 86.5168 175.453 86.756C175.275 86.9938 175.162 87.1134 175.152 87.1051C175.115 87.0806 175.543 86.5728 175.939 85.6033C176.334 84.6472 176.649 83.1797 176.334 81.615C176.178 80.838 175.916 80.1175 175.581 79.5195C175.247 78.9208 174.841 78.4437 174.453 78.0982C173.671 77.4057 173.051 77.1539 173.076 77.1127" fill="white"/>
<path d="M184.537 81.3352C184.537 81.3352 184.239 81.4855 183.646 81.5429C183.351 81.5653 182.981 81.5618 182.569 81.445C182.157 81.3345 181.721 81.0715 181.359 80.6777C180.628 79.9055 180.093 78.6157 180.289 77.1937C180.391 76.4957 180.751 75.75 181.419 75.3122C181.745 75.0925 182.138 74.9443 182.552 74.9324C182.967 74.9142 183.393 75.0639 183.72 75.3325C184.049 75.5982 184.289 75.9808 184.341 76.4026C184.396 76.8272 184.237 77.2448 183.987 77.5525C183.476 78.1967 182.63 78.3744 181.935 78.303C180.498 78.1603 179.4 77.2762 178.85 76.3739C178.564 75.927 178.401 75.4353 178.439 75.0023C178.467 74.5707 178.614 74.2294 178.73 73.9608C178.85 73.6915 178.953 73.4887 179.022 73.3509C179.092 73.2131 179.131 73.1418 179.138 73.1453C179.145 73.1481 179.119 73.225 179.062 73.3691C178.988 73.5523 178.904 73.7573 178.808 73.9937C178.705 74.2644 178.575 74.6029 178.561 75.0079C178.538 75.4136 178.696 75.8619 178.981 76.2914C179.525 77.1489 180.593 77.9792 181.952 78.1016C182.612 78.1631 183.371 77.9904 183.819 77.4189C184.041 77.1447 184.173 76.7845 184.125 76.4292C184.081 76.0739 183.873 75.7374 183.582 75.5024C182.995 74.9967 182.124 75.0779 181.539 75.4898C180.927 75.8871 180.592 76.5649 180.488 77.2252C180.29 78.5695 180.787 79.8236 181.473 80.5721C182.156 81.375 183.081 81.4849 183.641 81.4583C184.221 81.4282 184.531 81.3121 184.537 81.3352" fill="white"/>
<path d="M139.168 115.949C139.168 115.949 138.974 116.201 138.514 116.529C138.058 116.857 137.33 117.274 136.341 117.508C135.358 117.758 134.139 117.835 132.81 117.713C131.476 117.595 130.051 117.231 128.568 116.869C127.084 116.503 125.658 116.198 124.342 116.144C123.029 116.086 121.841 116.289 120.91 116.629C119.972 116.961 119.306 117.441 118.892 117.807C118.482 118.185 118.301 118.44 118.282 118.424C118.282 118.424 118.436 118.149 118.834 117.746C119.236 117.354 119.904 116.842 120.856 116.484C121.801 116.118 123.01 115.894 124.35 115.942C125.69 115.986 127.134 116.291 128.62 116.656C130.107 117.02 131.517 117.386 132.83 117.513C134.14 117.644 135.337 117.583 136.305 117.357C138.273 116.913 139.139 115.884 139.168 115.949" fill="white"/>
<path d="M109.548 94.5651C109.536 94.5938 109.952 94.1783 110.85 94.3091C111.287 94.377 111.784 94.6134 112.287 94.9743C112.795 95.3345 113.302 95.8059 113.918 96.2802C114.517 96.7775 115.096 97.4014 115.805 97.9526C116.517 98.4932 117.395 98.9241 118.389 99.1032C120.38 99.4907 122.653 99.0402 124.82 98.1757C126.999 97.3056 129.006 96.2501 131 95.7129C131.99 95.4422 132.967 95.2793 133.888 95.3002C134.806 95.324 135.655 95.4905 136.391 95.7479C137.871 96.2627 138.862 97.1587 139.317 97.898C139.443 98.0764 139.53 98.2484 139.6 98.4016C139.679 98.5499 139.73 98.6814 139.76 98.7926C139.832 99.0101 139.865 99.1248 139.858 99.1269C139.826 99.1409 139.729 98.6555 139.246 97.9456C138.778 97.2349 137.796 96.3802 136.34 95.8941C135.616 95.6514 134.783 95.4968 133.885 95.4814C132.987 95.4688 132.03 95.6339 131.054 95.9067C129.091 96.4466 127.096 97.5007 124.9 98.3785C122.711 99.2521 120.398 99.7096 118.35 99.3011C117.33 99.1116 116.42 98.6583 115.694 98.096C114.973 97.5245 114.402 96.895 113.818 96.3977C113.215 95.9213 112.703 95.4317 112.215 95.0729C111.728 94.7099 111.253 94.4707 110.835 94.3923C109.98 94.2392 109.552 94.6162 109.548 94.5651" fill="white"/>
<path d="M141.329 86.3826C141.329 86.3826 141.387 86.5721 141.431 86.9463C141.478 87.3191 141.485 87.8857 141.328 88.5873C141.164 89.2832 140.825 90.1205 140.169 90.9115C139.516 91.69 138.503 92.4098 137.216 92.6259C135.947 92.8455 134.447 92.5965 133.184 91.7341C132.566 91.2955 131.971 90.7416 131.634 89.9715C131.475 89.591 131.476 89.0818 131.764 88.7257C132.038 88.3669 132.478 88.1837 132.916 88.1396C133.354 88.0969 133.838 88.2193 134.171 88.5565C134.498 88.881 134.679 89.3371 134.712 89.7952C134.792 90.7199 134.317 91.6572 133.57 92.2293C132.829 92.8196 131.918 93.1442 131.006 93.4016C130.09 93.6576 129.118 93.8311 128.127 93.7653C127.14 93.7024 126.169 93.3652 125.409 92.7532C124.644 92.1538 124.144 91.2165 124.145 90.261C124.12 89.3224 124.569 88.3383 125.417 87.9109C126.242 87.4968 127.287 87.5912 127.958 88.1914C128.65 88.8083 128.683 89.8365 128.36 90.5779C128.044 91.3557 127.375 91.8901 126.691 92.2118C125.297 92.8476 123.83 92.9057 122.565 92.7455C119.994 92.3678 118.229 91.0277 117.29 89.9771C116.812 89.4434 116.506 88.9761 116.32 88.6502C116.142 88.318 116.06 88.1396 116.06 88.1396C116.096 88.1144 116.386 88.8754 117.352 89.919C118.301 90.9416 120.058 92.2419 122.585 92.5916C123.827 92.7413 125.27 92.6707 126.613 92.0488C127.27 91.7341 127.894 91.227 128.182 90.5044C128.482 89.8092 128.436 88.8789 127.823 88.341C127.229 87.806 126.256 87.7164 125.511 88.0969C124.754 88.4781 124.334 89.3804 124.359 90.2576C124.361 91.1501 124.821 92.0146 125.546 92.5839C126.265 93.1631 127.193 93.4869 128.143 93.5471C129.097 93.6107 130.045 93.4443 130.947 93.1925C131.848 92.9393 132.735 92.6203 133.437 92.0621C134.144 91.5208 134.573 90.6632 134.503 89.8113C134.475 89.3923 134.312 88.988 134.026 88.7013C133.746 88.4152 133.328 88.3033 132.933 88.3396C132.542 88.3767 132.148 88.5453 131.921 88.846C131.68 89.1405 131.673 89.5532 131.814 89.9022C132.115 90.6059 132.695 91.1654 133.287 91.5844C134.502 92.4245 135.959 92.677 137.19 92.4727C138.439 92.2741 139.428 91.5865 140.076 90.8325C140.726 90.0666 141.071 89.2496 141.245 88.5677C141.571 87.1765 141.276 86.3791 141.329 86.3826" fill="white"/>
<path d="M105.636 98.6048C105.634 98.5978 105.73 98.5587 105.914 98.4908C106.099 98.4265 106.373 98.3313 106.734 98.2355C107.44 98.0439 108.592 97.8515 109.866 98.3621C110.496 98.6055 111.14 99.0147 111.668 99.6176C112.196 100.211 112.595 101.03 112.62 101.944C112.638 102.848 112.282 103.814 111.565 104.503C110.852 105.189 109.798 105.562 108.752 105.433C108.23 105.368 107.722 105.161 107.34 104.8C106.951 104.448 106.754 103.877 106.886 103.371C107.01 102.864 107.359 102.475 107.735 102.191C108.117 101.903 108.56 101.724 108.994 101.619C110.762 101.182 112.46 101.81 113.43 102.738C114.423 103.677 114.786 104.778 114.9 105.508C115.009 106.253 114.915 106.666 114.915 106.666C114.889 106.666 114.949 106.251 114.815 105.522C114.679 104.81 114.3 103.744 113.325 102.852C112.378 101.97 110.732 101.385 109.043 101.814C108.625 101.919 108.216 102.087 107.861 102.358C107.51 102.624 107.198 102.985 107.095 103.42C106.985 103.853 107.146 104.329 107.491 104.643C107.828 104.964 108.298 105.157 108.78 105.216C109.755 105.338 110.75 104.988 111.417 104.348C112.089 103.707 112.431 102.797 112.42 101.948C112.401 101.091 112.032 100.311 111.531 99.7358C111.031 99.1532 110.414 98.7496 109.809 98.5062C108.581 97.9921 107.464 98.153 106.755 98.3181C106.393 98.3999 106.116 98.4817 105.927 98.5328C105.739 98.5873 105.639 98.6118 105.636 98.6048" fill="white"/>
</svg>
