<svg width="217" height="326" viewBox="0 0 217 326" fill="none" xmlns="http://www.w3.org/2000/svg">
<path d="M64.4334 83.3299C65.2156 84.188 66.3505 84.512 67.4434 84.6238C68.5352 84.7355 69.6455 84.673 70.721 84.9149C71.7964 85.1569 72.878 85.7761 73.3752 86.8659C73.8775 87.9669 73.6551 89.3828 72.9477 90.3331C72.2383 91.2835 71.1126 91.7807 70.0043 91.792L64.4334 89.4771V83.3299" fill="white"/>
<path d="M70.0124 68.4408C69.83 68.9903 70.0124 91.3654 70.0124 91.3654L82.8163 124.85C83.5411 126.746 82.1406 128.78 80.1097 128.78H44.3167C42.1935 128.78 40.791 126.571 41.6963 124.651L57.5409 90.9994V68.4408H70.0124" fill="#B8D0FD"/>
<path d="M70.0127 68.4408C70.0178 68.4367 69.9532 68.4336 69.8199 68.4295C69.6641 68.4264 69.4663 68.4223 69.2151 68.4172C68.6481 68.41 67.8495 68.3998 66.8181 68.3864C64.6611 68.367 61.5332 68.3393 57.5411 68.3044L57.4068 68.3034V68.4408C57.3873 74.186 57.3617 81.8905 57.3299 90.9994L57.3504 90.9092C54.1835 97.6048 50.5891 105.207 46.6944 113.443C45.7225 115.504 44.7301 117.605 43.7233 119.74C43.2189 120.808 42.7115 121.885 42.1999 122.97C41.9436 123.515 41.6873 124.062 41.4299 124.612C41.1665 125.213 41.0845 125.904 41.228 126.554C41.5007 127.857 42.6776 128.943 44.0412 129.028C45.3196 129.063 46.5314 129.039 47.7914 129.047C50.2908 129.047 52.821 129.048 55.3758 129.048C61.9771 129.046 68.4103 129.044 74.5994 129.042C76.1465 129.041 77.6781 129.04 79.1934 129.038C79.5789 129.031 79.9305 129.052 80.3447 129.022C80.7507 128.992 81.1577 128.892 81.5196 128.702C82.2526 128.338 82.8196 127.683 83.081 126.922C83.3588 126.169 83.2942 125.29 82.9877 124.594C82.7252 123.912 82.4648 123.233 82.2065 122.559C81.6888 121.211 81.1782 119.88 80.6748 118.569C76.6396 108.087 73.0688 98.8084 70.1798 91.3029L70.1911 91.3644C70.1224 84.2074 70.067 78.4827 70.0291 74.5192C69.9973 70.5814 70.0127 68.4408 70.0127 68.4408C70.0127 68.4408 69.9819 68.5812 69.9563 68.8345C69.944 69.1205 69.9266 69.507 69.905 70.0022C69.8722 71.0294 69.8517 72.5498 69.8353 74.5192C69.8046 78.457 69.8035 84.189 69.8363 91.3675V91.3992L69.8466 91.429C72.7018 98.9478 76.2326 108.242 80.2207 118.742C80.721 120.055 81.2284 121.387 81.7421 122.737C81.9994 123.411 82.2578 124.09 82.5182 124.774C82.796 125.417 82.8319 126.111 82.6043 126.753C82.3828 127.393 81.904 127.944 81.2899 128.245C80.684 128.584 79.9674 128.519 79.1934 128.524C77.6781 128.522 76.1465 128.521 74.5994 128.52C68.4103 128.518 61.9771 128.516 55.3758 128.514C52.821 128.514 50.2908 128.514 47.7914 128.515C46.5519 128.508 45.2755 128.531 44.0863 128.501C42.9534 128.434 41.9733 127.527 41.7427 126.441C41.6227 125.899 41.6893 125.328 41.9097 124.824C42.164 124.278 42.4182 123.734 42.6704 123.192C43.182 122.106 43.6885 121.029 44.1908 119.96C45.1945 117.823 46.1818 115.72 47.1516 113.659C51.0187 105.409 54.5885 97.7955 57.7338 91.0896L57.7533 91.0455V90.9994C57.7225 81.8905 57.6969 74.186 57.6774 68.4408L57.5411 68.5751C61.4932 68.5402 64.5883 68.5136 66.7238 68.4941C67.7726 68.4808 68.5836 68.4705 69.1587 68.4633C69.4211 68.4582 69.6272 68.4541 69.7902 68.451C69.9327 68.4469 70.0086 68.4439 70.0127 68.4408" fill="#17282F"/>
<path d="M37.3617 77.5416C37.0429 78.0173 36.7907 78.4858 36.6666 78.9041C36.6666 78.9041 29.603 86.9898 29.0309 89.1182C28.4578 91.2455 17.768 108.694 17.768 108.694L32.6581 115.504C32.6581 115.504 38.0025 109.333 38.1932 106.993C38.1932 106.993 45.8289 107.265 46.974 105.533C48.1192 103.8 49.2643 101.46 49.2643 101.46C49.2643 101.46 50.9826 101.247 52.1277 100.395C53.2729 99.5445 55.1829 96.3531 55.1829 96.3531C55.1829 96.3531 58.2359 95.7143 58.809 94.7568C59.3811 93.7993 60.9097 90.3946 60.9097 90.3946C60.9097 90.3946 65.681 95.2889 67.3992 94.7568C69.1164 94.2247 72.5529 91.6709 69.1164 88.4795C66.5052 86.0528 61.3546 81.2897 59.0356 79.145C58.2595 78.4263 57.3379 77.9322 56.3496 77.7025L43.9066 74.8063C41.4328 74.2312 38.8667 75.281 37.3617 77.5416" fill="#D2E0F9"/>
<path d="M60.9097 90.3949C60.9559 90.3334 60.1521 89.6239 58.9844 88.3373C58.3621 87.6463 57.6762 86.8856 56.9381 86.0654C56.5505 85.6369 56.1425 85.1879 55.6935 84.7378C55.469 84.5123 55.2362 84.2857 54.9728 84.0704C54.8477 83.9586 54.697 83.8582 54.5401 83.7587C54.3433 83.6542 54.1813 83.606 54.0285 83.5598C51.4881 82.7643 49.1804 82.0723 47.5011 81.5976C45.8238 81.1219 44.774 80.8636 44.7525 80.9333C44.7299 81.004 45.7398 81.3895 47.3883 81.9575C49.0378 82.5244 51.3271 83.2738 53.8655 84.0694C54.4499 84.1924 54.8651 84.6958 55.3244 85.1089C55.7673 85.5426 56.1805 85.9814 56.5762 86.3997C57.3666 87.2362 58.0853 87.9898 58.7138 88.6008C59.9625 89.8321 60.8677 90.4513 60.9097 90.3949" fill="white"/>
<path d="M54.4272 97.1324C54.4559 97.1437 54.5933 96.9089 54.7163 96.4343C54.8342 95.9637 54.9265 95.2409 54.7625 94.3674C54.6118 93.5073 54.174 92.4616 53.2749 91.666C52.3881 90.8612 51.1712 90.3773 49.942 89.956C47.4681 89.0917 45.1624 88.5258 43.4842 88.1885C41.8049 87.8512 40.752 87.7282 40.7387 87.7969C40.7243 87.8728 41.7505 88.127 43.3991 88.5566C45.0476 88.9861 47.3185 89.6043 49.7667 90.4604C50.9918 90.8787 52.1349 91.3277 52.9499 92.0361C53.7742 92.7302 54.2037 93.6488 54.3944 94.4464C54.7748 96.0764 54.3227 97.1181 54.4272 97.1324" fill="white"/>
<path d="M48.9651 101.898C49.0091 101.946 49.3946 101.075 48.8185 99.8348C48.5417 99.2371 48.0209 98.5892 47.2878 98.1145C46.562 97.6265 45.6629 97.2964 44.7361 97.0237C41.0361 95.9452 38.0087 95.1906 37.9667 95.3311C37.9246 95.4736 40.8895 96.4588 44.5844 97.5353C45.4999 97.8039 46.3447 98.1042 47.0223 98.5287C47.7072 98.9439 48.1849 99.4831 48.4822 100.008C49.0871 101.074 48.8728 101.895 48.9651 101.898" fill="white"/>
<path d="M40.3443 106.907C40.3186 106.757 38.747 106.916 36.8155 107.072C34.882 107.233 33.3062 107.331 33.3052 107.483C33.3021 107.626 34.8963 107.767 36.8586 107.604C38.8198 107.446 40.3709 107.047 40.3443 106.907Z" fill="white"/>
<path d="M72.0373 101.487L80.6388 124.319C81.0674 125.459 80.2175 126.674 78.9995 126.661L45.8926 126.305C44.6428 126.292 43.8196 125.001 44.3332 123.862L54.4305 101.487H72.0373" fill="#3478F6"/>
<path d="M93.6117 274.496L97.7577 251.94L97.1918 246.959L98.7193 246.705L112.376 172.406L144.576 130.921L171.892 97.3713L177.303 110.72C177.303 110.72 204.793 134.468 207.385 138.125C207.385 138.125 214.821 149.094 215.965 160.666C216.414 165.202 205.139 250.143 203.864 253.964C202.907 256.841 194.194 262.961 188.04 266.63C188.855 291.782 191.125 364.999 189.93 364.999L83.6601 364.73L93.6117 274.496Z" fill="#B8D0FD"/>
<path d="M108.636 155.318C108.636 155.318 112.742 135.504 112.41 134.889C112.078 134.275 121.668 110.869 121.668 110.869L124.881 100.197L168.662 92.7886L170.789 99.4042L112.41 173.168L106.431 204.827L100.247 196.195L108.636 155.318" fill="#3478F6"/>
<path d="M69.5787 304.419L79.0814 190.16L86.8699 145.579C87.9135 136.692 101.592 119.132 101.592 119.132L116.663 114.563C116.663 114.563 122.836 106.976 123.169 105.867L112.41 133.355L108.636 155.318L106.289 205.706L93.8587 273.334L83.6364 364.999L56.4212 364.812L69.5787 304.419" fill="#B8D0FD"/>
<path d="M105.353 171.311L100.247 133.827L116.663 114.563L123.169 105.868L113.078 134.889L105.353 171.311" fill="#B8D0FD"/>
<path d="M177.337 110.719L143.09 153.151L112.41 172.405L171.927 97.3705L177.337 110.719" fill="#B8D0FD"/>
<path d="M175.679 166.185C175.824 166.249 176.776 164.262 178.322 161.078C179.888 157.919 182.056 153.502 185.478 149.4C188.903 145.309 193.114 142.679 196.41 141.587C199.716 140.448 201.961 140.588 201.95 140.381C201.953 140.317 201.403 140.22 200.396 140.218C199.389 140.209 197.924 140.37 196.18 140.861C192.689 141.807 188.205 144.461 184.655 148.708C181.118 152.952 179.028 157.507 177.63 160.763C176.254 164.046 175.552 166.131 175.679 166.185" fill="#17282F"/>
<path d="M184.848 237.579C185.078 237.45 181.757 233.41 175.901 231.2C170.066 228.928 164.895 229.714 164.98 229.963C164.974 230.303 169.949 230.026 175.516 232.204C181.11 234.305 184.625 237.837 184.848 237.579" fill="#17282F"/>
<path d="M178.346 244.228C178.608 244.196 177.267 239.408 173.072 235.17C168.92 230.89 164.16 229.453 164.123 229.714C163.976 230.018 168.349 231.833 172.304 235.924C176.313 239.959 178.039 244.37 178.346 244.228Z" fill="#17282F"/>
<path d="M112.41 172.406C112.441 172.458 113.274 172.002 114.783 171.118C116.414 170.139 118.575 168.842 121.225 167.249C126.824 163.792 134.485 159.064 143.362 153.585L143.433 153.54L143.488 153.473C146.687 149.522 150.164 145.228 153.779 140.764C163.253 129.026 171.744 118.404 177.624 110.951L177.763 110.777L177.68 110.581C175.977 106.564 174.587 103.285 173.555 100.854C173.092 99.8125 172.708 98.9534 172.396 98.2501C172.12 97.6606 171.96 97.3592 171.926 97.3725C171.893 97.3858 171.989 97.7129 172.202 98.328C172.466 99.0518 172.789 99.9345 173.182 101.006C174.136 103.468 175.421 106.79 176.996 110.858L177.051 110.488C171.008 117.809 162.416 128.351 152.942 140.089C149.342 144.565 145.879 148.87 142.692 152.83L142.819 152.719C134.022 158.329 126.435 163.171 120.885 166.711C118.3 168.405 116.194 169.786 114.603 170.829C113.15 171.804 112.378 172.356 112.41 172.406" fill="#17282F"/>
<path d="M107.409 180.376C107.478 180.366 107.399 179.389 107.198 177.618C106.95 175.66 106.63 173.138 106.246 170.094C105.395 163.719 104.143 154.859 102.677 144.889L102.618 145.221C103.269 144.013 103.958 142.733 104.655 141.439C109.9 131.685 114.594 122.827 117.943 116.39C119.529 113.294 120.847 110.721 121.862 108.741C122.766 106.923 123.234 105.902 123.17 105.867C123.104 105.831 122.51 106.786 121.493 108.543C120.401 110.48 118.982 112.998 117.274 116.03C113.752 122.375 108.952 131.175 103.709 140.929C103.012 142.225 102.325 143.505 101.676 144.715L101.592 144.872L101.619 145.046C103.115 155.011 104.492 163.854 105.533 170.2C106.049 173.224 106.477 175.731 106.809 177.675C107.131 179.429 107.34 180.386 107.409 180.376" fill="#17282F"/>
<path d="M121.185 317.946C121.14 318.004 121.64 318.479 122.584 319.288C123.528 320.098 124.919 321.239 126.669 322.61C130.169 325.344 135.101 329.047 141.003 332.461C143.962 334.153 146.891 335.575 149.624 336.705C152.379 337.783 154.914 338.625 157.1 339.11C159.275 339.622 161.064 339.917 162.311 340.004C163.555 340.114 164.243 340.138 164.251 340.064C164.275 339.868 161.536 339.57 157.292 338.374C155.164 337.803 152.695 336.9 150.005 335.791C147.335 334.626 144.463 333.2 141.539 331.528C135.707 328.154 130.734 324.575 127.124 322.002C123.522 319.414 121.279 317.823 121.185 317.946" fill="#17282F"/>
<path d="M118.031 325.985C117.973 326.031 118.368 326.623 119.14 327.656C119.898 328.703 121.114 330.126 122.714 331.791C125.903 335.127 130.877 339.261 137.119 342.597C143.376 345.916 149.583 347.735 154.131 348.517C156.406 348.916 158.265 349.13 159.555 349.174C160.844 349.235 161.555 349.235 161.56 349.162C161.577 348.969 158.739 348.747 154.28 347.772C149.826 346.808 143.774 344.907 137.626 341.648C131.491 338.368 126.535 334.408 123.249 331.25C119.951 328.096 118.182 325.865 118.031 325.985" fill="#17282F"/>
<path d="M17.768 108.695C17.768 108.695 5.20205 139.771 4.18094 147.742C3.15779 155.714 2.81744 163.115 2.81744 163.115L17.768 173.554L31.0813 157.611L32.6581 115.505L17.768 108.695Z" fill="#D2E0F9"/>
<path d="M9.49957 115.504C9.49957 115.504 3.21811 144.368 2.81726 145.477C2.41845 146.587 -5.45193e-06 154.988 -5.45193e-06 154.988V170.202C-5.45193e-06 170.202 0.711509 182.723 8.53178 185.259C16.352 187.796 44.4406 184.83 44.4406 184.83C44.4406 184.83 55.4565 182.551 57.8739 182.075C60.2903 181.6 84.318 171.91 84.318 171.91L103.016 118.906L93.4126 120.436L57.1563 141.124C57.1563 141.124 54.1923 139.772 52.8309 140.406C51.4694 141.039 33.3048 146.429 33.3048 146.429C33.3048 146.429 38.926 118.746 37.9664 118.906C37.0058 119.066 9.49957 115.504 9.49957 115.504" fill="#B8D0FD"/>
<path d="M82.7425 364.721C82.7528 364.721 82.7661 364.637 82.7825 364.473C82.7989 364.276 82.8204 364.036 82.845 363.742C82.8912 363.056 82.9527 362.118 83.0326 360.931C83.172 358.491 83.4263 354.96 83.7862 350.604C84.1317 346.245 84.6555 341.066 85.2768 335.32C85.9247 329.576 86.7018 323.269 87.5753 316.655C89.3407 303.426 91.0426 291.459 92.1416 282.78C92.6931 278.442 93.1217 274.928 93.3862 272.496C93.5112 271.313 93.6107 270.378 93.6825 269.695C93.7091 269.4 93.7296 269.16 93.747 268.964C93.7583 268.8 93.7594 268.714 93.7512 268.713C93.7409 268.712 93.7214 268.796 93.6927 268.959C93.662 269.152 93.623 269.39 93.5769 269.682C93.4795 270.363 93.3472 271.294 93.1801 272.47C92.8398 274.938 92.3589 278.433 91.7674 282.73C90.573 291.394 88.8117 303.349 87.0473 316.585C86.1718 323.202 85.4091 329.516 84.7878 335.266C84.1921 341.021 83.7072 346.208 83.4099 350.575C83.0983 354.939 82.9024 358.475 82.8245 360.921C82.7876 362.11 82.7589 363.05 82.7384 363.738C82.7343 364.033 82.7312 364.273 82.7281 364.47C82.7292 364.636 82.7343 364.72 82.7425 364.721" fill="#17282F"/>
<path d="M192.693 123.928C192.693 123.928 192.853 124.093 193.18 124.4C193.516 124.714 194.003 125.168 194.641 125.763C195.944 126.964 197.857 128.729 200.338 131.017C201.569 132.173 203.003 133.41 204.461 134.869C205.904 136.344 207.331 138.098 208.622 140.15C209.928 142.196 210.981 144.588 212.095 147.129C213.19 149.678 214.271 152.423 215.113 155.402C215.522 156.892 215.875 158.449 215.97 160.06C216.037 160.866 215.963 161.669 215.836 162.501C215.722 163.328 215.607 164.166 215.49 165.012C215.026 168.398 214.541 171.933 214.036 175.609C213.029 182.963 211.944 190.88 210.792 199.292C208.494 216.12 205.926 234.93 203.162 255.175L203.261 255.008C199.171 258.075 194.951 261.172 190.564 264.198C188.363 265.684 186.135 267.242 183.748 268.434C181.161 269.228 178.553 270.03 175.924 270.838C165.377 274.135 154.484 277.482 143.297 280.614C136.259 282.564 129.29 284.439 122.363 285.992C118.896 286.748 115.454 287.493 112.009 288.035C108.574 288.631 105.132 288.982 101.735 288.993L101.984 289.224C100.336 274.51 98.7584 260.415 97.2728 247.142L97.0719 247.41C118.698 243.724 138.134 240.411 154.64 237.599L154.696 237.589L154.738 237.551C157.965 234.614 160.986 231.876 164.061 229.571L164.12 229.526L164.132 229.456C166.667 213.731 168.685 201.213 170.071 192.613C170.741 188.324 171.258 185.015 171.61 182.762C171.945 180.543 172.121 179.305 172.066 179.396C171.849 180.704 168.964 198.13 163.788 229.401L163.858 229.287C160.743 231.607 157.723 234.332 154.478 237.269L154.576 237.221C138.065 240.004 118.622 243.283 96.9909 246.93L96.7633 246.968L96.79 247.196C98.2632 260.471 99.8287 274.565 101.464 289.282L101.491 289.515L101.713 289.514C105.176 289.507 108.643 289.153 112.093 288.556C115.553 288.012 119.005 287.266 122.48 286.51C129.421 284.956 136.398 283.08 143.441 281.128C154.636 277.993 165.535 274.642 176.08 271.341C178.73 270.524 181.357 269.714 183.963 268.91C186.441 267.671 188.641 266.122 190.858 264.625C195.254 261.588 199.473 258.488 203.565 255.412L203.649 255.349L203.664 255.245C206.401 234.992 208.943 216.175 211.218 199.341C212.352 190.925 213.419 183.005 214.41 175.648C214.905 171.97 215.38 168.434 215.835 165.046C215.949 164.2 216.061 163.362 216.172 162.534C216.295 161.717 216.372 160.864 216.3 160.039C216.197 158.389 215.833 156.819 215.415 155.318C214.556 152.319 213.46 149.569 212.352 147.018C211.226 144.48 210.156 142.08 208.829 140.02C207.517 137.958 206.07 136.199 204.609 134.723C203.128 133.26 201.694 132.042 200.451 130.893C197.946 128.631 196.014 126.886 194.699 125.699C194.048 125.118 193.552 124.675 193.209 124.367C192.872 124.071 192.693 123.928 192.693 123.928" fill="#17282F"/>
<path d="M131.706 241.13L92.2554 185.469L23.1934 206.364L75.4338 273.933L99.0945 269.352L96.9149 247.007L131.706 241.13Z" fill="#3478F6"/>
<path d="M43.3715 203.757C43.3715 204.701 44.1364 205.466 45.0806 205.466C46.0238 205.466 46.7896 204.701 46.7896 203.757C46.7896 202.813 46.0238 202.048 45.0806 202.048C44.1364 202.048 43.3715 202.813 43.3715 203.757Z" fill="#17282F"/>
<path d="M70.969 196.055C70.969 196.999 71.7348 197.764 72.678 197.764C73.6222 197.764 74.3881 196.999 74.3881 196.055C74.3881 195.11 73.6222 194.346 72.678 194.346C71.7348 194.346 70.969 195.11 70.969 196.055Z" fill="#17282F"/>
<path d="M97.3886 249.273L93.8445 248.651C93.8445 248.651 92.7106 243.267 91.2928 242.132C89.8759 240.999 75.6851 234.532 72.5684 232.833C69.4508 231.132 57.26 225.578 55.7294 228.531C53.9958 231.872 58.9588 234.616 61.651 235.893C64.3432 237.167 72.023 240.149 70.4647 241.992C68.9064 243.834 51.7445 242.999 51.7445 242.999L49.5915 240.111C49.5915 240.111 45.8106 243.692 46.236 246.809C46.6605 249.926 47.9358 251.91 47.9358 251.91H49.2112C49.2112 251.91 47.9358 253.751 49.0697 255.593C50.2035 257.435 52.4703 259.845 52.4703 259.845C52.4703 259.845 54.4797 264.083 60.5469 265.744C61.2543 265.936 89.6073 268.4 89.6073 268.4L99.0946 269.352L97.3886 249.273" fill="#D2E0F9"/>
<path d="M161.235 6.61835C171.13 9.44484 179.202 16.3486 178.934 26.6345C178.815 31.2387 177.456 36.3288 180.066 40.1241C178.845 39.7684 177.826 38.7852 177.425 37.5785C175.767 44.1112 175.501 53.8352 170.038 57.7812" fill="#17282F"/>
<path d="M168.224 50.8373C168.508 50.7194 179.652 47.6848 179.083 58.9877C178.512 70.2906 167.283 67.3862 167.279 67.0612C167.276 66.7362 168.224 50.8373 168.224 50.8373Z" fill="#D2E0F9"/>
<path d="M170.948 62.9542C170.999 62.9194 171.138 63.1019 171.463 63.271C171.779 63.4351 172.333 63.5663 172.933 63.3756C174.15 62.9973 175.25 61.1519 175.408 59.1179C175.489 58.0907 175.323 57.1003 174.999 56.2709C174.695 55.4262 174.19 54.8213 173.594 54.6849C173.003 54.5168 172.559 54.8541 172.405 55.1658C172.238 55.4743 172.297 55.7029 172.237 55.7194C172.204 55.747 172.004 55.5184 172.119 55.056C172.176 54.8336 172.323 54.5742 172.599 54.3702C172.881 54.1631 173.286 54.0708 173.703 54.1375C174.571 54.241 175.314 55.0827 175.67 55.9931C176.074 56.9107 176.285 58.024 176.194 59.1784C176.007 61.4523 174.734 63.5253 173.076 63.9149C172.271 64.082 171.62 63.8082 171.29 63.5253C170.954 63.228 170.907 62.9717 170.948 62.9542" fill="white"/>
<path d="M110.117 71.8578C110.165 63.8674 111.604 47.4251 113.08 32.5555C114.667 16.5654 128.264 4.47412 144.33 4.77041L145.926 4.79912C163.119 6.12266 171.599 21.4628 169.801 38.6125L167.387 93.3113L126.376 115.812L126.514 91.2814C126.514 91.2814 110.015 88.4036 110.117 71.8578" fill="#D2E0F9"/>
<path d="M126.494 91.2698C126.494 91.2698 136.933 92.3135 148.173 85.5389C148.173 85.5389 142.968 97.5359 126.488 95.7407L126.494 91.2698Z" fill="white"/>
<path d="M117.113 44.8833C117.045 46.1289 118.046 47.2146 119.347 47.3079C120.645 47.4022 121.755 46.4693 121.821 45.2226C121.889 43.976 120.889 42.8903 119.59 42.796C118.289 42.7016 117.18 43.6366 117.113 44.8833Z" fill="#17282F"/>
<path d="M116.256 39.8354C116.542 40.1481 118.357 38.8573 120.9 38.9106C123.439 38.9281 125.281 40.2701 125.562 39.9645C125.701 39.8282 125.413 39.2674 124.611 38.6605C123.822 38.0566 122.468 37.459 120.885 37.4364C119.301 37.4159 117.958 37.9736 117.182 38.5569C116.39 39.1423 116.114 39.6949 116.256 39.8354" fill="#17282F"/>
<path d="M140.905 44.8822C140.838 46.1299 141.839 47.2146 143.14 47.3079C144.438 47.4022 145.547 46.4703 145.613 45.2226C145.68 43.977 144.68 42.8903 143.382 42.7959C142.081 42.7016 140.972 43.6366 140.905 44.8822" fill="#17282F"/>
<path d="M141.602 39.5862C141.853 39.9286 143.799 38.8419 146.319 39.1709C148.841 39.4631 150.527 40.9968 150.84 40.7221C150.991 40.6032 150.768 40.0147 150.034 39.3247C149.315 38.6378 148.035 37.8976 146.463 37.7028C144.891 37.5111 143.496 37.9212 142.661 38.4154C141.811 38.9116 141.475 39.4313 141.602 39.5862" fill="#17282F"/>
<path d="M131.893 60.3251C131.907 60.1806 130.332 59.8781 127.778 59.5039C127.13 59.425 126.518 59.2845 126.416 58.8396C126.272 58.368 126.557 57.6729 126.886 56.9235C127.525 55.3641 128.194 53.729 128.895 52.0158C131.692 45.027 133.728 39.2766 133.446 39.1659C133.164 39.0562 130.668 44.6313 127.872 51.6191C127.2 53.3435 126.555 54.9869 125.942 56.5585C125.683 57.2915 125.245 58.1209 125.558 59.1C125.724 59.588 126.194 59.9489 126.608 60.0688C127.021 60.2031 127.387 60.2175 127.708 60.2421C130.282 60.4287 131.881 60.4697 131.893 60.3251" fill="#17282F"/>
<path d="M139.341 62.222C138.929 62.1892 138.873 64.949 136.475 66.8641C134.081 68.7864 131.145 68.4224 131.116 68.8069C131.075 68.9791 131.762 69.3553 133.002 69.4117C134.219 69.4763 136.005 69.1175 137.472 67.9467C138.935 66.7718 139.584 65.1807 139.7 64.0499C139.826 62.8986 139.531 62.2086 139.341 62.222Z" fill="#17282F"/>
<path d="M141.454 28.6137C141.692 29.3098 144.237 29.0279 147.212 29.4431C150.196 29.7978 152.586 30.7154 152.993 30.1033C153.174 29.8091 152.767 29.1509 151.808 28.464C150.855 27.7792 149.33 27.1148 147.543 26.8821C145.756 26.6535 144.11 26.9077 143.017 27.3301C141.913 27.7505 141.352 28.2836 141.454 28.6137" fill="#17282F"/>
<path d="M117.556 33.3674C117.993 33.9528 119.757 33.3858 121.862 33.396C123.969 33.3335 125.745 33.8564 126.165 33.2597C126.352 32.9696 126.081 32.3862 125.312 31.8255C124.555 31.2667 123.278 30.7982 121.831 30.8146C120.383 30.8341 119.119 31.3344 118.376 31.9116C117.62 32.4918 117.366 33.0824 117.556 33.3674Z" fill="#17282F"/>
<path d="M132.227 3.00712C138.077 0.705531 144.001 1.91938 150.22 2.83181C155.151 3.55458 159.445 5.13749 163.453 8.09828C169.741 12.7414 172.857 20.1373 173.192 27.9473C173.525 35.7553 172.715 42.6744 170.747 50.2394L170.134 50.0979C170.512 52.0058 170.886 54.0265 170.22 55.8534C169.556 57.6813 167.437 59.1259 165.656 58.3446C163.576 57.4332 163.506 54.5616 163.695 52.299C164.34 44.5802 164.222 37.0665 163.785 29.3344C163.461 23.6179 160.202 16.6219 155.742 13.9122C147.628 8.51146 137.064 12.9209 133.473 13.5473C127.977 8.83337 122.832 12.519 119.467 16.6095C120.698 10.445 126.377 5.3087 132.227 3.00712" fill="#17282F"/>
<path d="M160.583 13.6498C156.389 10.0872 149.457 10.3804 145.578 14.2844C143.974 15.9002 142.889 17.9875 141.2 19.514C137.624 22.7424 132.279 22.7629 127.464 22.6009C128.909 22.0647 130.151 21.0026 130.904 19.6575C124.984 23.0151 117.609 23.6928 111.176 21.4722C114.587 12.3735 122.534 3.62741 131.977 1.33403C141.419 -0.959359 154.03 0.0976319 161.235 6.61794" fill="#17282F"/>
<path d="M113.409 21.3132C113.409 21.3317 113.593 21.3624 113.948 21.4024C114.302 21.4537 114.827 21.4814 115.506 21.5009C116.861 21.5224 118.846 21.384 121.198 20.7371C123.541 20.0943 126.251 18.8845 128.773 16.8526C131.315 14.8196 133.399 11.9244 135.819 9.1871C137.04 7.82665 138.324 6.5759 139.749 5.63272C141.16 4.67107 142.707 4.0426 144.236 3.69096C147.316 2.99997 150.219 3.31061 152.575 3.69198C154.944 4.10001 156.828 4.62494 158.132 4.96736C158.736 5.12832 159.232 5.26158 159.634 5.36923C159.978 5.45637 160.163 5.49431 160.168 5.47688C160.173 5.45945 160 5.38768 159.666 5.26568C159.331 5.14368 158.834 4.97349 158.19 4.76845C156.901 4.36452 155.028 3.78016 152.642 3.32087C150.27 2.88926 147.32 2.52428 144.128 3.21219C142.544 3.56076 140.926 4.20563 139.459 5.19803C137.976 6.17095 136.659 7.45245 135.422 8.83135C132.971 11.6056 130.921 14.4731 128.463 16.4712C126.018 18.4744 123.383 19.6965 121.093 20.3741C118.795 21.0559 116.845 21.2507 115.504 21.2938C114.16 21.3307 113.415 21.2609 113.409 21.3132" fill="#33535F"/>
<path d="M129.327 22.733C129.329 22.7514 129.463 22.7484 129.717 22.7269C129.974 22.7146 130.345 22.6551 130.822 22.5608C131.772 22.3639 133.122 21.9077 134.638 21.0506C136.153 20.1925 137.805 18.9223 139.455 17.3343C141.111 15.7503 142.756 13.8588 144.59 11.996C146.422 10.1394 148.323 8.50623 150.302 7.45129C152.278 6.39738 154.282 5.89604 155.971 5.82223C157.665 5.75046 159.027 6.07853 159.904 6.43735C160.786 6.79412 161.223 7.10784 161.255 7.05863C161.265 7.04325 161.162 6.9592 160.953 6.81157C160.75 6.65266 160.422 6.46607 159.987 6.24668C159.113 5.82019 157.714 5.4183 155.959 5.44496C154.209 5.47264 152.128 5.95142 150.072 7.01661C148.01 8.0859 146.062 9.7457 144.21 11.6208C142.359 13.501 140.727 15.3997 139.111 16.9816C137.502 18.5686 135.906 19.844 134.447 20.7246C131.515 22.5167 129.291 22.6171 129.327 22.733" fill="#33535F"/>
<path d="M179.863 37.2034C179.937 37.1121 178.071 36.172 176.106 33.5834C175.126 32.3008 174.145 30.6349 173.269 28.6819C172.388 26.7319 171.619 24.4949 170.751 22.1595C169.881 19.8251 168.953 17.6127 167.809 15.752C166.673 13.8902 165.355 12.3975 164.078 11.3477C162.798 10.2999 161.587 9.68788 160.72 9.38237C160.284 9.23166 159.943 9.13018 159.704 9.08815C159.467 9.03791 159.342 9.02048 159.337 9.03791C159.279 9.15171 161.385 9.49411 163.834 11.6358C165.046 12.6938 166.3 14.1721 167.388 16.0062C168.481 17.8372 169.386 20.022 170.251 22.3461C171.115 24.6723 171.902 26.9185 172.822 28.8869C173.734 30.8563 174.77 32.5377 175.809 33.8171C176.85 35.0956 177.869 35.9762 178.626 36.497C179.006 36.7564 179.308 36.945 179.525 37.0537C179.738 37.1675 179.854 37.2188 179.863 37.2034" fill="#33535F"/>
<path d="M177.71 41.1815C177.712 41.1251 177.195 41.1343 176.297 40.9467C175.402 40.7632 174.132 40.3121 172.79 39.3812C171.454 38.4524 170.069 37.0294 168.963 35.1769C167.854 33.3233 167.073 31.0422 166.461 28.6073C165.851 26.1643 165.417 23.7899 164.851 21.6585C164.292 19.5261 163.6 17.6469 162.826 16.1603C162.051 14.6738 161.222 13.586 160.576 12.9104C160.251 12.5731 159.99 12.323 159.795 12.1713C159.606 12.0144 159.502 11.9385 159.489 11.9519C159.4 12.0246 161.062 13.3461 162.489 16.3295C163.205 17.8078 163.849 19.6655 164.375 21.7805C164.909 23.8945 165.328 26.2699 165.943 28.7376C166.563 31.2001 167.371 33.5263 168.541 35.4311C169.708 37.3308 171.168 38.7743 172.579 39.695C173.996 40.6166 175.331 41.0257 176.26 41.1508C176.726 41.2082 177.088 41.2348 177.335 41.2174C177.582 41.2123 177.71 41.2 177.71 41.1815" fill="#33535F"/>
</svg>
