<svg width="510" height="176" viewBox="0 0 510 176" fill="none" xmlns="http://www.w3.org/2000/svg">
<rect width="510" height="176" fill="#F5F8FF"/>
<g clip-path="url(#clip0_677_1623)">
<rect width="510" height="176" fill="#F5F8FF"/>
<path d="M176.207 50.7071C176.598 50.3166 176.598 49.6834 176.207 49.2929L169.843 42.9289C169.453 42.5384 168.819 42.5384 168.429 42.9289C168.038 43.3195 168.038 43.9526 168.429 44.3431L174.086 50L168.429 55.6569C168.038 56.0474 168.038 56.6805 168.429 57.0711C168.819 57.4616 169.453 57.4616 169.843 57.0711L176.207 50.7071ZM-1 51H175.5V49H-1V51Z" fill="#3478F6"/>
<path d="M176.207 89.7071C176.598 89.3166 176.598 88.6834 176.207 88.2929L169.843 81.9289C169.453 81.5384 168.819 81.5384 168.429 81.9289C168.038 82.3195 168.038 82.9526 168.429 83.3431L174.086 89L168.429 94.6569C168.038 95.0474 168.038 95.6805 168.429 96.0711C168.819 96.4616 169.453 96.4616 169.843 96.0711L176.207 89.7071ZM-1 90H175.5V88H-1V90Z" fill="#3478F6"/>
<path d="M176.207 126.707C176.598 126.317 176.598 125.683 176.207 125.293L169.843 118.929C169.453 118.538 168.819 118.538 168.429 118.929C168.038 119.319 168.038 119.953 168.429 120.343L174.086 126L168.429 131.657C168.038 132.047 168.038 132.681 168.429 133.071C168.819 133.462 169.453 133.462 169.843 133.071L176.207 126.707ZM-1 127H175.5V125H-1V127Z" fill="#3478F6"/>
<path d="M478 82H494V20H478V82Z" fill="#3478F6"/>
<path d="M455 82H471V33H455V82" fill="#3478F6"/>
<path d="M432 82H448V45H432V82Z" fill="#3478F6"/>
<path d="M410 82H426V60H410V82Z" fill="#3478F6"/>
<path d="M138.713 94.5844C137.307 96.0403 137.348 98.3602 138.804 99.7656C140.259 101.171 142.579 101.131 143.985 99.6748C145.391 98.2184 145.35 95.899 143.894 94.4931C142.438 93.0877 140.118 93.1285 138.713 94.5844ZM136.892 90.0348C137.538 89.6444 138.225 89.3485 138.934 89.1471L139.355 87.1252L142.77 87.0656L143.262 89.0708C143.978 89.247 144.675 89.5187 145.334 89.886L147.06 88.7545L149.518 91.1276L148.448 92.8917C148.838 93.5378 149.134 94.2257 149.335 94.9345L151.356 95.355L151.416 98.7705L149.411 99.2624C149.235 99.9777 148.963 100.675 148.596 101.334L149.727 103.061L147.355 105.518L145.59 104.448C144.944 104.838 144.257 105.134 143.547 105.336L143.127 107.357L139.712 107.417L139.22 105.412C138.504 105.235 137.807 104.963 137.148 104.596L135.422 105.728L132.964 103.355L134.034 101.59C133.644 100.945 133.348 100.257 133.147 99.5481L131.125 99.127L131.065 95.7116L133.071 95.2202C133.247 94.5044 133.519 93.8073 133.886 93.1484L132.754 91.4219L135.127 88.9645L136.892 90.0348" fill="#3478F6"/>
<path d="M28.2939 116.457H13.1634C10.3119 116.457 8 114.146 8 111.294V96.1636C8 93.3121 10.3119 91.0002 13.1634 91.0002H28.2934C31.145 91.0002 33.4568 93.3121 33.4568 96.1636V111.294C33.4568 114.146 31.145 116.457 28.2939 116.457" fill="white"/>
<path d="M21.7557 98.6596C20.6763 98.6596 19.6608 99.0795 18.8972 99.8432C18.1346 100.606 17.7152 101.621 17.7152 102.702C17.7152 103.783 18.1346 104.798 18.8972 105.56C19.6608 106.324 20.6763 106.744 21.7557 106.744C22.8357 106.744 23.8512 106.324 24.6143 105.56C25.3769 104.798 25.7968 103.783 25.7968 102.702C25.7968 101.621 25.3769 100.606 24.6143 99.8432C23.8512 99.0795 22.8362 98.6596 21.7557 98.6596ZM15.0962 109.927C14.9447 109.927 14.803 109.868 14.6966 109.761C14.4764 109.541 14.4764 109.182 14.6966 108.962L17.7211 105.937C16.0902 103.904 16.2486 100.893 18.0976 99.0435C19.0755 98.0667 20.3745 97.5286 21.7557 97.5286C23.138 97.5286 24.4365 98.0667 25.4144 99.0435C27.431 101.061 27.431 104.343 25.4144 106.36C24.4365 107.337 23.138 107.875 21.7557 107.875C20.5614 107.875 19.4444 107.482 18.5202 106.737L15.4962 109.761C15.3894 109.868 15.2471 109.927 15.0962 109.927" fill="#3478F6"/>
<path d="M115.771 151.372H102.766C99.6862 151.372 97.1896 148.875 97.1896 145.795V132.79C97.1896 129.71 99.6862 127.214 102.766 127.214H115.771C118.851 127.214 121.347 129.71 121.347 132.79V145.795C121.347 148.875 118.851 151.372 115.771 151.372Z" fill="white"/>
<path d="M110.261 143.475C110.258 144.038 109.8 144.491 109.238 144.489C108.676 144.486 108.222 144.029 108.225 143.466C108.227 142.904 108.685 142.45 109.248 142.452C109.81 142.455 110.263 142.913 110.261 143.475Z" fill="#3478F6"/>
<path d="M107.207 142.167C108.325 140.993 110.142 140.957 111.289 142.113C111.809 142.636 112.623 141.831 112.103 141.307C110.529 139.721 107.946 139.731 106.401 141.353C105.893 141.887 106.698 142.701 107.207 142.167Z" fill="#3478F6"/>
<path d="M103.749 137.428C105.297 136.09 107.146 135.247 109.215 135.243C111.266 135.238 113.289 135.965 114.791 137.377C115.328 137.88 116.143 137.076 115.605 136.571C113.884 134.954 111.576 134.092 109.22 134.098C106.839 134.103 104.722 135.077 102.943 136.615C102.384 137.098 103.194 137.909 103.749 137.428" fill="#3478F6"/>
<path d="M105.114 140.055C106.152 138.933 107.606 138.23 109.143 138.196C110.723 138.159 112.247 138.81 113.345 139.938C113.86 140.467 114.673 139.661 114.159 139.132C112.86 137.797 111.019 137.008 109.149 137.05C107.32 137.092 105.548 137.901 104.308 139.242C103.808 139.782 104.612 140.598 105.114 140.055" fill="#3478F6"/>
<path d="M110.965 60.3306H89.3896C86.3098 60.3306 83.8132 57.834 83.8132 54.7542V33.1784C83.8132 30.0985 86.3098 27.602 89.3896 27.602H110.965C114.045 27.602 116.542 30.0985 116.542 33.1784V54.7542C116.542 57.834 114.045 60.3306 110.965 60.3306" fill="white"/>
<path d="M110.965 60.3314C110.963 60.3051 111.395 60.3384 112.181 60.1649C112.95 59.9818 114.125 59.5377 115.129 58.3745C115.628 57.8031 116.064 57.0534 116.288 56.1561C116.545 55.2641 116.452 54.2416 116.463 53.1509C116.457 50.9685 116.45 48.4864 116.443 45.7433C116.438 42.9975 116.432 39.9913 116.426 36.7649C116.425 35.9577 116.424 35.1372 116.422 34.3037C116.414 33.4665 116.466 32.6218 116.238 31.8103C115.834 30.1794 114.576 28.7198 112.911 28.0958C112.501 27.9277 112.061 27.8364 111.617 27.7757C111.175 27.7263 110.717 27.7311 110.249 27.7338C109.32 27.7349 108.38 27.7354 107.431 27.736C105.531 27.7376 103.592 27.7386 101.617 27.7397C97.6682 27.7403 93.5799 27.7414 89.3922 27.7424C88.3719 27.7537 87.3574 28.0308 86.5063 28.5759C86.0804 28.8433 85.6862 29.1644 85.357 29.5414C85.0166 29.9093 84.7352 30.3282 84.5182 30.7744C84.2868 31.2159 84.1471 31.6965 84.0478 32.1782C83.9543 32.6658 83.9495 33.1523 83.9511 33.6593C83.9506 34.6635 83.9506 35.6597 83.95 36.6473C83.9474 40.5965 83.9447 44.4066 83.942 48.0358C83.9398 49.8504 83.9377 51.6199 83.9361 53.3394C83.9511 54.2003 83.8786 55.052 84.0424 55.8494C84.2073 56.6491 84.5526 57.395 85.0257 58.0265C85.9682 59.3025 87.4353 60.0801 88.8998 60.1988C90.3776 60.2514 91.8297 60.2181 93.1975 60.2326C98.6789 60.2514 103.118 60.2664 106.198 60.2772C107.725 60.2884 108.914 60.297 109.733 60.3029C110.129 60.3094 110.434 60.3137 110.652 60.3169C110.859 60.3217 110.965 60.3314 110.965 60.3314C110.965 60.3314 110.859 60.3411 110.652 60.3454C110.434 60.3491 110.129 60.3534 109.733 60.3599C108.914 60.3658 107.725 60.3744 106.198 60.3856C103.118 60.3964 98.6789 60.4114 93.1975 60.4302C91.8211 60.4222 90.3964 60.4619 88.8804 60.4136C87.3574 60.296 85.8264 59.492 84.8399 58.1661C84.3448 57.5088 83.9823 56.7318 83.8083 55.8967C83.6343 55.0514 83.7084 54.1933 83.6901 53.3394C83.688 51.6199 83.6864 49.8504 83.6842 48.0358C83.6815 44.4066 83.6789 40.5965 83.6762 36.6473C83.6756 35.6597 83.6751 34.6635 83.6746 33.6593C83.6724 33.1636 83.6767 32.6363 83.775 32.1277C83.8786 31.6208 84.0263 31.1154 84.269 30.6515C84.4973 30.1816 84.7926 29.7412 85.1497 29.3551C85.4967 28.9582 85.9102 28.621 86.358 28.339C87.2527 27.766 88.3203 27.4739 89.3922 27.4626C93.5799 27.4637 97.6682 27.4648 101.617 27.4658C103.592 27.4669 105.531 27.468 107.431 27.4691C108.38 27.4701 109.32 27.4707 110.249 27.4712C110.71 27.4691 111.177 27.4642 111.648 27.5169C112.113 27.5813 112.574 27.6785 113.004 27.8552C114.746 28.5125 116.058 30.0419 116.476 31.7486C116.712 32.6051 116.655 33.4799 116.661 34.3037C116.66 35.1372 116.659 35.9577 116.658 36.7649C116.651 39.9913 116.646 42.9975 116.641 45.7433C116.633 48.4864 116.626 50.9685 116.62 53.1509C116.6 54.2325 116.688 55.27 116.417 56.1899C116.179 57.1071 115.726 57.8686 115.211 58.4459C114.173 59.6204 112.973 60.0527 112.193 60.2202C111.795 60.297 111.487 60.3319 111.279 60.3298C111.071 60.3357 110.965 60.3314 110.965 60.3314" fill="#17282F"/>
<path d="M151.375 71.5635H129.799C126.72 71.5635 124.223 69.0669 124.223 65.9871V44.4113C124.223 41.3315 126.72 38.8349 129.799 38.8349H151.375C154.455 38.8349 156.952 41.3315 156.952 44.4113V65.9871C156.952 69.0669 154.455 71.5635 151.375 71.5635" fill="white"/>
<path d="M151.375 71.5651C151.373 71.5388 151.804 71.5721 152.591 71.3992C153.359 71.2161 154.534 70.7714 155.539 69.6082C156.037 69.0369 156.474 68.2872 156.698 67.3903C156.955 66.4984 156.861 65.4753 156.873 64.3847C156.867 62.2027 156.86 59.7201 156.852 56.977C156.847 54.2312 156.842 51.2256 156.836 47.9991C156.834 47.192 156.833 46.3714 156.832 45.5374C156.823 44.7002 156.876 43.856 156.648 43.0441C156.244 41.4131 154.986 39.9535 153.321 39.33C152.911 39.162 152.47 39.0701 152.027 39.0094C151.585 38.96 151.126 38.9649 150.659 38.9681C149.73 38.9686 148.79 38.9692 147.84 38.9702C145.941 38.9713 144.001 38.9724 142.027 38.9735C138.078 38.9745 133.99 38.9756 129.802 38.9767C128.781 38.988 127.767 39.2645 126.916 39.8096C126.49 40.0776 126.096 40.3982 125.766 40.7757C125.426 41.1436 125.145 41.5619 124.928 42.0087C124.697 42.4496 124.557 42.9308 124.458 43.4125C124.364 43.8995 124.359 44.3861 124.361 44.8936C124.361 45.8978 124.36 46.894 124.36 47.881C124.357 51.8308 124.354 55.6404 124.351 59.2701C124.35 61.0847 124.348 62.8542 124.345 64.5737C124.361 65.4345 124.288 66.2862 124.452 67.0832C124.617 67.8828 124.962 68.6293 125.435 69.2608C126.378 70.5362 127.845 71.3143 129.309 71.4325C130.787 71.4851 132.24 71.4524 133.607 71.4663C139.089 71.4851 143.528 71.5002 146.608 71.5109C148.134 71.5222 149.323 71.5308 150.142 71.5372C150.539 71.5431 150.844 71.5479 151.062 71.5512C151.269 71.556 151.375 71.5651 151.375 71.5651C151.375 71.5651 151.269 71.5748 151.062 71.5796C150.844 71.5829 150.539 71.5877 150.142 71.5936C149.323 71.5995 148.134 71.6086 146.608 71.6199C143.528 71.6301 139.089 71.6452 133.607 71.6645C132.231 71.6559 130.806 71.6956 129.29 71.6478C127.767 71.5302 126.236 70.7263 125.25 69.3999C124.755 68.7431 124.392 67.9655 124.218 67.131C124.044 66.2852 124.118 65.427 124.1 64.5737C124.098 62.8542 124.096 61.0847 124.094 59.2701C124.091 55.6404 124.089 51.8308 124.086 47.881C124.086 46.894 124.085 45.8978 124.084 44.8936C124.082 44.3974 124.086 43.87 124.185 43.3614C124.289 42.855 124.436 42.3497 124.678 41.8857C124.907 41.4158 125.203 40.9755 125.56 40.5888C125.906 40.1925 126.32 39.8547 126.768 39.5733C127.662 39.0003 128.73 38.7082 129.802 38.6969C133.99 38.698 138.078 38.6985 142.027 38.6996C144.001 38.7007 145.941 38.7017 147.84 38.7028C148.79 38.7039 149.73 38.7044 150.659 38.7055C151.12 38.7033 151.587 38.698 152.058 38.7511C152.522 38.815 152.983 38.9128 153.413 39.0895C155.156 39.7468 156.467 41.2762 156.886 42.9823C157.122 43.8389 157.064 44.7137 157.071 45.5374C157.07 46.3714 157.069 47.192 157.067 47.9991C157.061 51.2256 157.055 54.2312 157.05 56.977C157.042 59.7201 157.035 62.2027 157.03 64.3847C157.01 65.4662 157.098 66.5037 156.827 67.4237C156.589 68.3409 156.135 69.1029 155.621 69.6797C154.583 70.8541 153.383 71.2864 152.603 71.454C152.205 71.5308 151.897 71.5657 151.688 71.5635C151.481 71.5694 151.375 71.5651 151.375 71.5651" fill="#17282F"/>
<path d="M118.207 113.661H96.6315C93.5517 113.661 91.0551 111.164 91.0551 108.084V86.5084C91.0551 83.4286 93.5517 80.932 96.6315 80.932H118.207C121.287 80.932 123.784 83.4286 123.784 86.5084V108.084C123.784 111.164 121.287 113.661 118.207 113.661Z" fill="white"/>
<path d="M118.208 113.661C118.205 113.634 118.637 113.668 119.423 113.495C120.192 113.312 121.367 112.867 122.371 111.704C122.87 111.132 123.306 110.383 123.53 109.485C123.788 108.594 123.694 107.571 123.705 106.48C123.7 104.298 123.693 101.816 123.685 99.0725C123.68 96.3273 123.674 93.3211 123.668 90.0941C123.667 89.2875 123.666 88.4669 123.664 87.633C123.656 86.7957 123.708 85.9515 123.48 85.1396C123.077 83.5086 121.818 82.0496 120.154 81.4256C119.743 81.2575 119.302 81.1656 118.859 81.1049C118.417 81.0561 117.959 81.0604 117.491 81.0636C116.562 81.0641 115.622 81.0652 114.673 81.0657C112.773 81.0668 110.834 81.0679 108.859 81.069C104.91 81.07 100.822 81.0711 96.6344 81.0722C95.614 81.0835 94.5996 81.36 93.7484 81.9051C93.3226 82.1731 92.9284 82.4937 92.5992 82.8712C92.2587 83.2385 91.9774 83.6574 91.7604 84.1042C91.5289 84.5456 91.3893 85.0263 91.29 85.508C91.1965 85.995 91.1917 86.4816 91.1933 86.9891C91.1928 87.9933 91.1928 88.9895 91.1922 89.9765C91.1895 93.9263 91.1869 97.7359 91.1842 101.366C91.182 103.18 91.1799 104.95 91.1783 106.669C91.1933 107.53 91.1208 108.382 91.2846 109.179C91.4495 109.978 91.7948 110.724 92.2673 111.356C93.2103 112.632 94.6769 113.409 96.1419 113.528C97.6198 113.581 99.0719 113.548 100.44 113.562C105.921 113.581 110.36 113.596 113.44 113.606C114.967 113.618 116.156 113.626 116.975 113.633C117.371 113.639 117.676 113.643 117.894 113.647C118.101 113.651 118.208 113.661 118.208 113.661C118.208 113.661 118.101 113.67 117.894 113.675C117.676 113.678 117.371 113.683 116.975 113.689C116.156 113.695 114.967 113.704 113.44 113.715C110.36 113.726 105.921 113.741 100.44 113.759C99.0633 113.751 97.6386 113.792 96.1226 113.743C94.5996 113.625 93.0686 112.822 92.0821 111.495C91.5869 110.839 91.2245 110.061 91.0505 109.226C90.8765 108.381 90.95 107.523 90.9323 106.669C90.9302 104.95 90.9286 103.18 90.9264 101.366C90.9237 97.7359 90.921 93.9263 90.9184 89.9765C90.9178 88.9895 90.9173 87.9933 90.9167 86.9891C90.9146 86.4929 90.9189 85.9655 91.0172 85.4569C91.1208 84.9505 91.2685 84.4452 91.5112 83.9807C91.7394 83.5113 92.0348 83.071 92.3919 82.6843C92.7388 82.288 93.1524 81.9502 93.6002 81.6688C94.4949 81.0958 95.5625 80.8037 96.6344 80.7924C100.822 80.7935 104.91 80.794 108.859 80.7951C110.834 80.7962 112.773 80.7972 114.673 80.7988C115.622 80.7994 116.562 80.7999 117.491 80.801C117.952 80.7989 118.42 80.794 118.891 80.8467C119.355 80.9106 119.816 81.0083 120.246 81.185C121.988 81.8423 123.3 83.3717 123.718 85.0778C123.955 85.9349 123.897 86.8092 123.904 87.633C123.902 88.4669 123.901 89.2875 123.9 90.0941C123.893 93.3211 123.888 96.3273 123.883 99.0725C123.875 101.816 123.868 104.298 123.862 106.48C123.842 107.562 123.931 108.599 123.659 109.519C123.421 110.436 122.968 111.198 122.453 111.775C121.416 112.95 120.215 113.382 119.436 113.549C119.037 113.626 118.729 113.661 118.521 113.66C118.313 113.665 118.208 113.661 118.208 113.661" fill="#17282F"/>
<path d="M66.2909 87.9282H44.7151C41.6353 87.9282 39.1387 85.4316 39.1387 82.3518V60.776C39.1387 57.6962 41.6353 55.1996 44.7151 55.1996H66.2909C69.3707 55.1996 71.8673 57.6962 71.8673 60.776V82.3518C71.8673 85.4316 69.3707 87.9282 66.2909 87.9282Z" fill="white"/>
<path d="M66.2911 87.93C66.289 87.9037 66.7207 87.937 67.5069 87.7641C68.2754 87.5804 69.4504 87.1358 70.4546 85.9731C70.9535 85.4018 71.3896 84.6521 71.6141 83.7547C71.8713 82.8627 71.7773 81.8397 71.7891 80.7496C71.7832 78.5676 71.7762 76.085 71.7687 73.3419C71.7634 70.5961 71.7574 67.5899 71.7515 64.3635C71.7505 63.5564 71.7494 62.7358 71.7478 61.9023C71.7397 61.0651 71.7918 60.2204 71.5641 59.409C71.1603 57.778 69.9015 56.3184 68.2373 55.6944C67.8265 55.5263 67.3861 55.435 66.9431 55.3743C66.5011 55.3249 66.0425 55.3298 65.5747 55.3325C64.6457 55.3335 63.7059 55.3341 62.7565 55.3346C60.8565 55.3362 58.9173 55.3373 56.9427 55.3384C52.994 55.3394 48.9057 55.34 44.718 55.3411C43.6977 55.3529 42.6832 55.6294 41.8321 56.1745C41.4062 56.4419 41.012 56.7631 40.6828 57.1401C40.3424 57.5079 40.061 57.9268 39.844 58.3736C39.6126 58.8145 39.4729 59.2951 39.3736 59.7768C39.2801 60.2644 39.2753 60.751 39.2769 61.2579C39.2764 62.2621 39.2764 63.2583 39.2759 64.2459C39.2732 68.1951 39.2705 72.0047 39.2678 75.635C39.2656 77.449 39.2635 79.2185 39.2619 80.9381C39.2769 81.7989 39.2044 82.6506 39.3682 83.4481C39.5331 84.2477 39.8784 84.9936 40.351 85.6257C41.294 86.9011 42.7606 87.6787 44.2256 87.7974C45.7034 87.8495 47.1555 87.8167 48.5233 87.8312C54.0047 87.85 58.4437 87.8651 61.524 87.8758C63.0502 87.8871 64.2397 87.8957 65.0587 87.9016C65.455 87.908 65.76 87.9123 65.978 87.9155C66.1848 87.9204 66.2911 87.93 66.2911 87.93C66.2911 87.93 66.1848 87.9397 65.978 87.9445C65.76 87.9478 65.455 87.9521 65.0587 87.958C64.2397 87.9644 63.0502 87.973 61.524 87.9843C58.4437 87.995 54.0047 88.0101 48.5233 88.0288C47.1469 88.0208 45.7222 88.0605 44.2062 88.0122C42.6832 87.8946 41.1522 87.0907 40.1657 85.7648C39.6706 85.1075 39.3081 84.3304 39.1341 83.4953C38.9601 82.6501 39.0337 81.7919 39.0159 80.9381C39.0138 79.2185 39.0122 77.449 39.01 75.635C39.0073 72.0047 39.0047 68.1951 39.002 64.2459C39.0014 63.2583 39.0009 62.2621 39.0004 61.2579C38.9982 60.7623 39.0025 60.2349 39.1008 59.7263C39.2044 59.2194 39.3521 58.7141 39.5948 58.2501C39.8231 57.7802 40.1184 57.3398 40.4756 56.9537C40.8225 56.5569 41.236 56.2196 41.6838 55.9377C42.5785 55.3647 43.6461 55.0725 44.718 55.0613C48.9057 55.0623 52.994 55.0634 56.9427 55.0639C58.9173 55.0656 60.8565 55.0666 62.7565 55.0677C63.7059 55.0682 64.6457 55.0693 65.5747 55.0699C66.036 55.0677 66.5033 55.0629 66.9742 55.1155C67.4382 55.18 67.8995 55.2771 68.3297 55.4538C70.0717 56.1111 71.3837 57.6406 71.802 59.3472C72.0383 60.2038 71.9808 61.0786 71.9873 61.9023C71.9857 62.7358 71.9846 63.5564 71.9835 64.3635C71.9771 67.5899 71.9717 70.5961 71.9663 73.3419C71.9588 76.085 71.9518 78.5676 71.9454 80.7496C71.9261 81.8311 72.0141 82.8686 71.7429 83.7885C71.505 84.7058 71.0518 85.4673 70.5368 86.0446C69.4993 87.219 68.299 87.6513 67.5193 87.8189C67.1208 87.8957 66.8126 87.9306 66.6047 87.9284C66.3969 87.9343 66.2911 87.93 66.2911 87.93" fill="#17282F"/>
<path d="M48.4851 81.2446H44.3554V78.0832H48.4851V81.2446Z" fill="#3478F6"/>
<path d="M53.7118 81.2446H49.5821V70.7916H53.7118V81.2446Z" fill="#3478F6"/>
<path d="M59.4547 81.2446H55.3251V75.2918H59.4547V81.2446Z" fill="#3478F6"/>
<path d="M64.939 81.2446H60.8093V67.759H64.939V81.2446Z" fill="#3478F6"/>
<path d="M46.1424 71.2532C45.3052 71.2532 44.6237 71.9347 44.6237 72.7719C44.6237 73.6097 45.3052 74.2906 46.1424 74.2906C46.9797 74.2906 47.6611 73.6097 47.6611 72.7719C47.6611 71.9347 46.9797 71.2532 46.1424 71.2532ZM46.1424 74.8276C45.0088 74.8276 44.0867 73.9056 44.0867 72.7719C44.0867 71.6388 45.0088 70.7162 46.1424 70.7162C47.2755 70.7162 48.1981 71.6388 48.1981 72.7719C48.1981 73.9056 47.2755 74.8276 46.1424 74.8276Z" fill="#3478F6"/>
<path d="M52.0497 63.4305C51.2125 63.4305 50.531 64.1114 50.531 64.9492C50.531 65.7864 51.2125 66.4679 52.0497 66.4679C52.8869 66.4679 53.5684 65.7864 53.5684 64.9492C53.5684 64.1114 52.8869 63.4305 52.0497 63.4305ZM52.0497 67.0049C50.9166 67.0049 49.994 66.0823 49.994 64.9492C49.994 63.8155 50.9166 62.8935 52.0497 62.8935C53.1828 62.8935 54.1054 63.8155 54.1054 64.9492C54.1054 66.0823 53.1828 67.0049 52.0497 67.0049Z" fill="#3478F6"/>
<path d="M57.3931 68.3856C56.5559 68.3856 55.8744 69.0671 55.8744 69.9043C55.8744 70.7415 56.5559 71.4225 57.3931 71.4225C58.2303 71.4225 58.9118 70.7415 58.9118 69.9043C58.9118 69.0671 58.2303 68.3856 57.3931 68.3856ZM57.3931 71.9595C56.2595 71.9595 55.3374 71.0374 55.3374 69.9043C55.3374 68.7707 56.2595 67.8486 57.3931 67.8486C58.5268 67.8486 59.4488 68.7707 59.4488 69.9043C59.4488 71.0374 58.5268 71.9595 57.3931 71.9595Z" fill="#3478F6"/>
<path d="M63.1025 61.2025C62.2652 61.2025 61.5838 61.8839 61.5838 62.7211C61.5838 63.5589 62.2652 64.2398 63.1025 64.2398C63.9397 64.2398 64.6206 63.5589 64.6206 62.7211C64.6206 61.8839 63.9397 61.2025 63.1025 61.2025ZM63.1025 64.7769C61.9688 64.7769 61.0468 63.8548 61.0468 62.7211C61.0468 61.588 61.9688 60.6654 63.1025 60.6654C64.2356 60.6654 65.1576 61.588 65.1576 62.7211C65.1576 63.8548 64.2356 64.7769 63.1025 64.7769Z" fill="#3478F6"/>
<path d="M58.7915 68.9009L58.3517 68.5921L61.6683 63.8717L62.1076 64.1805L58.7915 68.9009Z" fill="#3478F6"/>
<path d="M55.7554 69.2124L53.2298 66.5719L53.6181 66.2008L56.1431 68.8413L55.7554 69.2124Z" fill="#3478F6"/>
<path d="M47.3432 71.4468L46.9189 71.1171L50.6432 66.3231L51.0674 66.6523L47.3432 71.4468" fill="#3478F6"/>
<path d="M68.1361 46.3599H58.0687C54.9888 46.3599 52.4922 43.8633 52.4922 40.7835V30.716C52.4922 27.6367 54.9888 25.1396 58.0687 25.1396H68.1361C71.216 25.1396 73.7125 27.6367 73.7125 30.716V40.7835C73.7125 43.8633 71.216 46.3599 68.1361 46.3599Z" fill="white"/>
<path d="M68.1364 46.36C68.1353 46.3418 68.4011 46.3471 68.8946 46.2741C69.3844 46.2043 70.119 46.033 70.9289 45.5416C71.728 45.061 72.6275 44.2452 73.1602 43.0117C73.4265 42.4006 73.5989 41.696 73.6161 40.9404C73.6285 40.1789 73.6134 39.3637 73.614 38.5136C73.6086 36.8086 73.6032 34.943 73.5968 32.9415C73.5957 32.441 73.5946 31.9314 73.593 31.4143C73.5882 30.8939 73.6091 30.3735 73.5162 29.8612C73.44 29.3457 73.2816 28.8333 73.0426 28.3538C72.8122 27.8705 72.5061 27.4135 72.1259 27.0155C71.3832 26.2019 70.3564 25.6236 69.2314 25.3835C68.6648 25.2718 68.0854 25.2718 67.4791 25.2751C66.8776 25.2756 66.2702 25.2761 65.6575 25.2767C63.2065 25.2777 60.6697 25.2788 58.071 25.2793C56.801 25.2858 55.5621 25.7385 54.6073 26.5236C53.6573 27.3152 53.001 28.4139 52.7497 29.583C52.6262 30.17 52.6251 30.7607 52.6278 31.3681C52.6273 31.969 52.6267 32.5651 52.6262 33.1547C52.6246 34.3335 52.623 35.4876 52.6214 36.6142C52.6192 37.7398 52.6176 38.838 52.6155 39.9051C52.6149 40.4405 52.6004 40.9662 52.6595 41.4651C52.7127 41.9699 52.8625 42.4495 53.037 42.907C53.8071 44.7275 55.4842 45.9148 57.1318 46.1753C57.9529 46.3138 58.774 46.251 59.5398 46.2714C60.3061 46.2752 61.0295 46.2784 61.7072 46.2816C63.0556 46.2913 64.2199 46.2988 65.1779 46.3058C66.1177 46.3171 66.8534 46.3257 67.3717 46.3321C67.6106 46.338 67.7991 46.3423 67.942 46.3461C68.0703 46.3504 68.1364 46.3552 68.1364 46.36C68.1364 46.3649 68.0703 46.3697 67.942 46.3745C67.7991 46.3778 67.6106 46.3826 67.3717 46.388C66.8534 46.3944 66.1177 46.4035 65.1779 46.4143C64.2199 46.4213 63.0556 46.4293 61.7072 46.4384C61.0295 46.4417 60.3061 46.4454 59.5398 46.4492C58.774 46.4352 57.9615 46.5077 57.098 46.3702C55.3892 46.1125 53.6358 44.8924 52.8233 42.9972C52.638 42.5214 52.4801 42.0215 52.4221 41.4946C52.3577 40.9657 52.3717 40.4362 52.3695 39.9051C52.3679 38.838 52.3657 37.7398 52.3636 36.6142C52.362 35.4876 52.3604 34.3335 52.3593 33.1547C52.3582 32.5651 52.3577 31.969 52.3572 31.3681C52.3529 30.7736 52.3523 30.1421 52.4817 29.5261C52.7438 28.2969 53.4323 27.1417 54.4295 26.3094C55.4321 25.4829 56.7365 25.0055 58.071 25.0001C60.6697 25.0012 63.2065 25.0017 65.6575 25.0028C66.2702 25.0033 66.8776 25.0039 67.4791 25.0044C68.0735 25.0017 68.6917 25.0028 69.2851 25.122C70.4654 25.376 71.5395 25.9861 72.3144 26.8399C72.7112 27.2577 73.0302 27.7378 73.2692 28.2448C73.5178 28.7474 73.6811 29.2834 73.759 29.8225C73.854 30.3628 73.8293 30.9019 73.8325 31.4143C73.8315 31.9314 73.8298 32.441 73.8288 32.9415C73.8229 34.943 73.817 36.8086 73.8116 38.5136C73.8052 39.3659 73.8132 40.1736 73.7939 40.9458C73.7692 41.725 73.5839 42.45 73.303 43.0751C72.7408 44.3381 71.8074 45.1598 70.9836 45.6356C70.1497 46.1216 69.3994 46.2773 68.9022 46.33C68.4017 46.3853 68.1364 46.36 68.1364 46.36" fill="#17282F"/>
<path d="M64.0238 35.6407C64.9281 35.2611 65.5715 34.3283 65.5763 33.2295C65.5822 31.7898 64.4931 30.6175 63.1431 30.6115C61.7935 30.6051 60.6943 31.7672 60.6884 33.207C60.6835 34.3159 61.3312 35.26 62.2457 35.6407C58.4844 36.2073 58.6547 40.2951 58.6547 40.2951L67.5493 40.3364C67.5493 40.3364 67.7523 36.2035 64.0238 35.6407" fill="#3478F6"/>
<path d="M58.6679 40.281L67.5363 40.3223C67.54 40.1993 67.5572 39.2252 67.1716 38.2027C66.9316 37.5642 66.5836 37.032 66.1379 36.6207C65.581 36.1067 64.8694 35.7813 64.0215 35.6535L63.9742 35.646L64.0183 35.6277C64.9516 35.2362 65.5579 34.2943 65.5633 33.2288C65.5686 31.7988 64.4828 30.6302 63.1424 30.6243H63.1316C62.4867 30.6243 61.8799 30.8907 61.4212 31.3756C60.9599 31.8632 60.7043 32.5135 60.7011 33.2058C60.6973 34.2836 61.3052 35.2335 62.2509 35.6277L62.295 35.646L62.2477 35.6535C61.3922 35.7818 60.6721 36.1056 60.1072 36.6158C59.655 37.0239 59.3 37.5513 59.0524 38.1839C58.6561 39.1962 58.6647 40.1596 58.6679 40.281V40.281ZM67.562 40.3486H67.5492L58.6422 40.3078L58.6416 40.2949C58.6411 40.2847 58.6035 39.2579 59.0272 38.1748C59.2759 37.5384 59.6335 37.0073 60.0884 36.5965C60.6474 36.0917 61.3568 35.7679 62.1972 35.6336C61.2666 35.2255 60.6699 34.2776 60.6748 33.2058C60.6775 32.5066 60.9358 31.8498 61.4019 31.3573C61.8654 30.867 62.4792 30.5974 63.1316 30.5974H63.1424C64.4978 30.6033 65.5955 31.7843 65.5896 33.2288C65.5847 34.2889 64.9903 35.2276 64.0714 35.6336C64.9049 35.7673 65.6057 36.0928 66.1567 36.6013C66.6051 37.0154 66.9552 37.5513 67.1974 38.1941C67.6088 39.2875 67.5631 40.3255 67.5626 40.3363L67.562 40.3486" fill="#17282F"/>
<path d="M70.2967 139.696H57.2922C54.2124 139.696 51.7153 137.199 51.7153 134.119V121.114C51.7153 118.035 54.2124 115.538 57.2922 115.538H70.2967C73.3765 115.538 75.8731 118.035 75.8731 121.114V134.119C75.8731 137.199 73.3765 139.696 70.2967 139.696Z" fill="white"/>
<path d="M70.2967 139.696C70.2951 139.672 70.6039 139.693 71.1726 139.592C71.7338 139.491 72.5812 139.267 73.4738 138.631C74.3555 138.008 75.2755 136.923 75.6358 135.411C75.8318 134.662 75.7824 133.827 75.7846 132.937C75.7813 132.05 75.7781 131.113 75.7743 130.128C75.769 128.158 75.7636 126.001 75.7572 123.687C75.7561 123.108 75.755 122.519 75.7539 121.922C75.7443 121.32 75.7813 120.717 75.6562 120.127C75.4328 118.946 74.8104 117.79 73.8293 116.972C72.8616 116.145 71.5716 115.663 70.2355 115.672C68.8726 115.673 67.4812 115.674 66.0645 115.675C63.2312 115.676 60.2985 115.677 57.2939 115.678C55.8241 115.669 54.3919 116.291 53.4011 117.32C52.3979 118.341 51.8485 119.744 51.8523 121.128C51.8496 123.962 51.8469 126.695 51.8443 129.299C51.8426 130.601 51.8405 131.87 51.8383 133.104C51.8421 133.723 51.8126 134.331 51.8985 134.906C51.9758 135.486 52.1493 136.045 52.407 136.549C52.9054 137.57 53.7174 138.376 54.6319 138.896C55.5567 139.411 56.5738 139.624 57.5495 139.597C61.4768 139.616 64.6597 139.631 66.877 139.642C67.9666 139.653 68.8183 139.661 69.4128 139.668C69.6921 139.674 69.9106 139.678 70.0723 139.682C70.2205 139.686 70.2967 139.691 70.2967 139.696C70.2967 139.701 70.2205 139.705 70.0723 139.71C69.9106 139.714 69.6921 139.718 69.4128 139.724C68.8183 139.73 67.9666 139.739 66.877 139.751C64.6597 139.761 61.4773 139.776 57.5495 139.795C56.5582 139.83 55.4868 139.615 54.5267 139.084C53.5729 138.549 52.7244 137.715 52.1998 136.653C51.9286 136.127 51.7449 135.546 51.6617 134.94C51.5698 134.33 51.5983 133.717 51.5924 133.104C51.5908 131.87 51.5886 130.601 51.5865 129.299C51.5843 126.695 51.5816 123.962 51.5784 121.128C51.572 119.677 52.1487 118.199 53.2018 117.127C54.242 116.044 55.7495 115.389 57.2939 115.398C60.2985 115.399 63.2312 115.4 66.0645 115.401C67.4812 115.402 68.8726 115.403 70.2355 115.404C71.6302 115.397 72.9878 115.907 73.9968 116.776C75.0209 117.636 75.6696 118.847 75.8984 120.082C76.0262 120.705 75.9854 121.33 75.9929 121.922C75.9918 122.519 75.9902 123.108 75.9891 123.687C75.9832 126.001 75.9773 128.158 75.972 130.128C75.9687 131.113 75.9655 132.05 75.9623 132.937C75.9532 133.817 75.9972 134.675 75.7878 135.449C75.4016 136.999 74.4452 138.099 73.5366 138.721C72.6167 139.355 71.751 139.564 71.1812 139.647C70.8934 139.697 70.6711 139.697 70.5218 139.699C70.373 139.702 70.2967 139.701 70.2967 139.696" fill="#17282F"/>
<path d="M64.8428 127.492C65.8728 127.061 66.6048 125.999 66.6107 124.748C66.6177 123.109 65.3772 121.774 63.8402 121.767C62.3038 121.76 61.0526 123.083 61.0456 124.722C61.0407 125.985 61.7781 127.059 62.8188 127.492C58.5366 128.138 58.731 132.792 58.731 132.792L68.857 132.838C68.857 132.838 69.0874 128.134 64.8428 127.492" fill="#3478F6"/>
<path d="M98.9504 37.2809C96.8828 37.2809 94.9582 38.6019 94.2901 40.6722C93.4615 43.2402 94.8765 46.0026 97.4435 46.8312C100.013 47.6604 102.775 46.2448 103.603 43.6773C104.432 41.1093 103.017 38.3463 100.45 37.5177C99.9519 37.3577 99.4471 37.2809 98.9504 37.2809V37.2809ZM98.9423 48.1421C98.3365 48.1421 97.7211 48.0497 97.1143 47.8537C93.9829 46.8436 92.2575 43.4738 93.2676 40.3419C94.2783 37.2111 97.6476 35.4851 100.779 36.4958C102.297 36.9855 103.531 38.0359 104.258 39.4547C104.984 40.8735 105.115 42.49 104.626 44.007C103.811 46.5316 101.463 48.1421 98.9423 48.1421Z" fill="#17282F"/>
<path d="M106.841 51.728C106.696 51.728 106.551 51.6695 106.445 51.554L102.01 46.7241C101.809 46.5061 101.824 46.1661 102.042 45.9658C102.26 45.7655 102.601 45.7789 102.801 45.998L107.236 50.8274C107.437 51.046 107.422 51.3854 107.204 51.5862C107.101 51.6808 106.971 51.728 106.841 51.728Z" fill="#17282F"/>
<path d="M107.839 87.8666C102.647 87.8666 98.4232 92.0908 98.4232 97.2832C98.4232 102.475 102.647 106.699 107.839 106.699C113.031 106.699 117.255 102.475 117.255 97.2832C117.255 92.0908 113.031 87.8666 107.839 87.8666ZM107.839 107.236C102.351 107.236 97.8862 102.771 97.8862 97.2832C97.8862 91.7949 102.351 87.3296 107.839 87.3296C113.327 87.3296 117.792 91.7949 117.792 97.2832C117.792 102.771 113.327 107.236 107.839 107.236Z" fill="#3478F6"/>
<path d="M107.54 107.204C107.487 107.175 106.226 106.463 104.988 104.855C103.849 103.376 102.52 100.827 102.658 97.0813C102.796 93.3399 104.218 90.9002 105.385 89.512C106.657 88.0003 107.888 87.3844 107.94 87.3591L108.178 87.8408C108.13 87.8639 103.448 90.2617 103.195 97.1017C102.944 103.938 107.753 106.707 107.801 106.735L107.54 107.204" fill="#3478F6"/>
<path d="M107.98 107.198L107.698 106.741C107.745 106.712 112.403 103.742 112.15 96.8967C111.898 90.0626 107.415 87.8645 107.37 87.8425L107.598 87.3571C107.796 87.4494 112.423 89.7001 112.687 96.8768C112.951 104.046 108.03 107.167 107.98 107.198" fill="#3478F6"/>
<path d="M107.971 94.1274C103.939 94.1274 101.341 92.7586 99.872 91.6104L100.202 91.1873C101.606 92.2833 104.092 93.5904 107.971 93.5904C111.724 93.5904 114.102 92.2903 115.437 91.1996L115.777 91.6153C114.375 92.7613 111.882 94.1274 107.971 94.1274Z" fill="#3478F6"/>
<path d="M115.462 103.085C114.059 102.021 111.571 100.753 107.69 100.753C103.936 100.753 101.556 102.015 100.221 103.073L99.8871 102.652C101.289 101.541 103.781 100.216 107.69 100.216C111.72 100.216 114.317 101.543 115.787 102.657L115.462 103.085" fill="#3478F6"/>
<path d="M117.537 97.582H98.3957V97.045H117.537V97.582Z" fill="#3478F6"/>
<path d="M152.961 56.493C153.785 59.3709 151.911 62.1865 148.962 62.1865H133.452C130.941 62.1865 128.975 59.7603 129.693 57.3147C129.731 57.1842 129.775 57.0575 129.826 56.9356C130.527 55.2278 132.489 54.1624 134.276 54.519C134.703 51.3747 137.411 48.7025 140.515 48.361C143.62 48.0194 146.827 50.0408 147.906 53.0196C147.906 53.0196 151.903 52.8027 152.961 56.493Z" fill="#3478F6"/>
<path d="M139.845 64.936V58.9816H137.512C137.239 58.9816 137.079 58.6733 137.237 58.4499L141.077 53.0314C141.211 52.8424 141.492 52.8418 141.626 53.0309L145.461 58.4059C145.621 58.6287 145.461 58.9386 145.187 58.9386H142.917V64.936H139.845" fill="white"/>
<rect x="190" width="48" height="176" fill="#3478F6" fill-opacity="0.2"/>
<path d="M204.492 4V-4.12L202.728 -3.63L202.364 -5.03L204.996 -5.87H206.2V4H204.492Z" fill="#3478F6"/>
<path d="M207.054 30.168C205.785 30.168 204.758 29.6873 203.974 28.726C203.19 27.7553 202.798 26.5467 202.798 25.1C202.798 23.672 203.195 22.4727 203.988 21.502C204.791 20.522 205.822 20.032 207.082 20.032C208.342 20.032 209.364 20.5173 210.148 21.488C210.941 22.4587 211.338 23.6627 211.338 25.1C211.338 26.528 210.937 27.732 210.134 28.712C209.341 29.6827 208.314 30.168 207.054 30.168ZM205.262 27.606C205.729 28.278 206.335 28.614 207.082 28.614C207.829 28.614 208.426 28.2827 208.874 27.62C209.331 26.948 209.56 26.108 209.56 25.1C209.56 24.1107 209.327 23.28 208.86 22.608C208.393 21.9267 207.791 21.586 207.054 21.586C206.307 21.586 205.705 21.922 205.248 22.594C204.8 23.2567 204.576 24.092 204.576 25.1C204.576 26.0893 204.805 26.9247 205.262 27.606Z" fill="#3478F6"/>
<path d="M204.492 56V47.88L202.728 48.37L202.364 46.97L204.996 46.13H206.2V56H204.492Z" fill="#3478F6"/>
<path d="M207.054 82.168C205.785 82.168 204.758 81.6873 203.974 80.726C203.19 79.7553 202.798 78.5467 202.798 77.1C202.798 75.672 203.195 74.4727 203.988 73.502C204.791 72.522 205.822 72.032 207.082 72.032C208.342 72.032 209.364 72.5173 210.148 73.488C210.941 74.4587 211.338 75.6627 211.338 77.1C211.338 78.528 210.937 79.732 210.134 80.712C209.341 81.6827 208.314 82.168 207.054 82.168ZM205.262 79.606C205.729 80.278 206.335 80.614 207.082 80.614C207.829 80.614 208.426 80.2827 208.874 79.62C209.331 78.948 209.56 78.108 209.56 77.1C209.56 76.1107 209.327 75.28 208.86 74.608C208.393 73.9267 207.791 73.586 207.054 73.586C206.307 73.586 205.705 73.922 205.248 74.594C204.8 75.2567 204.576 76.092 204.576 77.1C204.576 78.0893 204.805 78.9247 205.262 79.606Z" fill="#3478F6"/>
<path d="M204.492 108V99.88L202.728 100.37L202.364 98.97L204.996 98.13H206.2V108H204.492Z" fill="#3478F6"/>
<path d="M207.054 134.168C205.785 134.168 204.758 133.687 203.974 132.726C203.19 131.755 202.798 130.547 202.798 129.1C202.798 127.672 203.195 126.473 203.988 125.502C204.791 124.522 205.822 124.032 207.082 124.032C208.342 124.032 209.364 124.517 210.148 125.488C210.941 126.459 211.338 127.663 211.338 129.1C211.338 130.528 210.937 131.732 210.134 132.712C209.341 133.683 208.314 134.168 207.054 134.168ZM205.262 131.606C205.729 132.278 206.335 132.614 207.082 132.614C207.829 132.614 208.426 132.283 208.874 131.62C209.331 130.948 209.56 130.108 209.56 129.1C209.56 128.111 209.327 127.28 208.86 126.608C208.393 125.927 207.791 125.586 207.054 125.586C206.307 125.586 205.705 125.922 205.248 126.594C204.8 127.257 204.576 128.092 204.576 129.1C204.576 130.089 204.805 130.925 205.262 131.606Z" fill="#3478F6"/>
<path d="M204.492 160V151.88L202.728 152.37L202.364 150.97L204.996 150.13H206.2V160H204.492Z" fill="#3478F6"/>
<path d="M220.492 17V8.88L218.728 9.37L218.364 7.97L220.996 7.13H222.2V17H220.492Z" fill="#3478F6"/>
<path d="M220.492 43V34.88L218.728 35.37L218.364 33.97L220.996 33.13H222.2V43H220.492Z" fill="#3478F6"/>
<path d="M223.054 69.168C221.785 69.168 220.758 68.6873 219.974 67.726C219.19 66.7553 218.798 65.5467 218.798 64.1C218.798 62.672 219.195 61.4727 219.988 60.502C220.791 59.522 221.822 59.032 223.082 59.032C224.342 59.032 225.364 59.5173 226.148 60.488C226.941 61.4587 227.338 62.6627 227.338 64.1C227.338 65.528 226.937 66.732 226.134 67.712C225.341 68.6827 224.314 69.168 223.054 69.168ZM221.262 66.606C221.729 67.278 222.335 67.614 223.082 67.614C223.829 67.614 224.426 67.2827 224.874 66.62C225.331 65.948 225.56 65.108 225.56 64.1C225.56 63.1107 225.327 62.28 224.86 61.608C224.393 60.9267 223.791 60.586 223.054 60.586C222.307 60.586 221.705 60.922 221.248 61.594C220.8 62.2567 220.576 63.092 220.576 64.1C220.576 65.0893 220.805 65.9247 221.262 66.606Z" fill="#3478F6"/>
<path d="M220.492 95V86.88L218.728 87.37L218.364 85.97L220.996 85.13H222.2V95H220.492Z" fill="#3478F6"/>
<path d="M223.054 121.168C221.785 121.168 220.758 120.687 219.974 119.726C219.19 118.755 218.798 117.547 218.798 116.1C218.798 114.672 219.195 113.473 219.988 112.502C220.791 111.522 221.822 111.032 223.082 111.032C224.342 111.032 225.364 111.517 226.148 112.488C226.941 113.459 227.338 114.663 227.338 116.1C227.338 117.528 226.937 118.732 226.134 119.712C225.341 120.683 224.314 121.168 223.054 121.168ZM221.262 118.606C221.729 119.278 222.335 119.614 223.082 119.614C223.829 119.614 224.426 119.283 224.874 118.62C225.331 117.948 225.56 117.108 225.56 116.1C225.56 115.111 225.327 114.28 224.86 113.608C224.393 112.927 223.791 112.586 223.054 112.586C222.307 112.586 221.705 112.922 221.248 113.594C220.8 114.257 220.576 115.092 220.576 116.1C220.576 117.089 220.805 117.925 221.262 118.606Z" fill="#3478F6"/>
<path d="M220.492 147V138.88L218.728 139.37L218.364 137.97L220.996 137.13H222.2V147H220.492Z" fill="#3478F6"/>
<path d="M223.054 173.168C221.785 173.168 220.758 172.687 219.974 171.726C219.19 170.755 218.798 169.547 218.798 168.1C218.798 166.672 219.195 165.473 219.988 164.502C220.791 163.522 221.822 163.032 223.082 163.032C224.342 163.032 225.364 163.517 226.148 164.488C226.941 165.459 227.338 166.663 227.338 168.1C227.338 169.528 226.937 170.732 226.134 171.712C225.341 172.683 224.314 173.168 223.054 173.168ZM221.262 170.606C221.729 171.278 222.335 171.614 223.082 171.614C223.829 171.614 224.426 171.283 224.874 170.62C225.331 169.948 225.56 169.108 225.56 168.1C225.56 167.111 225.327 166.28 224.86 165.608C224.393 164.927 223.791 164.586 223.054 164.586C222.307 164.586 221.705 164.922 221.248 165.594C220.8 166.257 220.576 167.092 220.576 168.1C220.576 169.089 220.805 169.925 221.262 170.606Z" fill="#3478F6"/>
<path d="M308.633 93.1081C308.633 93.2443 306.102 93.355 302.98 93.355C299.856 93.355 297.327 93.2443 297.327 93.1081C297.327 92.9728 299.856 92.8622 302.98 92.8622C306.102 92.8622 308.633 92.9728 308.633 93.1081Z" fill="#17282F"/>
<path d="M325.594 93.1081C325.594 93.2443 324.326 93.355 322.758 93.355C321.192 93.355 319.922 93.2443 319.922 93.1081C319.922 92.9728 321.192 92.8622 322.758 92.8622C324.326 92.8622 325.594 92.9728 325.594 93.1081Z" fill="#17282F"/>
<path d="M464.985 131.565H291.246V51.2472H464.985V131.565Z" fill="#FAFAF9"/>
<path d="M464.985 131.565C464.985 131.565 464.973 131.072 464.966 130.13C464.962 129.181 464.955 127.785 464.948 125.956C464.937 122.288 464.921 116.895 464.902 109.952C464.879 96.0782 464.846 76.0202 464.806 51.247L464.985 51.4267C419.911 51.4437 358.648 51.4674 291.259 51.4929H291.246L291.493 51.247C291.488 79.4953 291.484 106.665 291.48 131.564L291.246 131.332C341.806 131.376 385.21 131.415 415.984 131.442C431.383 131.471 443.62 131.492 452.017 131.507C456.213 131.52 459.446 131.529 461.642 131.536C462.733 131.542 463.564 131.547 464.131 131.551C464.692 131.555 464.985 131.565 464.985 131.565C464.985 131.565 464.711 131.575 464.16 131.579C463.599 131.582 462.777 131.587 461.699 131.594C459.514 131.6 456.295 131.61 452.121 131.623C443.737 131.637 431.518 131.66 416.141 131.687C385.328 131.715 341.87 131.753 291.246 131.798L291.013 131.799V131.564C291.009 106.665 291.005 79.4953 291 51.247V51.0001H291.246H291.259C358.648 51.0266 419.911 51.0503 464.985 51.0673L465.165 51.0682L465.164 51.247C465.124 76.0665 465.091 96.1614 465.068 110.061C465.049 116.987 465.034 122.367 465.023 126.025C465.015 127.839 465.008 129.225 465.003 130.166C464.998 131.098 464.985 131.565 464.985 131.565" fill="#17282F"/>
<path d="M303.469 106.727V109.263H303.207V106.959H302.611V106.727H303.469" fill="#17282F"/>
<path d="M305.834 107.994C305.834 107.316 305.53 106.944 305.088 106.944C304.646 106.944 304.342 107.316 304.342 107.994C304.342 108.672 304.646 109.044 305.088 109.044C305.53 109.044 305.834 108.672 305.834 107.994ZM304.077 107.994C304.077 107.187 304.501 106.704 305.088 106.704C305.674 106.704 306.102 107.187 306.102 107.994C306.102 108.802 305.674 109.284 305.088 109.284C304.501 109.284 304.077 108.802 304.077 107.994Z" fill="#17282F"/>
<path d="M304.499 93.2639V93.4956H302.719V93.3112L303.773 92.2783C304.06 91.9964 304.114 91.8262 304.114 91.6521C304.114 91.3579 303.907 91.1773 303.521 91.1773C303.223 91.1773 302.995 91.2681 302.828 91.4601L302.644 91.3003C302.839 91.0685 303.155 90.938 303.541 90.938C304.056 90.938 304.382 91.199 304.382 91.6228C304.382 91.8659 304.307 92.0825 303.965 92.4164L303.103 93.2639H304.499" fill="#17282F"/>
<path d="M306.57 92.2274C306.57 91.5502 306.266 91.1765 305.824 91.1765C305.382 91.1765 305.077 91.5502 305.077 92.2274C305.077 92.9046 305.382 93.2773 305.824 93.2773C306.266 93.2773 306.57 92.9046 306.57 92.2274ZM304.814 92.2274C304.814 91.4196 305.237 90.9372 305.824 90.9372C306.41 90.9372 306.838 91.4196 306.838 92.2274C306.838 93.0352 306.41 93.5166 305.824 93.5166C305.237 93.5166 304.814 93.0352 304.814 92.2274Z" fill="#17282F"/>
<path d="M304.444 76.9999C304.444 77.4237 304.135 77.75 303.523 77.75C303.158 77.75 302.806 77.6233 302.611 77.4237L302.737 77.2175C302.9 77.3877 303.194 77.5107 303.523 77.5107C303.944 77.5107 304.176 77.3159 304.176 76.9999C304.176 76.6963 303.961 76.4967 303.49 76.4967H303.31V76.3047L304.012 75.4241H302.716V75.1924H304.346V75.3768L303.628 76.2792C304.172 76.3085 304.444 76.5942 304.444 76.9999" fill="#17282F"/>
<path d="M306.57 76.4608C306.57 75.7835 306.266 75.4099 305.824 75.4099C305.382 75.4099 305.077 75.7835 305.077 76.4608C305.077 77.138 305.382 77.5107 305.824 77.5107C306.266 77.5107 306.57 77.138 306.57 76.4608ZM304.814 76.4608C304.814 75.653 305.237 75.1706 305.824 75.1706C306.41 75.1706 306.838 75.653 306.838 76.4608C306.838 77.2685 306.41 77.75 305.824 77.75C305.237 77.75 304.814 77.2685 304.814 76.4608Z" fill="#17282F"/>
<path d="M316.42 116.313C316.42 115.635 316.117 115.262 315.674 115.262C315.232 115.262 314.928 115.635 314.928 116.313C314.928 116.989 315.232 117.363 315.674 117.363C316.117 117.363 316.42 116.989 316.42 116.313ZM314.664 116.313C314.664 115.505 315.088 115.023 315.674 115.023C316.26 115.023 316.688 115.505 316.688 116.313C316.688 117.121 316.26 117.602 315.674 117.602C315.088 117.602 314.664 117.121 314.664 116.313Z" fill="#17282F"/>
<path d="M333.434 115.045V117.581H333.172V115.277H332.574V115.045H333.434Z" fill="#17282F"/>
<path d="M353.217 117.349V117.581H351.438V117.397L352.492 116.364C352.778 116.082 352.832 115.911 352.832 115.738C352.832 115.443 352.626 115.263 352.238 115.263C351.941 115.263 351.713 115.354 351.547 115.546L351.362 115.386C351.557 115.154 351.873 115.023 352.26 115.023C352.775 115.023 353.1 115.285 353.1 115.708C353.1 115.95 353.024 116.168 352.684 116.502L351.822 117.349H353.217" fill="#17282F"/>
<path d="M371.917 116.852C371.917 117.276 371.608 117.602 370.996 117.602C370.63 117.602 370.28 117.475 370.084 117.276L370.21 117.07C370.373 117.24 370.667 117.363 370.996 117.363C371.417 117.363 371.649 117.167 371.649 116.852C371.649 116.548 371.434 116.349 370.963 116.349H370.783V116.157L371.485 115.276H370.189V115.044H371.819V115.229L371.101 116.131C371.645 116.161 371.917 116.446 371.917 116.852" fill="#17282F"/>
<path d="M391.149 116.914H390.642V117.581H390.382V116.914H388.951V116.726L390.295 115.045H390.585L389.288 116.682H390.389V116.096H390.642V116.682H391.149V116.914" fill="#17282F"/>
<path d="M409.47 116.834C409.47 117.265 409.169 117.602 408.551 117.602C408.185 117.602 407.837 117.475 407.641 117.276L407.767 117.07C407.93 117.24 408.221 117.363 408.547 117.363C408.977 117.363 409.206 117.153 409.206 116.845C409.206 116.519 409.003 116.317 408.358 116.317H407.818L407.949 115.044H409.337V115.276H408.177L408.09 116.084H408.416C409.181 116.084 409.47 116.385 409.47 116.834Z" fill="#17282F"/>
<path d="M428.152 116.83C428.152 116.497 427.906 116.284 427.514 116.284C427.127 116.284 426.862 116.523 426.862 116.838C426.862 117.117 427.094 117.382 427.533 117.382C427.899 117.382 428.152 117.167 428.152 116.83ZM428.41 116.824C428.41 117.297 428.036 117.602 427.544 117.602C426.87 117.602 426.504 117.135 426.504 116.335C426.504 115.472 426.975 115.023 427.664 115.023C427.891 115.023 428.104 115.062 428.264 115.16L428.159 115.371C428.029 115.284 427.856 115.251 427.666 115.251C427.12 115.251 426.768 115.603 426.768 116.291L426.779 116.497C426.906 116.218 427.203 116.062 427.554 116.062C428.058 116.062 428.41 116.359 428.41 116.824" fill="#17282F"/>
<path d="M447.048 115.045V115.23L445.987 117.581H445.704L446.747 115.277H445.443V115.752H445.186V115.045H447.048Z" fill="#17282F"/>
<path d="M447.183 108.116C447.183 108.253 417.832 108.363 381.634 108.363C345.423 108.363 316.079 108.253 316.079 108.116C316.079 107.981 345.423 107.87 381.634 107.87C417.832 107.87 447.183 107.981 447.183 108.116Z" fill="#17282F"/>
<path d="M447.183 92.2678C447.183 92.404 417.832 92.5137 381.634 92.5137C345.423 92.5137 316.079 92.404 316.079 92.2678C316.079 92.1316 345.423 92.0218 381.634 92.0218C417.832 92.0218 447.183 92.1316 447.183 92.2678Z" fill="#17282F"/>
<path d="M447.183 76.4186C447.183 76.5549 417.832 76.6655 381.634 76.6655C345.423 76.6655 316.079 76.5549 316.079 76.4186C316.079 76.2824 345.423 76.1727 381.634 76.1727C417.832 76.1727 447.183 76.2824 447.183 76.4186Z" fill="#17282F"/>
<path d="M316.079 107.884C316.079 108.35 315.701 108.726 315.237 108.726C314.772 108.726 314.395 108.35 314.395 107.884C314.395 107.419 314.772 107.042 315.237 107.042C315.701 107.042 316.079 107.419 316.079 107.884Z" fill="#70A2FF"/>
<path d="M334.929 107.884C334.929 108.35 334.552 108.726 334.086 108.726C333.622 108.726 333.244 108.35 333.244 107.884C333.244 107.419 333.622 107.042 334.086 107.042C334.552 107.042 334.929 107.419 334.929 107.884Z" fill="#70A2FF"/>
<path d="M353.777 107.884C353.777 108.35 353.401 108.726 352.936 108.726C352.47 108.726 352.094 108.35 352.094 107.884C352.094 107.419 352.47 107.042 352.936 107.042C353.401 107.042 353.777 107.419 353.777 107.884Z" fill="#70A2FF"/>
<path d="M372.627 107.884C372.627 108.35 372.251 108.726 371.785 108.726C371.32 108.726 370.944 108.35 370.944 107.884C370.944 107.419 371.32 107.042 371.785 107.042C372.251 107.042 372.627 107.419 372.627 107.884Z" fill="#70A2FF"/>
<path d="M391.477 107.884C391.477 108.35 391.1 108.726 390.635 108.726C390.17 108.726 389.793 108.35 389.793 107.884C389.793 107.419 390.17 107.042 390.635 107.042C391.1 107.042 391.477 107.419 391.477 107.884Z" fill="#70A2FF"/>
<path d="M429.176 107.884C429.176 108.35 428.799 108.726 428.334 108.726C427.869 108.726 427.492 108.35 427.492 107.884C427.492 107.419 427.869 107.042 428.334 107.042C428.799 107.042 429.176 107.419 429.176 107.884Z" fill="#70A2FF"/>
<path d="M410.326 107.884C410.326 108.35 409.949 108.726 409.485 108.726C409.019 108.726 408.642 108.35 408.642 107.884C408.642 107.419 409.019 107.042 409.485 107.042C409.949 107.042 410.326 107.419 410.326 107.884Z" fill="#70A2FF"/>
<path d="M448.026 107.884C448.026 108.35 447.648 108.726 447.184 108.726C446.719 108.726 446.342 108.35 446.342 107.884C446.342 107.419 446.719 107.042 447.184 107.042C447.648 107.042 448.026 107.419 448.026 107.884Z" fill="#70A2FF"/>
<path d="M324.668 108.118C324.668 108.423 324.42 108.67 324.116 108.67C323.81 108.67 323.562 108.423 323.562 108.118C323.562 107.812 323.81 107.565 324.116 107.565C324.42 107.565 324.668 107.812 324.668 108.118Z" fill="#DADBD8"/>
<path d="M343.589 108.118C343.589 108.423 343.341 108.67 343.036 108.67C342.731 108.67 342.484 108.423 342.484 108.118C342.484 107.812 342.731 107.565 343.036 107.565C343.341 107.565 343.589 107.812 343.589 108.118Z" fill="#DADBD8"/>
<path d="M362.509 108.118C362.509 108.423 362.261 108.67 361.957 108.67C361.651 108.67 361.404 108.423 361.404 108.118C361.404 107.812 361.651 107.565 361.957 107.565C362.261 107.565 362.509 107.812 362.509 108.118Z" fill="#DADBD8"/>
<path d="M381.43 108.118C381.43 108.423 381.182 108.67 380.877 108.67C380.571 108.67 380.325 108.423 380.325 108.118C380.325 107.812 380.571 107.565 380.877 107.565C381.182 107.565 381.43 107.812 381.43 108.118Z" fill="#DADBD8"/>
<path d="M400.351 108.118C400.351 108.423 400.103 108.67 399.798 108.67C399.492 108.67 399.245 108.423 399.245 108.118C399.245 107.812 399.492 107.565 399.798 107.565C400.103 107.565 400.351 107.812 400.351 108.118Z" fill="#DADBD8"/>
<path d="M419.271 108.118C419.271 108.423 419.024 108.67 418.719 108.67C418.413 108.67 418.166 108.423 418.166 108.118C418.166 107.812 418.413 107.565 418.719 107.565C419.024 107.565 419.271 107.812 419.271 108.118Z" fill="#DADBD8"/>
<path d="M438.191 108.118C438.191 108.423 437.944 108.67 437.639 108.67C437.333 108.67 437.085 108.423 437.085 108.118C437.085 107.812 437.333 107.565 437.639 107.565C437.944 107.565 438.191 107.812 438.191 108.118Z" fill="#DADBD8"/>
<path d="M336.152 101.11C336.152 102.251 335.227 103.176 334.086 103.176C332.946 103.176 332.021 102.251 332.021 101.11C332.021 99.9693 332.946 99.0452 334.086 99.0452C335.227 99.0452 336.152 99.9693 336.152 101.11Z" fill="#70A2FF"/>
<path d="M352.597 91.4059C352.597 92.5466 351.673 93.4707 350.532 93.4707C349.392 93.4707 348.467 92.5466 348.467 91.4059C348.467 90.2661 349.392 89.3411 350.532 89.3411C351.673 89.3411 352.597 90.2661 352.597 91.4059Z" fill="#70A2FF"/>
<path d="M373.008 92.2682C373.008 93.4079 372.085 94.333 370.944 94.333C369.803 94.333 368.878 93.4079 368.878 92.2682C368.878 91.1275 369.803 90.2033 370.944 90.2033C372.085 90.2033 373.008 91.1275 373.008 92.2682Z" fill="#70A2FF"/>
<path d="M392.936 74.6261C392.936 75.7659 392.012 76.6909 390.871 76.6909C389.731 76.6909 388.806 75.7659 388.806 74.6261C388.806 73.4854 389.731 72.5613 390.871 72.5613C392.012 72.5613 392.936 73.4854 392.936 74.6261Z" fill="#70A2FF"/>
<path d="M411.549 85.8458C411.549 86.9856 410.625 87.9106 409.485 87.9106C408.344 87.9106 407.419 86.9856 407.419 85.8458C407.419 84.7051 408.344 83.781 409.485 83.781C410.625 83.781 411.549 84.7051 411.549 85.8458Z" fill="#70A2FF"/>
<path d="M430.399 88.8341C430.399 89.9739 429.475 90.8989 428.334 90.8989C427.193 90.8989 426.269 89.9739 426.269 88.8341C426.269 87.6934 427.193 86.7693 428.334 86.7693C429.475 86.7693 430.399 87.6934 430.399 88.8341Z" fill="#70A2FF"/>
<path d="M448.026 101.11C448.026 101.11 447.861 101.129 447.541 101.109C447.222 101.087 446.746 101.047 446.133 100.921C444.926 100.672 443.065 100.152 441.23 98.5919C440.318 97.82 439.483 96.7493 438.821 95.4582C438.155 94.1898 437.354 92.8448 436.299 91.5527C435.235 90.2995 433.863 89.0169 432.038 88.5799C431.138 88.3623 430.16 88.4002 429.219 88.6811C428.278 88.9734 427.396 89.4917 426.602 90.1614C424.997 91.5036 423.815 93.4104 422.256 95.1413C421.476 96.0011 420.569 96.8392 419.426 97.3433C418.287 97.8352 416.966 97.9875 415.704 97.6488C414.414 97.3036 413.433 96.2234 412.872 95.0477C412.288 93.8616 411.963 92.5724 411.65 91.2841C411.332 89.9996 411.074 88.6688 410.526 87.4647C410.252 86.8707 409.871 86.3136 409.321 86.0185C408.757 85.713 408.085 85.6449 407.415 85.6486C406.056 85.7186 404.689 86.1112 403.27 86.3798C402.559 86.5065 401.835 86.6333 401.085 86.6295C400.343 86.6314 399.562 86.5434 398.861 86.1963C398.132 85.904 397.576 85.3195 397.097 84.7198C396.671 84.087 396.303 83.4155 396.018 82.7136C395.42 81.3185 395.022 79.8562 394.481 78.4497C394.199 77.7563 393.902 77.0611 393.483 76.4539C393.062 75.8523 392.516 75.3482 391.847 75.0918C391.675 75.0417 391.507 74.9783 391.332 74.9367L390.788 74.8856C390.429 74.8648 390.097 74.9339 389.781 75.0918C389.15 75.4125 388.671 76.0283 388.271 76.6677C387.49 77.9852 386.973 79.4863 386.52 81.0016C386.07 82.5216 385.693 84.0776 385.328 85.6477C384.725 88.2469 384.188 90.8396 383.519 93.3773C383.182 94.6448 382.819 95.9018 382.359 97.123C381.887 98.3327 381.349 99.5529 380.401 100.524C379.918 100.99 379.26 101.354 378.54 101.349C377.852 101.349 377.197 101.104 376.634 100.771C375.502 100.089 374.668 99.0856 373.957 98.0612C372.529 95.9964 371.612 93.697 370.724 91.4979C369.82 89.3205 368.801 87.1658 367.113 85.6893C365.462 84.2223 363.086 83.6765 361.054 84.2109C360.028 84.4682 359.059 84.9269 358.17 85.4803C357.27 86.0166 356.438 86.6437 355.653 87.3001C354.083 88.6149 352.679 90.0535 351.45 91.5281L351.442 91.5376L351.438 91.5414C349.426 93.5504 347.32 95.253 345.213 96.7143C343.101 98.1681 340.969 99.3618 338.835 100.17C336.706 100.957 334.566 101.423 332.593 101.209C330.633 101.018 328.909 100.484 327.393 99.9511C324.364 98.852 322.14 97.6668 320.64 96.8628C319.893 96.4533 319.33 96.125 318.956 95.8971C318.581 95.6691 318.399 95.5348 318.399 95.5348C318.399 95.5348 318.602 95.6361 318.986 95.846C319.39 96.0626 319.959 96.3672 320.695 96.7607C322.208 97.5306 324.444 98.6808 327.466 99.7421C328.978 100.256 330.694 100.769 332.615 100.94C334.531 101.134 336.633 100.665 338.723 99.8754C340.82 99.0667 342.925 97.874 345.01 96.4221C347.089 94.9654 349.182 93.2562 351.155 91.2699L351.144 91.2832C352.392 89.7754 353.795 88.3264 355.386 86.9823C356.183 86.3136 357.027 85.6723 357.95 85.1171C358.86 84.5476 359.861 84.0662 360.948 83.7891C363.131 83.214 365.631 83.7891 367.409 85.3478C369.199 86.9123 370.238 89.1304 371.153 91.3191C372.051 93.5287 372.956 95.7808 374.35 97.7898C375.039 98.7839 375.849 99.7402 376.878 100.356C377.389 100.657 377.96 100.868 378.546 100.865C379.112 100.865 379.635 100.584 380.063 100.174C380.907 99.3136 381.446 98.1312 381.902 96.9489C382.352 95.7543 382.71 94.5095 383.044 93.2515C383.707 90.7327 384.244 88.1419 384.848 85.537C385.213 83.9631 385.593 82.3986 386.048 80.8607C386.508 79.3274 387.028 77.8046 387.853 76.4123C388.282 75.735 388.791 75.0521 389.561 74.6549C389.943 74.46 390.395 74.372 390.809 74.3985L391.424 74.4572C391.625 74.5044 391.823 74.5763 392.021 74.6369C392.803 74.9358 393.428 75.525 393.883 76.1786C394.337 76.8398 394.641 77.5624 394.93 78.2756C395.481 79.7124 395.877 81.1728 396.456 82.5273C397.028 83.8638 397.765 85.2183 399.059 85.7697C400.32 86.3789 401.811 86.1641 403.185 85.9258C404.578 85.6666 405.955 85.2684 407.399 85.1946C408.119 85.1918 408.871 85.2627 409.536 85.625C410.212 85.9939 410.639 86.6456 410.928 87.2755C411.507 88.5638 411.755 89.9003 412.071 91.1839C412.378 92.4665 412.696 93.732 413.249 94.8604C413.786 95.9832 414.662 96.9404 415.819 97.2573C416.961 97.5694 418.214 97.436 419.266 96.982C420.333 96.5176 421.207 95.7249 421.975 94.885C423.513 93.1985 424.711 91.2784 426.378 89.8946C427.202 89.2051 428.136 88.6631 429.123 88.3633C430.115 88.0729 431.16 88.0379 432.111 88.2753C434.042 88.7539 435.437 90.0951 436.511 91.3777C437.574 92.7001 438.372 94.0659 439.03 95.3513C439.672 96.632 440.471 97.6772 441.356 98.4472C443.134 99.9984 444.963 100.546 446.153 100.824C446.758 100.965 447.23 101.021 447.546 101.059C447.863 101.096 448.026 101.1 448.026 101.11" fill="#70A2FF"/>
<path d="M336.35 65.5578C336.35 65.695 329.032 65.8047 320.007 65.8047C310.98 65.8047 303.663 65.695 303.663 65.5578C303.663 65.4225 310.98 65.3119 320.007 65.3119C329.032 65.3119 336.35 65.4225 336.35 65.5578Z" fill="#17282F"/>
<path d="M297 156H306V120H297V156Z" fill="#3478F6"/>
<path d="M284 156H293V128H284V156" fill="#3478F6"/>
<path d="M271 156H280V135H271V156Z" fill="#3478F6"/>
<path d="M258 156H267V143H258V156Z" fill="#3478F6"/>
</g>
<defs>
<clipPath id="clip0_677_1623">
<rect width="510" height="176" fill="white"/>
</clipPath>
</defs>
</svg>
