<svg width="64" height="64" viewBox="0 0 64 64" fill="none" xmlns="http://www.w3.org/2000/svg">
<path d="M19.4379 13.087C27.7969 12.3603 36.2033 12.3603 44.5623 13.087L48.5896 13.4371C51.2706 13.6701 53.5667 15.2692 54.7565 17.5566C54.9087 17.8493 54.7946 18.2036 54.5142 18.3772L37.8049 28.721C34.2213 30.9394 29.7026 30.986 26.074 28.8418L9.25312 18.9022C8.98136 18.7416 8.85662 18.4111 8.9791 18.1201C10.0675 15.5346 12.5145 13.6888 15.4106 13.4371L19.4379 13.087Z" fill="#3478F6"/>
<path d="M8.96541 23.3783C8.54951 23.1326 8.01883 23.3971 7.97035 23.8777C7.29372 30.5861 7.45748 37.3579 8.46164 44.0355C8.99101 47.5559 11.8641 50.2546 15.4106 50.5629L19.4379 50.913C27.7969 51.6396 36.2033 51.6396 44.5623 50.913L48.5896 50.5629C52.1361 50.2546 55.0092 47.5559 55.5386 44.0355C56.572 37.1633 56.7153 30.1913 55.9686 23.2914C55.9162 22.8074 55.3765 22.5478 54.9625 22.804L39.9104 32.122C35.0619 35.1235 28.9483 35.1864 24.0391 32.2855L8.96541 23.3783Z" fill="#3478F6"/>
</svg>
