<svg width="64" height="64" viewBox="0 0 64 64" fill="none" xmlns="http://www.w3.org/2000/svg">
<path d="M13.3338 26.2947C18.4442 37.4251 27.5375 46.2744 38.843 51.0718L40.6552 51.8792C44.8014 53.7265 49.6754 52.3231 52.2043 48.5537L54.5725 45.0238C55.3425 43.8762 55.1081 42.3304 54.0324 41.4627L46.0008 34.9832C44.8212 34.0315 43.0865 34.2532 42.184 35.471L39.6994 38.8237C33.3239 35.6787 28.1478 30.5026 25.0028 24.1271L28.3555 21.6425C29.5733 20.7401 29.795 19.0054 28.8432 17.8257L22.3636 9.79382C21.496 8.7184 19.9507 8.48382 18.803 9.25334L15.2488 11.6365C11.4559 14.1798 10.0602 19.094 11.9501 23.2512L13.3317 26.2902L13.3338 26.2947Z" fill="#3478F6"/>
</svg>
