<svg width="64" height="64" viewBox="0 0 64 64" fill="none" xmlns="http://www.w3.org/2000/svg">
<path d="M20.6667 10.6666C20.6667 9.56206 19.7712 8.66663 18.6667 8.66663C17.5621 8.66663 16.6667 9.56206 16.6667 10.6666V15.5104C12.6851 16.0733 9.53967 19.2225 9.0072 23.2395L8.7764 24.9807C8.73726 25.2759 8.69985 25.5713 8.66414 25.8668C8.56943 26.6507 9.18705 27.3333 9.97666 27.3333H54.0232C54.8128 27.3333 55.4304 26.6507 55.3357 25.8668C55.3 25.5713 55.2626 25.2759 55.2234 24.9807L54.9926 23.2395C54.4602 19.2225 51.3148 16.0734 47.3333 15.5105V10.6666C47.3333 9.56206 46.4379 8.66663 45.3333 8.66663C44.2288 8.66663 43.3333 9.56206 43.3333 10.6666V15.1136C35.7927 14.4421 28.2073 14.4421 20.6667 15.1136V10.6666Z" fill="#3478F6"/>
<path d="M55.8522 32.6014C55.8288 31.891 55.2417 31.3333 54.5309 31.3333H9.46898C8.75812 31.3333 8.17101 31.891 8.14767 32.6014C7.98927 37.4219 8.28207 42.2522 9.02536 47.0289C9.58806 50.645 12.5258 53.4225 16.1678 53.7817L19.3491 54.0954C27.7626 54.9251 36.2373 54.9251 44.6507 54.0954L47.8321 53.7817C51.474 53.4225 54.4118 50.645 54.9745 47.0289C55.7178 42.2522 56.0106 37.4219 55.8522 32.6014Z" fill="#3478F6"/>
</svg>
