<svg width="50" height="37" viewBox="0 0 50 37" fill="none" xmlns="http://www.w3.org/2000/svg">
<rect x="1.5" y="1.74805" width="47" height="32.9231" rx="16.4615" fill="#3478F6"/>
<path d="M13.7021 12.3378C13.7021 10.4301 15.8546 8.88367 18.5098 8.88367H31.4906C34.1458 8.88367 36.2983 10.4301 36.2983 12.3378V19.2042C36.2983 22.324 33.9562 25.2011 30.1716 26.7306L27.1678 27.9445C25.6768 28.5471 23.8525 28.5351 22.3772 27.9129L19.6372 26.7575C15.9605 25.207 13.7021 22.3732 13.7021 19.3102V12.3378Z" fill="white"/>
<path d="M23.5576 25.0322C23.5576 24.5076 24.1495 24.0823 24.8797 24.0823C25.6099 24.0823 26.2018 24.5076 26.2018 25.0322V28.3136C26.2018 28.8382 25.6099 29.2635 24.8797 29.2635C24.1495 29.2635 23.5576 28.8382 23.5576 28.3136V25.0322Z" fill="#3478F6"/>
<path d="M22.7169 14.9281C23.4471 14.9281 24.0391 15.3535 24.0391 15.8782C24.0391 16.4029 23.4471 16.8283 22.7169 16.8283L18.1496 16.8283C17.4195 16.8283 16.8275 16.4029 16.8275 15.8782C16.8275 15.3535 17.4195 14.9281 18.1496 14.9281L22.7169 14.9281Z" fill="#3478F6"/>
<path d="M32.0919 14.9281C32.8221 14.9281 33.4141 15.3535 33.4141 15.8782C33.4141 16.4029 32.8221 16.8283 32.0919 16.8283L27.5246 16.8283C26.7945 16.8283 26.2025 16.4029 26.2025 15.8782C26.2025 15.3535 26.7945 14.9281 27.5246 14.9281L32.0919 14.9281Z" fill="#3478F6"/>
<path fill-rule="evenodd" clip-rule="evenodd" d="M26.1831 19.9578C26.0676 19.4929 25.4528 19.1801 24.8028 19.2578C24.148 19.336 23.7054 19.7809 23.8143 20.2515L25 20.1098C23.8143 20.2515 23.8144 20.2519 23.8145 20.2524L23.8147 20.2533L23.8152 20.2552L23.8162 20.2596L23.8188 20.27C23.8208 20.2778 23.8233 20.2871 23.8263 20.2979C23.8323 20.3194 23.8406 20.3469 23.8516 20.3795C23.8735 20.4446 23.9065 20.5312 23.9547 20.6324C24.0498 20.8323 24.211 21.1034 24.4779 21.3797C25.0381 21.9598 26.0427 22.5283 27.6434 22.5283C29.2521 22.5283 30.2406 21.9528 30.7746 21.3522C31.0259 21.0695 31.1687 20.7933 31.2494 20.5911C31.2904 20.4885 31.3171 20.4008 31.3342 20.335C31.3427 20.302 31.349 20.2742 31.3534 20.2523C31.3556 20.2414 31.3574 20.2319 31.3588 20.2241L31.3606 20.2134L31.3614 20.209L31.3617 20.207L31.3618 20.2061C31.3619 20.2057 31.362 20.2052 30.1674 20.1098L31.362 20.2052C31.4353 19.7311 30.9599 19.3041 30.3001 19.2514C29.6455 19.1991 29.0553 19.5351 28.9746 20.0035C28.9741 20.0058 28.973 20.0108 28.9711 20.0183C28.9661 20.0375 28.9561 20.0713 28.9389 20.1145C28.9032 20.2038 28.8431 20.3162 28.7489 20.4222C28.5918 20.5989 28.3182 20.8008 27.6434 20.8008C26.9603 20.8008 26.6432 20.592 26.4527 20.3947C26.3442 20.2823 26.2727 20.1647 26.229 20.0731C26.2078 20.0286 26.1949 19.9937 26.1882 19.9737C26.1854 19.9656 26.1838 19.9602 26.1831 19.9578Z" fill="#3478F6"/>
<path fill-rule="evenodd" clip-rule="evenodd" d="M20.895 19.9578C20.7795 19.4929 20.1647 19.1801 19.5147 19.2578C18.8599 19.3361 18.4173 19.7809 18.5262 20.2515L19.7119 20.1098C18.5262 20.2515 18.5263 20.2519 18.5264 20.2524L18.5266 20.2533L18.5271 20.2552L18.5281 20.2596L18.5308 20.27C18.5327 20.2778 18.5352 20.2871 18.5382 20.2979C18.5443 20.3194 18.5525 20.3469 18.5635 20.3795C18.5854 20.4446 18.6184 20.5312 18.6666 20.6324C18.7618 20.8323 18.9229 21.1034 19.1898 21.3797C19.7501 21.9598 20.7547 22.5283 22.3553 22.5283C23.9641 22.5283 24.9525 21.9528 25.4865 21.3522C25.7378 21.0695 25.8806 20.7933 25.9613 20.5911C26.0023 20.4885 26.029 20.4008 26.0461 20.335C26.0546 20.302 26.0609 20.2742 26.0653 20.2523C26.0675 20.2414 26.0693 20.232 26.0707 20.2241L26.0726 20.2134L26.0733 20.209L26.0736 20.207L26.0737 20.2061C26.0738 20.2057 26.0739 20.2052 24.8793 20.1098L26.0739 20.2052C26.1472 19.7311 25.6718 19.3041 25.012 19.2514C24.3574 19.1991 23.7672 19.5351 23.6865 20.0035C23.686 20.0058 23.6849 20.0108 23.683 20.0183C23.678 20.0375 23.668 20.0713 23.6508 20.1145C23.6151 20.2038 23.555 20.3162 23.4608 20.4222C23.3037 20.5989 23.0301 20.8008 22.3553 20.8008C21.6722 20.8008 21.3551 20.592 21.1646 20.3947C21.0561 20.2823 20.9846 20.1647 20.9409 20.0731C20.9197 20.0286 20.9068 19.9937 20.9001 19.9737C20.8973 19.9656 20.8957 19.9602 20.895 19.9578Z" fill="#3478F6"/>
<rect x="1.5" y="1.74805" width="47" height="32.9231" rx="16.4615" stroke="white" stroke-width="3"/>
</svg>
