<svg width="424" height="390" viewBox="0 0 424 390" fill="none" xmlns="http://www.w3.org/2000/svg">
<g clip-path="url(#clip0_793_22104)">
<rect width="424" height="390" rx="32" fill="#3478F6"/>
<path d="M208.002 391.16H-38.1064V238.721H208.002V391.16Z" fill="#FAFAF9"/>
<path d="M148.586 348.94C131.52 342.464 111.89 360.372 95.1622 353.069C85.4263 348.819 81.0123 337.801 76.2429 328.305C71.4721 318.807 63.2558 308.79 52.6923 309.892C42.0376 311.004 33.4215 323.349 23.1302 320.373C16.6436 318.499 13.4052 311.3 11.7786 304.741C10.1523 298.182 9.02529 290.935 4.07952 286.335C-0.867867 281.736 -11.1728 282.966 -11.9492 289.679V370.491H180.511C180.511 370.491 154.491 351.182 148.586 348.94Z" fill="#92B8FF"/>
<path d="M185.651 370.493C185.651 370.667 139.001 370.806 81.4695 370.806C23.9175 370.806 -22.7227 370.667 -22.7227 370.493C-22.7227 370.32 23.9175 370.181 81.4695 370.181C139.001 370.181 185.651 370.32 185.651 370.493Z" fill="#DADBD8"/>
<path d="M185.651 335.194C185.651 335.367 139.001 335.508 81.4695 335.508C23.9175 335.508 -22.7227 335.367 -22.7227 335.194C-22.7227 335.022 23.9175 334.881 81.4695 334.881C139.001 334.881 185.651 335.022 185.651 335.194Z" fill="#DADBD8"/>
<path d="M185.651 299.895C185.651 300.068 139.001 300.209 81.4695 300.209C23.9175 300.209 -22.7227 300.068 -22.7227 299.895C-22.7227 299.722 23.9175 299.582 81.4695 299.582C139.001 299.582 185.651 299.722 185.651 299.895Z" fill="#DADBD8"/>
<path d="M185.651 266.351C185.651 266.525 139.001 266.666 81.4695 266.666C23.9175 266.666 -22.7227 266.525 -22.7227 266.351C-22.7227 266.178 23.9175 266.039 81.4695 266.039C139.001 266.039 185.651 266.178 185.651 266.351Z" fill="#DADBD8"/>
<path d="M246.102 79.1421C246.102 79.3304 242.605 79.4834 238.291 79.4834C233.976 79.4834 230.481 79.3304 230.481 79.1421C230.481 78.955 233.976 78.802 238.291 78.802C242.605 78.802 246.102 78.955 246.102 79.1421Z" fill="#17282F"/>
<path d="M269.535 79.1421C269.535 79.3304 267.783 79.4834 265.617 79.4834C263.453 79.4834 261.698 79.3304 261.698 79.1421C261.698 78.955 263.453 78.802 265.617 78.802C267.783 78.802 269.535 78.955 269.535 79.1421Z" fill="#17282F"/>
<path d="M462.117 132.315H222.08V21.2636H462.117V132.315Z" fill="#FAFAF9"/>
<path d="M462.117 132.315C462.117 132.315 462.1 131.633 462.091 130.331C462.084 129.018 462.075 127.087 462.065 124.559C462.05 119.488 462.028 112.031 462.002 102.432C461.971 83.2487 461.925 55.5156 461.869 21.2631L462.117 21.5116C399.843 21.5351 315.203 21.5678 222.098 21.6031H222.08L222.421 21.2631C222.415 60.3204 222.409 97.8869 222.403 132.313L222.08 131.992C291.934 132.053 351.9 132.107 394.417 132.145C415.692 132.184 432.599 132.214 444.199 132.235C449.996 132.252 454.464 132.265 457.497 132.274C459.005 132.283 460.153 132.29 460.937 132.295C461.712 132.3 462.117 132.315 462.117 132.315C462.117 132.315 461.738 132.328 460.976 132.334C460.201 132.338 459.066 132.345 457.576 132.354C454.557 132.363 450.11 132.376 444.343 132.394C432.76 132.414 415.878 132.445 394.634 132.483C352.064 132.521 292.021 132.575 222.08 132.636L221.759 132.638V132.313C221.752 97.8869 221.747 60.3204 221.74 21.2631V20.9217H222.08H222.098C315.203 20.9584 399.843 20.991 462.117 21.0146L462.365 21.0159L462.364 21.2631C462.308 55.5797 462.263 83.3638 462.231 102.582C462.205 112.158 462.184 119.596 462.169 124.655C462.157 127.163 462.148 129.079 462.142 130.38C462.134 131.669 462.117 132.315 462.117 132.315Z" fill="#17282F"/>
<path d="M238.968 97.9716V101.478H238.606V98.292H237.781V97.9716H238.968Z" fill="#17282F"/>
<path d="M242.235 99.7251C242.235 98.7874 241.815 98.2721 241.204 98.2721C240.593 98.2721 240.173 98.7874 240.173 99.7251C240.173 100.661 240.593 101.177 241.204 101.177C241.815 101.177 242.235 100.661 242.235 99.7251ZM239.807 99.7251C239.807 98.6082 240.393 97.9412 241.204 97.9412C242.014 97.9412 242.604 98.6082 242.604 99.7251C242.604 100.842 242.014 101.508 241.204 101.508C240.393 101.508 239.807 100.842 239.807 99.7251Z" fill="#17282F"/>
<path d="M240.39 79.3576V79.678H237.932V79.423L239.387 77.9948C239.783 77.6051 239.858 77.3697 239.858 77.1291C239.858 76.7224 239.573 76.4726 239.039 76.4726C238.627 76.4726 238.312 76.5981 238.082 76.8636L237.827 76.6426C238.096 76.3222 238.533 76.1417 239.067 76.1417C239.778 76.1417 240.229 76.5026 240.229 77.0885C240.229 77.4246 240.125 77.7241 239.653 78.1858L238.462 79.3576H240.39Z" fill="#17282F"/>
<path d="M243.252 77.925C243.252 76.9886 242.832 76.472 242.221 76.472C241.611 76.472 241.19 76.9886 241.19 77.925C241.19 78.8614 241.611 79.3766 242.221 79.3766C242.832 79.3766 243.252 78.8614 243.252 77.925ZM240.825 77.925C240.825 76.8081 241.411 76.1411 242.221 76.1411C243.031 76.1411 243.622 76.8081 243.622 77.925C243.622 79.0419 243.031 79.7075 242.221 79.7075C241.411 79.7075 240.825 79.0419 240.825 77.925Z" fill="#17282F"/>
<path d="M240.314 56.8706C240.314 57.4565 239.888 57.9077 239.042 57.9077C238.538 57.9077 238.052 57.7325 237.781 57.4565L237.956 57.1714C238.181 57.4068 238.588 57.5768 239.042 57.5768C239.624 57.5768 239.944 57.3074 239.944 56.8706C239.944 56.4508 239.647 56.1749 238.997 56.1749H238.747V55.9094L239.718 54.6918H237.926V54.3714H240.179V54.6265L239.187 55.8741C239.939 55.9146 240.314 56.3096 240.314 56.8706Z" fill="#17282F"/>
<path d="M243.252 56.1252C243.252 55.1888 242.832 54.6722 242.221 54.6722C241.611 54.6722 241.19 55.1888 241.19 56.1252C241.19 57.0616 241.611 57.5768 242.221 57.5768C242.832 57.5768 243.252 57.0616 243.252 56.1252ZM240.825 56.1252C240.825 55.0083 241.411 54.3414 242.221 54.3414C243.031 54.3414 243.622 55.0083 243.622 56.1252C243.622 57.242 243.031 57.9077 242.221 57.9077C241.411 57.9077 240.825 57.242 240.825 56.1252Z" fill="#17282F"/>
<path d="M256.86 111.227C256.86 110.289 256.441 109.774 255.829 109.774C255.219 109.774 254.798 110.289 254.798 111.227C254.798 112.162 255.219 112.678 255.829 112.678C256.441 112.678 256.86 112.162 256.86 111.227ZM254.434 111.227C254.434 110.11 255.019 109.443 255.829 109.443C256.639 109.443 257.23 110.11 257.23 111.227C257.23 112.343 256.639 113.009 255.829 113.009C255.019 113.009 254.434 112.343 254.434 111.227Z" fill="#17282F"/>
<path d="M280.367 109.473V112.979H280.005V109.794H279.179V109.473H280.367Z" fill="#17282F"/>
<path d="M307.699 112.659V112.979H305.241V112.724L306.697 111.296C307.093 110.907 307.167 110.67 307.167 110.431C307.167 110.024 306.883 109.774 306.347 109.774C305.937 109.774 305.622 109.9 305.392 110.165L305.137 109.944C305.406 109.624 305.842 109.443 306.377 109.443C307.088 109.443 307.537 109.804 307.537 110.39C307.537 110.725 307.433 111.026 306.962 111.487L305.772 112.659H307.699Z" fill="#17282F"/>
<path d="M333.534 111.972C333.534 112.558 333.108 113.009 332.263 113.009C331.757 113.009 331.272 112.834 331.002 112.558L331.177 112.273C331.402 112.508 331.808 112.678 332.263 112.678C332.845 112.678 333.165 112.407 333.165 111.972C333.165 111.552 332.868 111.276 332.217 111.276H331.968V111.011L332.939 109.793H331.147V109.473H333.4V109.728L332.408 110.975C333.159 111.016 333.534 111.411 333.534 111.972Z" fill="#17282F"/>
<path d="M360.105 112.058H359.405V112.979H359.046V112.058H357.068V111.797L358.925 109.473H359.325L357.534 111.737H359.055V110.926H359.405V111.737H360.105V112.058Z" fill="#17282F"/>
<path d="M385.417 111.947C385.417 112.543 385.001 113.009 384.147 113.009C383.641 113.009 383.16 112.834 382.89 112.558L383.065 112.273C383.29 112.508 383.691 112.678 384.142 112.678C384.736 112.678 385.052 112.388 385.052 111.963C385.052 111.512 384.771 111.232 383.88 111.232H383.134L383.316 109.473H385.233V109.793H383.631L383.51 110.91H383.961C385.017 110.91 385.417 111.326 385.417 111.947Z" fill="#17282F"/>
<path d="M411.228 111.942C411.228 111.482 410.888 111.186 410.347 111.186C409.812 111.186 409.446 111.517 409.446 111.952C409.446 112.338 409.767 112.704 410.373 112.704C410.879 112.704 411.228 112.407 411.228 111.942ZM411.584 111.933C411.584 112.588 411.068 113.009 410.389 113.009C409.457 113.009 408.951 112.363 408.951 111.257C408.951 110.064 409.602 109.443 410.553 109.443C410.868 109.443 411.162 109.498 411.383 109.632L411.238 109.924C411.058 109.804 410.819 109.758 410.557 109.758C409.802 109.758 409.316 110.244 409.316 111.196L409.331 111.482C409.507 111.096 409.917 110.88 410.402 110.88C411.098 110.88 411.584 111.291 411.584 111.933Z" fill="#17282F"/>
<path d="M437.522 99.894C437.522 100.082 396.97 100.235 346.959 100.235C296.931 100.235 256.389 100.082 256.389 99.894C256.389 99.707 296.931 99.554 346.959 99.554C396.97 99.554 437.522 99.707 437.522 99.894Z" fill="#17282F"/>
<path d="M437.522 77.9803C437.522 78.1686 396.97 78.3203 346.959 78.3203C296.931 78.3203 256.389 78.1686 256.389 77.9803C256.389 77.792 296.931 77.6403 346.959 77.6403C396.97 77.6403 437.522 77.792 437.522 77.9803Z" fill="#17282F"/>
<path d="M437.522 56.0669C437.522 56.2552 396.97 56.4082 346.959 56.4082C296.931 56.4082 256.389 56.2552 256.389 56.0669C256.389 55.8785 296.931 55.7268 346.959 55.7268C396.97 55.7268 437.522 55.8785 437.522 56.0669Z" fill="#17282F"/>
<path d="M256.389 99.5728C256.389 100.216 255.867 100.737 255.226 100.737C254.583 100.737 254.062 100.216 254.062 99.5728C254.062 98.9294 254.583 98.4089 255.226 98.4089C255.867 98.4089 256.389 98.9294 256.389 99.5728Z" fill="#8DB4FC"/>
<path d="M282.432 99.5728C282.432 100.216 281.91 100.737 281.268 100.737C280.626 100.737 280.104 100.216 280.104 99.5728C280.104 98.9294 280.626 98.4089 281.268 98.4089C281.91 98.4089 282.432 98.9294 282.432 99.5728Z" fill="#8DB4FC"/>
<path d="M308.473 99.5728C308.473 100.216 307.953 100.737 307.311 100.737C306.667 100.737 306.146 100.216 306.146 99.5728C306.146 98.9294 306.667 98.4089 307.311 98.4089C307.953 98.4089 308.473 98.9294 308.473 99.5728Z" fill="#8DB4FC"/>
<path d="M334.516 99.5728C334.516 100.216 333.995 100.737 333.351 100.737C332.71 100.737 332.189 100.216 332.189 99.5728C332.189 98.9294 332.71 98.4089 333.351 98.4089C333.995 98.4089 334.516 98.9294 334.516 99.5728Z" fill="#8DB4FC"/>
<path d="M360.559 99.5728C360.559 100.216 360.037 100.737 359.394 100.737C358.753 100.737 358.231 100.216 358.231 99.5728C358.231 98.9294 358.753 98.4089 359.394 98.4089C360.037 98.4089 360.559 98.9294 360.559 99.5728Z" fill="#8DB4FC"/>
<path d="M412.643 99.5728C412.643 100.216 412.122 100.737 411.479 100.737C410.836 100.737 410.316 100.216 410.316 99.5728C410.316 98.9294 410.836 98.4089 411.479 98.4089C412.122 98.4089 412.643 98.9294 412.643 99.5728Z" fill="#8DB4FC"/>
<path d="M386.6 99.5728C386.6 100.216 386.079 100.737 385.438 100.737C384.795 100.737 384.273 100.216 384.273 99.5728C384.273 98.9294 384.795 98.4089 385.438 98.4089C386.079 98.4089 386.6 98.9294 386.6 99.5728Z" fill="#8DB4FC"/>
<path d="M268.256 99.8957C268.256 100.317 267.914 100.659 267.493 100.659C267.071 100.659 266.729 100.317 266.729 99.8957C266.729 99.472 267.071 99.1306 267.493 99.1306C267.914 99.1306 268.256 99.472 268.256 99.8957Z" fill="#DADBD8"/>
<path d="M294.397 99.8957C294.397 100.317 294.054 100.659 293.632 100.659C293.212 100.659 292.869 100.317 292.869 99.8957C292.869 99.472 293.212 99.1306 293.632 99.1306C294.054 99.1306 294.397 99.472 294.397 99.8957Z" fill="#DADBD8"/>
<path d="M320.536 99.8957C320.536 100.317 320.194 100.659 319.773 100.659C319.351 100.659 319.009 100.317 319.009 99.8957C319.009 99.472 319.351 99.1306 319.773 99.1306C320.194 99.1306 320.536 99.472 320.536 99.8957Z" fill="#DADBD8"/>
<path d="M346.678 99.8957C346.678 100.317 346.336 100.659 345.914 100.659C345.491 100.659 345.15 100.317 345.15 99.8957C345.15 99.472 345.491 99.1306 345.914 99.1306C346.336 99.1306 346.678 99.472 346.678 99.8957Z" fill="#DADBD8"/>
<path d="M372.819 99.8957C372.819 100.317 372.476 100.659 372.056 100.659C371.632 100.659 371.291 100.317 371.291 99.8957C371.291 99.472 371.632 99.1306 372.056 99.1306C372.476 99.1306 372.819 99.472 372.819 99.8957Z" fill="#DADBD8"/>
<path d="M398.958 99.8957C398.958 100.317 398.617 100.659 398.195 100.659C397.773 100.659 397.432 100.317 397.432 99.8957C397.432 99.472 397.773 99.1306 398.195 99.1306C398.617 99.1306 398.958 99.472 398.958 99.8957Z" fill="#DADBD8"/>
<path d="M425.098 99.8957C425.098 100.317 424.757 100.659 424.335 100.659C423.913 100.659 423.57 100.317 423.57 99.8957C423.57 99.472 423.913 99.1306 424.335 99.1306C424.757 99.1306 425.098 99.472 425.098 99.8957Z" fill="#DADBD8"/>
<path d="M284.122 90.2065C284.122 91.7837 282.844 93.0627 281.268 93.0627C279.693 93.0627 278.415 91.7837 278.415 90.2065C278.415 88.6293 279.693 87.3516 281.268 87.3516C282.844 87.3516 284.122 88.6293 284.122 90.2065Z" fill="#8DB4FC"/>
<path d="M306.842 76.7889C306.842 78.3661 305.565 79.6438 303.989 79.6438C302.415 79.6438 301.137 78.3661 301.137 76.7889C301.137 75.213 302.415 73.934 303.989 73.934C305.565 73.934 306.842 75.213 306.842 76.7889Z" fill="#8DB4FC"/>
<path d="M335.041 77.9808C335.041 79.5567 333.766 80.8357 332.19 80.8357C330.614 80.8357 329.336 79.5567 329.336 77.9808C329.336 76.4036 330.614 75.1258 332.19 75.1258C333.766 75.1258 335.041 76.4036 335.041 77.9808Z" fill="#8DB4FC"/>
<path d="M362.574 53.5882C362.574 55.1641 361.297 56.4431 359.721 56.4431C358.145 56.4431 356.867 55.1641 356.867 53.5882C356.867 52.011 358.145 50.7332 359.721 50.7332C361.297 50.7332 362.574 52.011 362.574 53.5882Z" fill="#8DB4FC"/>
<path d="M388.289 69.1016C388.289 70.6775 387.013 71.9565 385.438 71.9565C383.862 71.9565 382.584 70.6775 382.584 69.1016C382.584 67.5244 383.862 66.2467 385.438 66.2467C387.013 66.2467 388.289 67.5244 388.289 69.1016Z" fill="#8DB4FC"/>
<path d="M414.332 73.233C414.332 74.8089 413.056 76.0879 411.48 76.0879C409.904 76.0879 408.627 74.8089 408.627 73.233C408.627 71.6558 409.904 70.378 411.48 70.378C413.056 70.378 414.332 71.6558 414.332 73.233Z" fill="#8DB4FC"/>
<path d="M438.686 90.2062C438.686 90.2062 438.458 90.2323 438.016 90.2049C437.576 90.1748 436.917 90.1199 436.07 89.9446C434.403 89.6007 431.832 88.8814 429.297 86.7248C428.036 85.6576 426.883 84.1772 425.969 82.3921C425.049 80.6383 423.942 78.7786 422.483 76.9922C421.015 75.2594 419.118 73.486 416.598 72.8818C415.354 72.581 414.002 72.6333 412.702 73.0217C411.402 73.4258 410.184 74.1425 409.087 75.0684C406.87 76.9242 405.236 79.5607 403.083 81.954C402.005 83.1427 400.751 84.3015 399.173 84.9985C397.599 85.6786 395.774 85.8891 394.031 85.4209C392.248 84.9436 390.893 83.4501 390.118 81.8245C389.31 80.1845 388.862 78.402 388.43 76.6208C387.99 74.8448 387.634 73.0047 386.876 71.3399C386.498 70.5186 385.971 69.7483 385.211 69.3403C384.432 68.9178 383.504 68.8237 382.578 68.8289C380.701 68.9257 378.812 69.4684 376.851 69.8399C375.87 70.0151 374.869 70.1903 373.833 70.1851C372.808 70.1877 371.729 70.0661 370.76 69.5861C369.753 69.182 368.984 68.3738 368.323 67.5447C367.734 66.6697 367.225 65.7412 366.832 64.7708C366.006 62.8418 365.456 60.82 364.709 58.8753C364.319 57.9167 363.909 56.9554 363.33 56.1158C362.748 55.2841 361.994 54.587 361.069 54.2326C360.833 54.1633 360.6 54.0757 360.358 54.0181L359.607 53.9475C359.11 53.9187 358.652 54.0142 358.215 54.2326C357.343 54.6759 356.682 55.5273 356.129 56.4114C355.05 58.2332 354.335 60.3086 353.71 62.4037C353.088 64.5053 352.567 66.6567 352.063 68.8276C351.23 72.4214 350.488 76.0061 349.564 79.5149C349.097 81.2674 348.597 83.0055 347.961 84.6938C347.308 86.3665 346.566 88.0535 345.255 89.3967C344.589 90.0401 343.679 90.5436 342.685 90.537C341.734 90.537 340.829 90.1983 340.052 89.738C338.488 88.795 337.335 87.4075 336.354 85.9911C334.38 83.1362 333.113 79.957 331.886 76.9163C330.638 73.9058 329.229 70.9266 326.898 68.8852C324.616 66.8568 321.333 66.1022 318.526 66.8411C317.108 67.1968 315.77 67.8311 314.542 68.5961C313.299 69.3377 312.149 70.2047 311.064 71.1123C308.895 72.9302 306.956 74.9193 305.257 76.9582L305.247 76.9713L305.241 76.9765C302.462 79.7543 299.551 82.1083 296.64 84.1288C293.723 86.1389 290.776 87.7894 287.828 88.9062C284.888 89.9956 281.931 90.6391 279.205 90.3435C276.497 90.0793 274.115 89.3404 272.021 88.6041C267.835 87.0845 264.763 85.4458 262.691 84.3342C261.658 83.7679 260.881 83.3141 260.364 82.9989C259.846 82.6837 259.595 82.498 259.595 82.498C259.595 82.498 259.874 82.638 260.405 82.9283C260.963 83.2278 261.75 83.6489 262.766 84.1929C264.857 85.2575 267.947 86.8478 272.122 88.3151C274.21 89.0252 276.582 89.7354 279.235 89.9721C281.882 90.2402 284.786 89.5915 287.674 88.4995C290.571 87.3813 293.479 85.7322 296.36 83.7247C299.233 81.7107 302.125 79.3475 304.851 76.6012L304.835 76.6195C306.558 74.5348 308.498 72.5313 310.696 70.6729C311.796 69.7483 312.963 68.8616 314.237 68.0939C315.496 67.3066 316.878 66.641 318.38 66.2578C321.396 65.4626 324.85 66.2578 327.307 68.413C329.779 70.5761 331.215 73.6429 332.479 76.6692C333.719 79.7242 334.97 82.838 336.896 85.6158C337.847 86.9903 338.967 88.3125 340.389 89.1639C341.095 89.5797 341.884 89.8714 342.693 89.8674C343.476 89.8674 344.197 89.479 344.789 88.9127C345.955 87.7226 346.699 86.0879 347.329 84.4532C347.951 82.8014 348.447 81.0804 348.908 79.341C349.824 75.8583 350.565 72.2763 351.4 68.6746C351.904 66.4984 352.43 64.3353 353.058 62.2088C353.693 60.0889 354.412 57.9833 355.552 56.0583C356.144 55.1219 356.848 54.1777 357.912 53.6284C358.438 53.359 359.063 53.2374 359.635 53.274L360.485 53.3551C360.763 53.4205 361.036 53.5198 361.31 53.6035C362.39 54.0168 363.254 54.8316 363.883 55.7352C364.51 56.6494 364.929 57.6486 365.329 58.6347C366.09 60.6212 366.637 62.6404 367.437 64.5132C368.228 66.3611 369.246 68.2339 371.033 68.9963C372.775 69.8386 374.836 69.5417 376.734 69.2121C378.659 68.8538 380.561 68.3032 382.557 68.2012C383.551 68.1973 384.59 68.2953 385.509 68.7962C386.443 69.3063 387.033 70.2073 387.431 71.0783C388.232 72.8596 388.575 74.7075 389.011 76.4822C389.434 78.2555 389.875 80.0053 390.638 81.5655C391.38 83.1179 392.59 84.4414 394.189 84.8795C395.767 85.3111 397.497 85.1267 398.952 84.4989C400.426 83.8568 401.633 82.7609 402.695 81.5996C404.819 79.2677 406.474 76.6129 408.778 74.6996C409.916 73.7462 411.206 72.9969 412.57 72.5823C413.941 72.1808 415.384 72.1324 416.698 72.4607C419.365 73.1224 421.293 74.9769 422.777 76.7502C424.246 78.5785 425.348 80.467 426.257 82.2443C427.145 84.015 428.248 85.4602 429.471 86.5247C431.928 88.6695 434.454 89.4267 436.098 89.8112C436.934 90.0061 437.586 90.0832 438.023 90.1355C438.46 90.1865 438.686 90.1931 438.686 90.2062Z" fill="#8DB4FC"/>
<path d="M284.394 41.0503C284.394 41.2399 274.285 41.3916 261.816 41.3916C249.343 41.3916 239.235 41.2399 239.235 41.0503C239.235 40.8632 249.343 40.7102 261.816 40.7102C274.285 40.7102 284.394 40.8632 284.394 41.0503Z" fill="#17282F"/>
<path d="M207.789 235.619C207.784 236.624 206.965 237.436 205.96 237.431C204.955 237.427 204.144 236.608 204.148 235.601C204.153 234.596 204.972 233.785 205.977 233.788C206.982 233.793 207.792 234.613 207.789 235.619Z" fill="#8DB4FC"/>
<path d="M202.331 233.277C204.33 231.176 207.577 231.113 209.628 233.18C210.557 234.117 212.011 232.676 211.082 231.738C208.269 228.902 203.652 228.919 200.89 231.821C199.982 232.776 201.42 234.233 202.331 233.277Z" fill="#8DB4FC"/>
<path d="M198.588 229.5C200.443 227.492 203.043 226.235 205.791 226.173C208.615 226.107 211.34 227.272 213.302 229.289C214.223 230.235 215.676 228.793 214.756 227.847C212.434 225.46 209.143 224.048 205.801 224.124C202.532 224.198 199.364 225.645 197.147 228.044C196.254 229.011 197.691 230.47 198.588 229.5Z" fill="#8DB4FC"/>
<path d="M144.008 167.679H105.439C99.9336 167.679 95.4707 163.213 95.4707 157.703V119.105C95.4707 113.596 99.9336 109.129 105.439 109.129H144.008C149.513 109.129 153.976 113.596 153.976 119.105V157.703C153.976 163.213 149.513 167.679 144.008 167.679Z" fill="white"/>
<path d="M144.008 167.679C144.004 167.632 144.776 167.692 146.181 167.381C147.555 167.054 149.655 166.259 151.45 164.178C152.342 163.156 153.122 161.815 153.523 160.21C153.983 158.614 153.815 156.785 153.836 154.834C153.825 150.929 153.813 146.489 153.8 141.582C153.79 136.67 153.779 131.292 153.769 125.52C153.767 124.076 153.765 122.608 153.762 121.117C153.748 119.619 153.841 118.108 153.434 116.656C152.712 113.739 150.462 111.128 147.487 110.011C146.752 109.711 145.966 109.547 145.173 109.439C144.383 109.35 143.563 109.359 142.727 109.364C141.067 109.366 139.387 109.367 137.689 109.368C134.293 109.371 130.827 109.372 127.298 109.374C120.238 109.375 112.93 109.377 105.444 109.379C103.62 109.399 101.807 109.895 100.285 110.87C99.524 111.349 98.8194 111.923 98.2309 112.598C97.6223 113.256 97.1192 114.005 96.7314 114.803C96.3177 115.593 96.0681 116.453 95.8905 117.315C95.7234 118.187 95.7148 119.057 95.7177 119.964C95.7167 121.761 95.7167 123.543 95.7158 125.309C95.711 132.374 95.7062 139.191 95.7014 145.683C95.6975 148.929 95.6937 152.095 95.6908 155.171C95.7177 156.711 95.5881 158.235 95.8809 159.661C96.1756 161.092 96.7928 162.426 97.6386 163.556C99.3233 165.838 101.946 167.23 104.564 167.442C107.206 167.536 109.801 167.476 112.246 167.502C122.045 167.536 129.98 167.563 135.486 167.582C138.215 167.602 140.341 167.618 141.805 167.628C142.513 167.64 143.058 167.647 143.448 167.653C143.818 167.662 144.008 167.679 144.008 167.679C144.008 167.679 143.818 167.696 143.448 167.704C143.058 167.711 142.513 167.719 141.805 167.73C140.341 167.741 138.215 167.756 135.486 167.776C129.98 167.795 122.045 167.822 112.246 167.856C109.786 167.842 107.239 167.913 104.529 167.826C101.807 167.616 99.0699 166.178 97.3064 163.806C96.4213 162.63 95.7734 161.24 95.4623 159.746C95.1513 158.234 95.2838 156.698 95.2511 155.171C95.2473 152.095 95.2444 148.929 95.2406 145.683C95.2358 139.191 95.231 132.374 95.2262 125.309C95.2252 123.543 95.2243 121.761 95.2233 119.964C95.2195 119.077 95.2271 118.134 95.4028 117.224C95.5881 116.317 95.8521 115.413 96.286 114.583C96.694 113.743 97.222 112.955 97.8603 112.264C98.4805 111.554 99.2196 110.951 100.02 110.447C101.62 109.421 103.528 108.899 105.444 108.879C112.93 108.881 120.238 108.882 127.298 108.884C130.827 108.886 134.293 108.888 137.689 108.89C139.387 108.892 141.067 108.893 142.727 108.894C143.552 108.89 144.387 108.882 145.229 108.976C146.059 109.091 146.883 109.265 147.652 109.581C150.767 110.757 153.111 113.493 153.859 116.546C154.281 118.078 154.179 119.643 154.19 121.117C154.187 122.608 154.185 124.076 154.184 125.52C154.172 131.292 154.162 136.67 154.153 141.582C154.139 146.489 154.127 150.929 154.116 154.834C154.081 156.769 154.238 158.625 153.753 160.27C153.328 161.911 152.518 163.273 151.597 164.306C149.743 166.407 147.597 167.181 146.203 167.48C145.491 167.618 144.94 167.68 144.568 167.676C144.197 167.687 144.008 167.679 144.008 167.679Z" fill="#17282F"/>
<path d="M221.744 204.578H183.176C177.671 204.578 173.207 200.112 173.207 194.602V156.004C173.207 150.494 177.671 146.028 183.176 146.028H221.744C227.249 146.028 231.713 150.494 231.713 156.004V194.602C231.713 200.112 227.249 204.578 221.744 204.578Z" fill="white"/>
<path d="M221.744 204.58C221.74 204.533 222.512 204.593 223.919 204.283C225.291 203.956 227.392 203.16 229.188 201.08C230.079 200.057 230.859 198.716 231.26 197.112C231.719 195.516 231.552 193.686 231.573 191.735C231.563 187.831 231.55 183.39 231.536 178.483C231.527 173.571 231.517 168.194 231.506 162.422C231.503 160.978 231.501 159.51 231.499 158.018C231.484 156.52 231.578 155.01 231.171 153.558C230.448 150.64 228.199 148.029 225.223 146.913C224.49 146.613 223.703 146.448 222.911 146.34C222.12 146.251 221.3 146.26 220.465 146.266C218.804 146.267 217.124 146.268 215.426 146.27C212.03 146.272 208.563 146.274 205.034 146.275C197.975 146.277 190.667 146.279 183.181 146.281C181.357 146.301 179.544 146.796 178.023 147.771C177.261 148.251 176.557 148.824 175.967 149.5C175.36 150.158 174.857 150.906 174.469 151.705C174.055 152.494 173.805 153.355 173.628 154.217C173.46 155.088 173.452 155.958 173.455 156.866C173.454 158.663 173.453 160.445 173.453 162.211C173.447 169.277 173.443 176.092 173.438 182.585C173.435 185.831 173.431 188.997 173.427 192.073C173.454 193.613 173.324 195.137 173.618 196.562C173.913 197.993 174.529 199.328 175.375 200.458C177.06 202.74 179.682 204.132 182.3 204.343C184.942 204.437 187.539 204.379 189.984 204.404C199.782 204.437 207.717 204.464 213.224 204.483C215.952 204.503 218.077 204.519 219.541 204.53C220.251 204.541 220.796 204.55 221.185 204.555C221.555 204.564 221.744 204.58 221.744 204.58C221.744 204.58 221.555 204.598 221.185 204.606C220.796 204.612 220.251 204.621 219.541 204.631C218.077 204.642 215.952 204.658 213.224 204.678C207.717 204.697 199.782 204.723 189.984 204.758C187.523 204.743 184.977 204.814 182.267 204.728C179.544 204.518 176.806 203.08 175.044 200.707C174.159 199.532 173.511 198.141 173.2 196.648C172.888 195.135 173.02 193.599 172.988 192.073C172.985 188.997 172.981 185.831 172.978 182.585C172.973 176.092 172.968 169.277 172.963 162.211C172.963 160.445 172.962 158.663 172.961 156.866C172.957 155.979 172.964 155.035 173.14 154.125C173.325 153.219 173.589 152.315 174.022 151.485C174.43 150.645 174.959 149.857 175.598 149.165C176.217 148.456 176.957 147.852 177.758 147.349C179.356 146.323 181.265 145.801 183.181 145.781C190.667 145.783 197.975 145.784 205.034 145.785C208.563 145.787 212.03 145.789 215.426 145.791C217.124 145.793 218.804 145.794 220.465 145.796C221.288 145.792 222.124 145.783 222.965 145.878C223.796 145.992 224.619 146.167 225.388 146.483C228.503 147.659 230.848 150.395 231.596 153.447C232.019 154.979 231.915 156.544 231.927 158.018C231.925 159.51 231.923 160.978 231.92 162.422C231.909 168.194 231.899 173.571 231.89 178.483C231.876 183.39 231.863 187.831 231.853 191.735C231.817 193.67 231.976 195.526 231.491 197.171C231.065 198.812 230.254 200.175 229.335 201.207C227.48 203.308 225.335 204.082 223.941 204.381C223.228 204.519 222.677 204.581 222.305 204.577C221.934 204.588 221.744 204.58 221.744 204.58Z" fill="#17282F"/>
<path d="M141.07 255.275H102.502C96.9961 255.275 92.5332 250.809 92.5332 245.299V206.702C92.5332 201.192 96.9961 196.726 102.502 196.726H141.07C146.576 196.726 151.038 201.192 151.038 206.702V245.299C151.038 250.809 146.576 255.275 141.07 255.275Z" fill="white"/>
<path d="M141.07 255.275C141.067 255.228 141.838 255.287 143.244 254.978C144.617 254.65 146.718 253.855 148.513 251.774C149.405 250.752 150.184 249.411 150.586 247.805C151.045 246.211 150.877 244.38 150.898 242.429C150.888 238.526 150.875 234.085 150.862 229.177C150.852 224.266 150.842 218.888 150.831 213.115C150.829 211.672 150.827 210.205 150.825 208.713C150.81 207.215 150.903 205.705 150.496 204.252C149.774 201.334 147.524 198.724 144.549 197.608C143.815 197.307 143.028 197.143 142.236 197.034C141.446 196.947 140.626 196.955 139.79 196.96C138.129 196.961 136.449 196.963 134.752 196.964C131.356 196.966 127.889 196.968 124.359 196.97C117.301 196.972 109.992 196.974 102.507 196.976C100.683 196.996 98.8693 197.491 97.3477 198.466C96.5865 198.945 95.8818 199.519 95.2934 200.194C94.6847 200.851 94.1817 201.6 93.7939 202.4C93.3802 203.189 93.1306 204.049 92.953 204.911C92.7859 205.782 92.7773 206.653 92.7802 207.561C92.7792 209.357 92.7792 211.139 92.7783 212.905C92.7735 219.971 92.7687 226.786 92.7639 233.28C92.76 236.526 92.7562 239.691 92.7533 242.767C92.7802 244.307 92.6506 245.831 92.9434 247.257C93.2381 248.687 93.8553 250.022 94.7001 251.152C96.3858 253.434 99.0075 254.825 101.626 255.037C104.268 255.132 106.864 255.073 109.309 255.098C119.107 255.132 127.042 255.159 132.549 255.178C135.277 255.198 137.403 255.213 138.867 255.225C139.576 255.235 140.121 255.244 140.511 255.25C140.88 255.257 141.07 255.275 141.07 255.275C141.07 255.275 140.88 255.292 140.511 255.301C140.121 255.306 139.576 255.315 138.867 255.326C137.403 255.336 135.277 255.353 132.549 255.373C127.042 255.391 119.107 255.419 109.309 255.452C106.848 255.437 104.302 255.509 101.592 255.423C98.8693 255.211 96.1324 253.774 94.3689 251.401C93.4838 250.226 92.8359 248.835 92.5248 247.342C92.2138 245.83 92.3453 244.294 92.3136 242.767C92.3098 239.691 92.3069 236.526 92.3031 233.28C92.2983 226.786 92.2935 219.971 92.2887 212.905C92.2877 211.139 92.2868 209.357 92.2858 207.561C92.282 206.673 92.2896 205.73 92.4653 204.82C92.6506 203.914 92.9146 203.01 93.3485 202.179C93.7565 201.339 94.2845 200.551 94.9228 199.86C95.543 199.151 96.2821 198.546 97.0828 198.043C98.6821 197.018 100.59 196.495 102.507 196.475C109.992 196.477 117.301 196.478 124.359 196.48C127.889 196.482 131.356 196.484 134.752 196.487C136.449 196.488 138.129 196.489 139.79 196.491C140.614 196.487 141.45 196.478 142.291 196.572C143.121 196.687 143.945 196.861 144.714 197.177C147.829 198.353 150.174 201.089 150.922 204.142C151.344 205.675 151.241 207.239 151.253 208.713C151.25 210.205 151.248 211.672 151.246 213.115C151.234 218.888 151.225 224.266 151.215 229.177C151.202 234.085 151.189 238.526 151.178 242.429C151.143 244.365 151.301 246.22 150.816 247.866C150.391 249.507 149.58 250.87 148.66 251.902C146.805 254.003 144.66 254.776 143.266 255.076C142.554 255.213 142.002 255.276 141.631 255.273C141.259 255.282 141.07 255.275 141.07 255.275Z" fill="#17282F"/>
<path d="M64.1482 217.049H25.5796C20.0742 217.049 15.6113 212.583 15.6113 207.073V168.475C15.6113 162.966 20.0742 158.499 25.5796 158.499H64.1482C69.6536 158.499 74.1165 162.966 74.1165 168.475V207.073C74.1165 212.583 69.6536 217.049 64.1482 217.049Z" fill="white"/>
<path d="M64.1485 217.051C64.1446 217.004 64.9165 217.064 66.3219 216.754C67.6956 216.426 69.796 215.63 71.5911 213.55C72.4829 212.528 73.2624 211.187 73.6637 209.582C74.1235 207.986 73.9555 206.156 73.9766 204.206C73.9661 200.302 73.9536 195.861 73.9402 190.954C73.9306 186.042 73.92 180.664 73.9094 174.892C73.9075 173.448 73.9056 171.98 73.9027 170.489C73.8883 168.991 73.9814 167.48 73.5744 166.029C72.8525 163.111 70.6024 160.5 67.6274 159.383C66.893 159.083 66.1059 158.919 65.3139 158.811C64.5238 158.722 63.704 158.731 62.8679 158.736C61.2071 158.738 59.5272 158.739 57.83 158.74C54.4336 158.743 50.9672 158.744 47.4374 158.746C40.3787 158.748 33.0705 158.749 25.5847 158.751C23.7608 158.772 21.9474 159.267 20.4258 160.242C19.6646 160.721 18.96 161.295 18.3715 161.97C17.7629 162.628 17.2599 163.377 16.872 164.176C16.4583 164.965 16.2087 165.825 16.0311 166.687C15.8641 167.559 15.8554 168.429 15.8583 169.336C15.8574 171.133 15.8574 172.915 15.8564 174.682C15.8516 181.747 15.8468 188.562 15.842 195.056C15.8382 198.301 15.8343 201.467 15.8314 204.543C15.8583 206.083 15.7287 207.607 16.0215 209.033C16.3162 210.464 16.9335 211.798 17.7783 212.929C19.464 215.211 22.0856 216.602 24.7044 216.814C27.3462 216.907 29.942 216.849 32.387 216.875C42.1854 216.908 50.1205 216.935 55.6269 216.954C58.3551 216.974 60.4814 216.99 61.9454 217C62.6538 217.012 63.1991 217.02 63.5888 217.025C63.9584 217.034 64.1485 217.051 64.1485 217.051C64.1485 217.051 63.9584 217.069 63.5888 217.077C63.1991 217.083 62.6538 217.091 61.9454 217.101C60.4814 217.113 58.3551 217.128 55.6269 217.148C50.1205 217.168 42.1854 217.194 32.387 217.228C29.9266 217.214 27.3798 217.285 24.6698 217.198C21.9474 216.988 19.2105 215.55 17.4471 213.178C16.562 212.002 15.914 210.612 15.603 209.118C15.2919 207.606 15.4235 206.07 15.3918 204.543C15.3879 201.467 15.3851 198.301 15.3812 195.056C15.3764 188.562 15.3716 181.747 15.3668 174.682C15.3659 172.915 15.3649 171.133 15.3639 169.336C15.3601 168.449 15.3678 167.506 15.5434 166.596C15.7287 165.689 15.9927 164.785 16.4266 163.955C16.8346 163.115 17.3626 162.327 18.001 161.636C18.6211 160.926 19.3603 160.323 20.1609 159.819C21.7602 158.793 23.6686 158.271 25.5847 158.251C33.0705 158.253 40.3787 158.255 47.4374 158.255C50.9672 158.258 54.4336 158.26 57.83 158.262C59.5272 158.263 61.2071 158.265 62.8679 158.266C63.6925 158.262 64.5277 158.254 65.3696 158.348C66.199 158.463 67.0236 158.637 67.7925 158.953C70.9067 160.129 73.2519 162.865 73.9997 165.918C74.4221 167.45 74.3193 169.015 74.3308 170.489C74.328 171.98 74.3261 173.448 74.3241 174.892C74.3126 180.664 74.303 186.042 74.2934 190.954C74.28 195.861 74.2675 200.302 74.256 204.206C74.2214 206.141 74.3789 207.997 73.8941 209.642C73.4688 211.283 72.6586 212.646 71.738 213.678C69.8833 215.779 67.7378 216.553 66.3439 216.852C65.6316 216.99 65.0806 217.052 64.7091 217.048C64.3376 217.059 64.1485 217.051 64.1485 217.051Z" fill="#17282F"/>
<path d="M32.3187 205.092H24.9365V199.437H32.3187V205.092Z" fill="#70A2FF"/>
<path d="M41.6614 205.092H34.2793V186.392H41.6614V205.092Z" fill="#70A2FF"/>
<path d="M51.9281 205.092H44.5459V194.443H51.9281V205.092Z" fill="#70A2FF"/>
<path d="M61.7318 205.092H54.3496V180.967H61.7318V205.092Z" fill="#70A2FF"/>
<path d="M28.1308 187.217C26.6342 187.217 25.416 188.436 25.416 189.934C25.416 191.432 26.6342 192.651 28.1308 192.651C29.6274 192.651 30.8456 191.432 30.8456 189.934C30.8456 188.436 29.6274 187.217 28.1308 187.217ZM28.1308 193.611C26.1043 193.611 24.4561 191.962 24.4561 189.934C24.4561 187.907 26.1043 186.256 28.1308 186.256C30.1563 186.256 31.8056 187.907 31.8056 189.934C31.8056 191.962 30.1563 193.611 28.1308 193.611Z" fill="#70A2FF"/>
<path d="M38.6904 173.224C37.1938 173.224 35.9756 174.442 35.9756 175.941C35.9756 177.439 37.1938 178.658 38.6904 178.658C40.187 178.658 41.4052 177.439 41.4052 175.941C41.4052 174.442 40.187 173.224 38.6904 173.224ZM38.6904 179.618C36.6649 179.618 35.0156 177.968 35.0156 175.941C35.0156 173.913 36.6649 172.263 38.6904 172.263C40.7159 172.263 42.3651 173.913 42.3651 175.941C42.3651 177.968 40.7159 179.618 38.6904 179.618Z" fill="#70A2FF"/>
<path d="M48.2421 182.087C46.7455 182.087 45.5273 183.306 45.5273 184.803C45.5273 186.301 46.7455 187.519 48.2421 187.519C49.7387 187.519 50.9569 186.301 50.9569 184.803C50.9569 183.306 49.7387 182.087 48.2421 182.087ZM48.2421 188.48C46.2156 188.48 44.5674 186.83 44.5674 184.803C44.5674 182.775 46.2156 181.126 48.2421 181.126C50.2686 181.126 51.9169 182.775 51.9169 184.803C51.9169 186.83 50.2686 188.48 48.2421 188.48Z" fill="#70A2FF"/>
<path d="M58.4492 169.239C56.9526 169.239 55.7344 170.458 55.7344 171.956C55.7344 173.455 56.9526 174.673 58.4492 174.673C59.9457 174.673 61.163 173.455 61.163 171.956C61.163 170.458 59.9457 169.239 58.4492 169.239ZM58.4492 175.634C56.4227 175.634 54.7744 173.984 54.7744 171.956C54.7744 169.929 56.4227 168.278 58.4492 168.278C60.4747 168.278 62.1229 169.929 62.1229 171.956C62.1229 173.984 60.4747 175.634 58.4492 175.634Z" fill="#70A2FF"/>
<path d="M50.7423 183.009L49.9561 182.457L55.8848 174.012L56.6701 174.565L50.7423 183.009Z" fill="#70A2FF"/>
<path d="M45.3155 183.568L40.8008 178.844L41.4948 178.181L46.0086 182.904L45.3155 183.568Z" fill="#70A2FF"/>
<path d="M30.2769 187.564L29.5186 186.974L36.1759 178.398L36.9343 178.987L30.2769 187.564Z" fill="#70A2FF"/>
<path d="M67.4472 142.685H49.4507C43.9453 142.685 39.4824 138.219 39.4824 132.709V114.699C39.4824 109.19 43.9453 104.723 49.4507 104.723H67.4472C72.9527 104.723 77.4155 109.19 77.4155 114.699V132.709C77.4155 138.219 72.9527 142.685 67.4472 142.685Z" fill="white"/>
<path d="M67.4463 142.686C67.4444 142.654 67.9195 142.663 68.8017 142.533C69.6772 142.408 70.9905 142.101 72.4381 141.222C73.8665 140.362 75.4745 138.903 76.4268 136.696C76.9029 135.603 77.211 134.343 77.2418 132.991C77.2638 131.629 77.237 130.17 77.2379 128.65C77.2283 125.599 77.2187 122.262 77.2072 118.681C77.2053 117.786 77.2034 116.874 77.2005 115.949C77.1919 115.018 77.2293 114.087 77.0632 113.171C76.9269 112.249 76.6437 111.332 76.2165 110.474C75.8047 109.609 75.2575 108.792 74.5779 108.08C73.2502 106.625 71.4148 105.59 69.4036 105.161C68.3909 104.961 67.3551 104.961 66.2713 104.966C65.1961 104.967 64.1104 104.968 63.0151 104.969C58.6338 104.971 54.0989 104.973 49.4536 104.974C47.1833 104.986 44.9686 105.796 43.2618 107.2C41.5636 108.616 40.3906 110.582 39.9413 112.673C39.7205 113.723 39.7186 114.78 39.7234 115.867C39.7224 116.942 39.7215 118.008 39.7205 119.063C39.7176 121.172 39.7147 123.236 39.7119 125.252C39.708 127.265 39.7051 129.23 39.7013 131.139C39.7003 132.097 39.6744 133.037 39.78 133.93C39.8751 134.833 40.1429 135.691 40.4549 136.509C41.8315 139.766 44.8294 141.89 47.7746 142.356C49.2424 142.604 50.7102 142.491 52.0791 142.528C53.449 142.535 54.7421 142.54 55.9535 142.546C58.364 142.563 60.4452 142.577 62.1578 142.589C63.8377 142.61 65.1529 142.625 66.0793 142.636C66.5065 142.647 66.8434 142.655 67.0988 142.661C67.3282 142.669 67.4463 142.678 67.4463 142.686C67.4463 142.695 67.3282 142.704 67.0988 142.712C66.8434 142.718 66.5065 142.727 66.0793 142.736C65.1529 142.748 63.8377 142.764 62.1578 142.783C60.4452 142.796 58.364 142.81 55.9535 142.827C54.7421 142.832 53.449 142.839 52.0791 142.846C50.7102 142.821 49.2578 142.951 47.7141 142.705C44.6595 142.243 41.5252 140.061 40.0728 136.67C39.7416 135.819 39.4594 134.925 39.3557 133.982C39.2405 133.036 39.2655 132.089 39.2616 131.139C39.2587 129.23 39.2549 127.265 39.2511 125.252C39.2482 123.236 39.2453 121.172 39.2434 119.063C39.2415 118.008 39.2405 116.942 39.2396 115.867C39.2319 114.803 39.2309 113.673 39.4623 112.571C39.9307 110.372 41.1614 108.306 42.9441 106.817C44.7363 105.338 47.0681 104.484 49.4536 104.475C54.0989 104.477 58.6338 104.477 63.0151 104.479C64.1104 104.48 65.1961 104.481 66.2713 104.482C67.3339 104.477 68.4389 104.479 69.4996 104.693C71.6096 105.147 73.5296 106.238 74.9148 107.766C75.6242 108.513 76.1944 109.372 76.6216 110.279C77.0661 111.178 77.3579 112.137 77.4971 113.102C77.667 114.068 77.6229 115.033 77.6286 115.949C77.6267 116.874 77.6238 117.786 77.6219 118.681C77.6114 122.262 77.6008 125.599 77.5912 128.65C77.5797 130.174 77.5941 131.619 77.5595 133.001C77.5154 134.395 77.1842 135.692 76.6821 136.81C75.677 139.069 74.0086 140.539 72.536 141.39C71.0452 142.26 69.7041 142.538 68.8152 142.633C67.9205 142.732 67.4463 142.686 67.4463 142.686Z" fill="#17282F"/>
<path d="M60.095 123.509C61.7116 122.83 62.8616 121.161 62.8702 119.196C62.8808 116.62 60.934 114.523 58.5206 114.512C56.1082 114.501 54.1432 116.58 54.1326 119.155C54.124 121.139 55.2817 122.828 56.9165 123.509C50.1929 124.523 50.4972 131.836 50.4972 131.836L66.3972 131.91C66.3972 131.91 66.76 124.516 60.095 123.509Z" fill="#8DB4FC"/>
<path d="M50.5216 131.811L66.3745 131.885C66.3812 131.665 66.4119 129.922 65.7227 128.093C65.2936 126.95 64.6715 125.998 63.8747 125.262C62.8792 124.343 61.6073 123.761 60.0915 123.532L60.007 123.519L60.0857 123.486C61.7542 122.786 62.838 121.101 62.8476 119.195C62.8572 116.636 60.9161 114.546 58.52 114.535H58.5008C57.3479 114.535 56.2632 115.012 55.4433 115.879C54.6187 116.752 54.1618 117.915 54.156 119.153C54.1493 121.082 55.236 122.781 56.9265 123.486L57.0052 123.519L56.9207 123.532C55.3915 123.762 54.1042 124.341 53.0943 125.254C52.286 125.984 51.6515 126.927 51.2089 128.059C50.5005 129.87 50.5158 131.593 50.5216 131.811ZM66.4206 131.932H66.3975L50.4755 131.859L50.4746 131.836C50.4736 131.817 50.4064 129.98 51.1638 128.043C51.6083 126.904 52.2476 125.954 53.0607 125.219C54.06 124.316 55.3281 123.737 56.8305 123.497C55.1669 122.767 54.1004 121.071 54.109 119.153C54.1138 117.903 54.5755 116.728 55.4088 115.847C56.2372 114.97 57.3345 114.487 58.5008 114.487H58.52C60.943 114.498 62.9052 116.61 62.8946 119.195C62.886 121.091 61.8233 122.77 60.1808 123.497C61.6707 123.736 62.9234 124.318 63.9083 125.228C64.7099 125.969 65.3358 126.927 65.7687 128.077C66.5041 130.033 66.4225 131.89 66.4215 131.91L66.4206 131.932Z" fill="#17282F"/>
<path d="M173.588 84.1052H150.341C144.836 84.1052 140.372 79.6389 140.372 74.1293V50.8641C140.372 45.3545 144.836 40.8882 150.341 40.8882H173.588C179.093 40.8882 183.556 45.3545 183.556 50.8641V74.1293C183.556 79.6389 179.093 84.1052 173.588 84.1052Z" fill="white"/>
<path d="M173.588 84.1027C173.585 84.0604 174.137 84.0969 175.153 83.9173C176.157 83.7367 177.671 83.3361 179.267 82.1986C180.843 81.0832 182.487 79.1426 183.132 76.4382C183.482 75.0981 183.394 73.6032 183.398 72.0123C183.392 70.4252 183.386 68.7478 183.379 66.9869C183.37 63.4621 183.36 59.6039 183.349 55.4642C183.347 54.4286 183.345 53.3747 183.343 52.3055C183.326 51.2295 183.392 50.1506 183.168 49.0948C182.769 46.9822 181.656 44.9148 179.902 43.4517C178.172 41.9722 175.867 41.1085 173.478 41.1248C171.042 41.1268 168.555 41.1287 166.022 41.1306C160.957 41.1325 155.715 41.1344 150.344 41.1364C147.717 41.12 145.156 42.2335 143.385 44.0742C141.592 45.9005 140.61 48.4108 140.617 50.8865C140.612 55.9551 140.607 60.8451 140.602 65.5036C140.599 67.8323 140.596 70.1034 140.592 72.3101C140.598 73.4168 140.546 74.5053 140.699 75.5342C140.837 76.5718 141.147 77.5709 141.608 78.473C142.499 80.3002 143.951 81.7422 145.585 82.6712C147.238 83.5926 149.057 83.9749 150.801 83.9259C157.821 83.9595 163.511 83.9865 167.475 84.0057C169.422 84.0258 170.945 84.0412 172.008 84.0527C172.507 84.0633 172.897 84.071 173.186 84.0777C173.451 84.0854 173.588 84.094 173.588 84.1027C173.588 84.1113 173.451 84.12 173.186 84.1286C172.897 84.1344 172.507 84.143 172.008 84.1536C170.945 84.1642 169.422 84.1805 167.475 84.2007C163.511 84.2189 157.822 84.2468 150.801 84.2795C149.029 84.3429 147.114 83.9576 145.397 83.0084C143.692 82.0516 142.176 80.5587 141.238 78.6584C140.753 77.7188 140.425 76.6784 140.276 75.5957C140.112 74.5043 140.163 73.4072 140.152 72.3101C140.149 70.1034 140.145 67.8323 140.141 65.5036C140.138 60.8451 140.133 55.9551 140.127 50.8865C140.116 48.2897 141.147 45.6459 143.029 43.7274C144.888 41.7916 147.583 40.6185 150.344 40.6358C155.715 40.6378 160.957 40.6387 166.022 40.6406C168.555 40.6426 171.042 40.6445 173.478 40.6464C175.971 40.6339 178.398 41.5466 180.202 43.101C182.032 44.6381 183.192 46.8054 183.601 49.0151C183.83 50.1295 183.757 51.2468 183.77 52.3055C183.768 53.3747 183.765 54.4286 183.763 55.4642C183.753 59.6039 183.742 63.4621 183.733 66.9869C183.727 68.7478 183.721 70.4252 183.715 72.0123C183.699 73.5859 183.778 75.1202 183.403 76.5045C182.713 79.279 181.003 81.2456 179.379 82.3581C177.735 83.4926 176.187 83.8664 175.169 84.0162C174.654 84.1046 174.257 84.1046 173.99 84.1084C173.724 84.1132 173.588 84.1113 173.588 84.1027Z" fill="#17282F"/>
<path d="M163.839 62.2734C165.68 61.501 166.989 59.6017 166.999 57.3633C167.012 54.4312 164.794 52.0439 162.047 52.0314C159.3 52.0189 157.063 54.3851 157.051 57.3172C157.042 59.5767 158.36 61.4981 160.221 62.2734C152.566 63.4282 152.914 71.7536 152.914 71.7536L171.015 71.8372C171.015 71.8372 171.427 63.4205 163.839 62.2734Z" fill="#70A2FF"/>
<path d="M122.529 126.444C118.833 126.444 115.393 128.807 114.198 132.511C112.717 137.105 115.247 142.047 119.835 143.529C124.428 145.013 129.366 142.48 130.846 137.887C132.327 133.293 129.799 128.35 125.209 126.868C124.319 126.582 123.417 126.444 122.529 126.444ZM122.515 145.874C121.432 145.874 120.332 145.709 119.247 145.358C113.649 143.551 110.565 137.523 112.371 131.92C114.177 126.319 120.2 123.232 125.798 125.04C128.511 125.916 130.718 127.795 132.017 130.333C133.315 132.871 133.549 135.763 132.674 138.477C131.218 142.993 127.021 145.874 122.515 145.874Z" fill="#17282F"/>
<path d="M136.634 152.288C136.376 152.288 136.116 152.183 135.927 151.976L127.999 143.336C127.64 142.946 127.667 142.338 128.057 141.979C128.446 141.621 129.055 141.645 129.413 142.037L137.341 150.677C137.7 151.068 137.674 151.675 137.284 152.034C137.099 152.203 136.867 152.288 136.634 152.288Z" fill="#17282F"/>
<path d="M122.536 209.132C113.255 209.132 105.704 216.689 105.704 225.978C105.704 235.266 113.255 242.823 122.536 242.823C131.817 242.823 139.368 235.266 139.368 225.978C139.368 216.689 131.817 209.132 122.536 209.132ZM122.536 243.783C112.725 243.783 104.744 235.795 104.744 225.978C104.744 216.159 112.725 208.171 122.536 208.171C132.346 208.171 140.328 216.159 140.328 225.978C140.328 235.795 132.346 243.783 122.536 243.783Z" fill="#70A2FF"/>
<path d="M122.001 243.724C121.907 243.671 119.653 242.398 117.439 239.522C115.404 236.876 113.028 232.316 113.275 225.615C113.521 218.921 116.062 214.557 118.149 212.074C120.423 209.369 122.624 208.267 122.716 208.222L123.141 209.084C123.057 209.125 114.686 213.415 114.235 225.651C113.785 237.882 122.382 242.835 122.467 242.884L122.001 243.724Z" fill="#70A2FF"/>
<path d="M122.789 243.713L122.284 242.895C122.367 242.843 130.694 237.531 130.242 225.285C129.793 213.059 121.779 209.127 121.698 209.087L122.106 208.219C122.459 208.384 130.73 212.41 131.202 225.249C131.674 238.074 122.877 243.658 122.789 243.713Z" fill="#70A2FF"/>
<path d="M122.771 220.332C115.565 220.332 110.92 217.883 108.294 215.829L108.884 215.072C111.393 217.033 115.838 219.371 122.771 219.371C129.48 219.371 133.732 217.045 136.118 215.094L136.725 215.838C134.219 217.888 129.763 220.332 122.771 220.332Z" fill="#70A2FF"/>
<path d="M136.163 236.355C133.655 234.452 129.207 232.183 122.27 232.183C115.558 232.183 111.305 234.44 108.917 236.333L108.321 235.58C110.828 233.592 115.282 231.223 122.27 231.223C129.474 231.223 134.117 233.597 136.743 235.589L136.163 236.355Z" fill="#70A2FF"/>
<path d="M139.872 226.511H105.655V225.55H139.872V226.511Z" fill="#70A2FF"/>
<path d="M224.579 177.616C226.052 182.765 222.702 187.802 217.431 187.802H189.706C185.217 187.802 181.703 183.461 182.986 179.086C183.054 178.853 183.133 178.626 183.223 178.408C184.477 175.353 187.984 173.447 191.178 174.085C191.942 168.46 196.782 163.679 202.331 163.068C207.881 162.457 213.615 166.073 215.544 171.402C215.544 171.402 222.689 171.014 224.579 177.616Z" fill="#70A2FF"/>
<path d="M201.133 192.72V182.068H196.964C196.475 182.068 196.189 181.517 196.472 181.117L203.336 171.423C203.575 171.085 204.077 171.084 204.318 171.422L211.173 181.038C211.459 181.437 211.173 181.991 210.683 181.991H206.625V192.72H201.133Z" fill="white"/>
<path d="M252.165 185.52C252.899 186.325 253.964 186.629 254.989 186.734C256.013 186.839 257.055 186.78 258.063 187.007C259.072 187.235 260.087 187.816 260.553 188.839C261.025 189.873 260.816 191.202 260.152 192.094C259.487 192.986 258.431 193.453 257.391 193.464L252.165 191.29V185.52Z" fill="white"/>
<path d="M257.398 171.543C257.227 172.059 257.398 193.064 257.398 193.064L269.409 224.499C270.089 226.279 268.775 228.189 266.87 228.189H233.294C231.302 228.189 229.986 226.115 230.836 224.312L245.699 192.72V171.543H257.398Z" fill="#B8D0FD"/>
<path d="M257.399 171.543C257.403 171.539 257.343 171.536 257.218 171.532C257.072 171.529 256.886 171.525 256.65 171.521C256.119 171.514 255.369 171.504 254.402 171.492C252.379 171.473 249.444 171.447 245.699 171.415L245.573 171.414V171.543C245.555 176.936 245.531 184.169 245.501 192.72L245.521 192.636C242.55 198.922 239.178 206.058 235.524 213.79C234.613 215.725 233.682 217.697 232.737 219.702C232.264 220.705 231.788 221.715 231.308 222.735C231.068 223.246 230.827 223.76 230.586 224.275C230.339 224.839 230.262 225.488 230.397 226.098C230.652 227.322 231.756 228.342 233.035 228.422C234.235 228.454 235.372 228.431 236.553 228.439C238.898 228.439 241.272 228.44 243.668 228.44C249.861 228.438 255.896 228.436 261.701 228.434C263.153 228.433 264.589 228.432 266.011 228.43C266.372 228.425 266.702 228.444 267.091 228.416C267.472 228.388 267.854 228.294 268.193 228.116C268.881 227.774 269.412 227.159 269.658 226.444C269.918 225.737 269.858 224.913 269.57 224.259C269.324 223.618 269.08 222.981 268.837 222.349C268.352 221.083 267.873 219.834 267.401 218.603C263.615 208.762 260.266 200.051 257.555 193.005L257.566 193.063C257.502 186.344 257.45 180.97 257.414 177.249C257.384 173.552 257.399 171.543 257.399 171.543C257.399 171.543 257.37 171.675 257.346 171.912C257.334 172.181 257.318 172.544 257.298 173.008C257.267 173.973 257.248 175.4 257.232 177.249C257.203 180.946 257.202 186.327 257.233 193.066V193.096L257.243 193.124C259.921 200.182 263.233 208.908 266.975 218.765C267.444 219.997 267.92 221.248 268.402 222.515C268.643 223.148 268.885 223.786 269.13 224.427C269.39 225.031 269.424 225.683 269.211 226.286C269.003 226.887 268.554 227.403 267.978 227.686C267.409 228.005 266.737 227.943 266.011 227.948C264.589 227.946 263.153 227.945 261.701 227.944C255.896 227.942 249.861 227.94 243.668 227.939C241.272 227.939 238.898 227.939 236.553 227.939C235.391 227.933 234.193 227.955 233.078 227.927C232.015 227.863 231.096 227.013 230.879 225.992C230.767 225.484 230.829 224.948 231.036 224.475C231.275 223.962 231.513 223.452 231.75 222.942C232.23 221.923 232.705 220.912 233.176 219.909C234.117 217.902 235.044 215.928 235.953 213.993C239.581 206.248 242.93 199.101 245.88 192.805L245.898 192.764V192.72C245.87 184.169 245.846 176.936 245.827 171.543L245.699 171.669C249.407 171.636 252.31 171.611 254.314 171.593C255.297 171.58 256.058 171.571 256.598 171.564C256.844 171.559 257.037 171.555 257.19 171.552C257.324 171.548 257.395 171.546 257.399 171.543Z" fill="#17282F"/>
<path d="M226.77 180.086C226.471 180.533 226.234 180.973 226.118 181.365C226.118 181.365 219.492 188.956 218.955 190.954C218.417 192.951 208.389 209.332 208.389 209.332L222.357 215.725C222.357 215.725 227.371 209.932 227.55 207.735C227.55 207.735 234.713 207.991 235.787 206.364C236.861 204.738 237.935 202.54 237.935 202.54C237.935 202.54 239.547 202.341 240.621 201.541C241.696 200.742 243.487 197.746 243.487 197.746C243.487 197.746 246.351 197.147 246.889 196.248C247.426 195.349 248.86 192.152 248.86 192.152C248.86 192.152 253.335 196.747 254.947 196.248C256.558 195.748 259.782 193.351 256.558 190.355C254.109 188.076 249.277 183.605 247.102 181.591C246.374 180.917 245.509 180.453 244.582 180.237L232.909 177.518C230.589 176.978 228.182 177.964 226.77 180.086Z" fill="#D2E0F9"/>
<path d="M248.86 192.153C248.903 192.095 248.149 191.429 247.053 190.221C246.47 189.572 245.826 188.858 245.134 188.088C244.77 187.686 244.388 187.264 243.966 186.842C243.756 186.63 243.537 186.417 243.29 186.215C243.173 186.11 243.032 186.016 242.884 185.923C242.7 185.825 242.548 185.779 242.404 185.736C240.021 184.989 237.857 184.34 236.281 183.894C234.708 183.447 233.723 183.205 233.703 183.27C233.682 183.337 234.629 183.699 236.175 184.232C237.723 184.764 239.87 185.468 242.252 186.214C242.8 186.33 243.189 186.802 243.62 187.19C244.036 187.597 244.423 188.009 244.794 188.402C245.536 189.187 246.21 189.895 246.8 190.468C247.971 191.624 248.82 192.206 248.86 192.153Z" fill="white"/>
<path d="M242.778 198.478C242.805 198.488 242.934 198.268 243.049 197.822C243.16 197.381 243.246 196.702 243.093 195.882C242.951 195.075 242.541 194.093 241.697 193.346C240.865 192.591 239.724 192.136 238.571 191.741C236.25 190.929 234.087 190.398 232.513 190.081C230.937 189.765 229.95 189.649 229.937 189.714C229.924 189.785 230.886 190.024 232.433 190.427C233.979 190.83 236.11 191.411 238.406 192.214C239.555 192.607 240.628 193.028 241.392 193.694C242.166 194.345 242.568 195.207 242.747 195.956C243.104 197.487 242.68 198.464 242.778 198.478Z" fill="white"/>
<path d="M237.655 202.951C237.696 202.996 238.058 202.179 237.517 201.014C237.258 200.453 236.769 199.845 236.081 199.399C235.401 198.941 234.557 198.631 233.688 198.375C230.217 197.363 227.377 196.654 227.338 196.786C227.298 196.92 230.079 197.845 233.545 198.856C234.404 199.108 235.197 199.39 235.832 199.788C236.475 200.178 236.923 200.684 237.202 201.177C237.769 202.178 237.568 202.949 237.655 202.951Z" fill="white"/>
<path d="M229.568 207.654C229.544 207.513 228.07 207.663 226.258 207.809C224.444 207.96 222.966 208.052 222.965 208.195C222.962 208.329 224.457 208.461 226.298 208.308C228.138 208.16 229.593 207.786 229.568 207.654Z" fill="white"/>
<path d="M259.298 202.565L267.367 224C267.769 225.07 266.972 226.211 265.829 226.198L234.773 225.864C233.6 225.852 232.828 224.64 233.31 223.571L242.782 202.565H259.298Z" fill="#8DB4FC"/>
<path d="M279.537 364.985L283.426 343.809L282.895 339.134L284.328 338.895L297.139 269.144L327.345 230.198L352.97 198.702L358.046 211.233C358.046 211.233 383.833 233.528 386.264 236.962C386.264 236.962 393.24 247.259 394.313 258.123C394.734 262.381 384.157 342.123 382.962 345.71C382.064 348.411 373.89 354.156 368.118 357.6C368.882 381.213 371.011 449.948 369.89 449.948L270.201 449.695L279.537 364.985Z" fill="#B8D0FD"/>
<path d="M293.63 253.102C293.63 253.102 297.482 234.5 297.17 233.923C296.859 233.346 305.855 211.374 305.855 211.374L308.869 201.354L349.939 194.4L351.935 200.61L297.17 269.859L291.562 299.58L285.761 291.476L293.63 253.102Z" fill="#8DB4FC"/>
<path d="M256.992 393.076L265.906 285.811L273.212 243.959C274.191 235.616 287.022 219.131 287.022 219.131L301.161 214.841C301.161 214.841 306.951 207.719 307.264 206.678L297.17 232.483L293.63 253.102L291.429 300.405L279.768 363.894L270.179 449.948L244.649 449.772L256.992 393.076Z" fill="#B8D0FD"/>
<path d="M290.551 268.115L285.761 232.926L301.161 214.842L307.264 206.678L297.797 233.923L290.551 268.115Z" fill="#B8D0FD"/>
<path d="M358.077 211.233L325.951 251.068L297.171 269.143L353.002 198.701L358.077 211.233Z" fill="#B8D0FD"/>
<path d="M356.522 263.304C356.658 263.363 357.551 261.498 359.001 258.51C360.47 255.543 362.504 251.397 365.714 247.546C368.926 243.705 372.877 241.236 375.969 240.211C379.07 239.142 381.176 239.273 381.166 239.079C381.169 239.019 380.652 238.927 379.708 238.926C378.764 238.918 377.389 239.069 375.753 239.53C372.478 240.417 368.272 242.909 364.942 246.897C361.624 250.88 359.663 255.156 358.352 258.213C357.061 261.296 356.403 263.253 356.522 263.304Z" fill="#17282F"/>
<path d="M365.123 330.328C365.339 330.207 362.224 326.414 356.73 324.338C351.256 322.206 346.406 322.944 346.486 323.178C346.48 323.496 351.147 323.236 356.369 325.282C361.617 327.254 364.915 330.569 365.123 330.328Z" fill="#17282F"/>
<path d="M359.023 336.569C359.269 336.54 358.011 332.044 354.076 328.066C350.181 324.048 345.716 322.699 345.681 322.944C345.543 323.229 349.645 324.933 353.356 328.774C357.116 332.562 358.736 336.702 359.023 336.569Z" fill="#17282F"/>
<path d="M297.171 269.144C297.2 269.192 297.982 268.764 299.397 267.934C300.927 267.015 302.954 265.797 305.44 264.302C310.693 261.057 317.879 256.618 326.206 251.474L326.272 251.433L326.324 251.369C329.325 247.66 332.587 243.629 335.978 239.438C344.865 228.418 352.83 218.446 358.347 211.45L358.477 211.287L358.399 211.103C356.801 207.332 355.497 204.253 354.53 201.971C354.095 200.993 353.735 200.187 353.442 199.527C353.183 198.973 353.033 198.69 353.002 198.703C352.971 198.715 353.06 199.022 353.26 199.6C353.508 200.279 353.811 201.108 354.18 202.114C355.074 204.425 356.28 207.544 357.757 211.363L357.809 211.015C352.14 217.888 344.081 227.785 335.193 238.804C331.816 243.006 328.567 247.048 325.578 250.766L325.696 250.662C317.445 255.928 310.327 260.474 305.121 263.797C302.696 265.387 300.721 266.684 299.228 267.663C297.865 268.579 297.141 269.096 297.171 269.144Z" fill="#17282F"/>
<path d="M292.48 276.626C292.544 276.616 292.47 275.699 292.281 274.037C292.049 272.198 291.749 269.831 291.388 266.973C290.59 260.989 289.415 252.67 288.04 243.311L287.985 243.622C288.596 242.488 289.242 241.287 289.896 240.072C294.817 230.915 299.219 222.599 302.361 216.556C303.849 213.65 305.086 211.235 306.038 209.375C306.885 207.669 307.325 206.71 307.264 206.678C307.202 206.644 306.646 207.54 305.692 209.19C304.666 211.009 303.335 213.372 301.733 216.218C298.43 222.175 293.927 230.437 289.009 239.593C288.355 240.81 287.71 242.012 287.102 243.148L287.023 243.295L287.048 243.459C288.451 252.814 289.743 261.115 290.72 267.072C291.203 269.912 291.605 272.265 291.917 274.091C292.219 275.736 292.415 276.635 292.48 276.626Z" fill="#17282F"/>
<path d="M208.389 209.332C208.389 209.332 196.602 238.506 195.644 245.989C194.684 253.473 194.365 260.421 194.365 260.421L208.389 270.221L220.878 255.254L222.357 215.725L208.389 209.332Z" fill="#D2E0F9"/>
<path d="M200.633 215.725C200.633 215.725 194.741 242.822 194.365 243.863C193.991 244.904 191.722 252.792 191.722 252.792V267.074C191.722 267.074 192.389 278.829 199.725 281.21C207.061 283.591 233.411 280.807 233.411 280.807C233.411 280.807 243.744 278.667 246.012 278.221C248.279 277.775 270.819 268.678 270.819 268.678L288.358 218.918L279.35 220.354L245.339 239.776C245.339 239.776 242.558 238.507 241.281 239.102C240.004 239.696 222.964 244.756 222.964 244.756C222.964 244.756 228.238 218.768 227.337 218.918C226.436 219.068 200.633 215.725 200.633 215.725Z" fill="#B8D0FD"/>
<path d="M269.34 449.687C269.35 449.687 269.362 449.608 269.377 449.454C269.393 449.269 269.413 449.044 269.436 448.768C269.479 448.124 269.537 447.243 269.612 446.129C269.743 443.838 269.981 440.523 270.319 436.434C270.643 432.343 271.134 427.48 271.717 422.086C272.325 416.693 273.054 410.772 273.873 404.563C275.53 392.144 277.126 380.91 278.157 372.762C278.674 368.689 279.076 365.39 279.324 363.108C279.442 361.997 279.535 361.119 279.602 360.477C279.627 360.201 279.647 359.976 279.663 359.792C279.674 359.637 279.675 359.557 279.667 359.556C279.657 359.555 279.639 359.633 279.612 359.786C279.583 359.968 279.547 360.191 279.503 360.466C279.412 361.105 279.288 361.979 279.131 363.083C278.812 365.4 278.361 368.681 277.806 372.715C276.686 380.849 275.033 392.072 273.378 404.498C272.557 410.71 271.841 416.637 271.259 422.036C270.7 427.438 270.245 432.308 269.966 436.407C269.674 440.504 269.49 443.824 269.417 446.12C269.382 447.236 269.355 448.118 269.336 448.764C269.332 449.041 269.329 449.266 269.326 449.452C269.327 449.607 269.332 449.686 269.34 449.687Z" fill="#17282F"/>
<path d="M372.482 223.632C372.482 223.632 372.632 223.787 372.939 224.076C373.254 224.371 373.711 224.797 374.309 225.355C375.532 226.483 377.326 228.14 379.653 230.288C380.808 231.373 382.154 232.534 383.521 233.904C384.875 235.289 386.213 236.935 387.425 238.862C388.649 240.782 389.638 243.028 390.682 245.414C391.71 247.806 392.724 250.384 393.514 253.181C393.897 254.579 394.228 256.041 394.318 257.553C394.38 258.31 394.311 259.063 394.192 259.845C394.085 260.621 393.977 261.408 393.868 262.202C393.432 265.381 392.977 268.699 392.503 272.151C391.559 279.054 390.541 286.486 389.46 294.383C387.305 310.182 384.896 327.84 382.303 346.847L382.395 346.69C378.559 349.568 374.601 352.476 370.485 355.317C368.421 356.712 366.33 358.174 364.091 359.294C361.664 360.039 359.218 360.792 356.751 361.55C346.858 364.645 336.64 367.787 326.145 370.728C319.543 372.558 313.005 374.319 306.507 375.777C303.255 376.486 300.026 377.186 296.795 377.695C293.572 378.254 290.343 378.583 287.156 378.594L287.39 378.811C285.845 364.997 284.364 351.766 282.971 339.305L282.782 339.556C303.069 336.096 321.302 332.986 336.786 330.346L336.838 330.337L336.877 330.301C339.905 327.544 342.739 324.973 345.623 322.809L345.679 322.767L345.689 322.701C348.068 307.938 349.96 296.187 351.261 288.114C351.89 284.087 352.374 280.98 352.705 278.866C353.019 276.782 353.184 275.62 353.132 275.706C352.929 276.933 350.223 293.293 345.367 322.649L345.433 322.543C342.511 324.721 339.678 327.279 336.634 330.036L336.725 329.991C321.237 332.604 302.998 335.682 282.706 339.105L282.493 339.141L282.518 339.356C283.9 351.818 285.368 365.049 286.902 378.865L286.927 379.084L287.136 379.083C290.385 379.076 293.637 378.744 296.874 378.184C300.119 377.673 303.357 376.973 306.617 376.263C313.128 374.804 319.673 373.043 326.28 371.211C336.782 368.268 347.006 365.121 356.898 362.022C359.383 361.255 361.848 360.495 364.293 359.74C366.617 358.577 368.681 357.123 370.76 355.717C374.884 352.867 378.842 349.956 382.681 347.069L382.76 347.009L382.773 346.912C385.341 327.899 387.726 310.233 389.86 294.429C390.924 286.529 391.925 279.094 392.854 272.187C393.318 268.734 393.764 265.414 394.191 262.233C394.298 261.439 394.403 260.653 394.507 259.875C394.623 259.108 394.695 258.308 394.627 257.534C394.53 255.984 394.189 254.511 393.797 253.102C392.991 250.286 391.963 247.704 390.924 245.31C389.868 242.927 388.864 240.674 387.618 238.74C386.388 236.804 385.03 235.153 383.66 233.767C382.271 232.394 380.926 231.25 379.759 230.171C377.41 228.048 375.598 226.41 374.364 225.296C373.753 224.75 373.288 224.334 372.966 224.045C372.65 223.767 372.482 223.632 372.482 223.632Z" fill="#17282F"/>
<path d="M315.272 333.661L278.265 281.406L213.479 301.023L262.485 364.456L284.68 360.155L282.636 339.178L315.272 333.661Z" fill="#8DB4FC"/>
<path d="M232.408 298.576C232.408 299.462 233.125 300.18 234.011 300.18C234.896 300.18 235.614 299.462 235.614 298.576C235.614 297.689 234.896 296.971 234.011 296.971C233.125 296.971 232.408 297.689 232.408 298.576Z" fill="#17282F"/>
<path d="M258.296 291.344C258.296 292.231 259.014 292.949 259.899 292.949C260.785 292.949 261.503 292.231 261.503 291.344C261.503 290.458 260.785 289.74 259.899 289.74C259.014 289.74 258.296 290.458 258.296 291.344Z" fill="#17282F"/>
<path d="M283.079 341.306L279.755 340.721C279.755 340.721 278.691 335.667 277.361 334.602C276.032 333.539 262.72 327.467 259.796 325.872C256.872 324.275 245.436 319.061 244 321.833C242.374 324.97 247.029 327.546 249.555 328.745C252.08 329.941 259.285 332.741 257.823 334.47C256.361 336.2 240.262 335.415 240.262 335.415L238.242 332.704C238.242 332.704 234.695 336.066 235.094 338.993C235.493 341.919 236.689 343.781 236.689 343.781H237.885C237.885 343.781 236.689 345.51 237.753 347.239C238.816 348.969 240.943 351.23 240.943 351.23C240.943 351.23 242.828 355.209 248.519 356.768C249.183 356.949 275.78 359.262 275.78 359.262L284.68 360.155L283.079 341.306Z" fill="#D2E0F9"/>
<path d="M342.973 113.504C352.254 116.157 359.827 122.638 359.576 132.295C359.463 136.617 358.189 141.396 360.638 144.959C359.492 144.625 358.536 143.702 358.16 142.569C356.604 148.702 356.355 157.83 351.23 161.535" fill="#17282F"/>
<path d="M349.528 155.016C349.795 154.905 360.248 152.057 359.715 162.668C359.179 173.279 348.645 170.552 348.641 170.247C348.639 169.942 349.528 155.016 349.528 155.016Z" fill="#D2E0F9"/>
<path d="M352.083 166.391C352.132 166.359 352.261 166.53 352.566 166.689C352.863 166.843 353.383 166.966 353.945 166.787C355.087 166.432 356.119 164.699 356.267 162.79C356.343 161.826 356.187 160.896 355.883 160.117C355.599 159.324 355.124 158.756 354.566 158.628C354.011 158.47 353.594 158.787 353.45 159.08C353.293 159.369 353.349 159.584 353.292 159.599C353.262 159.625 353.074 159.411 353.182 158.977C353.236 158.768 353.373 158.524 353.632 158.333C353.896 158.138 354.276 158.052 354.668 158.114C355.482 158.212 356.18 159.002 356.513 159.856C356.892 160.718 357.09 161.763 357.005 162.847C356.83 164.981 355.635 166.927 354.08 167.293C353.324 167.45 352.713 167.193 352.405 166.927C352.089 166.648 352.045 166.408 352.083 166.391Z" fill="white"/>
<path d="M295.02 174.75C295.065 167.249 296.415 151.813 297.799 137.854C299.288 122.843 312.043 111.491 327.114 111.77L328.612 111.796C344.74 113.039 352.695 127.44 351.008 143.54L348.743 194.891L310.273 216.015L310.401 192.985C310.401 192.985 294.925 190.283 295.02 174.75Z" fill="#D2E0F9"/>
<path d="M310.383 192.974C310.383 192.974 320.175 193.953 330.72 187.594C330.72 187.594 325.837 198.856 310.377 197.171L310.383 192.974Z" fill="white"/>
<path d="M301.583 149.427C301.518 150.596 302.458 151.615 303.678 151.703C304.896 151.791 305.936 150.916 305.999 149.745C306.062 148.575 305.125 147.556 303.906 147.467C302.686 147.379 301.645 148.256 301.583 149.427Z" fill="#17282F"/>
<path d="M300.779 144.687C301.048 144.981 302.75 143.769 305.135 143.819C307.517 143.836 309.245 145.095 309.509 144.809C309.639 144.681 309.368 144.154 308.616 143.584C307.877 143.018 306.606 142.456 305.121 142.435C303.636 142.416 302.376 142.94 301.648 143.487C300.904 144.037 300.646 144.555 300.779 144.687Z" fill="#17282F"/>
<path d="M323.901 149.426C323.839 150.597 324.777 151.615 325.998 151.703C327.215 151.791 328.256 150.916 328.318 149.745C328.381 148.576 327.443 147.556 326.225 147.467C325.004 147.379 323.965 148.256 323.901 149.426Z" fill="#17282F"/>
<path d="M324.554 144.454C324.79 144.776 326.615 143.755 328.979 144.064C331.345 144.339 332.927 145.778 333.221 145.52C333.363 145.409 333.153 144.856 332.465 144.209C331.79 143.564 330.589 142.869 329.115 142.686C327.641 142.506 326.332 142.891 325.548 143.355C324.751 143.821 324.436 144.309 324.554 144.454Z" fill="#17282F"/>
<path d="M315.447 163.923C315.461 163.788 313.983 163.504 311.587 163.153C310.979 163.078 310.405 162.947 310.31 162.529C310.174 162.086 310.442 161.434 310.75 160.73C311.349 159.266 311.977 157.731 312.635 156.123C315.259 149.562 317.169 144.163 316.904 144.059C316.64 143.956 314.298 149.19 311.675 155.75C311.045 157.369 310.44 158.912 309.865 160.387C309.622 161.076 309.211 161.854 309.505 162.773C309.661 163.231 310.101 163.57 310.49 163.683C310.877 163.809 311.221 163.822 311.522 163.846C313.936 164.021 315.436 164.059 315.447 163.923Z" fill="#17282F"/>
<path d="M322.434 165.704C322.047 165.673 321.994 168.264 319.745 170.062C317.499 171.867 314.745 171.525 314.718 171.886C314.679 172.048 315.324 172.401 316.487 172.454C317.629 172.515 319.304 172.178 320.681 171.079C322.053 169.976 322.662 168.482 322.77 167.42C322.889 166.339 322.612 165.692 322.434 165.704Z" fill="#17282F"/>
<path d="M324.417 134.153C324.64 134.806 327.027 134.542 329.818 134.931C332.617 135.264 334.859 136.126 335.241 135.551C335.411 135.275 335.029 134.657 334.129 134.012C333.236 133.369 331.805 132.746 330.128 132.527C328.452 132.313 326.908 132.551 325.882 132.948C324.847 133.342 324.32 133.843 324.417 134.153Z" fill="#17282F"/>
<path d="M301.998 138.616C302.408 139.165 304.062 138.633 306.037 138.643C308.014 138.584 309.679 139.075 310.074 138.515C310.249 138.242 309.995 137.695 309.274 137.168C308.563 136.644 307.366 136.204 306.008 136.219C304.65 136.238 303.464 136.707 302.767 137.249C302.058 137.794 301.819 138.348 301.998 138.616Z" fill="#17282F"/>
<path d="M315.76 110.114C321.248 107.953 326.805 109.093 332.639 109.949C337.264 110.628 341.293 112.114 345.052 114.893C350.951 119.252 353.874 126.195 354.189 133.527C354.501 140.857 353.741 147.353 351.895 154.455L351.32 154.322C351.675 156.113 352.025 158.01 351.401 159.725C350.777 161.441 348.789 162.797 347.119 162.064C345.168 161.208 345.102 158.513 345.279 156.388C345.884 149.142 345.774 142.088 345.364 134.829C345.06 129.463 342.003 122.895 337.819 120.351C330.207 115.281 320.298 119.421 316.929 120.009C311.773 115.583 306.947 119.043 303.791 122.883C304.945 117.096 310.273 112.274 315.76 110.114Z" fill="#17282F"/>
<path d="M342.361 120.105C338.427 116.761 331.923 117.036 328.285 120.701C326.78 122.218 325.763 124.178 324.178 125.611C320.823 128.641 315.81 128.661 311.293 128.509C312.648 128.005 313.813 127.008 314.519 125.745C308.966 128.897 302.048 129.534 296.013 127.449C299.214 118.907 306.668 110.697 315.526 108.544C324.384 106.391 336.214 107.383 342.973 113.504" fill="#17282F"/>
<path d="M298.109 127.3C298.109 127.317 298.281 127.346 298.613 127.383C298.946 127.432 299.439 127.458 300.075 127.476C301.347 127.496 303.209 127.366 305.415 126.759C307.612 126.155 310.155 125.02 312.521 123.112C314.905 121.204 316.86 118.486 319.131 115.916C320.276 114.639 321.48 113.464 322.817 112.579C324.14 111.676 325.592 111.086 327.026 110.756C329.915 110.107 332.639 110.399 334.849 110.757C337.071 111.14 338.838 111.633 340.062 111.954C340.628 112.105 341.094 112.231 341.471 112.332C341.794 112.413 341.967 112.449 341.972 112.433C341.976 112.416 341.814 112.349 341.5 112.234C341.187 112.12 340.72 111.96 340.116 111.768C338.907 111.388 337.15 110.84 334.912 110.409C332.686 110.003 329.919 109.661 326.925 110.307C325.439 110.634 323.921 111.239 322.545 112.171C321.154 113.084 319.918 114.287 318.758 115.582C316.459 118.186 314.536 120.878 312.229 122.754C309.937 124.635 307.464 125.782 305.317 126.418C303.16 127.058 301.331 127.241 300.073 127.281C298.813 127.316 298.113 127.251 298.109 127.3Z" fill="#33535F"/>
<path d="M313.04 128.632C313.042 128.649 313.168 128.646 313.406 128.626C313.647 128.615 313.995 128.559 314.442 128.47C315.333 128.285 316.6 127.857 318.022 127.053C319.443 126.247 320.993 125.055 322.541 123.564C324.094 122.077 325.637 120.301 327.358 118.552C329.076 116.809 330.859 115.276 332.716 114.286C334.57 113.296 336.45 112.826 338.034 112.756C339.623 112.689 340.901 112.997 341.723 113.334C342.551 113.669 342.961 113.963 342.991 113.917C343 113.903 342.903 113.824 342.708 113.685C342.517 113.536 342.21 113.361 341.801 113.155C340.982 112.754 339.669 112.377 338.022 112.402C336.381 112.428 334.429 112.878 332.5 113.878C330.566 114.881 328.739 116.44 327.001 118.2C325.265 119.965 323.734 121.748 322.218 123.233C320.709 124.722 319.211 125.92 317.843 126.746C315.092 128.429 313.006 128.523 313.04 128.632Z" fill="#33535F"/>
<path d="M360.447 142.217C360.516 142.131 358.766 141.249 356.923 138.818C356.003 137.614 355.083 136.05 354.261 134.217C353.434 132.386 352.713 130.286 351.899 128.094C351.083 125.902 350.213 123.825 349.139 122.078C348.074 120.331 346.837 118.929 345.64 117.944C344.438 116.96 343.303 116.385 342.489 116.099C342.08 115.957 341.76 115.862 341.536 115.822C341.314 115.775 341.197 115.759 341.192 115.775C341.138 115.882 343.113 116.204 345.411 118.214C346.548 119.207 347.724 120.595 348.744 122.317C349.77 124.036 350.618 126.087 351.43 128.269C352.241 130.453 352.979 132.561 353.842 134.409C354.697 136.258 355.669 137.837 356.644 139.038C357.621 140.238 358.577 141.065 359.286 141.554C359.643 141.797 359.926 141.974 360.13 142.076C360.33 142.183 360.439 142.231 360.447 142.217Z" fill="#33535F"/>
<path d="M358.428 145.952C358.43 145.899 357.944 145.907 357.102 145.731C356.262 145.559 355.071 145.135 353.812 144.262C352.558 143.39 351.259 142.054 350.222 140.315C349.182 138.574 348.449 136.433 347.875 134.147C347.303 131.854 346.896 129.625 346.365 127.624C345.841 125.622 345.192 123.858 344.465 122.462C343.738 121.066 342.96 120.045 342.355 119.411C342.05 119.094 341.804 118.86 341.622 118.717C341.445 118.57 341.347 118.499 341.335 118.511C341.251 118.579 342.81 119.82 344.149 122.621C344.82 124.009 345.424 125.753 345.918 127.738C346.419 129.723 346.812 131.953 347.389 134.269C347.971 136.581 348.729 138.765 349.826 140.553C350.921 142.337 352.29 143.692 353.614 144.556C354.943 145.421 356.196 145.805 357.067 145.923C357.504 145.977 357.844 146.002 358.076 145.985C358.308 145.98 358.428 145.969 358.428 145.952Z" fill="#33535F"/>
</g>
<defs>
<clipPath id="clip0_793_22104">
<rect width="424" height="390" rx="32" fill="white"/>
</clipPath>
</defs>
</svg>
