<svg width="24" height="20" viewBox="0 0 24 20" fill="none" xmlns="http://www.w3.org/2000/svg">
<path fill-rule="evenodd" clip-rule="evenodd" d="M24 2.5C23.1 2.95001 22.2 3.09998 21.15 3.25C22.2 2.65002 22.95 1.75 23.25 0.549988C22.35 1.15002 21.3 1.45001 20.1 1.75C19.2 0.849976 17.85 0.25 16.5 0.25C13.35 0.25 10.95 3.25 11.7 6.25C7.65002 6.09998 4.05005 4.15002 1.5 1.15002C0.150024 3.40002 0.900024 6.25 3 7.75C2.25 7.75 1.5 7.45001 0.75 7.15002C0.75 9.40002 2.40002 11.5 4.65002 12.1C3.90002 12.25 3.15002 12.4 2.40002 12.25C3 14.2 4.80005 15.7 7.05005 15.7C5.25 17.05 2.55005 17.8 0 17.5C2.25 18.85 4.80005 19.75 7.5 19.75C16.65 19.75 21.75 12.1 21.45 5.04999C22.5 4.45001 23.4 3.54999 24 2.5Z" fill="#3478F6"/>
</svg>
