<svg width="655" height="1027" viewBox="0 0 655 1027" fill="none" xmlns="http://www.w3.org/2000/svg">
<path opacity="0.0344828" d="M-1059.6 -18.7028C-1082.37 -27.8694 -1078.87 -61.1368 -1054.69 -65.3689L-611.42 -142.956C-597.918 -145.319 -588.728 -157.969 -590.652 -171.54L-653.841 -617.09C-657.288 -641.393 -626.729 -654.999 -610.975 -636.176L-322.148 -291.086C-313.35 -280.575 -297.8 -278.94 -287.009 -287.392L67.2548 -564.891C86.5782 -580.027 113.64 -560.365 105.216 -537.31L-49.2269 -114.634C-53.931 -101.759 -47.5712 -87.4749 -34.856 -82.3562L382.597 85.6961C405.367 94.8626 401.87 128.13 377.692 132.362L-65.5785 209.949C-79.08 212.312 -88.2709 224.962 -86.3462 238.533L-23.1573 684.084C-19.7108 708.386 -50.2696 721.992 -66.0237 703.169L-354.851 358.079C-363.648 347.568 -379.199 345.933 -389.989 354.386L-744.253 631.884C-763.577 647.02 -790.639 627.359 -782.215 604.304L-627.772 181.627C-623.067 168.753 -629.427 154.468 -642.143 149.349L-1059.6 -18.7028Z" stroke="white"/>
<path opacity="0.0689655" d="M-1046.08 -54.8184C-1068.34 -65.1641 -1063.11 -98.2029 -1038.74 -101.164L-598.869 -154.613C-585.262 -156.266 -575.422 -168.418 -576.634 -182.071L-615.807 -623.443C-617.977 -647.893 -586.748 -659.881 -572.001 -640.259L-305.777 -286.043C-297.542 -275.086 -282.098 -272.64 -270.88 -280.516L91.7729 -535.127C111.862 -549.232 137.858 -528.18 128.239 -505.598L-45.4091 -97.933C-50.7806 -85.3225 -45.1771 -70.7248 -32.7472 -64.9477L369.079 121.813C391.338 132.159 386.106 165.198 361.739 168.158L-78.1331 221.607C-91.7398 223.261 -101.58 235.412 -100.368 249.065L-61.1945 690.438C-59.0244 714.887 -90.2534 726.875 -105.001 707.253L-371.225 353.038C-379.46 342.08 -394.904 339.634 -406.122 347.51L-768.775 602.122C-788.864 616.226 -814.86 595.175 -805.241 572.592L-631.593 164.928C-626.221 152.317 -631.825 137.719 -644.255 131.942L-1046.08 -54.8184Z" stroke="white"/>
<path opacity="0.103448" d="M-1030.79 -89.6648C-1052.48 -101.161 -1045.52 -133.881 -1021.03 -135.563L-585.851 -165.444C-572.177 -166.383 -561.714 -178.003 -562.21 -191.701L-577.98 -627.621C-578.868 -652.151 -547.054 -662.488 -533.354 -642.121L-289.885 -280.184C-282.235 -268.811 -266.94 -265.56 -255.325 -272.838L114.307 -504.457C135.107 -517.49 159.966 -495.107 149.178 -473.059L-42.5344 -81.2407C-48.5585 -68.9286 -43.7267 -54.0576 -31.6162 -47.6378L353.787 156.664C375.474 168.161 368.52 200.88 344.031 202.562L-91.1493 232.444C-104.824 233.383 -115.287 245.003 -114.791 258.7L-99.0203 694.621C-98.1328 719.15 -129.946 729.487 -143.647 709.121L-387.115 347.184C-394.766 335.811 -410.06 332.56 -421.675 339.838L-791.308 571.456C-812.107 584.49 -836.966 562.107 -826.178 540.058L-634.466 148.24C-628.442 135.928 -633.274 121.057 -645.384 114.637L-1030.79 -89.6648Z" stroke="white"/>
<path opacity="0.137931" d="M-1013.81 -123.163C-1034.87 -135.779 -1026.21 -168.09 -1001.67 -168.488L-572.422 -175.441C-558.717 -175.663 -547.66 -186.719 -547.438 -200.424L-540.485 -629.672C-540.087 -654.214 -507.776 -662.872 -495.161 -641.816L-274.515 -273.554C-267.471 -261.796 -252.367 -257.749 -240.387 -264.409L134.828 -473.011C156.282 -484.938 179.935 -461.285 168.008 -439.831L-40.5939 -64.6159C-47.2542 -52.636 -43.2071 -37.5326 -31.4492 -30.4878L336.813 190.157C357.869 202.773 349.211 235.084 324.668 235.482L-104.579 242.435C-118.284 242.657 -129.34 253.713 -129.562 267.418L-136.515 696.666C-136.913 721.208 -169.224 729.866 -181.84 708.81L-402.485 340.548C-409.53 328.79 -424.633 324.743 -436.613 331.403L-811.829 540.005C-833.282 551.932 -856.935 528.279 -845.008 506.825L-636.406 131.61C-629.746 119.63 -633.793 104.527 -645.551 97.4818L-1013.81 -123.163Z" stroke="white"/>
<path opacity="0.172414" d="M-995.257 -155.228C-1015.62 -168.928 -1005.29 -200.742 -980.757 -199.854L-558.632 -184.583C-544.934 -184.087 -533.314 -194.55 -532.375 -208.224L-503.439 -629.634C-501.757 -654.122 -469.038 -661.077 -457.541 -639.389L-259.704 -266.182C-253.285 -254.072 -238.414 -249.24 -226.102 -255.264L153.318 -440.909C175.366 -451.697 197.749 -426.839 184.715 -406.039L-39.5732 -48.1034C-46.8514 -36.4884 -43.6005 -21.1939 -32.2273 -13.5434L318.256 222.221C338.623 235.921 328.286 267.734 303.756 266.847L-118.37 251.575C-132.068 251.08 -143.687 261.542 -144.626 275.217L-173.562 696.626C-175.244 721.115 -207.964 728.069 -219.46 706.382L-417.297 333.175C-423.717 321.064 -438.588 316.233 -450.9 322.257L-830.319 507.902C-852.367 518.69 -874.75 493.831 -861.717 473.032L-637.428 115.096C-630.15 103.481 -633.401 88.1866 -644.774 80.5361L-995.257 -155.228Z" stroke="white"/>
<path opacity="0.206897" d="M-975.221 -185.787C-994.842 -200.535 -982.855 -231.764 -958.405 -229.594L-544.532 -192.861C-530.879 -191.649 -518.728 -201.489 -517.074 -215.096L-466.956 -627.562C-463.995 -651.928 -430.956 -657.161 -420.61 -634.902L-245.486 -258.111C-239.708 -245.681 -225.111 -240.078 -212.5 -245.449L169.765 -408.278C192.347 -417.897 213.399 -391.901 199.295 -371.812L-39.4535 -31.7544C-47.3295 -20.5363 -44.8834 -5.09254 -33.9264 3.14261L298.22 252.78C317.842 267.527 305.854 298.756 281.404 296.586L-132.468 259.853C-146.121 258.641 -158.273 268.481 -159.926 282.088L-210.045 694.554C-213.006 718.921 -246.045 724.153 -256.39 701.894L-431.515 325.104C-437.292 312.674 -451.89 307.07 -464.5 312.442L-846.766 475.27C-869.348 484.89 -890.399 458.894 -876.295 438.804L-637.547 98.7467C-629.671 87.5286 -632.117 72.0849 -643.074 63.8497L-975.221 -185.787Z" stroke="white"/>
<path opacity="0.241379" d="M-953.812 -214.774C-972.635 -230.528 -959.029 -261.087 -934.727 -257.64L-530.177 -200.266C-516.606 -198.341 -503.956 -207.532 -501.593 -221.034L-431.146 -623.513C-426.914 -647.691 -393.647 -651.188 -384.48 -628.418L-231.893 -249.38C-226.774 -236.665 -212.49 -230.306 -199.615 -235.01L184.165 -375.24C207.22 -383.665 226.882 -356.602 211.746 -337.279L-40.2163 -15.6157C-48.6687 -4.82516 -47.0342 10.7254 -36.5231 19.5228L276.81 281.771C295.633 297.525 282.028 328.084 257.725 324.637L-146.824 267.263C-160.395 265.339 -173.045 274.529 -175.409 288.031L-245.855 690.51C-250.087 714.688 -283.355 718.185 -292.521 695.415L-445.109 316.378C-450.227 303.662 -464.512 297.303 -477.386 302.007L-861.166 442.237C-884.222 450.662 -903.883 423.599 -888.747 404.276L-636.785 82.6128C-628.333 71.8223 -629.967 56.2717 -640.478 47.4744L-953.812 -214.774Z" stroke="white"/>
<path opacity="0.275862" d="M-931.137 -242.131C-949.11 -258.849 -933.924 -288.654 -909.835 -283.94L-515.616 -206.798C-502.164 -204.165 -489.051 -212.682 -485.984 -226.041L-396.114 -617.554C-390.622 -641.478 -357.217 -643.229 -349.255 -620.01L-218.953 -240.035C-214.507 -227.07 -200.574 -219.971 -187.472 -223.995L196.524 -341.922C219.988 -349.128 238.207 -321.074 222.08 -302.569L-41.8364 0.263479C-50.842 10.5969 -50.0236 26.2117 -39.9873 35.5471L254.138 309.134C272.111 325.851 256.924 355.656 232.836 350.943L-161.383 273.8C-174.835 271.168 -187.949 279.684 -191.015 293.043L-280.886 684.557C-286.377 708.48 -319.782 710.231 -327.744 687.013L-458.046 307.038C-462.493 294.072 -476.425 286.973 -489.528 290.997L-873.523 408.924C-896.987 416.13 -915.206 388.076 -899.079 369.571L-635.163 66.739C-626.157 56.4056 -626.976 40.7908 -637.012 31.4554L-931.137 -242.131Z" stroke="white"/>
<path opacity="0.310345" d="M-907.311 -267.813C-924.384 -285.449 -907.659 -314.418 -883.85 -308.45L-500.903 -212.459C-487.608 -209.127 -474.066 -216.945 -470.305 -230.125L-361.962 -609.762C-355.225 -633.365 -321.775 -633.365 -315.039 -609.762L-206.695 -230.125C-202.934 -216.945 -189.392 -209.127 -176.097 -212.459L206.85 -308.45C230.659 -314.418 247.384 -285.449 230.311 -267.813L-44.2921 15.8331C-53.8261 25.681 -53.826 41.3173 -44.2921 51.1651L230.311 334.811C247.384 352.447 230.659 381.416 206.85 375.448L-176.097 279.458C-189.392 276.125 -202.934 283.943 -206.695 297.124L-315.039 676.76C-321.775 700.363 -355.225 700.364 -361.962 676.76L-470.305 297.124C-474.066 283.943 -487.608 276.125 -500.903 279.458L-883.85 375.448C-907.659 381.416 -924.384 352.447 -907.311 334.811L-632.708 51.1651C-623.174 41.3172 -623.174 25.681 -632.708 15.8331L-907.311 -267.813Z" stroke="white"/>
<path opacity="0.344828" d="M-882.445 -291.771C-898.572 -310.276 -880.353 -338.33 -856.889 -331.124L-486.089 -217.25C-472.986 -213.226 -459.054 -220.325 -454.608 -233.29L-328.783 -600.208C-320.821 -623.426 -287.416 -621.675 -281.924 -597.752L-195.143 -219.692C-192.076 -206.333 -178.962 -197.817 -165.511 -200.449L215.161 -274.94C239.25 -279.654 254.437 -249.849 236.464 -233.132L-47.5543 31.0533C-57.5905 40.3887 -58.4088 56.0036 -49.4034 66.3369L205.444 358.763C221.571 377.268 203.352 405.322 179.888 398.116L-190.912 284.241C-204.015 280.217 -217.947 287.316 -222.393 300.282L-348.218 667.199C-356.18 690.418 -389.585 688.667 -395.076 664.743L-481.858 286.684C-484.925 273.324 -498.039 264.808 -511.49 267.441L-892.162 341.932C-916.251 346.646 -931.438 316.841 -913.465 300.123L-629.447 35.9381C-619.41 26.6027 -618.592 10.9879 -627.598 0.654563L-882.445 -291.771Z" stroke="white"/>
<path opacity="0.37931" d="M-856.653 -313.967C-871.789 -333.291 -852.127 -360.353 -829.072 -351.929L-471.223 -221.173C-458.349 -216.469 -444.064 -222.829 -438.945 -235.544L-296.668 -588.971C-287.501 -611.741 -254.234 -608.244 -250.002 -584.066L-184.315 -208.781C-181.952 -195.28 -169.302 -186.089 -155.731 -188.014L221.485 -241.511C245.787 -244.958 259.393 -214.399 240.57 -198.645L-51.5926 45.8843C-62.1037 54.6817 -63.7381 70.2323 -55.2858 81.0228L179.652 380.952C194.788 400.275 175.126 427.338 152.071 418.914L-205.778 288.158C-218.653 283.454 -232.937 289.814 -238.056 302.529L-380.333 655.955C-389.5 678.725 -422.767 675.229 -426.999 651.051L-492.686 275.766C-495.049 262.264 -507.699 253.074 -521.27 254.998L-898.486 308.496C-922.788 311.942 -936.394 281.384 -917.571 265.629L-625.409 21.1005C-614.897 12.3031 -613.263 -3.24753 -621.715 -14.038L-856.653 -313.967Z" stroke="white"/>
<path opacity="0.413793" d="M-830.049 -334.364C-844.154 -354.453 -823.102 -380.449 -800.52 -370.83L-456.354 -224.229C-443.743 -218.858 -429.146 -224.461 -423.369 -236.891L-265.698 -576.128C-255.352 -598.388 -222.314 -593.155 -219.353 -568.788L-174.229 -197.432C-172.576 -183.825 -160.424 -173.985 -146.771 -175.196L225.852 -208.268C250.302 -210.438 262.289 -179.209 242.668 -164.462L-56.3748 60.2945C-67.3319 68.5297 -69.7778 83.9735 -61.9019 95.1915L153.051 401.357C167.155 421.446 146.104 447.442 123.521 437.823L-220.645 291.223C-233.255 285.851 -247.853 291.455 -253.63 303.884L-411.301 643.122C-421.646 665.381 -454.685 660.148 -457.646 635.781L-502.769 264.425C-504.423 250.818 -516.574 240.978 -530.227 242.19L-902.851 275.261C-927.3 277.431 -939.288 246.202 -919.666 231.455L-620.624 6.69864C-609.667 -1.53661 -607.221 -16.9803 -615.097 -28.1984L-830.049 -334.364Z" stroke="white"/>
<path opacity="0.448276" d="M-802.753 -352.95C-815.786 -373.75 -793.403 -398.608 -771.355 -387.821L-441.533 -226.443C-429.221 -220.418 -414.35 -225.25 -407.93 -237.361L-235.954 -561.783C-224.458 -583.47 -191.738 -576.515 -190.057 -552.027L-164.903 -185.704C-163.964 -172.029 -152.344 -161.566 -138.646 -162.062L228.299 -175.337C252.829 -176.225 263.166 -144.411 242.8 -130.711L-61.869 74.2343C-73.2421 81.8848 -76.493 97.1794 -69.215 108.794L125.755 419.941C138.788 440.741 116.405 465.599 94.3571 454.812L-235.465 293.434C-247.777 287.409 -262.648 292.241 -269.068 304.352L-441.044 628.774C-452.54 650.461 -485.26 643.506 -486.941 619.018L-512.095 252.695C-513.034 239.02 -524.654 228.557 -538.352 229.053L-905.298 242.328C-929.827 243.216 -940.164 211.402 -919.798 197.702L-615.129 -7.24329C-603.756 -14.8938 -600.505 -30.1884 -607.783 -41.8032L-802.753 -352.95Z" stroke="white"/>
<path opacity="0.482759" d="M-774.88 -369.666C-786.807 -391.119 -763.154 -414.773 -741.7 -402.846L-426.809 -227.781C-414.829 -221.121 -399.725 -225.168 -392.68 -236.926L-207.508 -545.982C-194.893 -567.038 -162.582 -558.38 -162.184 -533.838L-156.349 -173.601C-156.127 -159.896 -145.07 -148.839 -131.365 -148.617L228.871 -142.782C253.414 -142.384 262.072 -110.073 241.016 -97.4576L-68.0403 87.7144C-79.7983 94.7592 -83.8452 109.863 -77.1849 121.843L97.8798 436.734C109.807 458.188 86.1536 481.841 64.7003 469.914L-250.192 294.849C-262.172 288.189 -277.275 292.236 -284.32 303.994L-469.492 613.05C-482.108 634.106 -514.418 625.449 -514.816 600.906L-520.652 240.669C-520.873 226.964 -531.93 215.907 -545.635 215.686L-905.872 209.85C-930.414 209.453 -939.072 177.142 -918.016 164.526L-608.96 -20.6461C-597.202 -27.6908 -593.155 -42.7943 -599.815 -54.7742L-774.88 -369.666Z" stroke="white"/>
<path opacity="0.517241" d="M-746.543 -384.581C-757.331 -406.629 -732.472 -429.012 -711.673 -415.979L-412.223 -228.339C-400.608 -221.061 -385.313 -224.312 -377.663 -235.685L-180.422 -528.9C-166.722 -549.266 -134.908 -538.929 -135.796 -514.4L-148.572 -161.249C-149.068 -147.551 -138.605 -135.931 -124.93 -134.992L227.622 -110.784C252.11 -109.102 259.065 -76.3825 237.377 -64.8861L-74.8486 100.625C-86.9592 107.045 -91.791 121.915 -85.7669 134.228L69.5444 451.65C80.3323 473.699 55.4736 496.081 34.6738 483.048L-264.776 295.408C-276.391 288.13 -291.685 291.381 -299.336 302.754L-496.576 595.969C-510.277 616.336 -542.09 605.999 -541.203 581.469L-528.426 228.318C-527.931 214.62 -538.394 203 -552.068 202.061L-904.62 177.853C-929.108 176.171 -936.063 143.452 -914.376 131.955L-602.15 -33.5556C-590.04 -39.9754 -585.208 -54.8463 -591.232 -67.1583L-746.543 -384.581Z" stroke="white"/>
<path opacity="0.551724" d="M-717.86 -397.656C-727.479 -420.238 -701.483 -441.29 -681.394 -427.186L-397.824 -228.096C-386.606 -220.22 -371.162 -222.666 -362.927 -233.624L-154.757 -510.597C-140.01 -530.218 -108.781 -518.231 -110.951 -493.781L-141.582 -148.657C-142.794 -135.004 -132.954 -122.852 -119.347 -121.199L224.603 -79.4058C248.97 -76.445 254.203 -43.4061 231.944 -33.0604L-82.2575 112.974C-94.6874 118.751 -100.291 133.349 -94.9194 145.959L40.8616 464.726C50.4808 487.308 24.4847 508.359 4.39554 494.255L-279.175 295.166C-290.393 287.29 -305.836 289.736 -314.072 300.693L-522.241 577.666C-536.988 597.288 -568.217 585.3 -566.047 560.85L-535.416 215.727C-534.204 202.074 -544.045 189.922 -557.651 188.269L-901.602 146.475C-925.968 143.515 -931.201 110.476 -908.942 100.13L-594.741 -45.9042C-582.311 -51.6814 -576.707 -66.2791 -582.079 -78.8895L-717.86 -397.656Z" stroke="white"/>
<path opacity="0.586207" d="M-688.945 -408.899C-697.369 -431.954 -670.307 -451.615 -650.983 -436.479L-383.654 -227.078C-372.864 -218.626 -357.313 -220.26 -348.516 -230.771L-130.566 -491.177C-114.812 -510 -84.2532 -496.395 -87.6999 -472.092L-135.382 -135.878C-137.307 -122.307 -128.116 -109.657 -114.615 -107.294L219.879 -48.7467C244.057 -44.5146 247.553 -11.2472 224.783 -2.08068L-90.2278 124.732C-102.943 129.851 -109.303 144.135 -104.599 157.009L11.9447 475.963C20.3687 499.018 -6.69342 518.679 -26.0169 503.543L-293.345 294.142C-304.136 285.69 -319.687 287.324 -328.484 297.835L-546.434 558.241C-562.188 577.064 -592.747 563.459 -589.3 539.156L-541.618 202.942C-539.693 189.371 -548.884 176.721 -562.385 174.358L-896.878 115.811C-921.057 111.579 -924.553 78.3112 -901.783 69.1447L-586.772 -57.668C-574.057 -62.7867 -567.697 -77.0711 -572.401 -89.9454L-688.945 -408.899Z" stroke="white"/>
<path opacity="0.62069" d="M-659.908 -418.311C-667.114 -441.776 -639.06 -459.994 -620.555 -443.868L-369.756 -225.297C-359.422 -216.292 -343.808 -217.11 -334.472 -227.146L-107.893 -470.735C-91.1755 -488.708 -61.3707 -473.521 -66.0845 -449.433L-129.972 -122.948C-132.605 -109.497 -124.088 -96.383 -110.729 -93.3165L213.515 -18.8877C237.438 -13.3961 239.189 20.0088 215.97 27.971L-98.717 135.885C-111.683 140.331 -118.781 154.263 -114.757 167.366L-17.0929 485.383C-9.88694 508.847 -37.941 527.066 -56.4459 510.939L-307.246 292.369C-317.579 283.364 -333.194 284.182 -342.529 294.218L-569.108 537.807C-585.826 555.78 -615.631 540.593 -610.917 516.504L-547.029 190.02C-544.397 176.569 -552.913 163.455 -566.272 160.388L-890.516 85.9595C-914.44 80.4679 -916.19 47.063 -892.972 39.1008L-578.284 -68.8129C-565.319 -73.2591 -558.22 -87.1911 -562.244 -100.294L-659.908 -418.311Z" stroke="white"/>
<path opacity="0.655172" d="M-630.861 -425.924C-636.829 -449.734 -607.86 -466.459 -590.224 -449.386L-356.166 -222.79C-346.318 -213.256 -330.682 -213.256 -320.834 -222.79L-86.7757 -449.386C-69.1404 -466.459 -40.1712 -449.734 -46.1392 -425.924L-125.348 -109.926C-128.681 -96.6306 -120.863 -83.0892 -107.682 -79.3277L205.585 10.0745C229.188 16.8106 229.188 50.2614 205.585 56.9975L-107.682 146.4C-120.863 150.161 -128.681 163.703 -125.348 176.998L-46.1393 492.997C-40.1713 516.806 -69.1404 533.531 -86.7759 516.458L-320.834 289.862C-330.682 280.328 -346.318 280.328 -356.166 289.862L-590.224 516.458C-607.86 533.531 -636.829 516.806 -630.861 492.996L-551.652 176.998C-548.319 163.703 -556.137 150.161 -569.318 146.4L-882.585 56.9976C-906.188 50.2615 -906.188 16.8107 -882.585 10.0746L-569.318 -79.3277C-556.137 -83.0892 -548.319 -96.6306 -551.652 -109.926L-630.861 -425.924Z" stroke="white"/>
<path opacity="0.689655" d="M-601.912 -431.791C-606.625 -455.88 -576.82 -471.066 -560.103 -453.094L-342.925 -219.612C-333.59 -209.576 -317.975 -208.758 -307.642 -217.763L-67.2486 -427.264C-48.7437 -443.391 -20.6896 -425.172 -27.8956 -401.708L-121.508 -96.8863C-125.532 -83.7835 -118.433 -69.8514 -105.467 -65.4052L196.163 38.0307C219.381 45.993 217.631 79.3979 193.707 84.8895L-117.083 156.23C-130.442 159.296 -138.958 172.41 -136.326 185.862L-75.0891 498.799C-70.3754 522.888 -100.18 538.074 -116.898 520.102L-334.075 286.62C-343.411 276.584 -359.026 275.766 -369.359 284.771L-609.752 494.272C-628.257 510.399 -656.311 492.18 -649.105 468.716L-555.493 163.894C-551.469 150.791 -558.568 136.859 -571.533 132.413L-873.163 28.9772C-896.382 21.015 -894.631 -12.3899 -870.708 -17.8815L-559.918 -89.222C-546.559 -92.2886 -538.042 -105.402 -540.675 -118.854L-601.912 -431.791Z" stroke="white"/>
<path opacity="0.724138" d="M-573.165 -435.881C-576.611 -460.184 -546.053 -473.789 -530.298 -454.966L-330.068 -215.731C-321.27 -205.22 -305.72 -203.586 -294.929 -212.038L-49.3344 -404.415C-30.011 -419.551 -2.94887 -399.889 -11.373 -376.834L-118.441 -83.8121C-123.146 -70.9379 -116.786 -56.6534 -104.071 -51.5347L185.33 64.9681C208.1 74.1346 204.604 107.402 180.425 111.634L-126.874 165.421C-140.375 167.785 -149.566 180.435 -147.641 194.006L-103.835 502.885C-100.389 527.188 -130.947 540.794 -146.702 521.971L-346.932 282.736C-355.729 272.225 -371.28 270.59 -382.071 279.042L-627.665 471.419C-646.989 486.555 -674.051 466.894 -665.627 443.839L-558.559 150.816C-553.854 137.942 -560.214 123.658 -572.929 118.539L-862.33 2.03615C-885.1 -7.13034 -881.604 -40.3979 -857.425 -44.6299L-550.126 -98.4171C-536.625 -100.78 -527.434 -113.43 -529.359 -127.001L-573.165 -435.881Z" stroke="white"/>
<path opacity="0.758621" d="M-544.724 -438.26C-546.894 -462.709 -515.665 -474.697 -500.917 -455.075L-317.629 -211.206C-309.393 -200.249 -293.95 -197.803 -282.731 -205.679L-33.0539 -380.973C-12.9647 -395.077 13.0314 -374.026 3.41221 -351.443L-116.14 -70.7762C-121.512 -58.1658 -115.908 -43.568 -103.478 -37.7909L173.169 90.7893C195.429 101.135 190.196 134.174 165.829 137.135L-137.012 173.933C-150.619 175.586 -160.459 187.738 -159.247 201.391L-132.277 505.265C-130.107 529.715 -161.336 541.703 -176.084 522.081L-359.372 278.212C-367.608 267.255 -383.051 264.809 -394.269 272.685L-643.947 447.979C-664.036 462.083 -690.032 441.031 -680.413 418.449L-560.861 137.782C-555.489 125.171 -561.093 110.574 -573.522 104.796L-850.17 -23.7838C-872.429 -34.1294 -867.197 -67.1684 -842.83 -70.1292L-539.989 -106.927C-526.382 -108.581 -516.542 -120.732 -517.754 -134.385L-544.724 -438.26Z" stroke="white"/>
<path opacity="0.793103" d="M-516.684 -438.975C-517.572 -463.504 -485.758 -473.841 -472.058 -453.475L-305.636 -206.074C-297.985 -194.701 -282.691 -191.45 -271.076 -198.728L-18.4148 -357.05C2.38494 -370.083 27.2437 -347.7 16.4558 -325.652L-114.588 -57.826C-120.613 -45.514 -115.781 -30.643 -103.67 -24.2233L159.771 115.427C181.458 126.923 174.503 159.643 150.015 161.324L-147.451 181.75C-161.126 182.689 -171.588 194.309 -171.093 208.007L-160.313 505.978C-159.425 530.508 -191.239 540.845 -204.939 520.479L-371.361 273.078C-379.012 261.705 -394.306 258.454 -405.921 265.732L-658.582 424.054C-679.382 437.087 -704.241 414.704 -693.453 392.656L-562.409 124.83C-556.385 112.518 -561.217 97.6469 -573.327 91.2272L-836.768 -48.4228C-858.455 -59.9192 -851.501 -92.639 -827.012 -94.3205L-529.546 -114.746C-515.871 -115.685 -505.409 -127.305 -505.904 -141.003L-516.684 -438.975Z" stroke="white"/>
<path opacity="0.827586" d="M-489.147 -438.07C-488.75 -462.613 -456.439 -471.27 -443.823 -450.214L-294.124 -200.364C-287.079 -188.606 -271.976 -184.559 -259.996 -191.219L-5.42775 -332.747C16.0255 -344.674 39.6787 -321.021 27.7517 -299.567L-113.776 -44.9989C-120.436 -33.019 -116.389 -17.9155 -104.631 -10.8708L145.219 138.828C166.275 151.444 157.617 183.755 133.075 184.152L-158.152 188.87C-171.857 189.092 -182.913 200.148 -183.135 213.853L-187.853 505.08C-188.25 529.622 -220.561 538.28 -233.177 517.224L-382.876 267.373C-389.92 255.616 -405.024 251.569 -417.004 258.229L-671.572 399.757C-693.025 411.684 -716.679 388.03 -704.752 366.577L-563.224 112.009C-556.564 100.029 -560.611 84.9253 -572.368 77.8806L-822.219 -71.8182C-843.275 -84.4338 -834.617 -116.745 -810.075 -117.142L-518.848 -121.86C-505.143 -122.082 -494.087 -133.138 -493.865 -146.843L-489.147 -438.07Z" stroke="white"/>
<path opacity="0.862069" d="M-462.199 -435.604C-460.517 -460.093 -427.798 -467.047 -416.301 -445.36L-283.116 -194.115C-276.697 -182.005 -261.826 -177.173 -249.514 -183.197L5.91308 -308.174C27.9613 -318.962 50.3442 -294.104 37.3107 -273.304L-113.681 -32.34C-120.96 -20.7251 -117.709 -5.43045 -106.335 2.21997L129.612 160.937C149.978 174.638 139.641 206.451 115.112 205.564L-169.065 195.283C-182.763 194.787 -194.383 205.25 -195.322 218.925L-214.802 502.619C-216.484 527.108 -249.203 534.062 -260.7 512.375L-393.884 261.13C-400.304 249.02 -415.175 244.188 -427.487 250.212L-682.914 375.189C-704.962 385.977 -727.345 361.119 -714.312 340.319L-563.32 99.355C-556.042 87.7401 -559.293 72.4454 -570.666 64.795L-806.613 -93.9225C-826.979 -107.623 -816.642 -139.436 -792.113 -138.549L-507.936 -128.268C-494.238 -127.772 -482.618 -138.235 -481.679 -151.91L-462.199 -435.604Z" stroke="white"/>
<path opacity="0.896552" d="M-435.925 -431.642C-432.964 -456.008 -399.925 -461.241 -389.58 -438.982L-272.636 -187.37C-266.859 -174.94 -252.261 -169.337 -239.65 -174.708L15.6175 -283.441C38.1999 -293.061 59.2511 -267.065 45.1469 -246.975L-114.283 -19.8928C-122.159 -8.67468 -119.713 6.7691 -108.756 15.0043L113.043 181.706C132.665 196.453 120.678 227.682 96.2277 225.512L-180.147 200.983C-193.8 199.771 -205.952 209.611 -207.605 223.218L-241.073 498.653C-244.034 523.02 -277.073 528.253 -287.418 505.993L-404.363 254.381C-410.14 241.952 -424.737 236.348 -437.348 241.72L-692.616 350.453C-715.198 360.072 -736.249 334.076 -722.145 313.987L-562.715 86.9042C-554.839 75.6861 -557.285 60.2423 -568.242 52.0072L-790.042 -114.695C-809.663 -129.442 -797.676 -160.671 -773.226 -158.501L-496.851 -133.972C-483.198 -132.76 -471.047 -142.6 -469.393 -156.207L-435.925 -431.642Z" stroke="white"/>
<path opacity="0.931035" d="M-410.413 -426.24C-406.181 -450.419 -372.913 -453.915 -363.747 -431.145L-262.709 -180.16C-257.59 -167.445 -243.306 -161.085 -230.431 -165.789L23.6945 -258.645C46.7496 -267.069 66.4114 -240.007 51.2751 -220.684L-115.565 -7.68962C-124.017 3.10084 -122.383 18.6515 -111.872 27.4489L95.6064 201.1C114.429 216.855 100.824 247.413 76.5211 243.967L-191.357 205.976C-204.928 204.051 -217.578 213.242 -219.941 226.743L-266.589 493.251C-270.821 517.429 -304.088 520.925 -313.255 498.155L-414.293 247.17C-419.411 234.455 -433.696 228.095 -446.57 232.8L-700.696 325.655C-723.751 334.08 -743.413 307.017 -728.277 287.694L-561.436 74.7C-552.984 63.9095 -554.618 48.3588 -565.13 39.5615L-772.608 -134.09C-791.431 -149.844 -777.825 -180.403 -753.523 -176.956L-485.644 -138.965C-472.073 -137.041 -459.423 -146.231 -457.06 -159.733L-410.413 -426.24Z" stroke="white"/>
<path opacity="0.965517" d="M-385.733 -419.47C-380.242 -443.394 -346.837 -445.145 -338.874 -421.926L-253.349 -172.526C-248.903 -159.561 -234.971 -152.462 -221.868 -156.486L30.1711 -233.888C53.6354 -241.094 71.8541 -213.04 55.7272 -194.535L-117.497 4.2318C-126.502 14.5651 -125.684 30.18 -115.648 39.5154L77.4042 219.087C95.3769 235.804 80.1906 265.609 56.1017 260.895L-202.648 210.262C-216.099 207.63 -229.213 216.146 -232.28 229.505L-291.267 486.479C-296.759 510.403 -330.163 512.154 -338.126 488.935L-423.651 239.535C-428.097 226.569 -442.029 219.47 -455.132 223.494L-707.171 300.897C-730.636 308.103 -748.854 280.049 -732.727 261.544L-559.503 62.7769C-550.498 52.4436 -551.316 36.8286 -561.352 27.4933L-754.404 -152.078C-772.377 -168.796 -757.191 -198.601 -733.102 -193.887L-474.352 -143.254C-460.901 -140.621 -447.787 -149.137 -444.72 -162.497L-385.733 -419.47Z" stroke="white"/>
<path d="M-361.961 -411.403C-355.225 -435.006 -321.774 -435.006 -315.038 -411.403L-244.576 -164.505C-240.815 -151.325 -227.274 -143.506 -213.978 -146.839L35.0722 -209.267C58.8814 -215.235 75.6068 -186.266 58.5336 -168.63L-120.055 15.8399C-129.589 25.6878 -129.589 41.3241 -120.055 51.1719L58.5336 235.642C75.6068 253.277 58.8814 282.247 35.0721 276.279L-213.978 213.851C-227.274 210.518 -240.815 218.336 -244.576 231.517L-315.038 478.415C-321.774 502.018 -355.225 502.018 -361.961 478.414L-432.422 231.517C-436.184 218.336 -449.725 210.518 -463.02 213.851L-712.071 276.279C-735.88 282.247 -752.605 253.277 -735.532 235.642L-556.943 51.1719C-547.409 41.324 -547.409 25.6877 -556.943 15.8399L-735.532 -168.63C-752.605 -186.266 -735.88 -215.235 -712.071 -209.267L-463.02 -146.839C-449.725 -143.506 -436.184 -151.325 -432.422 -164.505L-361.961 -411.403Z" stroke="white"/>
</svg>
