<svg width="820" height="868" viewBox="0 0 820 868" fill="none" xmlns="http://www.w3.org/2000/svg">
<path opacity="0.0344828" d="M272.405 941.297C249.635 932.131 253.131 898.863 277.31 894.631L720.58 817.044C734.081 814.681 743.272 802.031 741.348 788.46L678.159 342.91C674.712 318.607 705.271 305.001 721.025 323.824L1009.85 668.914C1018.65 679.425 1034.2 681.06 1044.99 672.608L1399.25 395.109C1418.58 379.973 1445.64 399.635 1437.22 422.69L1282.77 845.366C1278.07 858.241 1284.43 872.525 1297.14 877.644L1714.6 1045.7C1737.37 1054.86 1733.87 1088.13 1709.69 1092.36L1266.42 1169.95C1252.92 1172.31 1243.73 1184.96 1245.65 1198.53L1308.84 1644.08C1312.29 1668.39 1281.73 1681.99 1265.98 1663.17L977.149 1318.08C968.352 1307.57 952.801 1305.93 942.011 1314.39L587.747 1591.88C568.423 1607.02 541.361 1587.36 549.785 1564.3L704.228 1141.63C708.932 1128.75 702.573 1114.47 689.857 1109.35L272.405 941.297Z" stroke="white"/>
<path opacity="0.0689655" d="M285.919 905.182C263.66 894.836 268.893 861.797 293.259 858.836L733.131 805.387C746.738 803.734 756.578 791.582 755.366 777.929L716.193 336.557C714.023 312.107 745.252 300.119 759.999 319.741L1026.22 673.957C1034.46 684.914 1049.9 687.36 1061.12 679.484L1423.77 424.873C1443.86 410.768 1469.86 431.82 1460.24 454.402L1286.59 862.067C1281.22 874.677 1286.82 889.275 1299.25 895.052L1701.08 1081.81C1723.34 1092.16 1718.11 1125.2 1693.74 1128.16L1253.87 1181.61C1240.26 1183.26 1230.42 1195.41 1231.63 1209.07L1270.81 1650.44C1272.98 1674.89 1241.75 1686.88 1227 1667.25L960.775 1313.04C952.54 1302.08 937.096 1299.63 925.878 1307.51L563.225 1562.12C543.136 1576.23 517.14 1555.17 526.759 1532.59L700.407 1124.93C705.779 1112.32 700.175 1097.72 687.745 1091.94L285.919 905.182Z" stroke="white"/>
<path opacity="0.103448" d="M301.212 870.335C279.525 858.839 286.48 826.119 310.968 824.437L746.149 794.556C759.823 793.617 770.286 781.997 769.79 768.299L754.02 332.379C753.132 307.849 784.946 297.512 798.646 317.879L1042.11 679.816C1049.77 691.189 1065.06 694.44 1076.67 687.162L1446.31 455.543C1467.11 442.51 1491.97 464.893 1481.18 486.941L1289.47 878.759C1283.44 891.071 1288.27 905.942 1300.38 912.362L1685.79 1116.66C1707.47 1128.16 1700.52 1160.88 1676.03 1162.56L1240.85 1192.44C1227.18 1193.38 1216.71 1205 1217.21 1218.7L1232.98 1654.62C1233.87 1679.15 1202.05 1689.49 1188.35 1669.12L944.885 1307.18C937.234 1295.81 921.94 1292.56 910.325 1299.84L540.692 1531.46C519.892 1544.49 495.034 1522.11 505.822 1500.06L697.534 1108.24C703.558 1095.93 698.726 1081.06 686.615 1074.64L301.212 870.335Z" stroke="white"/>
<path opacity="0.137931" d="M318.187 836.837C297.131 824.221 305.789 791.91 330.331 791.513L759.578 784.56C773.283 784.338 784.34 773.281 784.562 759.576L791.515 330.329C791.913 305.786 824.224 297.129 836.839 318.184L1057.48 686.447C1064.53 698.205 1079.63 702.251 1091.61 695.591L1466.83 486.989C1488.28 475.062 1511.93 498.716 1500.01 520.169L1291.41 895.385C1284.75 907.365 1288.79 922.468 1300.55 929.513L1668.81 1150.16C1689.87 1162.77 1681.21 1195.08 1656.67 1195.48L1227.42 1202.44C1213.72 1202.66 1202.66 1213.71 1202.44 1227.42L1195.48 1656.67C1195.09 1681.21 1162.78 1689.87 1150.16 1668.81L929.515 1300.55C922.47 1288.79 907.367 1284.74 895.387 1291.4L520.171 1500.01C498.718 1511.93 475.065 1488.28 486.992 1466.83L695.593 1091.61C702.254 1079.63 698.207 1064.53 686.449 1057.48L318.187 836.837Z" stroke="white"/>
<path opacity="0.172414" d="M336.743 804.772C316.376 791.072 326.713 759.258 351.243 760.146L773.368 775.417C787.066 775.913 798.686 765.45 799.625 751.776L828.561 330.366C830.242 305.878 862.962 298.923 874.459 320.611L1072.3 693.818C1078.72 705.928 1093.59 710.76 1105.9 704.736L1485.32 519.091C1507.37 508.303 1529.75 533.161 1516.72 553.961L1292.43 911.897C1285.15 923.512 1288.4 938.806 1299.77 946.457L1650.26 1182.22C1670.62 1195.92 1660.29 1227.73 1635.76 1226.85L1213.63 1211.58C1199.93 1211.08 1188.31 1221.54 1187.37 1235.22L1158.44 1656.63C1156.76 1681.11 1124.04 1688.07 1112.54 1666.38L914.703 1293.17C908.283 1281.06 893.412 1276.23 881.1 1282.26L501.681 1467.9C479.633 1478.69 457.25 1453.83 470.283 1433.03L694.572 1075.1C701.85 1063.48 698.599 1048.19 687.226 1040.54L336.743 804.772Z" stroke="white"/>
<path opacity="0.206897" d="M356.779 774.213C337.158 759.465 349.145 728.236 373.595 730.406L787.468 767.139C801.121 768.351 813.272 758.511 814.926 744.904L865.044 332.438C868.005 308.072 901.044 302.839 911.39 325.098L1086.51 701.889C1092.29 714.319 1106.89 719.922 1119.5 714.551L1501.76 551.722C1524.35 542.103 1545.4 568.099 1531.29 588.188L1292.55 928.246C1284.67 939.464 1287.12 954.907 1298.07 963.143L1630.22 1212.78C1649.84 1227.53 1637.85 1258.76 1613.4 1256.59L1199.53 1219.85C1185.88 1218.64 1173.73 1228.48 1172.07 1242.09L1121.95 1654.55C1118.99 1678.92 1085.96 1684.15 1075.61 1661.89L900.485 1285.1C894.708 1272.67 880.11 1267.07 867.5 1272.44L485.234 1435.27C462.652 1444.89 441.601 1418.89 455.705 1398.8L694.453 1058.75C702.329 1047.53 699.883 1032.08 688.926 1023.85L356.779 774.213Z" stroke="white"/>
<path opacity="0.241379" d="M378.188 745.226C359.365 729.472 372.971 698.913 397.273 702.36L801.823 759.734C815.394 761.659 828.044 752.468 830.407 738.966L900.854 336.487C905.086 312.309 938.353 308.812 947.52 331.582L1100.11 710.62C1105.23 723.335 1119.51 729.694 1132.38 724.99L1516.17 584.76C1539.22 576.335 1558.88 603.398 1543.75 622.721L1291.78 944.384C1283.33 955.175 1284.97 970.725 1295.48 979.523L1608.81 1241.77C1627.63 1257.53 1614.03 1288.08 1589.72 1284.64L1185.18 1227.26C1171.6 1225.34 1158.95 1234.53 1156.59 1248.03L1086.14 1650.51C1081.91 1674.69 1048.65 1678.18 1039.48 1655.41L886.891 1276.38C881.772 1263.66 867.488 1257.3 854.614 1262.01L470.833 1402.24C447.778 1410.66 428.117 1383.6 443.253 1364.28L695.215 1042.61C703.667 1031.82 702.033 1016.27 691.522 1007.47L378.188 745.226Z" stroke="white"/>
<path opacity="0.275862" d="M400.863 717.869C382.89 701.151 398.076 671.346 422.165 676.06L816.384 753.202C829.836 755.835 842.949 747.318 846.016 733.959L935.886 342.446C941.378 318.522 974.783 316.771 982.745 339.99L1113.05 719.965C1117.49 732.93 1131.43 740.029 1144.53 736.005L1528.52 618.078C1551.99 610.872 1570.21 638.926 1554.08 657.431L1290.16 960.263C1281.16 970.597 1281.98 986.212 1292.01 995.547L1586.14 1269.13C1604.11 1285.85 1588.92 1315.66 1564.84 1310.94L1170.62 1233.8C1157.16 1231.17 1144.05 1239.68 1140.98 1253.04L1051.11 1644.56C1045.62 1668.48 1012.22 1670.23 1004.26 1647.01L873.954 1267.04C869.507 1254.07 855.575 1246.97 842.472 1251L458.477 1368.92C435.012 1376.13 416.794 1348.08 432.921 1329.57L696.837 1026.74C705.843 1016.41 705.024 1000.79 694.988 991.455L400.863 717.869Z" stroke="white"/>
<path opacity="0.310345" d="M424.689 692.187C407.616 674.551 424.341 645.582 448.15 651.55L831.097 747.541C844.392 750.873 857.934 743.055 861.695 729.875L970.038 350.238C976.775 326.635 1010.23 326.635 1016.96 350.238L1125.3 729.875C1129.07 743.055 1142.61 750.873 1155.9 747.541L1538.85 651.55C1562.66 645.582 1579.38 674.551 1562.31 692.187L1287.71 975.833C1278.17 985.681 1278.17 1001.32 1287.71 1011.17L1562.31 1294.81C1579.38 1312.45 1562.66 1341.42 1538.85 1335.45L1155.9 1239.46C1142.61 1236.12 1129.07 1243.94 1125.3 1257.12L1016.96 1636.76C1010.23 1660.36 976.775 1660.36 970.038 1636.76L861.695 1257.12C857.934 1243.94 844.392 1236.12 831.097 1239.46L448.15 1335.45C424.341 1341.42 407.616 1312.45 424.689 1294.81L699.292 1011.17C708.826 1001.32 708.826 985.681 699.292 975.833L424.689 692.187Z" stroke="white"/>
<path opacity="0.344828" d="M449.555 668.229C433.428 649.724 451.647 621.67 475.111 628.876L845.911 742.75C859.014 746.774 872.946 739.676 877.392 726.71L1003.22 359.793C1011.18 336.574 1044.58 338.325 1050.08 362.249L1136.86 740.308C1139.92 753.667 1153.04 762.183 1166.49 759.551L1547.16 685.06C1571.25 680.346 1586.44 710.151 1568.46 726.868L1284.45 991.054C1274.41 1000.39 1273.59 1016 1282.6 1026.34L1537.44 1318.76C1553.57 1337.27 1535.35 1365.32 1511.89 1358.12L1141.09 1244.24C1127.98 1240.22 1114.05 1247.32 1109.61 1260.28L983.782 1627.2C975.82 1650.42 942.415 1648.67 936.924 1624.74L850.142 1246.68C847.075 1233.32 833.961 1224.81 820.51 1227.44L439.838 1301.93C415.749 1306.65 400.563 1276.84 418.535 1260.12L702.553 995.938C712.59 986.603 713.408 970.988 704.402 960.655L449.555 668.229Z" stroke="white"/>
<path opacity="0.37931" d="M475.347 646.033C460.211 626.709 479.873 599.647 502.928 608.071L860.777 738.827C873.651 743.531 887.936 737.171 893.055 724.456L1035.33 371.029C1044.5 348.259 1077.77 351.756 1082 375.934L1147.69 751.219C1150.05 764.72 1162.7 773.911 1176.27 771.986L1553.48 718.489C1577.79 715.042 1591.39 745.601 1572.57 761.355L1280.41 1005.88C1269.9 1014.68 1268.26 1030.23 1276.71 1041.02L1511.65 1340.95C1526.79 1360.28 1507.13 1387.34 1484.07 1378.91L1126.22 1248.16C1113.35 1243.45 1099.06 1249.81 1093.94 1262.53L951.667 1615.96C942.5 1638.73 909.233 1635.23 905.001 1611.05L839.314 1235.77C836.951 1222.26 824.301 1213.07 810.73 1215L433.514 1268.5C409.212 1271.94 395.606 1241.38 414.429 1225.63L706.592 981.1C717.103 972.303 718.737 956.752 710.285 945.962L475.347 646.033Z" stroke="white"/>
<path opacity="0.413793" d="M501.951 625.636C487.846 605.547 508.898 579.551 531.48 589.17L875.646 735.771C888.257 741.142 902.854 735.539 908.631 723.109L1066.3 383.872C1076.65 361.612 1109.69 366.845 1112.65 391.212L1157.77 762.568C1159.42 776.175 1171.58 786.015 1185.23 784.804L1557.85 751.732C1582.3 749.562 1594.29 780.791 1574.67 795.538L1275.63 1020.29C1264.67 1028.53 1262.22 1043.97 1270.1 1055.19L1485.05 1361.36C1499.15 1381.45 1478.1 1407.44 1455.52 1397.82L1111.36 1251.22C1098.74 1245.85 1084.15 1251.45 1078.37 1263.88L920.699 1603.12C910.354 1625.38 877.315 1620.15 874.354 1595.78L829.231 1224.42C827.577 1210.82 815.426 1200.98 801.773 1202.19L429.149 1235.26C404.7 1237.43 392.712 1206.2 412.334 1191.46L711.376 966.699C722.333 958.463 724.779 943.02 716.903 931.802L501.951 625.636Z" stroke="white"/>
<path opacity="0.448276" d="M529.247 607.05C516.214 586.251 538.597 561.392 560.645 572.18L890.467 733.558C902.779 739.582 917.65 734.75 924.07 722.64L1096.05 398.217C1107.54 376.53 1140.26 383.485 1141.94 407.973L1167.1 774.297C1168.04 787.971 1179.66 798.434 1193.35 797.938L1560.3 784.663C1584.83 783.775 1595.17 815.589 1574.8 829.289L1270.13 1034.23C1258.76 1041.89 1255.51 1057.18 1262.79 1068.79L1457.75 1379.94C1470.79 1400.74 1448.41 1425.6 1426.36 1414.81L1096.54 1253.43C1084.22 1247.41 1069.35 1252.24 1062.93 1264.35L890.956 1588.77C879.46 1610.46 846.74 1603.51 845.059 1579.02L819.905 1212.69C818.966 1199.02 807.346 1188.56 793.648 1189.05L426.703 1202.33C402.173 1203.22 391.836 1171.4 412.202 1157.7L716.871 952.757C728.244 945.106 731.495 929.812 724.217 918.197L529.247 607.05Z" stroke="white"/>
<path opacity="0.482759" d="M557.12 590.318C545.193 568.865 568.846 545.212 590.299 557.139L905.191 732.203C917.171 738.864 932.275 734.817 939.32 723.059L1124.49 414.002C1137.11 392.947 1169.42 401.604 1169.82 426.147L1175.65 786.384C1175.87 800.089 1186.93 811.145 1200.63 811.367L1560.87 817.203C1585.41 817.6 1594.07 849.911 1573.02 862.527L1263.96 1047.7C1252.2 1054.74 1248.15 1069.85 1254.82 1081.83L1429.88 1396.72C1441.81 1418.17 1418.15 1441.83 1396.7 1429.9L1081.81 1254.83C1069.83 1248.17 1054.72 1252.22 1047.68 1263.98L862.508 1573.03C849.892 1594.09 817.581 1585.43 817.184 1560.89L811.348 1200.65C811.126 1186.95 800.07 1175.89 786.365 1175.67L426.128 1169.83C401.585 1169.44 392.928 1137.13 413.983 1124.51L723.04 939.338C734.798 932.294 738.845 917.19 732.185 905.21L557.12 590.318Z" stroke="white"/>
<path opacity="0.517241" d="M585.457 575.403C574.669 553.354 599.528 530.972 620.327 544.005L919.777 731.645C931.392 738.923 946.686 735.672 954.337 724.299L1151.58 431.084C1165.28 410.718 1197.09 421.054 1196.2 445.584L1183.43 798.735C1182.93 812.433 1193.39 824.053 1207.07 824.992L1559.62 849.2C1584.11 850.882 1591.06 883.601 1569.38 895.098L1257.15 1060.61C1245.04 1067.03 1240.21 1081.9 1246.23 1094.21L1401.54 1411.63C1412.33 1433.68 1387.47 1456.07 1366.67 1443.03L1067.22 1255.39C1055.61 1248.11 1040.31 1251.36 1032.66 1262.74L835.424 1555.95C821.723 1576.32 789.91 1565.98 790.797 1541.45L803.573 1188.3C804.069 1174.6 793.606 1162.98 779.932 1162.04L427.38 1137.84C402.891 1136.16 395.937 1103.44 417.624 1091.94L729.85 926.428C741.96 920.009 746.792 905.138 740.768 892.826L585.457 575.403Z" stroke="white"/>
<path opacity="0.551724" d="M614.14 562.328C604.521 539.746 630.517 518.694 650.606 532.799L934.176 731.888C945.394 739.764 960.838 737.318 969.073 726.361L1177.24 449.388C1191.99 429.766 1223.22 441.754 1221.05 466.203L1190.42 811.327C1189.21 824.98 1199.05 837.132 1212.65 838.785L1556.6 880.578C1580.97 883.539 1586.2 916.578 1563.94 926.924L1249.74 1072.96C1237.31 1078.74 1231.71 1093.33 1237.08 1105.94L1372.86 1424.71C1382.48 1447.29 1356.48 1468.34 1336.4 1454.24L1052.83 1255.15C1041.61 1247.27 1026.16 1249.72 1017.93 1260.68L809.759 1537.65C795.012 1557.27 763.783 1545.28 765.953 1520.83L796.584 1175.71C797.796 1162.06 787.955 1149.91 774.349 1148.25L430.398 1106.46C406.032 1103.5 400.799 1070.46 423.058 1060.11L737.259 914.08C749.689 908.303 755.293 893.705 749.921 881.095L614.14 562.328Z" stroke="white"/>
<path opacity="0.586207" d="M643.055 551.086C634.631 528.031 661.693 508.369 681.017 523.505L948.346 732.906C959.136 741.359 974.687 739.724 983.484 729.213L1201.43 468.807C1217.19 449.984 1247.75 463.59 1244.3 487.892L1196.62 824.106C1194.69 837.677 1203.88 850.327 1217.39 852.691L1551.88 911.238C1576.06 915.47 1579.55 948.737 1556.78 957.904L1241.77 1084.72C1229.06 1089.84 1222.7 1104.12 1227.4 1116.99L1343.94 1435.95C1352.37 1459 1325.31 1478.66 1305.98 1463.53L1038.65 1254.13C1027.86 1245.67 1012.31 1247.31 1003.52 1257.82L785.566 1518.23C769.812 1537.05 739.253 1523.44 742.7 1499.14L790.382 1162.93C792.307 1149.36 783.116 1136.71 769.615 1134.34L435.122 1075.8C410.943 1071.56 407.447 1038.3 430.217 1029.13L745.228 902.316C757.943 897.198 764.303 882.913 759.599 870.039L643.055 551.086Z" stroke="white"/>
<path opacity="0.62069" d="M672.092 541.673C664.886 518.208 692.94 499.99 711.445 516.116L962.244 734.687C972.578 743.692 988.192 742.874 997.528 732.838L1224.11 489.249C1240.82 471.276 1270.63 486.463 1265.92 510.552L1202.03 837.036C1199.4 850.487 1207.91 863.601 1221.27 866.668L1545.51 941.096C1569.44 946.588 1571.19 979.993 1547.97 987.955L1233.28 1095.87C1220.32 1100.32 1213.22 1114.25 1217.24 1127.35L1314.91 1445.37C1322.11 1468.83 1294.06 1487.05 1275.55 1470.92L1024.75 1252.35C1014.42 1243.35 998.806 1244.17 989.471 1254.2L762.892 1497.79C746.174 1515.76 716.369 1500.58 721.083 1476.49L784.971 1150C787.603 1136.55 779.087 1123.44 765.728 1120.37L441.484 1045.94C417.561 1040.45 415.81 1007.05 439.028 999.085L753.716 891.171C766.681 886.725 773.78 872.793 769.756 859.69L672.092 541.673Z" stroke="white"/>
<path opacity="0.655172" d="M701.139 534.06C695.171 510.25 724.141 493.525 741.776 510.598L975.834 737.194C985.682 746.728 1001.32 746.728 1011.17 737.194L1245.22 510.598C1262.86 493.525 1291.83 510.25 1285.86 534.06L1206.65 850.058C1203.32 863.354 1211.14 876.895 1224.32 880.656L1537.58 970.059C1561.19 976.795 1561.19 1010.25 1537.58 1016.98L1224.32 1106.38C1211.14 1110.15 1203.32 1123.69 1206.65 1136.98L1285.86 1452.98C1291.83 1476.79 1262.86 1493.52 1245.22 1476.44L1011.17 1249.85C1001.32 1240.31 985.682 1240.31 975.834 1249.85L741.776 1476.44C724.14 1493.52 695.171 1476.79 701.139 1452.98L780.348 1136.98C783.681 1123.69 775.863 1110.15 762.682 1106.38L449.415 1016.98C425.812 1010.25 425.812 976.795 449.415 970.059L762.682 880.656C775.863 876.895 783.681 863.354 780.348 850.058L701.139 534.06Z" stroke="white"/>
<path opacity="0.689655" d="M730.088 528.193C725.375 504.104 755.179 488.917 771.897 506.89L989.075 740.372C998.41 750.408 1014.02 751.226 1024.36 742.221L1264.75 532.72C1283.26 516.593 1311.31 534.811 1304.1 558.276L1210.49 863.098C1206.47 876.2 1213.57 890.132 1226.53 894.579L1528.16 998.015C1551.38 1005.98 1549.63 1039.38 1525.71 1044.87L1214.92 1116.21C1201.56 1119.28 1193.04 1132.39 1195.67 1145.85L1256.91 1458.78C1261.62 1482.87 1231.82 1498.06 1215.1 1480.09L997.925 1246.6C988.589 1236.57 972.974 1235.75 962.641 1244.75L722.248 1454.26C703.743 1470.38 675.689 1452.16 682.895 1428.7L776.507 1123.88C780.531 1110.78 773.432 1096.84 760.467 1092.4L458.837 988.961C435.618 980.999 437.369 947.594 461.292 942.102L772.082 870.762C785.441 867.695 793.958 854.582 791.325 841.13L730.088 528.193Z" stroke="white"/>
<path opacity="0.724138" d="M758.835 524.103C755.389 499.801 785.947 486.195 801.702 505.018L1001.93 744.253C1010.73 754.764 1026.28 756.398 1037.07 747.946L1282.67 555.569C1301.99 540.433 1329.05 560.095 1320.63 583.15L1213.56 876.172C1208.85 889.046 1215.21 903.331 1227.93 908.449L1517.33 1024.95C1540.1 1034.12 1536.6 1067.39 1512.43 1071.62L1205.13 1125.41C1191.62 1127.77 1182.43 1140.42 1184.36 1153.99L1228.16 1462.87C1231.61 1487.17 1201.05 1500.78 1185.3 1481.95L985.068 1242.72C976.271 1232.21 960.72 1230.57 949.929 1239.03L704.335 1431.4C685.011 1446.54 657.949 1426.88 666.373 1403.82L773.441 1110.8C778.146 1097.93 771.786 1083.64 759.071 1078.52L469.67 962.02C446.9 952.854 450.396 919.586 474.575 915.354L781.874 861.567C795.375 859.204 804.566 846.554 802.641 832.983L758.835 524.103Z" stroke="white"/>
<path opacity="0.758621" d="M787.276 521.725C785.106 497.275 816.335 485.287 831.083 504.909L1014.37 748.778C1022.61 759.735 1038.05 762.181 1049.27 754.305L1298.95 579.011C1319.04 564.907 1345.03 585.958 1335.41 608.541L1215.86 889.208C1210.49 901.818 1216.09 916.416 1228.52 922.193L1505.17 1050.77C1527.43 1061.12 1522.2 1094.16 1497.83 1097.12L1194.99 1133.92C1181.38 1135.57 1171.54 1147.72 1172.75 1161.38L1199.72 1465.25C1201.89 1489.7 1170.66 1501.69 1155.92 1482.06L972.628 1238.2C964.393 1227.24 948.949 1224.79 937.731 1232.67L688.053 1407.96C667.964 1422.07 641.968 1401.02 651.587 1378.43L771.139 1097.77C776.511 1085.16 770.907 1070.56 758.478 1064.78L481.83 936.2C459.571 925.855 464.804 892.816 489.17 889.855L792.011 853.057C805.618 851.403 815.458 839.252 814.246 825.599L787.276 521.725Z" stroke="white"/>
<path opacity="0.793103" d="M815.315 521.01C814.428 496.48 846.242 486.143 859.942 506.51L1026.36 753.91C1034.01 765.283 1049.31 768.534 1060.92 761.256L1313.59 602.934C1334.38 589.901 1359.24 612.284 1348.46 634.332L1217.41 902.158C1211.39 914.47 1216.22 929.341 1228.33 935.761L1491.77 1075.41C1513.46 1086.91 1506.5 1119.63 1482.02 1121.31L1184.55 1141.73C1170.87 1142.67 1160.41 1154.29 1160.91 1167.99L1171.69 1465.96C1172.57 1490.49 1140.76 1500.83 1127.06 1480.46L960.639 1233.06C952.988 1221.69 937.694 1218.44 926.079 1225.72L673.418 1384.04C652.618 1397.07 627.759 1374.69 638.547 1352.64L769.591 1084.81C775.615 1072.5 770.783 1057.63 758.673 1051.21L495.232 911.561C473.545 900.065 480.499 867.345 504.988 865.664L802.454 845.238C816.128 844.299 826.591 832.679 826.096 818.981L815.315 521.01Z" stroke="white"/>
<path opacity="0.827586" d="M842.853 521.914C843.251 497.371 875.561 488.714 888.177 509.769L1037.88 759.62C1044.92 771.378 1060.02 775.425 1072 768.765L1326.57 627.237C1348.03 615.31 1371.68 638.963 1359.75 660.417L1218.22 914.985C1211.56 926.965 1215.61 942.068 1227.37 949.113L1477.22 1098.81C1498.28 1111.43 1489.62 1143.74 1465.07 1144.14L1173.85 1148.85C1160.14 1149.08 1149.09 1160.13 1148.86 1173.84L1144.15 1465.06C1143.75 1489.61 1111.44 1498.26 1098.82 1477.21L949.124 1227.36C942.08 1215.6 926.976 1211.55 914.996 1218.21L660.428 1359.74C638.975 1371.67 615.321 1348.01 627.249 1326.56L768.776 1071.99C775.437 1060.01 771.39 1044.91 759.632 1037.86L509.781 888.166C488.725 875.55 497.383 843.239 521.925 842.842L813.152 838.124C826.857 837.902 837.913 826.846 838.135 813.141L842.853 521.914Z" stroke="white"/>
<path opacity="0.862069" d="M869.801 524.38C871.483 499.891 904.202 492.937 915.699 514.624L1048.88 765.869C1055.3 777.979 1070.17 782.811 1082.49 776.787L1337.91 651.81C1359.96 641.022 1382.34 665.881 1369.31 686.68L1218.32 927.644C1211.04 939.259 1214.29 954.554 1225.66 962.204L1461.61 1120.92C1481.98 1134.62 1471.64 1166.44 1447.11 1165.55L1162.93 1155.27C1149.24 1154.77 1137.62 1165.23 1136.68 1178.91L1117.2 1462.6C1115.52 1487.09 1082.8 1494.05 1071.3 1472.36L938.116 1221.11C931.696 1209 916.825 1204.17 904.513 1210.2L649.086 1335.17C627.038 1345.96 604.655 1321.1 617.688 1300.3L768.68 1059.34C775.958 1047.72 772.708 1032.43 761.334 1024.78L525.387 866.062C505.021 852.361 515.358 820.548 539.887 821.435L824.064 831.716C837.762 832.212 849.382 821.749 850.321 808.075L869.801 524.38Z" stroke="white"/>
<path opacity="0.896552" d="M896.075 528.342C899.036 503.976 932.074 498.743 942.42 521.002L1059.36 772.614C1065.14 785.044 1079.74 790.648 1092.35 785.276L1347.62 676.543C1370.2 666.923 1391.25 692.92 1377.15 713.009L1217.72 940.091C1209.84 951.309 1212.29 966.753 1223.24 974.988L1445.04 1141.69C1464.67 1156.44 1452.68 1187.67 1428.23 1185.5L1151.85 1160.97C1138.2 1159.76 1126.05 1169.6 1124.4 1183.2L1090.93 1458.64C1087.97 1483 1054.93 1488.24 1044.58 1465.98L927.637 1214.37C921.86 1201.94 907.263 1196.33 894.652 1201.7L639.384 1310.44C616.802 1320.06 595.751 1294.06 609.855 1273.97L769.285 1046.89C777.161 1035.67 774.715 1020.23 763.758 1011.99L541.958 845.29C522.337 830.542 534.324 799.313 558.774 801.483L835.149 826.013C848.802 827.224 860.953 817.384 862.607 803.777L896.075 528.342Z" stroke="white"/>
<path opacity="0.931035" d="M921.587 533.744C925.819 509.566 959.087 506.069 968.253 528.839L1069.29 779.824C1074.41 792.539 1088.69 798.899 1101.57 794.195L1355.69 701.339C1378.75 692.915 1398.41 719.977 1383.28 739.301L1216.43 952.295C1207.98 963.085 1209.62 978.636 1220.13 987.433L1427.61 1161.08C1446.43 1176.84 1432.82 1207.4 1408.52 1203.95L1140.64 1165.96C1127.07 1164.04 1114.42 1173.23 1112.06 1186.73L1065.41 1453.23C1061.18 1477.41 1027.91 1480.91 1018.75 1458.14L917.707 1207.15C912.588 1194.44 898.304 1188.08 885.43 1192.78L631.304 1285.64C608.249 1294.06 588.587 1267 603.723 1247.68L770.564 1034.68C779.016 1023.89 777.382 1008.34 766.87 999.546L559.392 825.894C540.569 810.14 554.175 779.581 578.477 783.028L846.356 821.019C859.927 822.943 872.577 813.753 874.94 800.251L921.587 533.744Z" stroke="white"/>
<path opacity="0.965517" d="M946.267 540.513C951.758 516.59 985.163 514.839 993.126 538.058L1078.65 787.458C1083.1 800.423 1097.03 807.522 1110.13 803.498L1362.17 726.096C1385.64 718.89 1403.85 746.944 1387.73 765.449L1214.5 964.216C1205.5 974.549 1206.32 990.164 1216.35 999.499L1409.4 1179.07C1427.38 1195.79 1412.19 1225.59 1388.1 1220.88L1129.35 1170.25C1115.9 1167.61 1102.79 1176.13 1099.72 1189.49L1040.73 1446.46C1035.24 1470.39 1001.84 1472.14 993.874 1448.92L908.349 1199.52C903.903 1186.55 889.971 1179.45 876.868 1183.48L624.829 1260.88C601.364 1268.09 583.146 1240.03 599.273 1221.53L772.497 1022.76C781.502 1012.43 780.684 996.813 770.648 987.477L577.596 807.906C559.623 791.188 574.809 761.383 598.898 766.097L857.648 816.73C871.099 819.363 884.213 810.846 887.28 797.487L946.267 540.513Z" stroke="white"/>
<path d="M970.039 548.582C976.775 524.978 1010.23 524.978 1016.96 548.582L1087.42 795.479C1091.19 808.66 1104.73 816.478 1118.02 813.145L1367.07 750.718C1390.88 744.75 1407.61 773.719 1390.53 791.354L1211.94 975.824C1202.41 985.672 1202.41 1001.31 1211.94 1011.16L1390.53 1195.63C1407.61 1213.26 1390.88 1242.23 1367.07 1236.26L1118.02 1173.84C1104.73 1170.5 1091.19 1178.32 1087.42 1191.5L1016.96 1438.4C1010.23 1462 976.775 1462 970.039 1438.4L899.578 1191.5C895.816 1178.32 882.275 1170.5 868.98 1173.84L619.929 1236.26C596.12 1242.23 579.395 1213.26 596.468 1195.63L775.057 1011.16C784.591 1001.31 784.591 985.672 775.057 975.824L596.468 791.354C579.395 773.719 596.12 744.75 619.929 750.718L868.98 813.145C882.275 816.478 895.816 808.66 899.578 795.479L970.039 548.582Z" stroke="white"/>
</svg>
