<svg width="152" height="36" viewBox="0 0 152 36" fill="none" xmlns="http://www.w3.org/2000/svg">
<path fill-rule="evenodd" clip-rule="evenodd" d="M29.2672 0.291992L35.1207 6.19462L29.2672 12.0974L23.4138 18L17.5603 12.0974L5.85344 23.9026L0 18L17.5603 0.291992L23.4138 6.19462L29.2672 0.291992ZM23.4138 18L29.2675 23.9028L35.1209 18L40.9743 12.0974L46.8278 18L40.9743 23.9028L29.2675 35.708L23.414 29.8054L17.5606 35.708L11.7071 29.8054L23.4138 18Z" fill="#3478F6"/>
<path fill-rule="evenodd" clip-rule="evenodd" d="M59.3691 6.14111V29.8588H70.5579C73.2908 29.8588 75.4411 29.3053 77.0091 28.1986C78.577 27.0917 79.3611 25.4767 79.3611 23.3533C79.3611 21.8173 78.9915 20.5976 78.2522 19.6941C77.5131 18.7679 76.4154 18.0225 74.9594 17.4578C77.0202 16.2832 78.0507 14.5778 78.0507 12.3415C78.0507 10.6927 77.5131 9.32611 76.438 8.24183C75.0491 6.84139 72.9996 6.14111 70.289 6.14111H59.3691ZM69.1803 15.7299H64.4091V10.7152H69.5163C70.6138 10.7152 71.4538 10.9299 72.0362 11.359C72.6187 11.7656 72.9099 12.3642 72.9099 13.1548C72.9099 14.8715 71.6666 15.7299 69.1803 15.7299ZM70.5579 25.2846H64.4091V20.0667H70.39C72.9435 20.0667 74.2203 20.9251 74.2203 22.6418C74.2203 24.4037 72.9996 25.2846 70.5579 25.2846ZM83.6175 6.14111V29.8588H88.7919V22.7435H92.7232C95.4782 22.7435 97.752 22.0206 99.5439 20.575C101.336 19.1068 102.232 17.0512 102.232 14.4084C102.232 11.9237 101.425 9.92468 99.8128 8.41128C98.1999 6.89788 96.0047 6.14111 93.2272 6.14111H83.6175ZM92.8911 18.1016H88.7919V10.8508H92.7904C94.1119 10.8508 95.1424 11.167 95.8814 11.7995C96.6208 12.4094 96.9904 13.2902 96.9904 14.4423C96.9904 15.5265 96.6208 16.4075 95.8814 17.0852C95.1647 17.7627 94.168 18.1016 92.8911 18.1016ZM106.061 29.8588V6.14111H111.639L117.821 16.1703L124.004 6.14111H129.581V29.8588H124.44V14.3745L117.821 24.5053H117.687L111.135 14.4761V29.8588H106.061ZM139.499 20.6428L133.182 29.8588H138.524L142.153 24.2004L145.782 29.8588H151.259L138.894 11.6979H133.417L139.499 20.6428ZM150.965 11.6884H146.624V16.0663H150.965V11.6884Z" fill="black"/>
</svg>
