<svg width="510" height="176" viewBox="0 0 510 176" fill="none" xmlns="http://www.w3.org/2000/svg">
<g clip-path="url(#clip0_621_2400)">
<rect width="510" height="176" fill="#3478F6"/>
<path d="M132.391 58.4854H121.228C118.826 58.4854 116.88 56.5391 116.88 54.1379V42.9741C116.88 40.5729 118.826 38.6267 121.228 38.6267H132.391C134.792 38.6267 136.739 40.5729 136.739 42.9741V54.1379C136.739 56.5391 134.792 58.4854 132.391 58.4854" fill="white"/>
<path d="M87.6181 57.2054C85.5034 59.396 85.5646 62.8857 87.7551 65.0002C89.9452 67.1146 93.4351 67.0534 95.5494 64.8632C97.664 62.6726 97.603 59.1829 95.4125 57.0684C93.2222 54.954 89.7327 55.0152 87.6181 57.2054ZM84.8792 50.3609C85.8505 49.774 86.8848 49.3289 87.9514 49.0258L88.5842 45.9847L93.7222 45.8948L94.4615 48.9111C95.5383 49.1765 96.5874 49.5853 97.5791 50.1379L100.176 48.4356L103.872 52.0049L102.263 54.6595C102.85 55.6311 103.295 56.6657 103.598 57.7323L106.639 58.3649L106.729 63.5029L103.712 64.2426C103.447 65.3191 103.039 66.3681 102.486 67.3594L104.188 69.9567L100.619 73.6536L97.9643 72.0438C96.9925 72.631 95.9583 73.0757 94.8914 73.3788L94.2585 76.4199L89.1209 76.5098L88.3814 73.493C87.3048 73.2277 86.2556 72.8193 85.2641 72.2668L82.6674 73.969L78.9705 70.3997L80.5801 67.7451C79.9929 66.7735 79.5477 65.7394 79.2447 64.6723L76.2041 64.0397L76.1138 58.9017L79.1307 58.162C79.3959 57.0856 79.8047 56.0365 80.3571 55.0447L78.655 52.4483L82.224 48.7515L84.8792 50.3609" fill="white"/>
<path d="M87.6184 57.2054C87.6184 57.2054 87.9067 56.7992 88.6447 56.3048C89.3691 55.822 90.6353 55.2853 92.2411 55.4544C93.0316 55.5434 93.8967 55.8011 94.6852 56.3228C95.4652 56.8442 96.2018 57.5864 96.6618 58.5498C96.904 59.0228 97.0721 59.5484 97.1632 60.0971C97.2623 60.6446 97.2766 61.2207 97.1943 61.7943C97.0547 62.9457 96.5103 64.0803 95.6639 64.9724C94.8025 65.8498 93.6873 66.4341 92.541 66.6143C91.9711 66.717 91.3945 66.723 90.8438 66.6429C90.292 66.5715 89.7609 66.4216 89.2795 66.1961C88.3004 65.7702 87.5326 65.0601 86.984 64.2986C86.4351 63.5291 86.1471 62.6734 86.0307 61.8863C85.805 60.2876 86.2974 59.0035 86.7542 58.2626C87.2223 57.508 87.6184 57.2054 87.6184 57.2054C87.6482 57.2307 87.2855 57.5671 86.8608 58.3238C86.4457 59.0678 86.0064 60.3223 86.2514 61.8529C86.3774 62.6067 86.6649 63.4199 87.1979 64.1471C87.7301 64.8658 88.4669 65.5344 89.3982 65.9303C89.856 66.1409 90.3603 66.2787 90.8831 66.3437C91.4049 66.4165 91.9503 66.4084 92.489 66.3091C93.5726 66.1349 94.622 65.581 95.4366 64.7528C96.2356 63.9096 96.7515 62.8416 96.8875 61.7527C96.9677 61.2113 96.9569 60.6656 96.8656 60.1468C96.7823 59.6267 96.6268 59.1277 96.4001 58.6778C95.9721 57.761 95.2781 57.0483 94.541 56.5415C93.7957 56.0343 92.9727 55.7762 92.215 55.6765C90.6768 55.4852 89.4383 55.968 88.7097 56.4093C87.968 56.8604 87.6445 57.2345 87.6184 57.2054" fill="white"/>
<path d="M84.879 50.361C84.8792 50.3653 84.8217 50.3353 84.7078 50.2707C84.5829 50.1988 84.4155 50.1016 84.1987 49.9766C83.7345 49.7023 83.0659 49.3072 82.198 48.7948L82.2604 48.7863C81.352 49.7382 80.1575 50.9898 78.7126 52.5041L78.7223 52.4044C79.241 53.1889 79.8176 54.0613 80.4346 54.9944L80.4653 55.041L80.4381 55.0902C79.9335 56.0041 79.5095 57.045 79.2314 58.187L79.2169 58.2478L79.1554 58.2632C78.2159 58.4965 77.1988 58.7486 76.1408 59.0114L76.2266 58.9001C76.2587 60.5176 76.2928 62.2348 76.3285 64.0372L76.2297 63.9178C77.1714 64.1117 78.2083 64.3253 79.2714 64.5445L79.3488 64.5607L79.3705 64.6369C79.6529 65.6286 80.0942 66.6833 80.6967 67.6746L80.7395 67.7448L80.6967 67.8159C80.199 68.6394 79.6501 69.5476 79.0911 70.4726L79.0686 70.2984C80.2309 71.4181 81.4848 72.6256 82.7696 73.863L82.5868 73.8459C83.3951 73.3151 84.2826 72.7321 85.1818 72.1415L85.2579 72.0914L85.3373 72.1359C86.2437 72.641 87.3024 73.072 88.4179 73.3451L88.5077 73.3669L88.5298 73.4568C88.762 74.4019 89.0155 75.4321 89.2713 76.4731L89.1181 76.3554C90.745 76.3259 92.4883 76.2946 94.256 76.2629L94.105 76.3879C94.3046 75.4274 94.5201 74.3908 94.7371 73.3472L94.7567 73.2535L94.8486 73.2274C95.8604 72.941 96.9083 72.4989 97.8798 71.9103L97.8824 71.9086L97.9652 71.8598L98.0461 71.9091C98.9375 72.4492 99.8233 72.9864 100.701 73.5184L100.505 73.5437C101.712 72.2951 102.902 71.0624 104.075 69.8477L104.057 70.0424C103.485 69.168 102.918 68.3021 102.356 67.4448L102.305 67.3664L102.351 67.2842C102.896 66.3066 103.302 65.267 103.564 64.2059L103.586 64.116L103.676 64.0942C104.696 63.8446 105.701 63.5989 106.693 63.3567L106.579 63.5056C106.55 61.7516 106.521 60.0386 106.493 58.3681L106.609 58.508C105.578 58.2919 104.565 58.0796 103.569 57.8711L103.485 57.8536L103.462 57.771C103.154 56.6816 102.705 55.6587 102.146 54.7307L102.103 54.6596L102.146 54.5886C102.699 53.6795 103.236 52.7982 103.76 51.937L103.781 52.0996C102.483 50.8412 101.258 49.6535 100.092 48.523L100.242 48.5372C99.3274 49.1334 98.4691 49.6928 97.6413 50.2326L97.5835 50.2702L97.524 50.2369C96.4892 49.6577 95.4517 49.2665 94.4368 49.0123L94.3755 48.9969L94.361 48.9361C94.0958 47.8391 93.857 46.8507 93.6315 45.9172L93.7238 45.9883C91.7333 46.0144 90.0376 46.0366 88.5856 46.0559L88.6537 45.9994C88.393 47.2124 88.1793 48.2076 88.0014 49.0362L87.9947 49.0666L87.9653 49.0748C86.878 49.3782 86.1133 49.7335 85.616 49.9788C85.3784 50.1029 85.1965 50.1979 85.0634 50.2672C84.9382 50.3357 84.879 50.3653 84.879 50.361C84.8793 50.3571 84.9377 50.3169 85.0504 50.2446C85.1679 50.1722 85.3458 50.0639 85.592 49.9325C86.0837 49.671 86.8459 49.2986 87.9375 48.9772L87.9019 49.0157C88.0692 48.1845 88.2699 47.1867 88.5149 45.9707L88.5261 45.9155L88.5833 45.9138C90.0347 45.8826 91.7303 45.8453 93.7206 45.8017L93.7948 45.7999L93.813 45.8727C94.0448 46.8045 94.2901 47.7911 94.5626 48.8864L94.4867 48.8107C95.5196 49.0628 96.5777 49.4549 97.6343 50.0387L97.517 50.043C98.3422 49.4994 99.1978 48.9357 100.11 48.3347L100.19 48.2816L100.26 48.3493C101.431 49.475 102.661 50.6576 103.964 51.9109L104.039 51.9832L103.985 52.0735C103.464 52.936 102.93 53.8194 102.38 54.7307L102.38 54.589C102.954 55.5358 103.417 56.5806 103.734 57.6939L103.627 57.5938C104.623 57.8001 105.636 58.0094 106.669 58.2229L106.782 58.2465L106.784 58.3629C106.815 60.0335 106.847 61.7465 106.88 63.5005L106.882 63.6204L106.765 63.6495C105.773 63.8934 104.769 64.1404 103.749 64.3912L103.861 64.2795C103.594 65.3667 103.18 66.4325 102.622 67.4353L102.616 67.2748C103.178 68.1317 103.745 68.9968 104.319 69.8708L104.387 69.9752L104.301 70.0651C103.128 71.2803 101.938 72.5134 100.732 73.7633L100.645 73.854L100.537 73.7885C99.6596 73.2565 98.7736 72.7193 97.8824 72.1791H98.046L98.043 72.1809C97.0468 72.7844 95.9719 73.2377 94.9346 73.5309L95.046 73.411C94.8284 74.455 94.6126 75.4916 94.4126 76.4517L94.3869 76.5745L94.2615 76.5771C92.494 76.6071 90.7503 76.637 89.1235 76.6648L88.9999 76.667L88.9705 76.5467C88.7159 75.5058 88.4641 74.4746 88.233 73.5296L88.3448 73.6417C87.2024 73.3609 86.1183 72.9171 85.1913 72.3979L85.3465 72.3923C84.4461 72.9813 83.5575 73.5625 82.7481 74.092L82.6496 74.1566L82.5652 74.0749C81.2833 72.834 80.0326 71.6236 78.8728 70.5009L78.7919 70.4225L78.8502 70.3266C79.412 69.4034 79.9634 68.4968 80.4637 67.6746L80.4635 67.8154C79.8507 66.8006 79.4038 65.7215 79.1196 64.708L79.2184 64.8C78.156 64.577 77.1197 64.3591 76.1787 64.1614L76.0814 64.1408L76.0798 64.0415C76.0522 62.2387 76.0259 60.5219 76.0013 58.9039L76 58.8136L76.0873 58.7922C77.1466 58.5358 78.1652 58.2893 79.1059 58.0616L79.0301 58.1373C79.3197 56.9778 79.7573 55.9236 80.2761 54.9999L80.2794 55.0958C79.6701 54.158 79.1005 53.2814 78.588 52.4926L78.5529 52.4382L78.5974 52.3924C80.0596 50.8956 81.2684 49.6577 82.1878 48.7165L82.2164 48.687L82.2502 48.7084C83.0987 49.2366 83.7523 49.6432 84.2059 49.9253C84.4201 50.0614 84.5854 50.1662 84.7088 50.2446C84.8217 50.3173 84.8792 50.3567 84.879 50.361" fill="#E7E8E5"/>
<path d="M98.6808 34.9926C97.5604 36.153 97.5928 38.0021 98.7534 39.1222C99.9137 40.2428 101.763 40.2102 102.883 39.0499C104.003 37.8891 103.971 36.0404 102.811 34.9199C101.65 33.7997 99.801 33.8322 98.6808 34.9926ZM97.2297 31.3664C97.7444 31.0552 98.2922 30.8194 98.8573 30.6589L99.1926 29.0473L101.915 28.9998L102.307 30.5981C102.877 30.7385 103.433 30.9551 103.958 31.2478L105.334 30.346L107.293 32.2374L106.44 33.6435C106.751 34.1584 106.987 34.7067 107.147 35.2717L108.758 35.6068L108.806 38.3291L107.208 38.7211C107.067 39.2913 106.851 39.8473 106.558 40.3725L107.46 41.7486L105.569 43.7072L104.163 42.8541C103.648 43.1653 103.1 43.4012 102.534 43.5617L102.199 45.1728L99.477 45.2207L99.0853 43.6225C98.5148 43.4816 97.9588 43.2651 97.4335 42.9723L96.0578 43.8741L94.0991 41.9831L94.9518 40.5766C94.6408 40.0621 94.4049 39.5138 94.2444 38.9488L92.6333 38.6133L92.5854 35.891L94.1839 35.4994C94.3245 34.9288 94.541 34.3733 94.8336 33.8481L93.9319 32.472L95.8229 30.5133L97.2297 31.3664" fill="white"/>
<path d="M172.553 152.792H160.493C158.221 152.792 156.378 150.95 156.378 148.677V136.618C156.378 134.345 158.221 132.502 160.493 132.502H172.553C174.825 132.502 176.668 134.345 176.668 136.618V148.677C176.668 150.95 174.825 152.792 172.553 152.792" fill="white"/>
<path d="M167.342 138.607C166.481 138.607 165.672 138.942 165.063 139.551C164.455 140.159 164.121 140.968 164.121 141.829C164.121 142.691 164.455 143.5 165.063 144.108C165.672 144.716 166.481 145.051 167.342 145.051C168.202 145.051 169.012 144.716 169.62 144.108C170.228 143.5 170.562 142.691 170.562 141.829C170.562 140.968 170.228 140.159 169.62 139.551C169.012 138.942 168.203 138.607 167.342 138.607ZM162.034 147.588C161.913 147.588 161.8 147.541 161.715 147.456C161.54 147.28 161.54 146.994 161.715 146.819L164.126 144.408C162.826 142.787 162.952 140.388 164.426 138.914C165.205 138.135 166.241 137.706 167.342 137.706C168.443 137.706 169.478 138.135 170.258 138.914C171.865 140.522 171.865 143.137 170.258 144.745C169.478 145.524 168.443 145.953 167.342 145.953C166.39 145.953 165.499 145.639 164.763 145.046L162.352 147.456C162.267 147.541 162.154 147.588 162.034 147.588" fill="#3478F6"/>
<path d="M256.166 62.5605H245.8C243.345 62.5605 241.355 60.5707 241.355 58.1159V47.7504C241.355 45.2957 243.345 43.3058 245.8 43.3058H256.166C258.62 43.3058 260.61 45.2957 260.61 47.7504V58.1159C260.61 60.5707 258.62 62.5605 256.166 62.5605Z" fill="white"/>
<path d="M251.773 56.2668C251.771 56.7149 251.406 57.0766 250.958 57.0745C250.51 57.0723 250.148 56.7076 250.15 56.2591C250.153 55.8113 250.518 55.4497 250.966 55.4514C251.414 55.4535 251.775 55.8186 251.773 56.2668Z" fill="#3478F6"/>
<path d="M249.34 55.2235C250.231 54.2879 251.679 54.2596 252.593 55.1807C253.008 55.598 253.656 54.956 253.242 54.5383C251.988 53.2743 249.929 53.282 248.697 54.5751C248.292 55.0005 248.934 55.6498 249.34 55.2235Z" fill="#3478F6"/>
<path d="M246.583 51.4466C247.817 50.3799 249.291 49.7084 250.94 49.7045C252.575 49.7006 254.187 50.2806 255.385 51.4055C255.813 51.807 256.462 51.1662 256.033 50.763C254.662 49.4746 252.822 48.7872 250.944 48.792C249.046 48.7962 247.359 49.5722 245.941 50.7981C245.496 51.1833 246.141 51.8296 246.583 51.4466" fill="#3478F6"/>
<path d="M247.671 53.54C248.499 52.6454 249.658 52.0856 250.883 52.0578C252.142 52.0287 253.357 52.5474 254.232 53.4463C254.643 53.8679 255.291 53.2254 254.881 52.8038C253.845 51.7402 252.378 51.111 250.887 51.1448C249.43 51.1782 248.018 51.8228 247.029 52.8916C246.631 53.3221 247.272 53.9723 247.671 53.54" fill="#3478F6"/>
<path d="M225.384 127.264C225.445 127.264 225.495 129.422 225.495 132.083C225.495 134.746 225.445 136.902 225.384 136.902C225.323 136.902 225.272 134.746 225.272 132.083C225.272 129.422 225.323 127.264 225.384 127.264Z" fill="#17282F"/>
<path d="M189.123 75.8403C189.062 75.8403 189.012 72.2449 189.012 67.8106C189.012 63.3745 189.062 59.78 189.123 59.78C189.185 59.78 189.235 63.3745 189.235 67.8106C189.235 72.2449 189.185 75.8403 189.123 75.8403Z" fill="#17282F"/>
<path d="M176.711 94.8772C176.711 94.8849 176.609 94.8922 176.414 94.8995C176.198 94.905 175.916 94.9119 175.565 94.9204C174.801 94.9294 173.74 94.9414 172.44 94.956C169.778 94.9645 166.144 94.9761 162.13 94.9885C161.626 94.9885 161.128 94.9881 160.638 94.9881C160.396 94.9893 160.148 94.9923 159.894 94.9602C159.647 94.9196 159.401 94.8605 159.178 94.7526C158.261 94.3507 157.672 93.502 157.408 92.6575C157.274 92.2307 157.221 91.7916 157.223 91.3708C157.227 90.9578 157.232 90.5567 157.236 90.1685C157.246 89.3946 157.256 88.6725 157.265 88.0104C157.288 86.7105 157.307 85.6498 157.321 84.8854C157.332 84.5348 157.341 84.2528 157.348 84.0362C157.357 83.8419 157.365 83.74 157.373 83.74C157.38 83.74 157.387 83.8423 157.393 84.0366C157.397 84.2532 157.402 84.5353 157.408 84.8862C157.411 85.6503 157.416 86.7113 157.422 88.0112C157.422 88.6734 157.421 89.3955 157.421 90.1694C157.442 90.9449 157.331 91.7877 157.604 92.5958C157.859 93.395 158.42 94.1872 159.267 94.5532C159.472 94.6525 159.698 94.7047 159.925 94.7419C160.15 94.7706 160.391 94.7681 160.638 94.7663C161.128 94.7659 161.626 94.7659 162.13 94.7659C166.144 94.7783 169.778 94.7899 172.44 94.7984C173.74 94.813 174.801 94.825 175.565 94.834C175.916 94.8425 176.198 94.8494 176.414 94.8545C176.609 94.8618 176.711 94.8695 176.711 94.8772" fill="#17282F"/>
<path d="M196.98 59.6914H179.783C177.329 59.6914 175.339 57.7015 175.339 55.2468V38.05C175.339 35.5953 177.329 33.6054 179.783 33.6054H196.98C199.435 33.6054 201.425 35.5953 201.425 38.05V55.2468C201.425 57.7015 199.435 59.6914 196.98 59.6914" fill="white"/>
<path d="M196.98 59.6917C196.978 59.6707 197.322 59.6972 197.949 59.559C198.561 59.413 199.498 59.059 200.298 58.1319C200.696 57.6765 201.043 57.079 201.222 56.3638C201.427 55.6528 201.352 54.8379 201.362 53.9685C201.357 52.229 201.351 50.2507 201.346 48.0644C201.341 45.8759 201.337 43.4798 201.332 40.9082C201.331 40.2649 201.33 39.6108 201.329 38.9465C201.322 38.2793 201.364 37.606 201.182 36.9592C200.861 35.6593 199.857 34.496 198.531 33.9986C198.203 33.8646 197.853 33.7918 197.499 33.7435C197.147 33.7041 196.781 33.708 196.409 33.7101C195.668 33.711 194.919 33.7114 194.162 33.7118C192.648 33.7131 191.102 33.7139 189.529 33.7148C186.381 33.7152 183.123 33.7161 179.785 33.7169C178.972 33.7259 178.163 33.9468 177.485 34.3812C177.145 34.5944 176.831 34.8504 176.569 35.1508C176.297 35.444 176.073 35.7779 175.9 36.1336C175.716 36.4854 175.604 36.8685 175.525 37.2524C175.451 37.6411 175.447 38.0289 175.448 38.4329C175.448 39.2333 175.448 40.0273 175.447 40.8145C175.445 43.9622 175.443 46.999 175.441 49.8916C175.439 51.3379 175.438 52.7482 175.436 54.1188C175.448 54.8049 175.39 55.4837 175.521 56.1194C175.652 56.7567 175.928 57.3512 176.305 57.8546C177.056 58.8716 178.225 59.4913 179.393 59.5859C180.57 59.6279 181.728 59.6013 182.818 59.6129C187.187 59.6279 190.725 59.6399 193.18 59.6484C194.397 59.6574 195.345 59.6643 195.997 59.669C196.313 59.6741 196.556 59.6775 196.73 59.6801C196.895 59.684 196.98 59.6917 196.98 59.6917C196.98 59.6917 196.895 59.6994 196.73 59.7028C196.556 59.7058 196.313 59.7092 195.997 59.7143C195.345 59.7191 194.397 59.7259 193.18 59.7349C190.725 59.7434 187.187 59.7554 182.818 59.7704C181.721 59.764 180.585 59.7957 179.377 59.7571C178.163 59.6634 176.943 59.0226 176.157 57.9659C175.762 57.442 175.473 56.8226 175.334 56.157C175.196 55.4833 175.255 54.7993 175.24 54.1188C175.239 52.7482 175.237 51.3379 175.236 49.8916C175.233 46.999 175.231 43.9622 175.229 40.8145C175.229 40.0273 175.228 39.2333 175.228 38.4329C175.226 38.0378 175.23 37.6175 175.308 37.2122C175.39 36.8081 175.508 36.4054 175.702 36.0356C175.884 35.661 176.119 35.3101 176.404 35.0023C176.68 34.686 177.01 34.4172 177.367 34.1925C178.08 33.7358 178.931 33.5029 179.785 33.4939C183.123 33.4948 186.381 33.4956 189.529 33.4965C191.102 33.4974 192.648 33.4982 194.162 33.4991C194.919 33.4999 195.668 33.5004 196.409 33.5008C196.776 33.4991 197.149 33.4952 197.524 33.5372C197.894 33.5885 198.262 33.666 198.604 33.8068C199.993 34.3307 201.039 35.5497 201.372 36.91C201.56 37.5927 201.515 38.29 201.52 38.9465C201.518 39.6108 201.518 40.2649 201.517 40.9082C201.512 43.4798 201.507 45.8759 201.503 48.0644C201.497 50.2507 201.491 52.229 201.487 53.9685C201.471 54.8306 201.541 55.6575 201.325 56.3907C201.135 57.1218 200.774 57.7287 200.364 58.1889C199.537 59.1249 198.58 59.4695 197.959 59.6031C197.641 59.6643 197.395 59.6921 197.23 59.6904C197.064 59.6951 196.98 59.6917 196.98 59.6917" fill="#17282F"/>
<path d="M229.188 68.645H211.991C209.537 68.645 207.546 66.6551 207.546 64.2004V47.0036C207.546 44.5489 209.537 42.559 211.991 42.559H229.188C231.642 42.559 233.633 44.5489 233.633 47.0036V64.2004C233.633 66.6551 231.642 68.645 229.188 68.645" fill="white"/>
<path d="M229.188 68.6449C229.186 68.6239 229.53 68.6505 230.157 68.5126C230.769 68.3667 231.706 68.0123 232.507 67.0852C232.904 66.6298 233.252 66.0322 233.431 65.3174C233.635 64.6065 233.561 63.7911 233.57 62.9218C233.566 61.1827 233.56 59.204 233.554 57.0176C233.55 54.8291 233.545 52.4335 233.54 49.8619C233.539 49.2186 233.538 48.5645 233.537 47.8998C233.53 47.2325 233.572 46.5597 233.391 45.9125C233.069 44.6126 232.066 43.4492 230.739 42.9523C230.412 42.8183 230.061 42.7451 229.708 42.6967C229.355 42.6573 228.99 42.6612 228.617 42.6638C227.877 42.6642 227.128 42.6646 226.37 42.6655C224.857 42.6663 223.311 42.6672 221.737 42.6681C218.59 42.6689 215.331 42.6698 211.994 42.6706C211.18 42.6796 210.372 42.9 209.693 43.3345C209.354 43.5481 209.04 43.8036 208.777 44.1045C208.506 44.3977 208.282 44.7311 208.109 45.0873C207.924 45.4387 207.813 45.8222 207.734 46.2061C207.659 46.5943 207.655 46.9821 207.657 47.3866C207.656 48.187 207.656 48.981 207.656 49.7677C207.653 52.9158 207.651 55.9522 207.649 58.8453C207.648 60.2916 207.646 61.7019 207.644 63.0724C207.656 63.7586 207.599 64.4374 207.73 65.0726C207.861 65.7099 208.136 66.3049 208.513 66.8082C209.264 67.8248 210.433 68.445 211.601 68.5392C212.779 68.5811 213.936 68.555 215.027 68.5662C219.395 68.5811 222.933 68.5931 225.389 68.6017C226.605 68.6107 227.553 68.6175 228.205 68.6226C228.522 68.6274 228.765 68.6312 228.938 68.6338C229.103 68.6376 229.188 68.6449 229.188 68.6449C229.188 68.6449 229.103 68.6526 228.938 68.6565C228.765 68.659 228.522 68.6629 228.205 68.6676C227.553 68.6723 226.605 68.6796 225.389 68.6886C222.933 68.6967 219.395 68.7087 215.027 68.7241C213.929 68.7172 212.794 68.7489 211.586 68.7108C210.372 68.6171 209.151 67.9763 208.365 66.9191C207.971 66.3956 207.682 65.7759 207.543 65.1107C207.404 64.4366 207.463 63.7526 207.448 63.0724C207.447 61.7019 207.445 60.2916 207.444 58.8453C207.442 55.9522 207.44 52.9158 207.437 49.7677C207.437 48.981 207.437 48.187 207.436 47.3866C207.435 46.9911 207.438 46.5708 207.516 46.1654C207.599 45.7618 207.717 45.359 207.91 44.9892C208.092 44.6147 208.327 44.2637 208.612 43.9556C208.888 43.6397 209.218 43.3704 209.575 43.1462C210.288 42.6895 211.139 42.4566 211.994 42.4476C215.331 42.4485 218.59 42.4489 221.737 42.4498C223.311 42.4506 224.857 42.4515 226.37 42.4523C227.128 42.4532 227.877 42.4536 228.617 42.4545C228.984 42.4528 229.357 42.4485 229.732 42.4908C230.102 42.5418 230.47 42.6197 230.813 42.7605C232.201 43.2844 233.247 44.5034 233.581 45.8633C233.769 46.546 233.723 47.2432 233.728 47.8998C233.727 48.5645 233.726 49.2186 233.725 49.8619C233.72 52.4335 233.715 54.8291 233.712 57.0176C233.705 59.204 233.7 61.1827 233.695 62.9218C233.679 63.7838 233.75 64.6108 233.533 65.344C233.344 66.075 232.982 66.6824 232.572 67.1421C231.745 68.0782 230.789 68.4228 230.167 68.5563C229.849 68.6175 229.604 68.6453 229.438 68.6436C229.272 68.6483 229.188 68.6449 229.188 68.6449" fill="#17282F"/>
<path d="M257.558 100.145H240.362C237.907 100.145 235.917 98.1549 235.917 95.7002V78.5034C235.917 76.0487 237.907 74.0588 240.362 74.0588H257.558C260.013 74.0588 262.003 76.0487 262.003 78.5034V95.7002C262.003 98.1549 260.013 100.145 257.558 100.145Z" fill="white"/>
<path d="M257.559 100.144C257.557 100.123 257.901 100.15 258.528 100.012C259.14 99.866 260.077 99.5116 260.877 98.5845C261.275 98.1291 261.622 97.5316 261.801 96.8164C262.006 96.1058 261.931 95.2904 261.941 94.4211C261.936 92.6821 261.931 90.7033 261.925 88.517C261.92 86.3289 261.916 83.9328 261.911 81.3608C261.91 80.7179 261.909 80.0639 261.908 79.3992C261.901 78.7319 261.943 78.059 261.762 77.4118C261.44 76.1119 260.436 74.949 259.11 74.4516C258.782 74.3176 258.431 74.2444 258.078 74.1961C257.726 74.1571 257.361 74.1606 256.988 74.1631C256.247 74.1636 255.498 74.1644 254.741 74.1648C253.227 74.1657 251.682 74.1665 250.108 74.1674C246.96 74.1683 243.702 74.1691 240.364 74.17C239.551 74.179 238.742 74.3994 238.064 74.8338C237.724 75.0474 237.41 75.303 237.148 75.6039C236.877 75.8966 236.652 76.2305 236.479 76.5866C236.295 76.9384 236.184 77.3215 236.104 77.7055C236.03 78.0937 236.026 78.4815 236.027 78.886C236.027 79.6864 236.027 80.4804 236.027 81.2671C236.024 84.4152 236.022 87.4516 236.02 90.3446C236.018 91.7909 236.017 93.2013 236.015 94.5718C236.027 95.2579 235.97 95.9368 236.1 96.572C236.232 97.2093 236.507 97.8038 236.883 98.3076C237.635 99.3242 238.804 99.9439 239.972 100.039C241.15 100.08 242.307 100.054 243.397 100.066C247.766 100.08 251.304 100.092 253.759 100.101C254.976 100.11 255.924 100.117 256.576 100.122C256.892 100.127 257.135 100.131 257.309 100.133C257.474 100.137 257.559 100.144 257.559 100.144C257.559 100.144 257.474 100.152 257.309 100.156C257.135 100.158 256.892 100.162 256.576 100.167C255.924 100.172 254.976 100.179 253.759 100.188C251.304 100.196 247.766 100.208 243.397 100.223C242.3 100.217 241.165 100.249 239.956 100.21C238.742 100.116 237.522 99.4757 236.736 98.4185C236.341 97.895 236.052 97.2752 235.914 96.6101C235.775 95.9363 235.833 95.2519 235.819 94.5718C235.818 93.2013 235.816 91.7909 235.815 90.3446C235.812 87.4516 235.81 84.4152 235.808 81.2671C235.808 80.4804 235.807 79.6864 235.807 78.886C235.805 78.4905 235.809 78.0701 235.887 77.6648C235.97 77.2612 236.087 76.8584 236.281 76.4882C236.463 76.1141 236.698 75.7631 236.983 75.4549C237.259 75.139 237.589 74.8698 237.946 74.6455C238.659 74.1888 239.51 73.956 240.364 73.947C243.702 73.9478 246.96 73.9483 250.108 73.9491C251.682 73.95 253.227 73.9508 254.741 73.9521C255.498 73.9525 256.247 73.953 256.988 73.9538C257.355 73.9521 257.728 73.9483 258.103 73.9902C258.473 74.0411 258.841 74.119 259.184 74.2599C260.572 74.7838 261.618 76.0028 261.951 77.3626C262.139 78.0457 262.094 78.7426 262.099 79.3992C262.098 80.0639 262.097 80.7179 262.096 81.3608C262.091 83.9328 262.086 86.3289 262.082 88.517C262.076 90.7033 262.071 92.6821 262.065 94.4211C262.05 95.2836 262.12 96.1101 261.904 96.8433C261.714 97.5744 261.353 98.1818 260.943 98.6415C260.116 99.5776 259.159 99.9221 258.538 100.056C258.22 100.117 257.974 100.145 257.809 100.143C257.643 100.148 257.559 100.144 257.559 100.144" fill="#17282F"/>
<path d="M161.373 81.688H144.176C141.721 81.688 139.731 79.6981 139.731 77.2434V60.0466C139.731 57.5919 141.721 55.602 144.176 55.602H161.373C163.828 55.602 165.817 57.5919 165.817 60.0466V77.2434C165.817 79.6981 163.828 81.688 161.373 81.688Z" fill="white"/>
<path d="M161.373 81.688C161.371 81.667 161.715 81.6936 162.342 81.5557C162.954 81.4094 163.891 81.0549 164.691 80.1283C165.089 79.6729 165.436 79.0753 165.615 78.3601C165.82 77.6491 165.745 76.8338 165.755 75.9649C165.75 74.2258 165.745 72.247 165.739 70.0607C165.734 67.8722 165.73 65.4761 165.725 62.9045C165.724 62.2612 165.723 61.6072 165.722 60.9429C165.715 60.2756 165.757 59.6023 165.575 58.9556C165.254 57.6557 164.25 56.4923 162.924 55.9949C162.596 55.8609 162.245 55.7882 161.892 55.7398C161.54 55.7004 161.175 55.7043 160.802 55.7064C160.061 55.7073 159.312 55.7077 158.555 55.7081C157.041 55.7094 155.495 55.7103 153.922 55.7111C150.774 55.712 147.516 55.7124 144.178 55.7133C143.365 55.7227 142.556 55.9431 141.878 56.3776C141.538 56.5907 141.224 56.8467 140.962 57.1472C140.691 57.4404 140.466 57.7742 140.293 58.1303C140.109 58.4818 139.998 58.8648 139.918 59.2488C139.844 59.6374 139.84 60.0252 139.841 60.4293C139.841 61.2297 139.841 62.0237 139.84 62.8108C139.838 65.9585 139.836 68.9949 139.834 71.8884C139.832 73.3342 139.831 74.7446 139.829 76.1151C139.841 76.8012 139.784 77.4801 139.914 78.1157C140.045 78.753 140.321 79.3476 140.697 79.8513C141.449 80.8679 142.618 81.4877 143.786 81.5823C144.964 81.6238 146.121 81.5977 147.211 81.6092C151.58 81.6242 155.118 81.6362 157.573 81.6448C158.79 81.6538 159.738 81.6606 160.39 81.6653C160.706 81.6704 160.949 81.6739 161.123 81.6764C161.288 81.6803 161.373 81.688 161.373 81.688C161.373 81.688 161.288 81.6957 161.123 81.6996C160.949 81.7021 160.706 81.7055 160.39 81.7103C159.738 81.7154 158.79 81.7222 157.573 81.7312C155.118 81.7398 151.58 81.7518 147.211 81.7668C146.114 81.7603 144.978 81.792 143.77 81.7535C142.556 81.6597 141.336 81.019 140.55 79.9622C140.155 79.4383 139.866 78.8189 139.727 78.1534C139.589 77.4797 139.647 76.7957 139.633 76.1151C139.632 74.7446 139.63 73.3342 139.629 71.8884C139.626 68.9949 139.624 65.9585 139.622 62.8108C139.622 62.0237 139.621 61.2297 139.621 60.4293C139.619 60.0342 139.623 59.6139 139.701 59.2085C139.784 58.8045 139.901 58.4017 140.095 58.0319C140.277 57.6574 140.512 57.3064 140.797 56.9986C141.073 56.6823 141.403 56.4135 141.76 56.1888C142.473 55.7321 143.324 55.4993 144.178 55.4903C147.516 55.4911 150.774 55.492 153.922 55.4924C155.495 55.4937 157.041 55.4946 158.555 55.4954C159.312 55.4958 160.061 55.4967 160.802 55.4971C161.169 55.4954 161.542 55.4916 161.917 55.5335C162.287 55.5849 162.655 55.6623 162.997 55.8032C164.386 56.3271 165.432 57.5461 165.765 58.9063C165.953 59.589 165.908 60.2863 165.913 60.9429C165.911 61.6072 165.911 62.2612 165.91 62.9045C165.905 65.4761 165.9 67.8722 165.896 70.0607C165.89 72.247 165.885 74.2258 165.879 75.9649C165.864 76.8269 165.934 77.6539 165.718 78.3871C165.528 79.1181 165.167 79.7251 164.757 80.1852C163.93 81.1213 162.973 81.4659 162.352 81.5994C162.034 81.6606 161.788 81.6884 161.623 81.6867C161.457 81.6914 161.373 81.688 161.373 81.688" fill="#17282F"/>
<path d="M236.524 87.6311C236.524 87.6928 233.562 87.7424 229.91 87.7424C226.257 87.7424 223.296 87.6928 223.296 87.6311C223.296 87.5695 226.257 87.5194 229.91 87.5194C233.562 87.5194 236.524 87.5695 236.524 87.6311Z" fill="#17282F"/>
<path d="M147.181 76.3601H143.889V73.8403H147.181V76.3601Z" fill="#70A2FF"/>
<path d="M151.346 76.3601H148.055V68.0286H151.346V76.3601Z" fill="#70A2FF"/>
<path d="M155.924 76.3601H152.632V71.6155H155.924V76.3601Z" fill="#70A2FF"/>
<path d="M160.295 76.3601H157.004V65.6115H160.295V76.3601Z" fill="#70A2FF"/>
<path d="M145.314 68.3959C144.646 68.3959 144.103 68.9391 144.103 69.6064C144.103 70.2741 144.646 70.8168 145.314 70.8168C145.981 70.8168 146.524 70.2741 146.524 69.6064C146.524 68.9391 145.981 68.3959 145.314 68.3959ZM145.314 71.2449C144.41 71.2449 143.675 70.51 143.675 69.6064C143.675 68.7033 144.41 67.9679 145.314 67.9679C146.217 67.9679 146.952 68.7033 146.952 69.6064C146.952 70.51 146.217 71.2449 145.314 71.2449Z" fill="#70A2FF"/>
<path d="M150.022 62.1618C149.354 62.1618 148.811 62.7045 148.811 63.3723C148.811 64.0396 149.354 64.5827 150.022 64.5827C150.689 64.5827 151.232 64.0396 151.232 63.3723C151.232 62.7045 150.689 62.1618 150.022 62.1618ZM150.022 65.0107C149.119 65.0107 148.383 64.2754 148.383 63.3723C148.383 62.4687 149.119 61.7338 150.022 61.7338C150.925 61.7338 151.66 62.4687 151.66 63.3723C151.66 64.2754 150.925 65.0107 150.022 65.0107Z" fill="#70A2FF"/>
<path d="M154.281 66.1102C153.613 66.1102 153.07 66.6534 153.07 67.3207C153.07 67.988 153.613 68.5307 154.281 68.5307C154.948 68.5307 155.491 67.988 155.491 67.3207C155.491 66.6534 154.948 66.1102 154.281 66.1102ZM154.281 68.9587C153.377 68.9587 152.642 68.2238 152.642 67.3207C152.642 66.4171 153.377 65.6822 154.281 65.6822C155.184 65.6822 155.919 66.4171 155.919 67.3207C155.919 68.2238 155.184 68.9587 154.281 68.9587Z" fill="#70A2FF"/>
<path d="M158.831 60.3862C158.164 60.3862 157.621 60.9293 157.621 61.5966C157.621 62.2643 158.164 62.8071 158.831 62.8071C159.499 62.8071 160.041 62.2643 160.041 61.5966C160.041 60.9293 159.499 60.3862 158.831 60.3862ZM158.831 63.2351C157.928 63.2351 157.193 62.5002 157.193 61.5966C157.193 60.6935 157.928 59.9581 158.831 59.9581C159.734 59.9581 160.469 60.6935 160.469 61.5966C160.469 62.5002 159.734 63.2351 158.831 63.2351Z" fill="#70A2FF"/>
<path d="M155.395 66.522L155.045 66.2759L157.688 62.5135L158.039 62.7596L155.395 66.522Z" fill="#70A2FF"/>
<path d="M152.975 66.7703L150.962 64.6657L151.272 64.3699L153.284 66.4745L152.975 66.7703Z" fill="#70A2FF"/>
<path d="M146.27 68.5513L145.932 68.2885L148.9 64.4675L149.239 64.7299L146.27 68.5513" fill="#70A2FF"/>
<path d="M159.11 81.9959C159.11 82.6846 158.552 83.2432 157.863 83.2432C157.174 83.2432 156.616 82.6846 156.616 81.9959C156.616 81.3068 157.174 80.7482 157.863 80.7482C158.552 80.7482 159.11 81.3068 159.11 81.9959Z" fill="#17282F"/>
<path d="M190.349 59.6915C190.349 60.3802 189.79 60.9387 189.101 60.9387C188.413 60.9387 187.854 60.3802 187.854 59.6915C187.854 59.0023 188.413 58.4442 189.101 58.4442C189.79 58.4442 190.349 59.0023 190.349 59.6915Z" fill="#17282F"/>
<path d="M237.072 87.6314C237.072 88.3201 236.513 88.8787 235.824 88.8787C235.135 88.8787 234.577 88.3201 234.577 87.6314C234.577 86.9423 235.135 86.3841 235.824 86.3841C236.513 86.3841 237.072 86.9423 237.072 87.6314Z" fill="#17282F"/>
<path d="M222.161 68.8304C222.161 69.5191 221.603 70.0776 220.914 70.0776C220.225 70.0776 219.667 69.5191 219.667 68.8304C219.667 68.1417 220.225 67.5831 220.914 67.5831C221.603 67.5831 222.161 68.1417 222.161 68.8304Z" fill="#17282F"/>
<path d="M162.843 48.5559H154.819C152.364 48.5559 150.375 46.566 150.375 44.1113V36.0871C150.375 33.6328 152.364 31.6425 154.819 31.6425H162.843C165.298 31.6425 167.288 33.6328 167.288 36.0871V44.1113C167.288 46.566 165.298 48.5559 162.843 48.5559Z" fill="white"/>
<path d="M162.843 48.556C162.842 48.5415 163.054 48.5458 163.448 48.4875C163.838 48.4319 164.424 48.2954 165.069 47.9037C165.706 47.5206 166.423 46.8705 166.847 45.8873C167.06 45.4002 167.197 44.8386 167.211 44.2364C167.221 43.6295 167.209 42.9797 167.209 42.3022C167.205 40.9432 167.201 39.4562 167.195 37.861C167.195 37.462 167.194 37.0558 167.192 36.6437C167.189 36.2289 167.205 35.8142 167.131 35.4058C167.07 34.9949 166.944 34.5866 166.754 34.2043C166.57 33.8191 166.326 33.4549 166.023 33.1377C165.431 32.4892 164.613 32.0283 163.716 31.8369C163.264 31.7479 162.803 31.7479 162.319 31.7505C161.84 31.7509 161.356 31.7513 160.868 31.7518C158.914 31.7526 156.892 31.7535 154.821 31.7539C153.809 31.759 152.821 32.1199 152.06 32.7456C151.303 33.3766 150.78 34.2523 150.58 35.1841C150.481 35.6519 150.48 36.1228 150.482 36.6069C150.482 37.0858 150.481 37.5609 150.481 38.0309C150.48 38.9704 150.479 39.8902 150.477 40.7882C150.476 41.6854 150.474 42.5607 150.473 43.4112C150.472 43.8379 150.461 44.2569 150.508 44.6546C150.55 45.0569 150.669 45.4392 150.809 45.8038C151.422 47.2548 152.759 48.2012 154.072 48.4088C154.727 48.5192 155.381 48.4691 155.991 48.4854C156.602 48.4884 157.179 48.491 157.719 48.4935C158.794 48.5012 159.722 48.5072 160.485 48.5128C161.234 48.5218 161.821 48.5286 162.234 48.5338C162.424 48.5385 162.574 48.5419 162.688 48.5449C162.791 48.5483 162.843 48.5522 162.843 48.556C162.843 48.5599 162.791 48.5637 162.688 48.5676C162.574 48.5702 162.424 48.574 162.234 48.5783C161.821 48.5834 161.234 48.5907 160.485 48.5993C159.722 48.6048 158.794 48.6112 157.719 48.6185C157.179 48.6211 156.602 48.6241 155.991 48.6271C155.381 48.616 154.733 48.6737 154.045 48.5642C152.683 48.3587 151.286 47.3862 150.638 45.8757C150.49 45.4965 150.365 45.098 150.318 44.6781C150.267 44.2565 150.278 43.8345 150.276 43.4112C150.275 42.5607 150.273 41.6854 150.272 40.7882C150.27 39.8902 150.269 38.9704 150.268 38.0309C150.267 37.5609 150.267 37.0858 150.267 36.6069C150.263 36.133 150.263 35.6297 150.366 35.1387C150.575 34.159 151.124 33.2383 151.918 32.5749C152.717 31.9161 153.757 31.5356 154.821 31.5313C156.892 31.5322 158.914 31.5326 160.868 31.5335C161.356 31.5339 161.84 31.5343 162.319 31.5348C162.793 31.5326 163.286 31.5335 163.759 31.6285C164.7 31.8309 165.556 32.3172 166.173 32.9977C166.49 33.3307 166.744 33.7134 166.934 34.1175C167.133 34.5181 167.263 34.9453 167.325 35.375C167.4 35.8056 167.381 36.2353 167.383 36.6437C167.383 37.0558 167.381 37.462 167.38 37.861C167.376 39.4562 167.371 40.9432 167.367 42.3022C167.362 42.9814 167.368 43.6252 167.353 44.2407C167.333 44.8617 167.185 45.4396 166.961 45.9378C166.513 46.9445 165.769 47.5994 165.113 47.9786C164.448 48.366 163.85 48.4901 163.454 48.5321C163.055 48.5762 162.843 48.556 162.843 48.556" fill="#17282F"/>
<path d="M159.565 40.0122C160.286 39.7096 160.799 38.9661 160.803 38.0904C160.808 36.9429 159.94 36.0085 158.864 36.0038C157.788 35.9986 156.912 36.9249 156.907 38.0724C156.903 38.9563 157.419 39.7088 158.148 40.0122C155.15 40.4638 155.286 43.7219 155.286 43.7219L162.375 43.7549C162.375 43.7549 162.537 40.4608 159.565 40.0122" fill="#3478F6"/>
<path d="M155.297 43.711L162.365 43.7439C162.368 43.6459 162.382 42.8695 162.075 42.0545C161.883 41.5456 161.606 41.1214 161.251 40.7935C160.807 40.3839 160.24 40.1245 159.564 40.0227L159.526 40.0167L159.561 40.0021C160.305 39.6901 160.788 38.9393 160.793 38.0901C160.797 36.9503 159.931 36.0189 158.863 36.0142H158.854C158.34 36.0142 157.857 36.2265 157.491 36.613C157.124 37.0017 156.92 37.52 156.917 38.0717C156.914 38.9308 157.399 39.688 158.153 40.0021L158.188 40.0167L158.15 40.0227C157.468 40.125 156.894 40.3831 156.444 40.7897C156.083 41.115 155.801 41.5353 155.603 42.0395C155.287 42.8464 155.294 43.6142 155.297 43.711V43.711ZM162.386 43.7649H162.375L155.276 43.7324L155.276 43.7221C155.275 43.714 155.245 42.8956 155.583 42.0322C155.781 41.525 156.066 41.1017 156.429 40.7743C156.874 40.3719 157.44 40.1138 158.11 40.0068C157.368 39.6815 156.892 38.9261 156.896 38.0717C156.898 37.5144 157.104 36.991 157.476 36.5985C157.845 36.2077 158.334 35.9928 158.854 35.9928H158.863C159.943 35.9975 160.818 36.9387 160.814 38.0901C160.81 38.9351 160.336 39.6833 159.604 40.0068C160.268 40.1134 160.826 40.3728 161.266 40.7781C161.623 41.1081 161.902 41.5353 162.095 42.0477C162.423 42.9191 162.387 43.7465 162.386 43.755L162.386 43.7649" fill="#17282F"/>
<path d="M252.456 127.265H242.09C239.635 127.265 237.646 125.275 237.646 122.82V112.455C237.646 110 239.635 108.01 242.09 108.01H252.456C254.91 108.01 256.9 110 256.9 112.455V122.82C256.9 125.275 254.91 127.265 252.456 127.265Z" fill="white"/>
<path d="M252.455 127.265C252.454 127.246 252.7 127.262 253.153 127.182C253.601 127.102 254.276 126.923 254.988 126.416C255.69 125.919 256.423 125.055 256.711 123.85C256.867 123.253 256.828 122.587 256.829 121.878C256.826 121.171 256.824 120.424 256.821 119.639C256.817 118.069 256.813 116.35 256.808 114.505C256.807 114.044 256.806 113.574 256.805 113.098C256.797 112.619 256.826 112.138 256.727 111.667C256.549 110.726 256.053 109.805 255.271 109.153C254.5 108.494 253.471 108.109 252.406 108.117C251.32 108.117 250.211 108.118 249.082 108.119C246.824 108.12 244.486 108.121 242.092 108.122C240.92 108.114 239.779 108.611 238.989 109.431C238.189 110.244 237.751 111.362 237.754 112.466C237.752 114.724 237.75 116.903 237.748 118.978C237.746 120.016 237.745 121.028 237.743 122.011C237.746 122.504 237.723 122.989 237.791 123.447C237.852 123.909 237.991 124.355 238.197 124.756C238.594 125.571 239.241 126.213 239.97 126.627C240.707 127.037 241.518 127.208 242.295 127.186C245.426 127.201 247.962 127.213 249.729 127.221C250.598 127.23 251.277 127.237 251.75 127.242C251.973 127.247 252.147 127.251 252.276 127.254C252.395 127.257 252.455 127.261 252.455 127.265C252.455 127.269 252.395 127.272 252.276 127.276C252.147 127.279 251.973 127.283 251.75 127.287C251.277 127.292 250.598 127.299 249.729 127.308C247.962 127.316 245.426 127.329 242.295 127.343C241.505 127.372 240.651 127.2 239.886 126.777C239.126 126.351 238.449 125.686 238.031 124.839C237.815 124.42 237.669 123.956 237.603 123.475C237.529 122.989 237.552 122.499 237.547 122.011C237.546 121.028 237.544 120.016 237.543 118.978C237.54 116.903 237.538 114.724 237.536 112.466C237.531 111.309 237.99 110.131 238.83 109.276C239.659 108.414 240.86 107.891 242.092 107.899C244.486 107.9 246.824 107.9 249.082 107.901C250.211 107.902 251.32 107.903 252.406 107.904C253.518 107.898 254.6 108.304 255.405 108.997C256.22 109.682 256.737 110.647 256.92 111.632C257.022 112.128 256.99 112.626 256.996 113.098C256.994 113.574 256.993 114.044 256.992 114.505C256.988 116.35 256.983 118.069 256.979 119.639C256.976 120.424 256.973 121.171 256.971 121.878C256.964 122.579 256.999 123.263 256.832 123.879C256.524 125.116 255.762 125.992 255.038 126.487C254.304 126.993 253.615 127.159 253.16 127.226C252.931 127.266 252.753 127.266 252.635 127.267C252.516 127.269 252.455 127.269 252.455 127.265" fill="#17282F"/>
<path d="M164.565 122.948H154.2C151.746 122.948 149.755 120.958 149.755 118.504V108.138C149.755 105.683 151.746 103.694 154.2 103.694H164.565C167.02 103.694 169.01 105.683 169.01 108.138V118.504C169.01 120.958 167.02 122.948 164.565 122.948Z" fill="white"/>
<path d="M164.565 122.948C164.564 122.929 164.81 122.945 165.263 122.865C165.711 122.785 166.386 122.606 167.097 122.1C167.8 121.603 168.534 120.738 168.821 119.533C168.977 118.936 168.938 118.27 168.939 117.561C168.937 116.854 168.934 116.107 168.931 115.322C168.927 113.752 168.923 112.033 168.917 110.189C168.917 109.727 168.916 109.258 168.915 108.781C168.907 108.302 168.937 107.821 168.837 107.351C168.659 106.41 168.163 105.488 167.381 104.837C166.61 104.177 165.581 103.793 164.516 103.8C163.43 103.801 162.321 103.802 161.192 103.802C158.934 103.803 156.596 103.804 154.202 103.805C153.03 103.798 151.888 104.294 151.099 105.114C150.299 105.928 149.861 107.046 149.864 108.149C149.862 110.407 149.86 112.586 149.858 114.661C149.857 115.699 149.855 116.711 149.853 117.694C149.856 118.187 149.833 118.672 149.901 119.13C149.963 119.593 150.101 120.038 150.306 120.44C150.704 121.254 151.351 121.896 152.08 122.31C152.817 122.721 153.628 122.891 154.405 122.869C157.535 122.884 160.072 122.896 161.84 122.905C162.708 122.914 163.387 122.921 163.861 122.926C164.083 122.931 164.258 122.934 164.386 122.937C164.505 122.94 164.565 122.944 164.565 122.948C164.565 122.952 164.505 122.956 164.386 122.96C164.258 122.962 164.083 122.966 163.861 122.971C163.387 122.975 162.708 122.983 161.84 122.992C160.072 123 157.536 123.012 154.405 123.027C153.615 123.055 152.761 122.883 151.996 122.461C151.236 122.034 150.559 121.369 150.141 120.522C149.925 120.104 149.779 119.64 149.712 119.158C149.639 118.672 149.662 118.183 149.657 117.694C149.656 116.711 149.654 115.699 149.652 114.661C149.651 112.586 149.649 110.407 149.646 108.149C149.641 106.992 150.101 105.814 150.94 104.959C151.769 104.097 152.971 103.574 154.202 103.582C156.596 103.583 158.934 103.583 161.192 103.584C162.321 103.585 163.43 103.586 164.516 103.587C165.628 103.581 166.71 103.988 167.514 104.68C168.331 105.365 168.848 106.331 169.03 107.315C169.132 107.812 169.099 108.31 169.105 108.781C169.104 109.258 169.103 109.727 169.102 110.189C169.098 112.033 169.093 113.752 169.089 115.322C169.086 116.107 169.084 116.854 169.081 117.561C169.074 118.262 169.109 118.946 168.942 119.563C168.634 120.799 167.872 121.675 167.148 122.171C166.414 122.676 165.724 122.843 165.27 122.91C165.041 122.949 164.864 122.949 164.745 122.951C164.626 122.953 164.565 122.952 164.565 122.948" fill="#17282F"/>
<path d="M160.218 113.221C161.039 112.877 161.622 112.031 161.627 111.034C161.633 109.727 160.644 108.664 159.419 108.658C158.194 108.652 157.197 109.707 157.192 111.013C157.188 112.02 157.775 112.876 158.605 113.221C155.192 113.736 155.347 117.445 155.347 117.445L163.418 117.482C163.418 117.482 163.601 113.732 160.218 113.221" fill="#70A2FF"/>
<path d="M187.404 41.32C185.756 41.32 184.222 42.3729 183.689 44.023C183.029 46.0698 184.157 48.2715 186.203 48.932C188.25 49.5929 190.452 48.4646 191.112 46.4182C191.772 44.3714 190.645 42.1692 188.599 41.5088C188.202 41.3812 187.799 41.32 187.404 41.32V41.32ZM187.397 49.9768C186.914 49.9768 186.424 49.9032 185.94 49.747C183.444 48.9418 182.069 46.256 182.874 43.7597C183.68 41.2644 186.365 39.8887 188.861 40.6942C190.071 41.0846 191.055 41.9218 191.634 43.0526C192.213 44.1835 192.317 45.4718 191.927 46.681C191.278 48.6932 189.406 49.9768 187.397 49.9768Z" fill="#17282F"/>
<path d="M193.692 52.8335C193.577 52.8335 193.461 52.7868 193.377 52.6948L189.842 48.8452C189.682 48.6714 189.694 48.4004 189.867 48.2408C190.041 48.0811 190.313 48.0918 190.472 48.2665L194.007 52.1157C194.167 52.2899 194.155 52.5604 193.982 52.7205C193.899 52.7958 193.796 52.8335 193.692 52.8335Z" fill="#17282F"/>
<path d="M249.294 79.5865C245.156 79.5865 241.789 82.9533 241.789 87.0919C241.789 91.23 245.156 94.5969 249.294 94.5969C253.432 94.5969 256.799 91.23 256.799 87.0919C256.799 82.9533 253.432 79.5865 249.294 79.5865ZM249.294 95.0249C244.92 95.0249 241.361 91.4659 241.361 87.0919C241.361 82.7175 244.92 79.1584 249.294 79.1584C253.668 79.1584 257.227 82.7175 257.227 87.0919C257.227 91.4659 253.668 95.0249 249.294 95.0249Z" fill="#70A2FF"/>
<path d="M249.056 94.998C249.014 94.9745 248.009 94.4074 247.022 93.1259C246.114 91.9471 245.055 89.9152 245.165 86.9298C245.275 83.9477 246.408 82.0032 247.339 80.8968C248.353 79.6919 249.334 79.2009 249.375 79.1808L249.564 79.5647C249.527 79.5832 245.794 81.4943 245.593 86.946C245.393 92.3952 249.226 94.6021 249.264 94.624L249.056 94.998" fill="#70A2FF"/>
<path d="M249.407 94.9929L249.182 94.6287C249.219 94.6056 252.932 92.2386 252.73 86.7825C252.53 81.3355 248.957 79.5836 248.921 79.566L249.103 79.1791C249.26 79.2527 252.948 81.0466 253.158 86.7667C253.369 92.4808 249.447 94.9685 249.407 94.9929" fill="#70A2FF"/>
<path d="M249.399 84.5764C246.186 84.5764 244.115 83.4854 242.944 82.5703L243.208 82.233C244.326 83.1066 246.308 84.1484 249.399 84.1484C252.391 84.1484 254.287 83.1121 255.35 82.2428L255.621 82.5741C254.504 83.4875 252.517 84.5764 249.399 84.5764Z" fill="#70A2FF"/>
<path d="M255.37 91.7148C254.252 90.8669 252.269 89.8564 249.175 89.8564C246.183 89.8564 244.286 90.8618 243.222 91.705L242.956 91.3699C244.074 90.4839 246.06 89.4283 249.175 89.4283C252.388 89.4283 254.458 90.486 255.629 91.3737L255.37 91.7148" fill="#70A2FF"/>
<path d="M257.024 87.3291H241.768V86.9011H257.024V87.3291Z" fill="#70A2FF"/>
<path d="M223.895 158.153H213.041V147.299H223.895V158.153Z" fill="#DADBD8"/>
<path d="M237.81 148.887H226.631V147.958H237.81V148.887Z" fill="#DADBD8"/>
<path d="M237.81 151.034H226.631V150.105H237.81V151.034Z" fill="#DADBD8"/>
<path d="M237.81 153.181H226.631V152.252H237.81V153.181Z" fill="#DADBD8"/>
<path d="M237.81 155.328H226.631V154.399H237.81V155.328Z" fill="#DADBD8"/>
<path d="M237.81 157.474H226.631V156.545H237.81V157.474Z" fill="#DADBD8"/>
<path d="M239.832 144.355H210.188V140.071C210.188 138.428 211.52 137.096 213.163 137.096H236.814C238.481 137.096 239.832 138.448 239.832 140.114V144.355" fill="#DADBD8"/>
<path d="M237.067 163.182C237.061 163.157 237.455 163.217 238.114 162.952C238.439 162.817 238.815 162.574 239.149 162.183C239.477 161.792 239.753 161.234 239.781 160.565C239.775 157.859 239.765 153.956 239.753 149.136C239.749 146.722 239.745 144.079 239.74 141.242C239.739 140.887 239.739 140.529 239.738 140.169C239.746 139.803 239.729 139.459 239.62 139.117C239.417 138.438 238.927 137.836 238.276 137.503C237.953 137.334 237.593 137.232 237.224 137.206C236.856 137.186 236.459 137.201 236.074 137.197C235.296 137.197 234.508 137.198 233.711 137.199C227.329 137.202 220.314 137.205 212.95 137.208C212.505 137.204 212.068 137.316 211.679 137.519C211.296 137.731 210.961 138.033 210.724 138.4C210.491 138.767 210.336 139.187 210.309 139.621C210.288 140.055 210.303 140.518 210.299 140.962C210.298 142.755 210.297 144.523 210.297 146.259C210.295 149.732 210.293 153.082 210.291 156.273C210.29 157.071 210.289 157.859 210.288 158.636C210.288 159.025 210.288 159.411 210.287 159.794C210.293 160.181 210.262 160.559 210.341 160.913C210.484 161.63 210.93 162.265 211.525 162.648C211.822 162.842 212.154 162.974 212.497 163.039C212.836 163.11 213.192 163.084 213.55 163.09C216.387 163.095 219.03 163.099 221.444 163.104C226.265 163.119 230.169 163.131 232.875 163.139C234.219 163.148 235.265 163.155 235.983 163.16C236.333 163.165 236.601 163.168 236.791 163.171C236.973 163.175 237.067 163.182 237.067 163.182C237.067 163.182 236.973 163.19 236.791 163.194C236.601 163.196 236.333 163.2 235.983 163.205C235.265 163.21 234.219 163.217 232.875 163.226C230.169 163.234 226.265 163.246 221.444 163.261C219.03 163.265 216.387 163.27 213.55 163.275C213.2 163.27 212.833 163.298 212.462 163.224C212.096 163.155 211.74 163.014 211.421 162.808C210.784 162.399 210.304 161.722 210.149 160.952C210.063 160.563 210.095 160.172 210.089 159.794C210.088 159.411 210.088 159.025 210.087 158.636C210.086 157.859 210.086 157.071 210.085 156.273C210.083 153.082 210.081 149.732 210.079 146.259C210.078 144.523 210.077 142.755 210.077 140.962C210.082 140.51 210.066 140.072 210.088 139.604C210.117 139.134 210.284 138.676 210.537 138.278C210.794 137.881 211.157 137.553 211.573 137.323C211.995 137.102 212.473 136.981 212.95 136.985C220.314 136.988 227.329 136.991 233.711 136.994C234.508 136.994 235.296 136.995 236.074 136.996C236.465 137.001 236.841 136.986 237.238 137.008C237.634 137.036 238.021 137.147 238.367 137.329C239.064 137.688 239.587 138.334 239.802 139.061C239.918 139.421 239.936 139.814 239.926 140.169C239.926 140.529 239.925 140.887 239.925 141.242C239.92 144.079 239.915 146.722 239.911 149.136C239.898 153.964 239.897 157.866 239.868 160.57C239.832 161.259 239.541 161.83 239.2 162.226C238.852 162.622 238.465 162.863 238.132 162.993C237.799 163.131 237.523 163.156 237.343 163.18C237.16 163.185 237.067 163.182 237.067 163.182" fill="#17282F"/>
<path d="M226.631 137.096C226.631 137.785 226.073 138.344 225.384 138.344C224.695 138.344 224.137 137.785 224.137 137.096C224.137 136.407 224.695 135.849 225.384 135.849C226.073 135.849 226.631 136.407 226.631 137.096Z" fill="#17282F"/>
<path d="M230.452 56.6315C231.109 58.9253 229.615 61.1694 227.265 61.1694H214.903C212.902 61.1694 211.335 59.2356 211.907 57.2864C211.937 57.1824 211.972 57.0814 212.013 56.9842C212.572 55.6231 214.135 54.7739 215.559 55.0581C215.9 52.552 218.058 50.4221 220.532 50.1499C223.007 49.8777 225.563 51.4888 226.423 53.863C226.423 53.863 229.609 53.6901 230.452 56.6315Z" fill="#70A2FF"/>
<path d="M219.998 63.3613V58.6154H218.139C217.921 58.6154 217.794 58.3697 217.92 58.1916L220.98 53.8729C221.087 53.7222 221.311 53.7218 221.418 53.8724L224.475 58.1565C224.602 58.3342 224.475 58.5811 224.256 58.5811H222.447V63.3613H219.998" fill="white"/>
<path d="M231.028 126.215L225.441 106.549H176.603L170.24 126.149C169.854 127.337 170.729 128.56 171.965 128.56H194.271L195.174 127.657H205.71L206.613 128.56H229.283C230.49 128.56 231.361 127.389 231.028 126.215Z" fill="#DADBD8"/>
<path d="M229.283 128.56H206.613L205.71 127.657H195.174L194.271 128.56H171.965C170.929 128.56 170.147 127.702 170.148 126.724C170.148 126.605 170.16 126.483 170.184 126.361C170.35 127.178 171.06 127.833 171.965 127.833H194.271L195.174 126.929H205.71L206.613 127.833H229.283C230.184 127.833 230.898 127.181 231.063 126.361C231.088 126.484 231.1 126.607 231.1 126.727C231.099 127.707 230.313 128.56 229.283 128.56Z" fill="#8F9192"/>
<path d="M176.582 106.043V77.1888C176.582 76.0446 177.504 75.1175 178.641 75.1175H223.519C224.657 75.1175 225.578 76.0446 225.578 77.1888V106.043H176.582Z" fill="#DADBD8"/>
<path d="M222.616 103.631H179.545V77.9725H222.616V103.631Z" fill="white"/>
<path d="M222.616 103.631C222.616 103.631 222.61 103.469 222.606 103.165C222.604 102.854 222.601 102.404 222.597 101.817C222.592 100.632 222.584 98.8985 222.575 96.6745C222.564 92.2269 222.549 85.8237 222.529 77.9724L222.616 78.0588C211.001 78.0657 195.945 78.0743 179.548 78.0837H179.545L179.656 77.9724C179.653 87.0598 179.651 95.7346 179.648 103.631L179.545 103.527C192.163 103.548 202.917 103.565 210.523 103.578C214.328 103.59 217.345 103.599 219.417 103.606C220.449 103.611 221.245 103.615 221.79 103.618C222.056 103.621 222.26 103.623 222.403 103.624C222.542 103.627 222.616 103.631 222.616 103.631C222.616 103.631 222.55 103.635 222.416 103.637C222.275 103.638 222.075 103.64 221.814 103.643C221.273 103.646 220.485 103.65 219.462 103.656C217.395 103.662 214.387 103.672 210.591 103.684C202.968 103.696 192.191 103.713 179.545 103.734L179.441 103.734V103.631C179.439 95.7346 179.436 87.0598 179.433 77.9724V77.8611H179.545H179.548C195.945 77.8705 211.001 77.8791 222.616 77.8859H222.703L222.702 77.9724C222.683 85.8463 222.668 92.2676 222.656 96.728C222.647 98.9435 222.64 100.671 222.635 101.851C222.63 102.431 222.627 102.876 222.625 103.183C222.622 103.482 222.616 103.631 222.616 103.631" fill="#17282F"/>
<path d="M201.874 76.6195C201.874 77.0497 201.519 77.3989 201.08 77.3989C200.642 77.3989 200.286 77.0497 200.286 76.6195C200.286 76.1893 200.642 75.8405 201.08 75.8405C201.519 75.8405 201.874 76.1893 201.874 76.6195Z" fill="#17282F"/>
<path d="M231.028 125.488L225.441 105.822H176.603L170.24 125.422C169.854 126.61 170.729 127.833 171.965 127.833H194.271L195.174 126.929H205.71L206.613 127.833H229.283C230.49 127.833 231.361 126.662 231.028 125.488" fill="#DADBD8"/>
<path d="M221.976 107.083L179.414 106.94C178.969 106.938 178.576 107.18 178.452 107.533L175.041 117.212C174.855 117.738 175.334 118.264 175.998 118.264H225.25C225.911 118.264 226.389 117.742 226.209 117.217L222.931 107.681C222.81 107.329 222.42 107.085 221.976 107.083" fill="#E7E8E5"/>
<path d="M208.757 125.656H191.957C191.267 125.656 190.763 124.943 190.937 124.214L191.886 120.242C192.008 119.735 192.427 119.382 192.906 119.382H207.913C208.403 119.382 208.828 119.751 208.939 120.272L209.783 124.245C209.936 124.966 209.435 125.656 208.757 125.656Z" fill="#C0C1BF"/>
<path d="M208.7 110.145L208.262 108.12C208.232 107.98 208.109 107.881 207.967 107.881H205.347C205.163 107.881 205.022 108.044 205.047 108.226L205.337 110.255C205.358 110.404 205.486 110.515 205.636 110.514L208.405 110.511C208.597 110.511 208.74 110.333 208.7 110.145" fill="#17282F"/>
<path d="M200.804 110.192L200.617 108.155C200.603 108 200.472 107.881 200.316 107.881H197.639C197.468 107.881 197.331 108.023 197.337 108.194L197.412 110.234C197.418 110.397 197.551 110.525 197.714 110.525L200.503 110.522C200.681 110.521 200.82 110.369 200.804 110.192" fill="#17282F"/>
<path d="M204.958 110.171L204.668 108.141C204.647 107.992 204.52 107.881 204.369 107.881H201.288C201.11 107.881 200.971 108.034 200.987 108.211L201.174 110.246C201.188 110.402 201.318 110.521 201.475 110.521L204.659 110.516C204.843 110.516 204.984 110.353 204.958 110.171" fill="#17282F"/>
<path d="M185.416 110.225L185.83 108.376C185.887 108.122 185.694 107.881 185.434 107.881H182.896C182.715 107.881 182.555 108.001 182.505 108.176L181.976 110.029C181.901 110.289 182.097 110.547 182.367 110.547L185.02 110.543C185.211 110.543 185.375 110.411 185.416 110.225" fill="#17282F"/>
<path d="M222.39 110.081L221.619 108.075C221.575 107.958 221.462 107.881 221.337 107.881H216.357C216.147 107.881 216 108.091 216.074 108.289L216.823 110.302C216.867 110.42 216.981 110.499 217.107 110.499L222.109 110.492C222.321 110.491 222.467 110.279 222.39 110.081Z" fill="#17282F"/>
<path d="M196.671 107.881H193.775C193.613 107.881 193.48 108.007 193.472 108.169L193.374 110.214C193.365 110.387 193.503 110.531 193.676 110.531L196.746 110.527C196.917 110.527 197.054 110.385 197.048 110.213L196.972 108.172C196.966 108.01 196.833 107.881 196.671 107.881" fill="#17282F"/>
<path d="M181.672 107.881H179.653C179.482 107.881 179.329 107.988 179.271 108.15L178.604 110.008C178.509 110.273 178.706 110.552 178.987 110.552L181.143 110.549C181.324 110.548 181.484 110.428 181.533 110.254L182.063 108.399C182.138 108.139 181.942 107.881 181.672 107.881" fill="#17282F"/>
<path d="M189.163 110.275L189.432 108.222C189.455 108.041 189.314 107.881 189.132 107.881H186.555C186.414 107.881 186.292 107.979 186.261 108.117L185.8 110.174C185.758 110.362 185.902 110.542 186.096 110.542L188.864 110.538C189.016 110.537 189.144 110.425 189.163 110.275" fill="#17282F"/>
<path d="M189.808 108.144L189.54 110.195C189.517 110.376 189.657 110.537 189.84 110.537L192.707 110.532C192.868 110.532 193.001 110.406 193.008 110.245L193.107 108.198C193.116 108.025 192.978 107.881 192.806 107.881H190.108C189.956 107.881 189.828 107.994 189.808 108.144" fill="#17282F"/>
<path d="M212.639 110.117L212.04 108.097C212.002 107.969 211.884 107.881 211.75 107.881H208.957C208.764 107.881 208.621 108.059 208.661 108.247L209.099 110.271C209.129 110.41 209.252 110.509 209.394 110.509L212.35 110.505C212.551 110.505 212.696 110.311 212.639 110.117" fill="#17282F"/>
<path d="M216.357 110.093L215.608 108.078C215.564 107.96 215.451 107.881 215.325 107.881H212.759C212.557 107.881 212.412 108.076 212.47 108.269L213.068 110.288C213.106 110.416 213.224 110.504 213.358 110.504L216.075 110.5C216.285 110.5 216.431 110.29 216.357 110.093" fill="#17282F"/>
<path d="M196.785 110.987L193.625 110.987C193.463 110.987 193.331 111.114 193.323 111.275L193.221 113.386C193.213 113.558 193.35 113.702 193.523 113.702L196.863 113.698C197.034 113.698 197.17 113.556 197.164 113.385L197.087 111.278C197.081 111.116 196.947 110.987 196.785 110.987" fill="#17282F"/>
<path d="M217.537 113.263L216.765 111.187C216.721 111.069 216.608 110.99 216.481 110.99L213.681 110.989C213.479 110.989 213.334 111.184 213.392 111.378L214.009 113.459C214.046 113.587 214.165 113.675 214.299 113.675L217.255 113.671C217.465 113.671 217.611 113.461 217.537 113.263Z" fill="#17282F"/>
<path d="M213.58 113.288L212.962 111.206C212.924 111.078 212.806 110.989 212.672 110.989L209.628 110.989C209.436 110.989 209.292 111.167 209.333 111.355L209.784 113.442C209.814 113.582 209.937 113.681 210.08 113.68L213.29 113.676C213.492 113.676 213.637 113.482 213.58 113.288" fill="#17282F"/>
<path d="M189.426 113.707L192.554 113.703C192.715 113.703 192.848 113.577 192.855 113.416L192.957 111.303C192.966 111.131 192.828 110.987 192.656 110.987L189.702 110.986C189.55 110.986 189.422 111.099 189.402 111.249L189.126 113.366C189.102 113.547 189.243 113.708 189.426 113.707" fill="#17282F"/>
<path d="M197.831 113.697L200.794 113.692C200.972 113.692 201.11 113.54 201.095 113.363L200.902 111.263C200.887 111.107 200.757 110.988 200.601 110.988L197.753 110.987C197.582 110.987 197.445 111.129 197.451 111.301L197.528 113.406C197.534 113.568 197.668 113.697 197.831 113.697" fill="#17282F"/>
<path d="M201.272 111.318L201.464 113.417C201.479 113.572 201.609 113.691 201.766 113.691L205.112 113.687C205.295 113.687 205.436 113.524 205.41 113.342L205.112 111.248C205.09 111.099 204.963 110.988 204.812 110.988L201.573 110.988C201.395 110.988 201.256 111.14 201.272 111.318Z" fill="#17282F"/>
<path d="M209.385 113.316L208.934 111.228C208.904 111.089 208.78 110.989 208.638 110.989L205.79 110.989C205.606 110.989 205.465 111.151 205.491 111.334L205.79 113.426C205.811 113.575 205.939 113.686 206.089 113.686L209.09 113.682C209.282 113.682 209.425 113.504 209.385 113.316" fill="#17282F"/>
<path d="M184.869 110.986L178.559 110.985C178.434 110.985 178.322 111.062 178.277 111.178L177.455 113.312C177.379 113.51 177.526 113.723 177.738 113.723L184.394 113.714C184.535 113.714 184.658 113.616 184.689 113.478L185.164 111.354C185.206 111.165 185.063 110.986 184.869 110.986Z" fill="#17282F"/>
<path d="M185.386 113.712L188.45 113.709C188.602 113.709 188.73 113.596 188.749 113.446L189.026 111.327C189.05 111.146 188.909 110.986 188.727 110.986L185.861 110.985C185.72 110.985 185.597 111.083 185.566 111.222L185.091 113.344C185.049 113.533 185.192 113.713 185.386 113.712Z" fill="#17282F"/>
<path d="M221.304 113.666L223.277 113.663C223.491 113.663 223.637 113.447 223.557 113.249L222.726 111.18C222.68 111.066 222.569 110.991 222.446 110.991H220.632C220.427 110.991 220.282 111.191 220.345 111.386L221.016 113.457C221.057 113.582 221.173 113.666 221.304 113.666" fill="#17282F"/>
<path d="M220.575 113.272L219.903 111.2C219.863 111.075 219.747 110.99 219.616 110.99H217.515C217.304 110.99 217.158 111.201 217.232 111.398L218.004 113.473C218.048 113.592 218.161 113.67 218.287 113.67L220.288 113.667C220.493 113.667 220.638 113.467 220.575 113.272" fill="#17282F"/>
<path d="M189.134 117.265L192.235 117.27C192.478 117.271 192.679 117.08 192.69 116.837L192.797 114.633C192.809 114.373 192.602 114.156 192.342 114.156H189.422C189.193 114.156 189 114.325 188.971 114.552L188.684 116.752C188.648 117.023 188.86 117.265 189.134 117.265Z" fill="#17282F"/>
<path d="M223.675 114.156H218.912C218.595 114.156 218.375 114.473 218.486 114.77L219.323 117.019C219.389 117.197 219.559 117.315 219.749 117.315L224.554 117.323C224.874 117.324 225.095 117.001 224.979 116.703L224.099 114.446C224.031 114.271 223.863 114.156 223.675 114.156" fill="#17282F"/>
<path d="M184.83 114.511L184.339 116.704C184.275 116.988 184.491 117.258 184.782 117.258L187.85 117.263C188.079 117.263 188.273 117.094 188.302 116.867L188.589 114.67C188.625 114.397 188.413 114.156 188.138 114.156H185.274C185.061 114.156 184.876 114.304 184.83 114.511" fill="#17282F"/>
<path d="M180.665 114.486L180.018 116.751C179.947 117.001 180.135 117.251 180.395 117.251L183.528 117.256C183.712 117.257 183.871 117.129 183.912 116.949L184.429 114.64C184.484 114.393 184.294 114.159 184.04 114.162L181.037 114.202C180.864 114.204 180.713 114.32 180.665 114.486Z" fill="#17282F"/>
<path d="M210.057 114.707L210.54 116.942C210.585 117.151 210.769 117.3 210.983 117.301L214.16 117.306C214.465 117.306 214.684 117.013 214.597 116.721L213.933 114.481C213.876 114.288 213.698 114.156 213.497 114.156H210.502C210.212 114.156 209.996 114.423 210.057 114.707" fill="#17282F"/>
<path d="M193.163 114.589L193.056 116.795C193.044 117.054 193.251 117.272 193.51 117.272L209.68 117.298C209.97 117.299 210.187 117.031 210.126 116.747L209.643 114.514C209.598 114.305 209.413 114.156 209.199 114.156H193.617C193.374 114.156 193.174 114.346 193.163 114.589" fill="#17282F"/>
<path d="M177.131 114.392L176.26 116.76C176.173 116.995 176.347 117.245 176.598 117.245L179.225 117.249C179.386 117.249 179.528 117.143 179.573 116.987L180.25 114.616C180.316 114.385 180.143 114.156 179.904 114.156H177.469C177.318 114.156 177.183 114.25 177.131 114.392" fill="#17282F"/>
<path d="M214.389 114.74L215.054 116.982C215.111 117.175 215.288 117.308 215.489 117.308L218.389 117.313C218.707 117.313 218.927 116.997 218.816 116.699L217.98 114.452C217.914 114.274 217.744 114.156 217.554 114.156H214.825C214.521 114.156 214.302 114.448 214.389 114.74" fill="#17282F"/>
<path d="M225.615 105.896C225.615 105.957 214.667 106.007 201.164 106.007C187.657 106.007 176.711 105.957 176.711 105.896C176.711 105.834 187.657 105.784 201.164 105.784C214.667 105.784 225.615 105.834 225.615 105.896" fill="#17282F"/>
<path d="M108.754 83.9319C106.797 82.7296 106.287 79.8819 107.308 77.8248C108.329 75.7677 110.54 74.4952 112.801 74.0963C116.075 73.5189 119.6 74.6305 121.95 76.9803C123.22 78.2503 124.258 79.9162 125.963 80.4816C127.462 80.9785 129.104 80.4859 130.673 80.6661C132.776 80.9075 134.596 82.373 135.699 84.1797C136.803 85.986 137.277 88.1047 137.557 90.2029C137.813 92.1282 137.995 94.243 139.353 95.6311C140.678 96.9845 142.744 97.2452 144.381 98.1984C147.461 99.9905 148.518 104.528 146.546 107.496C145.917 108.443 145.008 109.316 144.95 110.451C144.897 111.487 145.579 112.399 145.907 113.383C146.751 115.917 144.711 118.973 142.047 119.164C140.702 119.262 139.252 118.758 138.054 119.378C136.865 119.993 136.44 121.444 135.689 122.554C134.213 124.736 131.07 125.598 128.688 124.472C127.691 124.001 126.744 123.213 125.644 123.303C124.548 123.393 123.697 124.343 122.619 124.568C121.209 124.863 119.851 123.841 118.993 122.683C118.135 121.526 117.528 120.156 116.438 119.214C115.01 117.982 113.026 117.701 111.233 117.113C107.277 115.815 103.941 112.738 102.328 108.9C100.715 105.061 100.852 100.526 102.694 96.7919" fill="#17282F"/>
<path d="M129.636 108.98C130.032 108.54 130.604 108.126 131.194 107.922L131.073 107.916C131.184 107.884 131.297 107.87 131.41 107.854C131.842 107.745 132.273 107.761 132.641 107.988L132.63 107.987C133.306 108.225 133.908 108.71 134.242 109.35C134.823 110.462 134.634 111.895 133.888 112.905C133.239 113.782 132.11 114.367 131.046 114.125C130.069 113.903 129.334 113.03 129.044 112.071C128.727 111.021 128.902 109.795 129.636 108.98" fill="#33535F"/>
<path d="M104.41 130.587L101.797 92.8026C101.692 91.1393 102.878 89.6725 104.527 89.4259L121.363 84.3911C126.789 83.5795 130.703 90.1356 131.283 95.5916C131.927 101.653 132.475 109.079 131.95 113.645C130.895 122.826 123.407 124.324 123.407 124.324C123.404 124.293 123.489 133.656 123.592 136.971L125.826 147.22L104.41 130.587" fill="#D2E0F9"/>
<path d="M127.973 103.443C128.022 104.06 127.54 104.609 126.896 104.672C126.255 104.734 125.694 104.286 125.645 103.669C125.597 103.053 126.079 102.503 126.721 102.44C127.364 102.378 127.925 102.827 127.973 103.443Z" fill="#17282F"/>
<path d="M129.783 98.9122C129.645 99.0714 128.731 98.4538 127.473 98.5111C126.215 98.5505 125.319 99.2379 125.176 99.0894C125.106 99.0243 125.242 98.7427 125.631 98.4324C126.014 98.1238 126.678 97.8113 127.462 97.7805C128.246 97.7514 128.918 98.0116 129.309 98.2907C129.709 98.571 129.852 98.8411 129.783 98.9122" fill="#17282F"/>
<path d="M116.642 103.828C116.691 104.444 116.209 104.994 115.566 105.056C114.924 105.118 114.363 104.67 114.315 104.054C114.266 103.437 114.749 102.887 115.391 102.825C116.034 102.762 116.594 103.211 116.642 103.828" fill="#17282F"/>
<path d="M117.424 99.6798C117.285 99.8385 116.369 99.2213 115.112 99.2787C113.854 99.3181 112.959 100.005 112.816 99.857C112.746 99.7915 112.88 99.5103 113.271 99.1999C113.654 98.8913 114.317 98.5789 115.101 98.5481C115.885 98.519 116.557 98.7792 116.949 99.0583C117.348 99.3386 117.492 99.6087 117.424 99.6798" fill="#17282F"/>
<path d="M122.392 108.816C122.384 108.745 123.16 108.576 124.42 108.359C124.74 108.312 125.042 108.235 125.087 108.014C125.152 107.778 125.003 107.438 124.831 107.07C124.495 106.306 124.144 105.504 123.775 104.664C122.306 101.237 121.227 98.4135 121.366 98.3557C121.504 98.2975 122.808 101.028 124.277 104.456C124.632 105.301 124.971 106.107 125.294 106.878C125.431 107.238 125.658 107.643 125.515 108.132C125.439 108.376 125.21 108.56 125.007 108.625C124.803 108.697 124.623 108.708 124.464 108.724C123.191 108.847 122.4 108.887 122.392 108.816" fill="#17282F"/>
<path d="M123.355 123.707C123.355 123.707 117.785 124.331 111.55 120.939C111.55 120.939 114.29 127.686 123.381 126.44L123.355 123.707" fill="white"/>
<path d="M122.335 111.816C121.688 110.982 120.671 110.497 119.727 110.574C119.072 110.627 118.443 110.958 118.11 111.546C117.777 112.134 117.793 112.988 118.228 113.579C118.717 114.244 119.598 114.428 120.302 114.225C121.005 114.022 121.571 113.511 122.105 113C122.253 112.858 122.404 112.711 122.483 112.512C122.562 112.313 122.554 112.048 122.406 111.876" fill="white"/>
<path d="M118.726 109.846C118.931 109.826 118.992 111.191 120.203 112.11C121.412 113.033 122.862 112.817 122.88 113.008C122.903 113.092 122.568 113.287 121.954 113.33C121.352 113.377 120.463 113.221 119.722 112.658C118.983 112.095 118.642 111.315 118.572 110.756C118.495 110.187 118.633 109.842 118.726 109.846" fill="#17282F"/>
<path d="M117.756 94.4748C117.647 94.8223 116.384 94.7145 114.915 94.9559C113.441 95.1678 112.269 95.6514 112.06 95.3527C111.966 95.2097 112.16 94.8788 112.627 94.527C113.09 94.1756 113.838 93.8285 114.72 93.6915C115.602 93.5567 116.42 93.6624 116.967 93.858C117.519 94.0532 117.803 94.31 117.756 94.4748" fill="#17282F"/>
<path d="M129.154 94.6008C128.945 94.8961 128.065 94.6367 127.022 94.6675C125.978 94.662 125.105 94.9423 124.889 94.6521C124.793 94.5109 124.92 94.2185 125.294 93.9313C125.663 93.6454 126.289 93.3976 127.007 93.3886C127.724 93.3805 128.355 93.6129 128.731 93.8898C129.112 94.1676 129.245 94.457 129.154 94.6008" fill="#17282F"/>
<path d="M137.352 92.9688C136.908 91.6081 136.106 90.315 134.895 89.5514C134.232 89.1328 133.465 88.8829 132.847 88.3992C131.513 87.3544 131.181 85.5066 130.345 84.0325C129.268 82.1325 127.221 80.8171 125.045 80.6271C123.234 80.4683 121.38 81.038 119.611 80.6198C118.304 80.3104 117.154 79.4813 115.831 79.2501C113.253 78.799 110.891 80.6785 109.055 82.5417C109.075 84.3813 110.559 85.5901 111.987 86.75C113.414 87.9104 115.368 88.3953 117.172 88.0379C118.573 87.7606 120.101 87.0287 121.327 87.7589C122.617 88.5267 122.698 90.4529 123.846 91.4202C125.486 92.8027 128.043 91.4454 130.108 92.0254C131.703 92.4731 132.718 93.9768 133.792 95.2382C134.865 96.5 136.463 97.6912 138.044 97.1964C137.922 95.7702 137.797 94.3291 137.352 92.9688" fill="#17282F"/>
<path d="M117.942 85.4753C116.785 85.1624 114.417 84.4511 113.784 83.4611C112.411 81.3102 110.023 79.8631 107.607 80.0304C105.192 80.1982 102.899 82.141 102.442 84.701C99.5173 84.7657 96.69 86.6447 95.3266 89.4299C95.1563 89.7783 95.0095 90.1391 94.8863 90.5085C93.9984 92.1251 93.853 94.1381 94.5388 95.8528C94.9528 96.8874 95.6487 98.0353 95.1277 99.0202C94.5977 100.023 93.2211 100.074 92.1544 100.459C90.2984 101.13 89.1206 103.291 89.564 105.214C89.723 105.904 90.0641 106.59 89.93 107.285C89.7906 108.009 89.1802 108.528 88.7143 109.098C87.5561 110.517 87.2216 112.562 87.8673 114.275C88.5129 115.989 90.1145 117.305 91.9203 117.605C92.7421 117.742 93.6301 117.695 94.346 118.121C95.1668 118.61 95.5371 119.583 96.1222 120.339C97.2442 121.786 99.3252 122.405 101.056 121.804C101.407 121.683 101.731 121.503 102.036 121.294C102.596 122.047 103.464 122.55 104.938 122.529L104.318 103.297C104.507 103.7 104.864 104.06 105.497 104.194C108.595 104.847 108.953 98.4783 108.239 96.7636C109.341 95.7556 110.456 94.7335 111.29 93.461C112.123 92.1889 112.823 88.7425 112.619 87.1986C113.733 87.2474 118.45 85.6127 117.942 85.4753" fill="#17282F"/>
<path d="M105.191 104.849C105.065 102.895 102.666 102.512 100.986 103.517C100.063 104.068 99.3676 105.16 99.4833 107.234C99.7923 112.767 105.283 111.315 105.284 111.156C105.284 111.057 105.339 107.137 105.191 104.849Z" fill="#D2E0F9"/>
<path d="M103.477 109.154C103.451 109.138 103.384 109.228 103.225 109.311C103.071 109.393 102.8 109.458 102.506 109.366C101.909 109.184 101.365 108.284 101.283 107.288C101.241 106.786 101.319 106.3 101.476 105.894C101.622 105.479 101.868 105.182 102.159 105.113C102.448 105.03 102.666 105.194 102.743 105.346C102.825 105.496 102.797 105.609 102.826 105.617C102.842 105.63 102.94 105.517 102.882 105.291C102.854 105.183 102.781 105.056 102.646 104.957C102.507 104.856 102.309 104.812 102.105 104.846C101.68 104.899 101.318 105.313 101.146 105.759C100.951 106.21 100.85 106.756 100.898 107.32C100.996 108.433 101.624 109.444 102.437 109.631C102.832 109.71 103.15 109.575 103.31 109.435C103.474 109.289 103.496 109.164 103.477 109.154" fill="white"/>
<path d="M110.299 84.0922C110.34 84.1504 109.743 84.2587 109.208 85.033C108.671 85.7948 108.486 87.2437 108.857 88.8668L108.889 89.0063L108.753 89.0418C107.389 89.4031 105.896 90.5138 105.232 92.2362C105.076 92.6612 104.972 93.1303 104.966 93.5905C104.97 94.0596 105.062 94.5493 105.16 95.0509C105.257 95.553 105.367 96.0713 105.394 96.6226C105.44 97.1632 105.304 97.7932 104.979 98.2628C104.306 99.32 103.207 99.8521 102.264 100.366C101.293 100.866 100.395 101.375 99.718 102.087C98.3365 103.488 97.737 105.281 97.7183 106.755C97.6867 108.25 98.1244 109.424 98.4977 110.166C98.8766 110.916 99.1906 111.272 99.1595 111.295C99.1492 111.304 99.0672 111.22 98.9194 111.05C98.7791 110.875 98.5747 110.611 98.3638 110.238C97.9415 109.502 97.4461 108.308 97.4422 106.752C97.4257 105.214 98.0216 103.323 99.4603 101.836C100.166 101.078 101.124 100.527 102.084 100.028C103.027 99.5139 104.063 98.9879 104.648 98.0548C105.249 97.2056 104.959 96.1124 104.783 95.1232C104.688 94.619 104.592 94.1114 104.59 93.5892C104.603 93.0601 104.719 92.5701 104.892 92.1074C105.627 90.2592 107.224 89.1172 108.68 88.7619L108.576 88.937C108.223 87.2352 108.461 85.7349 109.076 84.9405C109.373 84.5454 109.702 84.3293 109.932 84.2219C110.169 84.1226 110.294 84.0789 110.299 84.0922" fill="#33535F"/>
<path d="M101.439 111.257C101.836 110.817 102.408 110.403 102.998 110.199L102.877 110.193C102.988 110.161 103.101 110.147 103.213 110.131C103.646 110.022 104.077 110.038 104.445 110.265L104.433 110.265C105.11 110.502 105.711 110.988 106.045 111.627C106.627 112.739 106.438 114.173 105.691 115.182C105.043 116.059 103.914 116.644 102.85 116.402C101.873 116.18 101.138 115.308 100.848 114.348C100.53 113.298 100.705 112.071 101.439 111.257" fill="#33535F"/>
<path d="M181.664 152.991L185.435 151.545C185.435 151.545 186.464 148.256 187.148 147.29C187.833 146.325 191.474 143.368 191.688 143.287C191.901 143.207 194.293 137.842 195.383 138.017C196.473 138.191 197.225 138.957 196.92 140.413C196.615 141.869 194.2 144.772 194.869 145.255C195.538 145.738 196.627 145.912 196.627 145.912C196.627 145.912 196.924 144.24 197.842 143.699C198.76 143.158 199.805 144.056 199.805 144.056L199.833 144.777L200.74 143.948C200.74 143.948 201.693 140.589 203.138 140.605C203.138 140.605 203.703 139.357 204.564 138.689C205.22 138.18 206.186 138.471 206.48 139.249L203.886 146.859L196.752 154.718C196.752 154.718 193.407 156.003 192.556 156.397C191.705 156.791 187.837 159.468 186.125 160.04C184.415 160.612 182.426 161.483 182.426 161.483L181.664 152.991" fill="#D2E0F9"/>
<path d="M191.67 150.648C191.67 150.602 191.158 150.529 190.315 150.51C189.487 150.504 188.254 150.552 187.086 151.219C186.506 151.549 186.055 152.03 185.748 152.508C185.437 152.989 185.248 153.464 185.11 153.862C184.843 154.664 184.757 155.175 184.799 155.189C184.853 155.206 185.029 154.716 185.351 153.956C185.675 153.213 186.196 152.144 187.27 151.536C188.338 150.922 189.506 150.826 190.322 150.769C191.149 150.721 191.669 150.703 191.67 150.648" fill="white"/>
<path d="M194.964 145.447C195.02 145.367 194.631 145.014 194.025 144.834C193.419 144.651 192.9 144.732 192.903 144.83C192.902 144.934 193.371 145.017 193.92 145.185C194.47 145.347 194.908 145.535 194.964 145.447" fill="white"/>
<path d="M203.048 146.871C203 146.862 203.066 146.246 203.214 145.22C203.363 144.194 203.595 142.758 203.88 141.11L203.987 141.324C203.736 141.209 203.431 141.028 203.207 140.956C202.962 140.881 202.694 140.923 202.446 141.054C202.04 141.265 201.765 141.69 201.564 142.119C201.37 142.555 201.2 143.012 201.097 143.435C200.891 144.315 200.753 145.133 200.627 145.812C200.381 147.176 200.223 148.02 200.165 148.012C200.109 148.005 200.165 147.146 200.337 145.768C200.428 145.078 200.534 144.26 200.725 143.349C200.83 142.879 200.99 142.427 201.196 141.95C201.41 141.487 201.711 140.976 202.256 140.686C202.57 140.515 202.971 140.452 203.321 140.562C203.681 140.688 203.89 140.836 204.168 140.966L204.304 141.029L204.276 141.181C203.968 142.825 203.685 144.252 203.467 145.266C203.249 146.279 203.095 146.88 203.048 146.871" fill="white"/>
<path d="M193.677 153.366C193.66 153.362 193.671 153.25 193.71 153.039C193.759 152.831 193.848 152.528 194.017 152.165C194.348 151.436 194.961 150.465 195.889 149.437L195.848 149.506C196.342 148.044 195.893 145.929 197.217 144.04C197.551 143.649 198.084 143.396 198.591 143.429C199.099 143.452 199.537 143.633 199.923 143.895L200.018 143.96L200.004 144.078C199.738 146.216 199.493 148.063 199.303 149.372C199.258 150.03 199.002 150.559 198.823 150.863C198.637 151.179 198.504 151.329 198.485 151.316C198.464 151.302 198.558 151.13 198.702 150.801C198.843 150.465 199.039 150.005 199.053 149.33C199.174 148.012 199.367 146.165 199.607 144.035L199.688 144.217C199.378 144.01 198.972 143.849 198.58 143.839C198.181 143.82 197.804 143.999 197.525 144.316C197.204 144.662 197.047 145.128 196.909 145.595C196.777 146.063 196.684 146.534 196.612 146.993C196.532 147.458 196.511 147.886 196.456 148.346C196.394 148.794 196.3 149.209 196.178 149.607L196.166 149.646L196.137 149.676C195.213 150.645 194.565 151.574 194.194 152.254C193.811 152.934 193.725 153.377 193.677 153.366" fill="white"/>
<path d="M101.979 129.662C102.207 129.334 103.72 126.411 103.72 126.411L112.305 133.811C112.305 133.811 120.72 140.859 120.72 140.403L122.063 133.623L123.717 127.455L126.805 132.12C126.805 132.12 136.505 151.139 136.505 151.367C136.505 151.595 142.509 171.279 142.509 171.279L141.218 179.259L141.066 207.531L122.978 206.77L119.405 201.07L113.25 164.819L101.979 129.662" fill="white"/>
<path d="M123.936 196.471C123.33 187.186 123.584 169.669 120.029 160.529C116.476 151.39 102.207 128.936 102.207 128.936L98.705 134.381L89.522 137.828L101.98 188.327C101.98 188.327 97.1818 199.625 94.8969 206.225C94.2142 208.198 93.2926 211.547 92.2829 214.888H123.809C124.088 207.544 124.223 200.857 123.936 196.471" fill="#70A2FF"/>
<path d="M184.304 150.212L160.002 163.722L143.16 139.689C143.115 139.628 143.067 139.563 143.015 139.495C141.099 136.958 139.216 134.166 136.115 133.469L135.645 133.363L136.546 162.13C136.546 162.13 148.521 175.33 155.235 180.788C157.234 182.414 162.302 181.398 164.716 180.066C174.388 174.728 190.908 161.042 190.908 161.042L184.304 150.212" fill="#70A2FF"/>
<path d="M143.643 188.544C143.643 188.544 145.413 174.812 145.994 171.364C149.033 153.316 135.645 133.363 135.645 133.363L129.524 132.35L124.244 127.99L126.577 134.505C126.577 134.505 134.245 155.96 135.769 162.814C137.292 169.669 138.054 190.739 138.291 190.232C138.431 189.933 139.353 202.953 140.512 214.888H153.504L143.643 188.544Z" fill="#70A2FF"/>
<path d="M142.509 173.255C142.499 173.253 142.501 173.099 142.513 172.807C142.531 172.488 142.554 172.064 142.583 171.533C142.6 171.254 142.619 170.947 142.64 170.613C142.641 170.274 142.641 169.908 142.642 169.517C142.644 168.73 142.661 167.835 142.584 166.847C142.403 162.899 141.554 157.446 139.578 151.732C138.839 149.583 138.027 147.536 137.14 145.732L137.137 145.725L137.134 145.72C136.266 143.672 135.243 141.852 134.32 140.236C133.391 138.62 132.534 137.214 131.816 136.05C131.104 134.91 130.532 133.994 130.12 133.335C129.934 133.037 129.784 132.796 129.668 132.609C129.567 132.443 129.518 132.355 129.525 132.35C129.531 132.346 129.595 132.425 129.709 132.582C129.835 132.763 129.997 132.995 130.199 133.284C130.621 133.899 131.226 134.804 131.966 135.956C132.705 137.108 133.582 138.504 134.529 140.114C135.469 141.727 136.507 143.54 137.396 145.613L137.391 145.602C138.298 147.426 139.115 149.474 139.858 151.636C141.844 157.378 142.665 162.87 142.794 166.838C142.857 167.831 142.825 168.73 142.808 169.52C142.798 169.912 142.789 170.279 142.781 170.619C142.751 170.954 142.723 171.261 142.698 171.54C142.646 172.071 142.604 172.495 142.573 172.813C142.541 173.104 142.519 173.255 142.509 173.255" fill="#17282F"/>
<path d="M120.563 140.506C120.556 140.518 120.437 140.466 120.221 140.357C119.966 140.222 119.66 140.061 119.294 139.867C118.452 139.401 117.339 138.785 116.026 138.059L116.218 137.962C116.058 139.431 115.788 141.147 115.518 142.976C115.409 143.72 115.307 144.446 115.222 145.14L115.19 145.409L114.985 145.234C113.237 143.747 111.717 142.438 110.64 141.494C110.136 141.046 109.717 140.673 109.383 140.376C109.093 140.109 108.94 139.958 108.951 139.944C108.963 139.931 109.138 140.056 109.448 140.298C109.797 140.578 110.235 140.929 110.76 141.351C111.87 142.256 113.414 143.537 115.172 145.013L114.935 145.107C115.015 144.407 115.115 143.679 115.225 142.933C115.496 141.101 115.779 139.39 115.962 137.932L115.987 137.737L116.154 137.836C117.446 138.6 118.54 139.246 119.369 139.736C119.721 139.954 120.016 140.136 120.26 140.288C120.464 140.419 120.569 140.495 120.563 140.506Z" fill="#17282F"/>
<path d="M125.556 132.12C125.576 132.121 125.585 132.396 125.582 132.894C125.572 133.449 125.56 134.155 125.545 135C125.5 136.778 125.417 139.233 125.307 141.943C125.305 142.01 125.302 142.076 125.3 142.141L125.28 142.615L125.027 142.215C123.796 140.274 122.67 138.501 121.778 137.093L121.981 137.069C121.623 138.055 121.323 138.878 121.091 139.515C120.874 140.093 120.742 140.411 120.72 140.403C120.698 140.396 120.789 140.064 120.971 139.474C121.177 138.829 121.445 137.994 121.766 136.995L121.838 136.769L121.969 136.971C122.878 138.368 124.023 140.128 125.276 142.055L125.004 142.129C125.006 142.064 125.009 141.998 125.011 141.931C125.121 139.221 125.236 136.767 125.335 134.991C125.388 134.149 125.432 133.443 125.467 132.889C125.505 132.393 125.536 132.119 125.556 132.12" fill="#17282F"/>
<path d="M89.5215 137.828C88.7711 138.294 88.0602 138.84 87.3892 139.468C85.6791 141.067 84.4489 143.108 83.6754 145.318C82.8087 147.794 81.9491 150.841 81.4507 152.76L79.127 188.008C78.9205 191.139 79.4271 194.275 80.6085 197.182L87.8062 214.888H103.325L94.9482 191.198L97.817 165.064L89.5215 137.828Z" fill="#70A2FF"/>
<path d="M99.082 133.795L102.496 144.033H106.132L103.772 145.535L122.435 181.204" fill="#70A2FF"/>
<path d="M122.435 181.204C122.431 181.206 122.403 181.164 122.353 181.079C122.296 180.979 122.225 180.854 122.138 180.7C121.944 180.343 121.676 179.852 121.337 179.229C120.641 177.924 119.654 176.073 118.439 173.794C116.008 169.172 112.668 162.822 108.979 155.808C107.08 152.169 105.274 148.709 103.651 145.599L103.593 145.487L103.699 145.42C104.516 144.903 105.303 144.404 106.063 143.924L106.132 144.162C104.846 144.157 103.632 144.153 102.496 144.149L102.411 144.149L102.385 144.07C101.365 140.942 100.53 138.383 99.942 136.581C99.6647 135.707 99.4458 135.017 99.2888 134.523C99.2221 134.301 99.1686 134.123 99.1265 133.983C99.0917 133.86 99.0766 133.797 99.0822 133.794C99.0877 133.793 99.1138 133.853 99.1594 133.972C99.2097 134.109 99.2738 134.283 99.3535 134.501C99.5249 134.991 99.7637 135.674 100.066 136.54C100.677 138.334 101.545 140.882 102.606 143.996L102.496 143.917C103.632 143.913 104.846 143.908 106.132 143.904L106.577 143.902L106.202 144.142C105.445 144.626 104.66 145.129 103.846 145.65L103.893 145.472C105.523 148.578 107.336 152.034 109.243 155.67C112.903 162.699 116.215 169.064 118.626 173.696C119.806 175.993 120.764 177.86 121.44 179.175C121.758 179.809 122.009 180.309 122.191 180.673C122.268 180.832 122.33 180.961 122.38 181.066C122.421 181.155 122.44 181.202 122.435 181.204" fill="#17282F"/>
<path d="M92.1973 142.818C96.7449 148.028 98.6671 155.422 97.2332 162.188Z" fill="#70A2FF"/>
<path d="M97.2328 162.188C97.1727 162.177 97.4283 161.04 97.5353 159.176C97.5952 158.245 97.5821 157.132 97.4875 155.904C97.3726 154.677 97.1645 153.336 96.8137 151.958C96.4485 150.583 95.9772 149.31 95.4801 148.183C94.9643 147.064 94.4338 146.085 93.928 145.301C92.9265 143.725 92.1497 142.857 92.1969 142.818C92.2124 142.804 92.411 143.016 92.7585 143.411C92.935 143.607 93.1439 143.852 93.3636 144.154C93.5861 144.454 93.8558 144.786 94.1049 145.186C94.6383 145.963 95.1944 146.942 95.7301 148.068C96.2472 149.203 96.7328 150.49 97.1024 151.883C97.4577 153.279 97.6606 154.639 97.7617 155.882C97.8423 157.127 97.8333 158.252 97.7458 159.19C97.7231 159.661 97.6492 160.082 97.601 160.453C97.5565 160.824 97.4935 161.14 97.4345 161.397C97.3236 161.911 97.2529 162.192 97.2328 162.188" fill="#17282F"/>
<path d="M103.325 214.888C103.321 214.889 103.303 214.85 103.271 214.77C103.236 214.679 103.191 214.563 103.135 214.416C103.014 214.09 102.845 213.632 102.629 213.049C102.194 211.842 101.572 210.121 100.805 207.996C99.2796 203.706 97.1764 197.794 94.8435 191.235L94.835 191.211L94.8378 191.186C94.8577 191.004 94.8794 190.807 94.9012 190.609C95.6878 183.558 96.3999 177.176 96.9174 172.54C97.1847 170.24 97.4018 168.375 97.5538 167.067C97.6323 166.434 97.694 165.935 97.738 165.58C97.7603 165.421 97.7778 165.294 97.7915 165.194C97.8049 165.108 97.8136 165.063 97.8174 165.064C97.8211 165.064 97.8201 165.109 97.8142 165.197C97.8061 165.297 97.7957 165.425 97.7826 165.585C97.7485 165.941 97.7009 166.441 97.64 167.076C97.5048 168.386 97.3118 170.255 97.074 172.557C96.5733 177.196 95.8841 183.58 95.1227 190.633C95.101 190.83 95.0794 191.028 95.0593 191.21L95.0536 191.161C97.3618 197.729 99.4426 203.649 100.952 207.944C101.691 210.078 102.29 211.808 102.71 213.02C102.909 213.609 103.065 214.072 103.176 214.402C103.224 214.551 103.263 214.67 103.292 214.763C103.317 214.845 103.328 214.887 103.325 214.888" fill="#17282F"/>
<path d="M139.725 142.516C139.725 142.516 140.885 144.243 142.244 147.308C142.606 148.064 142.905 148.933 143.272 149.847C143.58 150.782 143.95 151.769 144.23 152.842C144.551 153.903 144.798 155.04 145.066 156.215C145.174 156.808 145.285 157.412 145.397 158.024C145.511 158.636 145.575 159.265 145.668 159.897C146.318 164.975 146.148 169.631 145.841 172.958C145.748 173.787 145.664 174.539 145.589 175.203C145.519 175.863 145.413 176.427 145.348 176.89C145.276 177.337 145.219 177.691 145.177 177.953C145.136 178.196 145.11 178.323 145.103 178.322C145.095 178.321 145.106 178.191 145.133 177.947C145.165 177.683 145.208 177.327 145.262 176.878C145.314 176.414 145.407 175.849 145.466 175.188C145.53 174.524 145.604 173.773 145.684 172.944C145.95 169.62 146.094 164.982 145.447 159.925C145.354 159.296 145.291 158.67 145.178 158.06C145.067 157.45 144.958 156.85 144.851 156.259C144.588 155.088 144.346 153.955 144.032 152.898C143.76 151.829 143.397 150.843 143.098 149.91C142.74 148.997 142.45 148.128 142.099 147.37C141.934 146.988 141.776 146.623 141.627 146.277C141.474 145.934 141.309 145.62 141.166 145.321C140.876 144.725 140.63 144.208 140.398 143.803C140.184 143.405 140.015 143.089 139.889 142.855C139.775 142.636 139.718 142.52 139.725 142.516" fill="#17282F"/>
<path d="M160.239 171.222C160.216 171.233 160.012 170.843 159.792 170.168C159.571 169.495 159.358 168.528 159.309 167.444C159.262 166.358 159.389 165.377 159.55 164.687C159.709 163.995 159.877 163.589 159.901 163.597C159.936 163.607 159.822 164.028 159.704 164.717C159.586 165.406 159.486 166.37 159.531 167.434C159.58 168.498 159.764 169.448 159.943 170.124C160.121 170.8 160.272 171.209 160.239 171.222" fill="#17282F"/>
</g>
<defs>
<clipPath id="clip0_621_2400">
<rect width="510" height="176" fill="white"/>
</clipPath>
</defs>
</svg>
