<svg width="96" height="96" viewBox="0 0 96 96" fill="none" xmlns="http://www.w3.org/2000/svg">
<rect x="8" y="8" width="80" height="80" rx="40" fill="#3478F6"/>
<path d="M45 49.3333C45 47.6765 46.3431 46.3333 48 46.3333C49.6569 46.3333 51 47.6765 51 49.3333C51 50.9902 49.6569 52.3333 48 52.3333C46.3431 52.3333 45 50.9902 45 49.3333Z" fill="white"/>
<path fill-rule="evenodd" clip-rule="evenodd" d="M41.9649 42.1899C41.9649 39.8759 43.8408 38 46.1548 38H49.8451C52.1592 38 54.0351 39.8759 54.0351 42.1899C54.0351 42.2097 54.0502 42.2262 54.07 42.2278L57.0428 42.4692C58.3744 42.5774 59.4695 43.5621 59.7181 44.8748C60.3523 48.2245 60.3996 51.659 59.8579 55.0249L59.7282 55.8305C59.4838 57.3491 58.234 58.5044 56.7009 58.6289L54.1111 58.8392C50.0437 59.1695 45.9562 59.1695 41.8888 58.8392L39.299 58.6289C37.766 58.5044 36.5162 57.3491 36.2717 55.8305L36.1421 55.0249C35.6003 51.659 35.6476 48.2245 36.2818 44.8748C36.5304 43.5621 37.6255 42.5774 38.9572 42.4692L41.93 42.2278C41.9497 42.2262 41.9649 42.2097 41.9649 42.1899ZM48 44.3333C45.2386 44.3333 43 46.5719 43 49.3333C43 52.0948 45.2386 54.3333 48 54.3333C50.7614 54.3333 53 52.0948 53 49.3333C53 46.5719 50.7614 44.3333 48 44.3333Z" fill="white"/>
<rect x="8" y="8" width="80" height="80" rx="40" stroke="white" stroke-width="16"/>
</svg>
