<svg width="80" height="80" viewBox="0 0 80 80" fill="none" xmlns="http://www.w3.org/2000/svg">
<rect width="80" height="80" rx="32" fill="white"/>
<rect x="16" y="16" width="48" height="48" rx="16" fill="#3478F6"/>
<path fill-rule="evenodd" clip-rule="evenodd" d="M37.7296 31.9927C38.8216 30.395 41.1784 30.395 42.2703 31.9927L42.7023 32.6246C45.4083 36.5838 47.7333 40.7905 49.646 45.1881L49.7362 45.3956C50.4103 46.9453 49.3919 48.705 47.7124 48.8927C42.5867 49.4656 37.4132 49.4656 32.2876 48.8927C30.6081 48.705 29.5897 46.9453 30.2637 45.3956L30.354 45.1881C32.2667 40.7905 34.5916 36.5838 37.2977 32.6246L37.7296 31.9927ZM41 37C41 37.5523 40.5523 38 40 38C39.4477 38 39 37.5523 39 37C39 36.4478 39.4477 36 40 36C40.5523 36 41 36.4478 41 37ZM40 39.75C40.4142 39.75 40.75 40.0858 40.75 40.5V45.5C40.75 45.9143 40.4142 46.25 40 46.25C39.5858 46.25 39.25 45.9143 39.25 45.5V40.5C39.25 40.0858 39.5858 39.75 40 39.75Z" fill="white"/>
</svg>
