<svg width="1060" height="289" viewBox="0 0 1060 289" fill="none" xmlns="http://www.w3.org/2000/svg">
<g clip-path="url(#clip0_596_1907)">
<path d="M0 64C0 33.8301 0 18.7452 9.37258 9.37258C18.7452 0 33.8301 0 64 0H996C1026.17 0 1041.25 0 1050.63 9.37258C1060 18.7452 1060 33.8301 1060 64V356H0V64Z" fill="white"/>
<g clip-path="url(#clip1_596_1907)">
<path d="M32 128C32 112.915 32 105.373 36.6863 100.686C41.3726 96 48.9151 96 64 96H208C223.085 96 230.627 96 235.314 100.686C240 105.373 240 112.915 240 128V356H32V128Z" fill="#F5F8FF"/>
<rect x="48" y="112" width="80" height="80" rx="16" fill="white"/>
<path d="M86.3333 138.25C82.8815 138.25 80.0833 141.048 80.0833 144.5C80.0833 147.952 82.8815 150.75 86.3333 150.75C89.7851 150.75 92.5833 147.952 92.5833 144.5C92.5833 141.048 89.7851 138.25 86.3333 138.25Z" fill="#3478F6"/>
<path d="M79.6667 154.083C76.2149 154.083 73.4167 156.882 73.4167 160.333V162.314C73.4167 163.569 74.3265 164.64 75.5654 164.842C82.6968 166.006 89.9698 166.006 97.1012 164.842C98.3402 164.64 99.25 163.569 99.25 162.314V160.333C99.25 156.882 96.4518 154.083 93 154.083H92.4319C92.1244 154.083 91.8188 154.132 91.5265 154.227L90.084 154.698C87.6469 155.494 85.0198 155.494 82.5826 154.698L81.1401 154.227C80.8478 154.132 80.5423 154.083 80.2348 154.083H79.6667Z" fill="#3478F6"/>
<path d="M100.5 142.417C101.19 142.417 101.75 142.976 101.75 143.667V146.583H104.667C105.357 146.583 105.917 147.143 105.917 147.833C105.917 148.524 105.357 149.083 104.667 149.083H101.75V152C101.75 152.69 101.19 153.25 100.5 153.25C99.8096 153.25 99.25 152.69 99.25 152V149.083H96.3333C95.643 149.083 95.0833 148.524 95.0833 147.833C95.0833 147.143 95.643 146.583 96.3333 146.583H99.25V143.667C99.25 142.976 99.8096 142.417 100.5 142.417Z" fill="#3478F6"/>
<rect x="144" y="112" width="80" height="80" rx="16" fill="white"/>
<path d="M176.149 140.179C181.373 139.725 186.627 139.725 191.851 140.179L194.368 140.398C196.044 140.544 197.479 141.543 198.223 142.973C198.318 143.156 198.247 143.377 198.071 143.486L187.628 149.951C185.388 151.337 182.564 151.366 180.296 150.026L169.783 143.814C169.613 143.714 169.535 143.507 169.612 143.325C170.292 141.709 171.822 140.556 173.632 140.398L176.149 140.179Z" fill="#3478F6"/>
<path d="M169.603 146.612C169.343 146.458 169.012 146.623 168.981 146.924C168.559 151.116 168.661 155.349 169.288 159.522C169.619 161.723 171.415 163.409 173.632 163.602L176.149 163.821C181.373 164.275 186.627 164.275 191.851 163.821L194.368 163.602C196.585 163.409 198.381 161.723 198.712 159.522C199.357 155.227 199.447 150.87 198.98 146.557C198.948 146.255 198.61 146.092 198.352 146.253L188.944 152.076C185.914 153.952 182.093 153.992 179.024 152.179L169.603 146.612Z" fill="#3478F6"/>
<rect x="48" y="208" width="80" height="80" rx="16" fill="white"/>
<path d="M76.3336 244.434C79.5276 251.391 85.211 256.921 92.2769 259.92L93.4095 260.424C96.0009 261.579 99.0472 260.702 100.628 258.346L102.108 256.14C102.589 255.422 102.443 254.456 101.77 253.914L96.7506 249.864C96.0133 249.27 94.9291 249.408 94.365 250.169L92.8121 252.265C88.8275 250.299 85.5924 247.064 83.6268 243.079L85.7222 241.526C86.4833 240.962 86.6219 239.878 86.0271 239.141L81.9773 234.121C81.435 233.449 80.4692 233.302 79.7519 233.783L77.5305 235.273C75.1599 236.862 74.2876 239.934 75.4689 242.532L76.3323 244.431L76.3336 244.434Z" fill="#3478F6"/>
<rect x="144" y="208" width="80" height="80" rx="16" fill="white"/>
<path d="M176.917 234.667C176.917 233.976 176.357 233.417 175.667 233.417C174.976 233.417 174.417 233.976 174.417 234.667V237.694C171.928 238.046 169.962 240.014 169.629 242.525L169.485 243.613C169.461 243.798 169.437 243.982 169.415 244.167C169.356 244.657 169.742 245.083 170.235 245.083H197.764C198.258 245.083 198.644 244.657 198.585 244.167C198.562 243.982 198.539 243.798 198.515 243.613L198.37 242.525C198.038 240.014 196.072 238.046 193.583 237.694V234.667C193.583 233.976 193.024 233.417 192.333 233.417C191.643 233.417 191.083 233.976 191.083 234.667V237.446C186.37 237.026 181.63 237.026 176.917 237.446V234.667Z" fill="#3478F6"/>
<path d="M198.908 248.376C198.893 247.932 198.526 247.583 198.082 247.583H169.918C169.474 247.583 169.107 247.932 169.092 248.376C168.993 251.389 169.176 254.408 169.641 257.393C169.993 259.653 171.829 261.389 174.105 261.614L176.093 261.81C181.352 262.328 186.648 262.328 191.907 261.81L193.895 261.614C196.171 261.389 198.007 259.653 198.359 257.393C198.824 254.408 199.007 251.389 198.908 248.376Z" fill="#3478F6"/>
</g>
<rect width="1060" height="48" transform="matrix(1 0 0 -1 0 48)" fill="#F5F8FF"/>
<rect x="32" y="16" width="16" height="16" rx="8" fill="#3478F6"/>
<rect x="56" y="16" width="16" height="16" rx="8" fill="#3478F6"/>
<rect x="80" y="16" width="16" height="16" rx="8" fill="#3478F6"/>
<rect x="788" y="96" width="240" height="56" rx="16" fill="#F5F8FF"/>
<path fill-rule="evenodd" clip-rule="evenodd" d="M820.385 127.446C817.735 129.568 813.855 129.401 811.399 126.945C808.763 124.309 808.763 120.035 811.399 117.399C814.035 114.763 818.308 114.763 820.945 117.399C823.401 119.855 823.568 123.735 821.446 126.385L826.601 131.541C826.894 131.834 826.894 132.309 826.601 132.601C826.308 132.894 825.834 132.894 825.541 132.601L820.385 127.446ZM812.459 125.884C810.409 123.834 810.409 120.51 812.459 118.459C814.509 116.409 817.834 116.409 819.884 118.459C821.933 120.508 821.934 123.829 819.888 125.879C819.887 125.881 819.885 125.882 819.884 125.884C819.882 125.885 819.881 125.887 819.879 125.888C817.829 127.934 814.508 127.933 812.459 125.884Z" fill="#3478F6"/>
<path d="M843.352 128V118.2H851.346V128H849.624V119.754H845.074V128H843.352ZM857.183 128.168C856.063 128.168 855.13 127.795 854.383 127.048C853.637 126.301 853.263 125.391 853.263 124.318C853.263 123.245 853.641 122.335 854.397 121.588C855.153 120.832 856.091 120.454 857.211 120.454C858.331 120.454 859.265 120.827 860.011 121.574C860.767 122.321 861.145 123.235 861.145 124.318C861.145 125.382 860.767 126.292 860.011 127.048C859.255 127.795 858.313 128.168 857.183 128.168ZM857.211 126.698C857.883 126.698 858.425 126.469 858.835 126.012C859.246 125.555 859.451 124.99 859.451 124.318C859.451 123.655 859.237 123.095 858.807 122.638C858.378 122.171 857.837 121.938 857.183 121.938C856.521 121.938 855.984 122.167 855.573 122.624C855.163 123.081 854.957 123.646 854.957 124.318C854.957 124.971 855.172 125.531 855.601 125.998C856.031 126.465 856.567 126.698 857.211 126.698ZM862.871 128V120.608H864.523V125.564C866.072 123.361 867.239 121.709 868.023 120.608H869.619V128H867.981V123.072L864.467 128H862.871ZM875.16 128.168C874.068 128.168 873.158 127.799 872.43 127.062C871.702 126.315 871.338 125.41 871.338 124.346V124.318C871.338 123.254 871.702 122.344 872.43 121.588C873.167 120.832 874.082 120.454 875.174 120.454C876.368 120.454 877.353 120.879 878.128 121.728L877.078 122.862C876.49 122.246 875.85 121.938 875.16 121.938C874.553 121.938 874.044 122.167 873.634 122.624C873.232 123.081 873.032 123.637 873.032 124.29V124.318C873.032 124.99 873.237 125.555 873.648 126.012C874.068 126.469 874.6 126.698 875.244 126.698C875.925 126.698 876.564 126.39 877.162 125.774L878.184 126.782C877.782 127.23 877.344 127.575 876.868 127.818C876.401 128.051 875.832 128.168 875.16 128.168ZM879.673 128V120.608H881.353V124.15L884.573 120.608H886.561L883.691 123.716L886.799 128H884.797L882.557 124.948L881.353 126.222V128H879.673Z" fill="#3478F6"/>
<path fill-rule="evenodd" clip-rule="evenodd" d="M1002.53 121.22C1002.82 121.513 1002.82 121.987 1002.53 122.28L998.53 126.28C998.237 126.573 997.763 126.573 997.47 126.28L993.47 122.28C993.177 121.987 993.177 121.513 993.47 121.22C993.763 120.927 994.237 120.927 994.53 121.22L998 124.689L1001.47 121.22C1001.76 120.927 1002.24 120.927 1002.53 121.22Z" fill="#3478F6"/>
<rect x="788" y="168" width="240" height="56" rx="16" fill="#F5F8FF"/>
<path fill-rule="evenodd" clip-rule="evenodd" d="M811.306 190.758L811.653 193.88L811.177 193.922C810.076 194.018 809.186 194.857 809.023 195.95C808.673 198.304 808.673 200.696 809.023 203.05C809.186 204.143 810.076 204.982 811.177 205.078L812.311 205.178C813.532 205.285 814.755 205.339 815.979 205.34C816.154 205.34 816.245 205.128 816.133 204.994C815.114 203.778 814.5 202.211 814.5 200.5C814.5 197.121 816.895 194.301 820.08 193.644C820.256 193.608 820.393 193.466 820.413 193.287L820.694 190.758C820.734 190.394 820.734 190.027 820.694 189.663L820.671 189.458C820.43 187.285 818.721 185.565 816.549 185.31C816.184 185.267 815.816 185.267 815.451 185.31C813.279 185.565 811.571 187.285 811.329 189.458L811.306 189.663C811.266 190.027 811.266 190.394 811.306 190.758ZM816.374 186.799C816.125 186.77 815.875 186.77 815.626 186.799C814.148 186.973 812.984 188.144 812.82 189.624L812.797 189.829C812.769 190.083 812.769 190.339 812.797 190.593L813.149 193.757C815.047 193.628 816.953 193.628 818.851 193.757L819.203 190.593C819.231 190.339 819.231 190.083 819.203 189.829L819.18 189.624C819.016 188.144 817.853 186.973 816.374 186.799Z" fill="#3478F6"/>
<path d="M822.25 199C822.25 198.586 821.914 198.25 821.5 198.25C821.086 198.25 820.75 198.586 820.75 199V200.773C820.75 201.013 820.865 201.238 821.059 201.379L822.059 202.107C822.394 202.35 822.863 202.276 823.107 201.941C823.35 201.606 823.276 201.137 822.941 200.894L822.25 200.391V199Z" fill="#3478F6"/>
<path fill-rule="evenodd" clip-rule="evenodd" d="M821.5 206C824.538 206 827 203.538 827 200.5C827 197.463 824.538 195 821.5 195C818.462 195 816 197.463 816 200.5C816 203.538 818.462 206 821.5 206ZM821.5 204.5C823.709 204.5 825.5 202.709 825.5 200.5C825.5 198.291 823.709 196.5 821.5 196.5C819.291 196.5 817.5 198.291 817.5 200.5C817.5 202.709 819.291 204.5 821.5 204.5Z" fill="#3478F6"/>
<path d="M843.664 200V190.2H848.06C849.19 190.2 850.044 190.489 850.622 191.068C851.061 191.507 851.28 192.057 851.28 192.72C851.28 193.691 850.814 194.419 849.88 194.904C851.178 195.343 851.826 196.145 851.826 197.312C851.826 198.171 851.5 198.833 850.846 199.3C850.193 199.767 849.311 200 848.2 200H843.664ZM845.358 194.33H847.71C848.28 194.33 848.728 194.218 849.054 193.994C849.39 193.761 849.558 193.42 849.558 192.972C849.558 192.58 849.409 192.277 849.11 192.062C848.812 191.838 848.387 191.726 847.836 191.726H845.358V194.33ZM845.358 198.474H848.214C848.812 198.474 849.274 198.357 849.6 198.124C849.936 197.891 850.104 197.55 850.104 197.102C850.104 196.225 849.432 195.786 848.088 195.786H845.358V198.474ZM853.572 202.24V192.608H855.266V193.84C855.919 192.916 856.754 192.454 857.772 192.454C858.705 192.454 859.512 192.804 860.194 193.504C860.875 194.195 861.216 195.133 861.216 196.318C861.216 197.485 860.875 198.418 860.194 199.118C859.512 199.809 858.705 200.154 857.772 200.154C856.754 200.154 855.919 199.72 855.266 198.852V202.24H853.572ZM857.38 198.684C857.977 198.684 858.476 198.465 858.878 198.026C859.288 197.587 859.494 197.009 859.494 196.29C859.494 195.59 859.288 195.021 858.878 194.582C858.467 194.143 857.968 193.924 857.38 193.924C856.792 193.924 856.283 194.148 855.854 194.596C855.434 195.044 855.224 195.618 855.224 196.318C855.224 197.009 855.434 197.578 855.854 198.026C856.283 198.465 856.792 198.684 857.38 198.684ZM866.339 200.168C865.256 200.168 864.351 199.809 863.623 199.09C862.904 198.371 862.545 197.443 862.545 196.304C862.545 195.231 862.885 194.321 863.567 193.574C864.248 192.827 865.111 192.454 866.157 192.454C867.277 192.454 868.145 192.837 868.761 193.602C869.386 194.358 869.699 195.301 869.699 196.43C869.699 196.635 869.689 196.794 869.671 196.906H864.239C864.332 197.494 864.57 197.956 864.953 198.292C865.335 198.619 865.807 198.782 866.367 198.782C867.095 198.782 867.762 198.488 868.369 197.9L869.363 198.782C868.597 199.706 867.589 200.168 866.339 200.168ZM864.225 195.786H868.019C867.963 195.217 867.771 194.75 867.445 194.386C867.118 194.022 866.684 193.84 866.143 193.84C865.629 193.84 865.2 194.022 864.855 194.386C864.509 194.741 864.299 195.207 864.225 195.786ZM871.4 200V192.608H873.08L875.39 196.038L877.714 192.608H879.394V200H877.686V195.072L875.362 198.39L873.052 195.1V200H871.4ZM880.845 200L882.889 197.228C882.366 197.069 881.946 196.803 881.629 196.43C881.321 196.047 881.167 195.576 881.167 195.016C881.167 194.288 881.424 193.705 881.937 193.266C882.45 192.827 883.164 192.608 884.079 192.608H887.789V200H886.095V197.508H884.583L882.833 200H880.845ZM884.317 196.234H886.095V193.98H884.303C883.855 193.98 883.5 194.083 883.239 194.288C882.987 194.484 882.861 194.755 882.861 195.1C882.861 195.455 882.992 195.735 883.253 195.94C883.524 196.136 883.878 196.234 884.317 196.234ZM896.629 200.168C895.36 200.168 894.282 199.79 893.395 199.034L894.193 197.914C894.884 198.502 895.658 198.796 896.517 198.796C896.909 198.796 897.24 198.703 897.511 198.516C897.782 198.32 897.917 198.073 897.917 197.774C897.917 197.494 897.786 197.27 897.525 197.102C897.264 196.934 896.895 196.85 896.419 196.85H895.509V195.632H896.419C896.811 195.632 897.124 195.543 897.357 195.366C897.6 195.179 897.721 194.946 897.721 194.666C897.721 194.414 897.604 194.213 897.371 194.064C897.147 193.905 896.858 193.826 896.503 193.826C895.682 193.826 894.982 194.078 894.403 194.582L893.647 193.518C894.459 192.809 895.462 192.454 896.657 192.454C897.469 192.454 898.132 192.641 898.645 193.014C899.158 193.387 899.415 193.863 899.415 194.442C899.415 195.226 899.028 195.786 898.253 196.122C899.149 196.439 899.597 197.037 899.597 197.914C899.597 198.549 899.322 199.085 898.771 199.524C898.22 199.953 897.506 200.168 896.629 200.168ZM907.557 200H905.877V199.09C905.28 199.799 904.482 200.154 903.483 200.154C902.746 200.154 902.12 199.953 901.607 199.552C901.103 199.141 900.851 198.572 900.851 197.844C900.851 197.051 901.126 196.449 901.677 196.038C902.228 195.627 902.951 195.422 903.847 195.422C904.566 195.422 905.247 195.525 905.891 195.73V195.59C905.891 195.077 905.732 194.685 905.415 194.414C905.107 194.143 904.659 194.008 904.071 194.008C903.399 194.008 902.694 194.162 901.957 194.47L901.495 193.112C902.41 192.701 903.348 192.496 904.309 192.496C905.382 192.496 906.19 192.767 906.731 193.308C907.282 193.849 907.557 194.619 907.557 195.618V200ZM905.919 197.326V196.906C905.415 196.71 904.85 196.612 904.225 196.612C903.693 196.612 903.278 196.715 902.979 196.92C902.68 197.125 902.531 197.415 902.531 197.788C902.531 198.124 902.666 198.39 902.937 198.586C903.208 198.782 903.548 198.88 903.959 198.88C904.528 198.88 904.995 198.735 905.359 198.446C905.732 198.157 905.919 197.783 905.919 197.326ZM909.572 200V192.608H911.252V196.15L914.472 192.608H916.46L913.59 195.716L916.698 200H914.696L912.456 196.948L911.252 198.222V200H909.572ZM917.871 202.24V192.608H919.565V193.84C920.218 192.916 921.053 192.454 922.071 192.454C923.004 192.454 923.811 192.804 924.493 193.504C925.174 194.195 925.515 195.133 925.515 196.318C925.515 197.485 925.174 198.418 924.493 199.118C923.811 199.809 923.004 200.154 922.071 200.154C921.053 200.154 920.218 199.72 919.565 198.852V202.24H917.871ZM921.679 198.684C922.276 198.684 922.775 198.465 923.177 198.026C923.587 197.587 923.793 197.009 923.793 196.29C923.793 195.59 923.587 195.021 923.177 194.582C922.766 194.143 922.267 193.924 921.679 193.924C921.091 193.924 920.582 194.148 920.153 194.596C919.733 195.044 919.523 195.618 919.523 196.318C919.523 197.009 919.733 197.578 920.153 198.026C920.582 198.465 921.091 198.684 921.679 198.684ZM927.25 200V192.608H928.944V195.198H930.498C931.375 195.198 932.084 195.394 932.626 195.786C933.167 196.178 933.438 196.761 933.438 197.536C933.438 198.301 933.186 198.903 932.682 199.342C932.178 199.781 931.492 200 930.624 200H927.25ZM928.944 198.628H930.4C930.829 198.628 931.16 198.535 931.394 198.348C931.627 198.161 931.744 197.891 931.744 197.536C931.744 197.209 931.622 196.957 931.38 196.78C931.146 196.603 930.81 196.514 930.372 196.514H928.944V198.628ZM934.558 200V192.608H936.252V200H934.558ZM939.96 200V194.064H937.58V192.608H944.048V194.064H941.668V200H939.96ZM945.392 200V192.608H947.044V197.564C948.593 195.361 949.76 193.709 950.544 192.608H952.14V200H950.502V195.072L946.988 200H945.392ZM953.593 200L955.637 197.228C955.115 197.069 954.695 196.803 954.377 196.43C954.069 196.047 953.915 195.576 953.915 195.016C953.915 194.288 954.172 193.705 954.685 193.266C955.199 192.827 955.913 192.608 956.827 192.608H960.537V200H958.843V197.508H957.331L955.581 200H953.593ZM957.065 196.234H958.843V193.98H957.051C956.603 193.98 956.249 194.083 955.987 194.288C955.735 194.484 955.609 194.755 955.609 195.1C955.609 195.455 955.74 195.735 956.001 195.94C956.272 196.136 956.627 196.234 957.065 196.234Z" fill="#3478F6"/>
<path fill-rule="evenodd" clip-rule="evenodd" d="M1002.53 193.22C1002.82 193.513 1002.82 193.987 1002.53 194.28L998.53 198.28C998.237 198.573 997.763 198.573 997.47 198.28L993.47 194.28C993.177 193.987 993.177 193.513 993.47 193.22C993.763 192.927 994.237 192.927 994.53 193.22L998 196.689L1001.47 193.22C1001.76 192.927 1002.24 192.927 1002.53 193.22Z" fill="#3478F6"/>
<rect x="788" y="240" width="240" height="56" rx="16" fill="#F5F8FF"/>
<path fill-rule="evenodd" clip-rule="evenodd" d="M809.947 261C809.947 260.172 810.619 259.5 811.447 259.5H824.447C825.276 259.5 825.947 260.172 825.947 261V265C825.947 265.828 825.276 266.5 824.447 266.5H811.447C810.619 266.5 809.947 265.828 809.947 265V261ZM812 263C812 262.448 812.448 262 813 262C813.552 262 814 262.448 814 263C814 263.552 813.552 264 813 264C812.448 264 812 263.552 812 263ZM816 262C815.448 262 815 262.448 815 263C815 263.552 815.448 264 816 264C816.552 264 817 263.552 817 263C817 262.448 816.552 262 816 262Z" fill="#3478F6"/>
<path fill-rule="evenodd" clip-rule="evenodd" d="M809.947 269C809.947 268.172 810.619 267.5 811.447 267.5H824.447C825.276 267.5 825.947 268.172 825.947 269V273C825.947 273.828 825.276 274.5 824.447 274.5H818.75V276.25H825C825.414 276.25 825.75 276.586 825.75 277C825.75 277.414 825.414 277.75 825 277.75H811C810.586 277.75 810.25 277.414 810.25 277C810.25 276.586 810.586 276.25 811 276.25H817.25V274.5H811.447C810.619 274.5 809.947 273.828 809.947 273V269ZM812 271C812 270.448 812.448 270 813 270C813.552 270 814 270.448 814 271C814 271.552 813.552 272 813 272C812.448 272 812 271.552 812 271ZM815 271C815 270.448 815.448 270 816 270C816.552 270 817 270.448 817 271C817 271.552 816.552 272 816 272C815.448 272 815 271.552 815 271Z" fill="#3478F6"/>
<path d="M842.504 274.1V270.46H843.456C844.287 268.817 844.702 266.526 844.702 263.586V262.2H851.534V270.46H852.752L852.514 274.1H851.086V272H844.184L844.016 274.1H842.504ZM845.29 270.46H849.812V263.754H846.354V264.874C846.354 267.161 846 269.023 845.29 270.46ZM860.294 272H858.614V271.09C858.017 271.799 857.219 272.154 856.22 272.154C855.483 272.154 854.858 271.953 854.344 271.552C853.84 271.141 853.588 270.572 853.588 269.844C853.588 269.051 853.864 268.449 854.414 268.038C854.965 267.627 855.688 267.422 856.584 267.422C857.303 267.422 857.984 267.525 858.628 267.73V267.59C858.628 267.077 858.47 266.685 858.152 266.414C857.844 266.143 857.396 266.008 856.808 266.008C856.136 266.008 855.432 266.162 854.694 266.47L854.232 265.112C855.147 264.701 856.085 264.496 857.046 264.496C858.12 264.496 858.927 264.767 859.468 265.308C860.019 265.849 860.294 266.619 860.294 267.618V272ZM858.656 269.326V268.906C858.152 268.71 857.588 268.612 856.962 268.612C856.43 268.612 856.015 268.715 855.716 268.92C855.418 269.125 855.268 269.415 855.268 269.788C855.268 270.124 855.404 270.39 855.674 270.586C855.945 270.782 856.286 270.88 856.696 270.88C857.266 270.88 857.732 270.735 858.096 270.446C858.47 270.157 858.656 269.783 858.656 269.326ZM862.309 272V264.608H864.003V267.604H867.265V264.608H868.959V272H867.265V269.018H864.003V272H862.309ZM871.086 272V264.608H872.78V267.604H876.042V264.608H877.736V272H876.042V269.018H872.78V272H871.086ZM879.864 272V264.608H881.558V267.198H883.112C883.989 267.198 884.698 267.394 885.24 267.786C885.781 268.178 886.052 268.761 886.052 269.536C886.052 270.301 885.8 270.903 885.296 271.342C884.792 271.781 884.106 272 883.238 272H879.864ZM881.558 270.628H883.014C883.443 270.628 883.774 270.535 884.008 270.348C884.241 270.161 884.358 269.891 884.358 269.536C884.358 269.209 884.236 268.957 883.994 268.78C883.76 268.603 883.424 268.514 882.986 268.514H881.558V270.628ZM887.172 272V264.608H888.866V272H887.172ZM894.381 272.168C893.298 272.168 892.393 271.809 891.665 271.09C890.946 270.371 890.587 269.443 890.587 268.304C890.587 267.231 890.927 266.321 891.609 265.574C892.29 264.827 893.153 264.454 894.199 264.454C895.319 264.454 896.187 264.837 896.803 265.602C897.428 266.358 897.741 267.301 897.741 268.43C897.741 268.635 897.731 268.794 897.713 268.906H892.281C892.374 269.494 892.612 269.956 892.995 270.292C893.377 270.619 893.849 270.782 894.409 270.782C895.137 270.782 895.804 270.488 896.411 269.9L897.405 270.782C896.639 271.706 895.631 272.168 894.381 272.168ZM892.267 267.786H896.061C896.005 267.217 895.813 266.75 895.487 266.386C895.16 266.022 894.726 265.84 894.185 265.84C893.671 265.84 893.242 266.022 892.897 266.386C892.551 266.741 892.341 267.207 892.267 267.786ZM907.055 272.168C905.963 272.168 905.053 271.799 904.325 271.062C903.597 270.315 903.233 269.41 903.233 268.346V268.318C903.233 267.254 903.597 266.344 904.325 265.588C905.063 264.832 905.977 264.454 907.069 264.454C908.264 264.454 909.249 264.879 910.023 265.728L908.973 266.862C908.385 266.246 907.746 265.938 907.055 265.938C906.449 265.938 905.94 266.167 905.529 266.624C905.128 267.081 904.927 267.637 904.927 268.29V268.318C904.927 268.99 905.133 269.555 905.543 270.012C905.963 270.469 906.495 270.698 907.139 270.698C907.821 270.698 908.46 270.39 909.057 269.774L910.079 270.782C909.678 271.23 909.239 271.575 908.763 271.818C908.297 272.051 907.727 272.168 907.055 272.168ZM914.957 272.168C913.874 272.168 912.969 271.809 912.241 271.09C911.522 270.371 911.163 269.443 911.163 268.304C911.163 267.231 911.504 266.321 912.185 265.574C912.866 264.827 913.73 264.454 914.775 264.454C915.895 264.454 916.763 264.837 917.379 265.602C918.004 266.358 918.317 267.301 918.317 268.43C918.317 268.635 918.308 268.794 918.289 268.906H912.857C912.95 269.494 913.188 269.956 913.571 270.292C913.954 270.619 914.425 270.782 914.985 270.782C915.713 270.782 916.38 270.488 916.987 269.9L917.981 270.782C917.216 271.706 916.208 272.168 914.957 272.168ZM912.843 267.786H916.637C916.581 267.217 916.39 266.75 916.063 266.386C915.736 266.022 915.302 265.84 914.761 265.84C914.248 265.84 913.818 266.022 913.473 266.386C913.128 266.741 912.918 267.207 912.843 267.786ZM920.018 274.24V264.608H921.712V265.84C922.365 264.916 923.201 264.454 924.218 264.454C925.151 264.454 925.959 264.804 926.64 265.504C927.321 266.195 927.662 267.133 927.662 268.318C927.662 269.485 927.321 270.418 926.64 271.118C925.959 271.809 925.151 272.154 924.218 272.154C923.201 272.154 922.365 271.72 921.712 270.852V274.24H920.018ZM923.826 270.684C924.423 270.684 924.923 270.465 925.324 270.026C925.735 269.587 925.94 269.009 925.94 268.29C925.94 267.59 925.735 267.021 925.324 266.582C924.913 266.143 924.414 265.924 923.826 265.924C923.238 265.924 922.729 266.148 922.3 266.596C921.88 267.044 921.67 267.618 921.67 268.318C921.67 269.009 921.88 269.578 922.3 270.026C922.729 270.465 923.238 270.684 923.826 270.684ZM929.397 272V264.608H933.191C933.928 264.608 934.516 264.776 934.955 265.112C935.403 265.439 935.627 265.887 935.627 266.456C935.627 267.231 935.23 267.795 934.437 268.15C935.454 268.439 935.963 269.055 935.963 269.998C935.963 270.623 935.716 271.113 935.221 271.468C934.736 271.823 934.073 272 933.233 272H929.397ZM931.063 270.656H932.981C933.382 270.656 933.69 270.572 933.905 270.404C934.129 270.227 934.241 269.993 934.241 269.704C934.241 269.424 934.124 269.205 933.891 269.046C933.667 268.887 933.336 268.808 932.897 268.808H931.063V270.656ZM931.063 267.66H932.799C933.144 267.66 933.415 267.576 933.611 267.408C933.807 267.24 933.905 267.021 933.905 266.75C933.905 266.498 933.816 266.297 933.639 266.148C933.462 265.989 933.191 265.91 932.827 265.91H931.063V267.66ZM941.043 272.168C939.96 272.168 939.055 271.809 938.327 271.09C937.608 270.371 937.249 269.443 937.249 268.304C937.249 267.231 937.589 266.321 938.271 265.574C938.952 264.827 939.815 264.454 940.861 264.454C941.981 264.454 942.849 264.837 943.465 265.602C944.09 266.358 944.403 267.301 944.403 268.43C944.403 268.635 944.393 268.794 944.375 268.906H938.943C939.036 269.494 939.274 269.956 939.657 270.292C940.039 270.619 940.511 270.782 941.071 270.782C941.799 270.782 942.466 270.488 943.073 269.9L944.067 270.782C943.301 271.706 942.293 272.168 941.043 272.168ZM938.929 267.786H942.723C942.667 267.217 942.475 266.75 942.149 266.386C941.822 266.022 941.388 265.84 940.847 265.84C940.333 265.84 939.904 266.022 939.559 266.386C939.213 266.741 939.003 267.207 938.929 267.786ZM946.104 274.24V264.608H947.798V265.84C948.451 264.916 949.287 264.454 950.304 264.454C951.237 264.454 952.045 264.804 952.726 265.504C953.407 266.195 953.748 267.133 953.748 268.318C953.748 269.485 953.407 270.418 952.726 271.118C952.045 271.809 951.237 272.154 950.304 272.154C949.287 272.154 948.451 271.72 947.798 270.852V274.24H946.104ZM949.912 270.684C950.509 270.684 951.009 270.465 951.41 270.026C951.821 269.587 952.026 269.009 952.026 268.29C952.026 267.59 951.821 267.021 951.41 266.582C950.999 266.143 950.5 265.924 949.912 265.924C949.324 265.924 948.815 266.148 948.386 266.596C947.966 267.044 947.756 267.618 947.756 268.318C947.756 269.009 947.966 269.578 948.386 270.026C948.815 270.465 949.324 270.684 949.912 270.684ZM961.685 272H960.005V271.09C959.408 271.799 958.61 272.154 957.611 272.154C956.874 272.154 956.248 271.953 955.735 271.552C955.231 271.141 954.979 270.572 954.979 269.844C954.979 269.051 955.254 268.449 955.805 268.038C956.356 267.627 957.079 267.422 957.975 267.422C958.694 267.422 959.375 267.525 960.019 267.73V267.59C960.019 267.077 959.86 266.685 959.543 266.414C959.235 266.143 958.787 266.008 958.199 266.008C957.527 266.008 956.822 266.162 956.085 266.47L955.623 265.112C956.538 264.701 957.476 264.496 958.437 264.496C959.51 264.496 960.318 264.767 960.859 265.308C961.41 265.849 961.685 266.619 961.685 267.618V272ZM960.047 269.326V268.906C959.543 268.71 958.978 268.612 958.353 268.612C957.821 268.612 957.406 268.715 957.107 268.92C956.808 269.125 956.659 269.415 956.659 269.788C956.659 270.124 956.794 270.39 957.065 270.586C957.336 270.782 957.676 270.88 958.087 270.88C958.656 270.88 959.123 270.735 959.487 270.446C959.86 270.157 960.047 269.783 960.047 269.326Z" fill="#3478F6"/>
<path fill-rule="evenodd" clip-rule="evenodd" d="M1002.53 265.22C1002.82 265.513 1002.82 265.987 1002.53 266.28L998.53 270.28C998.237 270.573 997.763 270.573 997.47 270.28L993.47 266.28C993.177 265.987 993.177 265.513 993.47 265.22C993.763 264.927 994.237 264.927 994.53 265.22L998 268.689L1001.47 265.22C1001.76 264.927 1002.24 264.927 1002.53 265.22Z" fill="#3478F6"/>
<path d="M272 128C272 112.915 272 105.373 276.686 100.686C281.373 96 288.915 96 304 96H724C739.085 96 746.627 96 751.314 100.686C756 105.373 756 112.915 756 128V356H272V128Z" fill="#F8FAFF"/>
</g>
<defs>
<clipPath id="clip0_596_1907">
<path d="M0 64C0 33.8301 0 18.7452 9.37258 9.37258C18.7452 0 33.8301 0 64 0H996C1026.17 0 1041.25 0 1050.63 9.37258C1060 18.7452 1060 33.8301 1060 64V356H0V64Z" fill="white"/>
</clipPath>
<clipPath id="clip1_596_1907">
<path d="M32 128C32 112.915 32 105.373 36.6863 100.686C41.3726 96 48.9151 96 64 96H208C223.085 96 230.627 96 235.314 100.686C240 105.373 240 112.915 240 128V356H32V128Z" fill="white"/>
</clipPath>
</defs>
</svg>
