<svg width="32" height="32" viewBox="0 0 32 32" fill="none" xmlns="http://www.w3.org/2000/svg">
<path fill-rule="evenodd" clip-rule="evenodd" d="M9.79283 5.3562C13.885 4.89884 18.1153 4.89884 22.2074 5.3562C24.4911 5.61143 26.3334 7.41064 26.6016 9.70329C27.0909 13.8868 27.0909 18.1131 26.6016 22.2966C26.3334 24.5892 24.4911 26.3884 22.2075 26.6437C18.1153 27.101 13.885 27.101 9.79283 26.6437C7.5092 26.3884 5.66686 24.5892 5.39871 22.2966C4.90941 18.1131 4.90941 13.8868 5.39871 9.70329C5.66686 7.41064 7.5092 5.61143 9.79283 5.3562ZM11.2931 11.2928C11.6836 10.9023 12.3167 10.9023 12.7073 11.2928L16.0002 14.5857L19.2931 11.2928C19.6836 10.9023 20.3168 10.9023 20.7073 11.2928C21.0978 11.6833 21.0978 12.3165 20.7073 12.707L17.4144 15.9999L20.7073 19.2928C21.0978 19.6833 21.0978 20.3165 20.7073 20.707C20.3167 21.0975 19.6836 21.0975 19.2931 20.707L16.0002 17.4141L12.7073 20.707C12.3168 21.0976 11.6836 21.0976 11.2931 20.707C10.9025 20.3165 10.9025 19.6833 11.2931 19.2928L14.586 15.9999L11.2931 12.707C10.9025 12.3165 10.9025 11.6833 11.2931 11.2928Z" fill="black"/>
</svg>
