<svg width="24" height="24" viewBox="0 0 24 24" fill="none" xmlns="http://www.w3.org/2000/svg">
<path d="M5.00017 9.86078C6.91657 14.0347 10.3266 17.3532 14.5661 19.1522L15.2457 19.455C16.8005 20.1477 18.6283 19.6214 19.5766 18.2079L20.4647 16.8842C20.7534 16.4538 20.6655 15.8742 20.2622 15.5488L17.2503 13.119C16.8079 12.7621 16.1574 12.8452 15.819 13.3019L14.8873 14.5591C12.4965 13.3798 10.5554 11.4387 9.37607 9.04792L10.6333 8.1162C11.09 7.77778 11.1731 7.12727 10.8162 6.68489L8.38635 3.67294C8.061 3.26966 7.4815 3.18169 7.05113 3.47026L5.71829 4.36396C4.29595 5.31767 3.77257 7.16052 4.4813 8.71947L4.99939 9.85908L5.00017 9.86078Z" fill="#3478F6"/>
</svg>
