<svg width="24" height="20" viewBox="0 0 24 20" fill="none" xmlns="http://www.w3.org/2000/svg">
<path fill-rule="evenodd" clip-rule="evenodd" d="M1.64987 8.61713C8.09231 5.81026 12.3883 3.95981 14.5378 3.06575C20.675 0.513058 21.9503 0.0696285 22.7815 0.0548294C22.9643 0.0517662 23.3731 0.0970733 23.6378 0.311921C23.8614 0.493336 23.9229 0.738401 23.9524 0.910403C23.9818 1.0824 24.0185 1.47422 23.9893 1.78038C23.6567 5.27483 22.2177 13.7549 21.4856 17.6688C21.1758 19.3249 20.5658 19.8801 19.9753 19.9345C18.959 20.028 18.1364 19.4415 17.2208 18.7888C16.9801 18.6172 16.7331 18.4411 16.4744 18.2715C15.4591 17.606 14.6743 17.0716 13.8876 16.5358C13.1672 16.0452 12.4449 15.5534 11.5425 14.9587C9.66464 13.7212 10.4507 12.9634 11.499 11.9528C11.6687 11.7892 11.8453 11.619 12.0185 11.4391C12.0959 11.3587 12.4742 11.007 13.0076 10.5111C14.7184 8.92057 18.0245 5.84699 18.1079 5.49131C18.1216 5.43296 18.1343 5.21545 18.0051 5.10059C17.8758 4.98574 17.6851 5.02502 17.5475 5.05625C17.3524 5.10053 14.2452 7.15429 8.22583 11.2175C7.34386 11.8232 6.54499 12.1182 5.82923 12.1028C5.04017 12.0857 3.52233 11.6566 2.39397 11.2899C2.2285 11.2361 2.06709 11.1853 1.9113 11.1363C0.764412 10.7757 -0.0785034 10.5106 0.00580996 9.83809C0.0556986 9.44014 0.603719 9.03315 1.64987 8.61713Z" fill="#3478F6"/>
</svg>
