<svg width="510" height="176" viewBox="0 0 510 176" fill="none" xmlns="http://www.w3.org/2000/svg">
    <g clip-path="url(#clip0_0_1)">
    <rect width="510" height="176" fill="#3478F6"/>
    <path d="M59.2393 141.705C59.3539 141.732 58.94 143.919 58.3145 146.589C57.6894 149.26 57.0894 151.403 56.9746 151.376C56.8601 151.35 57.2739 149.163 57.8994 146.492C58.5247 143.822 59.1249 141.678 59.2393 141.705Z" fill="#DADBD8"/>
    <path d="M241.671 74.1938H90.8208C88.0594 74.1938 85.8208 71.9553 85.8208 69.1938V52.8811C85.8208 50.1197 88.0594 47.8811 90.8208 47.8811H236.671C239.433 47.8811 241.671 50.1197 241.671 52.8811V74.1938" fill="white"/>
    <path d="M245.481 108.844C245.481 108.844 245.474 108.694 245.47 108.399C245.466 108.097 245.462 107.658 245.456 107.066C245.449 105.869 245.437 104.065 245.422 101.594L245.481 101.653C226.103 101.742 161.905 101.807 85.8288 101.807H85.8206L86.0335 101.594C86.0335 104.077 86.0335 106.547 86.0335 108.844L85.8206 108.63C130.245 108.665 170.129 108.696 198.916 108.719C213.321 108.746 224.947 108.768 232.984 108.783C237 108.796 240.115 108.806 242.238 108.813C243.292 108.82 244.098 108.825 244.65 108.828C245.195 108.833 245.481 108.844 245.481 108.844C245.481 108.844 245.215 108.854 244.68 108.859C244.134 108.862 243.338 108.867 242.296 108.873C240.184 108.881 237.086 108.89 233.092 108.904C225.068 108.919 213.458 108.941 199.074 108.968C170.246 108.99 130.307 109.021 85.8206 109.057H85.6078V108.844C85.6078 106.547 85.6078 104.077 85.6069 101.594V101.38H85.8206H85.8288C161.905 101.38 226.103 101.445 245.481 101.534L245.541 101.535L245.54 101.594C245.525 104.081 245.514 105.896 245.506 107.1C245.501 107.686 245.496 108.121 245.493 108.421C245.488 108.709 245.481 108.844 245.481 108.844" fill="#17282F"/>
    <path d="M114.824 91.7525C114.824 91.8695 107.808 91.9653 99.1559 91.9653C90.5002 91.9653 83.4858 91.8695 83.4858 91.7525C83.4858 91.6346 90.5002 91.5388 99.1559 91.5388C107.808 91.5388 114.824 91.6346 114.824 91.7525Z" fill="#17282F"/>
    <path d="M241.671 150.341H90.8208C88.0594 150.341 85.8208 148.103 85.8208 145.341V129.029C85.8208 126.267 88.0594 124.029 90.8208 124.029H236.671C239.433 124.029 241.671 126.267 241.671 129.029V150.341" fill="white"/>
    <path d="M241.671 194.549H90.8208C88.0594 194.549 85.8208 192.311 85.8208 189.549V173.237C85.8208 170.475 88.0594 168.237 90.8208 168.237H236.671C239.433 168.237 241.671 170.475 241.671 173.237V194.549" fill="white"/>
    <path d="M67.1197 90.9658C67.3358 91.2515 79.7476 110.945 79.7476 110.945L93.7042 96.3387L100.842 106.647C100.842 106.647 85.9171 127.714 83.728 128.476C81.5388 129.237 74.4738 128.038 74.4738 128.038L64.6187 115.03L67.1197 90.9658" fill="#70A2FF"/>
    <path d="M79.8549 115.493C79.7403 115.5 79.5904 114.481 79.588 113.22C79.5855 111.968 79.6273 110.95 79.7476 110.945C79.8622 110.938 80.0129 111.956 80.0145 113.217C80.017 114.469 79.976 115.487 79.8549 115.493" fill="#17282F"/>
    <path d="M35.5607 76.2805L33.4167 81.5708C33.4167 81.5708 22.4072 90.8643 21.406 92.2945C20.4048 93.7239 29.2693 140.049 29.2693 140.049C29.2693 140.049 28.6979 208.108 29.2693 208.108C29.8424 208.108 37.4191 210.539 53.0049 209.394C68.5898 208.251 71.4494 206.678 71.4494 206.678L66.5874 146.484L59.1506 106.02L46.3884 89.5773L35.5607 76.2805" fill="#70A2FF"/>
    <path d="M60.6464 99.2475C60.6464 99.2475 59.0189 91.394 59.1507 91.1509C59.2825 90.9069 55.4814 81.6306 55.4814 81.6306L54.2076 77.3997L36.8551 74.464L36.0127 77.0862L59.1507 106.322L61.5207 118.87L63.971 115.449L60.6464 99.2475" fill="white"/>
    <path d="M76.1277 158.344L72.3602 113.058L69.2738 95.3874C68.8596 91.8647 66.4985 88.3125 66.4985 88.3125L57.4654 83.0951C57.4654 83.0951 55.0192 80.0873 54.8857 79.6477L59.151 90.5425L60.6467 99.2474L61.5767 119.219L66.5035 146.023L71.3131 204.988L81.7773 202.945L76.1277 158.344" fill="#70A2FF"/>
    <path d="M61.9467 105.586L63.9713 90.7293L57.4654 83.0952L54.8857 79.6478L58.8858 91.1509L61.9467 105.586" fill="#5A81CB"/>
    <path d="M33.417 81.5708L46.9905 98.3887L59.151 106.02L35.5611 76.2806L33.417 81.5708" fill="#5A81CB"/>
    <path d="M21.406 92.2945C21.406 92.2945 18.5595 96.7808 18.1068 101.367C17.9283 103.166 22.3974 136.832 22.9025 138.346C23.4068 139.861 29.3389 143.647 31.1064 144.404C32.8731 145.161 54.4548 152.356 63.289 152.229L65.1825 135.57L42.4654 131.784C42.4654 131.784 39.8137 129.26 38.4261 128.754L36.5325 110.201L33.7564 95.3088C33.7564 95.3088 25.8415 90.4156 21.406 92.2945" fill="#70A2FF"/>
    <path d="M72.4622 112.459C72.3476 112.485 71.1254 107.559 69.7328 101.459C68.3394 95.3564 67.303 90.3887 67.4184 90.3625C67.5331 90.3363 68.7553 95.2606 70.1487 101.364C71.5412 107.465 72.5777 112.433 72.4622 112.459" fill="#17282F"/>
    <path d="M35.4127 108.556C35.4127 108.556 35.4438 108.673 35.4856 108.904C35.5273 109.152 35.5846 109.494 35.6591 109.933C35.8065 110.859 36.0185 112.195 36.292 113.915C36.8282 117.405 37.6018 122.447 38.5679 128.733L38.4753 128.62C39.2547 128.934 39.9146 129.441 40.5908 129.96C41.2604 130.489 41.9187 131.059 42.5728 131.669L42.4909 131.628C49.0067 132.703 56.7275 133.975 65.2146 135.374L65.3997 135.405L65.3784 135.592C64.7906 140.8 64.1569 146.417 63.4987 152.253L63.4774 152.442L63.2924 152.439C59.1819 152.385 55.0042 151.477 50.793 150.49C45.5527 149.235 40.5089 147.743 35.6739 146.195C34.4663 145.801 33.2711 145.409 32.0947 144.99C30.8912 144.619 29.7827 143.977 28.7479 143.345C27.7017 142.705 26.6906 142.036 25.7213 141.328C24.7643 140.602 23.8032 139.903 23.0353 138.95C22.8363 138.729 22.6882 138.378 22.6489 138.1C22.5801 137.802 22.5326 137.518 22.486 137.234C22.3943 136.665 22.3042 136.099 22.2134 135.538C22.0463 134.414 21.8818 133.305 21.7197 132.212C21.4151 130.024 21.1196 127.901 20.8347 125.848C20.278 121.739 19.7819 117.909 19.348 114.41C18.9158 110.911 18.5383 107.744 18.2543 104.956C18.1912 104.258 18.1118 103.587 18.0701 102.935C18.03 102.297 17.9415 101.637 18.0578 101.041C18.2535 99.8524 18.5236 98.7824 18.8273 97.8409C19.4315 95.9564 20.0987 94.5671 20.5875 93.651C20.8306 93.1917 21.0369 92.852 21.1769 92.626C21.3185 92.4001 21.4061 92.2945 21.4061 92.2945C21.4061 92.2945 21.3439 92.4156 21.2146 92.6481C21.0869 92.8814 20.8936 93.2261 20.6636 93.6903C20.2011 94.6162 19.5617 96.0104 18.9853 97.89C18.6963 98.8291 18.4409 99.8933 18.2584 101.073C18.1503 101.66 18.2453 102.263 18.2903 102.917C18.337 103.564 18.4229 104.236 18.4909 104.931C18.7979 107.713 19.1957 110.877 19.6468 114.372C20.1176 117.867 20.6325 121.693 21.1843 125.799C21.4765 127.851 21.7786 129.973 22.0906 132.159C22.2551 133.249 22.4229 134.356 22.5932 135.477C22.6841 136.037 22.7766 136.6 22.8691 137.166C22.9166 137.451 22.9641 137.735 23.0271 138.001C23.0803 138.292 23.1622 138.497 23.3505 138.715C24.048 139.581 25.0165 140.297 25.9579 141.003C26.9166 141.702 27.9227 142.364 28.9592 142.997C30.0046 143.63 31.0468 144.236 32.233 144.602C33.4021 145.016 34.5973 145.405 35.8016 145.797C40.6293 147.337 45.6681 148.824 50.8929 150.076C55.0861 151.06 59.2629 151.962 63.2859 152.019L63.0804 152.205C63.7484 146.37 64.3911 140.755 64.9862 135.547L65.15 135.764C56.6678 134.335 48.951 133.035 42.4385 131.938L42.3918 131.93L42.3566 131.897C41.7148 131.293 41.0615 130.72 40.4033 130.196C39.7459 129.682 39.0803 129.175 38.3771 128.89L38.2961 128.855L38.2846 128.775C37.3734 122.481 36.6423 117.433 36.1364 113.938C35.8957 112.214 35.7091 110.874 35.5789 109.945C35.5216 109.503 35.4774 109.16 35.4446 108.909C35.4168 108.677 35.4127 108.556 35.4127 108.556" fill="#17282F"/>
    <path d="M34.0743 103.555C34.0161 103.58 33.6387 102.793 33.0264 101.531C32.4058 100.278 31.547 98.5277 30.1897 96.9018C28.8332 95.2808 27.1639 94.2379 25.8573 93.8056C24.5474 93.3537 23.6575 93.4094 23.6616 93.3275C23.6608 93.3021 23.8778 93.2636 24.2781 93.262C24.676 93.2596 25.2572 93.3226 25.9482 93.5174C27.3325 93.8924 29.109 94.9444 30.5163 96.6276C31.9187 98.3099 32.7464 100.115 33.3006 101.405C33.8467 102.708 34.1242 103.533 34.0743 103.555" fill="#17282F"/>
    <path d="M30.44 131.852C30.3491 131.801 31.6647 130.199 33.9856 129.324C36.2983 128.422 38.3475 128.734 38.3139 128.833C38.3163 128.967 36.345 128.858 34.1387 129.721C31.9217 130.554 30.5284 131.954 30.44 131.852" fill="#17282F"/>
    <path d="M33.0174 134.487C32.9134 134.475 33.4447 132.576 35.1066 130.897C36.753 129.2 38.64 128.631 38.6539 128.734C38.7128 128.855 36.9789 129.573 35.4112 131.195C33.823 132.795 33.1385 134.543 33.0174 134.487Z" fill="#17282F"/>
    <path d="M59.1507 106.02C59.1384 106.041 58.8076 105.861 58.21 105.509C57.5633 105.121 56.7078 104.607 55.6574 103.977C53.4372 102.606 50.4016 100.732 46.8829 98.5605L46.8551 98.5433L46.833 98.5154C45.5649 96.9502 44.1863 95.2481 42.7536 93.479C38.9992 88.8265 35.6337 84.6161 33.3029 81.6624L33.248 81.5936L33.2808 81.5158C33.9562 79.9235 34.5072 78.6243 34.9157 77.6607C35.0991 77.2473 35.2513 76.9076 35.375 76.6284C35.4847 76.3951 35.5477 76.2747 35.5616 76.2805C35.5747 76.2862 35.5371 76.4155 35.4519 76.6595C35.3471 76.946 35.2194 77.2964 35.0639 77.7205C34.6865 78.6963 34.1764 80.0136 33.5518 81.6255L33.5305 81.479C35.9251 84.3812 39.3308 88.5588 43.0852 93.2113C44.5129 94.9854 45.885 96.6915 47.1482 98.2617L47.0983 98.2174C50.585 100.441 53.5919 102.36 55.7909 103.763C56.8158 104.434 57.65 104.981 58.2821 105.396C58.8576 105.782 59.1629 106.001 59.1507 106.02" fill="#17282F"/>
    <path d="M61.1324 109.179C61.1053 109.175 61.1365 108.788 61.2167 108.086C61.3141 107.31 61.441 106.31 61.5941 105.104C61.9305 102.578 62.4267 99.0656 63.0079 95.1147L63.0317 95.2457C62.773 94.7668 62.5004 94.26 62.2236 93.7459C60.1451 89.8802 58.285 86.3697 56.9572 83.8179C56.3284 82.5916 55.8053 81.5715 55.4041 80.7864C55.0456 80.066 54.8597 79.6615 54.8851 79.6476C54.9121 79.6337 55.1471 80.012 55.5499 80.7078C55.9829 81.4765 56.5454 82.4745 57.2224 83.6755C58.6182 86.1904 60.5208 89.6788 62.5986 93.5445C62.8745 94.0586 63.1471 94.5654 63.405 95.0451L63.4385 95.1073L63.4279 95.1761C62.8344 99.1262 62.2875 102.631 61.8765 105.146C61.6719 106.344 61.5016 107.338 61.3698 108.109C61.2421 108.804 61.1602 109.184 61.1324 109.179Z" fill="#17282F"/>
    <path d="M66.176 144.495C66.1907 144.494 66.2292 144.706 66.2889 145.109C66.3487 145.555 66.4297 146.143 66.5296 146.878C66.731 148.416 66.9987 150.643 67.3114 153.398C67.9385 158.907 68.7187 166.528 69.4318 174.959C70.1432 183.392 70.6524 191.036 70.9594 196.572C71.1133 199.341 71.223 201.582 71.282 203.131C71.3065 203.873 71.3262 204.467 71.3417 204.915C71.3507 205.324 71.3483 205.538 71.3327 205.539C71.3188 205.54 71.2918 205.327 71.2558 204.92C71.2214 204.472 71.1747 203.88 71.1166 203.14C71.0053 201.547 70.8489 199.323 70.659 196.592C70.2742 191.062 69.7183 183.424 69.0069 174.995C68.2938 166.568 67.562 158.945 67.0118 153.43C66.7425 150.706 66.5222 148.485 66.3651 146.897C66.2979 146.157 66.2439 145.567 66.2038 145.119C66.1719 144.712 66.1612 144.497 66.176 144.495" fill="#17282F"/>
    <path d="M55.6724 163.705C55.6913 163.728 55.4932 163.917 55.119 164.237C54.7449 164.558 54.1931 165.01 53.4997 165.554C52.1121 166.638 50.1571 168.105 47.8182 169.458C46.645 170.129 45.4841 170.692 44.4011 171.14C43.309 171.568 42.3044 171.902 41.4383 172.093C40.5762 172.296 39.8664 172.414 39.3728 172.448C38.88 172.491 38.6073 172.501 38.6041 172.471C38.5942 172.394 39.6798 172.276 41.3622 171.802C42.2054 171.575 43.1837 171.218 44.2496 170.778C45.3081 170.317 46.4469 169.751 47.6061 169.088C49.9172 167.751 51.8886 166.332 53.3188 165.313C54.7474 164.287 55.6356 163.656 55.6724 163.705" fill="#17282F"/>
    <path d="M56.9233 166.891C56.9463 166.91 56.7891 167.144 56.4829 167.554C56.1824 167.969 55.7019 168.533 55.0666 169.193C53.8034 170.515 51.832 172.153 49.3572 173.476C46.8775 174.792 44.4174 175.512 42.6147 175.822C41.7133 175.98 40.9757 176.065 40.4649 176.083C39.954 176.107 39.6716 176.106 39.67 176.078C39.6634 176.001 40.7882 175.913 42.5558 175.527C44.3208 175.144 46.7203 174.392 49.1566 173.099C51.5881 171.8 53.5529 170.231 54.8546 168.978C56.162 167.728 56.8628 166.844 56.9233 166.891" fill="#17282F"/>
    <path d="M39.4268 176.368C39.3089 176.38 39.1116 175.376 38.9847 174.126C38.8578 172.876 38.8504 171.853 38.9667 171.84C39.0846 171.83 39.2819 172.832 39.4088 174.083C39.5348 175.333 39.5431 176.356 39.4268 176.368Z" fill="#17282F"/>
    <path d="M37.4644 67.8679C36.8823 67.9113 36.3428 67.466 36.0522 66.9125C35.7615 66.3599 35.669 65.7124 35.5823 65.0812C35.1991 62.292 34.8144 59.5036 34.4304 56.7152C34.1054 54.3509 33.7787 51.971 33.8516 49.5822C33.9245 47.1933 34.879 45.0828 35.9539 43.0148C37.2155 40.5875 42.3223 36.3067 50.8029 38.7078" fill="#17282F"/>
    <path d="M37.0289 57.836C36.9159 57.7901 32.4992 56.5875 32.7252 61.0673C32.9511 65.547 37.4022 64.396 37.4038 64.2666C37.4047 64.1381 37.0289 57.836 37.0289 57.836" fill="#D2E0F9"/>
    <path d="M35.9501 62.6391C35.9288 62.626 35.8747 62.6972 35.7454 62.7651C35.6193 62.8298 35.4007 62.8814 35.1633 62.8061C34.6811 62.6563 34.2448 61.9252 34.1818 61.1188C34.1498 60.7111 34.2153 60.319 34.3438 59.9899C34.4642 59.6559 34.6648 59.416 34.9005 59.3611C35.1347 59.2948 35.3107 59.4291 35.3721 59.5519C35.4384 59.6747 35.4147 59.7647 35.4392 59.7721C35.4515 59.7819 35.5309 59.6919 35.4851 59.5085C35.463 59.4209 35.4048 59.3177 35.2951 59.2367C35.183 59.1548 35.0233 59.118 34.858 59.145C34.5141 59.1859 34.2186 59.5191 34.077 59.8802C33.9173 60.2436 33.8346 60.6849 33.8707 61.1426C33.9443 62.0439 34.4495 62.8658 35.106 63.0198C35.4253 63.0861 35.6832 62.978 35.8142 62.8658C35.9476 62.7479 35.9656 62.6456 35.9501 62.6391" fill="white"/>
    <path d="M60.0604 66.1684C60.0399 63.001 59.4701 56.4844 58.8848 50.5908C58.2569 44.2535 52.8676 39.461 46.4992 39.5781L45.8672 39.5896C39.0526 40.1143 35.6911 46.1946 36.4034 52.9919L37.3604 74.6711L53.615 83.5896L53.561 73.8671C53.561 73.8671 60.1005 72.7259 60.0604 66.1684" fill="#D2E0F9"/>
    <path d="M53.5683 73.8623C53.5683 73.8623 49.4308 74.2765 44.9756 71.5913C44.9756 71.5913 47.0386 76.3461 53.5708 75.6347L53.5683 73.8623" fill="white"/>
    <path d="M56.716 54.8845C56.7422 55.3782 56.346 55.808 55.8302 55.8456C55.3153 55.8825 54.8765 55.5132 54.8494 55.0196C54.8224 54.5251 55.2195 54.0945 55.7344 54.0568C56.2486 54.02 56.689 54.39 56.716 54.8845" fill="#17282F"/>
    <path d="M57.6266 53.4757C57.512 53.6002 56.794 53.0885 55.7862 53.1098C54.7793 53.1164 54.0499 53.6485 53.9377 53.5265C53.8837 53.4733 53.9975 53.2506 54.3151 53.0099C54.6278 52.7709 55.1641 52.5335 55.792 52.5253C56.4191 52.5171 56.952 52.7381 57.2598 52.969C57.5742 53.2007 57.6823 53.4201 57.6266 53.4757" fill="#17282F"/>
    <path d="M46.9222 55.0885C46.9484 55.583 46.5522 56.0128 46.0373 56.0496C45.5223 56.0873 45.0827 55.7181 45.0565 55.2236C45.0295 54.7299 45.4265 54.2993 45.9406 54.2616C46.4564 54.224 46.896 54.5948 46.9222 55.0885" fill="#17282F"/>
    <path d="M47.5815 53.3776C47.4816 53.5135 46.7096 53.0828 45.7108 53.213C44.7121 53.3284 44.0432 53.9367 43.9196 53.8278C43.8598 53.7804 43.9474 53.547 44.2389 53.2736C44.5229 53.0018 45.0305 52.7079 45.6535 52.631C46.2765 52.5548 46.83 52.7177 47.1615 52.9134C47.498 53.1107 47.6306 53.3162 47.5815 53.3776" fill="#17282F"/>
    <path d="M51.4295 61.5977C51.4237 61.5404 52.0484 61.42 53.0602 61.2718C53.3165 61.2407 53.5588 61.1851 53.5998 61.0082C53.6562 60.8216 53.5441 60.5465 53.4139 60.2493C53.1601 59.6312 52.8957 58.9829 52.6165 58.3042C51.5081 55.5338 50.7017 53.2546 50.813 53.2113C50.926 53.167 51.9149 55.3775 53.0226 58.147C53.2895 58.8298 53.5449 59.4814 53.788 60.1044C53.8904 60.3951 54.0647 60.7233 53.9395 61.1114C53.874 61.3054 53.6882 61.4487 53.5236 61.4953C53.3599 61.5494 53.215 61.5543 53.0873 61.5641C52.0672 61.6386 51.4344 61.655 51.4295 61.5977Z" fill="#17282F"/>
    <path d="M48.4764 62.3493C48.641 62.3362 48.6623 63.43 49.6127 64.1889C50.5616 64.9502 51.7249 64.8061 51.7372 64.9592C51.7527 65.0272 51.4809 65.1762 50.9897 65.1991C50.5067 65.2245 49.7994 65.082 49.2181 64.6178C48.6377 64.152 48.3798 63.5216 48.3348 63.0738C48.2848 62.617 48.4019 62.3444 48.4764 62.3493" fill="#17282F"/>
    <path d="M47.6394 49.0279C47.5453 49.3037 46.5359 49.1924 45.357 49.3569C44.174 49.4969 43.2268 49.8613 43.0656 49.6181C42.9935 49.5019 43.1548 49.2407 43.5355 48.9681C43.9129 48.6971 44.5171 48.4343 45.226 48.3418C45.9342 48.2509 46.5858 48.3524 47.0197 48.5195C47.4569 48.6856 47.6796 48.8969 47.6394 49.0279Z" fill="#17282F"/>
    <path d="M57.1109 50.9126C56.9373 51.1451 56.2398 50.92 55.4039 50.9241C54.5697 50.8995 53.8656 51.1067 53.6986 50.8701C53.625 50.7555 53.7322 50.5238 54.0368 50.3011C54.338 50.08 54.8431 49.8942 55.417 49.9008C55.9909 49.9089 56.4911 50.1071 56.7866 50.3363C57.0855 50.5655 57.187 50.7996 57.1109 50.9126" fill="#17282F"/>
    <path d="M51.2962 38.8797C48.9777 37.9669 46.629 38.4483 44.164 38.8101C42.2098 39.0958 40.5078 39.7238 38.9196 40.8969C36.4276 42.7373 35.1922 45.6689 35.0596 48.7635C34.9278 51.8588 35.2479 54.6014 36.0281 57.5993L36.2712 57.5437C36.1214 58.2993 35.974 59.1008 36.2368 59.8253C36.5004 60.549 37.3412 61.1221 38.0461 60.8126C38.8713 60.4508 38.8983 59.3128 38.823 58.4155C38.5684 55.357 38.6142 52.3787 38.7878 49.3136C38.9163 47.0484 40.2082 44.2755 41.9757 43.2014C45.1922 41.0606 49.3789 42.8085 50.8025 43.0565C52.9802 41.1892 55.0203 42.6497 56.3531 44.2706C55.866 41.8269 53.6147 39.7917 51.2962 38.8797Z" fill="#17282F"/>
    <path d="M50.8028 43.0566C52.2371 43.0705 53.3832 42.0906 54.9853 42.3517C55.9513 42.5097 56.9231 44.0857 57.7663 46.0513C58.7266 45.4708 59.2776 44.2797 59.0991 43.172C58.9206 42.0636 58.0242 41.1065 56.9305 40.8552C57.3308 41.0697 57.7541 41.2899 58.2076 41.2727C58.6611 41.2555 59.1343 40.901 59.1081 40.4491C59.0885 40.1209 58.829 39.863 58.5727 39.6583C57.1368 38.5113 55.2358 37.9645 53.4102 38.1732C51.5838 38.3828 49.8556 39.3456 48.7168 40.7872" fill="#17282F"/>
    <path d="M58.1971 40.3444C58.1569 40.4025 57.7329 40.0972 56.9592 39.8548C56.1971 39.6092 55.0395 39.4766 53.8843 39.8753C52.73 40.2773 51.9023 41.0984 51.4562 41.7632C50.9977 42.4328 50.8553 42.9347 50.7865 42.9142C50.7415 42.9076 50.7808 42.3616 51.1999 41.6035C51.6068 40.8561 52.4705 39.9162 53.7443 39.4717C55.019 39.0329 56.2798 39.2359 57.0616 39.5716C57.8598 39.9064 58.2282 40.3108 58.1971 40.3444" fill="#33535F"/>
    <path d="M57.8931 45.2858C57.8178 45.2661 58.0954 44.6857 57.9038 43.7622C57.8064 43.3095 57.5862 42.7848 57.1866 42.3304C56.7912 41.8752 56.1985 41.5134 55.519 41.33C54.1306 40.9493 52.8166 41.4413 52.0266 41.9366C51.2186 42.4401 50.8174 42.9035 50.765 42.8552C50.7282 42.8281 51.0499 42.2854 51.8596 41.6853C52.2648 41.3938 52.7994 41.0959 53.4511 40.9223C54.0994 40.7438 54.8698 40.7176 55.6295 40.9182C56.386 41.1212 57.0507 41.5412 57.4854 42.0758C57.9226 42.6071 58.133 43.2064 58.201 43.7115C58.3287 44.7495 57.9193 45.3185 57.8931 45.2858" fill="#33535F"/>
    <path d="M34.5703 56.0758C34.5433 56.0808 34.4745 55.8695 34.3992 55.4774C34.3222 55.0853 34.2542 54.5081 34.2502 53.7901C34.233 52.3632 34.5563 50.337 35.61 48.3902C36.662 46.4426 38.1798 45.0623 39.3832 44.2952C39.9858 43.9056 40.5064 43.646 40.8765 43.4954C41.2457 43.3431 41.4602 43.2858 41.4708 43.3104C41.5019 43.3775 40.689 43.7205 39.5543 44.5433C38.4237 45.3546 36.9968 46.7193 35.9849 48.5924C34.9714 50.4663 34.612 52.4066 34.5523 53.7967C34.4851 55.1966 34.6431 56.0644 34.5703 56.0758Z" fill="#33535F"/>
    <path d="M35.5709 56.8994C35.4751 56.9403 35.0363 54.6366 35.9377 51.9775C36.8104 49.3079 38.5435 47.7278 38.5951 47.8171C38.7048 47.8998 37.1771 49.5477 36.3421 52.1118C35.4735 54.6636 35.7076 56.8985 35.5709 56.8994Z" fill="#33535F"/>
    <path d="M109.671 94.3797C109.479 93.8779 108.535 93.7682 108.535 93.7682L108.724 93.4833C108.994 93.0764 109.032 92.5565 108.818 92.1177L108.71 91.9147C108.4 91.3875 107.616 91.1272 107.616 91.1272C107.616 91.1272 108.31 90.1816 108.14 89.7142C107.915 89.0952 106.876 88.3077 105.999 88.4567C105.045 88.6196 102.98 89.2541 101.537 89.7878C100.968 89.999 100.347 89.6536 100.225 89.06C99.9926 87.927 99.5423 86.1873 98.7916 84.929C97.9746 83.5586 97.0118 83.5087 96.4314 83.6356C96.1506 83.6961 95.9926 83.9933 96.1023 84.2585C96.4134 85.0134 97.0176 86.523 97.1453 87.1419C97.2976 87.8811 96.7654 93.2082 96.7654 93.2082L94.0605 96.8521L100.2 105.718L102.897 101.708L108.69 99.1558C108.69 99.1558 109.785 97.7772 109.668 97.304C109.551 96.8316 109.099 96.5402 109.099 96.5402L109.816 95.5299C109.816 95.5299 109.863 94.8824 109.671 94.3797" fill="#D2E0F9"/>
    <path d="M108.133 91.2392C108.136 91.2433 108.095 91.2703 108.014 91.3186C107.92 91.3734 107.801 91.4406 107.658 91.5232C107.329 91.7058 106.882 91.9531 106.337 92.2543C105.772 92.5613 105.105 92.9223 104.369 93.3227C103.994 93.5167 103.62 93.7484 103.185 93.9277C102.761 94.1021 102.21 94.179 101.758 93.8941C101.537 93.7517 101.388 93.52 101.323 93.2801C101.256 93.0386 101.26 92.7889 101.31 92.5556C101.411 92.0799 101.731 91.714 102.057 91.443C102.388 91.1704 102.739 90.9698 103.059 90.7766C103.38 90.5851 103.679 90.4066 103.955 90.242C104.491 89.9269 104.932 89.6673 105.256 89.4766C105.401 89.3955 105.519 89.3284 105.614 89.2744C105.696 89.2302 105.741 89.2081 105.743 89.2122C105.745 89.2162 105.706 89.2457 105.628 89.2981C105.537 89.3579 105.423 89.4316 105.284 89.5224C104.964 89.7222 104.532 89.9932 104.004 90.3247C103.732 90.4934 103.435 90.6767 103.117 90.8724C102.8 91.0705 102.454 91.2727 102.136 91.5388C101.824 91.8049 101.529 92.1487 101.441 92.5842C101.343 93.005 101.443 93.5265 101.832 93.7803C102.024 93.9031 102.255 93.9539 102.481 93.9481C102.708 93.9449 102.928 93.8859 103.137 93.8049C103.552 93.6354 103.935 93.4029 104.31 93.2122C105.052 92.8217 105.722 92.4696 106.291 92.1692C106.845 91.8835 107.299 91.6493 107.633 91.4766C107.781 91.4029 107.903 91.3431 108.001 91.2948C108.086 91.2539 108.132 91.2351 108.133 91.2392" fill="white"/>
    <path d="M108.916 93.9007C108.92 93.9089 108.822 93.9678 108.641 94.066C108.459 94.1643 108.194 94.301 107.862 94.4623C107.2 94.7865 106.271 95.2089 105.225 95.6248C104.963 95.7271 104.709 95.8352 104.445 95.9039C104.183 95.9735 103.907 95.9965 103.657 95.9293C103.152 95.7885 102.844 95.3563 102.79 94.9772C102.734 94.5908 102.873 94.2887 102.993 94.1209C103.054 94.0349 103.116 93.9793 103.156 93.9424L103.227 93.8974C103.236 93.9064 103.144 93.9776 103.038 94.1496C102.936 94.3182 102.821 94.6096 102.884 94.9608C102.945 95.303 103.237 95.6895 103.689 95.8082C103.912 95.8647 104.163 95.8434 104.412 95.7754C104.661 95.7083 104.913 95.601 105.175 95.4987C106.219 95.0837 107.149 94.676 107.822 94.3755C108.138 94.2339 108.404 94.1143 108.617 94.0186C108.806 93.9351 108.913 93.8917 108.916 93.9007" fill="white"/>
    <path d="M109.222 96.4263C109.224 96.4353 109.125 96.473 108.945 96.5352C108.736 96.6023 108.478 96.685 108.176 96.7824C107.524 96.9863 106.623 97.2581 105.624 97.5511C105.374 97.6224 105.132 97.7026 104.882 97.7452C104.635 97.7877 104.376 97.7804 104.151 97.6903C103.929 97.6052 103.744 97.4292 103.675 97.2204C103.603 97.0149 103.624 96.8078 103.681 96.6391C103.802 96.2953 104.051 96.1168 104.209 96.0145C104.374 95.9138 104.477 95.8819 104.48 95.8884C104.484 95.8983 104.389 95.9466 104.239 96.0579C104.093 96.1701 103.869 96.3551 103.771 96.6686C103.726 96.8225 103.715 97.0084 103.78 97.1827C103.843 97.3563 103.999 97.5004 104.197 97.5741C104.395 97.6502 104.626 97.6559 104.86 97.6134C105.095 97.5733 105.335 97.4922 105.586 97.421C106.585 97.1279 107.491 96.8708 108.149 96.6907C108.457 96.6089 108.717 96.5401 108.93 96.4836C109.116 96.4386 109.219 96.4173 109.222 96.4263" fill="white"/>
    <path d="M109.252 98.7316C109.253 98.7504 108.918 98.7823 108.379 98.8192C107.84 98.856 107.095 98.8977 106.271 98.9346C106.065 98.9436 105.865 98.9526 105.67 98.9608C105.476 98.969 105.282 98.9772 105.095 98.9403C104.91 98.9051 104.738 98.8175 104.625 98.6841C104.507 98.5523 104.472 98.373 104.5 98.2289C104.569 97.9366 104.776 97.7885 104.909 97.7189C105.05 97.6493 105.14 97.6509 105.14 97.6575C105.143 97.6689 105.059 97.6853 104.935 97.7647C104.818 97.8417 104.64 97.9972 104.595 98.2453C104.578 98.3664 104.61 98.504 104.709 98.6096C104.806 98.7168 104.955 98.7897 105.119 98.8183C105.286 98.8478 105.469 98.838 105.663 98.8282C105.858 98.8192 106.059 98.8093 106.264 98.7995C107.089 98.7619 107.835 98.7356 108.375 98.7234C108.916 98.7111 109.251 98.7127 109.252 98.7316Z" fill="white"/>
    <path d="M103.703 96.77C103.686 96.8093 103.069 96.472 102.228 96.3861C101.388 96.2903 100.714 96.4884 100.705 96.4458C100.689 96.418 101.37 96.1527 102.242 96.251C103.117 96.341 103.727 96.7463 103.703 96.77Z" fill="white"/>
    <path d="M65.0712 136.549L66.3418 136.217C66.3418 136.217 66.7904 134.082 67.352 133.632C67.9136 133.184 73.5387 130.62 74.7733 129.947C76.0094 129.273 80.8412 127.071 81.4478 128.241C82.1347 129.566 80.1674 130.654 79.1015 131.159C78.034 131.665 74.9894 132.846 75.6075 133.577C76.2256 134.307 83.027 133.975 83.027 133.975L83.8801 132.832C83.8801 132.832 85.3791 134.25 85.2104 135.486C85.0418 136.722 84.5367 137.508 84.5367 137.508H84.0315C84.0315 137.508 84.5367 138.237 84.0872 138.968C83.6386 139.699 82.7397 140.653 82.7397 140.653C82.7397 140.653 81.9431 142.332 79.5387 142.99C79.2579 143.067 68.0201 144.043 68.0201 144.043L64.2607 144.421L65.0712 136.549" fill="#D2E0F9"/>
    <rect x="216.322" y="82.2766" width="1.842" height="32.542" fill="white"/>
    <circle cx="217.243" cy="116.354" r="4.605" fill="white"/>
    <circle cx="217.243" cy="82.5835" r="4.605" fill="white"/>
    <rect x="96" y="132" width="70" height="10" rx="3" fill="#3478F6"/>
    <rect x="96" y="132" width="70" height="10" rx="3" fill="#3478F6"/>
    <rect x="96" y="56" width="103" height="10" rx="3" fill="#3478F6"/>
    <rect x="96" y="56" width="103" height="10" rx="3" fill="#3478F6"/>
    <path d="M256.335 108H242.665C240.089 108 238 105.912 238 103.335V89.6651C238 87.0887 240.089 85 242.665 85H256.335C258.911 85 261 87.0887 261 89.6651V103.335C261 105.912 258.911 108 256.335 108" fill="white"/>
    <path d="M250.411 92.0034C249.453 92.0034 248.552 92.376 247.874 93.0535C247.198 93.7301 246.825 94.6306 246.825 95.5897C246.825 96.5488 247.198 97.4498 247.874 98.1259C248.552 98.8034 249.453 99.1765 250.411 99.1765C251.369 99.1765 252.271 98.8034 252.948 98.1259C253.625 97.4498 253.997 96.5488 253.997 95.5897C253.997 94.6306 253.625 93.7301 252.948 93.0535C252.271 92.376 251.37 92.0034 250.411 92.0034ZM244.501 102C244.367 102 244.241 101.948 244.147 101.853C243.951 101.657 243.951 101.339 244.147 101.144L246.831 98.4599C245.383 96.656 245.524 93.985 247.165 92.3441C248.032 91.4774 249.185 91 250.411 91C251.638 91 252.79 91.4774 253.658 92.3441C255.447 94.1341 255.447 97.0458 253.658 98.8354C252.79 99.7025 251.638 100.18 250.411 100.18C249.351 100.18 248.36 99.8307 247.54 99.1703L244.856 101.853C244.761 101.948 244.635 102 244.501 102" fill="#3478F6"/>
    </g>
    <path d="M281.941 113.527C281.941 113.527 281.926 113.483 281.888 113.39C281.85 113.298 281.797 113.16 281.742 112.974C281.633 112.605 281.494 112.033 281.547 111.287C281.596 110.548 281.842 109.627 282.48 108.766C283.103 107.905 284.17 107.15 285.511 106.92C286.838 106.685 288.434 107.076 289.593 108.201C290.752 109.295 291.37 111.154 290.868 112.91C290.627 113.782 290.124 114.606 289.409 115.23C288.692 115.861 287.777 116.269 286.793 116.394C285.81 116.507 284.779 116.31 283.883 115.819C283.436 115.573 283.023 115.257 282.668 114.878C282.488 114.69 282.33 114.484 282.182 114.273C282.108 114.167 282.038 114.058 281.971 113.946L281.873 113.78L281.828 113.698L281.807 113.664L281.803 113.657L281.82 113.676C281.781 113.653 281.912 113.765 282.03 113.7L282.129 113.475C282.18 113.638 282.282 113.846 282.39 114.03C283.374 115.764 285.533 116.579 287.335 116.139C289.181 115.736 290.567 114.182 290.871 112.492C291.221 110.798 290.538 109.08 289.387 108.079C288.235 107.052 286.7 106.72 285.419 106.964C284.129 107.207 283.09 107.941 282.482 108.784C281.857 109.629 281.606 110.536 281.553 111.27C281.496 112.011 281.632 112.585 281.74 112.96C281.851 113.338 281.953 113.52 281.941 113.527C281.93 113.534 281.803 113.361 281.666 112.985C281.531 112.612 281.367 112.028 281.402 111.261C281.433 110.502 281.67 109.551 282.306 108.656C282.928 107.761 284.004 106.969 285.368 106.693C286.716 106.416 288.362 106.751 289.601 107.837C290.839 108.898 291.59 110.731 291.223 112.564C291.056 113.469 290.616 114.348 289.953 115.056C289.298 115.766 288.397 116.278 287.424 116.509C285.462 116.992 283.134 116.116 282.054 114.227C281.934 114.017 281.829 113.817 281.754 113.578L281.706 113.428L281.852 113.354C281.978 113.29 282.117 113.405 282.082 113.388L282.116 113.425L282.137 113.457L282.165 113.505L282.212 113.588L282.304 113.746C282.367 113.851 282.432 113.952 282.501 114.051C282.641 114.251 282.787 114.441 282.95 114.613C283.277 114.96 283.658 115.253 284.069 115.479C284.892 115.935 285.846 116.118 286.75 116.017C287.646 115.908 288.512 115.526 289.164 114.953C289.828 114.381 290.296 113.617 290.525 112.815C290.999 111.189 290.443 109.463 289.369 108.429C288.301 107.372 286.807 106.984 285.553 107.189C284.289 107.389 283.259 108.087 282.651 108.896C282.026 109.707 281.766 110.586 281.696 111.299C281.622 112.019 281.734 112.582 281.817 112.954C281.902 113.326 281.978 113.522 281.941 113.527" fill="white"/>
    <path d="M275.607 113.496C275.384 113.662 274.786 114.109 273.44 115.111L273.454 115.059C273.919 116.104 274.531 117.483 275.282 119.176L275.204 119.135C276.009 118.976 276.908 118.799 277.876 118.607L277.863 118.764L277.786 118.736L277.877 118.608C278.443 119.311 279.137 119.992 279.963 120.591L279.824 120.701L279.788 120.616L279.965 120.594C279.842 121.432 279.708 122.351 279.569 123.311L279.505 123.202C280.844 123.717 282.269 124.266 283.777 124.846L283.642 124.889C284.109 124.192 284.634 123.408 285.175 122.6L285.325 122.776L285.219 122.825L285.183 122.597C286.056 122.693 287.054 122.687 288.057 122.526L288.03 122.767L287.917 122.722L288.066 122.529C288.569 123.202 289.138 123.964 289.719 124.744L289.56 124.702C290.858 124.125 292.294 123.487 293.775 122.829L293.693 122.985C293.53 122.159 293.345 121.223 293.156 120.27L293.436 120.291L293.391 120.416L293.163 120.253C293.845 119.704 294.549 118.989 295.14 118.169L295.32 118.396L295.195 118.449L295.158 118.161C295.995 118.283 296.942 118.421 297.904 118.56L297.738 118.658C298.249 117.329 298.818 115.849 299.399 114.337L299.459 114.528C298.755 114.057 297.958 113.524 297.152 112.984L297.392 112.779L297.451 112.906L297.139 112.957C297.235 112.081 297.228 111.085 297.065 110.085L297.071 110.111L297.07 110.11L297.386 110.125L297.382 110.137L297.381 110.139L297.38 110.143L297.07 110.013L297.071 110.011L297.072 110.01L297.072 110.007L297.075 110.002L297.079 109.992L297.08 109.989L297.078 109.994C297.078 110.007 297.073 109.98 297.069 110.057L297.361 110.163L297.38 110.137L297.388 110.121L297.389 110.119L297.371 110.164L297.334 110.255L297.077 110.058C297.758 109.55 298.526 108.976 299.302 108.397L299.248 108.603C298.667 107.296 298.021 105.845 297.365 104.371L297.559 104.472C296.723 104.638 295.784 104.825 294.838 105.014L294.864 104.672L294.994 104.719L294.794 104.998C294.24 104.308 293.526 103.61 292.715 103.025L292.986 102.81L293.039 102.935L292.695 102.979C292.817 102.133 292.953 101.188 293.091 100.236L293.206 100.432C291.867 99.9182 290.389 99.3516 288.894 98.7783L289.114 98.708C288.639 99.4211 288.11 100.213 287.578 101.01L287.343 100.737L287.457 100.684L287.516 101.039C286.631 100.943 285.636 100.955 284.657 101.115L284.698 100.754L284.811 100.799L284.589 101.087C284.075 100.401 283.507 99.6424 282.936 98.8792L283.165 98.939C281.854 99.5242 280.421 100.165 278.975 100.809L279.085 100.597C279.254 101.44 279.439 102.365 279.625 103.294L279.255 103.266L279.29 103.171L279.592 103.386C278.895 103.949 278.208 104.659 277.633 105.46L277.402 105.168L277.486 105.133L277.534 105.502C276.686 105.381 275.759 105.249 274.829 105.117L275.037 104.994C274.529 106.329 273.98 107.773 273.428 109.226L273.354 108.995C274.068 109.467 274.842 109.98 275.62 110.493L275.336 110.738L275.317 110.696L275.686 110.634C275.61 111.406 275.607 112.251 275.733 113.079L275.76 113.28L275.738 113.289L275.704 113.301L275.688 113.315L275.686 113.316L275.685 113.318C275.692 113.258 275.393 113.351 275.428 113.422L275.42 113.446L275.414 113.489L275.414 113.487L275.374 113.081C275.345 112.805 275.325 112.521 275.317 112.243C275.3 111.683 275.327 111.124 275.39 110.575L275.474 110.758C274.721 110.247 273.981 109.744 273.245 109.243L273.54 109.024L273.563 109.096L273.196 109.084C273.736 107.704 274.271 106.333 274.803 104.972L275.081 105.209L274.994 105.26L274.925 104.901C275.827 105.037 276.725 105.171 277.618 105.304L277.433 105.381C278.027 104.561 278.734 103.824 279.519 103.202L279.451 103.389C279.276 102.491 279.102 101.599 278.93 100.713L279.288 100.764L279.228 100.879L278.981 100.616C280.342 100.016 281.688 99.4226 283.021 98.8358L283.049 99.1924L282.913 99.1573L283.113 98.8605C283.662 99.599 284.205 100.331 284.745 101.06L284.564 100.986C285.576 100.82 286.604 100.801 287.604 100.918L287.428 101C287.945 100.232 288.454 99.4749 288.959 98.7245L289.169 99.004L289.02 99.0511L289.031 98.7021C290.421 99.2402 291.793 99.7717 293.148 100.296L292.925 100.559L292.843 100.419L293.181 100.353C293.044 101.277 292.911 102.178 292.779 103.072L292.707 102.9C293.553 103.506 294.293 104.22 294.914 105.005L294.741 104.942C295.664 104.761 296.555 104.586 297.437 104.413L297.391 104.741L297.242 104.664L297.483 104.437C298.094 105.817 298.686 107.158 299.269 108.475L298.947 108.5L298.99 108.337L299.257 108.518C298.517 109.067 297.812 109.591 297.116 110.109L297.172 110.037L297.135 110.128L297.117 110.171L297.114 110.176L297.118 110.167L297.123 110.146L297.025 109.962L296.813 110.032L296.805 110.049L296.804 110.05L296.809 110.039L296.811 110.034L296.812 110.03L296.812 110.029L296.813 110.028L297.125 110.151L297.124 110.155L297.123 110.155L297.118 110.168L297.13 110.09L297.13 110.09L297.128 110.073C297.291 111.105 297.297 112.086 297.187 113.045L297.115 112.891C297.911 113.425 298.66 113.928 299.399 114.425L299.155 114.607L299.105 114.447L299.408 114.456C298.853 115.892 298.329 117.249 297.816 118.574L297.594 118.385L297.738 118.301L297.793 118.587C296.831 118.446 295.945 118.316 295.074 118.187L295.217 118.127C294.586 119.007 293.882 119.724 293.121 120.328L293.173 120.186C293.363 121.153 293.535 122.025 293.702 122.88L293.439 122.843L293.512 122.702L293.694 122.896C292.243 123.538 290.927 124.121 289.657 124.684L289.637 124.435L289.783 124.474L289.644 124.68C289.043 123.873 288.52 123.169 288.009 122.483L288.13 122.532C287.021 122.713 286.042 122.709 285.112 122.605L285.225 122.553C284.651 123.407 284.168 124.127 283.7 124.824L283.572 124.654L283.7 124.615L283.694 124.826C282.133 124.225 280.812 123.714 279.575 123.237L279.697 123.093L279.758 123.198L279.573 123.233C279.729 122.171 279.851 121.335 279.968 120.54L280.004 120.626C279.026 119.916 278.384 119.241 277.845 118.572L277.923 118.601C276.81 118.821 276.005 118.979 275.26 119.126L275.278 118.997L275.354 119.037L275.259 119.126C274.481 117.371 273.908 116.08 273.469 115.09L273.549 115.084L273.536 115.136L273.469 115.091C274.822 114.082 275.39 113.658 275.607 113.496C275.618 113.507 275.449 113.646 275.104 113.923C274.746 114.203 274.223 114.611 273.52 115.159L273.423 115.235L273.454 115.115L273.467 115.062L273.496 114.945L273.547 115.056C273.998 116.039 274.585 117.323 275.384 119.069L275.467 119.25L275.289 119.159L275.214 119.12L275.039 119.03L275.232 118.99C275.976 118.837 276.78 118.672 277.891 118.443L277.938 118.433L277.97 118.471C278.507 119.126 279.143 119.785 280.111 120.478L280.155 120.511L280.148 120.565C280.037 121.362 279.919 122.198 279.77 123.262L279.731 123.544L279.586 123.298L279.525 123.194L279.38 122.949L279.646 123.05C280.886 123.52 282.21 124.024 283.774 124.617L284.075 124.731L283.767 124.829L283.64 124.869L283.334 124.967L283.512 124.699C283.977 124 284.456 123.278 285.027 122.42L285.066 122.36L285.138 122.367C286.051 122.465 287.005 122.464 288.09 122.283L288.165 122.27L288.211 122.332C288.725 123.016 289.251 123.717 289.855 124.522L290.082 124.823L289.716 124.728L289.57 124.691L289.206 124.596L289.549 124.442C290.817 123.875 292.132 123.287 293.58 122.639L293.947 122.475L293.761 122.832L293.69 122.973L293.505 123.329L293.426 122.935C293.254 122.08 293.081 121.209 292.887 120.243L292.87 120.156L292.939 120.101C293.679 119.508 294.359 118.812 294.974 117.95L295.027 117.876L295.117 117.89C295.989 118.015 296.875 118.143 297.838 118.282L298.274 118.344L297.894 118.568L297.75 118.652L297.369 118.875L297.528 118.463C298.036 117.137 298.557 115.778 299.109 114.34L299.272 113.912L299.411 114.35L299.463 114.511L299.601 114.948L299.219 114.692C298.479 114.198 297.73 113.697 296.932 113.164L296.849 113.108L296.86 113.009C296.966 112.08 296.954 111.114 296.799 110.138L296.797 110.125L296.796 110.12L296.792 110.08L296.807 110.042L296.811 110.033L296.812 110.033L296.892 110.064L296.908 110.072L297.067 110.136C297.142 110.166 297.122 110.159 297.122 110.159L297.122 110.16L297.121 110.162L297.119 110.167L297.114 110.178L297.113 110.182L297.103 110.2L296.892 110.27L296.793 110.087L296.798 110.066L296.803 110.051L296.806 110.045L296.824 110.001L296.86 109.911L296.878 109.868L296.916 109.839C297.611 109.32 298.315 108.795 299.053 108.243L299.443 107.953L299.321 108.423L299.278 108.588L299.155 109.06L298.956 108.613C298.371 107.298 297.776 105.958 297.162 104.579L296.96 104.123L297.404 104.353L297.552 104.43L297.998 104.66L297.505 104.757C296.623 104.932 295.732 105.108 294.809 105.291L294.703 105.312L294.637 105.228C294.03 104.465 293.319 103.78 292.495 103.191L292.407 103.128L292.423 103.019C292.553 102.126 292.685 101.225 292.819 100.3L292.895 99.7866L293.158 100.235L293.239 100.374L293.503 100.824L293.016 100.636C291.661 100.114 290.289 99.5841 288.898 99.0474L288.405 98.8575L288.908 98.6983L289.057 98.6512L289.562 98.4905L289.267 98.9308C288.762 99.6827 288.254 100.44 287.738 101.208L287.675 101.302L287.562 101.29C286.592 101.177 285.604 101.196 284.623 101.358L284.511 101.376L284.442 101.285C283.902 100.557 283.357 99.8255 282.809 99.0862L282.487 98.6535L283.009 98.7903L283.145 98.8261L283.671 98.9637L283.174 99.1827C281.842 99.7709 280.496 100.365 279.135 100.966L278.637 101.186L278.888 100.702L278.947 100.588L279.201 100.101L279.306 100.639C279.479 101.526 279.653 102.418 279.828 103.315L279.85 103.43L279.759 103.502C278.999 104.106 278.32 104.812 277.745 105.609L277.677 105.703L277.56 105.686C276.668 105.553 275.77 105.419 274.869 105.284L274.324 105.203L274.799 104.925L274.886 104.875L275.366 104.594L275.164 105.113C274.632 106.474 274.097 107.845 273.558 109.225L273.358 109.739L273.192 109.213L273.169 109.141L273 108.607L273.464 108.921C274.2 109.422 274.94 109.925 275.692 110.437L275.79 110.503L275.777 110.619C275.716 111.152 275.689 111.691 275.707 112.231C275.715 112.503 275.732 112.77 275.761 113.044L275.802 113.464L275.803 113.488L275.796 113.545L275.788 113.569C275.822 113.641 275.523 113.734 275.53 113.674L275.529 113.672L275.525 113.668L275.497 113.63L275.441 113.541L275.377 113.347L275.348 113.136C275.216 112.27 275.221 111.394 275.299 110.596L275.369 109.888L275.67 110.532L275.689 110.573L275.98 111.198L275.405 110.818C274.628 110.304 273.854 109.792 273.138 109.319L273.009 109.233L273.064 109.088C273.617 107.635 274.167 106.191 274.675 104.856L274.73 104.711L274.884 104.733C275.813 104.866 276.74 104.998 277.589 105.12L278.278 105.218L277.636 105.489L277.552 105.525L276.918 105.792L277.32 105.233C277.915 104.405 278.628 103.67 279.35 103.087L279.889 102.652L279.652 103.303L279.617 103.398L279.383 104.042L279.248 103.369C279.062 102.44 278.878 101.515 278.71 100.672L278.679 100.522L278.82 100.459C280.265 99.8158 281.7 99.1767 283.011 98.5929L283.15 98.5309L283.241 98.6527C283.81 99.4159 284.378 100.175 284.89 100.861L285.296 101.404L284.669 101.149L284.556 101.104L283.933 100.85L284.598 100.743C285.611 100.578 286.641 100.567 287.557 100.668L288.223 100.741L287.615 101.023L287.501 101.076L286.895 101.358L287.267 100.802C287.8 100.006 288.33 99.2148 288.806 98.5025L288.889 98.3792L289.027 98.4322C290.521 99.007 291.998 99.5766 293.337 100.092L293.474 100.144L293.452 100.288C293.313 101.24 293.175 102.185 293.051 103.031L292.958 103.671L292.707 103.075L292.654 102.95L292.405 102.358L292.926 102.734C293.764 103.339 294.5 104.061 295.071 104.775L295.469 105.272L294.871 105.053L294.742 105.006L294.145 104.788L294.768 104.664C295.716 104.478 296.655 104.293 297.491 104.129L297.629 104.101L297.685 104.229C298.338 105.703 298.981 107.157 299.561 108.464L299.616 108.589L299.506 108.671C298.73 109.248 297.961 109.819 297.28 110.326L296.796 110.685L297.022 110.128L297.061 110.036L297.078 109.992L297.084 109.98L297.093 109.963L297.111 109.939L297.404 110.043C297.398 110.121 297.395 110.095 297.393 110.107L297.392 110.114L297.39 110.117L297.386 110.127L297.383 110.132L297.383 110.134L297.383 110.135L297.35 110.121L297.152 110.04L297.168 110.049L297.072 110.009L297.072 110.008L297.076 109.999L297.256 109.56L297.392 110.014L297.395 110.025L297.398 110.041C297.561 111.055 297.567 112.094 297.466 112.993L297.4 113.576L297.153 113.044L297.094 112.917L296.847 112.383L297.335 112.712C298.139 113.253 298.935 113.789 299.639 114.261L299.745 114.333L299.699 114.452C299.114 115.962 298.541 117.441 298.026 118.769L297.982 118.885L297.86 118.867C296.898 118.724 295.951 118.584 295.115 118.459L294.581 118.38L295.078 118.172L295.203 118.119L295.699 117.911L295.384 118.346C294.773 119.188 294.049 119.919 293.345 120.481L292.938 120.805L293.116 120.317L293.163 120.191L293.342 119.7L293.442 120.213C293.627 121.167 293.81 122.105 293.97 122.931L293.991 123.041L293.889 123.087C292.405 123.739 290.968 124.372 289.667 124.944L289.57 124.988L289.507 124.903C288.928 124.121 288.362 123.356 287.863 122.68L287.593 122.316L288.013 122.487L288.125 122.533L288.545 122.705L288.097 122.775C287.069 122.937 286.048 122.938 285.156 122.836L284.731 122.786L285.118 122.608L285.224 122.559L285.616 122.378L285.374 122.734C284.829 123.538 284.301 124.32 283.83 125.015L283.779 125.091L283.695 125.057C282.191 124.469 280.768 123.913 279.432 123.39L279.356 123.361L279.368 123.281C279.515 122.322 279.655 121.404 279.782 120.567L279.831 120.24L279.958 120.544L279.994 120.63L280.122 120.936L279.855 120.74C279.018 120.125 278.317 119.428 277.749 118.711L277.568 118.482L277.841 118.583L277.919 118.611L278.196 118.713L277.906 118.767C276.938 118.951 276.038 119.12 275.231 119.273L275.175 119.283L275.153 119.232C274.422 117.53 273.826 116.144 273.375 115.093L273.361 115.061L273.389 115.041C274.11 114.527 274.658 114.138 275.037 113.869C275.217 113.746 275.355 113.651 275.458 113.581C275.562 113.518 275.607 113.496 275.607 113.496" fill="white"/>
    <path fill-rule="evenodd" clip-rule="evenodd" d="M302.319 143.267C303.699 146.378 307.339 147.781 310.45 146.402C313.561 145.022 314.964 141.381 313.584 138.27C312.204 135.159 308.564 133.756 305.453 135.136C302.342 136.517 300.939 140.157 302.319 143.267ZM294.078 143.228C293.879 141.975 293.852 140.716 293.986 139.485L291.103 137.551L293.168 132.192L296.604 132.693C297.33 131.689 298.195 130.774 299.185 129.979L298.512 126.574L303.763 124.246L305.837 127.028C307.09 126.828 308.348 126.802 309.58 126.937L311.514 124.053L316.873 126.119L316.372 129.554C317.375 130.281 318.29 131.145 319.085 132.135L322.49 131.463L324.819 136.714L322.037 138.787C322.236 140.04 322.262 141.298 322.128 142.531L325.012 144.464L322.946 149.824L319.51 149.322C318.783 150.326 317.919 151.24 316.93 152.036L317.601 155.44L312.351 157.77L310.278 154.987C309.025 155.186 307.766 155.213 306.534 155.078L304.6 157.962L299.241 155.896L299.743 152.46C298.739 151.734 297.824 150.87 297.029 149.88L293.624 150.552L291.295 145.301L294.078 143.228" fill="white"/>
    <path d="M306.462 106.66C306.761 105.894 307.109 105.004 307.515 103.962C308.052 104.042 308.621 104.127 309.25 104.221L309.285 104.226L309.307 104.197C309.664 103.708 310.1 103.237 310.635 102.808L310.666 102.784L310.658 102.744C310.552 102.2 310.442 101.636 310.325 101.037C311.154 100.671 312.021 100.289 312.939 99.8844C313.275 100.337 313.619 100.8 313.973 101.277L314.001 101.316L314.049 101.308C314.416 101.25 314.794 101.22 315.176 101.22C315.437 101.221 315.7 101.235 315.965 101.264L316.014 101.27L316.042 101.228C316.358 100.758 316.68 100.28 317.007 99.7932C317.867 100.126 318.75 100.467 319.651 100.816C319.569 101.378 319.486 101.947 319.4 102.524L319.393 102.577L319.436 102.609C319.948 102.98 320.417 103.424 320.823 103.929L320.856 103.971L320.909 103.961C321.469 103.851 322.032 103.74 322.601 103.628C322.978 104.478 323.36 105.339 323.747 106.212C323.528 106.376 323.308 106.54 323.088 106.704L322.726 106.973L322.546 107.108L322.454 107.176L322.409 107.209L322.386 107.226L322.375 107.235L322.369 107.239L322.367 107.241L322.365 107.242C322.348 107.283 322.339 107.308 322.333 107.322C322.333 107.322 322.332 107.323 322.331 107.325C322.327 107.334 322.326 107.338 322.326 107.338C322.326 107.338 322.328 107.334 322.33 107.33L322.33 107.331L322.33 107.331C322.39 107.709 322.419 108.09 322.419 108.461C322.419 108.728 322.404 108.99 322.376 109.243L322.371 109.297L322.416 109.328C322.907 109.657 323.395 109.984 323.848 110.288C323.499 111.196 323.156 112.09 322.833 112.927C322.243 112.842 321.661 112.757 321.125 112.679L321.072 112.672L321.041 112.715C320.652 113.253 320.19 113.727 319.722 114.103L319.681 114.137L319.692 114.188C319.808 114.774 319.923 115.352 320.028 115.883C319.129 116.284 318.252 116.674 317.434 117.038C317.074 116.555 316.72 116.082 316.398 115.651L316.369 115.613L316.322 115.621C315.934 115.683 315.546 115.712 315.173 115.712C314.908 115.712 314.651 115.698 314.405 115.671L314.36 115.666L314.335 115.704C313.998 116.208 313.669 116.701 313.368 117.151C312.433 116.792 311.539 116.45 310.695 116.127C310.782 115.521 310.865 114.939 310.943 114.4L310.947 114.364L310.918 114.342C310.367 113.946 309.9 113.492 309.52 113.022L309.5 112.997L309.468 113.003C308.849 113.128 308.268 113.245 307.744 113.351C307.258 112.273 306.856 111.379 306.548 110.696C307.002 110.349 307.353 110.081 307.597 109.894C307.712 109.805 307.8 109.737 307.866 109.685L307.952 109.613C307.952 109.613 307.952 109.612 307.952 109.609C307.952 109.596 307.949 109.559 307.941 109.494C307.933 109.408 307.922 109.29 307.907 109.136C307.896 108.978 307.884 108.78 307.884 108.541C307.884 108.296 307.896 108.008 307.934 107.679L307.935 107.662L307.921 107.652C307.521 107.38 307.043 107.055 306.462 106.66V106.66ZM315.15 105.068C315.067 105.068 314.985 105.072 314.904 105.078C314.287 105.116 313.729 105.349 313.28 105.654C312.829 105.963 312.502 106.371 312.283 106.775C311.991 107.322 311.898 107.855 311.898 108.296C311.898 108.521 311.922 108.722 311.956 108.887C312.061 109.391 312.217 109.634 312.217 109.634C312.217 109.634 312.292 109.912 312.596 110.327C312.893 110.733 313.474 111.276 314.38 111.503C314.625 111.563 314.891 111.598 315.17 111.599C315.401 111.599 315.639 111.574 315.881 111.516C316.408 111.388 316.955 111.131 317.396 110.699C317.622 110.49 317.818 110.237 317.976 109.958C318.139 109.68 318.261 109.37 318.33 109.041C318.383 108.816 318.409 108.582 318.409 108.346C318.409 107.896 318.315 107.437 318.129 107.01C317.835 106.363 317.345 105.824 316.758 105.499C316.469 105.33 316.157 105.212 315.842 105.146C315.611 105.095 315.378 105.068 315.15 105.068V105.068ZM322.33 107.33C322.33 107.328 322.331 107.326 322.331 107.325C322.332 107.324 322.333 107.323 322.333 107.322C322.333 107.322 322.332 107.324 322.33 107.33Z" fill="#8FB7FF"/>
    <path d="M311.897 108.297C311.897 107.856 311.99 107.322 312.282 106.776C312.501 106.371 312.828 105.964 313.28 105.654C313.729 105.349 314.286 105.116 314.903 105.079C314.984 105.072 315.067 105.068 315.149 105.068C315.378 105.068 315.611 105.095 315.841 105.147C316.156 105.213 316.468 105.33 316.757 105.499C317.344 105.824 317.834 106.363 318.128 107.01C318.314 107.438 318.409 107.897 318.409 108.346C318.409 108.582 318.382 108.816 318.329 109.042C318.261 109.37 318.138 109.68 317.976 109.958C317.817 110.238 317.621 110.49 317.396 110.699C316.955 111.131 316.407 111.388 315.88 111.517C315.638 111.574 315.4 111.6 315.169 111.6C314.89 111.599 314.624 111.563 314.38 111.503C313.473 111.277 312.892 110.733 312.595 110.327C312.291 109.913 312.216 109.635 312.216 109.635C312.216 109.635 312.06 109.392 311.956 108.888C311.921 108.722 311.897 108.522 311.897 108.297V108.297ZM315.135 105.239C315.061 105.239 314.987 105.242 314.914 105.248C314.33 105.278 313.797 105.494 313.365 105.779C312.931 106.068 312.614 106.453 312.395 106.838C312.083 107.397 311.989 107.95 311.989 108.398C311.989 108.575 312.004 108.738 312.026 108.876C312.101 109.335 312.218 109.587 312.218 109.629C312.218 109.632 312.217 109.634 312.216 109.635C312.216 109.634 312.217 109.634 312.217 109.634C312.238 109.632 312.342 109.898 312.65 110.283C312.959 110.668 313.535 111.176 314.41 111.378C314.632 111.427 314.872 111.458 315.122 111.458C315.357 111.458 315.6 111.431 315.845 111.369C316.346 111.24 316.864 110.991 317.279 110.578C317.491 110.378 317.675 110.138 317.824 109.871C317.977 109.608 318.09 109.313 318.154 109.003C318.203 108.792 318.227 108.574 318.227 108.353C318.227 107.927 318.137 107.492 317.962 107.084C317.683 106.474 317.223 105.965 316.668 105.654C316.396 105.494 316.101 105.382 315.804 105.317C315.581 105.266 315.355 105.239 315.135 105.239" fill="#8FB7FF"/>
    <defs>
    <clipPath id="clip0_0_1">
    <rect width="510" height="176" fill="white"/>
    </clipPath>
    </defs>
    </svg>
    