<svg width="510" height="176" viewBox="0 0 510 176" fill="none" xmlns="http://www.w3.org/2000/svg">
<g clip-path="url(#clip0_621_2003)">
<rect width="510" height="176" fill="#3478F6"/>
<path d="M287.648 72.4683H278.436V35.6672H287.648V72.4683Z" fill="#D2E0F9"/>
<path d="M301.198 72.4683H291.985V43.6945H301.198V72.4683" fill="#D2E0F9"/>
<path d="M314.953 72.4683H305.741V50.2677H314.953V72.4683Z" fill="#D2E0F9"/>
<path d="M327.688 72.4683H318.475V59.2842H327.688V72.4683Z" fill="#D2E0F9"/>
<path d="M22.6152 180.797C23.1339 179.591 23.499 178.324 23.9645 177.097C24.4299 175.869 25.0086 174.661 25.8882 173.686C26.7676 172.711 27.9841 171.985 29.2954 171.92C28.4745 175.637 26.0055 178.958 22.6826 180.816" fill="#DADBD8"/>
<path d="M21.5196 180.895C20.957 179.465 20.3903 178.019 20.1625 176.5C19.9351 174.98 20.0734 173.356 20.8506 172.031C22.3609 174.886 22.8472 177.95 21.5969 180.928" fill="#DADBD8"/>
<path d="M22.6294 172.031C23.4847 169.2 26.0761 167.117 28.8738 166.161C29.2264 166.041 29.6 165.94 29.9687 165.997C30.3368 166.054 30.6983 166.306 30.7754 166.67C30.8777 167.151 30.4799 167.583 30.1058 167.903C27.9272 169.766 25.3663 171.179 22.6294 172.031" fill="#DADBD8"/>
<path d="M22.66 169.716C22.7686 167.892 22.8823 166.041 23.476 164.312C24.0694 162.583 25.2134 160.961 26.8772 160.204C27.1604 162.047 26.3474 163.881 25.3667 165.467C24.3863 167.052 23.204 168.549 22.6152 170.318" fill="#DADBD8"/>
<path d="M22.6153 170.972C21.9083 168.91 21.8349 166.29 20.6001 164.493C19.7368 163.237 18.3544 162.382 17.6104 161.051C17.1164 162.294 17.2674 163.726 17.7843 164.959C18.3011 166.192 19.1551 167.253 20.069 168.23C20.9828 169.206 21.7656 169.94 22.6153 170.972" fill="#DADBD8"/>
<path d="M22.6291 231.71C22.5741 231.71 22.5264 217.951 22.5227 200.983C22.519 184.009 22.5603 170.254 22.6153 170.254C22.6703 170.254 22.7176 184.009 22.7217 200.983C22.7252 217.951 22.6839 231.71 22.6291 231.71" fill="#DADBD8"/>
<path d="M110.286 90.427H22.4268V36.0483H110.286V90.427" fill="#FAFAF9"/>
<path d="M89.075 75.3659C82.9826 73.0556 75.9747 79.4439 70.003 76.8387C66.5273 75.3228 64.9515 71.3922 63.2488 68.0046C61.5457 64.6166 58.6125 61.0432 54.8414 61.4363C51.0377 61.8332 47.9618 66.2369 44.2878 65.1753C41.9722 64.5069 40.8161 61.9386 40.2354 59.5991C39.6548 57.2591 39.2525 54.674 37.4868 53.0331C35.7206 51.3927 32.0418 51.8313 31.7646 54.2259V83.0537H100.472C100.472 83.0537 91.1832 76.1655 89.075 75.3659" fill="#E7E8E5"/>
<path d="M102.307 83.0537C102.307 83.1155 85.6533 83.1653 65.1146 83.1653C44.5688 83.1653 27.9185 83.1155 27.9185 83.0537C27.9185 82.9919 44.5688 82.9421 65.1146 82.9421C85.6533 82.9421 102.307 82.9919 102.307 83.0537Z" fill="#DADBD8"/>
<path d="M102.307 70.4622C102.307 70.524 85.6533 70.5742 65.1146 70.5742C44.5688 70.5742 27.9185 70.524 27.9185 70.4622C27.9185 70.4009 44.5688 70.3506 65.1146 70.3506C85.6533 70.3506 102.307 70.4009 102.307 70.4622Z" fill="#DADBD8"/>
<path d="M102.307 57.8706C102.307 57.9324 85.6533 57.9827 65.1146 57.9827C44.5688 57.9827 27.9185 57.9324 27.9185 57.8706C27.9185 57.8089 44.5688 57.7591 65.1146 57.7591C85.6533 57.7591 102.307 57.8089 102.307 57.8706Z" fill="#DADBD8"/>
<path d="M102.307 45.9043C102.307 45.9661 85.6533 46.0164 65.1146 46.0164C44.5688 46.0164 27.9185 45.9661 27.9185 45.9043C27.9185 45.8426 44.5688 45.7928 65.1146 45.7928C85.6533 45.7928 102.307 45.8426 102.307 45.9043Z" fill="#DADBD8"/>
<path d="M281.226 56.55H75.2879C71.7375 56.55 68.8594 59.4281 68.8594 62.9781V208.436C68.8594 211.987 71.7375 214.866 75.2879 214.866H154.326C154.326 214.866 159.354 234.315 143.768 242.359H217.673C217.673 242.359 200.076 232.424 204.601 214.866H281.226C284.776 214.866 287.654 211.987 287.654 208.437V62.9785C287.654 59.4281 284.776 56.55 281.226 56.55Z" fill="#17282F"/>
<path d="M72.4053 183.255C72.4053 186.016 74.6438 188.255 77.4053 188.255H279.84C282.602 188.255 284.84 186.016 284.84 183.255V64.2243C284.84 61.4629 282.602 59.2243 279.84 59.2243H77.4053C74.6439 59.2243 72.4053 61.4629 72.4053 64.2243V183.255Z" fill="#FAFAF9"/>
<path d="M253.745 167.166H259.982V158.577H253.745V167.166Z" fill="#70A2FF"/>
<path d="M253.745 167.166H259.982V158.577H253.745V167.166Z" fill="#3478F6"/>
<path d="M240.572 167.166H246.809V153.519H240.572V167.166Z" fill="#70A2FF"/>
<path d="M240.572 167.166H246.809V153.519H240.572V167.166Z" fill="#3478F6"/>
<path d="M226.361 166.94H232.598V149.411H226.361V166.94Z" fill="#70A2FF"/>
<path d="M226.361 166.94H232.598V149.411H226.361V166.94Z" fill="#3478F6"/>
<path d="M94.5767 166.94H100.813V155.094H94.5767V166.94Z" fill="#70A2FF"/>
<path d="M94.5767 166.94H100.813V155.094H94.5767V166.94Z" fill="#3478F6"/>
<path d="M108.117 166.94H114.354V159.94H108.117V166.94Z" fill="#70A2FF"/>
<path d="M108.117 166.94H114.354V159.94H108.117V166.94Z" fill="#3478F6"/>
<path d="M120.7 167.166H126.937V151.1H120.7V167.166Z" fill="#70A2FF"/>
<path d="M120.7 167.166H126.937V151.1H120.7V167.166Z" fill="#3478F6"/>
<path d="M133.873 166.94H140.109V158.577H133.873V166.94Z" fill="#70A2FF"/>
<path d="M133.873 166.94H140.109V158.577H133.873V166.94Z" fill="#3478F6"/>
<path d="M146.824 166.94H153.06V151.1H146.824V166.94Z" fill="#70A2FF"/>
<path d="M159.651 166.94H165.887V130.845H159.651V166.94Z" fill="#70A2FF"/>
<path d="M173.023 166.94H179.26V116.031H173.023V166.94Z" fill="#70A2FF"/>
<path d="M186.335 166.94H192.571V136.917H186.335V166.94Z" fill="#70A2FF"/>
<path d="M159.651 166.94H165.887V130.845H159.651V166.94Z" fill="#3478F6"/>
<path d="M186.335 166.94H192.571V136.917H186.335V166.94Z" fill="#3478F6"/>
<path d="M218.672 166.94H212.435V131.972H218.672V166.94Z" fill="#33535F"/>
<path d="M199.625 166.94H205.862V121.333H199.625V166.94Z" fill="#70A2FF"/>
<path d="M90.349 109.85H89.3779V109.389H91.8644V109.85H90.8934V112.32H90.349V109.85" fill="#17282F"/>
<path d="M93.6664 111.202C93.6664 110.775 93.3816 110.503 93.0004 110.503C92.6236 110.503 92.3392 110.775 92.3392 111.202C92.3392 111.629 92.6236 111.901 93.0004 111.901C93.3816 111.901 93.6664 111.629 93.6664 111.202ZM91.8115 111.202C91.8115 110.532 92.3138 110.059 93.0004 110.059C93.6957 110.059 94.1936 110.532 94.1936 111.202C94.1936 111.872 93.6957 112.349 93.0004 112.349C92.3138 112.349 91.8115 111.872 91.8115 111.202Z" fill="#17282F"/>
<path d="M96.3719 111.202C96.3719 110.775 96.0827 110.503 95.7064 110.503C95.3296 110.503 95.0408 110.775 95.0408 111.202C95.0408 111.629 95.3296 111.901 95.7064 111.901C96.0827 111.901 96.3719 111.629 96.3719 111.202ZM96.8867 109.214V112.32H96.3844V112.031C96.2087 112.244 95.9491 112.349 95.6432 112.349C94.9944 112.349 94.5132 111.897 94.5132 111.202C94.5132 110.507 94.9944 110.059 95.6432 110.059C95.9324 110.059 96.1876 110.155 96.3633 110.36V109.214H96.8867Z" fill="#17282F"/>
<path d="M98.9233 111.621V111.361H98.3832C98.027 111.361 97.9307 111.495 97.9307 111.658C97.9307 111.847 98.0902 111.968 98.3578 111.968C98.6135 111.968 98.8352 111.851 98.9233 111.621V111.621ZM99.4462 111.009V112.32H98.9525V112.048C98.8266 112.24 98.5843 112.349 98.2491 112.349C97.7383 112.349 97.416 112.069 97.416 111.679C97.416 111.307 97.6669 111.013 98.3454 111.013H98.9233V110.98C98.9233 110.674 98.739 110.494 98.3665 110.494C98.1151 110.494 97.8556 110.578 97.688 110.716L97.4831 110.335C97.7215 110.151 98.0691 110.059 98.4292 110.059C99.0737 110.059 99.4462 110.365 99.4462 111.009" fill="#17282F"/>
<path d="M102.169 110.084L101.122 112.5C100.917 113.006 100.633 113.161 100.26 113.161C100.038 113.161 99.8033 113.086 99.6611 112.956L99.8704 112.571C99.9709 112.667 100.113 112.726 100.256 112.726C100.44 112.726 100.549 112.638 100.649 112.416L100.687 112.328L99.7114 110.084H100.256L100.959 111.738L101.666 110.084H102.169" fill="#17282F"/>
<path d="M89.8855 118.465V119.958H89.7318V118.601H89.3799V118.465H89.8855Z" fill="#17282F"/>
<path d="M91.2764 119.211C91.2764 118.812 91.0973 118.593 90.8369 118.593C90.5764 118.593 90.3973 118.812 90.3973 119.211C90.3973 119.61 90.5764 119.83 90.8369 119.83C91.0973 119.83 91.2764 119.61 91.2764 119.211ZM90.2417 119.211C90.2417 118.735 90.4912 118.452 90.8369 118.452C91.1826 118.452 91.4339 118.735 91.4339 119.211C91.4339 119.687 91.1826 119.971 90.8369 119.971C90.4912 119.971 90.2417 119.687 90.2417 119.211Z" fill="#17282F"/>
<path d="M91.6328 119.851C91.6328 119.784 91.6842 119.735 91.7461 119.735C91.8081 119.735 91.8614 119.784 91.8614 119.851C91.8614 119.917 91.8081 119.969 91.7461 119.969C91.6842 119.969 91.6328 119.917 91.6328 119.851Z" fill="#17282F"/>
<path d="M93.0938 119.211C93.0938 118.812 92.9147 118.593 92.6543 118.593C92.3943 118.593 92.2152 118.812 92.2152 119.211C92.2152 119.61 92.3943 119.83 92.6543 119.83C92.9147 119.83 93.0938 119.61 93.0938 119.211ZM92.0596 119.211C92.0596 118.735 92.309 118.452 92.6543 118.452C93 118.452 93.2518 118.735 93.2518 119.211C93.2518 119.687 93 119.971 92.6543 119.971C92.309 119.971 92.0596 119.687 92.0596 119.211Z" fill="#17282F"/>
<path d="M94.5059 119.211C94.5059 118.812 94.3268 118.593 94.0664 118.593C93.8064 118.593 93.6273 118.812 93.6273 119.211C93.6273 119.61 93.8064 119.83 94.0664 119.83C94.3268 119.83 94.5059 119.61 94.5059 119.211ZM93.4717 119.211C93.4717 118.735 93.7211 118.452 94.0664 118.452C94.4125 118.452 94.6639 118.735 94.6639 119.211C94.6639 119.687 94.4125 119.971 94.0664 119.971C93.7211 119.971 93.4717 119.687 93.4717 119.211Z" fill="#17282F"/>
<path d="M95.9185 119.211C95.9185 118.812 95.7394 118.593 95.4789 118.593C95.219 118.593 95.0399 118.812 95.0399 119.211C95.0399 119.61 95.219 119.83 95.4789 119.83C95.7394 119.83 95.9185 119.61 95.9185 119.211ZM94.8838 119.211C94.8838 118.735 95.1332 118.452 95.4789 118.452C95.8247 118.452 96.0765 118.735 96.0765 119.211C96.0765 119.687 95.8247 119.971 95.4789 119.971C95.1332 119.971 94.8838 119.687 94.8838 119.211Z" fill="#17282F"/>
<path d="M260.609 174.647C260.609 174.715 222.271 174.771 174.989 174.771C127.691 174.771 89.3613 174.715 89.3613 174.647C89.3613 174.578 127.691 174.522 174.989 174.522C222.271 174.522 260.609 174.578 260.609 174.647Z" fill="#DADBD8"/>
<path d="M199.625 166.94H205.862V121.333H199.625V166.94Z" fill="#3478F6"/>
<path d="M146.824 166.94H153.06V151.1H146.824V166.94Z" fill="#3478F6"/>
<path d="M101.73 119.534C101.73 119.603 101.087 119.659 100.294 119.659C99.501 119.659 98.8579 119.603 98.8579 119.534C98.8579 119.466 99.501 119.41 100.294 119.41C101.087 119.41 101.73 119.466 101.73 119.534Z" fill="#17282F"/>
<path d="M113.169 119.534C113.169 119.603 111.889 119.659 110.309 119.659C108.73 119.659 107.449 119.603 107.449 119.534C107.449 119.466 108.73 119.41 110.309 119.41C111.889 119.41 113.169 119.466 113.169 119.534Z" fill="#17282F"/>
<path d="M124.611 119.534C124.611 119.603 123.33 119.659 121.751 119.659C120.17 119.659 118.89 119.603 118.89 119.534C118.89 119.466 120.17 119.41 121.751 119.41C123.33 119.41 124.611 119.466 124.611 119.534Z" fill="#17282F"/>
<path d="M136.052 119.534C136.052 119.603 134.772 119.659 133.192 119.659C131.611 119.659 130.331 119.603 130.331 119.534C130.331 119.466 131.611 119.41 133.192 119.41C134.772 119.41 136.052 119.466 136.052 119.534Z" fill="#17282F"/>
<path d="M147.495 119.534C147.495 119.603 146.214 119.659 144.634 119.659C143.054 119.659 141.774 119.603 141.774 119.534C141.774 119.466 143.054 119.41 144.634 119.41C146.214 119.41 147.495 119.466 147.495 119.534Z" fill="#17282F"/>
<path d="M158.938 119.534C158.938 119.603 157.657 119.659 156.077 119.659C154.497 119.659 153.216 119.603 153.216 119.534C153.216 119.466 154.497 119.41 156.077 119.41C157.657 119.41 158.938 119.466 158.938 119.534Z" fill="#17282F"/>
<path d="M170.381 119.534C170.381 119.603 169.101 119.659 167.521 119.659C165.941 119.659 164.66 119.603 164.66 119.534C164.66 119.466 165.941 119.41 167.521 119.41C169.101 119.41 170.381 119.466 170.381 119.534Z" fill="#17282F"/>
<path d="M181.822 119.534C181.822 119.604 180.542 119.659 178.962 119.659C177.382 119.659 176.101 119.604 176.101 119.534C176.101 119.466 177.382 119.41 178.962 119.41C180.542 119.41 181.822 119.466 181.822 119.534Z" fill="#17282F"/>
<path d="M193.264 119.534C193.264 119.603 191.983 119.659 190.404 119.659C188.823 119.659 187.543 119.603 187.543 119.534C187.543 119.466 188.823 119.41 190.404 119.41C191.983 119.41 193.264 119.466 193.264 119.534Z" fill="#17282F"/>
<path d="M204.706 119.534C204.706 119.603 203.425 119.659 201.846 119.659C200.266 119.659 198.985 119.603 198.985 119.534C198.985 119.466 200.266 119.41 201.846 119.41C203.425 119.41 204.706 119.466 204.706 119.534Z" fill="#17282F"/>
<path d="M216.149 119.534C216.149 119.603 214.868 119.659 213.288 119.659C211.708 119.659 210.427 119.603 210.427 119.534C210.427 119.466 211.708 119.41 213.288 119.41C214.868 119.41 216.149 119.466 216.149 119.534Z" fill="#17282F"/>
<path d="M227.591 119.534C227.591 119.603 226.31 119.659 224.731 119.659C223.15 119.659 221.87 119.603 221.87 119.534C221.87 119.466 223.15 119.41 224.731 119.41C226.31 119.41 227.591 119.466 227.591 119.534Z" fill="#17282F"/>
<path d="M239.036 119.534C239.036 119.603 237.755 119.659 236.175 119.659C234.594 119.659 233.313 119.603 233.313 119.534C233.313 119.466 234.594 119.41 236.175 119.41C237.755 119.41 239.036 119.466 239.036 119.534Z" fill="#17282F"/>
<path d="M250.482 119.534C250.482 119.603 249.201 119.659 247.62 119.659C246.039 119.659 244.759 119.603 244.759 119.534C244.759 119.466 246.039 119.41 247.62 119.41C249.201 119.41 250.482 119.466 250.482 119.534Z" fill="#17282F"/>
<path d="M259.068 119.534C259.068 119.603 258.426 119.659 257.633 119.659C256.84 119.659 256.197 119.603 256.197 119.534C256.197 119.466 256.84 119.41 257.633 119.41C258.426 119.41 259.068 119.466 259.068 119.534Z" fill="#17282F"/>
<path d="M100.813 160.733C100.862 160.782 99.5106 162.212 97.7955 163.928C96.08 165.643 94.6502 166.994 94.6014 166.945C94.5525 166.896 95.9033 165.467 97.6189 163.751C99.334 162.036 100.764 160.685 100.813 160.733Z" fill="#70A2FF"/>
<path d="M114.313 160.838C114.362 160.886 113.01 162.317 111.296 164.032C109.58 165.748 108.15 167.098 108.101 167.049C108.053 167.001 109.403 165.57 111.119 163.855C112.834 162.14 114.264 160.789 114.313 160.838Z" fill="#70A2FF"/>
<path d="M140.097 160.728C140.146 160.777 138.794 162.207 137.079 163.922C135.364 165.638 133.934 166.989 133.886 166.94C133.837 166.891 135.187 165.462 136.903 163.746C138.618 162.031 140.048 160.68 140.097 160.728Z" fill="#70A2FF"/>
<path d="M100.729 155.216C100.777 155.264 99.4262 156.694 97.7111 158.409C95.9955 160.125 94.5657 161.476 94.5169 161.427C94.4681 161.379 95.8193 159.949 97.5349 158.233C99.25 156.518 100.68 155.167 100.729 155.216Z" fill="#70A2FF"/>
<path d="M127.032 160.823C127.081 160.872 125.729 162.302 124.015 164.017C122.299 165.733 120.869 167.084 120.821 167.035C120.772 166.986 122.123 165.557 123.839 163.841C125.553 162.126 126.983 160.775 127.032 160.823Z" fill="#70A2FF"/>
<path d="M126.948 155.306C126.997 155.355 125.645 156.785 123.93 158.5C122.215 160.215 120.785 161.566 120.736 161.518C120.687 161.469 122.038 160.039 123.754 158.324C125.469 156.609 126.899 155.257 126.948 155.306Z" fill="#70A2FF"/>
<path d="M125.004 151.1C125.053 151.149 124.137 152.144 122.958 153.322C121.78 154.501 120.785 155.417 120.736 155.368C120.687 155.319 121.603 154.325 122.782 153.146C123.961 151.967 124.956 151.051 125.004 151.1Z" fill="#70A2FF"/>
<path d="M173.082 166.942C173.08 166.942 173.079 166.941 173.078 166.94H173.088C173.086 166.941 173.083 166.942 173.082 166.942ZM179.26 160.787V160.738C179.272 160.73 179.281 160.727 179.285 160.727C179.287 160.727 179.288 160.727 179.289 160.728C179.295 160.733 179.284 160.753 179.26 160.787Z" fill="#FEFEFE"/>
<path d="M173.088 166.94H173.078C173.029 166.891 174.379 165.462 176.095 163.746C177.692 162.149 179.042 160.867 179.26 160.738V160.787C179.052 161.079 177.807 162.386 176.272 163.922C174.616 165.578 173.227 166.894 173.088 166.94" fill="#3478F6"/>
<path d="M172.998 161.423C172.996 161.423 172.995 161.423 172.994 161.422C172.989 161.417 172.999 161.397 173.024 161.362V161.412C173.012 161.419 173.003 161.423 172.998 161.423Z" fill="#FEFEFE"/>
<path d="M173.023 161.412V161.363C173.231 161.071 174.475 159.765 176.012 158.228C177.696 156.543 179.106 155.209 179.202 155.209C179.203 155.209 179.204 155.21 179.205 155.211C179.254 155.259 177.903 156.69 176.188 158.404C174.591 160.002 173.241 161.283 173.023 161.412Z" fill="#3478F6"/>
<path d="M172.998 155.275C172.996 155.275 172.995 155.274 172.994 155.274C172.989 155.268 172.999 155.248 173.024 155.213V155.263C173.012 155.271 173.003 155.275 172.998 155.275Z" fill="#FEFEFE"/>
<path d="M173.023 155.263V155.214C173.231 154.923 174.475 153.615 176.012 152.079C177.696 150.394 179.106 149.06 179.201 149.06C179.203 149.06 179.204 149.061 179.205 149.062C179.254 149.111 177.903 150.54 176.188 152.256C174.591 153.853 173.241 155.134 173.023 155.263" fill="#3478F6"/>
<path d="M179.26 143.174V143.124C179.272 143.116 179.281 143.112 179.286 143.112C179.288 143.112 179.289 143.113 179.29 143.114C179.295 143.119 179.285 143.14 179.26 143.174Z" fill="#FEFEFE"/>
<path d="M173.082 149.328C173.08 149.328 173.078 149.327 173.078 149.327C173.029 149.278 174.379 147.848 176.095 146.133C177.692 144.536 179.042 143.254 179.26 143.124V143.174C179.052 143.466 177.807 144.773 176.272 146.309C174.586 147.994 173.177 149.328 173.082 149.328" fill="#3478F6"/>
<path d="M172.998 143.81C172.996 143.81 172.995 143.81 172.994 143.809C172.989 143.803 172.999 143.783 173.024 143.749V143.799C173.012 143.806 173.003 143.81 172.998 143.81Z" fill="#FEFEFE"/>
<path d="M173.023 143.799V143.75C173.231 143.458 174.475 142.151 176.012 140.614C177.696 138.93 179.106 137.596 179.202 137.596C179.203 137.596 179.204 137.596 179.205 137.597C179.254 137.646 177.903 139.076 176.188 140.791C174.591 142.388 173.241 143.67 173.023 143.799Z" fill="#3478F6"/>
<path d="M172.998 137.661C172.996 137.661 172.995 137.66 172.994 137.659C172.989 137.655 172.999 137.634 173.024 137.6V137.65C173.012 137.657 173.003 137.661 172.998 137.661Z" fill="#FEFEFE"/>
<path d="M173.023 137.65V137.601C173.231 137.309 174.475 136.002 176.012 134.465C177.696 132.78 179.106 131.447 179.202 131.447C179.203 131.447 179.204 131.447 179.205 131.448C179.254 131.497 177.903 132.927 176.188 134.642C174.591 136.239 173.241 137.52 173.023 137.65Z" fill="#3478F6"/>
<path d="M192.464 160.728C192.512 160.777 191.162 162.207 189.446 163.922C187.731 165.638 186.301 166.989 186.252 166.94C186.204 166.891 187.555 165.462 189.27 163.746C190.985 162.031 192.415 160.68 192.464 160.728Z" fill="#70A2FF"/>
<path d="M192.379 155.211C192.428 155.259 191.077 156.69 189.362 158.405C187.646 160.121 186.217 161.471 186.168 161.422C186.119 161.374 187.47 159.944 189.186 158.228C190.901 156.513 192.331 155.162 192.379 155.211Z" fill="#70A2FF"/>
<path d="M192.379 149.062C192.428 149.11 191.077 150.54 189.362 152.255C187.646 153.971 186.217 155.322 186.168 155.273C186.119 155.225 187.47 153.795 189.186 152.079C190.901 150.364 192.331 149.012 192.379 149.062Z" fill="#70A2FF"/>
<path d="M192.464 143.115C192.512 143.164 191.162 144.594 189.446 146.309C187.731 148.024 186.301 149.375 186.252 149.327C186.204 149.278 187.555 147.848 189.27 146.132C190.985 144.417 192.415 143.066 192.464 143.115Z" fill="#70A2FF"/>
<path d="M192.379 137.597C192.428 137.646 191.077 139.076 189.362 140.791C187.646 142.507 186.217 143.858 186.168 143.809C186.119 143.76 187.47 142.33 189.186 140.614C190.901 138.9 192.331 137.549 192.379 137.597Z" fill="#70A2FF"/>
<path d="M218.62 160.728C218.668 160.777 217.317 162.207 215.602 163.922C213.887 165.638 212.457 166.989 212.408 166.94C212.36 166.891 213.71 165.462 215.426 163.746C217.141 162.031 218.571 160.68 218.62 160.728" fill="#17282F"/>
<path d="M218.535 155.211C218.584 155.259 217.233 156.69 215.518 158.405C213.802 160.121 212.372 161.471 212.324 161.422C212.275 161.374 213.626 159.944 215.341 158.228C217.057 156.513 218.487 155.162 218.535 155.211" fill="#17282F"/>
<path d="M218.535 149.062C218.584 149.11 217.233 150.54 215.518 152.255C213.802 153.971 212.372 155.322 212.324 155.273C212.275 155.225 213.626 153.795 215.341 152.079C217.057 150.364 218.487 149.012 218.535 149.062" fill="#17282F"/>
<path d="M218.62 143.115C218.668 143.164 217.317 144.594 215.602 146.309C213.887 148.024 212.457 149.375 212.408 149.327C212.36 149.278 213.71 147.848 215.426 146.132C217.141 144.417 218.571 143.066 218.62 143.115" fill="#17282F"/>
<path d="M218.535 137.597C218.584 137.646 217.233 139.076 215.518 140.791C213.802 142.507 212.372 143.858 212.324 143.809C212.275 143.76 213.626 142.33 215.341 140.614C217.057 138.9 218.487 137.549 218.535 137.597" fill="#17282F"/>
<path d="M218.535 132.333C218.584 132.382 217.233 133.812 215.518 135.526C213.802 137.242 212.372 138.593 212.324 138.544C212.275 138.496 213.626 137.066 215.341 135.35C217.057 133.635 218.487 132.284 218.535 132.333" fill="#17282F"/>
<path d="M165.855 160.728C165.904 160.777 164.553 162.207 162.838 163.922C161.122 165.638 159.692 166.989 159.643 166.94C159.595 166.891 160.946 165.462 162.661 163.746C164.376 162.031 165.806 160.68 165.855 160.728Z" fill="#70A2FF"/>
<path d="M165.771 155.211C165.819 155.259 164.468 156.69 162.753 158.405C161.037 160.121 159.608 161.471 159.559 161.422C159.511 161.374 160.861 159.944 162.577 158.228C164.292 156.513 165.722 155.162 165.771 155.211Z" fill="#70A2FF"/>
<path d="M165.771 149.062C165.819 149.11 164.468 150.54 162.753 152.255C161.037 153.971 159.608 155.322 159.559 155.273C159.511 155.225 160.861 153.795 162.577 152.079C164.292 150.364 165.722 149.012 165.771 149.062Z" fill="#70A2FF"/>
<path d="M153.212 160.728C153.261 160.777 151.91 162.207 150.194 163.922C148.479 165.638 147.049 166.989 147 166.94C146.952 166.891 148.303 165.462 150.018 163.746C151.733 162.031 153.164 160.68 153.212 160.728Z" fill="#70A2FF"/>
<path d="M153.128 155.211C153.177 155.259 151.825 156.69 150.11 158.405C148.394 160.121 146.965 161.471 146.916 161.422C146.867 161.374 148.218 159.944 149.934 158.228C151.649 156.513 153.079 155.162 153.128 155.211Z" fill="#70A2FF"/>
<path d="M151.142 151.047C151.191 151.096 150.284 152.082 149.118 153.248C147.951 154.416 146.965 155.322 146.916 155.274C146.868 155.225 147.774 154.239 148.941 153.072C150.108 151.905 151.094 150.998 151.142 151.047Z" fill="#70A2FF"/>
<path d="M165.855 143.115C165.904 143.164 164.553 144.594 162.838 146.309C161.122 148.024 159.692 149.375 159.643 149.327C159.595 149.278 160.946 147.848 162.661 146.132C164.376 144.417 165.806 143.066 165.855 143.115Z" fill="#70A2FF"/>
<path d="M165.855 132.057C165.904 132.106 164.553 133.536 162.838 135.251C161.122 136.967 159.692 138.317 159.643 138.268C159.595 138.22 160.946 136.79 162.661 135.074C164.376 133.359 165.806 132.009 165.855 132.057Z" fill="#70A2FF"/>
<path d="M165.771 137.597C165.819 137.646 164.468 139.076 162.753 140.791C161.037 142.507 159.608 143.858 159.559 143.809C159.511 143.76 160.861 142.33 162.577 140.614C164.292 138.9 165.722 137.549 165.771 137.597Z" fill="#70A2FF"/>
<path d="M205.937 160.728C205.985 160.777 204.635 162.207 202.92 163.922C201.204 165.638 199.774 166.989 199.725 166.94C199.677 166.891 201.028 165.462 202.743 163.746C204.458 162.031 205.888 160.68 205.937 160.728" fill="#70A2FF"/>
<path d="M205.853 155.211C205.901 155.259 204.551 156.69 202.836 158.405C201.12 160.121 199.69 161.471 199.641 161.422C199.593 161.374 200.944 159.944 202.659 158.228C204.374 156.513 205.804 155.162 205.853 155.211" fill="#70A2FF"/>
<path d="M205.853 149.062C205.901 149.11 204.551 150.54 202.836 152.255C201.12 153.971 199.69 155.322 199.641 155.273C199.593 155.225 200.944 153.795 202.659 152.079C204.374 150.364 205.804 149.012 205.853 149.062" fill="#70A2FF"/>
<path d="M205.937 143.115C205.985 143.164 204.635 144.594 202.92 146.309C201.204 148.024 199.774 149.375 199.725 149.327C199.677 149.278 201.028 147.848 202.743 146.132C204.458 144.417 205.888 143.066 205.937 143.115" fill="#70A2FF"/>
<path d="M205.853 137.597C205.901 137.646 204.551 139.076 202.836 140.791C201.12 142.507 199.69 143.858 199.641 143.809C199.593 143.76 200.944 142.33 202.659 140.614C204.374 138.9 205.804 137.549 205.853 137.597" fill="#70A2FF"/>
<path d="M205.853 131.448C205.901 131.497 204.551 132.927 202.836 134.642C201.12 136.357 199.69 137.708 199.641 137.659C199.593 137.611 200.944 136.181 202.659 134.466C204.374 132.75 205.804 131.399 205.853 131.448" fill="#70A2FF"/>
<path d="M205.853 125.86C205.901 125.908 204.551 127.339 202.836 129.054C201.12 130.769 199.69 132.12 199.641 132.071C199.593 132.022 200.944 130.593 202.659 128.877C204.374 127.162 205.804 125.811 205.853 125.86" fill="#70A2FF"/>
<path d="M204.791 121.333C204.84 121.382 203.726 122.575 202.304 123.996C200.882 125.419 199.69 126.532 199.641 126.483C199.593 126.434 200.706 125.242 202.128 123.82C203.55 122.398 204.742 121.285 204.791 121.333Z" fill="#70A2FF"/>
<path d="M179.26 125.26V125.21C179.272 125.203 179.281 125.199 179.286 125.199C179.288 125.199 179.289 125.199 179.29 125.2C179.295 125.206 179.285 125.226 179.26 125.26Z" fill="#FEFEFE"/>
<path d="M173.082 131.414C173.08 131.414 173.078 131.414 173.078 131.413C173.029 131.364 174.379 129.935 176.095 128.219C177.692 126.622 179.042 125.341 179.26 125.211V125.261C179.052 125.552 177.807 126.859 176.272 128.395C174.586 130.081 173.177 131.414 173.082 131.414" fill="#3478F6"/>
<path d="M172.998 125.896C172.996 125.896 172.995 125.896 172.994 125.896C172.989 125.89 172.999 125.87 173.024 125.835V125.886C173.012 125.893 173.003 125.896 172.998 125.896Z" fill="#FEFEFE"/>
<path d="M173.023 125.886V125.836C173.231 125.545 174.475 124.237 176.012 122.701C177.696 121.016 179.106 119.682 179.202 119.682C179.203 119.682 179.204 119.683 179.205 119.683C179.254 119.732 177.903 121.163 176.188 122.878C174.591 124.474 173.241 125.756 173.023 125.886Z" fill="#3478F6"/>
<path d="M173 119.749C172.997 119.749 172.995 119.748 172.994 119.746C172.987 119.739 172.997 119.715 173.023 119.676V119.741C173.013 119.746 173.005 119.749 173 119.749V119.749ZM176.708 116.032H176.691C176.695 116.031 176.698 116.03 176.701 116.03C176.704 116.03 176.707 116.031 176.708 116.032" fill="#FEFEFE"/>
<path d="M173.023 119.741V119.676C173.178 119.444 173.884 118.679 174.762 117.801C175.728 116.836 176.557 116.077 176.691 116.032H176.708C176.757 116.08 175.965 116.951 174.939 117.977C174 118.916 173.191 119.66 173.023 119.741" fill="#3478F6"/>
<path d="M232.627 160.954C232.676 161.002 231.325 162.433 229.61 164.148C227.894 165.864 226.465 167.215 226.416 167.166C226.367 167.117 227.718 165.688 229.434 163.972C231.148 162.257 232.579 160.905 232.627 160.954" fill="#70A2FF"/>
<path d="M232.543 155.436C232.592 155.485 231.241 156.915 229.526 158.63C227.81 160.346 226.381 161.697 226.332 161.648C226.283 161.599 227.634 160.17 229.35 158.454C231.065 156.739 232.495 155.388 232.543 155.436" fill="#70A2FF"/>
<path d="M232.509 149.322C232.557 149.371 231.214 150.793 229.509 152.499C227.803 154.205 226.381 155.548 226.332 155.499C226.283 155.451 227.626 154.029 229.333 152.322C231.038 150.617 232.46 149.273 232.509 149.322Z" fill="#70A2FF"/>
<path d="M246.823 160.954C246.872 161.002 245.52 162.433 243.805 164.148C242.089 165.864 240.66 167.215 240.611 167.166C240.562 167.117 241.913 165.688 243.629 163.972C245.344 162.257 246.774 160.905 246.823 160.954" fill="#70A2FF"/>
<path d="M246.738 155.436C246.787 155.485 245.436 156.915 243.721 158.63C242.005 160.346 240.576 161.697 240.527 161.648C240.478 161.599 241.829 160.17 243.544 158.454C245.26 156.739 246.69 155.388 246.738 155.436Z" fill="#70A2FF"/>
<path d="M242.495 153.531C242.519 153.555 242.43 153.689 242.267 153.883C242.186 153.981 242.085 154.095 241.971 154.217C241.908 154.284 241.849 154.347 241.79 154.409L241.693 154.508L241.643 154.559L241.618 154.584L241.605 154.597L241.599 154.604L241.596 154.606L241.597 154.605H241.597C241.519 154.526 241.773 154.781 241.421 154.429L241.423 154.427L241.425 154.425C241.386 154.387 241.758 154.759 241.601 154.601L241.601 154.601L241.602 154.6L241.599 154.603L241.593 154.609L241.58 154.622L241.555 154.647L241.505 154.697L241.405 154.795C241.343 154.853 241.28 154.912 241.213 154.975C241.091 155.09 240.977 155.19 240.879 155.272C240.684 155.434 240.551 155.523 240.527 155.499C240.503 155.475 240.592 155.342 240.755 155.147C240.836 155.049 240.937 154.935 241.051 154.813C241.114 154.746 241.173 154.683 241.232 154.621L241.329 154.522L241.379 154.471L241.404 154.446L241.417 154.433L241.423 154.426L241.426 154.424L241.425 154.424L241.425 154.425C241.267 154.267 241.639 154.64 241.601 154.602L241.599 154.603L241.598 154.605C241.245 154.253 241.499 154.507 241.421 154.429H241.42L241.419 154.43L241.422 154.427L241.429 154.421L241.441 154.408L241.467 154.383L241.518 154.333L241.617 154.236C241.679 154.177 241.742 154.118 241.809 154.055C241.931 153.941 242.045 153.84 242.142 153.759C242.338 153.596 242.47 153.507 242.495 153.531" fill="#70A2FF"/>
<path d="M259.969 160.954C260.018 161.002 258.667 162.433 256.951 164.148C255.236 165.864 253.806 167.215 253.758 167.166C253.709 167.117 255.06 165.688 256.775 163.972C258.49 162.257 259.921 160.905 259.969 160.954" fill="#70A2FF"/>
<path d="M256.674 158.647C256.724 158.696 256.091 159.407 255.262 160.236C254.433 161.064 253.722 161.697 253.674 161.648C253.625 161.599 254.257 160.888 255.086 160.06C255.914 159.231 256.626 158.598 256.674 158.647Z" fill="#70A2FF"/>
<path d="M284.84 70.9995C284.84 71.0685 237.281 71.124 178.628 71.124C119.954 71.124 72.4053 71.0685 72.4053 70.9995C72.4053 70.9306 119.954 70.875 178.628 70.875C237.281 70.875 284.84 70.9306 284.84 70.9995Z" fill="#17282F"/>
<path d="M145.847 100.39H105.727C104.5 100.39 103.505 99.3952 103.505 98.1684V87.705C103.505 86.4782 104.5 85.4838 105.727 85.4838H145.847C147.074 85.4838 148.069 86.4782 148.069 87.705V98.1684C148.069 99.3952 147.074 100.39 145.847 100.39Z" fill="#70A2FF"/>
<path d="M111.899 93.0016L113.238 95.2736L114.135 94.7263L112.559 92.5985L113.892 92.1919L110.656 90.1943L110.409 90.2183L110.648 90.1996L110.952 94.0775L111.899 93.0016ZM113.073 95.9358L111.825 93.818L111.324 94.395C111.196 94.5429 110.993 94.598 110.806 94.5372C110.621 94.4759 110.49 94.3102 110.475 94.1153L110.17 90.237C110.156 90.0545 110.245 89.8817 110.401 89.7859C110.557 89.6902 110.75 89.6902 110.907 89.7864L114.144 91.7735C114.308 91.875 114.395 92.0569 114.371 92.2485C114.346 92.44 114.216 92.5937 114.032 92.6502L113.347 92.8589L114.831 94.8623L113.073 95.9358" fill="white"/>
<path d="M120.131 99.3018C120.062 99.3018 120.007 96.381 120.007 92.7794C120.007 89.1768 120.062 86.257 120.131 86.257C120.2 86.257 120.256 89.1768 120.256 92.7794C120.256 96.381 120.2 99.3018 120.131 99.3018Z" fill="#3478F6"/>
<path d="M122.609 89.9661C122.609 89.482 122.977 89.1258 123.475 89.1258C123.716 89.1258 123.933 89.2062 124.079 89.3666L123.968 89.4777C123.834 89.3403 123.668 89.2814 123.48 89.2814C123.081 89.2814 122.781 89.5744 122.781 89.9661C122.781 90.3577 123.081 90.6503 123.48 90.6503C123.668 90.6503 123.834 90.5914 123.968 90.4521L124.079 90.5632C123.933 90.7236 123.716 90.8059 123.473 90.8059C122.977 90.8059 122.609 90.4497 122.609 89.9661" fill="white"/>
<path d="M124.418 89.0405H124.586V90.792H124.418V89.0405Z" fill="white"/>
<path d="M125.054 89.5504H125.222V90.792H125.054V89.5504ZM125.017 89.1588C125.017 89.0951 125.071 89.0405 125.139 89.0405C125.208 89.0405 125.262 89.0927 125.262 89.1564C125.262 89.2248 125.21 89.279 125.139 89.279C125.071 89.279 125.017 89.2248 125.017 89.1588Z" fill="white"/>
<path d="M125.564 90.1707C125.564 89.8006 125.834 89.5406 126.204 89.5406C126.414 89.5406 126.591 89.6234 126.69 89.7862L126.565 89.871C126.48 89.746 126.348 89.6871 126.204 89.6871C125.933 89.6871 125.734 89.8806 125.734 90.1707C125.734 90.4637 125.933 90.6548 126.204 90.6548C126.348 90.6548 126.48 90.5978 126.565 90.4728L126.69 90.5581C126.591 90.7185 126.414 90.8032 126.204 90.8032C125.834 90.8032 125.564 90.5413 125.564 90.1707Z" fill="white"/>
<path d="M127.461 90.1686L127.168 90.4377V90.792H127V89.0405H127.168V90.228L127.909 89.5504H128.117L127.586 90.058L128.166 90.792H127.961L127.461 90.1686" fill="white"/>
<path d="M128.21 90.65L128.286 90.5179C128.385 90.5954 128.552 90.6572 128.727 90.6572C128.963 90.6572 129.059 90.5768 129.059 90.4542C129.059 90.131 128.255 90.3857 128.255 89.8949C128.255 89.6919 128.429 89.5406 128.746 89.5406C128.906 89.5406 129.081 89.5856 129.185 89.6565L129.112 89.791C129.003 89.7154 128.873 89.6847 128.746 89.6847C128.522 89.6847 128.423 89.7723 128.423 89.8901C128.423 90.2253 129.227 89.9725 129.227 90.4494C129.227 90.6644 129.038 90.8032 128.715 90.8032C128.51 90.8032 128.311 90.7371 128.21 90.65" fill="white"/>
<path d="M123.964 93.0786V96.6946H123.292V93.6422H122.528V93.0786H123.964Z" fill="white"/>
<path d="M127.026 94.8869C127.026 94.014 126.685 93.6113 126.189 93.6113C125.698 93.6113 125.357 94.014 125.357 94.8869C125.357 95.7602 125.698 96.1629 126.189 96.1629C126.685 96.1629 127.026 95.7602 127.026 94.8869ZM124.681 94.8869C124.681 93.6989 125.331 93.0277 126.189 93.0277C127.052 93.0277 127.702 93.6989 127.702 94.8869C127.702 96.0753 127.052 96.7466 126.189 96.7466C125.331 96.7466 124.681 96.0753 124.681 94.8869Z" fill="white"/>
<path d="M128.072 96.3019C128.072 96.0439 128.263 95.8734 128.496 95.8734C128.729 95.8734 128.919 96.0439 128.919 96.3019C128.919 96.55 128.729 96.731 128.496 96.731C128.263 96.731 128.072 96.55 128.072 96.3019Z" fill="white"/>
<path d="M131.982 95.5845C131.982 96.2199 131.522 96.7466 130.551 96.7466C130.04 96.7466 129.523 96.5914 129.192 96.3281L129.477 95.8067C129.74 96.0236 130.133 96.1629 130.541 96.1629C131.021 96.1629 131.305 95.9513 131.305 95.6104C131.305 95.2642 131.083 95.0473 130.334 95.0473H129.461L129.647 93.0789H131.77V93.6424H130.216L130.138 94.4789H130.484C131.553 94.4789 131.982 94.9439 131.982 95.5845" fill="white"/>
<path d="M134.712 94.8869C134.712 94.014 134.371 93.6113 133.876 93.6113C133.385 93.6113 133.044 94.014 133.044 94.8869C133.044 95.7602 133.385 96.1629 133.876 96.1629C134.371 96.1629 134.712 95.7602 134.712 94.8869ZM132.367 94.8869C132.367 93.6989 133.018 93.0277 133.876 93.0277C134.738 93.0277 135.389 93.6989 135.389 94.8869C135.389 96.0753 134.738 96.7466 133.876 96.7466C133.018 96.7466 132.367 96.0753 132.367 94.8869Z" fill="white"/>
<path d="M138.186 94.8869C138.186 94.014 137.846 93.6113 137.349 93.6113C136.859 93.6113 136.518 94.014 136.518 94.8869C136.518 95.7602 136.859 96.1629 137.349 96.1629C137.846 96.1629 138.186 95.7602 138.186 94.8869ZM135.841 94.8869C135.841 93.6989 136.492 93.0277 137.349 93.0277C138.212 93.0277 138.863 93.6989 138.863 94.8869C138.863 96.0753 138.212 96.7466 137.349 96.7466C136.492 96.7466 135.841 96.0753 135.841 94.8869Z" fill="white"/>
<path d="M199.413 100.39H157.51C156.775 100.39 156.18 99.7945 156.18 99.0595V86.8139C156.18 86.0794 156.775 85.4838 157.51 85.4838H199.413C200.148 85.4838 200.743 86.0794 200.743 86.8139V99.0595C200.743 99.7945 200.148 100.39 199.413 100.39Z" fill="#70A2FF"/>
<path d="M199.108 100.39H157.815C156.912 100.39 156.18 99.658 156.18 98.7545V87.1189C156.18 86.2159 156.912 85.4838 157.815 85.4838H199.108C200.011 85.4838 200.743 86.2159 200.743 87.1189V98.7545C200.743 99.658 200.011 100.39 199.108 100.39" fill="#3478F6"/>
<path d="M176.549 89.7065C176.549 89.4417 176.373 89.2909 176.044 89.2909H175.604V90.1169H176.044C176.373 90.1169 176.549 89.966 176.549 89.7065ZM176.723 89.7065C176.723 90.058 176.468 90.2701 176.048 90.2701H175.604V90.792H175.43V89.1396H176.048C176.468 89.1396 176.723 89.3522 176.723 89.7065Z" fill="white"/>
<path d="M177.102 90.0975H177.983C177.962 89.8547 177.784 89.6847 177.541 89.6847C177.3 89.6847 177.124 89.8547 177.102 90.0975ZM178.141 90.2229H177.102C177.121 90.4824 177.32 90.6548 177.591 90.6548C177.742 90.6548 177.876 90.6002 177.971 90.492L178.066 90.6002C177.954 90.7328 177.782 90.8032 177.586 90.8032C177.199 90.8032 176.935 90.5389 176.935 90.1707C176.935 89.803 177.192 89.5406 177.541 89.5406C177.89 89.5406 178.143 89.7982 178.143 90.1707L178.141 90.2229" fill="white"/>
<path d="M179.112 89.5409V89.7041L179.071 89.7017C178.812 89.7017 178.654 89.8669 178.654 90.1595V90.792H178.486V89.5504H178.647V89.7937C178.725 89.6285 178.883 89.5409 179.112 89.5409" fill="white"/>
<path d="M179.624 89.4044V89.5504H180.007V89.6922H179.63V90.792H179.462V89.6922H179.24V89.5504H179.462V89.3972C179.462 89.1755 179.594 89.029 179.837 89.029C179.929 89.029 180.023 89.0549 180.085 89.1071L180.028 89.232C179.981 89.1918 179.915 89.1707 179.844 89.1707C179.7 89.1707 179.624 89.2507 179.624 89.4044" fill="white"/>
<path d="M181.181 90.1707C181.181 89.8806 180.985 89.6871 180.72 89.6871C180.456 89.6871 180.258 89.8806 180.258 90.1707C180.258 90.4614 180.456 90.6548 180.72 90.6548C180.985 90.6548 181.181 90.4614 181.181 90.1707ZM180.088 90.1707C180.088 89.803 180.357 89.5406 180.72 89.5406C181.084 89.5406 181.351 89.803 181.351 90.1707C181.351 90.5389 181.084 90.8032 180.72 90.8032C180.357 90.8032 180.088 90.5389 180.088 90.1707Z" fill="white"/>
<path d="M182.32 89.5409V89.7041L182.279 89.7017C182.02 89.7017 181.862 89.8669 181.862 90.1595V90.792H181.695V89.5504H181.855V89.7937C181.933 89.6285 182.091 89.5409 182.32 89.5409" fill="white"/>
<path d="M184.671 90.0719V90.792H184.504V90.0886C184.504 89.8267 184.372 89.6922 184.148 89.6922C183.893 89.6922 183.732 89.8574 183.732 90.1403V90.792H183.564V90.0886C183.564 89.8267 183.433 89.6922 183.206 89.6922C182.953 89.6922 182.791 89.8574 182.791 90.1403V90.792H182.623V89.5504H182.783V89.7774C182.871 89.6285 183.031 89.5409 183.239 89.5409C183.444 89.5409 183.605 89.6285 183.68 89.8032C183.77 89.6424 183.947 89.5409 184.171 89.5409C184.473 89.5409 184.671 89.7156 184.671 90.0719Z" fill="white"/>
<path d="M185.899 90.4187V90.2157H185.509C185.269 90.2157 185.191 90.3101 185.191 90.4374C185.191 90.5815 185.306 90.6711 185.505 90.6711C185.693 90.6711 185.833 90.5815 185.899 90.4187V90.4187ZM186.066 90.0223V90.7917H185.906V90.5978C185.83 90.7252 185.684 90.8032 185.479 90.8032C185.198 90.8032 185.026 90.6572 185.026 90.4422C185.026 90.2512 185.148 90.0908 185.505 90.0908H185.899V90.0151C185.899 89.803 185.779 89.6871 185.547 89.6871C185.387 89.6871 185.236 89.7436 185.134 89.8336L185.058 89.7082C185.184 89.6024 185.368 89.5406 185.564 89.5406C185.885 89.5406 186.066 89.7015 186.066 90.0223Z" fill="white"/>
<path d="M187.665 90.0719V90.792H187.498V90.0886C187.498 89.8267 187.361 89.6922 187.125 89.6922C186.859 89.6922 186.691 89.8574 186.691 90.1403V90.792H186.524V89.5504H186.684V89.7793C186.774 89.6285 186.941 89.5409 187.156 89.5409C187.458 89.5409 187.665 89.7156 187.665 90.0719" fill="white"/>
<path d="M188.002 90.1707C188.002 89.8006 188.272 89.5406 188.642 89.5406C188.852 89.5406 189.029 89.6234 189.128 89.7862L189.003 89.871C188.918 89.746 188.786 89.6871 188.642 89.6871C188.37 89.6871 188.172 89.8806 188.172 90.1707C188.172 90.4637 188.37 90.6548 188.642 90.6548C188.786 90.6548 188.918 90.5978 189.003 90.4728L189.128 90.5581C189.029 90.7185 188.852 90.8032 188.642 90.8032C188.272 90.8032 188.002 90.5413 188.002 90.1707Z" fill="white"/>
<path d="M189.479 90.0975H190.359C190.338 89.8547 190.16 89.6847 189.918 89.6847C189.677 89.6847 189.5 89.8547 189.479 90.0975ZM190.517 90.2229H189.479C189.498 90.4824 189.696 90.6548 189.967 90.6548C190.118 90.6548 190.253 90.6002 190.347 90.492L190.442 90.6002C190.33 90.7328 190.158 90.8032 189.962 90.8032C189.575 90.8032 189.311 90.5389 189.311 90.1707C189.311 89.803 189.568 89.5406 189.918 89.5406C190.267 89.5406 190.519 89.7982 190.519 90.1707L190.517 90.2229" fill="white"/>
<path d="M176.157 94.0657C176.157 94.3755 176.415 94.5718 176.839 94.5718C177.268 94.5718 177.531 94.3755 177.531 94.0657C177.531 93.7401 177.252 93.5543 176.839 93.5543C176.426 93.5543 176.157 93.7401 176.157 94.0657ZM177.645 95.6362C177.645 95.2795 177.335 95.0573 176.839 95.0573C176.343 95.0573 176.044 95.2795 176.044 95.6362C176.044 96.0025 176.343 96.2199 176.839 96.2199C177.335 96.2199 177.645 96.0025 177.645 95.6362ZM178.322 95.6568C178.322 96.3281 177.738 96.7466 176.839 96.7466C175.94 96.7466 175.367 96.3281 175.367 95.6568C175.367 95.2589 175.574 94.9644 175.946 94.794C175.656 94.6341 175.496 94.3755 175.496 94.0351C175.496 93.415 176.038 93.0277 176.839 93.0277C177.645 93.0277 178.193 93.415 178.193 94.0351C178.193 94.3755 178.027 94.6341 177.733 94.794C178.11 94.9644 178.322 95.2589 178.322 95.6568" fill="white"/>
<path d="M178.785 96.3019C178.785 96.0439 178.976 95.8734 179.208 95.8734C179.441 95.8734 179.632 96.0439 179.632 96.3019C179.632 96.55 179.441 96.731 179.208 96.731C178.976 96.731 178.785 96.55 178.785 96.3019Z" fill="white"/>
<path d="M182.694 95.5845C182.694 96.2199 182.235 96.7466 181.263 96.7466C180.752 96.7466 180.236 96.5914 179.905 96.3281L180.189 95.8067C180.453 96.0236 180.845 96.1629 181.253 96.1629C181.733 96.1629 182.017 95.9513 182.017 95.6104C182.017 95.2642 181.796 95.0473 181.046 95.0473H180.173L180.36 93.0789H182.482V93.6424H180.928L180.85 94.4789H181.196C182.265 94.4789 182.694 94.9439 182.694 95.5845Z" fill="white"/>
<path d="M185.424 94.8869C185.424 94.014 185.083 93.6113 184.588 93.6113C184.097 93.6113 183.756 94.014 183.756 94.8869C183.756 95.7602 184.097 96.1629 184.588 96.1629C185.083 96.1629 185.424 95.7602 185.424 94.8869ZM183.079 94.8869C183.079 93.6989 183.73 93.0277 184.588 93.0277C185.45 93.0277 186.101 93.6989 186.101 94.8869C186.101 96.0753 185.45 96.7466 184.588 96.7466C183.73 96.7466 183.079 96.0753 183.079 94.8869Z" fill="white"/>
<path d="M188.898 94.8869C188.898 94.014 188.558 93.6113 188.062 93.6113C187.571 93.6113 187.23 94.014 187.23 94.8869C187.23 95.7602 187.571 96.1629 188.062 96.1629C188.558 96.1629 188.898 95.7602 188.898 94.8869ZM186.553 94.8869C186.553 93.6989 187.204 93.0277 188.062 93.0277C188.924 93.0277 189.575 93.6989 189.575 94.8869C189.575 96.0753 188.924 96.7466 188.062 96.7466C187.204 96.7466 186.553 96.0753 186.553 94.8869Z" fill="white"/>
<path d="M164.986 89.6499H164.983C164.962 89.6509 164.925 89.6585 164.905 89.7021L164.197 91.2721C164.12 91.4426 163.964 91.5637 163.781 91.5968L162.086 91.9032C162.039 91.9118 162.022 91.9458 162.017 91.9659L162.042 92.0555L163.316 93.2142C163.454 93.3396 163.522 93.5254 163.497 93.7103L163.264 95.4172C163.258 95.4641 163.286 95.491 163.302 95.5024L163.396 95.5058L164.891 94.6521C165.054 94.5592 165.251 94.5525 165.419 94.6339L166.97 95.3823C167.015 95.4029 167.047 95.3847 167.063 95.3722C167.079 95.3598 167.105 95.3315 167.095 95.2846L166.745 93.5982C166.708 93.4153 166.762 93.2257 166.891 93.0907L168.082 91.8467L168.102 91.7553C168.095 91.7361 168.076 91.7031 168.029 91.6978L166.316 91.5092C166.131 91.4886 165.967 91.3784 165.879 91.2142L165.064 89.6968L164.986 89.6499ZM163.352 95.9966C163.241 95.9966 163.131 95.964 163.034 95.8989C162.855 95.7773 162.761 95.568 162.79 95.3526L163.022 93.6461L162.994 93.5685L161.72 92.4098C161.559 92.2633 161.497 92.0425 161.557 91.8338C161.616 91.6245 161.787 91.4708 162.001 91.4321L163.695 91.1256L163.761 91.0749L164.469 89.5053C164.558 89.3071 164.749 89.1788 164.967 89.1716C165.181 89.1649 165.383 89.2784 165.486 89.4699L166.301 90.9872L166.369 91.0332L168.081 91.2219C168.297 91.2458 168.477 91.3871 168.552 91.5915C168.626 91.796 168.579 92.0205 168.428 92.1781L167.237 93.422L167.215 93.501L167.564 95.1874C167.608 95.4005 167.529 95.6159 167.358 95.7495C167.186 95.8841 166.958 95.9085 166.762 95.8132L165.211 95.0648L165.129 95.0677L163.633 95.9214C163.545 95.9717 163.448 95.9966 163.352 95.9966" fill="white"/>
<path d="M251.676 100.39H210.595C209.633 100.39 208.854 99.6106 208.854 98.6487V87.2247C208.854 86.2633 209.633 85.4838 210.595 85.4838H251.676C252.638 85.4838 253.417 86.2633 253.417 87.2247V98.6487C253.417 99.6106 252.638 100.39 251.676 100.39Z" fill="#33535F"/>
<path d="M225.48 99.3018C225.411 99.3018 225.355 96.381 225.355 92.7794C225.355 89.1768 225.411 86.257 225.48 86.257C225.549 86.257 225.605 89.1768 225.605 92.7794C225.605 96.381 225.549 99.3018 225.48 99.3018Z" fill="#7D969B"/>
<path d="M228.767 90.6407C229.206 90.6407 229.489 90.3625 229.489 89.966C229.489 89.5691 229.206 89.2909 228.767 89.2909H228.279V90.6407H228.767ZM228.104 89.1396H228.777C229.305 89.1396 229.661 89.4796 229.661 89.966C229.661 90.452 229.305 90.792 228.777 90.792H228.104V89.1396" fill="white"/>
<path d="M230.987 90.1707C230.987 89.8806 230.791 89.6871 230.527 89.6871C230.262 89.6871 230.065 89.8806 230.065 90.1707C230.065 90.4614 230.262 90.6548 230.527 90.6548C230.791 90.6548 230.987 90.4614 230.987 90.1707ZM229.895 90.1707C229.895 89.803 230.164 89.5406 230.527 89.5406C230.89 89.5406 231.157 89.803 231.157 90.1707C231.157 90.5389 230.89 90.8032 230.527 90.8032C230.164 90.8032 229.895 90.5389 229.895 90.1707Z" fill="white"/>
<path d="M233.287 89.5504L232.818 90.792H232.659L232.268 89.775L231.876 90.792H231.718L231.25 89.5504H231.411L231.8 90.6053L232.199 89.5504H232.343L232.74 90.6053L233.134 89.5504H233.287" fill="white"/>
<path d="M234.684 90.0719V90.792H234.516V90.0886C234.516 89.8267 234.379 89.6922 234.144 89.6922C233.877 89.6922 233.709 89.8574 233.709 90.1403V90.792H233.542V89.5504H233.702V89.7793C233.792 89.6285 233.96 89.5409 234.174 89.5409C234.476 89.5409 234.684 89.7156 234.684 90.0719" fill="white"/>
<path d="M235.141 89.0405H235.308V90.792H235.141V89.0405Z" fill="white"/>
<path d="M236.744 90.1707C236.744 89.8806 236.548 89.6871 236.284 89.6871C236.02 89.6871 235.822 89.8806 235.822 90.1707C235.822 90.4614 236.02 90.6548 236.284 90.6548C236.548 90.6548 236.744 90.4614 236.744 90.1707ZM235.651 90.1707C235.651 89.803 235.921 89.5406 236.284 89.5406C236.647 89.5406 236.914 89.803 236.914 90.1707C236.914 90.5389 236.647 90.8032 236.284 90.8032C235.921 90.8032 235.651 90.5389 235.651 90.1707Z" fill="white"/>
<path d="M238.02 90.4187V90.2157H237.631C237.39 90.2157 237.312 90.3101 237.312 90.4374C237.312 90.5815 237.428 90.6711 237.626 90.6711C237.815 90.6711 237.954 90.5815 238.02 90.4187V90.4187ZM238.187 90.0223V90.7917H238.027V90.5978C237.952 90.7252 237.805 90.8032 237.6 90.8032C237.319 90.8032 237.147 90.6572 237.147 90.4422C237.147 90.2512 237.27 90.0908 237.626 90.0908H238.02V90.0151C238.02 89.803 237.9 89.6871 237.668 89.6871C237.508 89.6871 237.357 89.7436 237.256 89.8336L237.18 89.7082C237.305 89.6024 237.489 89.5406 237.685 89.5406C238.006 89.5406 238.187 89.7015 238.187 90.0223" fill="white"/>
<path d="M239.617 90.1707C239.617 89.8806 239.418 89.6871 239.156 89.6871C238.892 89.6871 238.694 89.8806 238.694 90.1707C238.694 90.4614 238.892 90.6548 239.156 90.6548C239.418 90.6548 239.617 90.4614 239.617 90.1707ZM239.782 89.0402V90.7917H239.621V90.5461C239.52 90.7137 239.348 90.8032 239.142 90.8032C238.788 90.8032 238.524 90.5461 238.524 90.1707C238.524 89.7958 238.788 89.5406 239.142 89.5406C239.34 89.5406 239.511 89.6258 239.614 89.7862V89.0402H239.782" fill="white"/>
<path d="M230.299 95.6051C230.299 95.2278 230.015 94.9903 229.576 94.9903C229.142 94.9903 228.842 95.2536 228.842 95.6104C228.842 95.9513 229.111 96.2199 229.591 96.2199C230.01 96.2199 230.299 95.9819 230.299 95.6051V95.6051ZM230.95 95.574C230.95 96.2922 230.366 96.7466 229.627 96.7466C228.641 96.7466 228.062 96.1112 228.062 94.9491C228.062 93.7095 228.786 93.0277 229.834 93.0277C230.196 93.0277 230.542 93.1052 230.785 93.2599L230.537 93.7665C230.34 93.6372 230.103 93.5907 229.849 93.5907C229.168 93.5907 228.739 94.014 228.739 94.8352V94.8404C228.956 94.5876 229.302 94.4636 229.705 94.4636C230.417 94.4636 230.95 94.8974 230.95 95.574" fill="white"/>
<path d="M231.33 96.3019C231.33 96.0439 231.521 95.8734 231.754 95.8734C231.986 95.8734 232.177 96.0439 232.177 96.3019C232.177 96.55 231.986 96.731 231.754 96.731C231.521 96.731 231.33 96.55 231.33 96.3019Z" fill="white"/>
<path d="M235.239 95.5845C235.239 96.2199 234.78 96.7466 233.809 96.7466C233.297 96.7466 232.781 96.5914 232.45 96.3281L232.734 95.8067C232.997 96.0236 233.39 96.1629 233.798 96.1629C234.278 96.1629 234.563 95.9513 234.563 95.6104C234.563 95.2642 234.341 95.0473 233.591 95.0473H232.718L232.905 93.0789H235.027V93.6424H233.472L233.395 94.4789H233.741C234.81 94.4789 235.239 94.9439 235.239 95.5845Z" fill="white"/>
<path d="M237.97 94.8869C237.97 94.014 237.629 93.6113 237.133 93.6113C236.642 93.6113 236.302 94.014 236.302 94.8869C236.302 95.7602 236.642 96.1629 237.133 96.1629C237.629 96.1629 237.97 95.7602 237.97 94.8869ZM235.625 94.8869C235.625 93.6989 236.276 93.0277 237.133 93.0277C237.996 93.0277 238.646 93.6989 238.646 94.8869C238.646 96.0753 237.996 96.7466 237.133 96.7466C236.276 96.7466 235.625 96.0753 235.625 94.8869Z" fill="white"/>
<path d="M241.444 94.8869C241.444 94.014 241.103 93.6113 240.607 93.6113C240.116 93.6113 239.775 94.014 239.775 94.8869C239.775 95.7602 240.116 96.1629 240.607 96.1629C241.103 96.1629 241.444 95.7602 241.444 94.8869ZM239.099 94.8869C239.099 93.6989 239.75 93.0277 240.607 93.0277C241.47 93.0277 242.12 93.6989 242.12 94.8869C242.12 96.0753 241.47 96.7466 240.607 96.7466C239.75 96.7466 239.099 96.0753 239.099 94.8869Z" fill="white"/>
<path d="M217.747 90.5874C216.13 90.5874 214.813 91.9037 214.813 93.5216C214.813 95.1395 216.13 96.4558 217.747 96.4558C219.365 96.4558 220.681 95.1395 220.681 93.5216C220.681 91.9037 219.365 90.5874 217.747 90.5874ZM217.747 96.9346C215.865 96.9346 214.334 95.4033 214.334 93.5216C214.334 91.6399 215.865 90.1086 217.747 90.1086C219.629 90.1086 221.16 91.6399 221.16 93.5216C221.16 95.4033 219.629 96.9346 217.747 96.9346Z" fill="white"/>
<path d="M217.729 95.606C217.658 95.606 217.59 95.5739 217.545 95.5193L216.097 93.7688C216.013 93.6673 216.027 93.5164 216.129 93.4317C216.23 93.3474 216.381 93.3613 216.466 93.4638L217.716 94.9744L218.858 93.3819C218.936 93.2737 219.085 93.2497 219.192 93.3273C219.3 93.4044 219.325 93.5538 219.247 93.661L217.924 95.5059C217.881 95.5662 217.812 95.6031 217.738 95.6055L217.729 95.606" fill="white"/>
<path d="M217.708 95.5398C217.575 95.5398 217.468 95.433 217.468 95.3004V91.9319C217.468 91.7998 217.575 91.6925 217.708 91.6925C217.84 91.6925 217.947 91.7998 217.947 91.9319V95.3004C217.947 95.433 217.84 95.5398 217.708 95.5398Z" fill="white"/>
<path d="M85.3823 64.9321C85.3823 65.6412 84.8073 66.2158 84.0981 66.2158C83.389 66.2158 82.814 65.6412 82.814 64.9321C82.814 64.223 83.389 63.6484 84.0981 63.6484C84.8073 63.6484 85.3823 64.223 85.3823 64.9321Z" fill="#17282F"/>
<path d="M89.8491 64.9321C89.8491 65.6412 89.2745 66.2158 88.5654 66.2158C87.8563 66.2158 87.2812 65.6412 87.2812 64.9321C87.2812 64.223 87.8563 63.6484 88.5654 63.6484C89.2745 63.6484 89.8491 64.223 89.8491 64.9321Z" fill="#17282F"/>
<path d="M94.3164 64.9321C94.3164 65.6412 93.7418 66.2158 93.0322 66.2158C92.3236 66.2158 91.7485 65.6412 91.7485 64.9321C91.7485 64.223 92.3236 63.6484 93.0322 63.6484C93.7418 63.6484 94.3164 64.223 94.3164 64.9321Z" fill="#17282F"/>
<path d="M254.297 32.9543L254.273 32.9476L254.543 32.0001L254.566 32.0068L254.297 32.9543Z" fill="#17282F"/>
<path d="M329.63 139.002H241.681V98.3434H329.63V139.002Z" fill="#FAFAF9"/>
<path d="M329.63 139.002C329.63 139.002 329.624 138.752 329.621 138.275C329.618 137.795 329.615 137.088 329.611 136.162C329.606 134.305 329.598 131.575 329.588 128.061C329.577 121.038 329.56 110.884 329.539 98.3433L329.63 98.4342C306.813 98.4429 275.801 98.4548 241.687 98.4678H241.681L241.806 98.3433C241.803 112.643 241.801 126.397 241.799 139.001L241.681 138.883C267.275 138.906 289.247 138.925 304.825 138.939C312.62 138.954 318.815 138.965 323.065 138.972C325.189 138.979 326.826 138.983 327.938 138.987C328.49 138.99 328.911 138.993 329.198 138.994C329.482 138.996 329.63 139.002 329.63 139.002C329.63 139.002 329.491 139.006 329.212 139.009C328.928 139.01 328.512 139.013 327.966 139.016C326.86 139.019 325.231 139.024 323.118 139.031C318.874 139.038 312.689 139.049 304.904 139.063C289.307 139.077 267.307 139.097 241.681 139.119L241.563 139.12V139.001C241.56 126.397 241.559 112.643 241.556 98.3433V98.2183H241.681H241.687C275.801 98.2317 306.813 98.2437 329.63 98.2523L329.721 98.2528L329.721 98.3433C329.7 110.907 329.684 121.08 329.672 128.116C329.662 131.622 329.655 134.345 329.649 136.197C329.645 137.116 329.642 137.817 329.639 138.293C329.637 138.765 329.63 139.002 329.63 139.002" fill="#17282F"/>
<path d="M247.868 126.427V127.711H247.736V126.545H247.434V126.427H247.868" fill="#17282F"/>
<path d="M249.065 127.07C249.065 126.726 248.912 126.538 248.688 126.538C248.464 126.538 248.31 126.726 248.31 127.07C248.31 127.412 248.464 127.601 248.688 127.601C248.912 127.601 249.065 127.412 249.065 127.07ZM248.176 127.07C248.176 126.661 248.391 126.416 248.688 126.416C248.984 126.416 249.201 126.661 249.201 127.07C249.201 127.478 248.984 127.722 248.688 127.722C248.391 127.722 248.176 127.478 248.176 127.07Z" fill="#17282F"/>
<path d="M248.389 119.613V119.73H247.488V119.637L248.022 119.114C248.167 118.971 248.194 118.885 248.194 118.797C248.194 118.648 248.09 118.556 247.894 118.556C247.743 118.556 247.628 118.602 247.544 118.7L247.45 118.619C247.549 118.501 247.709 118.435 247.905 118.435C248.165 118.435 248.33 118.567 248.33 118.782C248.33 118.905 248.292 119.015 248.119 119.184L247.683 119.613H248.389" fill="#17282F"/>
<path d="M249.437 119.088C249.437 118.746 249.284 118.556 249.06 118.556C248.836 118.556 248.682 118.746 248.682 119.088C248.682 119.431 248.836 119.62 249.06 119.62C249.284 119.62 249.437 119.431 249.437 119.088ZM248.548 119.088C248.548 118.679 248.763 118.435 249.06 118.435C249.357 118.435 249.573 118.679 249.573 119.088C249.573 119.497 249.357 119.741 249.06 119.741C248.763 119.741 248.548 119.497 248.548 119.088Z" fill="#17282F"/>
<path d="M248.362 111.379C248.362 111.594 248.205 111.759 247.896 111.759C247.711 111.759 247.533 111.695 247.434 111.594L247.498 111.489C247.58 111.576 247.729 111.638 247.896 111.638C248.109 111.638 248.226 111.539 248.226 111.379C248.226 111.226 248.117 111.125 247.879 111.125H247.787V111.027L248.143 110.582H247.487V110.464H248.312V110.558L247.949 111.014C248.224 111.029 248.362 111.174 248.362 111.379" fill="#17282F"/>
<path d="M249.437 111.106C249.437 110.764 249.284 110.574 249.06 110.574C248.836 110.574 248.682 110.764 248.682 111.106C248.682 111.449 248.836 111.638 249.06 111.638C249.284 111.638 249.437 111.449 249.437 111.106ZM248.548 111.106C248.548 110.698 248.763 110.453 249.06 110.453C249.357 110.453 249.573 110.698 249.573 111.106C249.573 111.515 249.357 111.759 249.06 111.759C248.763 111.759 248.548 111.515 248.548 111.106Z" fill="#17282F"/>
<path d="M254.424 131.281C254.424 130.938 254.271 130.749 254.047 130.749C253.823 130.749 253.669 130.938 253.669 131.281C253.669 131.624 253.823 131.813 254.047 131.813C254.271 131.813 254.424 131.624 254.424 131.281ZM253.535 131.281C253.535 130.872 253.75 130.628 254.047 130.628C254.343 130.628 254.56 130.872 254.56 131.281C254.56 131.69 254.343 131.934 254.047 131.934C253.75 131.934 253.535 131.69 253.535 131.281Z" fill="#17282F"/>
<path d="M263.036 130.639V131.923H262.904V130.756H262.601V130.639H263.036Z" fill="#17282F"/>
<path d="M273.051 131.806V131.923H272.151V131.829L272.684 131.307C272.829 131.164 272.856 131.077 272.856 130.99C272.856 130.841 272.752 130.749 272.556 130.749C272.405 130.749 272.29 130.795 272.206 130.892L272.112 130.812C272.211 130.694 272.371 130.628 272.567 130.628C272.827 130.628 272.992 130.76 272.992 130.975C272.992 131.097 272.954 131.208 272.781 131.377L272.345 131.806H273.051" fill="#17282F"/>
<path d="M282.517 131.554C282.517 131.769 282.361 131.934 282.051 131.934C281.866 131.934 281.688 131.87 281.589 131.769L281.654 131.664C281.736 131.75 281.885 131.813 282.051 131.813C282.264 131.813 282.382 131.714 282.382 131.554C282.382 131.4 282.273 131.299 282.035 131.299H281.943V131.202L282.299 130.756H281.642V130.639H282.468V130.733L282.105 131.189C282.38 131.204 282.517 131.349 282.517 131.554" fill="#17282F"/>
<path d="M292.253 131.585H291.996V131.923H291.865V131.585H291.14V131.49L291.821 130.639H291.967L291.311 131.468H291.868V131.171H291.996V131.468H292.253V131.585" fill="#17282F"/>
<path d="M301.527 131.545C301.527 131.763 301.375 131.934 301.062 131.934C300.876 131.934 300.7 131.87 300.601 131.769L300.665 131.664C300.748 131.75 300.895 131.813 301.06 131.813C301.278 131.813 301.393 131.706 301.393 131.551C301.393 131.386 301.291 131.283 300.964 131.283H300.691L300.757 130.639H301.46V130.756H300.873L300.829 131.165H300.994C301.381 131.165 301.527 131.318 301.527 131.545Z" fill="#17282F"/>
<path d="M310.984 131.543C310.984 131.375 310.859 131.266 310.661 131.266C310.465 131.266 310.331 131.388 310.331 131.547C310.331 131.688 310.449 131.822 310.671 131.822C310.856 131.822 310.984 131.714 310.984 131.543ZM311.115 131.54C311.115 131.78 310.926 131.934 310.677 131.934C310.335 131.934 310.15 131.697 310.15 131.292C310.15 130.856 310.388 130.628 310.737 130.628C310.852 130.628 310.96 130.648 311.041 130.698L310.988 130.804C310.922 130.76 310.834 130.744 310.738 130.744C310.462 130.744 310.283 130.922 310.283 131.27L310.289 131.375C310.353 131.233 310.504 131.154 310.681 131.154C310.937 131.154 311.115 131.305 311.115 131.54" fill="#17282F"/>
<path d="M320.55 130.639V130.733L320.012 131.923H319.869L320.397 130.756H319.737V130.997H319.607V130.639H320.55Z" fill="#17282F"/>
<path d="M320.618 127.131C320.618 127.2 305.76 127.256 287.436 127.256C269.106 127.256 254.251 127.2 254.251 127.131C254.251 127.063 269.106 127.007 287.436 127.007C305.76 127.007 320.618 127.063 320.618 127.131Z" fill="#17282F"/>
<path d="M320.618 119.109C320.618 119.178 305.76 119.233 287.436 119.233C269.106 119.233 254.251 119.178 254.251 119.109C254.251 119.04 269.106 118.984 287.436 118.984C305.76 118.984 320.618 119.04 320.618 119.109Z" fill="#17282F"/>
<path d="M320.618 111.086C320.618 111.155 305.76 111.211 287.436 111.211C269.106 111.211 254.251 111.155 254.251 111.086C254.251 111.017 269.106 110.961 287.436 110.961C305.76 110.961 320.618 111.017 320.618 111.086Z" fill="#17282F"/>
<path d="M254.251 127.014C254.251 127.25 254.06 127.44 253.825 127.44C253.589 127.44 253.399 127.25 253.399 127.014C253.399 126.778 253.589 126.588 253.825 126.588C254.06 126.588 254.251 126.778 254.251 127.014Z" fill="#70A2FF"/>
<path d="M263.793 127.014C263.793 127.25 263.602 127.44 263.367 127.44C263.131 127.44 262.94 127.25 262.94 127.014C262.94 126.778 263.131 126.588 263.367 126.588C263.602 126.588 263.793 126.778 263.793 127.014Z" fill="#70A2FF"/>
<path d="M273.335 127.014C273.335 127.25 273.144 127.44 272.909 127.44C272.673 127.44 272.482 127.25 272.482 127.014C272.482 126.778 272.673 126.588 272.909 126.588C273.144 126.588 273.335 126.778 273.335 127.014Z" fill="#70A2FF"/>
<path d="M282.877 127.014C282.877 127.25 282.686 127.44 282.45 127.44C282.215 127.44 282.024 127.25 282.024 127.014C282.024 126.778 282.215 126.588 282.45 126.588C282.686 126.588 282.877 126.778 282.877 127.014Z" fill="#70A2FF"/>
<path d="M292.419 127.014C292.419 127.25 292.228 127.44 291.993 127.44C291.757 127.44 291.566 127.25 291.566 127.014C291.566 126.778 291.757 126.588 291.993 126.588C292.228 126.588 292.419 126.778 292.419 127.014Z" fill="#70A2FF"/>
<path d="M311.503 127.014C311.503 127.25 311.312 127.44 311.077 127.44C310.841 127.44 310.65 127.25 310.65 127.014C310.65 126.778 310.841 126.588 311.077 126.588C311.312 126.588 311.503 126.778 311.503 127.014Z" fill="#70A2FF"/>
<path d="M301.961 127.014C301.961 127.25 301.77 127.44 301.535 127.44C301.299 127.44 301.108 127.25 301.108 127.014C301.108 126.778 301.299 126.588 301.535 126.588C301.77 126.588 301.961 126.778 301.961 127.014Z" fill="#70A2FF"/>
<path d="M321.045 127.014C321.045 127.25 320.854 127.44 320.619 127.44C320.383 127.44 320.192 127.25 320.192 127.014C320.192 126.778 320.383 126.588 320.619 126.588C320.854 126.588 321.045 126.778 321.045 127.014Z" fill="#70A2FF"/>
<path d="M258.599 127.132C258.599 127.286 258.474 127.411 258.32 127.411C258.165 127.411 258.04 127.286 258.04 127.132C258.04 126.977 258.165 126.852 258.32 126.852C258.474 126.852 258.599 126.977 258.599 127.132Z" fill="#DADBD8"/>
<path d="M268.177 127.132C268.177 127.286 268.052 127.411 267.897 127.411C267.743 127.411 267.618 127.286 267.618 127.132C267.618 126.977 267.743 126.852 267.897 126.852C268.052 126.852 268.177 126.977 268.177 127.132Z" fill="#DADBD8"/>
<path d="M277.755 127.132C277.755 127.286 277.63 127.411 277.475 127.411C277.321 127.411 277.195 127.286 277.195 127.132C277.195 126.977 277.321 126.852 277.475 126.852C277.63 126.852 277.755 126.977 277.755 127.132Z" fill="#DADBD8"/>
<path d="M287.333 127.132C287.333 127.286 287.208 127.411 287.053 127.411C286.898 127.411 286.773 127.286 286.773 127.132C286.773 126.977 286.898 126.852 287.053 126.852C287.208 126.852 287.333 126.977 287.333 127.132Z" fill="#DADBD8"/>
<path d="M296.911 127.132C296.911 127.286 296.785 127.411 296.631 127.411C296.476 127.411 296.351 127.286 296.351 127.132C296.351 126.977 296.476 126.852 296.631 126.852C296.785 126.852 296.911 126.977 296.911 127.132Z" fill="#DADBD8"/>
<path d="M306.488 127.132C306.488 127.286 306.363 127.411 306.209 127.411C306.054 127.411 305.929 127.286 305.929 127.132C305.929 126.977 306.054 126.852 306.209 126.852C306.363 126.852 306.488 126.977 306.488 127.132Z" fill="#DADBD8"/>
<path d="M316.066 127.132C316.066 127.286 315.941 127.411 315.786 127.411C315.632 127.411 315.506 127.286 315.506 127.132C315.506 126.977 315.632 126.852 315.786 126.852C315.941 126.852 316.066 126.977 316.066 127.132Z" fill="#DADBD8"/>
<path d="M264.412 123.585C264.412 124.162 263.944 124.63 263.367 124.63C262.79 124.63 262.321 124.162 262.321 123.585C262.321 123.007 262.79 122.539 263.367 122.539C263.944 122.539 264.412 123.007 264.412 123.585Z" fill="#70A2FF"/>
<path d="M272.737 118.672C272.737 119.249 272.269 119.717 271.692 119.717C271.115 119.717 270.646 119.249 270.646 118.672C270.646 118.095 271.115 117.627 271.692 117.627C272.269 117.627 272.737 118.095 272.737 118.672Z" fill="#70A2FF"/>
<path d="M283.07 119.109C283.07 119.686 282.602 120.154 282.025 120.154C281.447 120.154 280.979 119.686 280.979 119.109C280.979 118.531 281.447 118.064 282.025 118.064C282.602 118.064 283.07 118.531 283.07 119.109Z" fill="#70A2FF"/>
<path d="M293.157 110.179C293.157 110.756 292.69 111.224 292.112 111.224C291.535 111.224 291.066 110.756 291.066 110.179C291.066 109.601 291.535 109.133 292.112 109.133C292.69 109.133 293.157 109.601 293.157 110.179Z" fill="#70A2FF"/>
<path d="M302.58 115.858C302.58 116.435 302.112 116.904 301.535 116.904C300.958 116.904 300.489 116.435 300.489 115.858C300.489 115.281 300.958 114.813 301.535 114.813C302.112 114.813 302.58 115.281 302.58 115.858Z" fill="#70A2FF"/>
<path d="M312.122 117.37C312.122 117.947 311.654 118.416 311.077 118.416C310.499 118.416 310.031 117.947 310.031 117.37C310.031 116.793 310.499 116.325 311.077 116.325C311.654 116.325 312.122 116.793 312.122 117.37Z" fill="#70A2FF"/>
<path d="M321.045 123.585C321.045 123.585 320.961 123.594 320.799 123.584C320.638 123.573 320.397 123.553 320.086 123.489C319.476 123.363 318.534 123.1 317.605 122.31C317.143 121.92 316.72 121.378 316.385 120.724C316.048 120.082 315.643 119.401 315.108 118.747C314.57 118.113 313.875 117.463 312.952 117.242C312.496 117.132 312.001 117.151 311.524 117.293C311.048 117.441 310.602 117.704 310.2 118.043C309.387 118.722 308.789 119.687 308 120.564C307.605 120.999 307.146 121.423 306.567 121.678C305.991 121.927 305.322 122.004 304.683 121.833C304.03 121.658 303.533 121.111 303.25 120.516C302.954 119.916 302.789 119.263 302.631 118.611C302.47 117.961 302.339 117.287 302.062 116.678C301.923 116.377 301.73 116.095 301.452 115.945C301.166 115.791 300.826 115.756 300.487 115.758C299.799 115.794 299.107 115.992 298.389 116.128C298.029 116.193 297.662 116.257 297.283 116.255C296.907 116.256 296.512 116.211 296.157 116.035C295.788 115.888 295.506 115.592 295.264 115.288C295.048 114.968 294.862 114.628 294.718 114.272C294.415 113.566 294.213 112.826 293.94 112.114C293.797 111.763 293.646 111.411 293.434 111.104C293.221 110.799 292.945 110.544 292.606 110.414C292.519 110.389 292.434 110.357 292.346 110.336L292.07 110.31C291.888 110.299 291.72 110.334 291.56 110.414C291.241 110.577 290.999 110.888 290.796 111.212C290.401 111.879 290.139 112.639 289.91 113.406C289.682 114.175 289.491 114.963 289.306 115.758C289.001 117.074 288.729 118.386 288.391 119.671C288.22 120.312 288.036 120.949 287.803 121.567C287.564 122.179 287.292 122.797 286.812 123.289C286.568 123.524 286.234 123.708 285.87 123.706C285.522 123.706 285.19 123.582 284.905 123.413C284.332 123.068 283.91 122.56 283.55 122.042C282.827 120.996 282.363 119.832 281.913 118.719C281.456 117.617 280.94 116.526 280.086 115.779C279.25 115.036 278.047 114.76 277.018 115.03C276.499 115.161 276.008 115.393 275.558 115.673C275.103 115.944 274.682 116.262 274.284 116.594C273.489 117.26 272.779 117.988 272.156 118.735L272.153 118.739L272.151 118.741C271.132 119.758 270.066 120.62 268.999 121.36C267.93 122.096 266.851 122.7 265.771 123.109C264.693 123.508 263.61 123.743 262.611 123.635C261.619 123.538 260.746 123.268 259.979 122.998C258.445 122.442 257.319 121.842 256.56 121.435C256.182 121.228 255.897 121.062 255.708 120.946C255.518 120.831 255.426 120.763 255.426 120.763C255.426 120.763 255.528 120.814 255.723 120.92C255.927 121.03 256.215 121.184 256.588 121.383C257.354 121.773 258.486 122.355 260.016 122.893C260.781 123.153 261.65 123.413 262.622 123.499C263.592 123.597 264.656 123.36 265.714 122.96C266.776 122.551 267.841 121.947 268.897 121.212C269.949 120.475 271.009 119.609 272.008 118.604L272.002 118.611C272.633 117.847 273.344 117.114 274.149 116.433C274.552 116.095 274.98 115.77 275.447 115.489C275.908 115.201 276.415 114.957 276.965 114.817C278.07 114.526 279.335 114.817 280.235 115.606C281.141 116.398 281.668 117.521 282.131 118.629C282.585 119.747 283.043 120.887 283.749 121.904C284.098 122.407 284.508 122.892 285.029 123.203C285.287 123.356 285.577 123.462 285.873 123.461C286.16 123.461 286.424 123.319 286.641 123.111C287.068 122.676 287.341 122.077 287.572 121.479C287.8 120.874 287.981 120.244 288.15 119.607C288.486 118.332 288.757 117.02 289.063 115.702C289.248 114.905 289.441 114.113 289.671 113.334C289.904 112.558 290.167 111.787 290.584 111.083C290.801 110.74 291.059 110.394 291.449 110.193C291.642 110.094 291.871 110.05 292.081 110.063L292.392 110.093C292.494 110.117 292.594 110.153 292.694 110.184C293.09 110.335 293.407 110.633 293.637 110.964C293.867 111.299 294.02 111.665 294.167 112.026C294.446 112.753 294.646 113.492 294.939 114.178C295.229 114.855 295.602 115.54 296.257 115.82C296.895 116.128 297.65 116.019 298.346 115.899C299.051 115.767 299.748 115.566 300.479 115.528C300.844 115.527 301.224 115.563 301.561 115.746C301.903 115.933 302.119 116.263 302.265 116.582C302.559 117.234 302.684 117.91 302.844 118.56C302.999 119.21 303.16 119.85 303.44 120.421C303.712 120.99 304.155 121.474 304.741 121.635C305.319 121.793 305.953 121.725 306.486 121.495C307.026 121.26 307.469 120.859 307.858 120.434C308.636 119.58 309.242 118.608 310.087 117.908C310.504 117.559 310.976 117.284 311.476 117.132C311.978 116.985 312.507 116.968 312.989 117.088C313.966 117.33 314.672 118.009 315.216 118.658C315.754 119.328 316.158 120.019 316.491 120.67C316.816 121.318 317.22 121.847 317.668 122.237C318.569 123.022 319.494 123.3 320.097 123.44C320.403 123.512 320.642 123.54 320.802 123.559C320.962 123.578 321.045 123.58 321.045 123.585" fill="#70A2FF"/>
<path d="M264.513 105.588C264.513 105.658 260.809 105.713 256.24 105.713C251.67 105.713 247.966 105.658 247.966 105.588C247.966 105.52 251.67 105.464 256.24 105.464C260.809 105.464 264.513 105.52 264.513 105.588Z" fill="#17282F"/>
<path d="M32.9446 157.508C32.8342 157.5 29.3486 237.053 29.3486 237.053H39.9846L45.1549 193.958L47.8295 161.025L53.3496 191.854L60.0276 235.738L70.7286 233.441L63.4875 155.063L48.314 146.655L32.9446 157.508Z" fill="#17282F"/>
<path d="M41.9808 101.119L52.0353 100.316C52.098 99.1424 52.0137 94.6008 52.0137 94.6008C52.0137 94.6008 56.1971 93.9501 56.2488 89.7677C56.3 85.5853 55.5751 75.9813 55.5751 75.9813C50.7334 73.9003 45.1449 74.6027 40.969 77.817L40.3491 78.2944L41.9808 101.119Z" fill="#D2E0F9"/>
<path d="M52.0206 94.5405C52.0206 94.5405 49.3775 94.7555 46.5679 92.991C46.5679 92.991 47.8569 96.0013 52.0306 95.624L52.0206 94.5405" fill="white"/>
<path d="M40.8646 82.6266C40.7933 82.5955 37.9908 81.7767 38.0823 84.6362C38.1735 87.4957 41.0254 86.8143 41.0277 86.7319C41.0301 86.6496 40.8646 82.6266 40.8646 82.6266Z" fill="#D2E0F9"/>
<path d="M40.1197 85.6766C40.107 85.6675 40.0709 85.713 39.9882 85.7542C39.9072 85.7944 39.767 85.8251 39.616 85.7738C39.3104 85.6723 39.0407 85.2007 39.0104 84.686C38.9947 84.426 39.0413 84.1765 39.1271 83.9682C39.2076 83.7566 39.3381 83.6057 39.4894 83.5741C39.6398 83.5339 39.7503 83.622 39.7877 83.7015C39.8287 83.78 39.8124 83.8375 39.8276 83.8418C39.836 83.849 39.8876 83.792 39.8607 83.6747C39.8468 83.6182 39.8115 83.5521 39.7425 83.4995C39.6721 83.4454 39.5704 83.4205 39.4647 83.4353C39.2448 83.4573 39.0527 83.6666 38.9586 83.895C38.8522 84.1248 38.7936 84.4059 38.8112 84.6979C38.8479 85.2735 39.1602 85.803 39.5773 85.9093C39.7801 85.9553 39.9461 85.8892 40.0305 85.8188C40.1169 85.7456 40.1298 85.6814 40.1197 85.6766" fill="white"/>
<path d="M54.7332 82.8279C54.7446 83.1434 54.4866 83.4125 54.1571 83.4302C53.8287 83.448 53.5529 83.2071 53.5419 82.892C53.5304 82.5765 53.7885 82.3065 54.1169 82.2888C54.4459 82.271 54.7221 82.5124 54.7332 82.8279" fill="#17282F"/>
<path d="M54.7836 81.8649C54.7099 81.943 54.2569 81.6078 53.6143 81.6097C52.9722 81.6021 52.5006 81.9329 52.4307 81.8544C52.3967 81.819 52.4719 81.6787 52.6773 81.5288C52.8794 81.3799 53.2246 81.2353 53.6249 81.2372C54.0252 81.2391 54.3622 81.3866 54.5557 81.5374C54.753 81.6892 54.8205 81.83 54.7836 81.8649Z" fill="#17282F"/>
<path d="M48.4821 82.8274C48.4932 83.143 48.2356 83.4125 47.9061 83.4302C47.5777 83.448 47.3016 83.2071 47.2904 82.892C47.2794 82.5765 47.5373 82.3065 47.8657 82.2888C48.1949 82.271 48.4707 82.5124 48.4821 82.8274" fill="#17282F"/>
<path d="M48.466 81.9852C48.3918 82.0627 47.9388 81.728 47.2965 81.7295C46.6546 81.7223 46.1829 82.0527 46.1129 81.9741C46.0788 81.9392 46.1535 81.7984 46.3599 81.649C46.5618 81.5001 46.9068 81.3555 47.3072 81.357C47.7074 81.3594 48.0442 81.5068 48.2381 81.6572C48.4349 81.809 48.5024 81.9502 48.466 81.9852Z" fill="#17282F"/>
<path d="M50.7986 86.7515C50.7957 86.7147 51.195 86.6457 51.8424 86.5634C52.0066 86.5461 52.1617 86.5136 52.1895 86.4015C52.2283 86.2828 52.1593 86.1061 52.0799 85.915C51.9257 85.5176 51.7643 85.1015 51.5948 84.6653C50.9207 82.8856 50.4328 81.4228 50.5046 81.396C50.5764 81.3697 51.1811 82.7903 51.8553 84.5701C52.0176 85.0086 52.1728 85.4271 52.3202 85.8269C52.382 86.0137 52.4892 86.2253 52.4055 86.4714C52.3609 86.594 52.2407 86.6831 52.1354 86.7113C52.0301 86.7434 51.9381 86.7448 51.8567 86.7501C51.2051 86.785 50.801 86.7879 50.7986 86.7515" fill="#17282F"/>
<path d="M48.9076 87.1959C49.012 87.1902 49.013 87.8878 49.6101 88.3829C50.2062 88.8794 50.9503 88.8014 50.9555 88.8991C50.9651 88.9426 50.7899 89.0346 50.4762 89.0427C50.1679 89.0532 49.7183 88.9546 49.3529 88.6515C48.9886 88.3479 48.832 87.9429 48.8081 87.6565C48.7817 87.3649 48.8593 87.1921 48.9076 87.1959" fill="#17282F"/>
<path d="M48.6321 79.4659C48.5684 79.6407 47.9268 79.5579 47.1726 79.6488C46.4168 79.7245 45.8088 79.9452 45.7087 79.7887C45.664 79.7135 45.7701 79.5493 46.0158 79.3798C46.2595 79.2107 46.6486 79.0503 47.101 79.0001C47.5536 78.9503 47.9685 79.0226 48.2428 79.1336C48.5196 79.2457 48.6589 79.3826 48.6321 79.4659" fill="#17282F"/>
<path d="M54.5473 80.0046C54.4339 80.1506 53.9914 79.9993 53.459 79.9916C52.9266 79.9663 52.4755 80.0898 52.3716 79.9375C52.3261 79.8628 52.3975 79.7168 52.5943 79.5789C52.7882 79.441 53.1133 79.3285 53.4791 79.3395C53.8449 79.351 54.1619 79.4831 54.3472 79.633C54.5354 79.7829 54.5971 79.9332 54.5473 80.0046" fill="#17282F"/>
<path d="M57.6129 73.3408C57.6575 72.8222 57.465 72.2659 57.0427 71.9613C56.6208 71.6568 55.9668 71.676 55.624 72.0676C55.8203 71.369 55.249 70.5632 54.5251 70.5172C53.8433 70.4741 53.2615 70.9893 52.6022 71.1703C51.9586 71.3465 51.2682 71.1943 50.6491 70.9448C50.0305 70.6958 49.4521 70.3516 48.8253 70.1227C47.518 69.6453 46.0234 69.7052 44.7587 70.286C43.4942 70.8663 42.4746 71.9609 41.9846 73.2632C41.0696 72.9774 40.0302 73.4418 39.4663 74.2165C38.9023 74.9913 38.7575 76.0087 38.8697 76.9606C38.9456 77.6041 39.1316 78.2252 39.3479 78.8376C39.3477 78.8917 39.3427 78.9443 39.3436 78.998C39.3869 81.2982 39.6468 83.9992 40.628 84.014C42.3383 84.0403 41.9307 80.8179 41.9307 80.8179C44.0295 80.0073 43.2476 76.8625 43.7726 76.3856C44.2973 75.9087 45.395 74.7997 49.7891 77.0458C51.4956 77.9182 53.7642 77.8905 55.0029 77.6099L55.1121 77.5874L55.1375 77.5821L55.1739 77.5677C55.5689 77.4648 55.9495 77.3121 56.301 77.0894C56.6989 76.8376 57.0609 76.4966 57.2294 76.0571C57.3984 75.6171 57.3352 75.0683 56.99 74.7475C57.3142 74.3406 57.5679 73.8593 57.6129 73.3408" fill="#17282F"/>
<path d="M80.4383 134.271C80.4383 134.271 80.4833 134.31 80.5437 134.389C80.7242 134.628 81.044 135.241 80.7127 136.315C80.2717 137.75 79.3342 139.79 79.3342 139.79C79.3342 139.79 79.665 141.223 79.3342 141.554C79.0033 141.885 73.5444 141.554 73.5444 141.554C73.5444 141.554 72.6069 141.032 73.3236 140.576H77.1565" fill="#D2E0F9"/>
<path d="M31.4091 103.105C31.4091 103.105 26.6919 104.601 24.4924 113.913C22.8773 120.749 18.3026 134.352 19.4619 136.523C20.8977 139.213 37.5738 143.511 37.5738 143.511L38.9927 137.14L30.6397 131.487L35.1145 116.365C35.1145 116.365 35.6233 103.807 31.4091 103.105Z" fill="#70A2FF"/>
<path d="M32.731 120.476C32.731 121.185 34.8535 135.379 34.8535 135.379L30.6313 158.446L46.9881 159.312L48.8073 149.36L51.0645 159.312L65.7808 155.733L62.0072 139.993L63.4375 119.76L61.8579 102.951L55.8143 100.886L52.6919 97.2323L47.64 100.381L41.4091 96.6491L39.4378 99.3386L31.4092 103.105C30.6087 104.571 32.731 120.476 32.731 120.476" fill="#70A2FF"/>
<path d="M41.4093 96.6494L41.2056 101.119L49.8072 124.003L53.2858 101.52L52.1563 97.2048L52.1515 97.2043L47.6402 100.381L41.4093 96.6494" fill="white"/>
<path d="M61.8579 102.951C61.8579 102.951 65.9762 106.276 67.3753 110.22C68.7748 114.163 71.077 119.354 71.077 119.354H63.3992L61.8579 102.951Z" fill="#70A2FF"/>
<path d="M49.611 124.87C49.6038 124.876 49.5329 124.79 49.4041 124.623C49.2619 124.434 49.0781 124.189 48.8502 123.885C48.3603 123.214 47.6822 122.284 46.8516 121.145C45.1681 118.796 42.8715 115.591 40.3341 112.051C39.9698 111.538 39.6105 111.033 39.2575 110.536L39.2073 110.465L39.2566 110.394C39.846 109.542 40.417 108.716 40.9639 107.926L40.991 108.088C39.6004 107.05 38.3217 106.096 37.1979 105.257L37.1377 105.212L37.1643 105.143C37.8387 103.387 38.3948 101.94 38.7939 100.901C38.986 100.418 39.1403 100.032 39.2566 99.7394C39.3657 99.4737 39.4278 99.3348 39.4375 99.3387C39.4469 99.342 39.4029 99.4876 39.3113 99.7595C39.2076 100.056 39.0701 100.45 38.899 100.94C38.5197 101.987 37.9909 103.444 37.3498 105.212L37.3158 105.098C38.4462 105.927 39.733 106.871 41.132 107.898L41.2246 107.965L41.1593 108.061C40.6153 108.853 40.0469 109.681 39.4603 110.535L39.4592 110.393C39.8127 110.889 40.1726 111.394 40.5373 111.906C43.0516 115.463 45.3271 118.683 46.9952 121.043C47.7993 122.201 48.4556 123.147 48.9292 123.829C49.1418 124.144 49.3127 124.398 49.4448 124.594C49.5607 124.77 49.6182 124.866 49.611 124.87" fill="#17282F"/>
<path d="M48.8669 148.731C48.8578 148.731 48.8535 148.646 48.853 148.483C48.8554 148.291 48.8578 148.056 48.8612 147.771C48.8798 147.115 48.9047 146.231 48.9344 145.154C49.0101 142.91 49.1121 139.875 49.2246 136.522C49.3275 133.168 49.4209 130.133 49.4898 127.89C49.5181 126.813 49.5416 125.928 49.5588 125.273C49.5698 124.988 49.5784 124.753 49.5856 124.562C49.5952 124.399 49.6038 124.313 49.6124 124.313C49.621 124.313 49.6287 124.399 49.6359 124.562C49.6416 124.753 49.6479 124.989 49.656 125.274C49.6704 125.892 49.6704 126.787 49.6661 127.893C49.6531 130.104 49.587 133.158 49.474 136.531C49.361 139.902 49.226 142.953 49.1106 145.161C49.0479 146.237 48.9967 147.12 48.9584 147.775C48.9363 148.06 48.9177 148.294 48.9033 148.485C48.8875 148.647 48.8755 148.732 48.8669 148.731" fill="#17282F"/>
<path d="M49.9691 124.202C49.961 124.199 49.9902 124.109 50.0524 123.941C50.1276 123.748 50.2214 123.507 50.3368 123.211C50.6069 122.55 50.9751 121.647 51.4247 120.545C52.3775 118.274 53.6718 115.192 55.1015 111.785C55.4012 111.08 55.6952 110.388 55.9811 109.716L56.0002 109.843C55.3007 109.006 54.6303 108.205 53.9983 107.45L53.9322 107.371L54.0031 107.297C55.0905 106.172 56.0706 105.157 56.9028 104.295L56.8836 104.386C56.4996 103.271 56.1855 102.358 55.9557 101.689C55.858 101.391 55.7785 101.148 55.7153 100.953C55.6627 100.784 55.6397 100.694 55.6473 100.691C55.6555 100.688 55.6947 100.772 55.7623 100.936C55.8374 101.127 55.9313 101.365 56.0462 101.657C56.2952 102.319 56.6342 103.222 57.0488 104.327L57.0675 104.376L57.0297 104.417C56.2085 105.289 55.2413 106.316 54.1688 107.455L54.1731 107.303C54.8094 108.054 55.4841 108.852 56.1884 109.684L56.2372 109.742L56.208 109.811C55.9231 110.484 55.6301 111.176 55.3313 111.881C53.8757 115.277 52.558 118.35 51.5875 120.613C51.1077 121.702 50.7141 122.595 50.4264 123.248C50.2933 123.537 50.1851 123.773 50.0989 123.96C50.0218 124.122 49.9768 124.205 49.9691 124.202Z" fill="#17282F"/>
<path d="M48.8674 124.003L38.0416 111.153L39.7928 108.01L37.5908 105.55C38.5911 106.297 39.7032 107.127 40.8995 108.02C40.3724 108.782 39.8231 109.576 39.2571 110.394L39.2078 110.465L39.258 110.536C39.611 111.033 39.9703 111.538 40.3347 112.051C42.872 115.592 45.1686 118.796 46.8521 121.145C46.9247 121.245 46.9959 121.343 47.0661 121.439L48.8674 124.003" fill="#295DBE"/>
<path d="M47.0656 121.439C46.9954 121.342 46.9242 121.245 46.8516 121.145C45.1681 118.796 42.8715 115.591 40.3342 112.051C39.9698 111.538 39.6105 111.033 39.2576 110.536L39.2073 110.465L39.2566 110.394C39.8226 109.576 40.3719 108.782 40.899 108.02C39.7027 107.127 38.5906 106.297 37.5903 105.55L37.2568 105.177L41.0615 107.993L39.3586 110.464L47.0656 121.439" fill="#0F191D"/>
<path d="M50.5938 122.868C50.8604 122.263 51.1951 121.504 51.5878 120.613C52.5583 118.349 53.876 115.276 55.3316 111.881C55.5983 111.251 55.8602 110.633 56.1159 110.03L56.2514 111.768L50.5938 122.868Z" fill="#295DBE"/>
<path d="M50.2227 123.597L56.0948 109.763L56.1159 110.03C55.8602 110.633 55.5983 111.251 55.3316 111.881C53.876 115.276 52.5583 118.349 51.5878 120.613C51.1951 121.504 50.8604 122.263 50.5937 122.868L50.2227 123.597" fill="#0F191D"/>
<path d="M21.3252 137.986C21.3388 137.963 21.7157 138.195 22.4729 138.497C23.2245 138.811 24.3372 139.232 25.7514 139.72C28.5777 140.701 32.5965 141.987 37.2911 143.398L37.1423 143.48C37.7028 141.393 38.3113 139.129 38.9419 136.78L38.9958 136.918C38.9103 136.864 38.8181 136.806 38.7255 136.747C35.8254 134.909 33.0673 133.161 30.5786 131.583L30.5058 131.537L30.5298 131.455C31.7195 127.37 32.7308 123.898 33.4513 121.425C33.8123 120.215 34.0998 119.251 34.3034 118.568C34.4022 118.252 34.48 118.001 34.5387 117.813C34.5941 117.642 34.6259 117.554 34.6321 117.556C34.638 117.558 34.6184 117.649 34.5748 117.823C34.5249 118.014 34.4581 118.268 34.3739 118.589C34.1854 119.275 33.9185 120.246 33.5841 121.463C32.8854 123.942 31.9039 127.423 30.7496 131.518L30.7006 131.39C33.1928 132.962 35.9544 134.705 38.8587 136.537C38.9513 136.595 39.0437 136.653 39.129 136.708L39.2066 136.757L39.1828 136.845C38.548 139.193 37.9361 141.456 37.3718 143.542L37.3398 143.661L37.2229 143.625C32.5288 142.198 28.5179 140.881 25.7016 139.86C24.2929 139.352 23.1854 138.909 22.4413 138.571C21.6912 138.244 21.3252 137.986 21.3252 137.986" fill="#17282F"/>
<path d="M31.2508 105.441C31.2613 105.427 31.3776 105.503 31.5805 105.652C31.7861 105.798 32.0625 106.037 32.3818 106.356C33.0218 106.989 33.793 107.997 34.352 109.263C34.9064 110.531 35.1271 111.781 35.1602 112.681C35.1783 113.131 35.1677 113.497 35.1359 113.747C35.1088 113.997 35.0854 114.134 35.0683 114.133C35.0237 114.129 35.0646 113.576 34.9842 112.693C34.9068 111.812 34.6646 110.601 34.1237 109.363C33.5779 108.127 32.8503 107.13 32.2537 106.476C31.658 105.82 31.2229 105.476 31.2508 105.441" fill="#17282F"/>
<path d="M62.8484 116.985C62.7799 116.99 62.5467 114.382 62.3284 111.162C62.1101 107.94 61.9884 105.325 62.0574 105.321C62.1259 105.316 62.3586 107.923 62.5774 111.144C62.7957 114.365 62.9169 116.98 62.8484 116.985" fill="#17282F"/>
<path d="M53.2551 101.6C53.2632 101.608 53.1742 101.708 52.9994 101.886C52.8251 102.065 52.5656 102.324 52.228 102.646C51.5515 103.286 50.568 104.202 49.224 105.093L49.0664 105.198L49.0583 105.008C49.0257 104.201 48.997 103.323 48.6709 102.459C48.5168 102.026 48.3061 101.6 48.0518 101.188C47.9245 100.981 47.7858 100.779 47.6368 100.581L47.5805 100.507L47.5522 100.471L47.5451 100.461L47.5432 100.459L47.5423 100.458C47.4033 100.427 47.7308 100.498 47.6979 100.491L47.7002 100.489L47.6906 100.496C47.6562 100.523 47.6171 100.566 47.5829 100.611C47.5129 100.702 47.4514 100.807 47.3968 100.916C47.0594 101.604 46.9434 102.375 46.7966 103.097C46.6627 103.825 46.5497 104.529 46.4515 105.193L46.4225 105.39L46.2691 105.268C44.7987 104.095 43.5433 103.094 42.6186 102.357C42.2004 102.014 41.8579 101.732 41.5908 101.513C41.3549 101.314 41.2321 101.203 41.2401 101.193C41.2482 101.183 41.3864 101.275 41.6366 101.456C41.914 101.662 42.2698 101.927 42.7042 102.25C43.6424 102.969 44.9161 103.944 46.4083 105.087L46.2259 105.161C46.3178 104.492 46.4255 103.787 46.5566 103.054C46.7015 102.327 46.8125 101.546 47.1742 100.804C47.234 100.685 47.301 100.568 47.3861 100.458C47.4297 100.403 47.4746 100.35 47.5395 100.299L47.5685 100.278L47.581 100.271C47.5489 100.262 47.8775 100.334 47.7385 100.304L47.7394 100.305L47.7413 100.308L47.7486 100.317L47.7776 100.356L47.8358 100.431C47.9886 100.636 48.1313 100.845 48.262 101.058C48.5235 101.485 48.7394 101.928 48.8969 102.378C49.2312 103.281 49.2508 104.201 49.2723 105L49.1067 104.914C50.4459 104.052 51.4438 103.166 52.1438 102.554C52.4718 102.264 52.7413 102.027 52.9544 101.839C53.1431 101.675 53.2474 101.591 53.2551 101.6" fill="#17282F"/>
<path d="M49.5973 123.793C49.5288 123.799 49.0342 118.595 48.4932 112.172C47.9516 105.747 47.5687 100.536 47.6373 100.53C47.7058 100.524 48.2001 105.726 48.7417 112.152C49.2827 118.574 49.6658 123.787 49.5973 123.793Z" fill="#17282F"/>
<path d="M34.0515 129.966L33.0591 123.326C33.0668 123.299 33.0745 123.271 33.0821 123.244C33.3455 125.132 33.7169 127.687 34.0515 129.965V129.966Z" fill="#A7A9A8"/>
<path d="M34.0514 129.965C33.7168 127.687 33.3454 125.132 33.082 123.244C33.1075 123.153 33.1329 123.063 33.158 122.975L34.4691 118.672L34.0514 129.965" fill="#295DBE"/>
<path d="M33.0592 123.326L33.0566 123.308L33.1582 122.975C33.1331 123.064 33.1077 123.154 33.0823 123.244C33.0746 123.271 33.0669 123.299 33.0592 123.326Z" fill="#0F191D"/>
<path d="M42.7782 135.799L47.0725 140.576H77.1568L87.1434 121.393C87.6265 120.465 86.9528 119.355 85.9061 119.355H56.4582C55.8942 119.355 55.3857 119.694 55.1697 120.215L49.1118 134.841L43.2893 134.691C42.7063 134.676 42.3884 135.366 42.7782 135.799" fill="#33535F"/>
<path d="M42.8036 134.885C42.8115 134.877 42.9241 134.98 43.1282 135.18C43.3517 135.404 43.6434 135.696 44.0035 136.057C44.7726 136.848 45.8321 137.938 47.1005 139.242L46.9304 139.271C47.807 137.339 48.8554 135.016 49.9524 132.507C51.452 129.086 52.7582 125.967 53.6981 123.708C54.1587 122.601 54.536 121.695 54.8123 121.031C54.9387 120.738 55.0417 120.498 55.1235 120.307C55.1973 120.142 55.2399 120.057 55.248 120.061C55.2562 120.064 55.2293 120.154 55.1705 120.325C55.1001 120.521 55.0115 120.766 54.9023 121.067C54.6643 121.709 54.31 122.634 53.8619 123.774C52.9631 126.052 51.6813 129.184 50.1808 132.607C49.0828 135.118 48.0204 137.436 47.1195 139.358L47.0541 139.498L46.9495 139.386C45.7074 138.057 44.6699 136.946 43.9165 136.14C43.5733 135.763 43.2956 135.457 43.0825 135.224C42.893 135.01 42.796 134.893 42.8036 134.885" fill="#17282F"/>
<path d="M68.5234 131.383C67.5772 131.839 66.4865 131.536 66.0876 130.707C65.6883 129.878 66.1322 128.837 67.0783 128.381C68.0249 127.926 69.1157 128.228 69.5145 129.058C69.9134 129.887 69.4695 130.928 68.5234 131.383" fill="white"/>
<path d="M39.0623 137.133L41.7884 136.878C41.7884 136.878 46.6881 135.244 47.5049 135.389C47.5049 135.389 47.7449 136.205 46.8802 136.733C46.0155 137.262 44.7184 137.886 44.7184 137.886L46.6739 140.121C46.9272 140.411 47.293 140.576 47.6774 140.576H54.086C54.086 140.576 53.8456 141.393 53.1734 141.586C52.5006 141.778 47.8294 143.171 47.8294 143.171L37.6934 142.103L39.0623 137.133Z" fill="#D2E0F9"/>
</g>
<defs>
<clipPath id="clip0_621_2003">
<rect width="510" height="176" fill="white"/>
</clipPath>
</defs>
</svg>
