<svg width="510" height="176" viewBox="0 0 510 176" fill="none" xmlns="http://www.w3.org/2000/svg">
<g clip-path="url(#clip0_620_1431)">
<rect width="510" height="176" fill="#3478F6"/>
<path fill-rule="evenodd" clip-rule="evenodd" d="M214.584 58.6155C217.694 57.2357 219.098 53.5949 217.718 50.484C216.337 47.3731 212.697 45.9701 209.586 47.3499C206.476 48.7304 205.073 52.3705 206.452 55.4814C207.833 58.5923 211.473 59.9953 214.584 58.6155ZM214.544 66.8562C213.291 67.0557 212.033 67.0827 210.8 66.9481L208.867 69.8318L203.508 67.7658L204.01 64.3305C203.006 63.6033 202.09 62.7392 201.296 61.7503L197.89 62.4223L195.562 57.1714L198.344 55.0972C198.144 53.8445 198.118 52.5858 198.253 51.354L195.369 49.4203L197.435 44.0611L200.87 44.5626C201.598 43.5588 202.462 42.6447 203.451 41.8494L202.779 38.4447L208.03 36.1142L210.103 38.8977C211.356 38.6974 212.614 38.672 213.847 38.8065L215.781 35.9221L221.14 37.988L220.638 41.4241C221.641 42.1513 222.556 43.0154 223.352 44.0035L226.756 43.3323L229.086 48.5832L226.303 50.6566C226.503 51.9093 226.529 53.1681 226.394 54.4006L229.278 56.3343L227.213 61.6928L223.777 61.1912C223.05 62.1951 222.186 63.1099 221.197 63.9052L221.868 67.3099L216.618 69.639L214.544 66.8562" fill="white"/>
<path d="M120.545 108.21C120.545 108.21 120.538 107.967 120.534 107.505C120.531 107.038 120.527 106.355 120.522 105.462C120.516 103.668 120.507 101.035 120.495 97.6558C120.482 90.9003 120.462 81.164 120.439 69.2107L120.545 69.3168C102.46 69.325 78.8677 69.3363 53.1428 69.3482H53.1375L53.2757 69.2107C53.2721 83.0132 53.2689 96.2012 53.266 108.21L53.1375 108.082C72.8779 108.107 89.7122 108.129 101.62 108.144C107.578 108.159 112.301 108.171 115.543 108.179C117.16 108.186 118.406 108.191 119.255 108.195C119.674 108.198 119.993 108.2 120.215 108.202C120.431 108.205 120.545 108.21 120.545 108.21C120.545 108.21 120.442 108.215 120.23 108.217C120.012 108.22 119.697 108.222 119.285 108.226C118.442 108.229 117.204 108.234 115.599 108.241C112.364 108.249 107.65 108.261 101.705 108.276C89.7767 108.291 72.9126 108.313 53.1375 108.338H53.0093V108.21C53.0064 96.2012 53.0032 83.0132 53 69.2107V69.0724H53.1375H53.1428C78.8677 69.0844 102.46 69.0956 120.545 69.1038L120.652 69.1045L120.652 69.2107C120.628 81.1916 120.609 90.9504 120.596 97.7215C120.584 101.09 120.575 103.715 120.569 105.504C120.563 106.388 120.56 107.065 120.557 107.527C120.553 107.982 120.545 108.21 120.545 108.21" fill="white"/>
<path d="M120.571 73.9328C120.571 74.009 105.494 74.071 86.8995 74.071C68.2982 74.071 53.2241 74.009 53.2241 73.9328C53.2241 73.8573 68.2982 73.7952 86.8995 73.7952C105.494 73.7952 120.571 73.8573 120.571 73.9328Z" fill="white"/>
<path d="M79.7985 101.185H58.9761V80.3635H79.7985V101.185Z" fill="#F3F2F1"/>
<path d="M115.657 83.7977C115.657 83.8075 115.551 83.8172 115.351 83.8262C115.119 83.8329 114.829 83.8411 114.473 83.8516C113.672 83.8628 112.578 83.8777 111.243 83.8957C108.482 83.9061 104.732 83.9203 100.588 83.936C96.4428 83.9203 92.6924 83.9061 89.9316 83.8957C88.596 83.8777 87.5023 83.8628 86.702 83.8516C86.3455 83.8411 86.0553 83.8329 85.8238 83.8262C85.6235 83.8172 85.5181 83.8075 85.5181 83.7977C85.5181 83.7888 85.6235 83.7798 85.8238 83.7701C86.0547 83.7634 86.3455 83.7551 86.702 83.7447C87.5023 83.7335 88.596 83.7193 89.9316 83.7006C92.6924 83.6901 96.4428 83.6759 100.588 83.6602C104.732 83.6759 108.482 83.6901 111.243 83.7006C112.578 83.7193 113.672 83.7335 114.473 83.7447C114.829 83.7551 115.119 83.7634 115.351 83.7701C115.551 83.7798 115.657 83.7888 115.657 83.7977" fill="white"/>
<path d="M116.328 88.4494C116.328 88.4591 116.22 88.4681 116.015 88.477C115.779 88.4838 115.482 88.4927 115.117 88.5032C114.3 88.5137 113.181 88.5286 111.816 88.5465C108.995 88.557 105.16 88.5719 100.923 88.5876C96.6852 88.5719 92.8504 88.557 90.0296 88.5465C88.6635 88.5286 87.5449 88.5137 86.728 88.5032C86.3633 88.4927 86.0661 88.4838 85.8307 88.477C85.6255 88.4681 85.5181 88.4591 85.5181 88.4494C85.5181 88.4397 85.6255 88.4307 85.8307 88.4217C86.0661 88.415 86.3633 88.4068 86.728 88.3955C87.5449 88.3851 88.6635 88.3701 90.0296 88.3522C92.8504 88.3417 96.6852 88.3275 100.923 88.3118C105.16 88.3275 108.995 88.3417 111.816 88.3522C113.181 88.3701 114.3 88.3851 115.117 88.3955C115.482 88.4068 115.779 88.415 116.015 88.4217C116.22 88.4307 116.328 88.4397 116.328 88.4494Z" fill="white"/>
<path d="M116.328 93.1C116.328 93.1097 116.22 93.1194 116.015 93.1284C115.779 93.1351 115.482 93.1434 115.117 93.1538C114.3 93.165 113.181 93.18 111.816 93.1979C108.995 93.2084 105.16 93.2226 100.923 93.2383C96.6852 93.2226 92.8504 93.2084 90.0296 93.1979C88.6635 93.18 87.5449 93.165 86.728 93.1538C86.3633 93.1434 86.0661 93.1351 85.8307 93.1284C85.6255 93.1194 85.5181 93.1097 85.5181 93.1C85.5181 93.091 85.6255 93.0813 85.8307 93.0723C86.0661 93.0656 86.3633 93.0574 86.728 93.0469C87.5449 93.0357 88.6635 93.0208 90.0296 93.0028C92.8504 92.9924 96.6852 92.9782 100.923 92.9625C105.16 92.9782 108.995 92.9924 111.816 93.0028C113.181 93.0208 114.3 93.0357 115.117 93.0469C115.482 93.0574 115.779 93.0656 116.015 93.0723C116.22 93.0813 116.328 93.091 116.328 93.1Z" fill="white"/>
<path d="M116.328 97.7509C116.328 97.7606 116.22 97.7696 116.015 97.7785C115.779 97.7853 115.482 97.7942 115.117 97.8047C114.3 97.8152 113.181 97.8301 111.816 97.8481C108.995 97.8585 105.16 97.8735 100.923 97.8892C96.6852 97.8735 92.8504 97.8585 90.0296 97.8481C88.6635 97.8301 87.5449 97.8152 86.728 97.8047C86.3633 97.7942 86.0661 97.7853 85.8307 97.7785C85.6255 97.7696 85.5181 97.7606 85.5181 97.7509C85.5181 97.7412 85.6255 97.7322 85.8307 97.7232C86.0661 97.7165 86.3633 97.7075 86.728 97.6971C87.5449 97.6866 88.6635 97.6717 90.0296 97.6537C92.8504 97.6425 96.6852 97.6283 100.923 97.6126C105.16 97.6283 108.995 97.6425 111.816 97.6537C113.181 97.6717 114.3 97.6866 115.117 97.6971C115.482 97.7075 115.779 97.7165 116.015 97.7232C116.22 97.7322 116.328 97.7412 116.328 97.7509Z" fill="white"/>
<path d="M253.897 63.0713C253.902 63.0841 253.81 63.1334 253.628 63.2171C253.448 63.3038 253.166 63.4032 252.793 63.4795C252.057 63.6379 250.867 63.6633 249.63 63.0086C248.408 62.3897 247.211 60.9545 247.077 59.0837C247.002 58.1658 247.2 57.1687 247.705 56.2964C248.193 55.4144 249.002 54.6767 249.975 54.235C250.957 53.8096 252.047 53.7035 253.028 53.9345C254.014 54.1453 254.886 54.6685 255.517 55.3397C256.814 56.6948 257.075 58.5455 256.713 59.867C256.368 61.2236 255.55 62.0877 254.94 62.5272C254.632 62.7529 254.369 62.8949 254.184 62.9704C254 63.0489 253.902 63.0841 253.897 63.0713C253.877 63.0347 254.272 62.8763 254.847 62.4076C255.41 61.9464 256.154 61.0906 256.445 59.8035C256.753 58.547 256.474 56.8294 255.258 55.5878C254.668 54.9727 253.857 54.4966 252.947 54.3067C252.039 54.0989 251.038 54.1998 250.133 54.5915C249.237 54.9996 248.49 55.6738 248.036 56.4855C247.565 57.2875 247.375 58.2084 247.434 59.059C247.539 60.7931 248.625 62.1527 249.762 62.7679C250.913 63.4159 252.046 63.4391 252.766 63.33C253.5 63.2186 253.882 63.0325 253.897 63.0713" fill="white"/>
<path d="M253.866 69.405C253.868 69.3998 253.904 69.4409 253.975 69.5276C254.056 69.63 254.159 69.76 254.288 69.9222C254.578 70.2989 254.986 70.8267 255.51 71.5068L255.435 71.4867C256.47 71.0173 257.823 70.4043 259.455 69.6636L259.399 69.7727C259.237 68.9797 259.059 68.0999 258.867 67.1589L258.853 67.0916L258.908 67.0475C259.601 66.4832 260.272 65.7933 260.859 64.9756L260.904 64.9135L260.981 64.924C261.805 65.0414 262.696 65.1677 263.623 65.2992L263.474 65.3867C263.97 64.0869 264.496 62.7086 265.048 61.2622L265.105 61.4439C264.418 60.9864 263.661 60.4819 262.885 59.9646L262.804 59.9108L262.815 59.8129C262.909 58.9362 262.898 57.9592 262.738 56.9793L262.722 56.8792L262.804 56.8186C263.466 56.3231 264.196 55.7767 264.94 55.2206L264.884 55.4299C264.32 54.1629 263.711 52.7973 263.087 51.3973L263.288 51.5012C262.473 51.6634 261.578 51.8413 260.672 52.0215L260.562 52.0431L260.491 51.9557C259.935 51.265 259.236 50.5834 258.44 50.0093L258.347 49.9428L258.363 49.8292C258.484 49.0018 258.615 48.0996 258.747 47.1884L258.867 47.394C257.563 46.8917 256.164 46.3543 254.746 45.8086L254.977 45.7354C254.507 46.4365 254.001 47.1914 253.492 47.9531L253.426 48.051L253.308 48.0375C252.416 47.9396 251.443 47.9531 250.486 48.1071H250.485H250.484C250.4 48.0734 250.67 48.1833 250.296 48.0316L250.295 48.0293L250.292 48.0248L250.286 48.0166L250.273 47.9994L250.248 47.9658L250.197 47.8985L250.097 47.764L249.897 47.4949L249.497 46.9582C249.231 46.6017 248.966 46.2459 248.703 45.8916L248.937 45.9536C247.574 46.5576 246.228 47.1548 244.901 47.743L245.012 47.5293C245.185 48.4105 245.357 49.2828 245.527 50.1461L245.549 50.2605L245.459 50.3322C244.713 50.9309 244.057 51.6238 243.509 52.3795L243.441 52.4722L243.328 52.4557C242.436 52.3242 241.556 52.1949 240.688 52.0678L240.888 51.9505C240.345 53.3557 239.813 54.7287 239.294 56.0674L239.228 55.8544C239.978 56.3597 240.716 56.8567 241.441 57.3441L241.529 57.4031L241.517 57.5078C241.41 58.4705 241.437 59.425 241.581 60.3399L241.597 60.4415L241.515 60.5021C240.78 61.0462 240.068 61.5747 239.372 62.0904L239.424 61.8953C240.049 63.3162 240.639 64.6579 241.202 65.9361L241.037 65.8501C241.958 65.6715 242.822 65.5048 243.655 65.3426L243.739 65.3269L243.792 65.3927C244.425 66.185 245.121 66.8308 245.844 67.3592L245.906 67.4063L245.895 67.4818C245.751 68.44 245.62 69.3041 245.497 70.1203L245.424 69.9962C247.014 70.6203 248.371 71.1533 249.534 71.6107L249.431 71.6429C250.03 70.7661 250.523 70.0448 250.937 69.4401L250.958 69.4087L250.996 69.4132C251.957 69.5253 252.68 69.4924 253.154 69.4618C253.377 69.4424 253.552 69.4267 253.688 69.4147C253.812 69.402 253.868 69.4005 253.866 69.405C253.864 69.4095 253.803 69.4244 253.693 69.4469C253.576 69.4685 253.4 69.4984 253.16 69.5261C252.685 69.5777 251.957 69.6315 250.982 69.5373L251.041 69.5096C250.638 70.1218 250.159 70.8521 249.575 71.74L249.537 71.7983L249.471 71.7737C248.302 71.3312 246.939 70.8154 245.341 70.2107L245.256 70.1794L245.27 70.0867C245.385 69.2697 245.506 68.4049 245.642 67.4452L245.693 67.567C244.949 67.0311 244.23 66.3763 243.574 65.5676L243.71 65.6169C242.877 65.7843 242.014 65.9577 241.094 66.1424L240.978 66.1655L240.929 66.0571C240.36 64.782 239.761 63.4441 239.128 62.0261L239.075 61.9088L239.179 61.831C239.872 61.3116 240.581 60.7801 241.314 60.2322L241.248 60.3929C241.095 59.4497 241.064 58.4638 241.17 57.4704L241.247 57.6341C240.52 57.149 239.781 56.6549 239.028 56.1519L238.909 56.0719L238.96 55.9381C239.475 54.5979 240.002 53.2241 240.542 51.8174L240.595 51.6791L240.741 51.7001C241.611 51.8256 242.49 51.9534 243.383 52.0828L243.203 52.1582C243.769 51.3749 244.447 50.6559 245.22 50.0347L245.152 50.2201C244.981 49.3568 244.808 48.4845 244.634 47.604L244.604 47.453L244.745 47.3902C246.071 46.8012 247.416 46.2033 248.78 45.5978L248.922 45.5351L249.014 45.6599C249.278 46.0134 249.543 46.3692 249.81 46.7258L250.209 47.2624L250.41 47.5315L250.51 47.666L250.56 47.7333L250.585 47.767L250.598 47.7841L250.604 47.7924L250.607 47.7968L250.609 47.7983C250.236 47.6466 250.505 47.7565 250.422 47.7229H250.423H250.425C251.418 47.5629 252.426 47.5494 253.351 47.6511L253.169 47.7363C253.679 46.9754 254.186 46.2205 254.656 45.5201L254.742 45.3923L254.886 45.4476C256.303 45.9947 257.7 46.5344 259.005 47.0382L259.147 47.0928L259.125 47.2437C258.991 48.1549 258.857 49.0571 258.736 49.8838L258.66 49.7044C259.483 50.3001 260.207 51.0079 260.78 51.724L260.6 51.6582C261.507 51.4811 262.402 51.3061 263.217 51.1462L263.36 51.1185L263.418 51.2508C264.037 52.6523 264.641 54.0201 265.202 55.2893L265.258 55.4164L265.147 55.4994C264.401 56.0517 263.669 56.5951 263.004 57.0877L263.07 56.927C263.23 57.9376 263.237 58.9459 263.134 59.848L263.064 59.6978C263.837 60.2188 264.591 60.7271 265.277 61.1897L265.378 61.2585L265.334 61.3721C264.772 62.8154 264.238 64.19 263.733 65.4861L263.693 65.59L263.584 65.5735C262.658 65.4345 261.767 65.3007 260.944 65.1774L261.066 65.1258C260.458 65.9577 259.766 66.6566 259.051 67.2254L259.091 67.1141C259.272 68.0573 259.44 68.9401 259.592 69.7339L259.607 69.8124L259.535 69.8438C257.89 70.5568 256.528 71.1481 255.485 71.6003L255.439 71.6204L255.41 71.5808C254.915 70.8924 254.53 70.3587 254.256 69.9783C254.135 69.8049 254.039 69.6659 253.962 69.5567C253.897 69.4611 253.864 69.4095 253.866 69.405" fill="white"/>
<path d="M253.896 63.0708C253.896 63.0708 253.852 63.0865 253.76 63.1247C253.668 63.162 253.529 63.2151 253.343 63.2704C252.974 63.3788 252.402 63.5186 251.656 63.4655C250.918 63.4162 249.996 63.1703 249.135 62.5327C248.275 61.9093 247.519 60.8419 247.29 59.501C247.054 58.1743 247.445 56.5777 248.57 55.4192C249.664 54.2599 251.523 53.6417 253.279 54.144C254.151 54.3854 254.976 54.8885 255.599 55.603C256.231 56.3206 256.639 57.2347 256.764 58.2191C256.876 59.202 256.68 60.2328 256.188 61.129C255.942 61.5767 255.626 61.9893 255.248 62.3443C255.059 62.5244 254.853 62.6822 254.642 62.8302C254.536 62.9042 254.427 62.9744 254.316 63.0417L254.149 63.1388L254.068 63.1845L254.033 63.2054L254.026 63.2091L254.045 63.1919C254.022 63.2315 254.135 63.1 254.069 62.9819L253.845 62.8832C254.008 62.8324 254.216 62.73 254.399 62.6224C256.133 61.638 256.948 59.4793 256.508 57.6772C256.106 55.831 254.551 54.4452 252.862 54.141C251.167 53.7912 249.45 54.4744 248.448 55.6254C247.421 56.7773 247.089 58.3118 247.333 59.5929C247.577 60.883 248.311 61.922 249.154 62.5304C249.998 63.1553 250.905 63.4064 251.639 63.4588C252.381 63.5163 252.955 63.3803 253.33 63.2719C253.707 63.1613 253.89 63.0596 253.896 63.0708C253.904 63.082 253.73 63.2091 253.354 63.3466C252.981 63.4812 252.398 63.6456 251.63 63.6097C250.871 63.5791 249.921 63.3422 249.025 62.7061C248.13 62.0842 247.338 61.0079 247.062 59.6438C246.785 58.2961 247.12 56.6502 248.206 55.4117C249.267 54.1732 251.101 53.422 252.933 53.789C253.839 53.9564 254.718 54.3966 255.426 55.0589C256.135 55.7144 256.647 56.6151 256.879 57.5883C257.362 59.5503 256.486 61.8786 254.597 62.958C254.387 63.0783 254.186 63.183 253.947 63.2584L253.797 63.3063L253.724 63.1598C253.659 63.0342 253.775 62.8952 253.757 62.9303L253.794 62.8967L253.827 62.875L253.874 62.8473L253.957 62.8003L254.115 62.7083C254.22 62.6455 254.321 62.5798 254.42 62.511C254.62 62.3712 254.81 62.2247 254.982 62.0618C255.329 61.7351 255.622 61.3547 255.849 60.9428C256.304 60.1199 256.487 59.1661 256.387 58.2625C256.277 57.3663 255.895 56.5 255.322 55.8482C254.75 55.1837 253.986 54.7158 253.185 54.4871C251.558 54.0132 249.832 54.5693 248.798 55.6434C247.742 56.7108 247.353 58.2049 247.559 59.4591C247.758 60.7231 248.456 61.7531 249.265 62.3615C250.076 62.9864 250.955 63.2465 251.668 63.316C252.389 63.39 252.952 63.2786 253.324 63.1957C253.695 63.1104 253.892 63.0342 253.896 63.0708" fill="white"/>
<path d="M253.866 69.4053C254.032 69.6281 254.478 70.2268 255.48 71.5722L255.428 71.558C256.473 71.0938 257.853 70.4817 259.546 69.7305L259.505 69.8082C259.345 69.0032 259.168 68.104 258.977 67.1368L259.134 67.1495L259.105 67.2265L258.978 67.1353C259.68 66.5695 260.361 65.8758 260.961 65.0492L261.07 65.1882L260.985 65.2248L260.964 65.0477C261.802 65.1702 262.721 65.304 263.681 65.4438L263.571 65.5074C264.086 64.1687 264.636 62.7433 265.216 61.2357L265.258 61.3702C264.561 60.903 263.777 60.3783 262.97 59.8372L263.145 59.6877L263.195 59.7931L262.966 59.8297C263.062 58.9567 263.056 57.9581 262.895 56.955L263.136 56.9827L263.092 57.0955L262.899 56.946C263.571 56.443 264.334 55.8749 265.113 55.2934L265.072 55.4526C264.495 54.1543 263.856 52.7184 263.198 51.2377L263.354 51.3192C262.529 51.4821 261.592 51.6675 260.639 51.8566L260.66 51.5763L260.786 51.6219L260.622 51.8499C260.073 51.1675 259.358 50.4634 258.539 49.8721L258.765 49.692L258.818 49.8176L258.531 49.8542C258.652 49.0178 258.79 48.07 258.93 47.108L259.027 47.2747C257.698 46.7635 256.218 46.1946 254.707 45.6131L254.897 45.5533C254.426 46.2574 253.893 47.0542 253.354 47.8607L253.148 47.6208L253.275 47.561L253.326 47.8734C252.451 47.7778 251.454 47.7845 250.454 47.9474L250.481 47.9415L250.48 47.9422L250.495 47.626L250.506 47.6305L250.508 47.6313L250.513 47.6327L250.382 47.9422L250.38 47.9415L250.38 47.9407L250.377 47.94L250.371 47.9377L250.361 47.9332L250.359 47.9325L250.363 47.9347C250.377 47.9347 250.349 47.9392 250.427 47.9437L250.532 47.6514L250.507 47.6327L250.49 47.6245L250.489 47.623L250.533 47.641L250.625 47.6784L250.427 47.9355C249.919 47.2545 249.345 46.4862 248.766 45.7103L248.972 45.7641C247.666 46.3456 246.214 46.9914 244.741 47.6477L244.842 47.4534C245.008 48.289 245.195 49.2286 245.383 50.1748L245.041 50.1487L245.088 50.0186L245.367 50.2189C244.677 50.7728 243.979 51.4866 243.395 52.2976L243.179 52.0263L243.304 51.9732L243.348 52.3178C242.502 52.1959 241.557 52.0592 240.605 51.9216L240.801 51.8065C240.288 53.1452 239.721 54.6237 239.148 56.1186L239.077 55.8981C239.79 56.3735 240.583 56.9027 241.38 57.4349L241.107 57.6696L241.053 57.5552L241.409 57.4961C241.312 58.3811 241.324 59.376 241.484 60.3552L241.123 60.3148L241.169 60.2019L241.457 60.4239C240.77 60.9374 240.012 61.5055 239.249 62.0765L239.308 61.8471C239.894 63.1581 240.534 64.5917 241.179 66.0373L240.966 65.9274C241.809 65.7585 242.734 65.5739 243.664 65.387L243.635 65.757L243.54 65.7226L243.756 65.4206C244.319 66.1173 245.029 66.8049 245.829 67.3797L245.538 67.6107L245.503 67.5262L245.871 67.4784C245.751 68.3267 245.618 69.2536 245.486 70.1834L245.363 69.9756C246.698 70.4832 248.143 71.0325 249.596 71.5841L249.365 71.6589C249.836 70.9443 250.349 70.17 250.863 69.3926L251.107 69.6767L251.066 69.6953L251.003 69.3261C251.775 69.4023 252.621 69.4053 253.449 69.2798L253.65 69.2521L253.658 69.2745L253.671 69.3082L253.684 69.3246L253.686 69.3268L253.687 69.3276C253.627 69.3201 253.72 69.6198 253.792 69.5847L253.815 69.5929L253.858 69.5989H253.856L253.45 69.6385C253.174 69.6677 252.89 69.6871 252.612 69.6953C252.052 69.7125 251.493 69.6856 250.945 69.6221L251.128 69.5384C250.617 70.2911 250.114 71.031 249.613 71.7673L249.393 71.4728L249.466 71.4496L249.454 71.8166C248.073 71.2769 246.702 70.741 245.341 70.2096L245.579 69.9315L245.63 70.0182L245.271 70.087C245.406 69.1856 245.54 68.2879 245.674 67.3947L245.751 67.5793C244.93 66.9858 244.193 66.278 243.572 65.4939L243.759 65.5619C242.86 65.7368 241.969 65.9102 241.082 66.0829L241.133 65.7249L241.249 65.7847L240.985 66.0313C240.385 64.6702 239.792 63.3248 239.205 61.9913L239.562 61.9637L239.527 62.0997L239.23 61.8994C239.968 61.3508 240.701 60.8074 241.429 60.2677L241.355 60.4486C241.189 59.4365 241.17 58.408 241.288 57.4087L241.369 57.5844C240.601 57.0679 239.844 56.5588 239.094 56.0536L239.373 55.8435L239.42 55.9923L239.071 55.9811C239.61 54.5915 240.141 53.2192 240.666 51.8648L240.928 52.0876L240.788 52.169L240.723 51.8319C241.646 51.968 242.548 52.101 243.441 52.2333L243.269 52.3051C243.875 51.4597 244.589 50.7197 245.375 50.0986L245.311 50.2713C245.13 49.3489 244.955 48.4572 244.783 47.5752L245.11 47.6215L245.033 47.7703L244.806 47.5296C246.186 46.9189 247.527 46.3262 248.844 45.7439L248.87 46.0653L248.707 46.0227L248.887 45.7552C249.436 46.4951 249.96 47.2 250.478 47.8966L250.407 47.8405L250.497 47.8779L250.54 47.8951L250.546 47.8981L250.537 47.8944L250.515 47.8891L250.332 47.9878L250.401 48.1993L250.419 48.2075L250.419 48.2083L250.409 48.2038L250.404 48.2016L250.4 48.2008L250.398 48.2001L250.398 48.1993L250.52 47.8876L250.524 47.8884L250.525 47.8891L250.537 47.8944L250.459 47.8824H250.46L250.442 47.8846C251.475 47.7217 252.455 47.715 253.414 47.8256L253.26 47.8973C253.795 47.1013 254.298 46.3524 254.795 45.6139L254.976 45.8575L254.817 45.9076L254.826 45.6042C256.261 46.1595 257.619 46.6835 258.943 47.1962L258.754 47.4182L258.67 47.2747L258.957 47.2194C258.815 48.1814 258.685 49.0671 258.557 49.9386L258.496 49.7951C259.377 50.4267 260.094 51.1308 260.698 51.891L260.556 51.8394C261.522 51.6496 262.394 51.4776 263.249 51.3102L263.212 51.5733L263.071 51.5001L263.265 51.3184C263.908 52.7693 264.491 54.0855 265.053 55.3554L264.804 55.3756L264.843 55.2299L265.049 55.3689C264.242 55.9691 263.539 56.4923 262.852 57.0036L262.901 56.8825C263.083 57.991 263.078 58.9709 262.974 59.9L262.922 59.7878C263.776 60.3611 264.497 60.8447 265.193 61.3126L265.024 61.4405L264.984 61.3126L265.196 61.3186C264.594 62.8793 264.083 64.2001 263.607 65.4378L263.462 65.3153L263.567 65.2547L263.603 65.4393C262.541 65.2839 261.704 65.1613 260.909 65.0447L260.996 65.008C260.286 65.9865 259.61 66.6285 258.942 67.1675L258.97 67.0897C259.19 68.2027 259.348 69.0077 259.496 69.7529L259.366 69.7349L259.406 69.6587L259.496 69.7536C257.741 70.5317 256.45 71.1043 255.459 71.543L255.453 71.4631L255.505 71.4765L255.461 71.5438C254.451 70.1902 254.027 69.6221 253.866 69.4053C253.876 69.3949 254.015 69.5638 254.293 69.9084C254.572 70.2664 254.98 70.7896 255.528 71.4922L255.604 71.5894L255.484 71.5587L255.432 71.5453L255.314 71.5161L255.425 71.4653C256.409 71.0146 257.693 70.4271 259.439 69.6281L259.62 69.5451L259.529 69.723L259.49 69.7985L259.399 69.9734L259.36 69.7805C259.206 69.0368 259.041 68.2326 258.812 67.1211L258.803 67.074L258.84 67.0426C259.496 66.5052 260.155 65.8691 260.848 64.9019L260.88 64.8571L260.934 64.8645C261.731 64.9759 262.568 65.0933 263.631 65.242L263.914 65.2816L263.667 65.4266L263.563 65.4879L263.319 65.6322L263.42 65.3661C263.89 64.1261 264.393 62.8023 264.986 61.2386L265.1 60.9374L265.198 61.2454L265.238 61.3724L265.336 61.6782L265.069 61.5003C264.369 61.0353 263.647 60.5562 262.789 59.9859L262.729 59.9463L262.737 59.8745C262.834 58.9619 262.834 58.0074 262.652 56.9221L262.639 56.8474L262.701 56.801C263.385 56.2875 264.086 55.7613 264.891 55.1574L265.193 54.9309L265.098 55.2964L265.06 55.4429L264.965 55.8069L264.811 55.4631C264.244 54.1954 263.656 52.8806 263.009 51.4328L262.844 51.0658L263.201 51.2512L263.342 51.3229L263.699 51.5076L263.305 51.5868C262.45 51.758 261.578 51.9314 260.612 52.125L260.526 52.1421L260.47 52.0734C259.878 51.3334 259.181 50.6532 258.32 50.0388L258.246 49.9857L258.259 49.8953C258.385 49.023 258.513 48.1373 258.651 47.1746L258.714 46.738L258.937 47.1185L259.022 47.262L259.244 47.6432L258.833 47.4848C257.506 46.9765 256.147 46.4555 254.71 45.9039L254.281 45.7402L254.719 45.6012L254.88 45.5496L255.317 45.4113L255.062 45.7933C254.568 46.5333 254.066 47.2829 253.533 48.0805L253.478 48.1634L253.378 48.1522C252.449 48.0461 251.484 48.0581 250.507 48.2135L250.494 48.2158L250.49 48.2165L250.449 48.2203L250.412 48.2053L250.402 48.2016V48.2008L250.433 48.1201L250.442 48.1044L250.505 47.9459C250.536 47.8704 250.528 47.8906 250.528 47.8906H250.529L250.531 47.8914L250.537 47.8936L250.548 47.8981L250.552 47.8996L250.57 47.9093L250.639 48.1208L250.457 48.2195L250.435 48.2143L250.421 48.209L250.415 48.2061L250.371 48.1888L250.28 48.1522L250.237 48.1343L250.208 48.0962C249.689 47.401 249.164 46.6977 248.613 45.9592L248.322 45.569L248.793 45.6916L248.957 45.7342L249.43 45.8575L248.983 46.0564C247.667 46.6416 246.328 47.2366 244.949 47.8503L244.492 48.0528L244.722 47.6088L244.799 47.4601L245.029 47.0146L245.127 47.5072C245.301 48.3899 245.478 49.2809 245.66 50.2033L245.681 50.3094L245.597 50.3759C244.834 50.9821 244.15 51.6937 243.561 52.5174L243.498 52.6056L243.389 52.5899C242.496 52.4591 241.594 52.3275 240.669 52.193L240.156 52.1175L240.604 51.8544L240.743 51.7737L241.193 51.5098L241.006 51.9964C240.483 53.3515 239.953 54.7238 239.417 56.1148L239.227 56.6074L239.068 56.1044L239.021 55.9557L238.86 55.4504L239.3 55.7456C240.052 56.2501 240.809 56.7584 241.578 57.2749L241.672 57.3377L241.659 57.4506C241.546 58.4208 241.566 59.4081 241.727 60.3895L241.746 60.5017L241.654 60.5704C240.927 61.1108 240.195 61.655 239.456 62.2036L239.023 62.5258L239.16 62.0033L239.196 61.8672L239.333 61.3418L239.552 61.8381C240.14 63.1708 240.735 64.5162 241.335 65.8773L241.555 66.3751L241.072 66.124L240.957 66.065L240.47 65.8116L241.008 65.7069C241.895 65.5335 242.787 65.3594 243.685 65.1845L243.8 65.162L243.872 65.2532C244.476 66.0134 245.181 66.6921 245.979 67.2676L246.073 67.3356L246.056 67.4522C245.923 68.3447 245.788 69.2424 245.654 70.1438L245.573 70.6887L245.295 70.2133L245.245 70.1266L244.964 69.6467L245.482 69.8486C246.843 70.38 248.214 70.9152 249.595 71.4541L250.108 71.6544L249.583 71.8204L249.51 71.8435L248.976 72.0125L249.291 71.5483C249.791 70.812 250.294 70.0721 250.806 69.3201L250.872 69.2222L250.989 69.2357C251.521 69.2969 252.06 69.3231 252.6 69.3059C252.872 69.2977 253.139 69.2805 253.414 69.2513L253.834 69.2102L253.858 69.2095L253.914 69.2162L253.938 69.2244C254.011 69.1901 254.103 69.4898 254.044 69.4823L254.041 69.4838L254.038 69.4876L254 69.5159L253.911 69.5713L253.716 69.6355L253.506 69.6647C252.639 69.7962 251.763 69.7918 250.965 69.7133L250.258 69.643L250.901 69.3425L250.942 69.3238L251.567 69.0323L251.187 69.6079C250.673 70.3845 250.161 71.1589 249.688 71.8742L249.602 72.0035L249.457 71.9482C248.004 71.395 246.56 70.8457 245.225 70.3374L245.08 70.2821L245.102 70.1289C245.235 69.199 245.367 68.2722 245.489 67.4238L245.587 66.7347L245.858 67.376L245.894 67.4604L246.161 68.0943L245.603 67.6929C244.775 67.0972 244.039 66.3841 243.457 65.6621L243.022 65.1232L243.672 65.3608L243.767 65.3952L244.411 65.6299L243.739 65.7645C242.809 65.9506 241.884 66.1345 241.042 66.3026L240.891 66.3333L240.829 66.1928C240.185 64.7472 239.546 63.3128 238.962 62.0018L238.9 61.8628L239.022 61.7716C239.785 61.202 240.544 60.6347 241.231 60.122L241.773 59.7161L241.519 60.3439L241.473 60.4561L241.22 61.0794L241.112 60.415C240.948 59.4014 240.936 58.3714 241.037 57.4558L241.11 56.7898L241.392 57.3975L241.445 57.5119L241.727 58.1173L241.172 57.7458C240.376 57.2129 239.584 56.6829 238.872 56.206L238.749 56.1231L238.802 55.9855C239.376 54.4914 239.946 53.0144 240.461 51.6757L240.513 51.5389L240.658 51.5606C241.61 51.6996 242.555 51.8372 243.401 51.9613L244.041 52.0547L243.445 52.3051L243.319 52.3581L242.727 52.6078L243.103 52.0868C243.708 51.2489 244.431 50.5127 245.145 49.9416L245.642 49.5432L245.423 50.1412L245.375 50.2705L245.157 50.867L245.034 50.2443C244.848 49.2966 244.662 48.3578 244.498 47.5214L244.47 47.3839L244.599 47.3271C246.073 46.6745 247.526 46.031 248.833 45.4517L248.959 45.3964L249.04 45.5062C249.617 46.2821 250.188 47.0512 250.695 47.7322L251.055 48.2165L250.498 47.99L250.406 47.9519L250.362 47.934L250.349 47.9287L250.333 47.9198L250.308 47.9011L250.413 47.6088C250.49 47.6141 250.464 47.6178 250.477 47.6193L250.484 47.6208L250.487 47.6223L250.496 47.6268L250.501 47.629L250.504 47.6298H250.504L250.49 47.6627L250.41 47.86L250.419 47.8443L250.378 47.9407L250.377 47.94L250.368 47.9362L249.929 47.7561L250.383 47.6208L250.395 47.6171L250.41 47.6148C251.425 47.4519 252.464 47.4451 253.362 47.5468L253.946 47.6126L253.414 47.8592L253.287 47.9183L252.752 48.1657L253.081 47.6776C253.622 46.8733 254.158 46.0773 254.63 45.3739L254.702 45.2671L254.822 45.3134C256.332 45.8987 257.811 46.4712 259.138 46.9862L259.254 47.0303L259.236 47.1529C259.093 48.1141 258.953 49.0619 258.829 49.8975L258.75 50.4312L258.541 49.9342L258.488 49.8093L258.28 49.313L258.715 49.6284C259.557 50.2391 260.288 50.9634 260.85 51.6675L261.174 52.0749L260.686 51.8962L260.561 51.8499L260.07 51.6705L260.582 51.5703C261.536 51.385 262.474 51.2026 263.3 51.0426L263.411 51.021L263.456 51.1234C264.109 52.607 264.741 54.0444 265.314 55.3457L265.357 55.4429L265.272 55.5057C264.49 56.0842 263.725 56.65 263.05 57.1493L262.685 57.4192L262.856 56.9998L262.902 56.8877L263.074 56.4676L263.145 56.9154C263.306 57.9439 263.308 58.9641 263.205 59.8566L263.156 60.2819L262.977 59.894L262.928 59.7886L262.747 59.3969L263.104 59.6384C263.908 60.1832 264.69 60.7117 265.385 61.1826L265.46 61.2334L265.427 61.3179C264.838 62.8218 264.282 64.2449 263.76 65.5806L263.73 65.6561L263.651 65.6441C262.692 65.4976 261.774 65.3579 260.936 65.2308L260.609 65.1815L260.914 65.0544L260.999 65.0185L261.305 64.8907L261.109 65.1575C260.494 65.9947 259.798 66.6951 259.08 67.2631L258.851 67.444L258.952 67.1712L258.981 67.0935L259.082 66.8169L259.137 67.1062C259.32 68.0749 259.49 68.9748 259.642 69.7813L259.653 69.8374L259.601 69.859C257.9 70.59 256.513 71.1865 255.462 71.6372L255.43 71.6514L255.41 71.623C254.897 70.9025 254.507 70.3546 254.238 69.9756C254.115 69.7955 254.021 69.6572 253.95 69.5541C253.887 69.4502 253.866 69.4053 253.866 69.4053" fill="white"/>
<path d="M250.003 32.7963C251.612 32.0825 252.339 30.1989 251.624 28.5889C250.911 26.9789 249.026 26.2531 247.417 26.9669C245.807 27.6815 245.081 29.5651 245.795 31.1751C246.51 32.7851 248.393 33.5109 250.003 32.7963V32.7963ZM249.982 37.0613C249.334 37.1645 248.682 37.1787 248.046 37.1091L247.045 38.6011L244.271 37.5322L244.53 35.7548C244.011 35.378 243.538 34.9311 243.126 34.4191L241.364 34.7666L240.159 32.0496L241.599 30.9763C241.496 30.3283 241.482 29.6772 241.552 29.0389L240.059 28.0388L241.129 25.265L242.906 25.5251C243.282 25.0056 243.73 24.5317 244.242 24.1206L243.894 22.3589L246.611 21.1525L247.684 22.5928C248.333 22.4897 248.984 22.4763 249.621 22.5458L250.622 21.0539L253.396 22.1227L253.136 23.9009C253.655 24.2769 254.128 24.7238 254.54 25.2351L256.302 24.8883L257.508 27.6053L256.067 28.6786C256.171 29.3267 256.185 29.9777 256.114 30.616L257.607 31.6161L256.538 34.3892L254.76 34.1298C254.384 34.6493 253.937 35.1224 253.425 35.5343L253.772 37.296L251.056 38.5017L249.982 37.0613Z" fill="white"/>
<path d="M250.003 32.7964C250.003 32.7964 249.76 32.9519 249.257 33.0565C248.763 33.1574 247.968 33.1701 247.144 32.7299C246.74 32.5109 246.333 32.1842 246.023 31.7328C245.718 31.2835 245.485 30.7259 245.448 30.1093C245.421 29.8028 245.445 29.4852 245.516 29.1712C245.581 28.8558 245.699 28.5441 245.868 28.2549C246.193 27.6681 246.732 27.1778 247.379 26.884C248.032 26.6007 248.757 26.5297 249.411 26.683C249.739 26.7517 250.049 26.8743 250.327 27.0365C250.607 27.195 250.859 27.3908 251.068 27.6165C251.5 28.0575 251.757 28.6054 251.885 29.1324C252.013 29.6645 251.981 30.1855 251.872 30.6325C251.646 31.5392 251.102 32.1199 250.696 32.4174C250.281 32.7209 250.003 32.7964 250.003 32.7964C249.992 32.7769 250.26 32.6753 250.652 32.3621C251.036 32.0534 251.545 31.4771 251.746 30.6026C251.843 30.1713 251.865 29.6735 251.738 29.1675C251.609 28.6667 251.36 28.148 250.947 27.7331C250.747 27.5209 250.506 27.337 250.24 27.1882C249.976 27.0358 249.682 26.9221 249.372 26.8579C248.754 26.7159 248.07 26.7839 247.453 27.0507C246.842 27.3295 246.333 27.7892 246.023 28.3438C245.863 28.6166 245.75 28.9111 245.686 29.2086C245.617 29.5061 245.593 29.8073 245.617 30.0981C245.646 30.6826 245.863 31.2155 246.148 31.6468C246.437 32.0811 246.822 32.3987 247.206 32.617C247.99 33.0543 248.759 33.064 249.245 32.9862C249.74 32.9055 249.995 32.7755 250.003 32.7964" fill="white"/>
<path d="M249.983 37.0615L250.054 37.1475C250.106 37.2133 250.175 37.3015 250.264 37.4158C250.453 37.6632 250.726 38.0205 251.079 38.4839L251.044 38.475C251.738 38.1625 252.65 37.7514 253.754 37.2536L253.727 37.3052C253.62 36.7715 253.5 36.1788 253.372 35.5449L253.366 35.5136L253.392 35.4926C253.861 35.1129 254.315 34.6465 254.712 34.0949L254.733 34.0657L254.769 34.0702C255.324 34.1502 255.924 34.2361 256.548 34.3251L256.478 34.3662C256.812 33.4924 257.168 32.5641 257.54 31.5902L257.567 31.6761C257.105 31.3674 256.595 31.0273 256.073 30.6783L256.035 30.6536L256.04 30.608C256.104 30.0145 256.098 29.353 255.99 28.6908L255.982 28.6437L256.021 28.6153C256.467 28.2819 256.959 27.9142 257.459 27.5405L257.433 27.6384C257.054 26.7855 256.644 25.8654 256.225 24.9229L256.319 24.9722C255.77 25.0806 255.168 25.2002 254.557 25.3213L254.506 25.3317L254.473 25.2906C254.097 24.8227 253.623 24.3608 253.085 23.9721L253.041 23.9407L253.049 23.8877C253.129 23.3308 253.218 22.7239 253.307 22.1095L253.364 22.2059C252.486 21.868 251.544 21.5055 250.59 21.1385L250.698 21.1041C250.382 21.5758 250.041 22.0841 249.698 22.5968L249.666 22.6424L249.612 22.6372C249.007 22.5699 248.349 22.5796 247.701 22.6835H247.7H247.699C247.685 22.6783 247.692 22.6805 247.699 22.6835C247.712 22.6887 247.725 22.694 247.611 22.6476L247.61 22.6461L247.608 22.6439L247.604 22.6379L247.595 22.6267L247.578 22.6043L247.545 22.5587L247.477 22.4675L247.342 22.2866L247.074 21.9256C246.894 21.6857 246.716 21.4457 246.538 21.2073L246.649 21.2364C245.73 21.6438 244.824 22.0452 243.931 22.4421L243.983 22.3412C244.1 22.9347 244.215 23.5214 244.33 24.1037L244.341 24.1568L244.298 24.1904C243.793 24.5963 243.35 25.0649 242.978 25.5769L242.947 25.6203L242.894 25.6128C242.293 25.5238 241.701 25.4371 241.116 25.3519L241.21 25.2966C240.844 26.2429 240.487 27.1675 240.139 28.0689L240.107 27.9688C240.613 28.3089 241.11 28.643 241.598 28.9711L241.64 28.9987L241.634 29.0481C241.562 29.6991 241.58 30.3449 241.678 30.9638L241.685 31.0116L241.646 31.04C241.152 31.407 240.673 31.7628 240.205 32.1111L240.229 32.0185C240.651 32.9752 241.05 33.8789 241.429 34.7384L241.351 34.6981C241.971 34.5777 242.553 34.4641 243.114 34.355L243.153 34.3468L243.178 34.3782C243.606 34.9134 244.078 35.3491 244.567 35.7056L244.596 35.7281L244.59 35.7632C244.494 36.409 244.407 36.9905 244.325 37.5399L244.291 37.4816C245.363 37.9002 246.278 38.2575 247.06 38.5632L247.011 38.5781C247.414 37.9854 247.745 37.498 248.021 37.0922L248.031 37.078L248.048 37.0795C248.697 37.1535 249.184 37.1296 249.505 37.1064C249.659 37.0914 249.777 37.0802 249.864 37.072C249.945 37.0623 249.983 37.0593 249.983 37.0615C249.982 37.0638 249.942 37.0728 249.865 37.087C249.787 37.1004 249.668 37.1198 249.507 37.1363C249.187 37.1692 248.697 37.2036 248.042 37.1385L248.07 37.1251C247.799 37.5347 247.475 38.025 247.079 38.6245L247.062 38.6514L247.03 38.6394C246.245 38.3412 245.328 37.9921 244.252 37.5825L244.212 37.5676L244.218 37.5242C244.296 36.9741 244.38 36.3926 244.472 35.746L244.496 35.8028C243.996 35.4433 243.515 35.003 243.075 34.4604L243.139 34.4836C242.578 34.5957 241.998 34.7115 241.379 34.8356L241.323 34.8468L241.301 34.7952C240.918 33.9372 240.516 33.0357 240.09 32.0805L240.065 32.0252L240.114 31.9886C240.581 31.6395 241.059 31.2822 241.552 30.9137L241.521 30.9892C241.419 30.3569 241.399 29.6961 241.471 29.0301L241.507 29.1071C241.018 28.7805 240.52 28.4471 240.013 28.1085L239.957 28.0712L239.981 28.0076C240.328 27.1062 240.684 26.1808 241.048 25.2338L241.072 25.1688L241.141 25.1793C241.726 25.2637 242.318 25.3497 242.919 25.4371L242.835 25.473C243.214 24.9475 243.668 24.4669 244.186 24.0506L244.154 24.1381C244.039 23.5565 243.923 22.969 243.806 22.3763L243.791 22.3053L243.857 22.2761C244.75 21.8792 245.656 21.4771 246.574 21.0698L246.641 21.0399L246.685 21.0982C246.862 21.3366 247.041 21.5765 247.22 21.8165L247.489 22.1775L247.624 22.3591L247.692 22.4496L247.725 22.4944L247.743 22.5168L247.751 22.5288L247.754 22.534L247.757 22.537L247.758 22.5385C247.645 22.4929 247.657 22.4974 247.67 22.5026C247.677 22.5056 247.684 22.5086 247.67 22.5026H247.671H247.671C248.337 22.3957 249.012 22.3868 249.632 22.4555L249.546 22.4951C249.89 21.9831 250.231 21.4741 250.547 21.0032L250.587 20.9427L250.655 20.9689C251.61 21.3366 252.55 21.6999 253.428 22.0392L253.495 22.0646L253.485 22.1356C253.395 22.7493 253.306 23.3562 253.224 23.9131L253.188 23.8286C253.739 24.2277 254.224 24.7016 254.609 25.1815L254.523 25.1501C255.134 25.0305 255.737 24.9124 256.286 24.8048L256.353 24.7913L256.38 24.8541C256.797 25.7974 257.205 26.7183 257.583 27.5726L257.609 27.6324L257.557 27.6713C257.054 28.0435 256.562 28.4098 256.115 28.7416L256.145 28.6661C256.254 29.3433 256.258 30.019 256.19 30.6237L256.157 30.5534C256.678 30.904 257.186 31.2456 257.648 31.5565L257.696 31.5887L257.675 31.6425C257.297 32.6149 256.938 33.5403 256.6 34.4133L256.58 34.4619L256.529 34.4544C255.905 34.3617 255.306 34.272 254.752 34.1898L254.81 34.1651C254.402 34.7242 253.938 35.1936 253.459 35.5763L253.478 35.524C253.6 36.1594 253.715 36.7528 253.819 37.2873L253.825 37.3239L253.792 37.3388C252.682 37.8232 251.765 38.2238 251.068 38.528L251.046 38.5378L251.033 38.5191C250.693 38.0519 250.43 37.6916 250.249 37.442C250.164 37.3224 250.098 37.2297 250.048 37.1609L249.983 37.0615" fill="white"/>
<path fill-rule="evenodd" clip-rule="evenodd" d="M283.637 42.6934C286.747 41.3136 288.151 37.6727 286.771 34.5618C285.391 31.4509 281.75 30.0487 278.639 31.4278C275.529 32.8083 274.126 36.4484 275.505 39.5593C276.886 42.6702 280.526 44.0732 283.637 42.6934ZM283.597 50.9341C282.345 51.1336 281.086 51.1605 279.854 51.026L277.92 53.9097L272.561 51.8437L273.063 48.4084C272.059 47.6819 271.143 46.8171 270.349 45.8275L266.943 46.5002L264.615 41.2493L267.398 39.1751C267.197 37.9224 267.171 36.6644 267.307 35.4319L264.423 33.4982L266.488 28.139L269.923 28.6405C270.651 27.6374 271.515 26.7225 272.504 25.9273L271.832 22.5226L277.083 20.1928L279.157 22.9756C280.409 22.776 281.667 22.7498 282.9 22.8844L284.834 19.9999L290.194 22.0659L289.691 25.502C290.695 26.2292 291.609 27.0933 292.405 28.0822L295.809 27.4109L298.139 32.6611L295.356 34.7345C295.556 35.9872 295.583 37.2467 295.447 38.4785L298.331 40.4122L296.266 45.7714L292.83 45.2691C292.103 46.2729 291.239 47.1878 290.25 47.9831L290.922 51.3878L285.671 53.7168L283.597 50.9341" fill="white"/>
<path d="M247.029 38.5505C246.263 38.2516 245.373 37.9033 244.331 37.4974C244.412 36.9607 244.496 36.3919 244.591 35.7625L244.596 35.7274L244.567 35.705C244.078 35.3484 243.606 34.9127 243.178 34.3775L243.153 34.3461L243.114 34.3543C242.569 34.4605 242.006 34.5704 241.406 34.687C241.041 33.8588 240.658 32.991 240.254 32.0739C240.706 31.7375 241.169 31.3937 241.646 31.0394L241.685 31.011L241.678 30.9631C241.619 30.5961 241.589 30.2187 241.589 29.8367C241.59 29.5751 241.604 29.312 241.634 29.0474L241.64 28.9981L241.598 28.9704C241.128 28.6543 240.649 28.3329 240.163 28.0055C240.495 27.1452 240.837 26.2624 241.185 25.361C241.747 25.4432 242.316 25.5269 242.894 25.6121L242.947 25.6196L242.978 25.5763C243.35 25.0642 243.793 24.5956 244.298 24.1897L244.341 24.1561L244.33 24.103C244.221 23.5439 244.109 22.9803 243.997 22.4115C244.847 22.0348 245.709 21.6529 246.582 21.2657C246.745 21.4847 246.909 21.7044 247.074 21.9249L247.342 22.286L247.477 22.4668L247.545 22.558L247.578 22.6036L247.595 22.626L247.604 22.6373L247.608 22.6432L247.61 22.6455L247.611 22.647C247.653 22.6642 247.677 22.6739 247.691 22.6799C247.692 22.6799 247.692 22.6806 247.694 22.6813C247.704 22.6851 247.707 22.6866 247.707 22.6866C247.707 22.6866 247.703 22.6843 247.699 22.6828H247.7H247.701C248.079 22.6223 248.459 22.5939 248.831 22.5939C249.098 22.5939 249.359 22.6081 249.612 22.6365L249.666 22.6417L249.698 22.5961C250.027 22.1058 250.353 21.6177 250.658 21.164C251.565 21.5131 252.459 21.8569 253.297 22.1798C253.212 22.7695 253.126 23.3518 253.049 23.887L253.041 23.9401L253.085 23.9715C253.623 24.3601 254.097 24.8221 254.473 25.29L254.506 25.3311L254.557 25.3206C255.143 25.204 255.722 25.0896 256.252 24.9843C256.653 25.8834 257.043 26.7609 257.407 27.5787C256.924 27.9389 256.451 28.2925 256.021 28.6146L255.982 28.643L255.99 28.6901C256.053 29.0788 256.081 29.466 256.081 29.8397C256.081 30.1043 256.067 30.3614 256.04 30.6073L256.036 30.6529L256.073 30.6776C256.577 31.0147 257.07 31.3436 257.52 31.6441C257.161 32.5799 256.82 33.4731 256.496 34.3177C255.891 34.2303 255.308 34.1473 254.769 34.0696L254.733 34.0651L254.712 34.0942C254.315 34.6458 253.861 35.1123 253.392 35.492L253.366 35.5129L253.372 35.5443C253.497 36.1639 253.615 36.7447 253.72 37.2687C252.643 37.7545 251.749 38.1566 251.065 38.4646C250.718 38.0101 250.451 37.6596 250.264 37.4152C250.175 37.3008 250.106 37.2126 250.054 37.1468L249.983 37.0609C249.983 37.0601 249.981 37.0601 249.978 37.0601C249.965 37.0601 249.928 37.0631 249.864 37.0713C249.777 37.0795 249.659 37.0908 249.505 37.1057C249.347 37.1169 249.149 37.1289 248.911 37.1289C248.666 37.1289 248.378 37.1169 248.048 37.0788L248.031 37.0773L248.021 37.0915C247.749 37.4914 247.425 37.9698 247.029 38.5505V38.5505ZM245.437 29.8629C245.437 29.9451 245.441 30.0273 245.448 30.1088C245.485 30.7255 245.718 31.283 246.023 31.7323C246.333 32.1837 246.74 32.5104 247.145 32.7294C247.691 33.0216 248.225 33.1143 248.666 33.1143C248.891 33.1143 249.091 33.0904 249.257 33.056C249.761 32.9514 250.004 32.7959 250.004 32.7959C250.004 32.7959 250.282 32.7204 250.696 32.4169C251.102 32.1194 251.646 31.5387 251.872 30.632C251.932 30.3876 251.968 30.1215 251.969 29.8427C251.969 29.6117 251.943 29.3733 251.886 29.1319C251.757 28.6049 251.5 28.057 251.068 27.616C250.859 27.3903 250.607 27.1945 250.327 27.036C250.049 26.8738 249.739 26.7512 249.411 26.6825C249.185 26.6294 248.951 26.6033 248.715 26.6033C248.266 26.6033 247.807 26.6974 247.379 26.8835C246.732 27.1773 246.193 27.6676 245.868 28.2544C245.699 28.5436 245.582 28.8553 245.516 29.1707C245.464 29.401 245.437 29.6342 245.437 29.8629V29.8629ZM247.699 22.6828C247.698 22.6821 247.695 22.6813 247.694 22.6813C247.693 22.6806 247.692 22.6799 247.691 22.6799C247.691 22.6799 247.693 22.6806 247.699 22.6828Z" fill="#8FB7FF"/>
<path d="M248.666 33.1152C248.225 33.1152 247.691 33.0226 247.145 32.7303C246.74 32.5113 246.333 32.1847 246.024 31.7332C245.719 31.284 245.485 30.7264 245.448 30.1097C245.441 30.0283 245.438 29.946 245.438 29.8638C245.438 29.6351 245.464 29.4019 245.516 29.1717C245.582 28.8562 245.699 28.5446 245.868 28.2553C246.193 27.6685 246.732 27.1782 247.379 26.8845C247.807 26.6984 248.266 26.6042 248.715 26.6042C248.951 26.6042 249.185 26.6303 249.411 26.6834C249.739 26.7522 250.049 26.8747 250.327 27.0369C250.607 27.1954 250.86 27.3912 251.068 27.617C251.5 28.058 251.757 28.6058 251.886 29.1328C251.943 29.3742 251.969 29.6127 251.969 29.8436C251.968 30.1224 251.932 30.3885 251.872 30.6329C251.646 31.5396 251.102 32.1204 250.697 32.4179C250.282 32.7213 250.004 32.7968 250.004 32.7968C250.004 32.7968 249.761 32.9523 249.257 33.0569C249.091 33.0913 248.891 33.1152 248.666 33.1152V33.1152ZM245.608 29.878C245.608 29.952 245.611 30.0253 245.617 30.0985C245.647 30.683 245.864 31.216 246.148 31.6472C246.438 32.0815 246.823 32.3992 247.207 32.6174C247.767 32.9299 248.319 33.024 248.767 33.024C248.945 33.024 249.107 33.0091 249.245 32.9867C249.704 32.9119 249.957 32.7946 249.998 32.7946C250.001 32.7946 250.003 32.7953 250.004 32.7968C250.003 32.7968 250.003 32.7961 250.003 32.7961C250.001 32.7744 250.267 32.6705 250.652 32.3625C251.037 32.0538 251.545 31.4776 251.747 30.6031C251.796 30.3811 251.827 30.1411 251.827 29.8907C251.827 29.656 251.8 29.4131 251.739 29.1679C251.609 28.6671 251.36 28.1484 250.947 27.7336C250.747 27.5213 250.507 27.3374 250.241 27.1887C249.977 27.0362 249.682 26.9226 249.372 26.8583C249.161 26.8097 248.943 26.7858 248.723 26.7858C248.296 26.7858 247.861 26.8755 247.453 27.0512C246.843 27.33 246.334 27.7896 246.024 28.3442C245.864 28.6171 245.751 28.9116 245.686 29.209C245.635 29.4318 245.608 29.6575 245.608 29.878" fill="#8FB7FF"/>
<path d="M247.062 38.6514L247.03 38.6394C246.245 38.3412 245.328 37.9921 244.252 37.5825L244.212 37.5676L244.218 37.5242C244.295 36.9845 244.377 36.4142 244.466 35.7819C243.987 35.4328 243.525 35.009 243.101 34.4918C242.552 34.6009 241.983 34.7145 241.379 34.8356L241.323 34.8468L241.301 34.7952C240.918 33.9372 240.516 33.0357 240.09 32.0805L240.065 32.0252L240.114 31.9886C240.568 31.6485 241.034 31.3009 241.513 30.9421C241.457 30.5766 241.428 30.2014 241.428 29.8224C241.428 29.5765 241.44 29.3284 241.465 29.0802C240.989 28.7618 240.506 28.4382 240.013 28.1085L239.957 28.0712L239.981 28.0076C240.328 27.1062 240.684 26.1808 241.048 25.2338L241.072 25.1688L241.141 25.1793C241.709 25.2615 242.283 25.3444 242.866 25.4296C243.229 24.9356 243.658 24.4819 244.144 24.085C244.032 23.5207 243.919 22.9511 243.806 22.3763L243.791 22.3053L243.857 22.2761C244.75 21.8792 245.656 21.4771 246.574 21.0698L246.641 21.0399L246.685 21.0982C246.862 21.3366 247.041 21.5765 247.22 21.8165L247.489 22.1775L247.624 22.3591L247.692 22.4496L247.725 22.4944C248.095 22.4376 248.466 22.4114 248.829 22.4114C249.084 22.4114 249.335 22.4241 249.577 22.4496C249.91 21.9525 250.24 21.4599 250.547 21.0032L250.587 20.9427L250.655 20.9689C251.61 21.3366 252.55 21.6999 253.428 22.0392L253.495 22.0646L253.485 22.1356C253.398 22.7299 253.311 23.3181 253.232 23.8607C253.749 24.2412 254.206 24.6867 254.575 25.1404C255.168 25.0238 255.753 24.9094 256.286 24.8048L256.353 24.7913L256.38 24.8541C256.797 25.7974 257.205 26.7183 257.583 27.5726L257.609 27.6324L257.557 27.6713C257.068 28.033 256.589 28.3888 256.153 28.7132C256.21 29.084 256.235 29.4532 256.235 29.8105C256.235 30.0751 256.221 30.3322 256.195 30.5789C256.703 30.9205 257.197 31.2531 257.648 31.5565L257.696 31.5887L257.675 31.6425C257.297 32.6149 256.938 33.5403 256.6 34.4133L256.58 34.4619L256.529 34.4544C255.919 34.364 255.331 34.2758 254.788 34.195C254.393 34.731 253.946 35.1839 253.484 35.5561C253.604 36.1795 253.717 36.7626 253.819 37.2873L253.825 37.3239L253.792 37.3388C252.682 37.8232 251.765 38.2238 251.068 38.528L251.046 38.5378L251.033 38.5191C250.693 38.0519 250.43 37.6916 250.249 37.442C250.164 37.3224 250.098 37.2297 250.048 37.1609L249.983 37.0615C249.982 37.0638 249.942 37.0728 249.865 37.087C249.787 37.1004 249.668 37.1198 249.507 37.1363C249.32 37.1557 249.074 37.1751 248.772 37.1751C248.562 37.1751 248.325 37.1662 248.06 37.14C247.792 37.5466 247.47 38.0325 247.079 38.6245L247.062 38.6514V38.6514ZM244.331 37.4981C245.373 37.9039 246.263 38.2522 247.029 38.5512C247.425 37.9704 247.749 37.4921 248.021 37.0922L248.031 37.078L248.048 37.0795C248.378 37.1176 248.666 37.1295 248.911 37.1295C249.149 37.1295 249.347 37.1176 249.505 37.1064C249.659 37.0914 249.777 37.0802 249.864 37.072C249.928 37.0638 249.965 37.0608 249.978 37.0608C249.981 37.0608 249.983 37.0608 249.983 37.0615L250.054 37.1475C250.106 37.2133 250.175 37.3015 250.264 37.4158C250.451 37.6602 250.718 38.0108 251.065 38.4653C251.749 38.1573 252.643 37.7552 253.72 37.2693C253.615 36.7454 253.497 36.1646 253.372 35.5449L253.366 35.5136L253.392 35.4926C253.861 35.1129 254.315 34.6465 254.712 34.0949L254.733 34.0657L254.769 34.0702C255.308 34.148 255.89 34.2309 256.496 34.3184C256.82 33.4738 257.161 32.5805 257.52 31.6447C257.07 31.3443 256.577 31.0154 256.073 30.6783L256.035 30.6536L256.04 30.608C256.067 30.3621 256.081 30.105 256.081 29.8404C256.081 29.4666 256.053 29.0795 255.99 28.6908L255.982 28.6437L256.021 28.6153C256.451 28.2932 256.924 27.9396 257.407 27.5793C257.043 26.7616 256.653 25.8841 256.252 24.9849C255.722 25.0903 255.143 25.2047 254.557 25.3213L254.506 25.3317L254.473 25.2906C254.097 24.8227 253.623 24.3608 253.085 23.9721L253.041 23.9407L253.049 23.8877C253.126 23.3525 253.212 22.7702 253.297 22.1805C252.459 21.8576 251.565 21.5138 250.658 21.1647C250.353 21.6184 250.027 22.1065 249.698 22.5968L249.666 22.6424L249.612 22.6372C249.359 22.6088 249.098 22.5946 248.831 22.5946C248.459 22.5946 248.079 22.623 247.701 22.6835H247.7H247.699C247.693 22.6813 247.691 22.6805 247.691 22.6805C247.677 22.6746 247.653 22.6648 247.611 22.6476L247.61 22.6461L247.608 22.6439L247.604 22.6379L247.595 22.6267L247.578 22.6043L247.545 22.5587L247.477 22.4675L247.342 22.2866L247.074 21.9256C246.909 21.7051 246.745 21.4853 246.582 21.2663C245.709 21.6535 244.847 22.0355 243.997 22.4122C244.109 22.981 244.221 23.5446 244.33 24.1037L244.341 24.1568L244.298 24.1904C243.793 24.5963 243.35 25.0649 242.978 25.5769L242.947 25.6203L242.894 25.6128C242.316 25.5276 241.747 25.4439 241.185 25.3616C240.837 26.2631 240.495 27.1458 240.163 28.0061C240.649 28.3335 241.128 28.6549 241.598 28.9711L241.64 28.9987L241.634 29.0481C241.604 29.3127 241.59 29.5758 241.589 29.8374C241.589 30.2193 241.619 30.5968 241.678 30.9638L241.685 31.0116L241.646 31.04C241.169 31.3943 240.706 31.7382 240.254 32.0745C240.658 32.9916 241.041 33.8594 241.406 34.6876C242.006 34.571 242.569 34.4611 243.114 34.355L243.153 34.3468L243.178 34.3782C243.606 34.9134 244.078 35.3491 244.567 35.7056L244.596 35.7281L244.59 35.7632C244.496 36.3926 244.412 36.9614 244.331 37.4981V37.4981ZM247.662 22.4996C247.662 22.4996 247.666 22.5011 247.67 22.5026C247.673 22.5041 247.676 22.5056 247.677 22.5056C247.666 22.5011 247.662 22.4996 247.662 22.4996V22.4996Z" fill="#8FB7FF"/>
<path d="M247.062 38.6514L247.03 38.6394C246.245 38.3412 245.328 37.9921 244.252 37.5825L244.212 37.5676L244.218 37.5242C244.295 36.9845 244.377 36.4142 244.466 35.7819C243.987 35.4328 243.525 35.009 243.101 34.4918C242.552 34.6009 241.983 34.7145 241.379 34.8356L241.323 34.8468L241.301 34.7952C240.918 33.9372 240.516 33.0357 240.09 32.0805L240.065 32.0252L240.114 31.9886C240.568 31.6485 241.034 31.3009 241.513 30.9421C241.457 30.5766 241.428 30.2014 241.428 29.8224C241.428 29.5765 241.44 29.3284 241.465 29.0802C240.989 28.7618 240.506 28.4382 240.013 28.1085L239.957 28.0712L239.981 28.0076C240.328 27.1062 240.684 26.1808 241.048 25.2338L241.072 25.1688L241.141 25.1793C241.709 25.2615 242.283 25.3444 242.866 25.4296C243.229 24.9356 243.658 24.4819 244.144 24.085C244.032 23.5207 243.919 22.9511 243.806 22.3763L243.791 22.3053L243.857 22.2761C244.75 21.8792 245.656 21.4771 246.574 21.0698L246.641 21.0399L246.685 21.0982C246.862 21.3366 247.041 21.5765 247.22 21.8165L247.489 22.1775L247.624 22.3591L247.692 22.4496L247.725 22.4944C248.095 22.4376 248.466 22.4114 248.829 22.4114C249.084 22.4114 249.335 22.4241 249.577 22.4496C249.91 21.9525 250.24 21.4599 250.547 21.0032L250.587 20.9427L250.655 20.9689C251.61 21.3366 252.55 21.6999 253.428 22.0392L253.495 22.0646L253.485 22.1356C253.398 22.7299 253.311 23.3181 253.232 23.8607C253.749 24.2412 254.206 24.6867 254.575 25.1404C255.168 25.0238 255.753 24.9094 256.286 24.8048L256.353 24.7913L256.38 24.8541C256.797 25.7974 257.205 26.7183 257.583 27.5726L257.609 27.6324L257.557 27.6713C257.068 28.033 256.589 28.3888 256.153 28.7132C256.21 29.084 256.235 29.4532 256.235 29.8105C256.235 30.0751 256.221 30.3322 256.195 30.5789C256.703 30.9205 257.197 31.2531 257.648 31.5565L257.696 31.5887L257.675 31.6425C257.297 32.6149 256.938 33.5403 256.6 34.4133L256.58 34.4619L256.529 34.4544C255.919 34.364 255.331 34.2758 254.788 34.195C254.393 34.731 253.946 35.1839 253.484 35.5561C253.604 36.1795 253.717 36.7626 253.819 37.2873L253.825 37.3239L253.792 37.3388C252.682 37.8232 251.765 38.2238 251.068 38.528L251.046 38.5378L251.033 38.5191C250.693 38.0519 250.43 37.6916 250.249 37.442C250.164 37.3224 250.098 37.2297 250.048 37.1609L249.983 37.0615C249.982 37.0638 249.942 37.0728 249.865 37.087C249.787 37.1004 249.668 37.1198 249.507 37.1363C249.32 37.1557 249.074 37.1751 248.772 37.1751C248.562 37.1751 248.325 37.1662 248.06 37.14C247.792 37.5466 247.47 38.0325 247.079 38.6245L247.062 38.6514V38.6514ZM244.331 37.4981C245.373 37.9039 246.263 38.2522 247.029 38.5512C247.425 37.9704 247.749 37.4921 248.021 37.0922L248.031 37.078L248.048 37.0795C248.378 37.1176 248.666 37.1295 248.911 37.1295C249.149 37.1295 249.347 37.1176 249.505 37.1064C249.659 37.0914 249.777 37.0802 249.864 37.072C249.928 37.0638 249.965 37.0608 249.978 37.0608C249.981 37.0608 249.983 37.0608 249.983 37.0615L250.054 37.1475C250.106 37.2133 250.175 37.3015 250.264 37.4158C250.451 37.6602 250.718 38.0108 251.065 38.4653C251.749 38.1573 252.643 37.7552 253.72 37.2693C253.615 36.7454 253.497 36.1646 253.372 35.5449L253.366 35.5136L253.392 35.4926C253.861 35.1129 254.315 34.6465 254.712 34.0949L254.733 34.0657L254.769 34.0702C255.308 34.148 255.89 34.2309 256.496 34.3184C256.82 33.4738 257.161 32.5805 257.52 31.6447C257.07 31.3443 256.577 31.0154 256.073 30.6783L256.035 30.6536L256.04 30.608C256.067 30.3621 256.081 30.105 256.081 29.8404C256.081 29.4666 256.053 29.0795 255.99 28.6908L255.982 28.6437L256.021 28.6153C256.451 28.2932 256.924 27.9396 257.407 27.5793C257.043 26.7616 256.653 25.8841 256.252 24.9849C255.722 25.0903 255.143 25.2047 254.557 25.3213L254.506 25.3317L254.473 25.2906C254.097 24.8227 253.623 24.3608 253.085 23.9721L253.041 23.9407L253.049 23.8877C253.126 23.3525 253.212 22.7702 253.297 22.1805C252.459 21.8576 251.565 21.5138 250.658 21.1647C250.353 21.6184 250.027 22.1065 249.698 22.5968L249.666 22.6424L249.612 22.6372C249.359 22.6088 249.098 22.5946 248.831 22.5946C248.459 22.5946 248.079 22.623 247.701 22.6835H247.7H247.699C247.693 22.6813 247.691 22.6805 247.691 22.6805C247.677 22.6746 247.653 22.6648 247.611 22.6476L247.61 22.6461L247.608 22.6439L247.604 22.6379L247.595 22.6267L247.578 22.6043L247.545 22.5587L247.477 22.4675L247.342 22.2866L247.074 21.9256C246.909 21.7051 246.745 21.4853 246.582 21.2663C245.709 21.6535 244.847 22.0355 243.997 22.4122C244.109 22.981 244.221 23.5446 244.33 24.1037L244.341 24.1568L244.298 24.1904C243.793 24.5963 243.35 25.0649 242.978 25.5769L242.947 25.6203L242.894 25.6128C242.316 25.5276 241.747 25.4439 241.185 25.3616C240.837 26.2631 240.495 27.1458 240.163 28.0061C240.649 28.3335 241.128 28.6549 241.598 28.9711L241.64 28.9987L241.634 29.0481C241.604 29.3127 241.59 29.5758 241.589 29.8374C241.589 30.2193 241.619 30.5968 241.678 30.9638L241.685 31.0116L241.646 31.04C241.169 31.3943 240.706 31.7382 240.254 32.0745C240.658 32.9916 241.041 33.8594 241.406 34.6876C242.006 34.571 242.569 34.4611 243.114 34.355L243.153 34.3468L243.178 34.3782C243.606 34.9134 244.078 35.3491 244.567 35.7056L244.596 35.7281L244.59 35.7632C244.496 36.3926 244.412 36.9614 244.331 37.4981V37.4981ZM247.662 22.4996C247.662 22.4996 247.666 22.5011 247.67 22.5026C247.673 22.5041 247.676 22.5056 247.677 22.5056C247.666 22.5011 247.662 22.4996 247.662 22.4996V22.4996Z" fill="#8FB7FF"/>
<path d="M247.711 22.6875C247.711 22.6875 247.706 22.6856 247.694 22.681C247.696 22.681 247.699 22.6819 247.7 22.6828C247.705 22.6847 247.711 22.6875 247.711 22.6875" fill="#8FB7FF"/>
<path d="M247.697 22.6819C247.694 22.6805 247.692 22.6791 247.691 22.6791C247.694 22.6791 247.695 22.6805 247.697 22.6819Z" fill="#8FB7FF"/>
<path d="M238.61 105.664L239.516 105.502C239.516 105.502 246.618 107.856 246.46 106.476C246.251 104.651 239.791 102.944 239.17 102.91C238.138 102.853 232.001 103.385 231.126 103.832C230.252 104.279 224.941 109.25 224.941 109.25L231.314 116.2C231.314 116.2 233.069 116.425 235.446 114.481C236.654 113.495 238.448 111.743 238.448 111.743C238.448 111.743 238.377 111.234 238.539 111.045C239.018 110.481 238.69 110.113 238.69 110.113C239.157 109.995 239.574 109.572 239.593 109.201C239.605 108.976 239.6 108.693 239.439 108.535C239.038 108.147 238.856 108.205 238.856 108.205C238.856 108.205 239.823 107.931 240.024 107.094C240.22 106.277 239.037 105.868 239.037 105.868" fill="#D2E0F9"/>
<path d="M246.312 106.798C246.317 106.845 245.716 106.972 244.728 106.928C244.235 106.905 243.648 106.833 243.011 106.676C242.393 106.486 241.721 106.258 241.014 106.02C240.493 105.84 239.991 105.667 239.516 105.502L239.61 105.511C237.435 105.851 235.852 106.041 235.835 105.954C235.819 105.866 237.379 105.528 239.551 105.138L239.595 105.131L239.646 105.147C240.118 105.305 240.617 105.472 241.136 105.644C241.824 105.881 242.479 106.108 243.103 106.324C243.712 106.493 244.275 106.592 244.751 106.65C245.704 106.763 246.308 106.736 246.312 106.798" fill="white"/>
<path d="M238.125 106.023C237.295 106.661 236.614 107.183 235.784 107.82C235.514 108.026 235.238 108.242 235.07 108.536C234.902 108.831 234.87 109.231 235.084 109.494C235.255 109.706 235.55 109.787 235.821 109.762C236.093 109.737 236.347 109.622 236.59 109.499C237.471 109.054 238.548 108.506 239.361 107.947" fill="#D2E0F9"/>
<path d="M239.528 107.843C239.552 107.883 239.081 108.229 238.294 108.76C237.898 109.022 237.415 109.333 236.825 109.587C236.527 109.707 236.22 109.837 235.851 109.895C235.669 109.921 235.471 109.928 235.266 109.872C235.062 109.818 234.858 109.675 234.752 109.466C234.545 109.04 234.718 108.584 234.952 108.303C235.192 108.01 235.462 107.82 235.703 107.619C236.194 107.225 236.648 106.888 237.036 106.612C237.809 106.06 238.332 105.778 238.356 105.819C238.38 105.858 237.913 106.206 237.181 106.804C236.785 107.131 236.358 107.483 235.903 107.86C235.669 108.064 235.403 108.268 235.213 108.509C235.022 108.74 234.934 109.066 235.055 109.311C235.172 109.553 235.498 109.61 235.805 109.565C236.112 109.522 236.421 109.404 236.705 109.297C237.273 109.071 237.757 108.789 238.167 108.556C238.983 108.079 239.505 107.801 239.528 107.843" fill="white"/>
<path d="M238.676 108.463C238.676 108.463 239.401 107.783 239.702 107.834C240.002 107.887 240.447 107.932 240.613 108.516C240.753 109.006 240.55 109.175 239.672 110.104" fill="#D2E0F9"/>
<path d="M238.676 108.463C237.992 109.016 237.432 109.469 236.749 110.022C236.528 110.202 236.3 110.388 236.161 110.643C236.021 110.897 235.992 111.24 236.165 111.465C236.304 111.645 236.544 111.712 236.766 111.689C236.988 111.666 237.196 111.564 237.396 111.457C238.119 111.069 239.003 110.591 239.672 110.104" fill="#D2E0F9"/>
<path d="M240.585 109.035C240.619 109.049 240.375 109.588 239.69 110.214C239.351 110.526 238.91 110.857 238.383 111.163C238.119 111.316 237.835 111.463 237.528 111.593C237.223 111.713 236.891 111.87 236.477 111.842C236.276 111.83 236.042 111.726 235.917 111.536C235.788 111.344 235.775 111.123 235.808 110.935C235.883 110.537 236.159 110.282 236.381 110.082C236.838 109.685 237.261 109.351 237.624 109.077C238.347 108.527 238.84 108.244 238.867 108.286C238.891 108.323 238.456 108.67 237.775 109.264C237.436 109.56 237.027 109.913 236.592 110.315C236.38 110.511 236.177 110.732 236.136 110.991C236.088 111.263 236.223 111.488 236.508 111.503C236.793 111.528 237.106 111.402 237.4 111.286C237.693 111.166 237.971 111.03 238.229 110.89C238.746 110.609 239.186 110.31 239.533 110.032C240.232 109.476 240.537 109.002 240.585 109.035" fill="white"/>
<path d="M227.335 110.663C227.75 111.227 228.6 111.268 229.256 111.026C229.912 110.783 230.466 110.325 231.104 110.035C233.008 109.17 235.376 109.91 237.236 108.954C237.497 108.821 237.775 108.576 237.7 108.294C237.63 108.033 237.311 107.944 237.044 107.901C234.765 107.525 232.486 107.149 230.207 106.773" fill="#D2E0F9"/>
<path d="M230.208 106.773C230.211 106.746 230.479 106.764 230.959 106.819C231.439 106.874 232.132 106.967 232.986 107.089C233.873 107.223 234.882 107.375 235.983 107.541C236.266 107.585 236.554 107.631 236.848 107.676C237.119 107.74 237.502 107.704 237.808 108.073C237.952 108.265 237.923 108.561 237.799 108.729C237.683 108.903 237.532 109.013 237.374 109.104C237.066 109.259 236.753 109.386 236.42 109.469C235.085 109.803 233.81 109.67 232.702 109.809C232.147 109.869 231.631 109.984 231.185 110.179C230.738 110.373 230.345 110.638 229.958 110.845C229.196 111.297 228.385 111.357 227.917 111.158C227.432 110.966 227.318 110.661 227.335 110.663C227.363 110.635 227.516 110.885 227.964 111.012C228.41 111.144 229.105 111.062 229.82 110.601C230.186 110.387 230.571 110.106 231.051 109.88C231.53 109.655 232.081 109.52 232.659 109.447C233.81 109.287 235.085 109.401 236.319 109.087C236.625 109.012 236.917 108.891 237.183 108.761C237.436 108.625 237.591 108.406 237.487 108.291C237.394 108.147 237.08 108.095 236.787 108.049C236.494 107.998 236.206 107.948 235.924 107.9C234.828 107.703 233.824 107.524 232.94 107.365C232.092 107.208 231.407 107.073 230.934 106.971C230.462 106.869 230.203 106.8 230.208 106.773" fill="white"/>
<path d="M239.139 110.61C239.139 110.61 239.676 110.105 239.898 110.144C240.121 110.182 240.451 110.217 240.574 110.649C240.677 111.012 240.527 111.138 239.877 111.827" fill="#D2E0F9"/>
<path d="M239.138 110.61C238.632 111.019 238.217 111.355 237.71 111.764C237.546 111.898 237.377 112.036 237.274 112.225C237.17 112.414 237.149 112.667 237.277 112.835C237.38 112.968 237.558 113.018 237.723 113.001C237.887 112.983 238.042 112.908 238.19 112.829C238.726 112.541 239.381 112.186 239.877 111.826" fill="#D2E0F9"/>
<path d="M240.554 111.033C240.59 111.05 240.417 111.457 239.91 111.931C239.66 112.166 239.333 112.416 238.941 112.645C238.746 112.761 238.534 112.871 238.305 112.969C238.077 113.059 237.829 113.178 237.506 113.158C237.349 113.149 237.158 113.066 237.058 112.912C236.954 112.758 236.945 112.582 236.97 112.435C237.03 112.122 237.244 111.929 237.41 111.78C237.763 111.502 238.086 111.263 238.359 111.062C238.906 110.663 239.254 110.439 239.28 110.478C239.305 110.517 239.007 110.811 238.506 111.252C238.217 111.5 237.923 111.753 237.621 112.012C237.465 112.157 237.324 112.317 237.299 112.491C237.272 112.679 237.347 112.805 237.536 112.819C237.731 112.837 237.96 112.747 238.176 112.662C238.393 112.574 238.598 112.474 238.788 112.372C239.169 112.168 239.495 111.95 239.754 111.748C240.273 111.346 240.508 111.003 240.554 111.033" fill="white"/>
<path d="M233.703 113.035C233.607 113.007 233.801 112.289 233.537 111.458C233.293 110.622 232.731 110.134 232.795 110.058C232.828 109.972 233.576 110.403 233.862 111.359C234.159 112.312 233.779 113.087 233.703 113.035" fill="white"/>
<path d="M179.012 101.8C175.722 100.12 172.474 99.7402 168.93 99.637C164.802 99.5167 158.984 98.9397 154.536 99.4128C154.536 99.4128 140.553 100.507 140.492 111.013L142.713 149.825L139.812 167.107L180.425 168.334L180.133 147.945C180.265 157.094 179.819 128.149 179.964 120.419C180.589 114.716 183.31 114.043 183.753 110.335C184.145 107.058 181.952 103.303 179.012 101.8" fill="#70A2FF"/>
<path d="M170.593 99.9035C170.593 99.9035 176.767 99.7959 180.826 101.79C184.886 103.784 207.112 117.417 207.112 117.417L224.186 107.954L233.218 116.414L213.635 129.343C209.828 131.919 204.973 132.381 200.749 130.568L178.667 121.8L170.593 99.9035Z" fill="#70A2FF"/>
<path d="M179.965 114.031C180.072 114.031 180.178 120.064 180.202 127.506C180.225 134.95 180.157 140.982 180.049 140.982C179.942 140.982 179.835 134.95 179.812 127.507C179.789 120.066 179.857 114.032 179.965 114.031Z" fill="#17282F"/>
<path d="M179.633 164.08L141.648 163.795L123.293 284.352L139.057 286.353L159.261 187.226L165.308 286.706L165.324 287.001L182.372 286.704L179.633 164.08" fill="#17282F"/>
<path d="M175.175 162.384C175.182 162.41 174.781 162.559 174.045 162.808C173.313 163.065 172.232 163.376 170.883 163.704C169.534 164.038 167.906 164.343 166.085 164.589C164.261 164.815 162.244 164.971 160.121 164.984C157.999 164.983 155.979 164.838 154.155 164.623C152.332 164.387 150.702 164.092 149.351 163.764C148 163.445 146.917 163.139 146.184 162.887C145.447 162.642 145.045 162.495 145.052 162.47C145.061 162.444 145.479 162.543 146.227 162.742C146.971 162.949 148.059 163.212 149.411 163.496C150.761 163.787 152.385 164.052 154.197 164.267C156.011 164.461 158.015 164.594 160.12 164.595C162.226 164.581 164.228 164.438 166.041 164.233C167.851 164.007 169.473 163.733 170.822 163.435C172.171 163.144 173.258 162.875 174.002 162.663C174.749 162.459 175.166 162.358 175.175 162.384" fill="#17282F"/>
<path d="M154.311 75.5769C153.803 74.2031 153.291 72.8181 153.062 71.371C152.833 69.9247 152.903 68.3939 153.521 67.0657C154.139 65.7374 155.365 64.6454 156.814 64.4301C157.709 64.2971 158.648 64.4907 159.511 64.2186C160.51 63.9032 161.208 63.0331 162.005 62.3545C163.25 61.2953 164.848 60.6562 166.48 60.5643C167.338 60.5157 168.227 60.6234 168.974 61.0457C169.721 61.468 170.301 62.2468 170.323 63.1049C171.339 62.8171 172.369 62.5256 173.426 62.5114C174.482 62.4957 175.585 62.7887 176.341 63.5265C177.098 64.2635 177.409 65.5005 176.89 66.4206C177.775 65.9639 178.966 66.4079 179.455 67.2757C179.944 68.145 179.77 69.2953 179.156 70.0801C178.542 70.865 177.17 71.525 176.177 71.6124C175.184 71.7006 174.032 71.7425 173.104 71.38" fill="#17282F"/>
<path d="M161.923 107.872C166.34 108.316 170.143 104.778 170.022 100.34C169.957 97.9619 169.907 95.9303 169.918 95.641C169.918 95.641 175.844 95.0042 176.194 89.1262C176.545 83.2482 176.163 69.6947 176.163 69.6947C169.493 66.447 161.587 67.0636 155.502 71.3062L154.599 71.9363L155.295 100.721C155.384 104.435 158.226 107.501 161.923 107.872" fill="#D2E0F9"/>
<path d="M169.931 95.5561C169.931 95.5561 166.201 95.6824 162.367 93.0147C162.367 93.0147 163.98 97.3328 169.874 97.0802L169.931 95.5561Z" fill="white"/>
<path d="M155.035 78.0627C154.938 78.0149 151.051 76.6769 150.989 80.7035C150.928 84.7307 154.984 83.9616 154.993 83.8458C155.001 83.7306 155.035 78.0627 155.035 78.0627" fill="#D2E0F9"/>
<path d="M153.786 82.3017C153.768 82.2882 153.715 82.3488 153.596 82.4019C153.479 82.4527 153.28 82.4863 153.071 82.4049C152.648 82.2419 152.3 81.561 152.291 80.8352C152.287 80.4682 152.368 80.1206 152.503 79.8336C152.631 79.5406 152.824 79.3381 153.039 79.3029C153.253 79.2573 153.403 79.3874 153.45 79.5017C153.502 79.6154 153.475 79.6953 153.497 79.7021C153.508 79.7125 153.584 79.6363 153.555 79.4696C153.539 79.3896 153.493 79.2932 153.4 79.2147C153.304 79.1348 153.163 79.0929 153.013 79.1063C152.703 79.1228 152.419 79.4046 152.271 79.7193C152.106 80.0354 152.006 80.4264 152.01 80.8382C152.024 81.6499 152.428 82.4153 153.007 82.5925C153.289 82.671 153.527 82.5895 153.651 82.496C153.777 82.3981 153.799 82.3084 153.786 82.3017" fill="white"/>
<path d="M176.37 71.5146C176.37 71.5146 172.37 72.6523 167.811 70.6737C164.819 69.3754 161.383 68.8462 160.666 69.4718C159.949 70.0982 159.951 73.1097 157.111 74.1412C157.111 74.1412 157.862 82.624 155.565 82.624C153.875 82.624 153.978 70.7455 153.978 70.7455L159.42 67.7168L165.457 66.2383L171.17 65.9326L176.569 67.281L176.37 71.5146" fill="#17282F"/>
<path d="M174.776 78.3777C174.792 78.8314 174.421 79.2194 173.948 79.2455C173.474 79.2709 173.077 78.9241 173.061 78.4704C173.045 78.0167 173.416 77.628 173.889 77.6019C174.363 77.5772 174.76 77.924 174.776 78.3777" fill="#17282F"/>
<path d="M174.963 77.4115C174.857 77.5229 174.206 77.0408 173.281 77.0438C172.357 77.0326 171.677 77.5087 171.577 77.3958C171.528 77.3457 171.637 77.1432 171.932 76.9279C172.223 76.7134 172.719 76.5049 173.296 76.5079C173.872 76.5108 174.356 76.7231 174.635 76.9399C174.92 77.1581 175.016 77.3607 174.963 77.4115" fill="#17282F"/>
<path d="M165.717 78.5955C165.733 79.0492 165.362 79.4371 164.888 79.4626C164.415 79.488 164.018 79.1419 164.002 78.6882C163.986 78.2337 164.357 77.8458 164.83 77.8197C165.304 77.7942 165.701 78.1418 165.717 78.5955Z" fill="#17282F"/>
<path d="M165.871 77.5842C165.764 77.6963 165.112 77.2142 164.188 77.2172C163.264 77.2067 162.585 77.6821 162.485 77.5685C162.435 77.5191 162.543 77.3166 162.84 77.1013C163.13 76.8868 163.627 76.6782 164.203 76.6805C164.779 76.6842 165.264 76.8965 165.542 77.1133C165.827 77.3315 165.923 77.5341 165.871 77.5842" fill="#17282F"/>
<path d="M169.228 84.4437C169.224 84.3914 169.799 84.292 170.731 84.1731C170.967 84.1485 171.19 84.1014 171.23 83.9399C171.286 83.7695 171.187 83.5154 171.072 83.2403C170.85 82.6685 170.618 82.0691 170.374 81.4419C169.404 78.8804 168.701 76.7748 168.805 76.7367C168.908 76.6986 169.779 78.7436 170.749 81.3044C170.982 81.936 171.206 82.5377 171.418 83.114C171.507 83.3823 171.661 83.6865 171.541 84.0408C171.477 84.2172 171.304 84.3451 171.152 84.3862C171.001 84.4325 170.868 84.4348 170.751 84.4422C169.813 84.4923 169.231 84.4968 169.228 84.4437" fill="#17282F"/>
<path d="M166.506 85.0838C166.656 85.0756 166.658 86.0794 167.517 86.7918C168.375 87.5071 169.446 87.3942 169.454 87.5347C169.467 87.5975 169.215 87.7298 168.763 87.7418C168.321 87.7575 167.673 87.6147 167.147 87.1789C166.623 86.7417 166.398 86.1587 166.364 85.7468C166.325 85.3268 166.437 85.0786 166.506 85.0838" fill="#17282F"/>
<path d="M166.11 73.9589C166.019 74.2108 165.095 74.0912 164.01 74.222C162.922 74.3311 162.047 74.6488 161.902 74.423C161.839 74.3154 161.99 74.0792 162.345 73.8355C162.695 73.5919 163.255 73.3609 163.907 73.2884C164.559 73.2174 165.154 73.3206 165.55 73.4813C165.948 73.642 166.149 73.84 166.11 73.9589" fill="#17282F"/>
<path d="M174.624 74.7333C174.461 74.944 173.824 74.7258 173.057 74.7161C172.291 74.6779 171.642 74.8566 171.493 74.6369C171.427 74.5307 171.529 74.3199 171.813 74.1211C172.092 73.923 172.56 73.7608 173.086 73.7765C173.613 73.793 174.069 73.9836 174.335 74.1988C174.606 74.4148 174.696 74.6309 174.624 74.7333" fill="#17282F"/>
<path d="M87.6406 180.055H198.741V134.928H87.6406V180.055Z" fill="white"/>
<path d="M198.74 180.054C198.74 180.054 198.732 179.777 198.728 179.249C198.725 178.714 198.721 177.932 198.715 176.907C198.708 174.848 198.697 171.823 198.684 167.927C198.668 160.138 198.646 148.871 198.617 134.928L198.74 135.051C170.479 135.065 131.137 135.083 87.6482 135.103H87.6406L87.8167 134.928C87.8138 150.73 87.8111 165.984 87.809 180.054L87.6406 179.886C119.833 179.918 147.585 179.946 167.297 179.966C177.162 179.986 185.012 180.001 190.405 180.013C193.099 180.022 195.177 180.029 196.59 180.034C197.29 180.039 197.824 180.043 198.191 180.045C198.551 180.048 198.74 180.054 198.74 180.054C198.74 180.054 198.566 180.062 198.211 180.065C197.85 180.068 197.322 180.071 196.63 180.076C195.225 180.08 193.159 180.087 190.48 180.097C185.097 180.108 177.259 180.124 167.411 180.143C147.67 180.164 119.879 180.191 87.6406 180.223H87.4722V180.054C87.4698 165.984 87.4672 150.73 87.4648 134.928V134.751H87.6406H87.6482C131.137 134.772 170.479 134.791 198.74 134.804H198.865V134.928C198.836 148.904 198.814 160.195 198.798 168.001C198.784 171.886 198.774 174.902 198.767 176.955C198.761 177.969 198.757 178.744 198.753 179.273C198.749 179.794 198.74 180.054 198.74 180.054" fill="white"/>
<path d="M87.7515 141.013C87.7515 140.916 112.585 140.837 143.211 140.837C173.848 140.837 198.676 140.916 198.676 141.013C198.676 141.11 173.848 141.189 143.211 141.189C112.585 141.189 87.7515 141.11 87.7515 141.013Z" fill="white"/>
<path d="M91.5962 139.097C91.1509 139.097 90.79 138.736 90.79 138.291C90.79 137.846 91.1509 137.485 91.5962 137.485C92.0414 137.485 92.4023 137.846 92.4023 138.291C92.4023 138.736 92.0414 139.097 91.5962 139.097Z" fill="white"/>
<path d="M94.3589 139.097C93.9136 139.097 93.5527 138.736 93.5527 138.291C93.5527 137.846 93.9136 137.485 94.3589 137.485C94.8044 137.485 95.1653 137.846 95.1653 138.291C95.1653 138.736 94.8044 139.097 94.3589 139.097Z" fill="white"/>
<path d="M97.082 139.097C96.6368 139.097 96.2759 138.736 96.2759 138.291C96.2759 137.846 96.6368 137.485 97.082 137.485C97.5273 137.485 97.8881 137.846 97.8881 138.291C97.8881 138.736 97.5273 139.097 97.082 139.097Z" fill="white"/>
<path d="M97.0825 175.183H123.918V148.348H97.0825V175.183Z" fill="white"/>
<path d="M97.0825 175.183H123.918V148.348H97.0825V175.183Z" fill="#5691FF"/>
<path d="M191.053 155.539C191.053 155.637 177.245 155.716 160.214 155.716C143.178 155.716 129.372 155.637 129.372 155.539C129.372 155.442 143.178 155.364 160.214 155.364C177.245 155.364 191.053 155.442 191.053 155.539" fill="white"/>
<path d="M191.054 161.007C191.054 161.104 177.245 161.183 160.215 161.183C143.179 161.183 129.373 161.104 129.373 161.007C129.373 160.91 143.179 160.831 160.215 160.831C177.245 160.831 191.054 160.91 191.054 161.007" fill="white"/>
<path d="M169.08 166.473C169.08 166.485 168.941 166.497 168.676 166.508C168.374 166.517 167.99 166.529 167.519 166.541C166.467 166.555 165.026 166.574 163.264 166.597C159.629 166.611 154.687 166.629 149.226 166.649C143.764 166.629 138.822 166.611 135.187 166.597C133.426 166.574 131.983 166.555 130.932 166.541C130.461 166.529 130.078 166.517 129.775 166.508C129.511 166.497 129.373 166.485 129.373 166.473C129.373 166.461 129.511 166.449 129.775 166.437C130.078 166.429 130.461 166.418 130.932 166.405C131.983 166.391 133.426 166.372 135.187 166.348C138.822 166.336 143.764 166.317 149.226 166.297C154.687 166.317 159.629 166.336 163.264 166.348C165.026 166.372 166.468 166.391 167.519 166.405C167.99 166.418 168.374 166.429 168.676 166.437C168.941 166.449 169.08 166.461 169.08 166.473Z" fill="white"/>
<path d="M144.621 102.981C144.621 102.981 139.204 105.771 136.798 115.783C135.611 120.721 130.701 136.789 129.912 145.774C129.421 151.356 135.514 156.56 141.058 157.376C141.142 157.389 141.227 157.396 141.312 157.412C152.834 159.723 163.973 156.595 163.973 156.595L161.651 146.079C161.651 146.079 146.929 143.226 145.053 142.348L150.765 119.767C150.765 119.767 155.036 103.944 144.621 102.981" fill="#70A2FF"/>
<path d="M145.958 105.248C145.959 105.241 146.028 105.25 146.162 105.272C146.295 105.299 146.497 105.326 146.756 105.39C147.267 105.527 148.036 105.766 148.882 106.352C149.728 106.924 150.583 107.923 151.128 109.283C151.676 110.642 151.925 112.322 151.877 114.161C151.854 115.082 151.759 116.045 151.581 117.04C151.374 118.035 151.096 119.03 150.842 120.085C150.317 122.185 149.755 124.435 149.16 126.81C147.964 131.564 146.642 136.821 145.24 142.395L145.106 142.162C146.831 142.648 148.663 143.131 150.527 143.593C152.482 144.072 154.416 144.513 156.321 144.877C157.275 145.054 158.221 145.219 159.159 145.333C159.622 145.393 160.107 145.429 160.582 145.54C160.818 145.597 161.054 145.66 161.287 145.764C161.524 145.858 161.761 146.059 161.892 146.275C162.177 146.722 162.249 147.199 162.36 147.639C162.46 148.088 162.558 148.533 162.656 148.975C162.84 149.862 162.999 150.739 163.153 151.6C163.461 153.322 163.756 154.983 164.139 156.553L164.179 156.719L164.014 156.759C156.938 158.508 150.772 158.54 146.543 158.199C142.296 157.845 139.925 157.215 139.925 157.215C139.927 157.206 140.079 157.224 140.37 157.269C140.685 157.318 141.113 157.385 141.657 157.47C142.784 157.636 144.441 157.857 146.558 157.998C150.776 158.28 156.907 158.197 163.931 156.428L163.807 156.634C163.413 155.053 163.111 153.385 162.798 151.665C162.64 150.804 162.478 149.931 162.294 149.052C162.195 148.613 162.097 148.17 161.997 147.725C161.887 147.283 161.803 146.826 161.579 146.483C161.373 146.13 160.945 146.025 160.498 145.911C160.055 145.807 159.593 145.774 159.113 145.712C158.161 145.598 157.209 145.434 156.25 145.256C154.333 144.892 152.394 144.451 150.435 143.971C148.565 143.508 146.731 143.023 145 142.533L144.819 142.483L144.865 142.301C146.282 136.73 147.618 131.477 148.827 126.727C149.433 124.355 150.008 122.109 150.545 120.011C150.805 118.965 151.093 117.949 151.302 116.986C151.485 116.012 151.587 115.06 151.618 114.154C151.682 112.341 151.456 110.69 150.939 109.358C150.424 108.025 149.613 107.043 148.799 106.466C147.987 105.877 147.237 105.618 146.736 105.46C146.483 105.385 146.286 105.346 146.155 105.309C146.024 105.274 145.957 105.254 145.958 105.248" fill="#17282F"/>
<path d="M137.977 146.784C137.939 146.777 137.994 146.251 138.375 145.498C138.749 144.749 139.514 143.816 140.625 143.151C141.739 142.491 142.924 142.265 143.761 142.294C144.604 142.318 145.093 142.52 145.081 142.557C145.067 142.624 144.566 142.522 143.767 142.569C142.97 142.611 141.874 142.865 140.825 143.485C139.778 144.112 139.031 144.954 138.614 145.634C138.192 146.315 138.043 146.803 137.977 146.784" fill="#17282F"/>
<path d="M162.268 147.02L166.514 146.554C166.514 146.554 168.261 143.656 169.408 142.645C170.555 141.634 176.485 138.796 176.485 138.796C176.485 138.796 177.353 139.834 176.485 140.877C176.095 141.345 173.292 142.924 173.292 142.924C172.958 144.077 173.955 145.179 175.136 144.962C176.873 144.643 178.896 144.283 179.163 144.283C179.46 144.283 181.195 142.643 182.467 141.397C183.23 140.651 184.592 141.365 184.288 142.388C184.257 142.494 184.208 142.582 184.136 142.645C184.136 142.645 185.966 142.581 184.333 145.04C184.333 145.04 184.71 147.31 183.371 148.35C183.371 148.35 182.793 151.094 181.932 152.04C181.071 152.986 172.662 154.783 172.662 154.783L163.901 155.633L162.268 147.02" fill="#D2E0F9"/>
<path d="M175.889 147.566C175.892 147.616 176.464 147.649 177.394 147.602C178.311 147.542 179.65 147.415 180.93 146.673C182.201 145.907 182.927 144.76 183.393 143.97C183.853 143.161 184.078 142.633 184.035 142.609C183.985 142.579 183.674 143.063 183.16 143.825C182.642 144.569 181.905 145.636 180.732 146.34C179.551 147.027 178.268 147.202 177.368 147.329C176.457 147.444 175.885 147.508 175.889 147.566Z" fill="white"/>
<path d="M176.756 149.515C176.747 149.566 177.277 149.683 178.13 149.623C178.556 149.594 179.059 149.53 179.613 149.407C180.157 149.27 180.783 149.119 181.346 148.7C181.884 148.288 182.279 147.805 182.636 147.375C182.956 146.976 183.263 146.593 183.561 146.223C184.081 145.561 184.382 145.134 184.342 145.1C184.301 145.065 183.926 145.428 183.352 146.044C183.066 146.35 182.726 146.724 182.362 147.144C181.997 147.556 181.598 148.019 181.113 148.389C180.641 148.747 180.048 148.911 179.527 149.059C178.999 149.197 178.512 149.288 178.1 149.35C177.277 149.478 176.764 149.461 176.756 149.515" fill="white"/>
<path d="M177.938 151.681C177.963 151.838 179.467 151.521 181.243 151.024C181.538 150.959 181.722 150.771 181.894 150.63C182.065 150.477 182.216 150.321 182.352 150.165C182.624 149.855 182.84 149.553 183.001 149.286C183.328 148.752 183.418 148.367 183.371 148.35C183.317 148.33 183.144 148.659 182.776 149.131C182.592 149.367 182.362 149.64 182.089 149.923C181.953 150.064 181.804 150.208 181.644 150.343C181.482 150.473 181.319 150.621 181.148 150.647C180.241 150.892 179.446 151.146 178.865 151.333C178.284 151.527 177.937 151.639 177.938 151.681" fill="white"/>
<path d="M314.197 114.069C314.197 113.961 315.369 113.874 316.813 113.874C316.425 114.263 316.705 113.981 316.619 114.068V114.066V114.064V114.06V114.052V114.035V114.001V113.934V113.801L316.622 113.541C316.626 113.379 316.63 113.218 316.633 113.05C316.644 112.737 316.658 112.455 316.676 112.219C316.711 111.746 316.76 111.453 316.813 111.453C316.867 111.453 316.915 111.746 316.951 112.219C316.968 112.455 316.983 112.737 316.993 113.05C316.996 113.218 317 113.379 317.003 113.541L317.006 113.801L317.007 113.934L317.008 114.001V114.035V114.052V114.06V114.064V114.066V114.068C316.921 114.155 317.202 113.874 316.813 114.263C315.369 114.263 314.197 114.176 314.197 114.069Z" fill="white"/>
<path d="M304.101 114.069C304.101 113.961 305.231 113.874 306.625 113.874C308.02 113.874 309.149 113.961 309.149 114.069C309.149 114.176 308.02 114.263 306.625 114.263C305.231 114.263 304.101 114.176 304.101 114.069Z" fill="white"/>
<path d="M294.008 114.069C294.008 113.961 295.137 113.874 296.531 113.874C297.925 113.874 299.055 113.961 299.055 114.069C299.055 114.176 297.925 114.263 296.531 114.263C295.137 114.263 294.008 114.176 294.008 114.069Z" fill="white"/>
<path d="M283.913 114.069C283.913 113.961 285.042 113.874 286.436 113.874C287.83 113.874 288.959 113.961 288.959 114.069C288.959 114.176 287.83 114.263 286.436 114.263C285.042 114.263 283.913 114.176 283.913 114.069Z" fill="white"/>
<path d="M273.818 114.069C273.818 113.961 274.948 113.874 276.341 113.874C277.735 113.874 278.865 113.961 278.865 114.069C278.865 114.176 277.735 114.263 276.341 114.263C274.948 114.263 273.818 114.176 273.818 114.069Z" fill="white"/>
<path d="M263.723 114.069C263.723 113.961 264.853 113.874 266.246 113.874C267.641 113.874 268.77 113.961 268.77 114.069C268.77 114.176 267.641 114.263 266.246 114.263C264.853 114.263 263.723 114.176 263.723 114.069Z" fill="white"/>
<path d="M253.628 114.069C253.628 113.961 254.758 113.874 256.152 113.874C257.546 113.874 258.676 113.961 258.676 114.069C258.676 114.176 257.546 114.263 256.152 114.263C254.758 114.263 253.628 114.176 253.628 114.069Z" fill="white"/>
<path d="M243.533 114.069C243.533 113.961 244.663 113.874 246.057 113.874C247.451 113.874 248.581 113.961 248.581 114.069C248.581 114.176 247.451 114.263 246.057 114.263C244.663 114.263 243.533 114.176 243.533 114.069Z" fill="white"/>
<path d="M233.438 114.069C233.438 113.961 234.568 113.874 235.961 113.874C237.356 113.874 238.486 113.961 238.486 114.069C238.486 114.176 237.356 114.263 235.961 114.263C234.568 114.263 233.438 114.176 233.438 114.069Z" fill="white"/>
<path d="M225.774 111.452C225.882 111.452 225.97 112.624 225.97 114.068C225.581 113.679 225.863 113.96 225.775 113.873H225.777H225.779H225.783H225.792H225.808H225.842L225.91 113.874L226.042 113.875L226.301 113.878C226.464 113.882 226.625 113.885 226.793 113.889C227.106 113.899 227.388 113.913 227.625 113.931C228.098 113.966 228.391 114.015 228.391 114.068C228.391 114.122 228.098 114.171 227.625 114.206C227.388 114.224 227.106 114.238 226.793 114.248C226.625 114.252 226.464 114.255 226.301 114.259L226.042 114.262L225.91 114.263H225.842H225.808H225.792H225.783H225.779H225.777H225.775C225.688 114.176 225.97 114.458 225.58 114.068C225.58 112.624 225.667 111.452 225.774 111.452" fill="white"/>
<path d="M225.774 101.213C225.882 101.213 225.97 102.359 225.97 103.772C225.97 105.187 225.882 106.333 225.774 106.333C225.667 106.333 225.58 105.187 225.58 103.772C225.58 102.359 225.667 101.213 225.774 101.213Z" fill="white"/>
<path d="M225.774 90.9752C225.882 90.9752 225.97 92.1218 225.97 93.5345C225.97 94.9486 225.882 96.0945 225.774 96.0945C225.667 96.0945 225.58 94.9486 225.58 93.5345C225.58 92.1218 225.667 90.9752 225.774 90.9752Z" fill="white"/>
<path d="M228.391 83.2396C228.391 83.3473 227.22 83.4347 225.774 83.4347C226.163 83.046 225.882 83.3271 225.97 83.2404V83.2419V83.2441V83.2486V83.2568V83.2733V83.3077L225.969 83.3742L225.968 83.5072L225.965 83.7666C225.961 83.9288 225.958 84.0902 225.954 84.2584C225.944 84.5716 225.93 84.8534 225.912 85.0896C225.878 85.5635 225.828 85.8557 225.774 85.8557C225.721 85.8557 225.672 85.5635 225.637 85.0896C225.62 84.8534 225.605 84.5716 225.596 84.2584C225.591 84.0902 225.588 83.9288 225.585 83.7666L225.581 83.5072L225.58 83.3742V83.3077V83.2733V83.2568V83.2486V83.2441V83.2419V83.2404C225.667 83.1537 225.386 83.4347 225.774 83.0453C227.22 83.0453 228.391 83.132 228.391 83.2396" fill="white"/>
<path d="M238.486 83.24C238.486 83.3476 237.355 83.4351 235.962 83.4351C234.568 83.4351 233.438 83.3476 233.438 83.24C233.438 83.1323 234.568 83.0456 235.962 83.0456C237.355 83.0456 238.486 83.1323 238.486 83.24Z" fill="white"/>
<path d="M248.581 83.24C248.581 83.3476 247.451 83.4351 246.057 83.4351C244.663 83.4351 243.533 83.3476 243.533 83.24C243.533 83.1323 244.663 83.0456 246.057 83.0456C247.451 83.0456 248.581 83.1323 248.581 83.24Z" fill="white"/>
<path d="M258.676 83.24C258.676 83.3476 257.546 83.4351 256.152 83.4351C254.758 83.4351 253.628 83.3476 253.628 83.24C253.628 83.1323 254.758 83.0456 256.152 83.0456C257.546 83.0456 258.676 83.1323 258.676 83.24Z" fill="white"/>
<path d="M268.77 83.24C268.77 83.3476 267.64 83.4351 266.247 83.4351C264.853 83.4351 263.723 83.3476 263.723 83.24C263.723 83.1323 264.853 83.0456 266.247 83.0456C267.64 83.0456 268.77 83.1323 268.77 83.24Z" fill="white"/>
<path d="M278.865 83.24C278.865 83.3476 277.735 83.4351 276.341 83.4351C274.948 83.4351 273.817 83.3476 273.817 83.24C273.817 83.1323 274.948 83.0456 276.341 83.0456C277.735 83.0456 278.865 83.1323 278.865 83.24Z" fill="white"/>
<path d="M288.959 83.24C288.959 83.3476 287.829 83.4351 286.436 83.4351C285.042 83.4351 283.913 83.3476 283.913 83.24C283.913 83.1323 285.042 83.0456 286.436 83.0456C287.829 83.0456 288.959 83.1323 288.959 83.24Z" fill="white"/>
<path d="M299.055 83.24C299.055 83.3476 297.924 83.4351 296.531 83.4351C295.136 83.4351 294.008 83.3476 294.008 83.24C294.008 83.1323 295.136 83.0456 296.531 83.0456C297.924 83.0456 299.055 83.1323 299.055 83.24Z" fill="white"/>
<path d="M309.149 83.24C309.149 83.3476 308.019 83.4351 306.625 83.4351C305.231 83.4351 304.101 83.3476 304.101 83.24C304.101 83.1323 305.231 83.0456 306.625 83.0456C308.019 83.0456 309.149 83.1323 309.149 83.24Z" fill="white"/>
<path d="M316.813 85.8557C316.706 85.8557 316.619 84.6845 316.619 83.2396C317.007 83.6283 316.725 83.3473 316.812 83.4347H316.811H316.809H316.805H316.796H316.779H316.746L316.679 83.434L316.546 83.4332L316.286 83.4302C316.124 83.4265 315.963 83.4228 315.795 83.419C315.482 83.4093 315.2 83.3951 314.964 83.3772C314.49 83.342 314.197 83.2934 314.197 83.2396C314.197 83.1858 314.49 83.1372 314.964 83.1021C315.2 83.0842 315.482 83.07 315.795 83.0602C315.963 83.0565 316.124 83.0528 316.286 83.049L316.546 83.046L316.679 83.0453H316.746H316.779H316.796H316.805H316.809H316.811H316.812C316.9 83.132 316.619 82.8509 317.008 83.2396C317.008 84.6845 316.92 85.8557 316.813 85.8557" fill="white"/>
<path d="M316.813 96.0945C316.706 96.0945 316.619 94.9486 316.619 93.5352C316.619 92.121 316.706 90.9752 316.813 90.9752C316.92 90.9752 317.008 92.121 317.008 93.5352C317.008 94.9486 316.92 96.0945 316.813 96.0945Z" fill="white"/>
<path d="M316.813 106.333C316.706 106.333 316.619 105.187 316.619 103.773C316.619 102.359 316.706 101.213 316.813 101.213C316.92 101.213 317.008 102.359 317.008 103.773C317.008 105.187 316.92 106.333 316.813 106.333Z" fill="white"/>
<path d="M226.786 84.0415H225.182V82.4382H226.786V84.0415Z" fill="white"/>
<path d="M226.576 114.871H224.973V113.267H226.576V114.871Z" fill="white"/>
<path d="M272.095 114.871H270.492V113.267H272.095V114.871Z" fill="white"/>
<path d="M272.095 83.7039H270.492V82.0998H272.095V83.7039Z" fill="white"/>
<path d="M285.549 159.413C285.549 159.512 278.483 159.592 269.77 159.592C261.053 159.592 253.989 159.512 253.989 159.413C253.989 159.313 261.053 159.233 269.77 159.233C278.483 159.233 285.549 159.313 285.549 159.413Z" fill="white"/>
<path d="M310.714 165.89C310.714 165.989 298.014 166.069 282.353 166.069C266.686 166.069 253.989 165.989 253.989 165.89C253.989 165.79 266.686 165.71 282.353 165.71C298.014 165.71 310.714 165.79 310.714 165.89" fill="#17282F"/>
<path d="M310.047 170.517C310.047 170.615 297.496 170.696 282.019 170.696C266.537 170.696 253.989 170.615 253.989 170.517C253.989 170.417 266.537 170.337 282.019 170.337C297.496 170.337 310.047 170.417 310.047 170.517Z" fill="#17282F"/>
<path d="M287.087 174.928C287.087 175.028 279.677 175.108 270.539 175.108C261.397 175.108 253.989 175.028 253.989 174.928C253.989 174.829 261.397 174.749 270.539 174.749C279.677 174.749 287.087 174.829 287.087 174.928Z" fill="#17282F"/>
<path d="M285.634 127.56C285.634 127.659 278.569 127.739 269.855 127.739C261.138 127.739 254.074 127.659 254.074 127.56C254.074 127.46 261.138 127.38 269.855 127.38C278.569 127.38 285.634 127.46 285.634 127.56Z" fill="white"/>
<path d="M310.798 134.036C310.798 134.136 298.1 134.217 282.438 134.217C266.771 134.217 254.074 134.136 254.074 134.036C254.074 133.938 266.771 133.857 282.438 133.857C298.1 133.857 310.798 133.938 310.798 134.036Z" fill="#17282F"/>
<path d="M310.132 138.663C310.132 138.763 297.582 138.843 282.104 138.843C266.622 138.843 254.074 138.763 254.074 138.663C254.074 138.564 266.622 138.484 282.104 138.484C297.582 138.484 310.132 138.564 310.132 138.663" fill="#17282F"/>
<path d="M287.172 143.076C287.172 143.175 279.762 143.255 270.624 143.255C261.482 143.255 254.074 143.175 254.074 143.076C254.074 142.977 261.482 142.896 270.624 142.896C279.762 142.896 287.172 142.977 287.172 143.076Z" fill="#17282F"/>
<path d="M240.464 144.436C240.464 144.327 241.636 144.241 243.08 144.241C244.525 144.241 245.696 144.327 245.696 144.436C245.696 144.543 244.525 144.63 243.08 144.63C241.636 144.63 240.464 144.543 240.464 144.436Z" fill="white"/>
<path d="M230 144.436C230 144.327 231.172 144.241 232.616 144.241C234.062 144.241 235.232 144.327 235.232 144.436C235.232 144.543 234.062 144.63 232.616 144.63C231.172 144.63 230 144.543 230 144.436Z" fill="white"/>
<path d="M228.066 135.905C228.174 135.905 228.261 137.077 228.261 138.521C228.261 139.965 228.174 141.137 228.066 141.137C227.96 141.137 227.872 139.965 227.872 138.521C227.872 137.077 227.96 135.905 228.066 135.905Z" fill="white"/>
<path d="M229.432 126.806C229.432 126.879 228.883 126.943 228.066 126.976L228.238 126.806C228.253 127.172 228.261 127.6 228.261 128.056C228.261 129.502 228.174 130.673 228.066 130.673C227.96 130.673 227.872 129.502 227.872 128.056C227.872 127.6 227.881 127.172 227.896 126.806L227.903 126.629L228.066 126.635C228.883 126.667 229.432 126.732 229.432 126.806Z" fill="white"/>
<path d="M239.896 126.806C239.896 126.913 238.725 127 237.28 127C235.835 127 234.664 126.913 234.664 126.806C234.664 126.698 235.835 126.611 237.28 126.611C238.725 126.611 239.896 126.698 239.896 126.806Z" fill="white"/>
<path d="M245.696 131.469C245.589 131.469 245.502 130.297 245.502 128.853C245.502 128.019 245.531 127.276 245.576 126.805L245.696 126.926C245.336 126.892 245.128 126.851 245.128 126.805C245.128 126.76 245.336 126.718 245.696 126.685L245.804 126.675L245.816 126.805C245.862 127.276 245.891 128.019 245.891 128.853C245.891 130.297 245.804 131.469 245.696 131.469" fill="white"/>
<path d="M245.696 141.934C245.589 141.934 245.502 140.762 245.502 139.318C245.502 137.873 245.589 136.701 245.696 136.701C245.804 136.701 245.891 137.873 245.891 139.318C245.891 140.762 245.804 141.934 245.696 141.934Z" fill="white"/>
<path d="M246.485 145.53H244.532V143.577H246.485V145.53Z" fill="white"/>
<path d="M246.485 127.304H244.532V125.351H246.485V127.304Z" fill="white"/>
<path d="M229.042 145.53H227.09V143.577H229.042V145.53Z" fill="white"/>
<path d="M229.042 127.782H227.09V125.829H229.042V127.782Z" fill="white"/>
<path d="M228.066 168.364C228.174 168.364 228.261 169.535 228.261 170.98C228.261 172.424 228.174 173.596 228.066 173.596C227.96 173.596 227.872 172.424 227.872 170.98C227.872 169.535 227.96 168.364 228.066 168.364Z" fill="white"/>
<path d="M229.432 159.265C229.432 159.339 228.883 159.403 228.066 159.436L228.238 159.265C228.253 159.632 228.261 160.061 228.261 160.517C228.261 161.962 228.174 163.133 228.066 163.133C227.96 163.133 227.872 161.962 227.872 160.517C227.872 160.061 227.881 159.632 227.896 159.265L227.903 159.088L228.066 159.094C228.883 159.128 229.432 159.191 229.432 159.265" fill="white"/>
<path d="M239.896 159.265C239.896 159.372 238.725 159.46 237.28 159.46C235.835 159.46 234.664 159.372 234.664 159.265C234.664 159.158 235.835 159.071 237.28 159.071C238.725 159.071 239.896 159.158 239.896 159.265Z" fill="white"/>
<path d="M245.696 163.928C245.59 163.928 245.502 162.757 245.502 161.312C245.502 160.478 245.531 159.736 245.576 159.265L245.696 159.385C245.337 159.352 245.128 159.31 245.128 159.265C245.128 159.219 245.337 159.178 245.696 159.145L245.805 159.135L245.817 159.265C245.862 159.736 245.892 160.478 245.892 161.312C245.892 162.757 245.804 163.928 245.696 163.928" fill="white"/>
<path d="M245.696 174.392C245.589 174.392 245.502 173.221 245.502 171.776C245.502 170.331 245.589 169.16 245.696 169.16C245.804 169.16 245.891 170.331 245.891 171.776C245.891 173.221 245.804 174.392 245.696 174.392Z" fill="white"/>
<path d="M246.485 159.762H244.532V157.81H246.485V159.762Z" fill="white"/>
<path d="M229.042 160.241H227.09V158.288H229.042V160.241Z" fill="white"/>
<path d="M225.182 95.511C225.182 95.5184 225.121 95.5244 225.001 95.5311C224.857 95.5364 224.682 95.5423 224.465 95.5506C223.963 95.5595 223.276 95.5715 222.408 95.5872C220.586 95.6021 218.01 95.6231 214.84 95.6485C211.634 95.6612 207.833 95.6754 203.616 95.6911C201.503 95.6941 199.286 95.6978 196.989 95.7023C196.414 95.7023 195.834 95.703 195.25 95.7038C194.656 95.7098 194.082 95.6679 193.55 95.8338C192.474 96.1425 191.577 97.0754 191.345 98.207C191.229 98.7579 191.288 99.3768 191.273 99.9785C191.272 100.581 191.272 101.178 191.272 101.772C191.271 102.959 191.27 104.129 191.269 105.279C191.265 107.577 191.262 109.794 191.258 111.908C191.242 116.126 191.228 119.927 191.216 123.132C191.19 126.302 191.169 128.879 191.154 130.7C191.139 131.568 191.126 132.255 191.117 132.757C191.11 132.973 191.103 133.148 191.098 133.292C191.092 133.413 191.085 133.474 191.078 133.474C191.072 133.474 191.065 133.413 191.058 133.292C191.053 133.148 191.047 132.973 191.039 132.757C191.031 132.255 191.018 131.568 191.002 130.7C190.987 128.879 190.967 126.302 190.941 123.132C190.929 119.927 190.915 116.126 190.899 111.908C190.895 109.794 190.892 107.577 190.888 105.279C190.887 104.129 190.886 102.959 190.885 101.772C190.884 101.178 190.884 100.581 190.884 99.9785C190.901 99.3798 190.833 98.7743 190.964 98.1255C191.226 96.8526 192.231 95.8069 193.442 95.4624C194.056 95.2755 194.68 95.3248 195.25 95.3189C195.834 95.3196 196.414 95.3204 196.989 95.3204C199.286 95.3248 201.503 95.3286 203.616 95.3323C207.833 95.348 211.634 95.3615 214.84 95.3734C218.01 95.3996 220.586 95.4205 222.408 95.4355C223.276 95.4512 223.963 95.4631 224.465 95.4721C224.682 95.4796 224.857 95.4863 225.001 95.4915C225.121 95.4983 225.182 95.505 225.182 95.511" fill="white"/>
<path d="M227.131 95.4482C227.131 96.1 226.603 96.6284 225.95 96.6284C225.298 96.6284 224.77 96.1 224.77 95.4482C224.77 94.7964 225.298 94.268 225.95 94.268C226.603 94.268 227.131 94.7964 227.131 95.4482Z" fill="white"/>
<path d="M248.653 105.074C248.617 105.074 248.616 104.806 248.485 104.36C248.356 103.92 248.048 103.283 247.385 102.798C246.744 102.312 245.699 102.046 244.693 102.425C243.695 102.774 242.837 103.835 242.849 105.073C242.837 106.311 243.695 107.373 244.693 107.722C245.699 108.102 246.744 107.835 247.385 107.348C248.048 106.863 248.356 106.225 248.485 105.787C248.616 105.34 248.617 105.072 248.653 105.074C248.67 105.071 248.724 105.342 248.632 105.824C248.542 106.296 248.256 107.005 247.552 107.567C246.872 108.129 245.713 108.467 244.57 108.059C243.438 107.687 242.446 106.485 242.459 105.073C242.446 103.662 243.438 102.459 244.57 102.088C245.713 101.679 246.872 102.017 247.552 102.579C248.256 103.141 248.542 103.851 248.632 104.322C248.724 104.805 248.67 105.075 248.653 105.074" fill="white"/>
</g>
<defs>
<clipPath id="clip0_620_1431">
<rect width="510" height="176" fill="white"/>
</clipPath>
</defs>
</svg>
